<?xml version="1.0" encoding="UTF-8" standalone="no"?><svg xmlns="http://www.w3.org/2000/svg" xmlns:xlink="http://www.w3.org/1999/xlink" contentScriptType="application/ecmascript" contentStyleType="text/css" height="293px" preserveAspectRatio="none" style="width:470px;height:293px;" version="1.1" viewBox="0 0 470 293" width="470px" zoomAndPan="magnify"><defs><filter height="300%" id="ft5z134" width="300%" x="-1" y="-1"><feGaussianBlur result="blurOut" stdDeviation="2.0"/><feColorMatrix in="blurOut" result="blurOut2" type="matrix" values="0 0 0 0 0 0 0 0 0 0 0 0 0 0 0 0 0 0 .4 0"/><feOffset dx="4.0" dy="4.0" in="blurOut2" result="blurOut3"/><feBlend in="SourceGraphic" in2="blurOut3" mode="normal"/></filter></defs><g><!--class it.matlice.ingsw.model.data.impl.jdbc.CategoryFactoryImpl--><a target="_parent" xlink:actuate="onRequest" xlink:href="../../../../../../../it/matlice/ingsw/model/data/impl/jdbc/CategoryFactoryImpl.html" xlink:show="new" xlink:title="it.matlice.ingsw.model.data.impl.jdbc.CategoryFactoryImpl" xlink:type="simple"><rect fill="#FEFECE" filter="url(#ft5z134)" height="173.599" style="stroke: #A80036; stroke-width: 1.5;" width="455" x="6" y="8"/><ellipse cx="145.75" cy="27.4" fill="#ADD1B2" rx="11" ry="11" style="stroke: #A80036; stroke-width: 1.0;"/><path d="M140.75,28.5562 C140.75,31.0562 142.8906,32.8687 145.8125,32.8687 C147.0469,32.8687 148.2188,32.5718 148.9688,32.0562 C149.5781,31.6343 149.9063,31.2125 149.9063,30.8062 C149.9063,30.3375 149.4844,29.9312 148.9844,29.9312 C148.75,29.9312 148.5313,30.0093 148.3281,30.2125 C147.8906,30.65 147.8906,30.65 147.7188,30.7437 C147.2656,30.9781 146.625,31.1187 145.8594,31.1187 C143.8594,31.1187 142.5781,30.1031 142.5781,28.525 L142.5781,27.4781 C142.5781,25.775 143.7969,24.5718 145.5,24.5718 C146.0781,24.5718 146.6563,24.7125 147.125,24.9625 C147.5938,25.2281 147.7656,25.4156 147.8281,25.775 C147.9531,26.4468 148.2031,26.6968 148.7344,26.6968 C149.0156,26.6968 149.2969,26.5562 149.4844,26.3375 C149.6094,26.1656 149.6563,25.9937 149.6563,25.5562 L149.6563,24.1968 C149.6563,23.775 149.6406,23.6343 149.5156,23.4625 C149.3438,23.2125 149.0625,23.0562 148.7344,23.0562 C148.4219,23.0562 148.2188,23.1656 148,23.4312 C146.8281,22.9312 146.3906,22.8218 145.4375,22.8218 C142.7656,22.8218 140.75,24.8375 140.75,27.4625 L140.75,28.5562 Z "/><text fill="#000000" font-family="sans-serif" font-size="14" font-weight="bold" lengthAdjust="spacingAndGlyphs" textLength="143" x="178.25" y="26.0059">CategoryFactoryImpl</text><text fill="#000000" font-family="sans-serif" font-size="10" lengthAdjust="spacingAndGlyphs" textLength="167" x="166.25" y="39.0899">it.matlice.ingsw.model.data.impl.jdbc</text><line style="stroke: #A80036; stroke-width: 1.5;" x1="7" x2="460" y1="46.7999" y2="46.7999"/><rect fill="none" height="6" style="stroke: #C82930; stroke-width: 1.0;" width="6" x="14" y="55.8999"/><text fill="#000000" font-family="sans-serif" font-size="11" lengthAdjust="spacingAndGlyphs" textLength="181" x="26" y="61.0188">ConnectionSource connectionSource</text><rect fill="none" height="6" style="stroke: #C82930; stroke-width: 1.0;" width="6" x="14" y="69.0998"/><text fill="#000000" font-family="sans-serif" font-size="11" lengthAdjust="spacingAndGlyphs" textLength="100" x="26" y="74.2187">&lt;any&gt; categoryDAO</text><rect fill="none" height="6" style="stroke: #C82930; stroke-width: 1.0;" width="6" x="14" y="82.2997"/><text fill="#000000" font-family="sans-serif" font-size="11" lengthAdjust="spacingAndGlyphs" textLength="76" x="26" y="87.4186">&lt;any&gt; fieldDAO</text><line style="stroke: #A80036; stroke-width: 1.5;" x1="7" x2="460" y1="94.3996" y2="94.3996"/><ellipse cx="17" cy="106.4996" fill="#84BE84" rx="3" ry="3" style="stroke: #038048; stroke-width: 1.0;"/><text fill="#000000" font-family="sans-serif" font-size="11" lengthAdjust="spacingAndGlyphs" textLength="111" x="26" y="108.6185">CategoryFactoryImpl()</text><ellipse cx="17" cy="119.6995" fill="#84BE84" rx="3" ry="3" style="stroke: #038048; stroke-width: 1.0;"/><text fill="#000000" font-family="sans-serif" font-size="11" lengthAdjust="spacingAndGlyphs" textLength="125" x="26" y="121.8184">&lt;any&gt; getCategoryDAO()</text><ellipse cx="17" cy="132.8994" fill="#84BE84" rx="3" ry="3" style="stroke: #038048; stroke-width: 1.0;"/><text fill="#000000" font-family="sans-serif" font-size="11" lengthAdjust="spacingAndGlyphs" textLength="138" x="26" y="135.0183">Category getCategory(int id)</text><ellipse cx="17" cy="146.0993" fill="#84BE84" rx="3" ry="3" style="stroke: #038048; stroke-width: 1.0;"/><text fill="#000000" font-family="sans-serif" font-size="11" lengthAdjust="spacingAndGlyphs" textLength="429" x="26" y="148.2182">Category createCategory(String nome,String description,Category father,boolean isLeaf)</text><ellipse cx="17" cy="159.2992" fill="#84BE84" rx="3" ry="3" style="stroke: #038048; stroke-width: 1.0;"/><text fill="#000000" font-family="sans-serif" font-size="11" lengthAdjust="spacingAndGlyphs" textLength="216" x="26" y="161.4182">Category saveCategory(Category category)</text><rect fill="#F24D5C" height="6" style="stroke: #C82930; stroke-width: 1.0;" width="6" x="14" y="169.4991"/><text fill="#000000" font-family="sans-serif" font-size="11" lengthAdjust="spacingAndGlyphs" textLength="205" x="26" y="174.6181">Category populateCategory(Category cat)</text></a><!--class it.matlice.ingsw.model.data.factories.CategoryFactory--><a target="_parent" xlink:actuate="onRequest" xlink:href="../../../../../../../it/matlice/ingsw/model/data/factories/CategoryFactory.html" xlink:show="new" xlink:title="it.matlice.ingsw.model.data.factories.CategoryFactory" xlink:type="simple"><rect fill="#FFFFFF" filter="url(#ft5z134)" height="42.3999" style="stroke: #A80036; stroke-width: 1.5;" width="198" x="28.5" y="242"/><rect fill="#FFFFFF" height="42.3999" style="stroke: #A80036; stroke-width: 1.5;" width="198" x="28.5" y="242"/><ellipse cx="43.5" cy="263.2" fill="#B4A7E5" rx="11" ry="11" style="stroke: #A80036; stroke-width: 1.0;"/><path d="M44.5156,260.3562 L46.1719,260.3562 C46.5625,260.3562 46.7656,260.325 46.9219,260.2468 C47.1875,260.075 47.3594,259.7781 47.3594,259.4812 C47.3594,259.2 47.2188,258.95 46.9844,258.7781 C46.7969,258.6531 46.6406,258.6062 46.1719,258.6062 L41.0313,258.6062 C40.5938,258.6062 40.4531,258.6218 40.2813,258.7312 C40.0156,258.9031 39.8438,259.1843 39.8438,259.4812 C39.8438,259.7625 39.9844,260.0437 40.2188,260.2 C40.4063,260.325 40.5938,260.3562 41.0313,260.3562 L42.6875,260.3562 L42.6875,266.45 L41.0313,266.45 C40.5938,266.45 40.4531,266.4656 40.2813,266.575 C40.0156,266.7312 39.8438,267.0281 39.8438,267.3093 C39.8438,267.9187 40.25,268.2 41.0313,268.2 L46.1719,268.2 C46.9531,268.2 47.3594,267.9187 47.3594,267.3093 C47.3594,267.0437 47.2188,266.7937 46.9844,266.6218 C46.7969,266.4812 46.625,266.45 46.1719,266.45 L44.5156,266.45 L44.5156,260.3562 Z "/><text fill="#000000" font-family="sans-serif" font-size="14" font-style="italic" font-weight="bold" lengthAdjust="spacingAndGlyphs" textLength="114" x="83.5" y="262.3999">CategoryFactory</text><text fill="#000000" font-family="sans-serif" font-size="10" font-style="italic" lengthAdjust="spacingAndGlyphs" textLength="166" x="57.5" y="276.8999">it.matlice.ingsw.model.data.factories</text></a><!--class it.matlice.ingsw.model.data.Category--><a target="_parent" xlink:actuate="onRequest" xlink:href="../../../../../../../it/matlice/ingsw/model/data/Category.html" xlink:show="new" xlink:title="it.matlice.ingsw.model.data.Category" xlink:type="simple"><rect fill="#FFFFFF" filter="url(#ft5z134)" height="38.7999" style="stroke: #A80036; stroke-width: 1.5;" width="156" x="261.5" y="243.5"/><rect fill="#FFFFFF" height="38.7999" style="stroke: #A80036; stroke-width: 1.5;" width="156" x="261.5" y="243.5"/><ellipse cx="276.5" cy="262.9" fill="#ADD1B2" rx="11" ry="11" style="stroke: #A80036; stroke-width: 1.0;"/><path d="M271.5,264.0562 C271.5,266.5562 273.6406,268.3687 276.5625,268.3687 C277.7969,268.3687 278.9688,268.0718 279.7188,267.5562 C280.3281,267.1343 280.6563,266.7125 280.6563,266.3062 C280.6563,265.8375 280.2344,265.4312 279.7344,265.4312 C279.5,265.4312 279.2813,265.5093 279.0781,265.7125 C278.6406,266.15 278.6406,266.15 278.4688,266.2437 C278.0156,266.4781 277.375,266.6187 276.6094,266.6187 C274.6094,266.6187 273.3281,265.6031 273.3281,264.025 L273.3281,262.9781 C273.3281,261.275 274.5469,260.0718 276.25,260.0718 C276.8281,260.0718 277.4063,260.2125 277.875,260.4625 C278.3438,260.7281 278.5156,260.9156 278.5781,261.275 C278.7031,261.9468 278.9531,262.1968 279.4844,262.1968 C279.7656,262.1968 280.0469,262.0562 280.2344,261.8375 C280.3594,261.6656 280.4063,261.4937 280.4063,261.0562 L280.4063,259.6968 C280.4063,259.275 280.3906,259.1343 280.2656,258.9625 C280.0938,258.7125 279.8125,258.5562 279.4844,258.5562 C279.1719,258.5562 278.9688,258.6656 278.75,258.9312 C277.5781,258.4312 277.1406,258.3218 276.1875,258.3218 C273.5156,258.3218 271.5,260.3375 271.5,262.9625 L271.5,264.0562 Z "/><text fill="#000000" font-family="sans-serif" font-size="14" font-weight="bold" lengthAdjust="spacingAndGlyphs" textLength="62" x="321.5" y="261.5059">Category</text><text fill="#000000" font-family="sans-serif" font-size="10" lengthAdjust="spacingAndGlyphs" textLength="124" x="290.5" y="274.5899">it.matlice.ingsw.model.data</text></a><path d="M127.5,182.44 C127.5,182.44 127.5,221.79 127.5,221.79 " fill="none" style="stroke: #A80036; stroke-width: 1.0; stroke-dasharray: 7.0,7.0;"/><polygon fill="none" points="134.5,221.79,127.5,241.79,120.5,221.79,134.5,221.79" style="stroke: #A80036; stroke-width: 1.0;"/><path d="M339.5,182.44 C339.5,182.44 339.5,238.42 339.5,238.42 " fill="none" style="stroke: #A80036; stroke-width: 1.0; stroke-dasharray: 7.0,7.0;"/><polygon fill="#A80036" points="339.5,243.42,343.5,234.42,339.5,238.42,335.5,234.42,339.5,243.42" style="stroke: #A80036; stroke-width: 1.0;"/></g></svg>