<?xml version="1.0" encoding="UTF-8" standalone="no"?><svg xmlns="http://www.w3.org/2000/svg" xmlns:xlink="http://www.w3.org/1999/xlink" contentScriptType="application/ecmascript" contentStyleType="text/css" height="253px" preserveAspectRatio="none" style="width:595px;height:253px;" version="1.1" viewBox="0 0 595 253" width="595px" zoomAndPan="magnify"><defs><filter height="300%" id="f66fza4" width="300%" x="-1" y="-1"><feGaussianBlur result="blurOut" stdDeviation="2.0"/><feColorMatrix in="blurOut" result="blurOut2" type="matrix" values="0 0 0 0 0 0 0 0 0 0 0 0 0 0 0 0 0 0 .4 0"/><feOffset dx="4.0" dy="4.0" in="blurOut2" result="blurOut3"/><feBlend in="SourceGraphic" in2="blurOut3" mode="normal"/></filter></defs><g><!--class it.matlice.ingsw.model.data.impl.jdbc.HierarchyFactoryImpl--><a target="_parent" xlink:actuate="onRequest" xlink:href="../../../../../../../it/matlice/ingsw/model/data/impl/jdbc/HierarchyFactoryImpl.html" xlink:show="new" xlink:title="it.matlice.ingsw.model.data.impl.jdbc.HierarchyFactoryImpl" xlink:type="simple"><rect fill="#FEFECE" filter="url(#f66fza4)" height="133.9993" style="stroke: #A80036; stroke-width: 1.5;" width="276" x="179" y="8"/><ellipse cx="229.25" cy="27.4" fill="#ADD1B2" rx="11" ry="11" style="stroke: #A80036; stroke-width: 1.0;"/><path d="M224.25,28.5562 C224.25,31.0562 226.3906,32.8687 229.3125,32.8687 C230.5469,32.8687 231.7188,32.5718 232.4688,32.0562 C233.0781,31.6343 233.4063,31.2125 233.4063,30.8062 C233.4063,30.3375 232.9844,29.9312 232.4844,29.9312 C232.25,29.9312 232.0313,30.0093 231.8281,30.2125 C231.3906,30.65 231.3906,30.65 231.2188,30.7437 C230.7656,30.9781 230.125,31.1187 229.3594,31.1187 C227.3594,31.1187 226.0781,30.1031 226.0781,28.525 L226.0781,27.4781 C226.0781,25.775 227.2969,24.5718 229,24.5718 C229.5781,24.5718 230.1563,24.7125 230.625,24.9625 C231.0938,25.2281 231.2656,25.4156 231.3281,25.775 C231.4531,26.4468 231.7031,26.6968 232.2344,26.6968 C232.5156,26.6968 232.7969,26.5562 232.9844,26.3375 C233.1094,26.1656 233.1563,25.9937 233.1563,25.5562 L233.1563,24.1968 C233.1563,23.775 233.1406,23.6343 233.0156,23.4625 C232.8438,23.2125 232.5625,23.0562 232.2344,23.0562 C231.9219,23.0562 231.7188,23.1656 231.5,23.4312 C230.3281,22.9312 229.8906,22.8218 228.9375,22.8218 C226.2656,22.8218 224.25,24.8375 224.25,27.4625 L224.25,28.5562 Z "/><text fill="#000000" font-family="sans-serif" font-size="14" font-weight="bold" lengthAdjust="spacingAndGlyphs" textLength="146" x="260.25" y="26.0059">HierarchyFactoryImpl</text><text fill="#000000" font-family="sans-serif" font-size="10" lengthAdjust="spacingAndGlyphs" textLength="167" x="249.75" y="39.0899">it.matlice.ingsw.model.data.impl.jdbc</text><line style="stroke: #A80036; stroke-width: 1.5;" x1="180" x2="454" y1="46.7999" y2="46.7999"/><rect fill="none" height="6" style="stroke: #C82930; stroke-width: 1.0;" width="6" x="187" y="55.8999"/><text fill="#000000" font-family="sans-serif" font-size="11" lengthAdjust="spacingAndGlyphs" textLength="181" x="199" y="61.0188">ConnectionSource connectionSource</text><rect fill="none" height="6" style="stroke: #C82930; stroke-width: 1.0;" width="6" x="187" y="69.0998"/><text fill="#000000" font-family="sans-serif" font-size="11" lengthAdjust="spacingAndGlyphs" textLength="103" x="199" y="74.2187">&lt;any&gt; hierarchyDAO</text><line style="stroke: #A80036; stroke-width: 1.5;" x1="180" x2="454" y1="81.1997" y2="81.1997"/><ellipse cx="190" cy="93.2997" fill="#84BE84" rx="3" ry="3" style="stroke: #038048; stroke-width: 1.0;"/><text fill="#000000" font-family="sans-serif" font-size="11" lengthAdjust="spacingAndGlyphs" textLength="114" x="199" y="95.4186">HierarchyFactoryImpl()</text><ellipse cx="190" cy="106.4996" fill="#84BE84" rx="3" ry="3" style="stroke: #038048; stroke-width: 1.0;"/><text fill="#000000" font-family="sans-serif" font-size="11" lengthAdjust="spacingAndGlyphs" textLength="159" x="199" y="108.6185">List&lt;Hierarchy&gt; getHierarchies()</text><ellipse cx="190" cy="119.6995" fill="#84BE84" rx="3" ry="3" style="stroke: #038048; stroke-width: 1.0;"/><text fill="#000000" font-family="sans-serif" font-size="11" lengthAdjust="spacingAndGlyphs" textLength="250" x="199" y="121.8184">Hierarchy createHierarchy(Category rootCategory)</text><ellipse cx="190" cy="132.8994" fill="#84BE84" rx="3" ry="3" style="stroke: #038048; stroke-width: 1.0;"/><text fill="#000000" font-family="sans-serif" font-size="11" lengthAdjust="spacingAndGlyphs" textLength="165" x="199" y="135.0183">void deleteHierarchy(Hierarchy h)</text></a><!--class it.matlice.ingsw.model.data.factories.HierarchyFactory--><a target="_parent" xlink:actuate="onRequest" xlink:href="../../../../../../../it/matlice/ingsw/model/data/factories/HierarchyFactory.html" xlink:show="new" xlink:title="it.matlice.ingsw.model.data.factories.HierarchyFactory" xlink:type="simple"><rect fill="#FFFFFF" filter="url(#f66fza4)" height="42.3999" style="stroke: #A80036; stroke-width: 1.5;" width="198" x="6" y="202"/><rect fill="#FFFFFF" height="42.3999" style="stroke: #A80036; stroke-width: 1.5;" width="198" x="6" y="202"/><ellipse cx="21" cy="223.2" fill="#B4A7E5" rx="11" ry="11" style="stroke: #A80036; stroke-width: 1.0;"/><path d="M22.0156,220.3562 L23.6719,220.3562 C24.0625,220.3562 24.2656,220.325 24.4219,220.2468 C24.6875,220.075 24.8594,219.7781 24.8594,219.4812 C24.8594,219.2 24.7188,218.95 24.4844,218.7781 C24.2969,218.6531 24.1406,218.6062 23.6719,218.6062 L18.5313,218.6062 C18.0938,218.6062 17.9531,218.6218 17.7813,218.7312 C17.5156,218.9031 17.3438,219.1843 17.3438,219.4812 C17.3438,219.7625 17.4844,220.0437 17.7188,220.2 C17.9063,220.325 18.0938,220.3562 18.5313,220.3562 L20.1875,220.3562 L20.1875,226.45 L18.5313,226.45 C18.0938,226.45 17.9531,226.4656 17.7813,226.575 C17.5156,226.7312 17.3438,227.0281 17.3438,227.3093 C17.3438,227.9187 17.75,228.2 18.5313,228.2 L23.6719,228.2 C24.4531,228.2 24.8594,227.9187 24.8594,227.3093 C24.8594,227.0437 24.7188,226.7937 24.4844,226.6218 C24.2969,226.4812 24.125,226.45 23.6719,226.45 L22.0156,226.45 L22.0156,220.3562 Z "/><text fill="#000000" font-family="sans-serif" font-size="14" font-style="italic" font-weight="bold" lengthAdjust="spacingAndGlyphs" textLength="117" x="59.5" y="222.3999">HierarchyFactory</text><text fill="#000000" font-family="sans-serif" font-size="10" font-style="italic" lengthAdjust="spacingAndGlyphs" textLength="166" x="35" y="236.8999">it.matlice.ingsw.model.data.factories</text></a><!--class it.matlice.ingsw.model.data.Hierarchy--><a target="_parent" xlink:actuate="onRequest" xlink:href="../../../../../../../it/matlice/ingsw/model/data/Hierarchy.html" xlink:show="new" xlink:title="it.matlice.ingsw.model.data.Hierarchy" xlink:type="simple"><rect fill="#FFFFFF" filter="url(#f66fza4)" height="38.7999" style="stroke: #A80036; stroke-width: 1.5;" width="156" x="239" y="203.5"/><rect fill="#FFFFFF" height="38.7999" style="stroke: #A80036; stroke-width: 1.5;" width="156" x="239" y="203.5"/><ellipse cx="254" cy="222.9" fill="#ADD1B2" rx="11" ry="11" style="stroke: #A80036; stroke-width: 1.0;"/><path d="M249,224.0562 C249,226.5562 251.1406,228.3687 254.0625,228.3687 C255.2969,228.3687 256.4688,228.0718 257.2188,227.5562 C257.8281,227.1343 258.1563,226.7125 258.1563,226.3062 C258.1563,225.8375 257.7344,225.4312 257.2344,225.4312 C257,225.4312 256.7813,225.5093 256.5781,225.7125 C256.1406,226.15 256.1406,226.15 255.9688,226.2437 C255.5156,226.4781 254.875,226.6187 254.1094,226.6187 C252.1094,226.6187 250.8281,225.6031 250.8281,224.025 L250.8281,222.9781 C250.8281,221.275 252.0469,220.0718 253.75,220.0718 C254.3281,220.0718 254.9063,220.2125 255.375,220.4625 C255.8438,220.7281 256.0156,220.9156 256.0781,221.275 C256.2031,221.9468 256.4531,222.1968 256.9844,222.1968 C257.2656,222.1968 257.5469,222.0562 257.7344,221.8375 C257.8594,221.6656 257.9063,221.4937 257.9063,221.0562 L257.9063,219.6968 C257.9063,219.275 257.8906,219.1343 257.7656,218.9625 C257.5938,218.7125 257.3125,218.5562 256.9844,218.5562 C256.6719,218.5562 256.4688,218.6656 256.25,218.9312 C255.0781,218.4312 254.6406,218.3218 253.6875,218.3218 C251.0156,218.3218 249,220.3375 249,222.9625 L249,224.0562 Z "/><text fill="#000000" font-family="sans-serif" font-size="14" font-weight="bold" lengthAdjust="spacingAndGlyphs" textLength="65" x="297.5" y="221.5059">Hierarchy</text><text fill="#000000" font-family="sans-serif" font-size="10" lengthAdjust="spacingAndGlyphs" textLength="124" x="268" y="234.5899">it.matlice.ingsw.model.data</text></a><!--class it.matlice.ingsw.model.data.Category--><a target="_parent" xlink:actuate="onRequest" xlink:href="../../../../../../../it/matlice/ingsw/model/data/Category.html" xlink:show="new" xlink:title="it.matlice.ingsw.model.data.Category" xlink:type="simple"><rect fill="#FFFFFF" filter="url(#f66fza4)" height="38.7999" style="stroke: #A80036; stroke-width: 1.5;" width="156" x="430" y="203.5"/><rect fill="#FFFFFF" height="38.7999" style="stroke: #A80036; stroke-width: 1.5;" width="156" x="430" y="203.5"/><ellipse cx="445" cy="222.9" fill="#ADD1B2" rx="11" ry="11" style="stroke: #A80036; stroke-width: 1.0;"/><path d="M440,224.0562 C440,226.5562 442.1406,228.3687 445.0625,228.3687 C446.2969,228.3687 447.4688,228.0718 448.2188,227.5562 C448.8281,227.1343 449.1563,226.7125 449.1563,226.3062 C449.1563,225.8375 448.7344,225.4312 448.2344,225.4312 C448,225.4312 447.7813,225.5093 447.5781,225.7125 C447.1406,226.15 447.1406,226.15 446.9688,226.2437 C446.5156,226.4781 445.875,226.6187 445.1094,226.6187 C443.1094,226.6187 441.8281,225.6031 441.8281,224.025 L441.8281,222.9781 C441.8281,221.275 443.0469,220.0718 444.75,220.0718 C445.3281,220.0718 445.9063,220.2125 446.375,220.4625 C446.8438,220.7281 447.0156,220.9156 447.0781,221.275 C447.2031,221.9468 447.4531,222.1968 447.9844,222.1968 C448.2656,222.1968 448.5469,222.0562 448.7344,221.8375 C448.8594,221.6656 448.9063,221.4937 448.9063,221.0562 L448.9063,219.6968 C448.9063,219.275 448.8906,219.1343 448.7656,218.9625 C448.5938,218.7125 448.3125,218.5562 447.9844,218.5562 C447.6719,218.5562 447.4688,218.6656 447.25,218.9312 C446.0781,218.4312 445.6406,218.3218 444.6875,218.3218 C442.0156,218.3218 440,220.3375 440,222.9625 L440,224.0562 Z "/><text fill="#000000" font-family="sans-serif" font-size="14" font-weight="bold" lengthAdjust="spacingAndGlyphs" textLength="62" x="490" y="221.5059">Category</text><text fill="#000000" font-family="sans-serif" font-size="10" lengthAdjust="spacingAndGlyphs" textLength="124" x="459" y="234.5899">it.matlice.ingsw.model.data</text></a><path d="M191.5,142.07 C191.5,142.07 191.5,181.74 191.5,181.74 " fill="none" style="stroke: #A80036; stroke-width: 1.0; stroke-dasharray: 7.0,7.0;"/><polygon fill="none" points="198.5,181.74,191.5,201.74,184.5,181.74,198.5,181.74" style="stroke: #A80036; stroke-width: 1.0;"/><path d="M317,142.07 C317,142.07 317,198.38 317,198.38 " fill="none" style="stroke: #A80036; stroke-width: 1.0; stroke-dasharray: 7.0,7.0;"/><polygon fill="#A80036" points="317,203.38,321,194.38,317,198.38,313,194.38,317,203.38" style="stroke: #A80036; stroke-width: 1.0;"/><path d="M442.5,142.07 C442.5,142.07 442.5,198.38 442.5,198.38 " fill="none" style="stroke: #A80036; stroke-width: 1.0; stroke-dasharray: 7.0,7.0;"/><polygon fill="#A80036" points="442.5,203.38,446.5,194.38,442.5,198.38,438.5,194.38,442.5,203.38" style="stroke: #A80036; stroke-width: 1.0;"/></g></svg>