<?xml version="1.0" encoding="UTF-8" standalone="no"?><svg xmlns="http://www.w3.org/2000/svg" xmlns:xlink="http://www.w3.org/1999/xlink" contentScriptType="application/ecmascript" contentStyleType="text/css" height="207px" preserveAspectRatio="none" style="width:257px;height:207px;" version="1.1" viewBox="0 0 257 207" width="257px" zoomAndPan="magnify"><defs><filter height="300%" id="f4mg2p6" width="300%" x="-1" y="-1"><feGaussianBlur result="blurOut" stdDeviation="2.0"/><feColorMatrix in="blurOut" result="blurOut2" type="matrix" values="0 0 0 0 0 0 0 0 0 0 0 0 0 0 0 0 0 0 .4 0"/><feOffset dx="4.0" dy="4.0" in="blurOut2" result="blurOut3"/><feBlend in="SourceGraphic" in2="blurOut3" mode="normal"/></filter></defs><g><!--class it.matlice.ingsw.model.data.impl.jdbc.JdbcConnection--><a target="_parent" xlink:actuate="onRequest" xlink:href="../../../../../../../it/matlice/ingsw/model/data/impl/jdbc/JdbcConnection.html" xlink:show="new" xlink:title="it.matlice.ingsw.model.data.impl.jdbc.JdbcConnection" xlink:type="simple"><rect fill="#FEFECE" filter="url(#f4mg2p6)" height="160.3991" style="stroke: #A80036; stroke-width: 1.5;" width="232" x="6" y="26"/><ellipse cx="35.85" cy="45.4" fill="#ADD1B2" rx="11" ry="11" style="stroke: #A80036; stroke-width: 1.0;"/><path d="M30.85,46.5562 C30.85,49.0562 32.9906,50.8687 35.9125,50.8687 C37.1469,50.8687 38.3188,50.5718 39.0688,50.0562 C39.6781,49.6343 40.0063,49.2125 40.0063,48.8062 C40.0063,48.3375 39.5844,47.9312 39.0844,47.9312 C38.85,47.9312 38.6313,48.0093 38.4281,48.2125 C37.9906,48.65 37.9906,48.65 37.8188,48.7437 C37.3656,48.9781 36.725,49.1187 35.9594,49.1187 C33.9594,49.1187 32.6781,48.1031 32.6781,46.525 L32.6781,45.4781 C32.6781,43.775 33.8969,42.5718 35.6,42.5718 C36.1781,42.5718 36.7563,42.7125 37.225,42.9625 C37.6938,43.2281 37.8656,43.4156 37.9281,43.775 C38.0531,44.4468 38.3031,44.6968 38.8344,44.6968 C39.1156,44.6968 39.3969,44.5562 39.5844,44.3375 C39.7094,44.1656 39.7563,43.9937 39.7563,43.5562 L39.7563,42.1968 C39.7563,41.775 39.7406,41.6343 39.6156,41.4625 C39.4438,41.2125 39.1625,41.0562 38.8344,41.0562 C38.5219,41.0562 38.3188,41.1656 38.1,41.4312 C36.9281,40.9312 36.4906,40.8218 35.5375,40.8218 C32.8656,40.8218 30.85,42.8375 30.85,45.4625 L30.85,46.5562 Z "/><text fill="#000000" font-family="sans-serif" font-size="14" font-weight="bold" lengthAdjust="spacingAndGlyphs" textLength="114" x="79.65" y="44.0059">JdbcConnection</text><text fill="#000000" font-family="sans-serif" font-size="10" lengthAdjust="spacingAndGlyphs" textLength="167" x="53.15" y="57.0899">it.matlice.ingsw.model.data.impl.jdbc</text><line style="stroke: #A80036; stroke-width: 1.5;" x1="7" x2="237" y1="64.7999" y2="64.7999"/><rect fill="none" height="6" style="stroke: #C82930; stroke-width: 1.0;" width="6" x="14" y="73.8999"/><text fill="#000000" font-family="sans-serif" font-size="11" lengthAdjust="spacingAndGlyphs" text-decoration="underline" textLength="123" x="26" y="79.0188">JdbcConnection instance</text><line style="stroke: #000000; stroke-width: 1.0;" x1="26" x2="149" y1="81.0188" y2="81.0188"/><rect fill="none" height="6" style="stroke: #C82930; stroke-width: 1.0;" width="6" x="14" y="87.0998"/><text fill="#000000" font-family="sans-serif" font-size="11" lengthAdjust="spacingAndGlyphs" textLength="105" x="26" y="92.2187">ConnectionSource cs</text><line style="stroke: #A80036; stroke-width: 1.5;" x1="7" x2="237" y1="99.1997" y2="99.1997"/><rect fill="#F24D5C" height="6" style="stroke: #C82930; stroke-width: 1.0;" width="6" x="14" y="108.2997"/><text fill="#000000" font-family="sans-serif" font-size="11" lengthAdjust="spacingAndGlyphs" textLength="87" x="26" y="113.4186">JdbcConnection()</text><rect fill="#F24D5C" height="6" style="stroke: #C82930; stroke-width: 1.0;" width="6" x="14" y="121.4996"/><text fill="#000000" font-family="sans-serif" font-size="11" lengthAdjust="spacingAndGlyphs" textLength="130" x="26" y="126.6185">JdbcConnection(String url)</text><ellipse cx="17" cy="137.6995" fill="#84BE84" rx="3" ry="3" style="stroke: #038048; stroke-width: 1.0;"/><text fill="#000000" font-family="sans-serif" font-size="11" lengthAdjust="spacingAndGlyphs" text-decoration="underline" textLength="147" x="26" y="139.8184">JdbcConnection getInstance()</text><line style="stroke: #000000; stroke-width: 1.0;" x1="26" x2="173" y1="141.8184" y2="141.8184"/><ellipse cx="17" cy="150.8994" fill="#84BE84" rx="3" ry="3" style="stroke: #038048; stroke-width: 1.0;"/><text fill="#000000" font-family="sans-serif" font-size="11" lengthAdjust="spacingAndGlyphs" text-decoration="underline" textLength="197" x="26" y="153.0183">JdbcConnection startInstance(String url)</text><line style="stroke: #000000; stroke-width: 1.0;" x1="26" x2="223" y1="155.0183" y2="155.0183"/><ellipse cx="17" cy="164.0993" fill="#84BE84" rx="3" ry="3" style="stroke: #038048; stroke-width: 1.0;"/><text fill="#000000" font-family="sans-serif" font-size="11" lengthAdjust="spacingAndGlyphs" textLength="57" x="26" y="166.2182">void close()</text><ellipse cx="17" cy="177.2992" fill="#84BE84" rx="3" ry="3" style="stroke: #038048; stroke-width: 1.0;"/><text fill="#000000" font-family="sans-serif" font-size="11" lengthAdjust="spacingAndGlyphs" textLength="206" x="26" y="179.4182">ConnectionSource getConnectionSource()</text></a><path d="M122,25.97 C122,15.33 122,8 122,8 C122,8 256,8 256,8 C256,8 256,204 256,204 C256,204 122,204 122,204 C122,204 122,191.03 122,191.03 " fill="none" style="stroke: #A80036; stroke-width: 1.0;"/><polygon fill="#A80036" points="122,186.03,118,195.03,122,191.03,126,195.03,122,186.03" style="stroke: #A80036; stroke-width: 1.0;"/><text fill="#000000" font-family="sans-serif" font-size="13" lengthAdjust="spacingAndGlyphs" textLength="49" x="70.6648" y="206.4593">instance</text></g></svg>