<?xml version="1.0" encoding="UTF-8" standalone="no"?><svg xmlns="http://www.w3.org/2000/svg" xmlns:xlink="http://www.w3.org/1999/xlink" contentScriptType="application/ecmascript" contentStyleType="text/css" height="266px" preserveAspectRatio="none" style="width:786px;height:266px;" version="1.1" viewBox="0 0 786 266" width="786px" zoomAndPan="magnify"><defs><filter height="300%" id="fksu8a3" width="300%" x="-1" y="-1"><feGaussianBlur result="blurOut" stdDeviation="2.0"/><feColorMatrix in="blurOut" result="blurOut2" type="matrix" values="0 0 0 0 0 0 0 0 0 0 0 0 0 0 0 0 0 0 .4 0"/><feOffset dx="4.0" dy="4.0" in="blurOut2" result="blurOut3"/><feBlend in="SourceGraphic" in2="blurOut3" mode="normal"/></filter></defs><g><!--class it.matlice.ingsw.model.data.impl.jdbc.MessageFactoryImpl--><a target="_parent" xlink:actuate="onRequest" xlink:href="../../../../../../../it/matlice/ingsw/model/data/impl/jdbc/MessageFactoryImpl.html" xlink:show="new" xlink:title="it.matlice.ingsw.model.data.impl.jdbc.MessageFactoryImpl" xlink:type="simple"><rect fill="#FEFECE" filter="url(#fksu8a3)" height="147.1992" style="stroke: #A80036; stroke-width: 1.5;" width="472" x="176" y="8"/><ellipse cx="324.25" cy="27.4" fill="#ADD1B2" rx="11" ry="11" style="stroke: #A80036; stroke-width: 1.0;"/><path d="M319.25,28.5562 C319.25,31.0562 321.3906,32.8687 324.3125,32.8687 C325.5469,32.8687 326.7188,32.5718 327.4688,32.0562 C328.0781,31.6343 328.4063,31.2125 328.4063,30.8062 C328.4063,30.3375 327.9844,29.9312 327.4844,29.9312 C327.25,29.9312 327.0313,30.0093 326.8281,30.2125 C326.3906,30.65 326.3906,30.65 326.2188,30.7437 C325.7656,30.9781 325.125,31.1187 324.3594,31.1187 C322.3594,31.1187 321.0781,30.1031 321.0781,28.525 L321.0781,27.4781 C321.0781,25.775 322.2969,24.5718 324,24.5718 C324.5781,24.5718 325.1563,24.7125 325.625,24.9625 C326.0938,25.2281 326.2656,25.4156 326.3281,25.775 C326.4531,26.4468 326.7031,26.6968 327.2344,26.6968 C327.5156,26.6968 327.7969,26.5562 327.9844,26.3375 C328.1094,26.1656 328.1563,25.9937 328.1563,25.5562 L328.1563,24.1968 C328.1563,23.775 328.1406,23.6343 328.0156,23.4625 C327.8438,23.2125 327.5625,23.0562 327.2344,23.0562 C326.9219,23.0562 326.7188,23.1656 326.5,23.4312 C325.3281,22.9312 324.8906,22.8218 323.9375,22.8218 C321.2656,22.8218 319.25,24.8375 319.25,27.4625 L319.25,28.5562 Z "/><text fill="#000000" font-family="sans-serif" font-size="14" font-weight="bold" lengthAdjust="spacingAndGlyphs" textLength="142" x="357.25" y="26.0059">MessageFactoryImpl</text><text fill="#000000" font-family="sans-serif" font-size="10" lengthAdjust="spacingAndGlyphs" textLength="167" x="344.75" y="39.0899">it.matlice.ingsw.model.data.impl.jdbc</text><line style="stroke: #A80036; stroke-width: 1.5;" x1="177" x2="647" y1="46.7999" y2="46.7999"/><rect fill="none" height="6" style="stroke: #C82930; stroke-width: 1.0;" width="6" x="184" y="55.8999"/><text fill="#000000" font-family="sans-serif" font-size="11" lengthAdjust="spacingAndGlyphs" textLength="102" x="196" y="61.0188">&lt;any&gt; messageDAO</text><rect fill="none" height="6" style="stroke: #C82930; stroke-width: 1.0;" width="6" x="184" y="69.0998"/><text fill="#000000" font-family="sans-serif" font-size="11" lengthAdjust="spacingAndGlyphs" textLength="79" x="196" y="74.2187">&lt;any&gt; offerDAO</text><line style="stroke: #A80036; stroke-width: 1.5;" x1="177" x2="647" y1="81.1997" y2="81.1997"/><ellipse cx="187" cy="93.2997" fill="#84BE84" rx="3" ry="3" style="stroke: #038048; stroke-width: 1.0;"/><text fill="#000000" font-family="sans-serif" font-size="11" lengthAdjust="spacingAndGlyphs" textLength="111" x="196" y="95.4186">MessageFactoryImpl()</text><ellipse cx="187" cy="106.4996" fill="#84BE84" rx="3" ry="3" style="stroke: #038048; stroke-width: 1.0;"/><text fill="#000000" font-family="sans-serif" font-size="11" lengthAdjust="spacingAndGlyphs" textLength="318" x="196" y="108.6185">Message send(Offer offer,String location,Calendar date,long time)</text><ellipse cx="187" cy="119.6995" fill="#84BE84" rx="3" ry="3" style="stroke: #038048; stroke-width: 1.0;"/><text fill="#000000" font-family="sans-serif" font-size="11" lengthAdjust="spacingAndGlyphs" textLength="356" x="196" y="121.8184">Message answer(Message msg,Offer offer,String location,Calendar date)</text><ellipse cx="187" cy="132.8994" fill="#84BE84" rx="3" ry="3" style="stroke: #038048; stroke-width: 1.0;"/><text fill="#000000" font-family="sans-serif" font-size="11" lengthAdjust="spacingAndGlyphs" textLength="208" x="196" y="135.0183">List&lt;Message&gt; getUserMessages(User u)</text><rect fill="#F24D5C" height="6" style="stroke: #C82930; stroke-width: 1.0;" width="6" x="184" y="143.0993"/><text fill="#000000" font-family="sans-serif" font-size="11" lengthAdjust="spacingAndGlyphs" textLength="446" x="196" y="148.2182">MessageImpl createMessage(Offer offer,String location,Long date,MessageImpl answer_to)</text></a><!--class it.matlice.ingsw.model.data.factories.MessageFactory--><a target="_parent" xlink:actuate="onRequest" xlink:href="../../../../../../../it/matlice/ingsw/model/data/factories/MessageFactory.html" xlink:show="new" xlink:title="it.matlice.ingsw.model.data.factories.MessageFactory" xlink:type="simple"><rect fill="#FFFFFF" filter="url(#fksu8a3)" height="42.3999" style="stroke: #A80036; stroke-width: 1.5;" width="198" x="6" y="215"/><rect fill="#FFFFFF" height="42.3999" style="stroke: #A80036; stroke-width: 1.5;" width="198" x="6" y="215"/><ellipse cx="21" cy="236.2" fill="#B4A7E5" rx="11" ry="11" style="stroke: #A80036; stroke-width: 1.0;"/><path d="M22.0156,233.3562 L23.6719,233.3562 C24.0625,233.3562 24.2656,233.325 24.4219,233.2468 C24.6875,233.075 24.8594,232.7781 24.8594,232.4812 C24.8594,232.2 24.7188,231.95 24.4844,231.7781 C24.2969,231.6531 24.1406,231.6062 23.6719,231.6062 L18.5313,231.6062 C18.0938,231.6062 17.9531,231.6218 17.7813,231.7312 C17.5156,231.9031 17.3438,232.1843 17.3438,232.4812 C17.3438,232.7625 17.4844,233.0437 17.7188,233.2 C17.9063,233.325 18.0938,233.3562 18.5313,233.3562 L20.1875,233.3562 L20.1875,239.45 L18.5313,239.45 C18.0938,239.45 17.9531,239.4656 17.7813,239.575 C17.5156,239.7312 17.3438,240.0281 17.3438,240.3093 C17.3438,240.9187 17.75,241.2 18.5313,241.2 L23.6719,241.2 C24.4531,241.2 24.8594,240.9187 24.8594,240.3093 C24.8594,240.0437 24.7188,239.7937 24.4844,239.6218 C24.2969,239.4812 24.125,239.45 23.6719,239.45 L22.0156,239.45 L22.0156,233.3562 Z "/><text fill="#000000" font-family="sans-serif" font-size="14" font-style="italic" font-weight="bold" lengthAdjust="spacingAndGlyphs" textLength="113" x="61.5" y="235.3999">MessageFactory</text><text fill="#000000" font-family="sans-serif" font-size="10" font-style="italic" lengthAdjust="spacingAndGlyphs" textLength="166" x="35" y="249.8999">it.matlice.ingsw.model.data.factories</text></a><!--class it.matlice.ingsw.model.data.Offer--><a target="_parent" xlink:actuate="onRequest" xlink:href="../../../../../../../it/matlice/ingsw/model/data/Offer.html" xlink:show="new" xlink:title="it.matlice.ingsw.model.data.Offer" xlink:type="simple"><rect fill="#FFFFFF" filter="url(#fksu8a3)" height="38.7999" style="stroke: #A80036; stroke-width: 1.5;" width="156" x="239" y="216.5"/><rect fill="#FFFFFF" height="38.7999" style="stroke: #A80036; stroke-width: 1.5;" width="156" x="239" y="216.5"/><ellipse cx="254" cy="235.9" fill="#ADD1B2" rx="11" ry="11" style="stroke: #A80036; stroke-width: 1.0;"/><path d="M249,237.0562 C249,239.5562 251.1406,241.3687 254.0625,241.3687 C255.2969,241.3687 256.4688,241.0718 257.2188,240.5562 C257.8281,240.1343 258.1563,239.7125 258.1563,239.3062 C258.1563,238.8375 257.7344,238.4312 257.2344,238.4312 C257,238.4312 256.7813,238.5093 256.5781,238.7125 C256.1406,239.15 256.1406,239.15 255.9688,239.2437 C255.5156,239.4781 254.875,239.6187 254.1094,239.6187 C252.1094,239.6187 250.8281,238.6031 250.8281,237.025 L250.8281,235.9781 C250.8281,234.275 252.0469,233.0718 253.75,233.0718 C254.3281,233.0718 254.9063,233.2125 255.375,233.4625 C255.8438,233.7281 256.0156,233.9156 256.0781,234.275 C256.2031,234.9468 256.4531,235.1968 256.9844,235.1968 C257.2656,235.1968 257.5469,235.0562 257.7344,234.8375 C257.8594,234.6656 257.9063,234.4937 257.9063,234.0562 L257.9063,232.6968 C257.9063,232.275 257.8906,232.1343 257.7656,231.9625 C257.5938,231.7125 257.3125,231.5562 256.9844,231.5562 C256.6719,231.5562 256.4688,231.6656 256.25,231.9312 C255.0781,231.4312 254.6406,231.3218 253.6875,231.3218 C251.0156,231.3218 249,233.3375 249,235.9625 L249,237.0562 Z "/><text fill="#000000" font-family="sans-serif" font-size="14" font-weight="bold" lengthAdjust="spacingAndGlyphs" textLength="34" x="313" y="234.5059">Offer</text><text fill="#000000" font-family="sans-serif" font-size="10" lengthAdjust="spacingAndGlyphs" textLength="124" x="268" y="247.5899">it.matlice.ingsw.model.data</text></a><!--class it.matlice.ingsw.model.data.Message--><a target="_parent" xlink:actuate="onRequest" xlink:href="../../../../../../../it/matlice/ingsw/model/data/Message.html" xlink:show="new" xlink:title="it.matlice.ingsw.model.data.Message" xlink:type="simple"><rect fill="#FFFFFF" filter="url(#fksu8a3)" height="38.7999" style="stroke: #A80036; stroke-width: 1.5;" width="156" x="430" y="216.5"/><rect fill="#FFFFFF" height="38.7999" style="stroke: #A80036; stroke-width: 1.5;" width="156" x="430" y="216.5"/><ellipse cx="445" cy="235.9" fill="#ADD1B2" rx="11" ry="11" style="stroke: #A80036; stroke-width: 1.0;"/><path d="M440,237.0562 C440,239.5562 442.1406,241.3687 445.0625,241.3687 C446.2969,241.3687 447.4688,241.0718 448.2188,240.5562 C448.8281,240.1343 449.1563,239.7125 449.1563,239.3062 C449.1563,238.8375 448.7344,238.4312 448.2344,238.4312 C448,238.4312 447.7813,238.5093 447.5781,238.7125 C447.1406,239.15 447.1406,239.15 446.9688,239.2437 C446.5156,239.4781 445.875,239.6187 445.1094,239.6187 C443.1094,239.6187 441.8281,238.6031 441.8281,237.025 L441.8281,235.9781 C441.8281,234.275 443.0469,233.0718 444.75,233.0718 C445.3281,233.0718 445.9063,233.2125 446.375,233.4625 C446.8438,233.7281 447.0156,233.9156 447.0781,234.275 C447.2031,234.9468 447.4531,235.1968 447.9844,235.1968 C448.2656,235.1968 448.5469,235.0562 448.7344,234.8375 C448.8594,234.6656 448.9063,234.4937 448.9063,234.0562 L448.9063,232.6968 C448.9063,232.275 448.8906,232.1343 448.7656,231.9625 C448.5938,231.7125 448.3125,231.5562 447.9844,231.5562 C447.6719,231.5562 447.4688,231.6656 447.25,231.9312 C446.0781,231.4312 445.6406,231.3218 444.6875,231.3218 C442.0156,231.3218 440,233.3375 440,235.9625 L440,237.0562 Z "/><text fill="#000000" font-family="sans-serif" font-size="14" font-weight="bold" lengthAdjust="spacingAndGlyphs" textLength="61" x="490.5" y="234.5059">Message</text><text fill="#000000" font-family="sans-serif" font-size="10" lengthAdjust="spacingAndGlyphs" textLength="124" x="459" y="247.5899">it.matlice.ingsw.model.data</text></a><!--class it.matlice.ingsw.model.data.User--><a target="_parent" xlink:actuate="onRequest" xlink:href="../../../../../../../it/matlice/ingsw/model/data/User.html" xlink:show="new" xlink:title="it.matlice.ingsw.model.data.User" xlink:type="simple"><rect fill="#FFFFFF" filter="url(#fksu8a3)" height="38.7999" style="stroke: #A80036; stroke-width: 1.5;" width="156" x="621" y="216.5"/><rect fill="#FFFFFF" height="38.7999" style="stroke: #A80036; stroke-width: 1.5;" width="156" x="621" y="216.5"/><ellipse cx="636" cy="235.9" fill="#ADD1B2" rx="11" ry="11" style="stroke: #A80036; stroke-width: 1.0;"/><path d="M631,237.0562 C631,239.5562 633.1406,241.3687 636.0625,241.3687 C637.2969,241.3687 638.4688,241.0718 639.2188,240.5562 C639.8281,240.1343 640.1563,239.7125 640.1563,239.3062 C640.1563,238.8375 639.7344,238.4312 639.2344,238.4312 C639,238.4312 638.7813,238.5093 638.5781,238.7125 C638.1406,239.15 638.1406,239.15 637.9688,239.2437 C637.5156,239.4781 636.875,239.6187 636.1094,239.6187 C634.1094,239.6187 632.8281,238.6031 632.8281,237.025 L632.8281,235.9781 C632.8281,234.275 634.0469,233.0718 635.75,233.0718 C636.3281,233.0718 636.9063,233.2125 637.375,233.4625 C637.8438,233.7281 638.0156,233.9156 638.0781,234.275 C638.2031,234.9468 638.4531,235.1968 638.9844,235.1968 C639.2656,235.1968 639.5469,235.0562 639.7344,234.8375 C639.8594,234.6656 639.9063,234.4937 639.9063,234.0562 L639.9063,232.6968 C639.9063,232.275 639.8906,232.1343 639.7656,231.9625 C639.5938,231.7125 639.3125,231.5562 638.9844,231.5562 C638.6719,231.5562 638.4688,231.6656 638.25,231.9312 C637.0781,231.4312 636.6406,231.3218 635.6875,231.3218 C633.0156,231.3218 631,233.3375 631,235.9625 L631,237.0562 Z "/><text fill="#000000" font-family="sans-serif" font-size="14" font-weight="bold" lengthAdjust="spacingAndGlyphs" textLength="31" x="696.5" y="234.5059">User</text><text fill="#000000" font-family="sans-serif" font-size="10" lengthAdjust="spacingAndGlyphs" textLength="124" x="650" y="247.5899">it.matlice.ingsw.model.data</text></a><path d="M190,155.13 C190,155.13 190,194.97 190,194.97 " fill="none" style="stroke: #A80036; stroke-width: 1.0; stroke-dasharray: 7.0,7.0;"/><polygon fill="none" points="197,194.97,190,214.97,183,194.97,197,194.97" style="stroke: #A80036; stroke-width: 1.0;"/><path d="M317,155.13 C317,155.13 317,211.29 317,211.29 " fill="none" style="stroke: #A80036; stroke-width: 1.0; stroke-dasharray: 7.0,7.0;"/><polygon fill="#A80036" points="317,216.29,321,207.29,317,211.29,313,207.29,317,216.29" style="stroke: #A80036; stroke-width: 1.0;"/><path d="M508,155.13 C508,155.13 508,211.29 508,211.29 " fill="none" style="stroke: #A80036; stroke-width: 1.0; stroke-dasharray: 7.0,7.0;"/><polygon fill="#A80036" points="508,216.29,512,207.29,508,211.29,504,207.29,508,216.29" style="stroke: #A80036; stroke-width: 1.0;"/><path d="M634.5,155.13 C634.5,155.13 634.5,211.29 634.5,211.29 " fill="none" style="stroke: #A80036; stroke-width: 1.0; stroke-dasharray: 7.0,7.0;"/><polygon fill="#A80036" points="634.5,216.29,638.5,207.29,634.5,211.29,630.5,207.29,634.5,216.29" style="stroke: #A80036; stroke-width: 1.0;"/></g></svg>