<?xml version="1.0" encoding="UTF-8" standalone="no"?><svg xmlns="http://www.w3.org/2000/svg" xmlns:xlink="http://www.w3.org/1999/xlink" contentScriptType="application/ecmascript" contentStyleType="text/css" height="451px" preserveAspectRatio="none" style="width:1831px;height:451px;" version="1.1" viewBox="0 0 1831 451" width="1831px" zoomAndPan="magnify"><defs><filter height="300%" id="fa8xz1b" width="300%" x="-1" y="-1"><feGaussianBlur result="blurOut" stdDeviation="2.0"/><feColorMatrix in="blurOut" result="blurOut2" type="matrix" values="0 0 0 0 0 0 0 0 0 0 0 0 0 0 0 0 0 0 .4 0"/><feOffset dx="4.0" dy="4.0" in="blurOut2" result="blurOut3"/><feBlend in="SourceGraphic" in2="blurOut3" mode="normal"/></filter></defs><g><!--class it.matlice.ingsw.model.data.impl.jdbc.OfferFactoryImpl--><a target="_parent" xlink:actuate="onRequest" xlink:href="../../../../../../../it/matlice/ingsw/model/data/impl/jdbc/OfferFactoryImpl.html" xlink:show="new" xlink:title="it.matlice.ingsw.model.data.impl.jdbc.OfferFactoryImpl" xlink:type="simple"><rect fill="#FEFECE" filter="url(#fa8xz1b)" height="331.9978" style="stroke: #A80036; stroke-width: 1.5;" width="509" x="683.5" y="8"/><ellipse cx="850.25" cy="27.4" fill="#ADD1B2" rx="11" ry="11" style="stroke: #A80036; stroke-width: 1.0;"/><path d="M845.25,28.5562 C845.25,31.0562 847.3906,32.8687 850.3125,32.8687 C851.5469,32.8687 852.7188,32.5718 853.4688,32.0562 C854.0781,31.6343 854.4063,31.2125 854.4063,30.8062 C854.4063,30.3375 853.9844,29.9312 853.4844,29.9312 C853.25,29.9312 853.0313,30.0093 852.8281,30.2125 C852.3906,30.65 852.3906,30.65 852.2188,30.7437 C851.7656,30.9781 851.125,31.1187 850.3594,31.1187 C848.3594,31.1187 847.0781,30.1031 847.0781,28.525 L847.0781,27.4781 C847.0781,25.775 848.2969,24.5718 850,24.5718 C850.5781,24.5718 851.1563,24.7125 851.625,24.9625 C852.0938,25.2281 852.2656,25.4156 852.3281,25.775 C852.4531,26.4468 852.7031,26.6968 853.2344,26.6968 C853.5156,26.6968 853.7969,26.5562 853.9844,26.3375 C854.1094,26.1656 854.1563,25.9937 854.1563,25.5562 L854.1563,24.1968 C854.1563,23.775 854.1406,23.6343 854.0156,23.4625 C853.8438,23.2125 853.5625,23.0562 853.2344,23.0562 C852.9219,23.0562 852.7188,23.1656 852.5,23.4312 C851.3281,22.9312 850.8906,22.8218 849.9375,22.8218 C847.2656,22.8218 845.25,24.8375 845.25,27.4625 L845.25,28.5562 Z "/><text fill="#000000" font-family="sans-serif" font-size="14" font-weight="bold" lengthAdjust="spacingAndGlyphs" textLength="115" x="896.75" y="26.0059">OfferFactoryImpl</text><text fill="#000000" font-family="sans-serif" font-size="10" lengthAdjust="spacingAndGlyphs" textLength="167" x="870.75" y="39.0899">it.matlice.ingsw.model.data.impl.jdbc</text><line style="stroke: #A80036; stroke-width: 1.5;" x1="684.5" x2="1191.5" y1="46.7999" y2="46.7999"/><rect fill="none" height="6" style="stroke: #C82930; stroke-width: 1.0;" width="6" x="691.5" y="55.8999"/><text fill="#000000" font-family="sans-serif" font-size="11" lengthAdjust="spacingAndGlyphs" textLength="79" x="703.5" y="61.0188">&lt;any&gt; offerDAO</text><rect fill="none" height="6" style="stroke: #C82930; stroke-width: 1.0;" width="6" x="691.5" y="69.0998"/><text fill="#000000" font-family="sans-serif" font-size="11" lengthAdjust="spacingAndGlyphs" textLength="102" x="703.5" y="74.2187">&lt;any&gt; offerFieldDAO</text><rect fill="none" height="6" style="stroke: #C82930; stroke-width: 1.0;" width="6" x="691.5" y="82.2997"/><text fill="#000000" font-family="sans-serif" font-size="11" lengthAdjust="spacingAndGlyphs" textLength="123" x="703.5" y="87.4186">&lt;any&gt; categoryFieldDAO</text><rect fill="none" height="6" style="stroke: #C82930; stroke-width: 1.0;" width="6" x="691.5" y="95.4996"/><text fill="#000000" font-family="sans-serif" font-size="11" lengthAdjust="spacingAndGlyphs" textLength="156" x="703.5" y="100.6185">SettingsFactory settingsFactory</text><line style="stroke: #A80036; stroke-width: 1.5;" x1="684.5" x2="1191.5" y1="107.5995" y2="107.5995"/><ellipse cx="694.5" cy="119.6995" fill="#84BE84" rx="3" ry="3" style="stroke: #038048; stroke-width: 1.0;"/><text fill="#000000" font-family="sans-serif" font-size="11" lengthAdjust="spacingAndGlyphs" textLength="180" x="703.5" y="121.8184">OfferFactoryImpl(SettingsFactory sf)</text><ellipse cx="694.5" cy="132.8994" fill="#84BE84" rx="3" ry="3" style="stroke: #038048; stroke-width: 1.0;"/><text fill="#000000" font-family="sans-serif" font-size="11" lengthAdjust="spacingAndGlyphs" textLength="483" x="703.5" y="135.0183">Offer makeOffer(String name,User owner,LeafCategory category,Map&lt;String, Object&gt; field_values)</text><ellipse cx="694.5" cy="146.0993" fill="#84BE84" rx="3" ry="3" style="stroke: #038048; stroke-width: 1.0;"/><text fill="#000000" font-family="sans-serif" font-size="11" lengthAdjust="spacingAndGlyphs" textLength="121" x="703.5" y="148.2182">void checkForDueDate()</text><ellipse cx="694.5" cy="159.2992" fill="#84BE84" rx="3" ry="3" style="stroke: #038048; stroke-width: 1.0;"/><text fill="#000000" font-family="sans-serif" font-size="11" lengthAdjust="spacingAndGlyphs" textLength="168" x="703.5" y="161.4182">List&lt;Offer&gt; getOffers(User owner)</text><ellipse cx="694.5" cy="172.4991" fill="#84BE84" rx="3" ry="3" style="stroke: #038048; stroke-width: 1.0;"/><text fill="#000000" font-family="sans-serif" font-size="11" lengthAdjust="spacingAndGlyphs" textLength="195" x="703.5" y="174.6181">List&lt;Offer&gt; getOffers(LeafCategory cat)</text><ellipse cx="694.5" cy="185.699" fill="#84BE84" rx="3" ry="3" style="stroke: #038048; stroke-width: 1.0;"/><text fill="#000000" font-family="sans-serif" font-size="11" lengthAdjust="spacingAndGlyphs" textLength="210" x="703.5" y="187.818">List&lt;Offer&gt; getSelectedOffers(User owner)</text><ellipse cx="694.5" cy="198.8989" fill="#84BE84" rx="3" ry="3" style="stroke: #038048; stroke-width: 1.0;"/><text fill="#000000" font-family="sans-serif" font-size="11" lengthAdjust="spacingAndGlyphs" textLength="272" x="703.5" y="201.0179">void setOfferStatus(Offer offer,Offer.OfferStatus status)</text><ellipse cx="694.5" cy="212.0988" fill="#84BE84" rx="3" ry="3" style="stroke: #038048; stroke-width: 1.0;"/><text fill="#000000" font-family="sans-serif" font-size="11" lengthAdjust="spacingAndGlyphs" textLength="308" x="703.5" y="214.2178">void createTradeOffer(Offer offerToTrade,Offer offerToAccept)</text><ellipse cx="694.5" cy="225.2987" fill="#84BE84" rx="3" ry="3" style="stroke: #038048; stroke-width: 1.0;"/><text fill="#000000" font-family="sans-serif" font-size="11" lengthAdjust="spacingAndGlyphs" textLength="411" x="703.5" y="227.4177">void acceptTradeOffer(Offer offer,MessageFactory mf,String location,Calendar date)</text><ellipse cx="694.5" cy="238.4986" fill="#84BE84" rx="3" ry="3" style="stroke: #038048; stroke-width: 1.0;"/><text fill="#000000" font-family="sans-serif" font-size="11" lengthAdjust="spacingAndGlyphs" textLength="208" x="703.5" y="240.6176">void updateDate(Offer offer,Calendar date)</text><ellipse cx="694.5" cy="251.6985" fill="#84BE84" rx="3" ry="3" style="stroke: #038048; stroke-width: 1.0;"/><text fill="#000000" font-family="sans-serif" font-size="11" lengthAdjust="spacingAndGlyphs" textLength="168" x="703.5" y="253.8175">void closeTradeOffer(Message m)</text><polygon fill="#4177AF" points="694.5,260.8984,690.5,266.8984,698.5,266.8984" style="stroke: #1963A0; stroke-width: 1.0;"/><text fill="#000000" font-family="sans-serif" font-size="11" lengthAdjust="spacingAndGlyphs" textLength="313" x="703.5" y="267.0174">OfferImpl instantiateOffer(OfferDB offerDb,OfferImpl linkedOffer)</text><rect fill="#F24D5C" height="6" style="stroke: #C82930; stroke-width: 1.0;" width="6" x="691.5" y="275.0983"/><text fill="#000000" font-family="sans-serif" font-size="11" lengthAdjust="spacingAndGlyphs" textLength="182" x="703.5" y="280.2173">&lt;any&gt; fieldQuery(Category category)</text><rect fill="#F24D5C" height="6" style="stroke: #C82930; stroke-width: 1.0;" width="6" x="691.5" y="288.2982"/><text fill="#000000" font-family="sans-serif" font-size="11" lengthAdjust="spacingAndGlyphs" textLength="307" x="703.5" y="293.4172">LeafCategory findCategory(List&lt;Hierarchy&gt; hierarchyList,int id)</text><rect fill="#F24D5C" height="6" style="stroke: #C82930; stroke-width: 1.0;" width="6" x="691.5" y="301.4981"/><text fill="#000000" font-family="sans-serif" font-size="11" lengthAdjust="spacingAndGlyphs" textLength="227" x="703.5" y="306.6171">LeafCategory findCategory(Category cat,int id)</text><rect fill="#F24D5C" height="6" style="stroke: #C82930; stroke-width: 1.0;" width="6" x="691.5" y="314.698"/><text fill="#000000" font-family="sans-serif" font-size="11" lengthAdjust="spacingAndGlyphs" textLength="295" x="703.5" y="319.817">void setOfferLinked(Offer offerToAccept,Offer offerToTrade)</text><rect fill="#F24D5C" height="6" style="stroke: #C82930; stroke-width: 1.0;" width="6" x="691.5" y="327.8979"/><text fill="#000000" font-family="sans-serif" font-size="11" lengthAdjust="spacingAndGlyphs" textLength="238" x="703.5" y="333.0169">void setOfferProposedTime(Offer offer,long time)</text></a><!--class it.matlice.ingsw.model.data.factories.SettingsFactory--><a target="_parent" xlink:actuate="onRequest" xlink:href="../../../../../../../it/matlice/ingsw/model/data/factories/SettingsFactory.html" xlink:show="new" xlink:title="it.matlice.ingsw.model.data.factories.SettingsFactory" xlink:type="simple"><rect fill="#FFFFFF" filter="url(#fa8xz1b)" height="42.3999" style="stroke: #A80036; stroke-width: 1.5;" width="198" x="12" y="400"/><rect fill="#FFFFFF" height="42.3999" style="stroke: #A80036; stroke-width: 1.5;" width="198" x="12" y="400"/><ellipse cx="27" cy="421.2" fill="#B4A7E5" rx="11" ry="11" style="stroke: #A80036; stroke-width: 1.0;"/><path d="M28.0156,418.3562 L29.6719,418.3562 C30.0625,418.3562 30.2656,418.325 30.4219,418.2468 C30.6875,418.075 30.8594,417.7781 30.8594,417.4812 C30.8594,417.2 30.7188,416.95 30.4844,416.7781 C30.2969,416.6531 30.1406,416.6062 29.6719,416.6062 L24.5313,416.6062 C24.0938,416.6062 23.9531,416.6218 23.7813,416.7312 C23.5156,416.9031 23.3438,417.1843 23.3438,417.4812 C23.3438,417.7625 23.4844,418.0437 23.7188,418.2 C23.9063,418.325 24.0938,418.3562 24.5313,418.3562 L26.1875,418.3562 L26.1875,424.45 L24.5313,424.45 C24.0938,424.45 23.9531,424.4656 23.7813,424.575 C23.5156,424.7312 23.3438,425.0281 23.3438,425.3093 C23.3438,425.9187 23.75,426.2 24.5313,426.2 L29.6719,426.2 C30.4531,426.2 30.8594,425.9187 30.8594,425.3093 C30.8594,425.0437 30.7188,424.7937 30.4844,424.6218 C30.2969,424.4812 30.125,424.45 29.6719,424.45 L28.0156,424.45 L28.0156,418.3562 Z "/><text fill="#000000" font-family="sans-serif" font-size="14" font-style="italic" font-weight="bold" lengthAdjust="spacingAndGlyphs" textLength="109" x="69.5" y="420.3999">SettingsFactory</text><text fill="#000000" font-family="sans-serif" font-size="10" font-style="italic" lengthAdjust="spacingAndGlyphs" textLength="166" x="41" y="434.8999">it.matlice.ingsw.model.data.factories</text></a><!--class it.matlice.ingsw.model.data.factories.OfferFactory--><a target="_parent" xlink:actuate="onRequest" xlink:href="../../../../../../../it/matlice/ingsw/model/data/factories/OfferFactory.html" xlink:show="new" xlink:title="it.matlice.ingsw.model.data.factories.OfferFactory" xlink:type="simple"><rect fill="#FFFFFF" filter="url(#fa8xz1b)" height="42.3999" style="stroke: #A80036; stroke-width: 1.5;" width="198" x="245" y="400"/><rect fill="#FFFFFF" height="42.3999" style="stroke: #A80036; stroke-width: 1.5;" width="198" x="245" y="400"/><ellipse cx="260" cy="421.2" fill="#B4A7E5" rx="11" ry="11" style="stroke: #A80036; stroke-width: 1.0;"/><path d="M261.0156,418.3562 L262.6719,418.3562 C263.0625,418.3562 263.2656,418.325 263.4219,418.2468 C263.6875,418.075 263.8594,417.7781 263.8594,417.4812 C263.8594,417.2 263.7188,416.95 263.4844,416.7781 C263.2969,416.6531 263.1406,416.6062 262.6719,416.6062 L257.5313,416.6062 C257.0938,416.6062 256.9531,416.6218 256.7813,416.7312 C256.5156,416.9031 256.3438,417.1843 256.3438,417.4812 C256.3438,417.7625 256.4844,418.0437 256.7188,418.2 C256.9063,418.325 257.0938,418.3562 257.5313,418.3562 L259.1875,418.3562 L259.1875,424.45 L257.5313,424.45 C257.0938,424.45 256.9531,424.4656 256.7813,424.575 C256.5156,424.7312 256.3438,425.0281 256.3438,425.3093 C256.3438,425.9187 256.75,426.2 257.5313,426.2 L262.6719,426.2 C263.4531,426.2 263.8594,425.9187 263.8594,425.3093 C263.8594,425.0437 263.7188,424.7937 263.4844,424.6218 C263.2969,424.4812 263.125,424.45 262.6719,424.45 L261.0156,424.45 L261.0156,418.3562 Z "/><text fill="#000000" font-family="sans-serif" font-size="14" font-style="italic" font-weight="bold" lengthAdjust="spacingAndGlyphs" textLength="86" x="314" y="420.3999">OfferFactory</text><text fill="#000000" font-family="sans-serif" font-size="10" font-style="italic" lengthAdjust="spacingAndGlyphs" textLength="166" x="274" y="434.8999">it.matlice.ingsw.model.data.factories</text></a><!--class it.matlice.ingsw.model.data.User--><a target="_parent" xlink:actuate="onRequest" xlink:href="../../../../../../../it/matlice/ingsw/model/data/User.html" xlink:show="new" xlink:title="it.matlice.ingsw.model.data.User" xlink:type="simple"><rect fill="#FFFFFF" filter="url(#fa8xz1b)" height="38.7999" style="stroke: #A80036; stroke-width: 1.5;" width="156" x="478" y="401.5"/><rect fill="#FFFFFF" height="38.7999" style="stroke: #A80036; stroke-width: 1.5;" width="156" x="478" y="401.5"/><ellipse cx="493" cy="420.9" fill="#ADD1B2" rx="11" ry="11" style="stroke: #A80036; stroke-width: 1.0;"/><path d="M488,422.0562 C488,424.5562 490.1406,426.3687 493.0625,426.3687 C494.2969,426.3687 495.4688,426.0718 496.2188,425.5562 C496.8281,425.1343 497.1563,424.7125 497.1563,424.3062 C497.1563,423.8375 496.7344,423.4312 496.2344,423.4312 C496,423.4312 495.7813,423.5093 495.5781,423.7125 C495.1406,424.15 495.1406,424.15 494.9688,424.2437 C494.5156,424.4781 493.875,424.6187 493.1094,424.6187 C491.1094,424.6187 489.8281,423.6031 489.8281,422.025 L489.8281,420.9781 C489.8281,419.275 491.0469,418.0718 492.75,418.0718 C493.3281,418.0718 493.9063,418.2125 494.375,418.4625 C494.8438,418.7281 495.0156,418.9156 495.0781,419.275 C495.2031,419.9468 495.4531,420.1968 495.9844,420.1968 C496.2656,420.1968 496.5469,420.0562 496.7344,419.8375 C496.8594,419.6656 496.9063,419.4937 496.9063,419.0562 L496.9063,417.6968 C496.9063,417.275 496.8906,417.1343 496.7656,416.9625 C496.5938,416.7125 496.3125,416.5562 495.9844,416.5562 C495.6719,416.5562 495.4688,416.6656 495.25,416.9312 C494.0781,416.4312 493.6406,416.3218 492.6875,416.3218 C490.0156,416.3218 488,418.3375 488,420.9625 L488,422.0562 Z "/><text fill="#000000" font-family="sans-serif" font-size="14" font-weight="bold" lengthAdjust="spacingAndGlyphs" textLength="31" x="553.5" y="419.5059">User</text><text fill="#000000" font-family="sans-serif" font-size="10" lengthAdjust="spacingAndGlyphs" textLength="124" x="507" y="432.5899">it.matlice.ingsw.model.data</text></a><!--class it.matlice.ingsw.model.data.LeafCategory--><a target="_parent" xlink:actuate="onRequest" xlink:href="../../../../../../../it/matlice/ingsw/model/data/LeafCategory.html" xlink:show="new" xlink:title="it.matlice.ingsw.model.data.LeafCategory" xlink:type="simple"><rect fill="#FFFFFF" filter="url(#fa8xz1b)" height="38.7999" style="stroke: #A80036; stroke-width: 1.5;" width="156" x="669" y="401.5"/><rect fill="#FFFFFF" height="38.7999" style="stroke: #A80036; stroke-width: 1.5;" width="156" x="669" y="401.5"/><ellipse cx="684" cy="420.9" fill="#ADD1B2" rx="11" ry="11" style="stroke: #A80036; stroke-width: 1.0;"/><path d="M679,422.0562 C679,424.5562 681.1406,426.3687 684.0625,426.3687 C685.2969,426.3687 686.4688,426.0718 687.2188,425.5562 C687.8281,425.1343 688.1563,424.7125 688.1563,424.3062 C688.1563,423.8375 687.7344,423.4312 687.2344,423.4312 C687,423.4312 686.7813,423.5093 686.5781,423.7125 C686.1406,424.15 686.1406,424.15 685.9688,424.2437 C685.5156,424.4781 684.875,424.6187 684.1094,424.6187 C682.1094,424.6187 680.8281,423.6031 680.8281,422.025 L680.8281,420.9781 C680.8281,419.275 682.0469,418.0718 683.75,418.0718 C684.3281,418.0718 684.9063,418.2125 685.375,418.4625 C685.8438,418.7281 686.0156,418.9156 686.0781,419.275 C686.2031,419.9468 686.4531,420.1968 686.9844,420.1968 C687.2656,420.1968 687.5469,420.0562 687.7344,419.8375 C687.8594,419.6656 687.9063,419.4937 687.9063,419.0562 L687.9063,417.6968 C687.9063,417.275 687.8906,417.1343 687.7656,416.9625 C687.5938,416.7125 687.3125,416.5562 686.9844,416.5562 C686.6719,416.5562 686.4688,416.6656 686.25,416.9312 C685.0781,416.4312 684.6406,416.3218 683.6875,416.3218 C681.0156,416.3218 679,418.3375 679,420.9625 L679,422.0562 Z "/><text fill="#000000" font-family="sans-serif" font-size="14" font-weight="bold" lengthAdjust="spacingAndGlyphs" textLength="92" x="714" y="419.5059">LeafCategory</text><text fill="#000000" font-family="sans-serif" font-size="10" lengthAdjust="spacingAndGlyphs" textLength="124" x="698" y="432.5899">it.matlice.ingsw.model.data</text></a><!--class it.matlice.ingsw.model.data.Offer--><a target="_parent" xlink:actuate="onRequest" xlink:href="../../../../../../../it/matlice/ingsw/model/data/Offer.html" xlink:show="new" xlink:title="it.matlice.ingsw.model.data.Offer" xlink:type="simple"><rect fill="#FFFFFF" filter="url(#fa8xz1b)" height="38.7999" style="stroke: #A80036; stroke-width: 1.5;" width="156" x="860" y="401.5"/><rect fill="#FFFFFF" height="38.7999" style="stroke: #A80036; stroke-width: 1.5;" width="156" x="860" y="401.5"/><ellipse cx="875" cy="420.9" fill="#ADD1B2" rx="11" ry="11" style="stroke: #A80036; stroke-width: 1.0;"/><path d="M870,422.0562 C870,424.5562 872.1406,426.3687 875.0625,426.3687 C876.2969,426.3687 877.4688,426.0718 878.2188,425.5562 C878.8281,425.1343 879.1563,424.7125 879.1563,424.3062 C879.1563,423.8375 878.7344,423.4312 878.2344,423.4312 C878,423.4312 877.7813,423.5093 877.5781,423.7125 C877.1406,424.15 877.1406,424.15 876.9688,424.2437 C876.5156,424.4781 875.875,424.6187 875.1094,424.6187 C873.1094,424.6187 871.8281,423.6031 871.8281,422.025 L871.8281,420.9781 C871.8281,419.275 873.0469,418.0718 874.75,418.0718 C875.3281,418.0718 875.9063,418.2125 876.375,418.4625 C876.8438,418.7281 877.0156,418.9156 877.0781,419.275 C877.2031,419.9468 877.4531,420.1968 877.9844,420.1968 C878.2656,420.1968 878.5469,420.0562 878.7344,419.8375 C878.8594,419.6656 878.9063,419.4937 878.9063,419.0562 L878.9063,417.6968 C878.9063,417.275 878.8906,417.1343 878.7656,416.9625 C878.5938,416.7125 878.3125,416.5562 877.9844,416.5562 C877.6719,416.5562 877.4688,416.6656 877.25,416.9312 C876.0781,416.4312 875.6406,416.3218 874.6875,416.3218 C872.0156,416.3218 870,418.3375 870,420.9625 L870,422.0562 Z "/><text fill="#000000" font-family="sans-serif" font-size="14" font-weight="bold" lengthAdjust="spacingAndGlyphs" textLength="34" x="934" y="419.5059">Offer</text><text fill="#000000" font-family="sans-serif" font-size="10" lengthAdjust="spacingAndGlyphs" textLength="124" x="889" y="432.5899">it.matlice.ingsw.model.data</text></a><!--class it.matlice.ingsw.model.data.Hierarchy--><a target="_parent" xlink:actuate="onRequest" xlink:href="../../../../../../../it/matlice/ingsw/model/data/Hierarchy.html" xlink:show="new" xlink:title="it.matlice.ingsw.model.data.Hierarchy" xlink:type="simple"><rect fill="#FFFFFF" filter="url(#fa8xz1b)" height="38.7999" style="stroke: #A80036; stroke-width: 1.5;" width="156" x="1051" y="401.5"/><rect fill="#FFFFFF" height="38.7999" style="stroke: #A80036; stroke-width: 1.5;" width="156" x="1051" y="401.5"/><ellipse cx="1066" cy="420.9" fill="#ADD1B2" rx="11" ry="11" style="stroke: #A80036; stroke-width: 1.0;"/><path d="M1061,422.0562 C1061,424.5562 1063.1406,426.3687 1066.0625,426.3687 C1067.2969,426.3687 1068.4688,426.0718 1069.2188,425.5562 C1069.8281,425.1343 1070.1563,424.7125 1070.1563,424.3062 C1070.1563,423.8375 1069.7344,423.4312 1069.2344,423.4312 C1069,423.4312 1068.7813,423.5093 1068.5781,423.7125 C1068.1406,424.15 1068.1406,424.15 1067.9688,424.2437 C1067.5156,424.4781 1066.875,424.6187 1066.1094,424.6187 C1064.1094,424.6187 1062.8281,423.6031 1062.8281,422.025 L1062.8281,420.9781 C1062.8281,419.275 1064.0469,418.0718 1065.75,418.0718 C1066.3281,418.0718 1066.9063,418.2125 1067.375,418.4625 C1067.8438,418.7281 1068.0156,418.9156 1068.0781,419.275 C1068.2031,419.9468 1068.4531,420.1968 1068.9844,420.1968 C1069.2656,420.1968 1069.5469,420.0562 1069.7344,419.8375 C1069.8594,419.6656 1069.9063,419.4937 1069.9063,419.0562 L1069.9063,417.6968 C1069.9063,417.275 1069.8906,417.1343 1069.7656,416.9625 C1069.5938,416.7125 1069.3125,416.5562 1068.9844,416.5562 C1068.6719,416.5562 1068.4688,416.6656 1068.25,416.9312 C1067.0781,416.4312 1066.6406,416.3218 1065.6875,416.3218 C1063.0156,416.3218 1061,418.3375 1061,420.9625 L1061,422.0562 Z "/><text fill="#000000" font-family="sans-serif" font-size="14" font-weight="bold" lengthAdjust="spacingAndGlyphs" textLength="65" x="1109.5" y="419.5059">Hierarchy</text><text fill="#000000" font-family="sans-serif" font-size="10" lengthAdjust="spacingAndGlyphs" textLength="124" x="1080" y="432.5899">it.matlice.ingsw.model.data</text></a><!--class it.matlice.ingsw.model.data.Offer.OfferStatus--><a target="_parent" xlink:actuate="onRequest" xlink:href="../../../../../../../it/matlice/ingsw/model/data/Offer.OfferStatus.html" xlink:show="new" xlink:title="it.matlice.ingsw.model.data.Offer.OfferStatus" xlink:type="simple"><rect fill="#FFFFFF" filter="url(#fa8xz1b)" height="38.7999" style="stroke: #A80036; stroke-width: 1.5;" width="156" x="1242" y="401.5"/><rect fill="#FFFFFF" height="38.7999" style="stroke: #A80036; stroke-width: 1.5;" width="156" x="1242" y="401.5"/><ellipse cx="1257" cy="420.9" fill="#EB937F" rx="11" ry="11" style="stroke: #A80036; stroke-width: 1.0;"/><path d="M1255.8594,421.9625 L1257.1719,421.9625 L1257.1719,422.0093 C1257.1719,422.4156 1257.1875,422.5718 1257.2969,422.7281 C1257.4688,422.9781 1257.7656,423.15 1258.0781,423.15 C1258.3594,423.15 1258.6563,423.0093 1258.8281,422.7906 C1258.9531,422.6031 1259,422.4625 1259,422.0093 L1259,420.1656 C1259,419.8375 1258.9844,419.7281 1258.9219,419.5562 C1258.8125,419.2593 1258.4531,419.0093 1258.0781,419.0093 C1257.7813,419.0093 1257.5156,419.15 1257.3438,419.3687 C1257.2031,419.5562 1257.1719,419.7281 1257.1719,420.1656 L1257.1719,420.2281 L1255.8594,420.2281 L1255.8594,418.0562 L1259.7031,418.0562 L1259.7031,418.8062 C1259.7031,419.1968 1259.7344,419.3843 1259.8438,419.5406 C1260.0156,419.7906 1260.3125,419.9625 1260.625,419.9625 C1260.9219,419.9625 1261.1875,419.8375 1261.375,419.6031 C1261.5156,419.4156 1261.5469,419.275 1261.5469,418.8062 L1261.5469,416.3062 L1253.8438,416.3062 C1253.3906,416.3062 1253.2656,416.3218 1253.0938,416.4312 C1252.8281,416.6031 1252.6563,416.8687 1252.6563,417.1812 C1252.6563,417.4625 1252.7813,417.7281 1253.0313,417.9 C1253.2188,418.025 1253.4063,418.0562 1253.8438,418.0562 L1254.0313,418.0562 L1254.0313,424.15 L1253.8438,424.15 C1253.4219,424.15 1253.2656,424.1812 1253.0938,424.275 C1252.8281,424.4312 1252.6563,424.7125 1252.6563,425.0093 C1252.6563,425.5875 1253.0625,425.9 1253.8438,425.9 L1261.9219,425.9 L1261.9219,423.3687 C1261.9219,422.9625 1261.8906,422.7906 1261.7813,422.6343 C1261.6094,422.3687 1261.3281,422.2125 1261,422.2125 C1260.7188,422.2125 1260.4375,422.3531 1260.25,422.5718 C1260.1094,422.7593 1260.0781,422.9156 1260.0781,423.3687 L1260.0781,424.15 L1255.8594,424.15 L1255.8594,421.9625 Z "/><text fill="#000000" font-family="sans-serif" font-size="14" font-weight="bold" lengthAdjust="spacingAndGlyphs" textLength="116" x="1275" y="419.5059">Offer.OfferStatus</text><text fill="#000000" font-family="sans-serif" font-size="10" lengthAdjust="spacingAndGlyphs" textLength="124" x="1271" y="432.5899">it.matlice.ingsw.model.data</text></a><!--class it.matlice.ingsw.model.data.factories.MessageFactory--><a target="_parent" xlink:actuate="onRequest" xlink:href="../../../../../../../it/matlice/ingsw/model/data/factories/MessageFactory.html" xlink:show="new" xlink:title="it.matlice.ingsw.model.data.factories.MessageFactory" xlink:type="simple"><rect fill="#FFFFFF" filter="url(#fa8xz1b)" height="42.3999" style="stroke: #A80036; stroke-width: 1.5;" width="198" x="1433" y="400"/><rect fill="#FFFFFF" height="42.3999" style="stroke: #A80036; stroke-width: 1.5;" width="198" x="1433" y="400"/><ellipse cx="1448" cy="421.2" fill="#B4A7E5" rx="11" ry="11" style="stroke: #A80036; stroke-width: 1.0;"/><path d="M1449.0156,418.3562 L1450.6719,418.3562 C1451.0625,418.3562 1451.2656,418.325 1451.4219,418.2468 C1451.6875,418.075 1451.8594,417.7781 1451.8594,417.4812 C1451.8594,417.2 1451.7188,416.95 1451.4844,416.7781 C1451.2969,416.6531 1451.1406,416.6062 1450.6719,416.6062 L1445.5313,416.6062 C1445.0938,416.6062 1444.9531,416.6218 1444.7813,416.7312 C1444.5156,416.9031 1444.3438,417.1843 1444.3438,417.4812 C1444.3438,417.7625 1444.4844,418.0437 1444.7188,418.2 C1444.9063,418.325 1445.0938,418.3562 1445.5313,418.3562 L1447.1875,418.3562 L1447.1875,424.45 L1445.5313,424.45 C1445.0938,424.45 1444.9531,424.4656 1444.7813,424.575 C1444.5156,424.7312 1444.3438,425.0281 1444.3438,425.3093 C1444.3438,425.9187 1444.75,426.2 1445.5313,426.2 L1450.6719,426.2 C1451.4531,426.2 1451.8594,425.9187 1451.8594,425.3093 C1451.8594,425.0437 1451.7188,424.7937 1451.4844,424.6218 C1451.2969,424.4812 1451.125,424.45 1450.6719,424.45 L1449.0156,424.45 L1449.0156,418.3562 Z "/><text fill="#000000" font-family="sans-serif" font-size="14" font-style="italic" font-weight="bold" lengthAdjust="spacingAndGlyphs" textLength="113" x="1488.5" y="420.3999">MessageFactory</text><text fill="#000000" font-family="sans-serif" font-size="10" font-style="italic" lengthAdjust="spacingAndGlyphs" textLength="166" x="1462" y="434.8999">it.matlice.ingsw.model.data.factories</text></a><!--class it.matlice.ingsw.model.data.Message--><a target="_parent" xlink:actuate="onRequest" xlink:href="../../../../../../../it/matlice/ingsw/model/data/Message.html" xlink:show="new" xlink:title="it.matlice.ingsw.model.data.Message" xlink:type="simple"><rect fill="#FFFFFF" filter="url(#fa8xz1b)" height="38.7999" style="stroke: #A80036; stroke-width: 1.5;" width="156" x="1666" y="401.5"/><rect fill="#FFFFFF" height="38.7999" style="stroke: #A80036; stroke-width: 1.5;" width="156" x="1666" y="401.5"/><ellipse cx="1681" cy="420.9" fill="#ADD1B2" rx="11" ry="11" style="stroke: #A80036; stroke-width: 1.0;"/><path d="M1676,422.0562 C1676,424.5562 1678.1406,426.3687 1681.0625,426.3687 C1682.2969,426.3687 1683.4688,426.0718 1684.2188,425.5562 C1684.8281,425.1343 1685.1563,424.7125 1685.1563,424.3062 C1685.1563,423.8375 1684.7344,423.4312 1684.2344,423.4312 C1684,423.4312 1683.7813,423.5093 1683.5781,423.7125 C1683.1406,424.15 1683.1406,424.15 1682.9688,424.2437 C1682.5156,424.4781 1681.875,424.6187 1681.1094,424.6187 C1679.1094,424.6187 1677.8281,423.6031 1677.8281,422.025 L1677.8281,420.9781 C1677.8281,419.275 1679.0469,418.0718 1680.75,418.0718 C1681.3281,418.0718 1681.9063,418.2125 1682.375,418.4625 C1682.8438,418.7281 1683.0156,418.9156 1683.0781,419.275 C1683.2031,419.9468 1683.4531,420.1968 1683.9844,420.1968 C1684.2656,420.1968 1684.5469,420.0562 1684.7344,419.8375 C1684.8594,419.6656 1684.9063,419.4937 1684.9063,419.0562 L1684.9063,417.6968 C1684.9063,417.275 1684.8906,417.1343 1684.7656,416.9625 C1684.5938,416.7125 1684.3125,416.5562 1683.9844,416.5562 C1683.6719,416.5562 1683.4688,416.6656 1683.25,416.9312 C1682.0781,416.4312 1681.6406,416.3218 1680.6875,416.3218 C1678.0156,416.3218 1676,418.3375 1676,420.9625 L1676,422.0562 Z "/><text fill="#000000" font-family="sans-serif" font-size="14" font-weight="bold" lengthAdjust="spacingAndGlyphs" textLength="61" x="1726.5" y="419.5059">Message</text><text fill="#000000" font-family="sans-serif" font-size="10" lengthAdjust="spacingAndGlyphs" textLength="124" x="1695" y="432.5899">it.matlice.ingsw.model.data</text></a><path d="M683.41,91 C440.39,91 111,91 111,91 C111,91 111,394.86 111,394.86 " fill="none" style="stroke: #A80036; stroke-width: 1.0;"/><polygon fill="#A80036" points="111,399.86,115.0257,390.8715,111.0143,394.86,107.0257,390.8486,111,399.86" style="stroke: #A80036; stroke-width: 1.0;"/><text fill="#000000" font-family="sans-serif" font-size="13" lengthAdjust="spacingAndGlyphs" textLength="90" x="7.7812" y="388.5534">settingsFactory</text><path d="M683.07,174 C521.97,174 344,174 344,174 C344,174 344,379.94 344,379.94 " fill="none" style="stroke: #A80036; stroke-width: 1.0; stroke-dasharray: 7.0,7.0;"/><polygon fill="none" points="351,379.94,344,399.94,337,379.94,351,379.94" style="stroke: #A80036; stroke-width: 1.0;"/><path d="M683.47,257 C613.27,257 556,257 556,257 C556,257 556,396.22 556,396.22 " fill="none" style="stroke: #A80036; stroke-width: 1.0; stroke-dasharray: 7.0,7.0;"/><polygon fill="#A80036" points="556,401.22,560,392.22,556,396.22,552,392.22,556,401.22" style="stroke: #A80036; stroke-width: 1.0;"/><path d="M754.25,340.12 C754.25,340.12 754.25,396.28 754.25,396.28 " fill="none" style="stroke: #A80036; stroke-width: 1.0; stroke-dasharray: 7.0,7.0;"/><polygon fill="#A80036" points="754.25,401.28,758.25,392.28,754.25,396.28,750.25,392.28,754.25,401.28" style="stroke: #A80036; stroke-width: 1.0;"/><path d="M938,340.12 C938,340.12 938,396.28 938,396.28 " fill="none" style="stroke: #A80036; stroke-width: 1.0; stroke-dasharray: 7.0,7.0;"/><polygon fill="#A80036" points="938,401.28,942,392.28,938,396.28,934,392.28,938,401.28" style="stroke: #A80036; stroke-width: 1.0;"/><path d="M1121.75,340.12 C1121.75,340.12 1121.75,396.28 1121.75,396.28 " fill="none" style="stroke: #A80036; stroke-width: 1.0; stroke-dasharray: 7.0,7.0;"/><polygon fill="#A80036" points="1121.75,401.28,1125.75,392.28,1121.75,396.28,1117.75,392.28,1121.75,401.28" style="stroke: #A80036; stroke-width: 1.0;"/><path d="M1192.53,257 C1262.73,257 1320,257 1320,257 C1320,257 1320,396.22 1320,396.22 " fill="none" style="stroke: #A80036; stroke-width: 1.0; stroke-dasharray: 7.0,7.0;"/><polygon fill="#A80036" points="1320,401.22,1324,392.22,1320,396.22,1316,392.22,1320,401.22" style="stroke: #A80036; stroke-width: 1.0;"/><path d="M1192.93,174 C1354.03,174 1532,174 1532,174 C1532,174 1532,394.94 1532,394.94 " fill="none" style="stroke: #A80036; stroke-width: 1.0; stroke-dasharray: 7.0,7.0;"/><polygon fill="#A80036" points="1532,399.94,1536,390.94,1532,394.94,1528,390.94,1532,399.94" style="stroke: #A80036; stroke-width: 1.0;"/><path d="M1192.75,91 C1428.91,91 1744,91 1744,91 C1744,91 1744,396.35 1744,396.35 " fill="none" style="stroke: #A80036; stroke-width: 1.0; stroke-dasharray: 7.0,7.0;"/><polygon fill="#A80036" points="1744,401.35,1748,392.35,1744,396.35,1740,392.35,1744,401.35" style="stroke: #A80036; stroke-width: 1.0;"/></g></svg>