<?xml version="1.0" encoding="UTF-8" standalone="no"?><svg xmlns="http://www.w3.org/2000/svg" xmlns:xlink="http://www.w3.org/1999/xlink" contentScriptType="application/ecmascript" contentStyleType="text/css" height="515px" preserveAspectRatio="none" style="width:2319px;height:515px;" version="1.1" viewBox="0 0 2319 515" width="2319px" zoomAndPan="magnify"><defs><filter height="300%" id="fstfidi" width="300%" x="-1" y="-1"><feGaussianBlur result="blurOut" stdDeviation="2.0"/><feColorMatrix in="blurOut" result="blurOut2" type="matrix" values="0 0 0 0 0 0 0 0 0 0 0 0 0 0 0 0 0 0 .4 0"/><feOffset dx="4.0" dy="4.0" in="blurOut2" result="blurOut3"/><feBlend in="SourceGraphic" in2="blurOut3" mode="normal"/></filter></defs><g><!--cluster it.matlice.ingsw.model.data.impl.jdbc--><a target="_parent" xlink:actuate="onRequest" xlink:href="../../../../../../../it/matlice/ingsw/model/data/impl/jdbc/package-summary.html" xlink:show="new" xlink:title="it.matlice.ingsw.model.data.impl.jdbc" xlink:type="simple"><polygon fill="#FFFFE0" filter="url(#fstfidi)" points="22,29.5,282,29.5,289,52.2999,926,52.2999,926,508,22,508,22,29.5" style="stroke: #000000; stroke-width: 2.0;"/><line style="stroke: #000000; stroke-width: 2.0;" x1="22" x2="289" y1="52.2999" y2="52.2999"/><text fill="#000000" font-family="sans-serif" font-size="14" font-weight="bold" lengthAdjust="spacingAndGlyphs" textLength="254" x="26" y="44.5059">it.matlice.ingsw.model.data.impl.jdbc</text></a><!--cluster it.matlice.ingsw.model.data.impl.jdbc.db--><a target="_parent" xlink:actuate="onRequest" xlink:href="../../../../../../../it/matlice/ingsw/model/data/impl/jdbc/db/package-summary.html" xlink:show="new" xlink:title="it.matlice.ingsw.model.data.impl.jdbc.db" xlink:type="simple"><polygon fill="#FFFFFF" filter="url(#fstfidi)" points="1671,24,1953,24,1960,46.7999,2312,46.7999,2312,324,1671,324,1671,24" style="stroke: #000000; stroke-width: 2.0;"/><line style="stroke: #000000; stroke-width: 2.0;" x1="1671" x2="1960" y1="46.7999" y2="46.7999"/><text fill="#000000" font-family="sans-serif" font-size="14" font-weight="bold" lengthAdjust="spacingAndGlyphs" textLength="276" x="1675" y="39.0059">it.matlice.ingsw.model.data.impl.jdbc.db</text></a><!--cluster it.matlice.ingsw.model.data.impl.jdbc.types--><a target="_parent" xlink:actuate="onRequest" xlink:href="../../../../../../../it/matlice/ingsw/model/data/impl/jdbc/types/package-summary.html" xlink:show="new" xlink:title="it.matlice.ingsw.model.data.impl.jdbc.types" xlink:type="simple"><polygon fill="#FFFFFF" filter="url(#fstfidi)" points="950,235.5,1252,235.5,1259,258.2999,1647,258.2999,1647,508,950,508,950,235.5" style="stroke: #000000; stroke-width: 2.0;"/><line style="stroke: #000000; stroke-width: 2.0;" x1="950" x2="1259" y1="258.2999" y2="258.2999"/><text fill="#000000" font-family="sans-serif" font-size="14" font-weight="bold" lengthAdjust="spacingAndGlyphs" textLength="296" x="954" y="250.5059">it.matlice.ingsw.model.data.impl.jdbc.types</text></a><!--class it.matlice.ingsw.model.data.impl.jdbc.UserFactoryImpl--><a target="_parent" xlink:actuate="onRequest" xlink:href="../../../../../../../it/matlice/ingsw/model/data/impl/jdbc/UserFactoryImpl.html" xlink:show="new" xlink:title="it.matlice.ingsw.model.data.impl.jdbc.UserFactoryImpl" xlink:type="simple"><rect fill="#FEFECE" filter="url(#fstfidi)" height="32" style="stroke: #A80036; stroke-width: 1.5;" width="144" x="378" y="64.5"/><ellipse cx="393" cy="80.5" fill="#ADD1B2" rx="11" ry="11" style="stroke: #A80036; stroke-width: 1.0;"/><path d="M388,81.6563 C388,84.1563 390.1406,85.9688 393.0625,85.9688 C394.2969,85.9688 395.4688,85.6719 396.2188,85.1563 C396.8281,84.7344 397.1563,84.3125 397.1563,83.9063 C397.1563,83.4375 396.7344,83.0313 396.2344,83.0313 C396,83.0313 395.7813,83.1094 395.5781,83.3125 C395.1406,83.75 395.1406,83.75 394.9688,83.8438 C394.5156,84.0781 393.875,84.2188 393.1094,84.2188 C391.1094,84.2188 389.8281,83.2031 389.8281,81.625 L389.8281,80.5781 C389.8281,78.875 391.0469,77.6719 392.75,77.6719 C393.3281,77.6719 393.9063,77.8125 394.375,78.0625 C394.8438,78.3281 395.0156,78.5156 395.0781,78.875 C395.2031,79.5469 395.4531,79.7969 395.9844,79.7969 C396.2656,79.7969 396.5469,79.6563 396.7344,79.4375 C396.8594,79.2656 396.9063,79.0938 396.9063,78.6563 L396.9063,77.2969 C396.9063,76.875 396.8906,76.7344 396.7656,76.5625 C396.5938,76.3125 396.3125,76.1563 395.9844,76.1563 C395.6719,76.1563 395.4688,76.2656 395.25,76.5313 C394.0781,76.0313 393.6406,75.9219 392.6875,75.9219 C390.0156,75.9219 388,77.9375 388,80.5625 L388,81.6563 Z "/><text fill="#000000" font-family="sans-serif" font-size="14" font-weight="bold" lengthAdjust="spacingAndGlyphs" textLength="112" x="407" y="85.106">UserFactoryImpl</text></a><!--class it.matlice.ingsw.model.data.impl.jdbc.XMLImport--><a target="_parent" xlink:actuate="onRequest" xlink:href="../../../../../../../it/matlice/ingsw/model/data/impl/jdbc/XMLImport.html" xlink:show="new" xlink:title="it.matlice.ingsw.model.data.impl.jdbc.XMLImport" xlink:type="simple"><rect fill="#FEFECE" filter="url(#fstfidi)" height="32" style="stroke: #A80036; stroke-width: 1.5;" width="106" x="237" y="64.5"/><ellipse cx="252" cy="80.5" fill="#ADD1B2" rx="11" ry="11" style="stroke: #A80036; stroke-width: 1.0;"/><path d="M247,81.6563 C247,84.1563 249.1406,85.9688 252.0625,85.9688 C253.2969,85.9688 254.4688,85.6719 255.2188,85.1563 C255.8281,84.7344 256.1563,84.3125 256.1563,83.9063 C256.1563,83.4375 255.7344,83.0313 255.2344,83.0313 C255,83.0313 254.7813,83.1094 254.5781,83.3125 C254.1406,83.75 254.1406,83.75 253.9688,83.8438 C253.5156,84.0781 252.875,84.2188 252.1094,84.2188 C250.1094,84.2188 248.8281,83.2031 248.8281,81.625 L248.8281,80.5781 C248.8281,78.875 250.0469,77.6719 251.75,77.6719 C252.3281,77.6719 252.9063,77.8125 253.375,78.0625 C253.8438,78.3281 254.0156,78.5156 254.0781,78.875 C254.2031,79.5469 254.4531,79.7969 254.9844,79.7969 C255.2656,79.7969 255.5469,79.6563 255.7344,79.4375 C255.8594,79.2656 255.9063,79.0938 255.9063,78.6563 L255.9063,77.2969 C255.9063,76.875 255.8906,76.7344 255.7656,76.5625 C255.5938,76.3125 255.3125,76.1563 254.9844,76.1563 C254.6719,76.1563 254.4688,76.2656 254.25,76.5313 C253.0781,76.0313 252.6406,75.9219 251.6875,75.9219 C249.0156,75.9219 247,77.9375 247,80.5625 L247,81.6563 Z "/><text fill="#000000" font-family="sans-serif" font-size="14" font-weight="bold" lengthAdjust="spacingAndGlyphs" textLength="74" x="266" y="85.106">XMLImport</text></a><!--class it.matlice.ingsw.model.data.impl.jdbc.XMLImport.ConfigurationXML--><a target="_parent" xlink:actuate="onRequest" xlink:href="../../../../../../../it/matlice/ingsw/model/data/impl/jdbc/XMLImport.ConfigurationXML.html" xlink:show="new" xlink:title="it.matlice.ingsw.model.data.impl.jdbc.XMLImport.ConfigurationXML" xlink:type="simple"><rect fill="#FEFECE" filter="url(#fstfidi)" height="32" style="stroke: #A80036; stroke-width: 1.5;" width="235" x="41.5" y="167.5"/><ellipse cx="56.5" cy="183.5" fill="#ADD1B2" rx="11" ry="11" style="stroke: #A80036; stroke-width: 1.0;"/><path d="M51.5,184.6563 C51.5,187.1563 53.6406,188.9688 56.5625,188.9688 C57.7969,188.9688 58.9688,188.6719 59.7188,188.1563 C60.3281,187.7344 60.6563,187.3125 60.6563,186.9063 C60.6563,186.4375 60.2344,186.0313 59.7344,186.0313 C59.5,186.0313 59.2813,186.1094 59.0781,186.3125 C58.6406,186.75 58.6406,186.75 58.4688,186.8438 C58.0156,187.0781 57.375,187.2188 56.6094,187.2188 C54.6094,187.2188 53.3281,186.2031 53.3281,184.625 L53.3281,183.5781 C53.3281,181.875 54.5469,180.6719 56.25,180.6719 C56.8281,180.6719 57.4063,180.8125 57.875,181.0625 C58.3438,181.3281 58.5156,181.5156 58.5781,181.875 C58.7031,182.5469 58.9531,182.7969 59.4844,182.7969 C59.7656,182.7969 60.0469,182.6563 60.2344,182.4375 C60.3594,182.2656 60.4063,182.0938 60.4063,181.6563 L60.4063,180.2969 C60.4063,179.875 60.3906,179.7344 60.2656,179.5625 C60.0938,179.3125 59.8125,179.1563 59.4844,179.1563 C59.1719,179.1563 58.9688,179.2656 58.75,179.5313 C57.5781,179.0313 57.1406,178.9219 56.1875,178.9219 C53.5156,178.9219 51.5,180.9375 51.5,183.5625 L51.5,184.6563 Z "/><text fill="#000000" font-family="sans-serif" font-size="14" font-weight="bold" lengthAdjust="spacingAndGlyphs" textLength="203" x="70.5" y="188.106">XMLImport.ConfigurationXML</text></a><!--class it.matlice.ingsw.model.data.impl.jdbc.XMLImport.SettingsXML--><a target="_parent" xlink:actuate="onRequest" xlink:href="../../../../../../../it/matlice/ingsw/model/data/impl/jdbc/XMLImport.SettingsXML.html" xlink:show="new" xlink:title="it.matlice.ingsw.model.data.impl.jdbc.XMLImport.SettingsXML" xlink:type="simple"><rect fill="#FEFECE" filter="url(#fstfidi)" height="32" style="stroke: #A80036; stroke-width: 1.5;" width="197" x="49.5" y="270.5"/><ellipse cx="64.5" cy="286.5" fill="#ADD1B2" rx="11" ry="11" style="stroke: #A80036; stroke-width: 1.0;"/><path d="M59.5,287.6563 C59.5,290.1563 61.6406,291.9688 64.5625,291.9688 C65.7969,291.9688 66.9688,291.6719 67.7188,291.1563 C68.3281,290.7344 68.6563,290.3125 68.6563,289.9063 C68.6563,289.4375 68.2344,289.0313 67.7344,289.0313 C67.5,289.0313 67.2813,289.1094 67.0781,289.3125 C66.6406,289.75 66.6406,289.75 66.4688,289.8438 C66.0156,290.0781 65.375,290.2188 64.6094,290.2188 C62.6094,290.2188 61.3281,289.2031 61.3281,287.625 L61.3281,286.5781 C61.3281,284.875 62.5469,283.6719 64.25,283.6719 C64.8281,283.6719 65.4063,283.8125 65.875,284.0625 C66.3438,284.3281 66.5156,284.5156 66.5781,284.875 C66.7031,285.5469 66.9531,285.7969 67.4844,285.7969 C67.7656,285.7969 68.0469,285.6563 68.2344,285.4375 C68.3594,285.2656 68.4063,285.0938 68.4063,284.6563 L68.4063,283.2969 C68.4063,282.875 68.3906,282.7344 68.2656,282.5625 C68.0938,282.3125 67.8125,282.1563 67.4844,282.1563 C67.1719,282.1563 66.9688,282.2656 66.75,282.5313 C65.5781,282.0313 65.1406,281.9219 64.1875,281.9219 C61.5156,281.9219 59.5,283.9375 59.5,286.5625 L59.5,287.6563 Z "/><text fill="#000000" font-family="sans-serif" font-size="14" font-weight="bold" lengthAdjust="spacingAndGlyphs" textLength="165" x="78.5" y="291.106">XMLImport.SettingsXML</text></a><!--class it.matlice.ingsw.model.data.impl.jdbc.XMLImport.CategoryXML--><a target="_parent" xlink:actuate="onRequest" xlink:href="../../../../../../../it/matlice/ingsw/model/data/impl/jdbc/XMLImport.CategoryXML.html" xlink:show="new" xlink:title="it.matlice.ingsw.model.data.impl.jdbc.XMLImport.CategoryXML" xlink:type="simple"><rect fill="#FEFECE" filter="url(#fstfidi)" height="32" style="stroke: #A80036; stroke-width: 1.5;" width="202" x="283" y="368"/><ellipse cx="298" cy="384" fill="#ADD1B2" rx="11" ry="11" style="stroke: #A80036; stroke-width: 1.0;"/><path d="M293,385.1563 C293,387.6563 295.1406,389.4688 298.0625,389.4688 C299.2969,389.4688 300.4688,389.1719 301.2188,388.6563 C301.8281,388.2344 302.1563,387.8125 302.1563,387.4063 C302.1563,386.9375 301.7344,386.5313 301.2344,386.5313 C301,386.5313 300.7813,386.6094 300.5781,386.8125 C300.1406,387.25 300.1406,387.25 299.9688,387.3438 C299.5156,387.5781 298.875,387.7188 298.1094,387.7188 C296.1094,387.7188 294.8281,386.7031 294.8281,385.125 L294.8281,384.0781 C294.8281,382.375 296.0469,381.1719 297.75,381.1719 C298.3281,381.1719 298.9063,381.3125 299.375,381.5625 C299.8438,381.8281 300.0156,382.0156 300.0781,382.375 C300.2031,383.0469 300.4531,383.2969 300.9844,383.2969 C301.2656,383.2969 301.5469,383.1563 301.7344,382.9375 C301.8594,382.7656 301.9063,382.5938 301.9063,382.1563 L301.9063,380.7969 C301.9063,380.375 301.8906,380.2344 301.7656,380.0625 C301.5938,379.8125 301.3125,379.6563 300.9844,379.6563 C300.6719,379.6563 300.4688,379.7656 300.25,380.0313 C299.0781,379.5313 298.6406,379.4219 297.6875,379.4219 C295.0156,379.4219 293,381.4375 293,384.0625 L293,385.1563 Z "/><text fill="#000000" font-family="sans-serif" font-size="14" font-weight="bold" lengthAdjust="spacingAndGlyphs" textLength="170" x="312" y="388.606">XMLImport.CategoryXML</text></a><!--class it.matlice.ingsw.model.data.impl.jdbc.XMLImport.FieldXML--><a target="_parent" xlink:actuate="onRequest" xlink:href="../../../../../../../it/matlice/ingsw/model/data/impl/jdbc/XMLImport.FieldXML.html" xlink:show="new" xlink:title="it.matlice.ingsw.model.data.impl.jdbc.XMLImport.FieldXML" xlink:type="simple"><rect fill="#FEFECE" filter="url(#fstfidi)" height="32" style="stroke: #A80036; stroke-width: 1.5;" width="174" x="297" y="460"/><ellipse cx="312" cy="476" fill="#ADD1B2" rx="11" ry="11" style="stroke: #A80036; stroke-width: 1.0;"/><path d="M307,477.1563 C307,479.6563 309.1406,481.4688 312.0625,481.4688 C313.2969,481.4688 314.4688,481.1719 315.2188,480.6563 C315.8281,480.2344 316.1563,479.8125 316.1563,479.4063 C316.1563,478.9375 315.7344,478.5313 315.2344,478.5313 C315,478.5313 314.7813,478.6094 314.5781,478.8125 C314.1406,479.25 314.1406,479.25 313.9688,479.3438 C313.5156,479.5781 312.875,479.7188 312.1094,479.7188 C310.1094,479.7188 308.8281,478.7031 308.8281,477.125 L308.8281,476.0781 C308.8281,474.375 310.0469,473.1719 311.75,473.1719 C312.3281,473.1719 312.9063,473.3125 313.375,473.5625 C313.8438,473.8281 314.0156,474.0156 314.0781,474.375 C314.2031,475.0469 314.4531,475.2969 314.9844,475.2969 C315.2656,475.2969 315.5469,475.1563 315.7344,474.9375 C315.8594,474.7656 315.9063,474.5938 315.9063,474.1563 L315.9063,472.7969 C315.9063,472.375 315.8906,472.2344 315.7656,472.0625 C315.5938,471.8125 315.3125,471.6563 314.9844,471.6563 C314.6719,471.6563 314.4688,471.7656 314.25,472.0313 C313.0781,471.5313 312.6406,471.4219 311.6875,471.4219 C309.0156,471.4219 307,473.4375 307,476.0625 L307,477.1563 Z "/><text fill="#000000" font-family="sans-serif" font-size="14" font-weight="bold" lengthAdjust="spacingAndGlyphs" textLength="142" x="326" y="480.606">XMLImport.FieldXML</text></a><!--class it.matlice.ingsw.model.data.impl.jdbc.XMLImport.HierarchyXML--><a target="_parent" xlink:actuate="onRequest" xlink:href="../../../../../../../it/matlice/ingsw/model/data/impl/jdbc/XMLImport.HierarchyXML.html" xlink:show="new" xlink:title="it.matlice.ingsw.model.data.impl.jdbc.XMLImport.HierarchyXML" xlink:type="simple"><rect fill="#FEFECE" filter="url(#fstfidi)" height="32" style="stroke: #A80036; stroke-width: 1.5;" width="205" x="281.5" y="270.5"/><ellipse cx="296.5" cy="286.5" fill="#ADD1B2" rx="11" ry="11" style="stroke: #A80036; stroke-width: 1.0;"/><path d="M291.5,287.6563 C291.5,290.1563 293.6406,291.9688 296.5625,291.9688 C297.7969,291.9688 298.9688,291.6719 299.7188,291.1563 C300.3281,290.7344 300.6563,290.3125 300.6563,289.9063 C300.6563,289.4375 300.2344,289.0313 299.7344,289.0313 C299.5,289.0313 299.2813,289.1094 299.0781,289.3125 C298.6406,289.75 298.6406,289.75 298.4688,289.8438 C298.0156,290.0781 297.375,290.2188 296.6094,290.2188 C294.6094,290.2188 293.3281,289.2031 293.3281,287.625 L293.3281,286.5781 C293.3281,284.875 294.5469,283.6719 296.25,283.6719 C296.8281,283.6719 297.4063,283.8125 297.875,284.0625 C298.3438,284.3281 298.5156,284.5156 298.5781,284.875 C298.7031,285.5469 298.9531,285.7969 299.4844,285.7969 C299.7656,285.7969 300.0469,285.6563 300.2344,285.4375 C300.3594,285.2656 300.4063,285.0938 300.4063,284.6563 L300.4063,283.2969 C300.4063,282.875 300.3906,282.7344 300.2656,282.5625 C300.0938,282.3125 299.8125,282.1563 299.4844,282.1563 C299.1719,282.1563 298.9688,282.2656 298.75,282.5313 C297.5781,282.0313 297.1406,281.9219 296.1875,281.9219 C293.5156,281.9219 291.5,283.9375 291.5,286.5625 L291.5,287.6563 Z "/><text fill="#000000" font-family="sans-serif" font-size="14" font-weight="bold" lengthAdjust="spacingAndGlyphs" textLength="173" x="310.5" y="291.106">XMLImport.HierarchyXML</text></a><!--class it.matlice.ingsw.model.data.impl.jdbc.SettingsFactoryImpl--><a target="_parent" xlink:actuate="onRequest" xlink:href="../../../../../../../it/matlice/ingsw/model/data/impl/jdbc/SettingsFactoryImpl.html" xlink:show="new" xlink:title="it.matlice.ingsw.model.data.impl.jdbc.SettingsFactoryImpl" xlink:type="simple"><rect fill="#FEFECE" filter="url(#fstfidi)" height="32" style="stroke: #A80036; stroke-width: 1.5;" width="170" x="557" y="64.5"/><ellipse cx="572" cy="80.5" fill="#ADD1B2" rx="11" ry="11" style="stroke: #A80036; stroke-width: 1.0;"/><path d="M567,81.6563 C567,84.1563 569.1406,85.9688 572.0625,85.9688 C573.2969,85.9688 574.4688,85.6719 575.2188,85.1563 C575.8281,84.7344 576.1563,84.3125 576.1563,83.9063 C576.1563,83.4375 575.7344,83.0313 575.2344,83.0313 C575,83.0313 574.7813,83.1094 574.5781,83.3125 C574.1406,83.75 574.1406,83.75 573.9688,83.8438 C573.5156,84.0781 572.875,84.2188 572.1094,84.2188 C570.1094,84.2188 568.8281,83.2031 568.8281,81.625 L568.8281,80.5781 C568.8281,78.875 570.0469,77.6719 571.75,77.6719 C572.3281,77.6719 572.9063,77.8125 573.375,78.0625 C573.8438,78.3281 574.0156,78.5156 574.0781,78.875 C574.2031,79.5469 574.4531,79.7969 574.9844,79.7969 C575.2656,79.7969 575.5469,79.6563 575.7344,79.4375 C575.8594,79.2656 575.9063,79.0938 575.9063,78.6563 L575.9063,77.2969 C575.9063,76.875 575.8906,76.7344 575.7656,76.5625 C575.5938,76.3125 575.3125,76.1563 574.9844,76.1563 C574.6719,76.1563 574.4688,76.2656 574.25,76.5313 C573.0781,76.0313 572.6406,75.9219 571.6875,75.9219 C569.0156,75.9219 567,77.9375 567,80.5625 L567,81.6563 Z "/><text fill="#000000" font-family="sans-serif" font-size="14" font-weight="bold" lengthAdjust="spacingAndGlyphs" textLength="138" x="586" y="85.106">SettingsFactoryImpl</text></a><!--class it.matlice.ingsw.model.data.impl.jdbc.OfferFactoryImpl--><a target="_parent" xlink:actuate="onRequest" xlink:href="../../../../../../../it/matlice/ingsw/model/data/impl/jdbc/OfferFactoryImpl.html" xlink:show="new" xlink:title="it.matlice.ingsw.model.data.impl.jdbc.OfferFactoryImpl" xlink:type="simple"><rect fill="#FEFECE" filter="url(#fstfidi)" height="32" style="stroke: #A80036; stroke-width: 1.5;" width="147" x="762.5" y="64.5"/><ellipse cx="777.5" cy="80.5" fill="#ADD1B2" rx="11" ry="11" style="stroke: #A80036; stroke-width: 1.0;"/><path d="M772.5,81.6563 C772.5,84.1563 774.6406,85.9688 777.5625,85.9688 C778.7969,85.9688 779.9688,85.6719 780.7188,85.1563 C781.3281,84.7344 781.6563,84.3125 781.6563,83.9063 C781.6563,83.4375 781.2344,83.0313 780.7344,83.0313 C780.5,83.0313 780.2813,83.1094 780.0781,83.3125 C779.6406,83.75 779.6406,83.75 779.4688,83.8438 C779.0156,84.0781 778.375,84.2188 777.6094,84.2188 C775.6094,84.2188 774.3281,83.2031 774.3281,81.625 L774.3281,80.5781 C774.3281,78.875 775.5469,77.6719 777.25,77.6719 C777.8281,77.6719 778.4063,77.8125 778.875,78.0625 C779.3438,78.3281 779.5156,78.5156 779.5781,78.875 C779.7031,79.5469 779.9531,79.7969 780.4844,79.7969 C780.7656,79.7969 781.0469,79.6563 781.2344,79.4375 C781.3594,79.2656 781.4063,79.0938 781.4063,78.6563 L781.4063,77.2969 C781.4063,76.875 781.3906,76.7344 781.2656,76.5625 C781.0938,76.3125 780.8125,76.1563 780.4844,76.1563 C780.1719,76.1563 779.9688,76.2656 779.75,76.5313 C778.5781,76.0313 778.1406,75.9219 777.1875,75.9219 C774.5156,75.9219 772.5,77.9375 772.5,80.5625 L772.5,81.6563 Z "/><text fill="#000000" font-family="sans-serif" font-size="14" font-weight="bold" lengthAdjust="spacingAndGlyphs" textLength="115" x="791.5" y="85.106">OfferFactoryImpl</text></a><!--class it.matlice.ingsw.model.data.impl.jdbc.MessageFactoryImpl--><a target="_parent" xlink:actuate="onRequest" xlink:href="../../../../../../../it/matlice/ingsw/model/data/impl/jdbc/MessageFactoryImpl.html" xlink:show="new" xlink:title="it.matlice.ingsw.model.data.impl.jdbc.MessageFactoryImpl" xlink:type="simple"><rect fill="#FEFECE" filter="url(#fstfidi)" height="32" style="stroke: #A80036; stroke-width: 1.5;" width="174" x="312" y="167.5"/><ellipse cx="327" cy="183.5" fill="#ADD1B2" rx="11" ry="11" style="stroke: #A80036; stroke-width: 1.0;"/><path d="M322,184.6563 C322,187.1563 324.1406,188.9688 327.0625,188.9688 C328.2969,188.9688 329.4688,188.6719 330.2188,188.1563 C330.8281,187.7344 331.1563,187.3125 331.1563,186.9063 C331.1563,186.4375 330.7344,186.0313 330.2344,186.0313 C330,186.0313 329.7813,186.1094 329.5781,186.3125 C329.1406,186.75 329.1406,186.75 328.9688,186.8438 C328.5156,187.0781 327.875,187.2188 327.1094,187.2188 C325.1094,187.2188 323.8281,186.2031 323.8281,184.625 L323.8281,183.5781 C323.8281,181.875 325.0469,180.6719 326.75,180.6719 C327.3281,180.6719 327.9063,180.8125 328.375,181.0625 C328.8438,181.3281 329.0156,181.5156 329.0781,181.875 C329.2031,182.5469 329.4531,182.7969 329.9844,182.7969 C330.2656,182.7969 330.5469,182.6563 330.7344,182.4375 C330.8594,182.2656 330.9063,182.0938 330.9063,181.6563 L330.9063,180.2969 C330.9063,179.875 330.8906,179.7344 330.7656,179.5625 C330.5938,179.3125 330.3125,179.1563 329.9844,179.1563 C329.6719,179.1563 329.4688,179.2656 329.25,179.5313 C328.0781,179.0313 327.6406,178.9219 326.6875,178.9219 C324.0156,178.9219 322,180.9375 322,183.5625 L322,184.6563 Z "/><text fill="#000000" font-family="sans-serif" font-size="14" font-weight="bold" lengthAdjust="spacingAndGlyphs" textLength="142" x="341" y="188.106">MessageFactoryImpl</text></a><!--class it.matlice.ingsw.model.data.impl.jdbc.JdbcConnection--><a target="_parent" xlink:actuate="onRequest" xlink:href="../../../../../../../it/matlice/ingsw/model/data/impl/jdbc/JdbcConnection.html" xlink:show="new" xlink:title="it.matlice.ingsw.model.data.impl.jdbc.JdbcConnection" xlink:type="simple"><rect fill="#FEFECE" filter="url(#fstfidi)" height="32" style="stroke: #A80036; stroke-width: 1.5;" width="146" x="38" y="64.5"/><ellipse cx="53" cy="80.5" fill="#ADD1B2" rx="11" ry="11" style="stroke: #A80036; stroke-width: 1.0;"/><path d="M48,81.6563 C48,84.1563 50.1406,85.9688 53.0625,85.9688 C54.2969,85.9688 55.4688,85.6719 56.2188,85.1563 C56.8281,84.7344 57.1563,84.3125 57.1563,83.9063 C57.1563,83.4375 56.7344,83.0313 56.2344,83.0313 C56,83.0313 55.7813,83.1094 55.5781,83.3125 C55.1406,83.75 55.1406,83.75 54.9688,83.8438 C54.5156,84.0781 53.875,84.2188 53.1094,84.2188 C51.1094,84.2188 49.8281,83.2031 49.8281,81.625 L49.8281,80.5781 C49.8281,78.875 51.0469,77.6719 52.75,77.6719 C53.3281,77.6719 53.9063,77.8125 54.375,78.0625 C54.8438,78.3281 55.0156,78.5156 55.0781,78.875 C55.2031,79.5469 55.4531,79.7969 55.9844,79.7969 C56.2656,79.7969 56.5469,79.6563 56.7344,79.4375 C56.8594,79.2656 56.9063,79.0938 56.9063,78.6563 L56.9063,77.2969 C56.9063,76.875 56.8906,76.7344 56.7656,76.5625 C56.5938,76.3125 56.3125,76.1563 55.9844,76.1563 C55.6719,76.1563 55.4688,76.2656 55.25,76.5313 C54.0781,76.0313 53.6406,75.9219 52.6875,75.9219 C50.0156,75.9219 48,77.9375 48,80.5625 L48,81.6563 Z "/><text fill="#000000" font-family="sans-serif" font-size="14" font-weight="bold" lengthAdjust="spacingAndGlyphs" textLength="114" x="67" y="85.106">JdbcConnection</text></a><!--class it.matlice.ingsw.model.data.impl.jdbc.HierarchyFactoryImpl--><a target="_parent" xlink:actuate="onRequest" xlink:href="../../../../../../../it/matlice/ingsw/model/data/impl/jdbc/HierarchyFactoryImpl.html" xlink:show="new" xlink:title="it.matlice.ingsw.model.data.impl.jdbc.HierarchyFactoryImpl" xlink:type="simple"><rect fill="#FEFECE" filter="url(#fstfidi)" height="32" style="stroke: #A80036; stroke-width: 1.5;" width="178" x="521" y="167.5"/><ellipse cx="536" cy="183.5" fill="#ADD1B2" rx="11" ry="11" style="stroke: #A80036; stroke-width: 1.0;"/><path d="M531,184.6563 C531,187.1563 533.1406,188.9688 536.0625,188.9688 C537.2969,188.9688 538.4688,188.6719 539.2188,188.1563 C539.8281,187.7344 540.1563,187.3125 540.1563,186.9063 C540.1563,186.4375 539.7344,186.0313 539.2344,186.0313 C539,186.0313 538.7813,186.1094 538.5781,186.3125 C538.1406,186.75 538.1406,186.75 537.9688,186.8438 C537.5156,187.0781 536.875,187.2188 536.1094,187.2188 C534.1094,187.2188 532.8281,186.2031 532.8281,184.625 L532.8281,183.5781 C532.8281,181.875 534.0469,180.6719 535.75,180.6719 C536.3281,180.6719 536.9063,180.8125 537.375,181.0625 C537.8438,181.3281 538.0156,181.5156 538.0781,181.875 C538.2031,182.5469 538.4531,182.7969 538.9844,182.7969 C539.2656,182.7969 539.5469,182.6563 539.7344,182.4375 C539.8594,182.2656 539.9063,182.0938 539.9063,181.6563 L539.9063,180.2969 C539.9063,179.875 539.8906,179.7344 539.7656,179.5625 C539.5938,179.3125 539.3125,179.1563 538.9844,179.1563 C538.6719,179.1563 538.4688,179.2656 538.25,179.5313 C537.0781,179.0313 536.6406,178.9219 535.6875,178.9219 C533.0156,178.9219 531,180.9375 531,183.5625 L531,184.6563 Z "/><text fill="#000000" font-family="sans-serif" font-size="14" font-weight="bold" lengthAdjust="spacingAndGlyphs" textLength="146" x="550" y="188.106">HierarchyFactoryImpl</text></a><!--class it.matlice.ingsw.model.data.impl.jdbc.CategoryFactoryImpl--><a target="_parent" xlink:actuate="onRequest" xlink:href="../../../../../../../it/matlice/ingsw/model/data/impl/jdbc/CategoryFactoryImpl.html" xlink:show="new" xlink:title="it.matlice.ingsw.model.data.impl.jdbc.CategoryFactoryImpl" xlink:type="simple"><rect fill="#FEFECE" filter="url(#fstfidi)" height="32" style="stroke: #A80036; stroke-width: 1.5;" width="175" x="734.5" y="167.5"/><ellipse cx="749.5" cy="183.5" fill="#ADD1B2" rx="11" ry="11" style="stroke: #A80036; stroke-width: 1.0;"/><path d="M744.5,184.6563 C744.5,187.1563 746.6406,188.9688 749.5625,188.9688 C750.7969,188.9688 751.9688,188.6719 752.7188,188.1563 C753.3281,187.7344 753.6563,187.3125 753.6563,186.9063 C753.6563,186.4375 753.2344,186.0313 752.7344,186.0313 C752.5,186.0313 752.2813,186.1094 752.0781,186.3125 C751.6406,186.75 751.6406,186.75 751.4688,186.8438 C751.0156,187.0781 750.375,187.2188 749.6094,187.2188 C747.6094,187.2188 746.3281,186.2031 746.3281,184.625 L746.3281,183.5781 C746.3281,181.875 747.5469,180.6719 749.25,180.6719 C749.8281,180.6719 750.4063,180.8125 750.875,181.0625 C751.3438,181.3281 751.5156,181.5156 751.5781,181.875 C751.7031,182.5469 751.9531,182.7969 752.4844,182.7969 C752.7656,182.7969 753.0469,182.6563 753.2344,182.4375 C753.3594,182.2656 753.4063,182.0938 753.4063,181.6563 L753.4063,180.2969 C753.4063,179.875 753.3906,179.7344 753.2656,179.5625 C753.0938,179.3125 752.8125,179.1563 752.4844,179.1563 C752.1719,179.1563 751.9688,179.2656 751.75,179.5313 C750.5781,179.0313 750.1406,178.9219 749.1875,178.9219 C746.5156,178.9219 744.5,180.9375 744.5,183.5625 L744.5,184.6563 Z "/><text fill="#000000" font-family="sans-serif" font-size="14" font-weight="bold" lengthAdjust="spacingAndGlyphs" textLength="143" x="763.5" y="188.106">CategoryFactoryImpl</text></a><!--class it.matlice.ingsw.model.data.impl.jdbc.db.UserDB--><a target="_parent" xlink:actuate="onRequest" xlink:href="../../../../../../../it/matlice/ingsw/model/data/impl/jdbc/db/UserDB.html" xlink:show="new" xlink:title="it.matlice.ingsw.model.data.impl.jdbc.db.UserDB" xlink:type="simple"><rect fill="#FEFECE" filter="url(#fstfidi)" height="43" style="stroke: #A80036; stroke-width: 1.5;" width="126" x="1687" y="59"/><ellipse cx="1702" cy="80.5" fill="#ADD1B2" rx="11" ry="11" style="stroke: #A80036; stroke-width: 1.0;"/><path d="M1697,81.6563 C1697,84.1563 1699.1406,85.9688 1702.0625,85.9688 C1703.2969,85.9688 1704.4688,85.6719 1705.2188,85.1563 C1705.8281,84.7344 1706.1563,84.3125 1706.1563,83.9063 C1706.1563,83.4375 1705.7344,83.0313 1705.2344,83.0313 C1705,83.0313 1704.7813,83.1094 1704.5781,83.3125 C1704.1406,83.75 1704.1406,83.75 1703.9688,83.8438 C1703.5156,84.0781 1702.875,84.2188 1702.1094,84.2188 C1700.1094,84.2188 1698.8281,83.2031 1698.8281,81.625 L1698.8281,80.5781 C1698.8281,78.875 1700.0469,77.6719 1701.75,77.6719 C1702.3281,77.6719 1702.9063,77.8125 1703.375,78.0625 C1703.8438,78.3281 1704.0156,78.5156 1704.0781,78.875 C1704.2031,79.5469 1704.4531,79.7969 1704.9844,79.7969 C1705.2656,79.7969 1705.5469,79.6563 1705.7344,79.4375 C1705.8594,79.2656 1705.9063,79.0938 1705.9063,78.6563 L1705.9063,77.2969 C1705.9063,76.875 1705.8906,76.7344 1705.7656,76.5625 C1705.5938,76.3125 1705.3125,76.1563 1704.9844,76.1563 C1704.6719,76.1563 1704.4688,76.2656 1704.25,76.5313 C1703.0781,76.0313 1702.6406,75.9219 1701.6875,75.9219 C1699.0156,75.9219 1697,77.9375 1697,80.5625 L1697,81.6563 Z "/><text fill="#000000" font-family="sans-serif" font-size="12" font-style="italic" lengthAdjust="spacingAndGlyphs" textLength="98" x="1714" y="77.2001">«DatabaseTable»</text><text fill="#000000" font-family="sans-serif" font-size="14" font-weight="bold" lengthAdjust="spacingAndGlyphs" textLength="51" x="1737.5" y="93.2061">UserDB</text></a><!--class it.matlice.ingsw.model.data.impl.jdbc.db.SettingsDB--><a target="_parent" xlink:actuate="onRequest" xlink:href="../../../../../../../it/matlice/ingsw/model/data/impl/jdbc/db/SettingsDB.html" xlink:show="new" xlink:title="it.matlice.ingsw.model.data.impl.jdbc.db.SettingsDB" xlink:type="simple"><rect fill="#FEFECE" filter="url(#fstfidi)" height="43" style="stroke: #A80036; stroke-width: 1.5;" width="126" x="1848" y="59"/><ellipse cx="1863" cy="80.5" fill="#ADD1B2" rx="11" ry="11" style="stroke: #A80036; stroke-width: 1.0;"/><path d="M1858,81.6563 C1858,84.1563 1860.1406,85.9688 1863.0625,85.9688 C1864.2969,85.9688 1865.4688,85.6719 1866.2188,85.1563 C1866.8281,84.7344 1867.1563,84.3125 1867.1563,83.9063 C1867.1563,83.4375 1866.7344,83.0313 1866.2344,83.0313 C1866,83.0313 1865.7813,83.1094 1865.5781,83.3125 C1865.1406,83.75 1865.1406,83.75 1864.9688,83.8438 C1864.5156,84.0781 1863.875,84.2188 1863.1094,84.2188 C1861.1094,84.2188 1859.8281,83.2031 1859.8281,81.625 L1859.8281,80.5781 C1859.8281,78.875 1861.0469,77.6719 1862.75,77.6719 C1863.3281,77.6719 1863.9063,77.8125 1864.375,78.0625 C1864.8438,78.3281 1865.0156,78.5156 1865.0781,78.875 C1865.2031,79.5469 1865.4531,79.7969 1865.9844,79.7969 C1866.2656,79.7969 1866.5469,79.6563 1866.7344,79.4375 C1866.8594,79.2656 1866.9063,79.0938 1866.9063,78.6563 L1866.9063,77.2969 C1866.9063,76.875 1866.8906,76.7344 1866.7656,76.5625 C1866.5938,76.3125 1866.3125,76.1563 1865.9844,76.1563 C1865.6719,76.1563 1865.4688,76.2656 1865.25,76.5313 C1864.0781,76.0313 1863.6406,75.9219 1862.6875,75.9219 C1860.0156,75.9219 1858,77.9375 1858,80.5625 L1858,81.6563 Z "/><text fill="#000000" font-family="sans-serif" font-size="12" font-style="italic" lengthAdjust="spacingAndGlyphs" textLength="98" x="1875" y="77.2001">«DatabaseTable»</text><text fill="#000000" font-family="sans-serif" font-size="14" font-weight="bold" lengthAdjust="spacingAndGlyphs" textLength="77" x="1885.5" y="93.2061">SettingsDB</text></a><!--class it.matlice.ingsw.model.data.impl.jdbc.db.OfferFieldDB--><a target="_parent" xlink:actuate="onRequest" xlink:href="../../../../../../../it/matlice/ingsw/model/data/impl/jdbc/db/OfferFieldDB.html" xlink:show="new" xlink:title="it.matlice.ingsw.model.data.impl.jdbc.db.OfferFieldDB" xlink:type="simple"><rect fill="#FEFECE" filter="url(#fstfidi)" height="43" style="stroke: #A80036; stroke-width: 1.5;" width="126" x="2009" y="59"/><ellipse cx="2024" cy="80.5" fill="#ADD1B2" rx="11" ry="11" style="stroke: #A80036; stroke-width: 1.0;"/><path d="M2019,81.6563 C2019,84.1563 2021.1406,85.9688 2024.0625,85.9688 C2025.2969,85.9688 2026.4688,85.6719 2027.2188,85.1563 C2027.8281,84.7344 2028.1563,84.3125 2028.1563,83.9063 C2028.1563,83.4375 2027.7344,83.0313 2027.2344,83.0313 C2027,83.0313 2026.7813,83.1094 2026.5781,83.3125 C2026.1406,83.75 2026.1406,83.75 2025.9688,83.8438 C2025.5156,84.0781 2024.875,84.2188 2024.1094,84.2188 C2022.1094,84.2188 2020.8281,83.2031 2020.8281,81.625 L2020.8281,80.5781 C2020.8281,78.875 2022.0469,77.6719 2023.75,77.6719 C2024.3281,77.6719 2024.9063,77.8125 2025.375,78.0625 C2025.8438,78.3281 2026.0156,78.5156 2026.0781,78.875 C2026.2031,79.5469 2026.4531,79.7969 2026.9844,79.7969 C2027.2656,79.7969 2027.5469,79.6563 2027.7344,79.4375 C2027.8594,79.2656 2027.9063,79.0938 2027.9063,78.6563 L2027.9063,77.2969 C2027.9063,76.875 2027.8906,76.7344 2027.7656,76.5625 C2027.5938,76.3125 2027.3125,76.1563 2026.9844,76.1563 C2026.6719,76.1563 2026.4688,76.2656 2026.25,76.5313 C2025.0781,76.0313 2024.6406,75.9219 2023.6875,75.9219 C2021.0156,75.9219 2019,77.9375 2019,80.5625 L2019,81.6563 Z "/><text fill="#000000" font-family="sans-serif" font-size="12" font-style="italic" lengthAdjust="spacingAndGlyphs" textLength="98" x="2036" y="77.2001">«DatabaseTable»</text><text fill="#000000" font-family="sans-serif" font-size="14" font-weight="bold" lengthAdjust="spacingAndGlyphs" textLength="88" x="2041" y="93.2061">OfferFieldDB</text></a><!--class it.matlice.ingsw.model.data.impl.jdbc.db.OfferDB--><a target="_parent" xlink:actuate="onRequest" xlink:href="../../../../../../../it/matlice/ingsw/model/data/impl/jdbc/db/OfferDB.html" xlink:show="new" xlink:title="it.matlice.ingsw.model.data.impl.jdbc.db.OfferDB" xlink:type="simple"><rect fill="#FEFECE" filter="url(#fstfidi)" height="43" style="stroke: #A80036; stroke-width: 1.5;" width="126" x="2170" y="59"/><ellipse cx="2185" cy="80.5" fill="#ADD1B2" rx="11" ry="11" style="stroke: #A80036; stroke-width: 1.0;"/><path d="M2180,81.6563 C2180,84.1563 2182.1406,85.9688 2185.0625,85.9688 C2186.2969,85.9688 2187.4688,85.6719 2188.2188,85.1563 C2188.8281,84.7344 2189.1563,84.3125 2189.1563,83.9063 C2189.1563,83.4375 2188.7344,83.0313 2188.2344,83.0313 C2188,83.0313 2187.7813,83.1094 2187.5781,83.3125 C2187.1406,83.75 2187.1406,83.75 2186.9688,83.8438 C2186.5156,84.0781 2185.875,84.2188 2185.1094,84.2188 C2183.1094,84.2188 2181.8281,83.2031 2181.8281,81.625 L2181.8281,80.5781 C2181.8281,78.875 2183.0469,77.6719 2184.75,77.6719 C2185.3281,77.6719 2185.9063,77.8125 2186.375,78.0625 C2186.8438,78.3281 2187.0156,78.5156 2187.0781,78.875 C2187.2031,79.5469 2187.4531,79.7969 2187.9844,79.7969 C2188.2656,79.7969 2188.5469,79.6563 2188.7344,79.4375 C2188.8594,79.2656 2188.9063,79.0938 2188.9063,78.6563 L2188.9063,77.2969 C2188.9063,76.875 2188.8906,76.7344 2188.7656,76.5625 C2188.5938,76.3125 2188.3125,76.1563 2187.9844,76.1563 C2187.6719,76.1563 2187.4688,76.2656 2187.25,76.5313 C2186.0781,76.0313 2185.6406,75.9219 2184.6875,75.9219 C2182.0156,75.9219 2180,77.9375 2180,80.5625 L2180,81.6563 Z "/><text fill="#000000" font-family="sans-serif" font-size="12" font-style="italic" lengthAdjust="spacingAndGlyphs" textLength="98" x="2197" y="77.2001">«DatabaseTable»</text><text fill="#000000" font-family="sans-serif" font-size="14" font-weight="bold" lengthAdjust="spacingAndGlyphs" textLength="54" x="2219" y="93.2061">OfferDB</text></a><!--class it.matlice.ingsw.model.data.impl.jdbc.db.MessageDB--><a target="_parent" xlink:actuate="onRequest" xlink:href="../../../../../../../it/matlice/ingsw/model/data/impl/jdbc/db/MessageDB.html" xlink:show="new" xlink:title="it.matlice.ingsw.model.data.impl.jdbc.db.MessageDB" xlink:type="simple"><rect fill="#FEFECE" filter="url(#fstfidi)" height="43" style="stroke: #A80036; stroke-width: 1.5;" width="126" x="1687" y="162"/><ellipse cx="1702" cy="183.5" fill="#ADD1B2" rx="11" ry="11" style="stroke: #A80036; stroke-width: 1.0;"/><path d="M1697,184.6563 C1697,187.1563 1699.1406,188.9688 1702.0625,188.9688 C1703.2969,188.9688 1704.4688,188.6719 1705.2188,188.1563 C1705.8281,187.7344 1706.1563,187.3125 1706.1563,186.9063 C1706.1563,186.4375 1705.7344,186.0313 1705.2344,186.0313 C1705,186.0313 1704.7813,186.1094 1704.5781,186.3125 C1704.1406,186.75 1704.1406,186.75 1703.9688,186.8438 C1703.5156,187.0781 1702.875,187.2188 1702.1094,187.2188 C1700.1094,187.2188 1698.8281,186.2031 1698.8281,184.625 L1698.8281,183.5781 C1698.8281,181.875 1700.0469,180.6719 1701.75,180.6719 C1702.3281,180.6719 1702.9063,180.8125 1703.375,181.0625 C1703.8438,181.3281 1704.0156,181.5156 1704.0781,181.875 C1704.2031,182.5469 1704.4531,182.7969 1704.9844,182.7969 C1705.2656,182.7969 1705.5469,182.6563 1705.7344,182.4375 C1705.8594,182.2656 1705.9063,182.0938 1705.9063,181.6563 L1705.9063,180.2969 C1705.9063,179.875 1705.8906,179.7344 1705.7656,179.5625 C1705.5938,179.3125 1705.3125,179.1563 1704.9844,179.1563 C1704.6719,179.1563 1704.4688,179.2656 1704.25,179.5313 C1703.0781,179.0313 1702.6406,178.9219 1701.6875,178.9219 C1699.0156,178.9219 1697,180.9375 1697,183.5625 L1697,184.6563 Z "/><text fill="#000000" font-family="sans-serif" font-size="12" font-style="italic" lengthAdjust="spacingAndGlyphs" textLength="98" x="1714" y="180.2001">«DatabaseTable»</text><text fill="#000000" font-family="sans-serif" font-size="14" font-weight="bold" lengthAdjust="spacingAndGlyphs" textLength="81" x="1722.5" y="196.2061">MessageDB</text></a><!--class it.matlice.ingsw.model.data.impl.jdbc.db.LocationsDB--><a target="_parent" xlink:actuate="onRequest" xlink:href="../../../../../../../it/matlice/ingsw/model/data/impl/jdbc/db/LocationsDB.html" xlink:show="new" xlink:title="it.matlice.ingsw.model.data.impl.jdbc.db.LocationsDB" xlink:type="simple"><rect fill="#FEFECE" filter="url(#fstfidi)" height="43" style="stroke: #A80036; stroke-width: 1.5;" width="126" x="1848" y="162"/><ellipse cx="1863" cy="183.5" fill="#ADD1B2" rx="11" ry="11" style="stroke: #A80036; stroke-width: 1.0;"/><path d="M1858,184.6563 C1858,187.1563 1860.1406,188.9688 1863.0625,188.9688 C1864.2969,188.9688 1865.4688,188.6719 1866.2188,188.1563 C1866.8281,187.7344 1867.1563,187.3125 1867.1563,186.9063 C1867.1563,186.4375 1866.7344,186.0313 1866.2344,186.0313 C1866,186.0313 1865.7813,186.1094 1865.5781,186.3125 C1865.1406,186.75 1865.1406,186.75 1864.9688,186.8438 C1864.5156,187.0781 1863.875,187.2188 1863.1094,187.2188 C1861.1094,187.2188 1859.8281,186.2031 1859.8281,184.625 L1859.8281,183.5781 C1859.8281,181.875 1861.0469,180.6719 1862.75,180.6719 C1863.3281,180.6719 1863.9063,180.8125 1864.375,181.0625 C1864.8438,181.3281 1865.0156,181.5156 1865.0781,181.875 C1865.2031,182.5469 1865.4531,182.7969 1865.9844,182.7969 C1866.2656,182.7969 1866.5469,182.6563 1866.7344,182.4375 C1866.8594,182.2656 1866.9063,182.0938 1866.9063,181.6563 L1866.9063,180.2969 C1866.9063,179.875 1866.8906,179.7344 1866.7656,179.5625 C1866.5938,179.3125 1866.3125,179.1563 1865.9844,179.1563 C1865.6719,179.1563 1865.4688,179.2656 1865.25,179.5313 C1864.0781,179.0313 1863.6406,178.9219 1862.6875,178.9219 C1860.0156,178.9219 1858,180.9375 1858,183.5625 L1858,184.6563 Z "/><text fill="#000000" font-family="sans-serif" font-size="12" font-style="italic" lengthAdjust="spacingAndGlyphs" textLength="98" x="1875" y="180.2001">«DatabaseTable»</text><text fill="#000000" font-family="sans-serif" font-size="14" font-weight="bold" lengthAdjust="spacingAndGlyphs" textLength="89" x="1879.5" y="196.2061">LocationsDB</text></a><!--class it.matlice.ingsw.model.data.impl.jdbc.db.IntervalsDB--><a target="_parent" xlink:actuate="onRequest" xlink:href="../../../../../../../it/matlice/ingsw/model/data/impl/jdbc/db/IntervalsDB.html" xlink:show="new" xlink:title="it.matlice.ingsw.model.data.impl.jdbc.db.IntervalsDB" xlink:type="simple"><rect fill="#FEFECE" filter="url(#fstfidi)" height="43" style="stroke: #A80036; stroke-width: 1.5;" width="126" x="2009" y="162"/><ellipse cx="2024" cy="183.5" fill="#ADD1B2" rx="11" ry="11" style="stroke: #A80036; stroke-width: 1.0;"/><path d="M2019,184.6563 C2019,187.1563 2021.1406,188.9688 2024.0625,188.9688 C2025.2969,188.9688 2026.4688,188.6719 2027.2188,188.1563 C2027.8281,187.7344 2028.1563,187.3125 2028.1563,186.9063 C2028.1563,186.4375 2027.7344,186.0313 2027.2344,186.0313 C2027,186.0313 2026.7813,186.1094 2026.5781,186.3125 C2026.1406,186.75 2026.1406,186.75 2025.9688,186.8438 C2025.5156,187.0781 2024.875,187.2188 2024.1094,187.2188 C2022.1094,187.2188 2020.8281,186.2031 2020.8281,184.625 L2020.8281,183.5781 C2020.8281,181.875 2022.0469,180.6719 2023.75,180.6719 C2024.3281,180.6719 2024.9063,180.8125 2025.375,181.0625 C2025.8438,181.3281 2026.0156,181.5156 2026.0781,181.875 C2026.2031,182.5469 2026.4531,182.7969 2026.9844,182.7969 C2027.2656,182.7969 2027.5469,182.6563 2027.7344,182.4375 C2027.8594,182.2656 2027.9063,182.0938 2027.9063,181.6563 L2027.9063,180.2969 C2027.9063,179.875 2027.8906,179.7344 2027.7656,179.5625 C2027.5938,179.3125 2027.3125,179.1563 2026.9844,179.1563 C2026.6719,179.1563 2026.4688,179.2656 2026.25,179.5313 C2025.0781,179.0313 2024.6406,178.9219 2023.6875,178.9219 C2021.0156,178.9219 2019,180.9375 2019,183.5625 L2019,184.6563 Z "/><text fill="#000000" font-family="sans-serif" font-size="12" font-style="italic" lengthAdjust="spacingAndGlyphs" textLength="98" x="2036" y="180.2001">«DatabaseTable»</text><text fill="#000000" font-family="sans-serif" font-size="14" font-weight="bold" lengthAdjust="spacingAndGlyphs" textLength="79" x="2045.5" y="196.2061">IntervalsDB</text></a><!--class it.matlice.ingsw.model.data.impl.jdbc.db.HierarchyDB--><a target="_parent" xlink:actuate="onRequest" xlink:href="../../../../../../../it/matlice/ingsw/model/data/impl/jdbc/db/HierarchyDB.html" xlink:show="new" xlink:title="it.matlice.ingsw.model.data.impl.jdbc.db.HierarchyDB" xlink:type="simple"><rect fill="#FEFECE" filter="url(#fstfidi)" height="43" style="stroke: #A80036; stroke-width: 1.5;" width="126" x="2170" y="162"/><ellipse cx="2185" cy="183.5" fill="#ADD1B2" rx="11" ry="11" style="stroke: #A80036; stroke-width: 1.0;"/><path d="M2180,184.6563 C2180,187.1563 2182.1406,188.9688 2185.0625,188.9688 C2186.2969,188.9688 2187.4688,188.6719 2188.2188,188.1563 C2188.8281,187.7344 2189.1563,187.3125 2189.1563,186.9063 C2189.1563,186.4375 2188.7344,186.0313 2188.2344,186.0313 C2188,186.0313 2187.7813,186.1094 2187.5781,186.3125 C2187.1406,186.75 2187.1406,186.75 2186.9688,186.8438 C2186.5156,187.0781 2185.875,187.2188 2185.1094,187.2188 C2183.1094,187.2188 2181.8281,186.2031 2181.8281,184.625 L2181.8281,183.5781 C2181.8281,181.875 2183.0469,180.6719 2184.75,180.6719 C2185.3281,180.6719 2185.9063,180.8125 2186.375,181.0625 C2186.8438,181.3281 2187.0156,181.5156 2187.0781,181.875 C2187.2031,182.5469 2187.4531,182.7969 2187.9844,182.7969 C2188.2656,182.7969 2188.5469,182.6563 2188.7344,182.4375 C2188.8594,182.2656 2188.9063,182.0938 2188.9063,181.6563 L2188.9063,180.2969 C2188.9063,179.875 2188.8906,179.7344 2188.7656,179.5625 C2188.5938,179.3125 2188.3125,179.1563 2187.9844,179.1563 C2187.6719,179.1563 2187.4688,179.2656 2187.25,179.5313 C2186.0781,179.0313 2185.6406,178.9219 2184.6875,178.9219 C2182.0156,178.9219 2180,180.9375 2180,183.5625 L2180,184.6563 Z "/><text fill="#000000" font-family="sans-serif" font-size="12" font-style="italic" lengthAdjust="spacingAndGlyphs" textLength="98" x="2197" y="180.2001">«DatabaseTable»</text><text fill="#000000" font-family="sans-serif" font-size="14" font-weight="bold" lengthAdjust="spacingAndGlyphs" textLength="85" x="2203.5" y="196.2061">HierarchyDB</text></a><!--class it.matlice.ingsw.model.data.impl.jdbc.db.DaysDB--><a target="_parent" xlink:actuate="onRequest" xlink:href="../../../../../../../it/matlice/ingsw/model/data/impl/jdbc/db/DaysDB.html" xlink:show="new" xlink:title="it.matlice.ingsw.model.data.impl.jdbc.db.DaysDB" xlink:type="simple"><rect fill="#FEFECE" filter="url(#fstfidi)" height="43" style="stroke: #A80036; stroke-width: 1.5;" width="126" x="1687" y="265"/><ellipse cx="1702" cy="286.5" fill="#ADD1B2" rx="11" ry="11" style="stroke: #A80036; stroke-width: 1.0;"/><path d="M1697,287.6563 C1697,290.1563 1699.1406,291.9688 1702.0625,291.9688 C1703.2969,291.9688 1704.4688,291.6719 1705.2188,291.1563 C1705.8281,290.7344 1706.1563,290.3125 1706.1563,289.9063 C1706.1563,289.4375 1705.7344,289.0313 1705.2344,289.0313 C1705,289.0313 1704.7813,289.1094 1704.5781,289.3125 C1704.1406,289.75 1704.1406,289.75 1703.9688,289.8438 C1703.5156,290.0781 1702.875,290.2188 1702.1094,290.2188 C1700.1094,290.2188 1698.8281,289.2031 1698.8281,287.625 L1698.8281,286.5781 C1698.8281,284.875 1700.0469,283.6719 1701.75,283.6719 C1702.3281,283.6719 1702.9063,283.8125 1703.375,284.0625 C1703.8438,284.3281 1704.0156,284.5156 1704.0781,284.875 C1704.2031,285.5469 1704.4531,285.7969 1704.9844,285.7969 C1705.2656,285.7969 1705.5469,285.6563 1705.7344,285.4375 C1705.8594,285.2656 1705.9063,285.0938 1705.9063,284.6563 L1705.9063,283.2969 C1705.9063,282.875 1705.8906,282.7344 1705.7656,282.5625 C1705.5938,282.3125 1705.3125,282.1563 1704.9844,282.1563 C1704.6719,282.1563 1704.4688,282.2656 1704.25,282.5313 C1703.0781,282.0313 1702.6406,281.9219 1701.6875,281.9219 C1699.0156,281.9219 1697,283.9375 1697,286.5625 L1697,287.6563 Z "/><text fill="#000000" font-family="sans-serif" font-size="12" font-style="italic" lengthAdjust="spacingAndGlyphs" textLength="98" x="1714" y="283.2001">«DatabaseTable»</text><text fill="#000000" font-family="sans-serif" font-size="14" font-weight="bold" lengthAdjust="spacingAndGlyphs" textLength="54" x="1736" y="299.2061">DaysDB</text></a><!--class it.matlice.ingsw.model.data.impl.jdbc.db.CategoryFieldDB--><a target="_parent" xlink:actuate="onRequest" xlink:href="../../../../../../../it/matlice/ingsw/model/data/impl/jdbc/db/CategoryFieldDB.html" xlink:show="new" xlink:title="it.matlice.ingsw.model.data.impl.jdbc.db.CategoryFieldDB" xlink:type="simple"><rect fill="#FEFECE" filter="url(#fstfidi)" height="43" style="stroke: #A80036; stroke-width: 1.5;" width="148" x="1848" y="265"/><ellipse cx="1863" cy="286.5" fill="#ADD1B2" rx="11" ry="11" style="stroke: #A80036; stroke-width: 1.0;"/><path d="M1858,287.6563 C1858,290.1563 1860.1406,291.9688 1863.0625,291.9688 C1864.2969,291.9688 1865.4688,291.6719 1866.2188,291.1563 C1866.8281,290.7344 1867.1563,290.3125 1867.1563,289.9063 C1867.1563,289.4375 1866.7344,289.0313 1866.2344,289.0313 C1866,289.0313 1865.7813,289.1094 1865.5781,289.3125 C1865.1406,289.75 1865.1406,289.75 1864.9688,289.8438 C1864.5156,290.0781 1863.875,290.2188 1863.1094,290.2188 C1861.1094,290.2188 1859.8281,289.2031 1859.8281,287.625 L1859.8281,286.5781 C1859.8281,284.875 1861.0469,283.6719 1862.75,283.6719 C1863.3281,283.6719 1863.9063,283.8125 1864.375,284.0625 C1864.8438,284.3281 1865.0156,284.5156 1865.0781,284.875 C1865.2031,285.5469 1865.4531,285.7969 1865.9844,285.7969 C1866.2656,285.7969 1866.5469,285.6563 1866.7344,285.4375 C1866.8594,285.2656 1866.9063,285.0938 1866.9063,284.6563 L1866.9063,283.2969 C1866.9063,282.875 1866.8906,282.7344 1866.7656,282.5625 C1866.5938,282.3125 1866.3125,282.1563 1865.9844,282.1563 C1865.6719,282.1563 1865.4688,282.2656 1865.25,282.5313 C1864.0781,282.0313 1863.6406,281.9219 1862.6875,281.9219 C1860.0156,281.9219 1858,283.9375 1858,286.5625 L1858,287.6563 Z "/><text fill="#000000" font-family="sans-serif" font-size="12" font-style="italic" lengthAdjust="spacingAndGlyphs" textLength="98" x="1886" y="283.2001">«DatabaseTable»</text><text fill="#000000" font-family="sans-serif" font-size="14" font-weight="bold" lengthAdjust="spacingAndGlyphs" textLength="116" x="1877" y="299.2061">CategoryFieldDB</text></a><!--class it.matlice.ingsw.model.data.impl.jdbc.db.CategoryDB--><a target="_parent" xlink:actuate="onRequest" xlink:href="../../../../../../../it/matlice/ingsw/model/data/impl/jdbc/db/CategoryDB.html" xlink:show="new" xlink:title="it.matlice.ingsw.model.data.impl.jdbc.db.CategoryDB" xlink:type="simple"><rect fill="#FEFECE" filter="url(#fstfidi)" height="43" style="stroke: #A80036; stroke-width: 1.5;" width="126" x="2031" y="265"/><ellipse cx="2046" cy="286.5" fill="#ADD1B2" rx="11" ry="11" style="stroke: #A80036; stroke-width: 1.0;"/><path d="M2041,287.6563 C2041,290.1563 2043.1406,291.9688 2046.0625,291.9688 C2047.2969,291.9688 2048.4688,291.6719 2049.2188,291.1563 C2049.8281,290.7344 2050.1563,290.3125 2050.1563,289.9063 C2050.1563,289.4375 2049.7344,289.0313 2049.2344,289.0313 C2049,289.0313 2048.7813,289.1094 2048.5781,289.3125 C2048.1406,289.75 2048.1406,289.75 2047.9688,289.8438 C2047.5156,290.0781 2046.875,290.2188 2046.1094,290.2188 C2044.1094,290.2188 2042.8281,289.2031 2042.8281,287.625 L2042.8281,286.5781 C2042.8281,284.875 2044.0469,283.6719 2045.75,283.6719 C2046.3281,283.6719 2046.9063,283.8125 2047.375,284.0625 C2047.8438,284.3281 2048.0156,284.5156 2048.0781,284.875 C2048.2031,285.5469 2048.4531,285.7969 2048.9844,285.7969 C2049.2656,285.7969 2049.5469,285.6563 2049.7344,285.4375 C2049.8594,285.2656 2049.9063,285.0938 2049.9063,284.6563 L2049.9063,283.2969 C2049.9063,282.875 2049.8906,282.7344 2049.7656,282.5625 C2049.5938,282.3125 2049.3125,282.1563 2048.9844,282.1563 C2048.6719,282.1563 2048.4688,282.2656 2048.25,282.5313 C2047.0781,282.0313 2046.6406,281.9219 2045.6875,281.9219 C2043.0156,281.9219 2041,283.9375 2041,286.5625 L2041,287.6563 Z "/><text fill="#000000" font-family="sans-serif" font-size="12" font-style="italic" lengthAdjust="spacingAndGlyphs" textLength="98" x="2058" y="283.2001">«DatabaseTable»</text><text fill="#000000" font-family="sans-serif" font-size="14" font-weight="bold" lengthAdjust="spacingAndGlyphs" textLength="82" x="2066" y="299.2061">CategoryDB</text></a><!--class it.matlice.ingsw.model.data.impl.jdbc.types.UserImpl--><a target="_parent" xlink:actuate="onRequest" xlink:href="../../../../../../../it/matlice/ingsw/model/data/impl/jdbc/types/UserImpl.html" xlink:show="new" xlink:title="it.matlice.ingsw.model.data.impl.jdbc.types.UserImpl" xlink:type="simple"><rect fill="#FEFECE" filter="url(#fstfidi)" height="32" style="stroke: #A80036; stroke-width: 1.5;" width="92" x="973" y="270.5"/><ellipse cx="988" cy="286.5" fill="#B4A7E5" rx="11" ry="11" style="stroke: #A80036; stroke-width: 1.0;"/><path d="M989.0156,283.6563 L990.6719,283.6563 C991.0625,283.6563 991.2656,283.625 991.4219,283.5469 C991.6875,283.375 991.8594,283.0781 991.8594,282.7813 C991.8594,282.5 991.7188,282.25 991.4844,282.0781 C991.2969,281.9531 991.1406,281.9063 990.6719,281.9063 L985.5313,281.9063 C985.0938,281.9063 984.9531,281.9219 984.7813,282.0313 C984.5156,282.2031 984.3438,282.4844 984.3438,282.7813 C984.3438,283.0625 984.4844,283.3438 984.7188,283.5 C984.9063,283.625 985.0938,283.6563 985.5313,283.6563 L987.1875,283.6563 L987.1875,289.75 L985.5313,289.75 C985.0938,289.75 984.9531,289.7656 984.7813,289.875 C984.5156,290.0313 984.3438,290.3281 984.3438,290.6094 C984.3438,291.2188 984.75,291.5 985.5313,291.5 L990.6719,291.5 C991.4531,291.5 991.8594,291.2188 991.8594,290.6094 C991.8594,290.3438 991.7188,290.0938 991.4844,289.9219 C991.2969,289.7813 991.125,289.75 990.6719,289.75 L989.0156,289.75 L989.0156,283.6563 Z "/><text fill="#000000" font-family="sans-serif" font-size="14" font-style="italic" font-weight="bold" lengthAdjust="spacingAndGlyphs" textLength="60" x="1002" y="292.45">UserImpl</text></a><!--class it.matlice.ingsw.model.data.impl.jdbc.types.SettingsImpl--><a target="_parent" xlink:actuate="onRequest" xlink:href="../../../../../../../it/matlice/ingsw/model/data/impl/jdbc/types/SettingsImpl.html" xlink:show="new" xlink:title="it.matlice.ingsw.model.data.impl.jdbc.types.SettingsImpl" xlink:type="simple"><rect fill="#FEFECE" filter="url(#fstfidi)" height="32" style="stroke: #A80036; stroke-width: 1.5;" width="118" x="1100" y="270.5"/><ellipse cx="1115" cy="286.5" fill="#ADD1B2" rx="11" ry="11" style="stroke: #A80036; stroke-width: 1.0;"/><path d="M1110,287.6563 C1110,290.1563 1112.1406,291.9688 1115.0625,291.9688 C1116.2969,291.9688 1117.4688,291.6719 1118.2188,291.1563 C1118.8281,290.7344 1119.1563,290.3125 1119.1563,289.9063 C1119.1563,289.4375 1118.7344,289.0313 1118.2344,289.0313 C1118,289.0313 1117.7813,289.1094 1117.5781,289.3125 C1117.1406,289.75 1117.1406,289.75 1116.9688,289.8438 C1116.5156,290.0781 1115.875,290.2188 1115.1094,290.2188 C1113.1094,290.2188 1111.8281,289.2031 1111.8281,287.625 L1111.8281,286.5781 C1111.8281,284.875 1113.0469,283.6719 1114.75,283.6719 C1115.3281,283.6719 1115.9063,283.8125 1116.375,284.0625 C1116.8438,284.3281 1117.0156,284.5156 1117.0781,284.875 C1117.2031,285.5469 1117.4531,285.7969 1117.9844,285.7969 C1118.2656,285.7969 1118.5469,285.6563 1118.7344,285.4375 C1118.8594,285.2656 1118.9063,285.0938 1118.9063,284.6563 L1118.9063,283.2969 C1118.9063,282.875 1118.8906,282.7344 1118.7656,282.5625 C1118.5938,282.3125 1118.3125,282.1563 1117.9844,282.1563 C1117.6719,282.1563 1117.4688,282.2656 1117.25,282.5313 C1116.0781,282.0313 1115.6406,281.9219 1114.6875,281.9219 C1112.0156,281.9219 1110,283.9375 1110,286.5625 L1110,287.6563 Z "/><text fill="#000000" font-family="sans-serif" font-size="14" font-weight="bold" lengthAdjust="spacingAndGlyphs" textLength="86" x="1129" y="291.106">SettingsImpl</text></a><!--class it.matlice.ingsw.model.data.impl.jdbc.types.OfferImpl--><a target="_parent" xlink:actuate="onRequest" xlink:href="../../../../../../../it/matlice/ingsw/model/data/impl/jdbc/types/OfferImpl.html" xlink:show="new" xlink:title="it.matlice.ingsw.model.data.impl.jdbc.types.OfferImpl" xlink:type="simple"><rect fill="#FEFECE" filter="url(#fstfidi)" height="32" style="stroke: #A80036; stroke-width: 1.5;" width="95" x="1253.5" y="270.5"/><ellipse cx="1268.5" cy="286.5" fill="#ADD1B2" rx="11" ry="11" style="stroke: #A80036; stroke-width: 1.0;"/><path d="M1263.5,287.6563 C1263.5,290.1563 1265.6406,291.9688 1268.5625,291.9688 C1269.7969,291.9688 1270.9688,291.6719 1271.7188,291.1563 C1272.3281,290.7344 1272.6563,290.3125 1272.6563,289.9063 C1272.6563,289.4375 1272.2344,289.0313 1271.7344,289.0313 C1271.5,289.0313 1271.2813,289.1094 1271.0781,289.3125 C1270.6406,289.75 1270.6406,289.75 1270.4688,289.8438 C1270.0156,290.0781 1269.375,290.2188 1268.6094,290.2188 C1266.6094,290.2188 1265.3281,289.2031 1265.3281,287.625 L1265.3281,286.5781 C1265.3281,284.875 1266.5469,283.6719 1268.25,283.6719 C1268.8281,283.6719 1269.4063,283.8125 1269.875,284.0625 C1270.3438,284.3281 1270.5156,284.5156 1270.5781,284.875 C1270.7031,285.5469 1270.9531,285.7969 1271.4844,285.7969 C1271.7656,285.7969 1272.0469,285.6563 1272.2344,285.4375 C1272.3594,285.2656 1272.4063,285.0938 1272.4063,284.6563 L1272.4063,283.2969 C1272.4063,282.875 1272.3906,282.7344 1272.2656,282.5625 C1272.0938,282.3125 1271.8125,282.1563 1271.4844,282.1563 C1271.1719,282.1563 1270.9688,282.2656 1270.75,282.5313 C1269.5781,282.0313 1269.1406,281.9219 1268.1875,281.9219 C1265.5156,281.9219 1263.5,283.9375 1263.5,286.5625 L1263.5,287.6563 Z "/><text fill="#000000" font-family="sans-serif" font-size="14" font-weight="bold" lengthAdjust="spacingAndGlyphs" textLength="63" x="1282.5" y="291.106">OfferImpl</text></a><!--class it.matlice.ingsw.model.data.impl.jdbc.types.NodeCategoryImpl--><a target="_parent" xlink:actuate="onRequest" xlink:href="../../../../../../../it/matlice/ingsw/model/data/impl/jdbc/types/NodeCategoryImpl.html" xlink:show="new" xlink:title="it.matlice.ingsw.model.data.impl.jdbc.types.NodeCategoryImpl" xlink:type="simple"><rect fill="#FEFECE" filter="url(#fstfidi)" height="32" style="stroke: #A80036; stroke-width: 1.5;" width="159" x="1383.5" y="270.5"/><ellipse cx="1398.5" cy="286.5" fill="#ADD1B2" rx="11" ry="11" style="stroke: #A80036; stroke-width: 1.0;"/><path d="M1393.5,287.6563 C1393.5,290.1563 1395.6406,291.9688 1398.5625,291.9688 C1399.7969,291.9688 1400.9688,291.6719 1401.7188,291.1563 C1402.3281,290.7344 1402.6563,290.3125 1402.6563,289.9063 C1402.6563,289.4375 1402.2344,289.0313 1401.7344,289.0313 C1401.5,289.0313 1401.2813,289.1094 1401.0781,289.3125 C1400.6406,289.75 1400.6406,289.75 1400.4688,289.8438 C1400.0156,290.0781 1399.375,290.2188 1398.6094,290.2188 C1396.6094,290.2188 1395.3281,289.2031 1395.3281,287.625 L1395.3281,286.5781 C1395.3281,284.875 1396.5469,283.6719 1398.25,283.6719 C1398.8281,283.6719 1399.4063,283.8125 1399.875,284.0625 C1400.3438,284.3281 1400.5156,284.5156 1400.5781,284.875 C1400.7031,285.5469 1400.9531,285.7969 1401.4844,285.7969 C1401.7656,285.7969 1402.0469,285.6563 1402.2344,285.4375 C1402.3594,285.2656 1402.4063,285.0938 1402.4063,284.6563 L1402.4063,283.2969 C1402.4063,282.875 1402.3906,282.7344 1402.2656,282.5625 C1402.0938,282.3125 1401.8125,282.1563 1401.4844,282.1563 C1401.1719,282.1563 1400.9688,282.2656 1400.75,282.5313 C1399.5781,282.0313 1399.1406,281.9219 1398.1875,281.9219 C1395.5156,281.9219 1393.5,283.9375 1393.5,286.5625 L1393.5,287.6563 Z "/><text fill="#000000" font-family="sans-serif" font-size="14" font-weight="bold" lengthAdjust="spacingAndGlyphs" textLength="127" x="1412.5" y="291.106">NodeCategoryImpl</text></a><!--class it.matlice.ingsw.model.data.impl.jdbc.types.MessageImpl--><a target="_parent" xlink:actuate="onRequest" xlink:href="../../../../../../../it/matlice/ingsw/model/data/impl/jdbc/types/MessageImpl.html" xlink:show="new" xlink:title="it.matlice.ingsw.model.data.impl.jdbc.types.MessageImpl" xlink:type="simple"><rect fill="#FEFECE" filter="url(#fstfidi)" height="32" style="stroke: #A80036; stroke-width: 1.5;" width="122" x="966" y="368"/><ellipse cx="981" cy="384" fill="#ADD1B2" rx="11" ry="11" style="stroke: #A80036; stroke-width: 1.0;"/><path d="M976,385.1563 C976,387.6563 978.1406,389.4688 981.0625,389.4688 C982.2969,389.4688 983.4688,389.1719 984.2188,388.6563 C984.8281,388.2344 985.1563,387.8125 985.1563,387.4063 C985.1563,386.9375 984.7344,386.5313 984.2344,386.5313 C984,386.5313 983.7813,386.6094 983.5781,386.8125 C983.1406,387.25 983.1406,387.25 982.9688,387.3438 C982.5156,387.5781 981.875,387.7188 981.1094,387.7188 C979.1094,387.7188 977.8281,386.7031 977.8281,385.125 L977.8281,384.0781 C977.8281,382.375 979.0469,381.1719 980.75,381.1719 C981.3281,381.1719 981.9063,381.3125 982.375,381.5625 C982.8438,381.8281 983.0156,382.0156 983.0781,382.375 C983.2031,383.0469 983.4531,383.2969 983.9844,383.2969 C984.2656,383.2969 984.5469,383.1563 984.7344,382.9375 C984.8594,382.7656 984.9063,382.5938 984.9063,382.1563 L984.9063,380.7969 C984.9063,380.375 984.8906,380.2344 984.7656,380.0625 C984.5938,379.8125 984.3125,379.6563 983.9844,379.6563 C983.6719,379.6563 983.4688,379.7656 983.25,380.0313 C982.0781,379.5313 981.6406,379.4219 980.6875,379.4219 C978.0156,379.4219 976,381.4375 976,384.0625 L976,385.1563 Z "/><text fill="#000000" font-family="sans-serif" font-size="14" font-weight="bold" lengthAdjust="spacingAndGlyphs" textLength="90" x="995" y="388.606">MessageImpl</text></a><!--class it.matlice.ingsw.model.data.impl.jdbc.types.LeafCategoryImpl--><a target="_parent" xlink:actuate="onRequest" xlink:href="../../../../../../../it/matlice/ingsw/model/data/impl/jdbc/types/LeafCategoryImpl.html" xlink:show="new" xlink:title="it.matlice.ingsw.model.data.impl.jdbc.types.LeafCategoryImpl" xlink:type="simple"><rect fill="#FEFECE" filter="url(#fstfidi)" height="32" style="stroke: #A80036; stroke-width: 1.5;" width="153" x="1123.5" y="368"/><ellipse cx="1138.5" cy="384" fill="#ADD1B2" rx="11" ry="11" style="stroke: #A80036; stroke-width: 1.0;"/><path d="M1133.5,385.1563 C1133.5,387.6563 1135.6406,389.4688 1138.5625,389.4688 C1139.7969,389.4688 1140.9688,389.1719 1141.7188,388.6563 C1142.3281,388.2344 1142.6563,387.8125 1142.6563,387.4063 C1142.6563,386.9375 1142.2344,386.5313 1141.7344,386.5313 C1141.5,386.5313 1141.2813,386.6094 1141.0781,386.8125 C1140.6406,387.25 1140.6406,387.25 1140.4688,387.3438 C1140.0156,387.5781 1139.375,387.7188 1138.6094,387.7188 C1136.6094,387.7188 1135.3281,386.7031 1135.3281,385.125 L1135.3281,384.0781 C1135.3281,382.375 1136.5469,381.1719 1138.25,381.1719 C1138.8281,381.1719 1139.4063,381.3125 1139.875,381.5625 C1140.3438,381.8281 1140.5156,382.0156 1140.5781,382.375 C1140.7031,383.0469 1140.9531,383.2969 1141.4844,383.2969 C1141.7656,383.2969 1142.0469,383.1563 1142.2344,382.9375 C1142.3594,382.7656 1142.4063,382.5938 1142.4063,382.1563 L1142.4063,380.7969 C1142.4063,380.375 1142.3906,380.2344 1142.2656,380.0625 C1142.0938,379.8125 1141.8125,379.6563 1141.4844,379.6563 C1141.1719,379.6563 1140.9688,379.7656 1140.75,380.0313 C1139.5781,379.5313 1139.1406,379.4219 1138.1875,379.4219 C1135.5156,379.4219 1133.5,381.4375 1133.5,384.0625 L1133.5,385.1563 Z "/><text fill="#000000" font-family="sans-serif" font-size="14" font-weight="bold" lengthAdjust="spacingAndGlyphs" textLength="121" x="1152.5" y="388.606">LeafCategoryImpl</text></a><!--class it.matlice.ingsw.model.data.impl.jdbc.types.HierarchyImpl--><a target="_parent" xlink:actuate="onRequest" xlink:href="../../../../../../../it/matlice/ingsw/model/data/impl/jdbc/types/HierarchyImpl.html" xlink:show="new" xlink:title="it.matlice.ingsw.model.data.impl.jdbc.types.HierarchyImpl" xlink:type="simple"><rect fill="#FEFECE" filter="url(#fstfidi)" height="32" style="stroke: #A80036; stroke-width: 1.5;" width="126" x="1312" y="368"/><ellipse cx="1327" cy="384" fill="#ADD1B2" rx="11" ry="11" style="stroke: #A80036; stroke-width: 1.0;"/><path d="M1322,385.1563 C1322,387.6563 1324.1406,389.4688 1327.0625,389.4688 C1328.2969,389.4688 1329.4688,389.1719 1330.2188,388.6563 C1330.8281,388.2344 1331.1563,387.8125 1331.1563,387.4063 C1331.1563,386.9375 1330.7344,386.5313 1330.2344,386.5313 C1330,386.5313 1329.7813,386.6094 1329.5781,386.8125 C1329.1406,387.25 1329.1406,387.25 1328.9688,387.3438 C1328.5156,387.5781 1327.875,387.7188 1327.1094,387.7188 C1325.1094,387.7188 1323.8281,386.7031 1323.8281,385.125 L1323.8281,384.0781 C1323.8281,382.375 1325.0469,381.1719 1326.75,381.1719 C1327.3281,381.1719 1327.9063,381.3125 1328.375,381.5625 C1328.8438,381.8281 1329.0156,382.0156 1329.0781,382.375 C1329.2031,383.0469 1329.4531,383.2969 1329.9844,383.2969 C1330.2656,383.2969 1330.5469,383.1563 1330.7344,382.9375 C1330.8594,382.7656 1330.9063,382.5938 1330.9063,382.1563 L1330.9063,380.7969 C1330.9063,380.375 1330.8906,380.2344 1330.7656,380.0625 C1330.5938,379.8125 1330.3125,379.6563 1329.9844,379.6563 C1329.6719,379.6563 1329.4688,379.7656 1329.25,380.0313 C1328.0781,379.5313 1327.6406,379.4219 1326.6875,379.4219 C1324.0156,379.4219 1322,381.4375 1322,384.0625 L1322,385.1563 Z "/><text fill="#000000" font-family="sans-serif" font-size="14" font-weight="bold" lengthAdjust="spacingAndGlyphs" textLength="94" x="1341" y="388.606">HierarchyImpl</text></a><!--class it.matlice.ingsw.model.data.impl.jdbc.types.CustomerUserImpl--><a target="_parent" xlink:actuate="onRequest" xlink:href="../../../../../../../it/matlice/ingsw/model/data/impl/jdbc/types/CustomerUserImpl.html" xlink:show="new" xlink:title="it.matlice.ingsw.model.data.impl.jdbc.types.CustomerUserImpl" xlink:type="simple"><rect fill="#FEFECE" filter="url(#fstfidi)" height="32" style="stroke: #A80036; stroke-width: 1.5;" width="158" x="1473" y="368"/><ellipse cx="1488" cy="384" fill="#ADD1B2" rx="11" ry="11" style="stroke: #A80036; stroke-width: 1.0;"/><path d="M1483,385.1563 C1483,387.6563 1485.1406,389.4688 1488.0625,389.4688 C1489.2969,389.4688 1490.4688,389.1719 1491.2188,388.6563 C1491.8281,388.2344 1492.1563,387.8125 1492.1563,387.4063 C1492.1563,386.9375 1491.7344,386.5313 1491.2344,386.5313 C1491,386.5313 1490.7813,386.6094 1490.5781,386.8125 C1490.1406,387.25 1490.1406,387.25 1489.9688,387.3438 C1489.5156,387.5781 1488.875,387.7188 1488.1094,387.7188 C1486.1094,387.7188 1484.8281,386.7031 1484.8281,385.125 L1484.8281,384.0781 C1484.8281,382.375 1486.0469,381.1719 1487.75,381.1719 C1488.3281,381.1719 1488.9063,381.3125 1489.375,381.5625 C1489.8438,381.8281 1490.0156,382.0156 1490.0781,382.375 C1490.2031,383.0469 1490.4531,383.2969 1490.9844,383.2969 C1491.2656,383.2969 1491.5469,383.1563 1491.7344,382.9375 C1491.8594,382.7656 1491.9063,382.5938 1491.9063,382.1563 L1491.9063,380.7969 C1491.9063,380.375 1491.8906,380.2344 1491.7656,380.0625 C1491.5938,379.8125 1491.3125,379.6563 1490.9844,379.6563 C1490.6719,379.6563 1490.4688,379.7656 1490.25,380.0313 C1489.0781,379.5313 1488.6406,379.4219 1487.6875,379.4219 C1485.0156,379.4219 1483,381.4375 1483,384.0625 L1483,385.1563 Z "/><text fill="#000000" font-family="sans-serif" font-size="14" font-weight="bold" lengthAdjust="spacingAndGlyphs" textLength="126" x="1502" y="388.606">CustomerUserImpl</text></a><!--class it.matlice.ingsw.model.data.impl.jdbc.types.ConfiguratorUserImpl--><a target="_parent" xlink:actuate="onRequest" xlink:href="../../../../../../../it/matlice/ingsw/model/data/impl/jdbc/types/ConfiguratorUserImpl.html" xlink:show="new" xlink:title="it.matlice.ingsw.model.data.impl.jdbc.types.ConfiguratorUserImpl" xlink:type="simple"><rect fill="#FEFECE" filter="url(#fstfidi)" height="32" style="stroke: #A80036; stroke-width: 1.5;" width="179" x="966.5" y="460"/><ellipse cx="981.5" cy="476" fill="#ADD1B2" rx="11" ry="11" style="stroke: #A80036; stroke-width: 1.0;"/><path d="M976.5,477.1563 C976.5,479.6563 978.6406,481.4688 981.5625,481.4688 C982.7969,481.4688 983.9688,481.1719 984.7188,480.6563 C985.3281,480.2344 985.6563,479.8125 985.6563,479.4063 C985.6563,478.9375 985.2344,478.5313 984.7344,478.5313 C984.5,478.5313 984.2813,478.6094 984.0781,478.8125 C983.6406,479.25 983.6406,479.25 983.4688,479.3438 C983.0156,479.5781 982.375,479.7188 981.6094,479.7188 C979.6094,479.7188 978.3281,478.7031 978.3281,477.125 L978.3281,476.0781 C978.3281,474.375 979.5469,473.1719 981.25,473.1719 C981.8281,473.1719 982.4063,473.3125 982.875,473.5625 C983.3438,473.8281 983.5156,474.0156 983.5781,474.375 C983.7031,475.0469 983.9531,475.2969 984.4844,475.2969 C984.7656,475.2969 985.0469,475.1563 985.2344,474.9375 C985.3594,474.7656 985.4063,474.5938 985.4063,474.1563 L985.4063,472.7969 C985.4063,472.375 985.3906,472.2344 985.2656,472.0625 C985.0938,471.8125 984.8125,471.6563 984.4844,471.6563 C984.1719,471.6563 983.9688,471.7656 983.75,472.0313 C982.5781,471.5313 982.1406,471.4219 981.1875,471.4219 C978.5156,471.4219 976.5,473.4375 976.5,476.0625 L976.5,477.1563 Z "/><text fill="#000000" font-family="sans-serif" font-size="14" font-weight="bold" lengthAdjust="spacingAndGlyphs" textLength="147" x="995.5" y="480.606">ConfiguratorUserImpl</text></a><!--class it.matlice.ingsw.model.data.impl.jdbc.types.CategoryImpl--><a target="_parent" xlink:actuate="onRequest" xlink:href="../../../../../../../it/matlice/ingsw/model/data/impl/jdbc/types/CategoryImpl.html" xlink:show="new" xlink:title="it.matlice.ingsw.model.data.impl.jdbc.types.CategoryImpl" xlink:type="simple"><rect fill="#FEFECE" filter="url(#fstfidi)" height="32" style="stroke: #A80036; stroke-width: 1.5;" width="123" x="1180.5" y="460"/><ellipse cx="1195.5" cy="476" fill="#B4A7E5" rx="11" ry="11" style="stroke: #A80036; stroke-width: 1.0;"/><path d="M1196.5156,473.1563 L1198.1719,473.1563 C1198.5625,473.1563 1198.7656,473.125 1198.9219,473.0469 C1199.1875,472.875 1199.3594,472.5781 1199.3594,472.2813 C1199.3594,472 1199.2188,471.75 1198.9844,471.5781 C1198.7969,471.4531 1198.6406,471.4063 1198.1719,471.4063 L1193.0313,471.4063 C1192.5938,471.4063 1192.4531,471.4219 1192.2813,471.5313 C1192.0156,471.7031 1191.8438,471.9844 1191.8438,472.2813 C1191.8438,472.5625 1191.9844,472.8438 1192.2188,473 C1192.4063,473.125 1192.5938,473.1563 1193.0313,473.1563 L1194.6875,473.1563 L1194.6875,479.25 L1193.0313,479.25 C1192.5938,479.25 1192.4531,479.2656 1192.2813,479.375 C1192.0156,479.5313 1191.8438,479.8281 1191.8438,480.1094 C1191.8438,480.7188 1192.25,481 1193.0313,481 L1198.1719,481 C1198.9531,481 1199.3594,480.7188 1199.3594,480.1094 C1199.3594,479.8438 1199.2188,479.5938 1198.9844,479.4219 C1198.7969,479.2813 1198.625,479.25 1198.1719,479.25 L1196.5156,479.25 L1196.5156,473.1563 Z "/><text fill="#000000" font-family="sans-serif" font-size="14" font-style="italic" font-weight="bold" lengthAdjust="spacingAndGlyphs" textLength="91" x="1209.5" y="481.95">CategoryImpl</text></a><path d="M256.75,96.59 C256.75,96.59 256.75,162.18 256.75,162.18 " fill="none" style="stroke: #A80036; stroke-width: 1.0; stroke-dasharray: 7.0,7.0;"/><polygon fill="#A80036" points="256.75,167.18,260.75,158.18,256.75,162.18,252.75,158.18,256.75,167.18" style="stroke: #A80036; stroke-width: 1.0;"/><path d="M148,199.59 C148,199.59 148,265.18 148,265.18 " fill="none" style="stroke: #A80036; stroke-width: 1.0;"/><polygon fill="#A80036" points="148,270.18,152,261.18,148,265.18,144,261.18,148,270.18" style="stroke: #A80036; stroke-width: 1.0;"/><text fill="#000000" font-family="sans-serif" font-size="13" lengthAdjust="spacingAndGlyphs" textLength="46" x="93.8063" y="258.878">settings</text><path d="M276.72,184 C288.8,184 296.75,184 296.75,184 C296.75,184 296.75,265.48 296.75,265.48 " fill="none" style="stroke: #A80036; stroke-width: 1.0;"/><polygon fill="#A80036" points="296.75,270.48,300.75,261.48,296.75,265.48,292.75,261.48,296.75,270.48" style="stroke: #A80036; stroke-width: 1.0;"/><text fill="#000000" font-family="sans-serif" font-size="13" lengthAdjust="spacingAndGlyphs" textLength="72" x="247.6447" y="258.969">hierarchies *</text><path d="M384,400.03 C384,400.03 384,454.85 384,454.85 " fill="none" style="stroke: #A80036; stroke-width: 1.0;"/><polygon fill="#A80036" points="384,459.85,388,450.85,384,454.85,380,450.85,384,459.85" style="stroke: #A80036; stroke-width: 1.0;"/><text fill="#000000" font-family="sans-serif" font-size="13" lengthAdjust="spacingAndGlyphs" textLength="40" x="336.875" y="448.6086">fields *</text><path d="M417.67,367.91 C417.67,354.65 417.67,338 417.67,338 C417.67,338 509.5,338 509.5,338 C509.5,338 509.5,430 509.5,430 C509.5,430 478,430 478,430 C478,430 478,405.09 478,405.09 " fill="none" style="stroke: #A80036; stroke-width: 1.0;"/><polygon fill="#A80036" points="478,400.09,474,409.09,478,405.09,482,409.09,478,400.09" style="stroke: #A80036; stroke-width: 1.0;"/><text fill="#000000" font-family="sans-serif" font-size="13" lengthAdjust="spacingAndGlyphs" textLength="69" x="428.7094" y="420.0806">categories *</text><path d="M350.33,302.6 C350.33,302.6 350.33,362.88 350.33,362.88 " fill="none" style="stroke: #A80036; stroke-width: 1.0;"/><polygon fill="#A80036" points="350.33,367.88,354.33,358.88,350.33,362.88,346.33,358.88,350.33,367.88" style="stroke: #A80036; stroke-width: 1.0;"/><text fill="#000000" font-family="sans-serif" font-size="13" lengthAdjust="spacingAndGlyphs" textLength="22" x="311.8579" y="356.3578">root</text><path d="M111,64.43 C111,53.5 111,41 111,41 C111,41 20,41 20,41 C20,41 20,132 20,132 C20,132 112.75,132 112.75,132 C112.75,132 112.75,101.51 112.75,101.51 " fill="none" style="stroke: #A80036; stroke-width: 1.0;"/><polygon fill="#A80036" points="112.75,96.51,108.75,105.51,112.75,101.51,116.75,105.51,112.75,96.51" style="stroke: #A80036; stroke-width: 1.0;"/><text fill="#000000" font-family="sans-serif" font-size="13" lengthAdjust="spacingAndGlyphs" textLength="49" x="56.2141" y="116.4741">instance</text></g></svg>