<?xml version="1.0" encoding="UTF-8" standalone="no"?><svg xmlns="http://www.w3.org/2000/svg" xmlns:xlink="http://www.w3.org/1999/xlink" contentScriptType="application/ecmascript" contentStyleType="text/css" height="451px" preserveAspectRatio="none" style="width:786px;height:451px;" version="1.1" viewBox="0 0 786 451" width="786px" zoomAndPan="magnify"><defs><filter height="300%" id="fnttlwm" width="300%" x="-1" y="-1"><feGaussianBlur result="blurOut" stdDeviation="2.0"/><feColorMatrix in="blurOut" result="blurOut2" type="matrix" values="0 0 0 0 0 0 0 0 0 0 0 0 0 0 0 0 0 0 .4 0"/><feOffset dx="4.0" dy="4.0" in="blurOut2" result="blurOut3"/><feBlend in="SourceGraphic" in2="blurOut3" mode="normal"/></filter></defs><g><!--class it.matlice.ingsw.model.data.impl.jdbc.SettingsFactoryImpl--><a target="_parent" xlink:actuate="onRequest" xlink:href="../../../../../../../it/matlice/ingsw/model/data/impl/jdbc/SettingsFactoryImpl.html" xlink:show="new" xlink:title="it.matlice.ingsw.model.data.impl.jdbc.SettingsFactoryImpl" xlink:type="simple"><rect fill="#FEFECE" filter="url(#fnttlwm)" height="331.9978" style="stroke: #A80036; stroke-width: 1.5;" width="522" x="151" y="8"/><ellipse cx="324.25" cy="27.4" fill="#ADD1B2" rx="11" ry="11" style="stroke: #A80036; stroke-width: 1.0;"/><path d="M319.25,28.5562 C319.25,31.0562 321.3906,32.8687 324.3125,32.8687 C325.5469,32.8687 326.7188,32.5718 327.4688,32.0562 C328.0781,31.6343 328.4063,31.2125 328.4063,30.8062 C328.4063,30.3375 327.9844,29.9312 327.4844,29.9312 C327.25,29.9312 327.0313,30.0093 326.8281,30.2125 C326.3906,30.65 326.3906,30.65 326.2188,30.7437 C325.7656,30.9781 325.125,31.1187 324.3594,31.1187 C322.3594,31.1187 321.0781,30.1031 321.0781,28.525 L321.0781,27.4781 C321.0781,25.775 322.2969,24.5718 324,24.5718 C324.5781,24.5718 325.1563,24.7125 325.625,24.9625 C326.0938,25.2281 326.2656,25.4156 326.3281,25.775 C326.4531,26.4468 326.7031,26.6968 327.2344,26.6968 C327.5156,26.6968 327.7969,26.5562 327.9844,26.3375 C328.1094,26.1656 328.1563,25.9937 328.1563,25.5562 L328.1563,24.1968 C328.1563,23.775 328.1406,23.6343 328.0156,23.4625 C327.8438,23.2125 327.5625,23.0562 327.2344,23.0562 C326.9219,23.0562 326.7188,23.1656 326.5,23.4312 C325.3281,22.9312 324.8906,22.8218 323.9375,22.8218 C321.2656,22.8218 319.25,24.8375 319.25,27.4625 L319.25,28.5562 Z "/><text fill="#000000" font-family="sans-serif" font-size="14" font-weight="bold" lengthAdjust="spacingAndGlyphs" textLength="138" x="359.25" y="26.0059">SettingsFactoryImpl</text><text fill="#000000" font-family="sans-serif" font-size="10" lengthAdjust="spacingAndGlyphs" textLength="167" x="344.75" y="39.0899">it.matlice.ingsw.model.data.impl.jdbc</text><line style="stroke: #A80036; stroke-width: 1.5;" x1="152" x2="672" y1="46.7999" y2="46.7999"/><rect fill="none" height="6" style="stroke: #C82930; stroke-width: 1.0;" width="6" x="159" y="55.8999"/><text fill="#000000" font-family="sans-serif" font-size="11" lengthAdjust="spacingAndGlyphs" textLength="95" x="171" y="61.0188">&lt;any&gt; settingsDAO</text><rect fill="none" height="6" style="stroke: #C82930; stroke-width: 1.0;" width="6" x="159" y="69.0998"/><text fill="#000000" font-family="sans-serif" font-size="11" lengthAdjust="spacingAndGlyphs" textLength="100" x="171" y="74.2187">&lt;any&gt; locationsDAO</text><rect fill="none" height="6" style="stroke: #C82930; stroke-width: 1.0;" width="6" x="159" y="82.2997"/><text fill="#000000" font-family="sans-serif" font-size="11" lengthAdjust="spacingAndGlyphs" textLength="81" x="171" y="87.4186">&lt;any&gt; daysDAO</text><rect fill="none" height="6" style="stroke: #C82930; stroke-width: 1.0;" width="6" x="159" y="95.4996"/><text fill="#000000" font-family="sans-serif" font-size="11" lengthAdjust="spacingAndGlyphs" textLength="98" x="171" y="100.6185">&lt;any&gt; intervalsDAO</text><line style="stroke: #A80036; stroke-width: 1.5;" x1="152" x2="672" y1="107.5995" y2="107.5995"/><ellipse cx="162" cy="119.6995" fill="#84BE84" rx="3" ry="3" style="stroke: #038048; stroke-width: 1.0;"/><text fill="#000000" font-family="sans-serif" font-size="11" lengthAdjust="spacingAndGlyphs" textLength="105" x="171" y="121.8184">SettingsFactoryImpl()</text><ellipse cx="162" cy="132.8994" fill="#84BE84" rx="3" ry="3" style="stroke: #038048; stroke-width: 1.0;"/><text fill="#000000" font-family="sans-serif" font-size="11" lengthAdjust="spacingAndGlyphs" textLength="111" x="171" y="135.0183">Settings readSettings()</text><ellipse cx="162" cy="146.0993" fill="#84BE84" rx="3" ry="3" style="stroke: #038048; stroke-width: 1.0;"/><text fill="#000000" font-family="sans-serif" font-size="11" lengthAdjust="spacingAndGlyphs" textLength="496" x="171" y="148.2182">Settings makeSettings(String city,int due,List&lt;String&gt; locations,List&lt;Day&gt; days,List&lt;Interval&gt; intervals)</text><ellipse cx="162" cy="159.2992" fill="#84BE84" rx="3" ry="3" style="stroke: #038048; stroke-width: 1.0;"/><text fill="#000000" font-family="sans-serif" font-size="11" lengthAdjust="spacingAndGlyphs" textLength="155" x="171" y="161.4182">void setDue(Settings db,int due)</text><ellipse cx="162" cy="172.4991" fill="#84BE84" rx="3" ry="3" style="stroke: #038048; stroke-width: 1.0;"/><text fill="#000000" font-family="sans-serif" font-size="11" lengthAdjust="spacingAndGlyphs" textLength="180" x="171" y="174.6181">void addLocation(Settings db,String l)</text><ellipse cx="162" cy="185.699" fill="#84BE84" rx="3" ry="3" style="stroke: #038048; stroke-width: 1.0;"/><text fill="#000000" font-family="sans-serif" font-size="11" lengthAdjust="spacingAndGlyphs" textLength="197" x="171" y="187.818">void addDay(Settings db,Settings.Day d)</text><ellipse cx="162" cy="198.8989" fill="#84BE84" rx="3" ry="3" style="stroke: #038048; stroke-width: 1.0;"/><text fill="#000000" font-family="sans-serif" font-size="11" lengthAdjust="spacingAndGlyphs" textLength="183" x="171" y="201.0179">void addInterval(Settings db,Interval i)</text><ellipse cx="162" cy="212.0988" fill="#84BE84" rx="3" ry="3" style="stroke: #038048; stroke-width: 1.0;"/><text fill="#000000" font-family="sans-serif" font-size="11" lengthAdjust="spacingAndGlyphs" textLength="169" x="171" y="214.2178">void removeLocations(Settings db)</text><ellipse cx="162" cy="225.2987" fill="#84BE84" rx="3" ry="3" style="stroke: #038048; stroke-width: 1.0;"/><text fill="#000000" font-family="sans-serif" font-size="11" lengthAdjust="spacingAndGlyphs" textLength="148" x="171" y="227.4177">void removeDays(Settings db)</text><ellipse cx="162" cy="238.4986" fill="#84BE84" rx="3" ry="3" style="stroke: #038048; stroke-width: 1.0;"/><text fill="#000000" font-family="sans-serif" font-size="11" lengthAdjust="spacingAndGlyphs" textLength="164" x="171" y="240.6176">void removeIntervals(Settings db)</text><rect fill="#F24D5C" height="6" style="stroke: #C82930; stroke-width: 1.0;" width="6" x="159" y="248.6985"/><text fill="#000000" font-family="sans-serif" font-size="11" lengthAdjust="spacingAndGlyphs" textLength="170" x="171" y="253.8175">void setDue(SettingsDB db,int due)</text><rect fill="#F24D5C" height="6" style="stroke: #C82930; stroke-width: 1.0;" width="6" x="159" y="261.8984"/><text fill="#000000" font-family="sans-serif" font-size="11" lengthAdjust="spacingAndGlyphs" textLength="195" x="171" y="267.0174">void addLocation(SettingsDB db,String l)</text><rect fill="#F24D5C" height="6" style="stroke: #C82930; stroke-width: 1.0;" width="6" x="159" y="275.0983"/><text fill="#000000" font-family="sans-serif" font-size="11" lengthAdjust="spacingAndGlyphs" textLength="212" x="171" y="280.2173">void addDay(SettingsDB db,Settings.Day d)</text><rect fill="#F24D5C" height="6" style="stroke: #C82930; stroke-width: 1.0;" width="6" x="159" y="288.2982"/><text fill="#000000" font-family="sans-serif" font-size="11" lengthAdjust="spacingAndGlyphs" textLength="198" x="171" y="293.4172">void addInterval(SettingsDB db,Interval i)</text><rect fill="#F24D5C" height="6" style="stroke: #C82930; stroke-width: 1.0;" width="6" x="159" y="301.4981"/><text fill="#000000" font-family="sans-serif" font-size="11" lengthAdjust="spacingAndGlyphs" textLength="184" x="171" y="306.6171">void removeLocations(SettingsDB db)</text><rect fill="#F24D5C" height="6" style="stroke: #C82930; stroke-width: 1.0;" width="6" x="159" y="314.698"/><text fill="#000000" font-family="sans-serif" font-size="11" lengthAdjust="spacingAndGlyphs" textLength="163" x="171" y="319.817">void removeDays(SettingsDB db)</text><rect fill="#F24D5C" height="6" style="stroke: #C82930; stroke-width: 1.0;" width="6" x="159" y="327.8979"/><text fill="#000000" font-family="sans-serif" font-size="11" lengthAdjust="spacingAndGlyphs" textLength="179" x="171" y="333.0169">void removeIntervals(SettingsDB db)</text></a><!--class it.matlice.ingsw.model.data.factories.SettingsFactory--><a target="_parent" xlink:actuate="onRequest" xlink:href="../../../../../../../it/matlice/ingsw/model/data/factories/SettingsFactory.html" xlink:show="new" xlink:title="it.matlice.ingsw.model.data.factories.SettingsFactory" xlink:type="simple"><rect fill="#FFFFFF" filter="url(#fnttlwm)" height="42.3999" style="stroke: #A80036; stroke-width: 1.5;" width="198" x="6" y="400"/><rect fill="#FFFFFF" height="42.3999" style="stroke: #A80036; stroke-width: 1.5;" width="198" x="6" y="400"/><ellipse cx="21" cy="421.2" fill="#B4A7E5" rx="11" ry="11" style="stroke: #A80036; stroke-width: 1.0;"/><path d="M22.0156,418.3562 L23.6719,418.3562 C24.0625,418.3562 24.2656,418.325 24.4219,418.2468 C24.6875,418.075 24.8594,417.7781 24.8594,417.4812 C24.8594,417.2 24.7188,416.95 24.4844,416.7781 C24.2969,416.6531 24.1406,416.6062 23.6719,416.6062 L18.5313,416.6062 C18.0938,416.6062 17.9531,416.6218 17.7813,416.7312 C17.5156,416.9031 17.3438,417.1843 17.3438,417.4812 C17.3438,417.7625 17.4844,418.0437 17.7188,418.2 C17.9063,418.325 18.0938,418.3562 18.5313,418.3562 L20.1875,418.3562 L20.1875,424.45 L18.5313,424.45 C18.0938,424.45 17.9531,424.4656 17.7813,424.575 C17.5156,424.7312 17.3438,425.0281 17.3438,425.3093 C17.3438,425.9187 17.75,426.2 18.5313,426.2 L23.6719,426.2 C24.4531,426.2 24.8594,425.9187 24.8594,425.3093 C24.8594,425.0437 24.7188,424.7937 24.4844,424.6218 C24.2969,424.4812 24.125,424.45 23.6719,424.45 L22.0156,424.45 L22.0156,418.3562 Z "/><text fill="#000000" font-family="sans-serif" font-size="14" font-style="italic" font-weight="bold" lengthAdjust="spacingAndGlyphs" textLength="109" x="63.5" y="420.3999">SettingsFactory</text><text fill="#000000" font-family="sans-serif" font-size="10" font-style="italic" lengthAdjust="spacingAndGlyphs" textLength="166" x="35" y="434.8999">it.matlice.ingsw.model.data.factories</text></a><!--class it.matlice.ingsw.model.data.Settings--><a target="_parent" xlink:actuate="onRequest" xlink:href="../../../../../../../it/matlice/ingsw/model/data/Settings.html" xlink:show="new" xlink:title="it.matlice.ingsw.model.data.Settings" xlink:type="simple"><rect fill="#FFFFFF" filter="url(#fnttlwm)" height="38.7999" style="stroke: #A80036; stroke-width: 1.5;" width="156" x="239" y="401.5"/><rect fill="#FFFFFF" height="38.7999" style="stroke: #A80036; stroke-width: 1.5;" width="156" x="239" y="401.5"/><ellipse cx="254" cy="420.9" fill="#ADD1B2" rx="11" ry="11" style="stroke: #A80036; stroke-width: 1.0;"/><path d="M249,422.0562 C249,424.5562 251.1406,426.3687 254.0625,426.3687 C255.2969,426.3687 256.4688,426.0718 257.2188,425.5562 C257.8281,425.1343 258.1563,424.7125 258.1563,424.3062 C258.1563,423.8375 257.7344,423.4312 257.2344,423.4312 C257,423.4312 256.7813,423.5093 256.5781,423.7125 C256.1406,424.15 256.1406,424.15 255.9688,424.2437 C255.5156,424.4781 254.875,424.6187 254.1094,424.6187 C252.1094,424.6187 250.8281,423.6031 250.8281,422.025 L250.8281,420.9781 C250.8281,419.275 252.0469,418.0718 253.75,418.0718 C254.3281,418.0718 254.9063,418.2125 255.375,418.4625 C255.8438,418.7281 256.0156,418.9156 256.0781,419.275 C256.2031,419.9468 256.4531,420.1968 256.9844,420.1968 C257.2656,420.1968 257.5469,420.0562 257.7344,419.8375 C257.8594,419.6656 257.9063,419.4937 257.9063,419.0562 L257.9063,417.6968 C257.9063,417.275 257.8906,417.1343 257.7656,416.9625 C257.5938,416.7125 257.3125,416.5562 256.9844,416.5562 C256.6719,416.5562 256.4688,416.6656 256.25,416.9312 C255.0781,416.4312 254.6406,416.3218 253.6875,416.3218 C251.0156,416.3218 249,418.3375 249,420.9625 L249,422.0562 Z "/><text fill="#000000" font-family="sans-serif" font-size="14" font-weight="bold" lengthAdjust="spacingAndGlyphs" textLength="57" x="301.5" y="419.5059">Settings</text><text fill="#000000" font-family="sans-serif" font-size="10" lengthAdjust="spacingAndGlyphs" textLength="124" x="268" y="432.5899">it.matlice.ingsw.model.data</text></a><!--class it.matlice.ingsw.model.data.Settings.Day--><a target="_parent" xlink:actuate="onRequest" xlink:href="../../../../../../../it/matlice/ingsw/model/data/Settings.Day.html" xlink:show="new" xlink:title="it.matlice.ingsw.model.data.Settings.Day" xlink:type="simple"><rect fill="#FFFFFF" filter="url(#fnttlwm)" height="38.7999" style="stroke: #A80036; stroke-width: 1.5;" width="156" x="430" y="401.5"/><rect fill="#FFFFFF" height="38.7999" style="stroke: #A80036; stroke-width: 1.5;" width="156" x="430" y="401.5"/><ellipse cx="445" cy="420.9" fill="#EB937F" rx="11" ry="11" style="stroke: #A80036; stroke-width: 1.0;"/><path d="M443.8594,421.9625 L445.1719,421.9625 L445.1719,422.0093 C445.1719,422.4156 445.1875,422.5718 445.2969,422.7281 C445.4688,422.9781 445.7656,423.15 446.0781,423.15 C446.3594,423.15 446.6563,423.0093 446.8281,422.7906 C446.9531,422.6031 447,422.4625 447,422.0093 L447,420.1656 C447,419.8375 446.9844,419.7281 446.9219,419.5562 C446.8125,419.2593 446.4531,419.0093 446.0781,419.0093 C445.7813,419.0093 445.5156,419.15 445.3438,419.3687 C445.2031,419.5562 445.1719,419.7281 445.1719,420.1656 L445.1719,420.2281 L443.8594,420.2281 L443.8594,418.0562 L447.7031,418.0562 L447.7031,418.8062 C447.7031,419.1968 447.7344,419.3843 447.8438,419.5406 C448.0156,419.7906 448.3125,419.9625 448.625,419.9625 C448.9219,419.9625 449.1875,419.8375 449.375,419.6031 C449.5156,419.4156 449.5469,419.275 449.5469,418.8062 L449.5469,416.3062 L441.8438,416.3062 C441.3906,416.3062 441.2656,416.3218 441.0938,416.4312 C440.8281,416.6031 440.6563,416.8687 440.6563,417.1812 C440.6563,417.4625 440.7813,417.7281 441.0313,417.9 C441.2188,418.025 441.4063,418.0562 441.8438,418.0562 L442.0313,418.0562 L442.0313,424.15 L441.8438,424.15 C441.4219,424.15 441.2656,424.1812 441.0938,424.275 C440.8281,424.4312 440.6563,424.7125 440.6563,425.0093 C440.6563,425.5875 441.0625,425.9 441.8438,425.9 L449.9219,425.9 L449.9219,423.3687 C449.9219,422.9625 449.8906,422.7906 449.7813,422.6343 C449.6094,422.3687 449.3281,422.2125 449,422.2125 C448.7188,422.2125 448.4375,422.3531 448.25,422.5718 C448.1094,422.7593 448.0781,422.9156 448.0781,423.3687 L448.0781,424.15 L443.8594,424.15 L443.8594,421.9625 Z "/><text fill="#000000" font-family="sans-serif" font-size="14" font-weight="bold" lengthAdjust="spacingAndGlyphs" textLength="87" x="477.5" y="419.5059">Settings.Day</text><text fill="#000000" font-family="sans-serif" font-size="10" lengthAdjust="spacingAndGlyphs" textLength="124" x="459" y="432.5899">it.matlice.ingsw.model.data</text></a><!--class it.matlice.ingsw.model.data.Interval--><a target="_parent" xlink:actuate="onRequest" xlink:href="../../../../../../../it/matlice/ingsw/model/data/Interval.html" xlink:show="new" xlink:title="it.matlice.ingsw.model.data.Interval" xlink:type="simple"><rect fill="#FFFFFF" filter="url(#fnttlwm)" height="38.7999" style="stroke: #A80036; stroke-width: 1.5;" width="156" x="621" y="401.5"/><rect fill="#FFFFFF" height="38.7999" style="stroke: #A80036; stroke-width: 1.5;" width="156" x="621" y="401.5"/><ellipse cx="636" cy="420.9" fill="#ADD1B2" rx="11" ry="11" style="stroke: #A80036; stroke-width: 1.0;"/><path d="M631,422.0562 C631,424.5562 633.1406,426.3687 636.0625,426.3687 C637.2969,426.3687 638.4688,426.0718 639.2188,425.5562 C639.8281,425.1343 640.1563,424.7125 640.1563,424.3062 C640.1563,423.8375 639.7344,423.4312 639.2344,423.4312 C639,423.4312 638.7813,423.5093 638.5781,423.7125 C638.1406,424.15 638.1406,424.15 637.9688,424.2437 C637.5156,424.4781 636.875,424.6187 636.1094,424.6187 C634.1094,424.6187 632.8281,423.6031 632.8281,422.025 L632.8281,420.9781 C632.8281,419.275 634.0469,418.0718 635.75,418.0718 C636.3281,418.0718 636.9063,418.2125 637.375,418.4625 C637.8438,418.7281 638.0156,418.9156 638.0781,419.275 C638.2031,419.9468 638.4531,420.1968 638.9844,420.1968 C639.2656,420.1968 639.5469,420.0562 639.7344,419.8375 C639.8594,419.6656 639.9063,419.4937 639.9063,419.0562 L639.9063,417.6968 C639.9063,417.275 639.8906,417.1343 639.7656,416.9625 C639.5938,416.7125 639.3125,416.5562 638.9844,416.5562 C638.6719,416.5562 638.4688,416.6656 638.25,416.9312 C637.0781,416.4312 636.6406,416.3218 635.6875,416.3218 C633.0156,416.3218 631,418.3375 631,420.9625 L631,422.0562 Z "/><text fill="#000000" font-family="sans-serif" font-size="14" font-weight="bold" lengthAdjust="spacingAndGlyphs" textLength="51" x="686.5" y="419.5059">Interval</text><text fill="#000000" font-family="sans-serif" font-size="10" lengthAdjust="spacingAndGlyphs" textLength="124" x="650" y="432.5899">it.matlice.ingsw.model.data</text></a><path d="M177.5,340.12 C177.5,340.12 177.5,379.99 177.5,379.99 " fill="none" style="stroke: #A80036; stroke-width: 1.0; stroke-dasharray: 7.0,7.0;"/><polygon fill="none" points="184.5,379.99,177.5,399.99,170.5,379.99,184.5,379.99" style="stroke: #A80036; stroke-width: 1.0;"/><path d="M317,340.12 C317,340.12 317,396.28 317,396.28 " fill="none" style="stroke: #A80036; stroke-width: 1.0; stroke-dasharray: 7.0,7.0;"/><polygon fill="#A80036" points="317,401.28,321,392.28,317,396.28,313,392.28,317,401.28" style="stroke: #A80036; stroke-width: 1.0;"/><path d="M508,340.12 C508,340.12 508,396.28 508,396.28 " fill="none" style="stroke: #A80036; stroke-width: 1.0; stroke-dasharray: 7.0,7.0;"/><polygon fill="#A80036" points="508,401.28,512,392.28,508,396.28,504,392.28,508,401.28" style="stroke: #A80036; stroke-width: 1.0;"/><path d="M647,340.12 C647,340.12 647,396.28 647,396.28 " fill="none" style="stroke: #A80036; stroke-width: 1.0; stroke-dasharray: 7.0,7.0;"/><polygon fill="#A80036" points="647,401.28,651,392.28,647,396.28,643,392.28,647,401.28" style="stroke: #A80036; stroke-width: 1.0;"/></g></svg>