<?xml version="1.0" encoding="UTF-8" standalone="no"?><svg xmlns="http://www.w3.org/2000/svg" xmlns:xlink="http://www.w3.org/1999/xlink" contentScriptType="application/ecmascript" contentStyleType="text/css" height="279px" preserveAspectRatio="none" style="width:595px;height:279px;" version="1.1" viewBox="0 0 595 279" width="595px" zoomAndPan="magnify"><defs><filter height="300%" id="f2h79ei" width="300%" x="-1" y="-1"><feGaussianBlur result="blurOut" stdDeviation="2.0"/><feColorMatrix in="blurOut" result="blurOut2" type="matrix" values="0 0 0 0 0 0 0 0 0 0 0 0 0 0 0 0 0 0 .4 0"/><feOffset dx="4.0" dy="4.0" in="blurOut2" result="blurOut3"/><feBlend in="SourceGraphic" in2="blurOut3" mode="normal"/></filter></defs><g><!--class it.matlice.ingsw.model.data.impl.jdbc.UserFactoryImpl--><a target="_parent" xlink:actuate="onRequest" xlink:href="../../../../../../../it/matlice/ingsw/model/data/impl/jdbc/UserFactoryImpl.html" xlink:show="new" xlink:title="it.matlice.ingsw.model.data.impl.jdbc.UserFactoryImpl" xlink:type="simple"><rect fill="#FEFECE" filter="url(#f2h79ei)" height="160.3991" style="stroke: #A80036; stroke-width: 1.5;" width="331" x="151.5" y="8"/><ellipse cx="229.25" cy="27.4" fill="#ADD1B2" rx="11" ry="11" style="stroke: #A80036; stroke-width: 1.0;"/><path d="M224.25,28.5562 C224.25,31.0562 226.3906,32.8687 229.3125,32.8687 C230.5469,32.8687 231.7188,32.5718 232.4688,32.0562 C233.0781,31.6343 233.4063,31.2125 233.4063,30.8062 C233.4063,30.3375 232.9844,29.9312 232.4844,29.9312 C232.25,29.9312 232.0313,30.0093 231.8281,30.2125 C231.3906,30.65 231.3906,30.65 231.2188,30.7437 C230.7656,30.9781 230.125,31.1187 229.3594,31.1187 C227.3594,31.1187 226.0781,30.1031 226.0781,28.525 L226.0781,27.4781 C226.0781,25.775 227.2969,24.5718 229,24.5718 C229.5781,24.5718 230.1563,24.7125 230.625,24.9625 C231.0938,25.2281 231.2656,25.4156 231.3281,25.775 C231.4531,26.4468 231.7031,26.6968 232.2344,26.6968 C232.5156,26.6968 232.7969,26.5562 232.9844,26.3375 C233.1094,26.1656 233.1563,25.9937 233.1563,25.5562 L233.1563,24.1968 C233.1563,23.775 233.1406,23.6343 233.0156,23.4625 C232.8438,23.2125 232.5625,23.0562 232.2344,23.0562 C231.9219,23.0562 231.7188,23.1656 231.5,23.4312 C230.3281,22.9312 229.8906,22.8218 228.9375,22.8218 C226.2656,22.8218 224.25,24.8375 224.25,27.4625 L224.25,28.5562 Z "/><text fill="#000000" font-family="sans-serif" font-size="14" font-weight="bold" lengthAdjust="spacingAndGlyphs" textLength="112" x="277.25" y="26.0059">UserFactoryImpl</text><text fill="#000000" font-family="sans-serif" font-size="10" lengthAdjust="spacingAndGlyphs" textLength="167" x="249.75" y="39.0899">it.matlice.ingsw.model.data.impl.jdbc</text><line style="stroke: #A80036; stroke-width: 1.5;" x1="152.5" x2="481.5" y1="46.7999" y2="46.7999"/><rect fill="none" height="6" style="stroke: #C82930; stroke-width: 1.0;" width="6" x="159.5" y="55.8999"/><text fill="#000000" font-family="sans-serif" font-size="11" lengthAdjust="spacingAndGlyphs" textLength="79" x="171.5" y="61.0188">&lt;any&gt; userDAO</text><line style="stroke: #A80036; stroke-width: 1.5;" x1="152.5" x2="481.5" y1="67.9998" y2="67.9998"/><ellipse cx="162.5" cy="80.0998" fill="#84BE84" rx="3" ry="3" style="stroke: #038048; stroke-width: 1.0;"/><text fill="#000000" font-family="sans-serif" font-size="11" lengthAdjust="spacingAndGlyphs" textLength="90" x="171.5" y="82.2187">UserFactoryImpl()</text><ellipse cx="162.5" cy="93.2997" fill="#84BE84" rx="3" ry="3" style="stroke: #038048; stroke-width: 1.0;"/><text fill="#000000" font-family="sans-serif" font-size="11" lengthAdjust="spacingAndGlyphs" textLength="154" x="171.5" y="95.4186">User getUser(String username)</text><ellipse cx="162.5" cy="106.4996" fill="#84BE84" rx="3" ry="3" style="stroke: #038048; stroke-width: 1.0;"/><text fill="#000000" font-family="sans-serif" font-size="11" lengthAdjust="spacingAndGlyphs" textLength="201" x="171.5" y="108.6185">boolean doesUserExist(String username)</text><ellipse cx="162.5" cy="119.6995" fill="#84BE84" rx="3" ry="3" style="stroke: #038048; stroke-width: 1.0;"/><text fill="#000000" font-family="sans-serif" font-size="11" lengthAdjust="spacingAndGlyphs" textLength="305" x="171.5" y="121.8184">User createUser(String username,User.UserTypes userType)</text><ellipse cx="162.5" cy="132.8994" fill="#84BE84" rx="3" ry="3" style="stroke: #038048; stroke-width: 1.0;"/><text fill="#000000" font-family="sans-serif" font-size="11" lengthAdjust="spacingAndGlyphs" textLength="116" x="171.5" y="135.0183">User saveUser(User u)</text><ellipse cx="162.5" cy="146.0993" fill="#84BE84" rx="3" ry="3" style="stroke: #038048; stroke-width: 1.0;"/><text fill="#000000" font-family="sans-serif" font-size="11" lengthAdjust="spacingAndGlyphs" textLength="109" x="171.5" y="148.2182">List&lt;User&gt; getUsers()</text><rect fill="#F24D5C" height="6" style="stroke: #C82930; stroke-width: 1.0;" width="6" x="159.5" y="156.2992"/><text fill="#000000" font-family="sans-serif" font-size="11" lengthAdjust="spacingAndGlyphs" textLength="146" x="171.5" y="161.4182">User makeUser(UserDB udb)</text></a><!--class it.matlice.ingsw.model.data.factories.UserFactory--><a target="_parent" xlink:actuate="onRequest" xlink:href="../../../../../../../it/matlice/ingsw/model/data/factories/UserFactory.html" xlink:show="new" xlink:title="it.matlice.ingsw.model.data.factories.UserFactory" xlink:type="simple"><rect fill="#FFFFFF" filter="url(#f2h79ei)" height="42.3999" style="stroke: #A80036; stroke-width: 1.5;" width="198" x="6" y="228"/><rect fill="#FFFFFF" height="42.3999" style="stroke: #A80036; stroke-width: 1.5;" width="198" x="6" y="228"/><ellipse cx="21" cy="249.2" fill="#B4A7E5" rx="11" ry="11" style="stroke: #A80036; stroke-width: 1.0;"/><path d="M22.0156,246.3562 L23.6719,246.3562 C24.0625,246.3562 24.2656,246.325 24.4219,246.2468 C24.6875,246.075 24.8594,245.7781 24.8594,245.4812 C24.8594,245.2 24.7188,244.95 24.4844,244.7781 C24.2969,244.6531 24.1406,244.6062 23.6719,244.6062 L18.5313,244.6062 C18.0938,244.6062 17.9531,244.6218 17.7813,244.7312 C17.5156,244.9031 17.3438,245.1843 17.3438,245.4812 C17.3438,245.7625 17.4844,246.0437 17.7188,246.2 C17.9063,246.325 18.0938,246.3562 18.5313,246.3562 L20.1875,246.3562 L20.1875,252.45 L18.5313,252.45 C18.0938,252.45 17.9531,252.4656 17.7813,252.575 C17.5156,252.7312 17.3438,253.0281 17.3438,253.3093 C17.3438,253.9187 17.75,254.2 18.5313,254.2 L23.6719,254.2 C24.4531,254.2 24.8594,253.9187 24.8594,253.3093 C24.8594,253.0437 24.7188,252.7937 24.4844,252.6218 C24.2969,252.4812 24.125,252.45 23.6719,252.45 L22.0156,252.45 L22.0156,246.3562 Z "/><text fill="#000000" font-family="sans-serif" font-size="14" font-style="italic" font-weight="bold" lengthAdjust="spacingAndGlyphs" textLength="83" x="76.5" y="248.3999">UserFactory</text><text fill="#000000" font-family="sans-serif" font-size="10" font-style="italic" lengthAdjust="spacingAndGlyphs" textLength="166" x="35" y="262.8999">it.matlice.ingsw.model.data.factories</text></a><!--class it.matlice.ingsw.model.data.User--><a target="_parent" xlink:actuate="onRequest" xlink:href="../../../../../../../it/matlice/ingsw/model/data/User.html" xlink:show="new" xlink:title="it.matlice.ingsw.model.data.User" xlink:type="simple"><rect fill="#FFFFFF" filter="url(#f2h79ei)" height="38.7999" style="stroke: #A80036; stroke-width: 1.5;" width="156" x="239" y="229.5"/><rect fill="#FFFFFF" height="38.7999" style="stroke: #A80036; stroke-width: 1.5;" width="156" x="239" y="229.5"/><ellipse cx="254" cy="248.9" fill="#ADD1B2" rx="11" ry="11" style="stroke: #A80036; stroke-width: 1.0;"/><path d="M249,250.0562 C249,252.5562 251.1406,254.3687 254.0625,254.3687 C255.2969,254.3687 256.4688,254.0718 257.2188,253.5562 C257.8281,253.1343 258.1563,252.7125 258.1563,252.3062 C258.1563,251.8375 257.7344,251.4312 257.2344,251.4312 C257,251.4312 256.7813,251.5093 256.5781,251.7125 C256.1406,252.15 256.1406,252.15 255.9688,252.2437 C255.5156,252.4781 254.875,252.6187 254.1094,252.6187 C252.1094,252.6187 250.8281,251.6031 250.8281,250.025 L250.8281,248.9781 C250.8281,247.275 252.0469,246.0718 253.75,246.0718 C254.3281,246.0718 254.9063,246.2125 255.375,246.4625 C255.8438,246.7281 256.0156,246.9156 256.0781,247.275 C256.2031,247.9468 256.4531,248.1968 256.9844,248.1968 C257.2656,248.1968 257.5469,248.0562 257.7344,247.8375 C257.8594,247.6656 257.9063,247.4937 257.9063,247.0562 L257.9063,245.6968 C257.9063,245.275 257.8906,245.1343 257.7656,244.9625 C257.5938,244.7125 257.3125,244.5562 256.9844,244.5562 C256.6719,244.5562 256.4688,244.6656 256.25,244.9312 C255.0781,244.4312 254.6406,244.3218 253.6875,244.3218 C251.0156,244.3218 249,246.3375 249,248.9625 L249,250.0562 Z "/><text fill="#000000" font-family="sans-serif" font-size="14" font-weight="bold" lengthAdjust="spacingAndGlyphs" textLength="31" x="314.5" y="247.5059">User</text><text fill="#000000" font-family="sans-serif" font-size="10" lengthAdjust="spacingAndGlyphs" textLength="124" x="268" y="260.5899">it.matlice.ingsw.model.data</text></a><!--class it.matlice.ingsw.model.data.User.UserTypes--><a target="_parent" xlink:actuate="onRequest" xlink:href="../../../../../../../it/matlice/ingsw/model/data/User.UserTypes.html" xlink:show="new" xlink:title="it.matlice.ingsw.model.data.User.UserTypes" xlink:type="simple"><rect fill="#FFFFFF" filter="url(#f2h79ei)" height="38.7999" style="stroke: #A80036; stroke-width: 1.5;" width="156" x="430" y="229.5"/><rect fill="#FFFFFF" height="38.7999" style="stroke: #A80036; stroke-width: 1.5;" width="156" x="430" y="229.5"/><ellipse cx="445" cy="248.9" fill="#EB937F" rx="11" ry="11" style="stroke: #A80036; stroke-width: 1.0;"/><path d="M443.8594,249.9625 L445.1719,249.9625 L445.1719,250.0093 C445.1719,250.4156 445.1875,250.5718 445.2969,250.7281 C445.4688,250.9781 445.7656,251.15 446.0781,251.15 C446.3594,251.15 446.6563,251.0093 446.8281,250.7906 C446.9531,250.6031 447,250.4625 447,250.0093 L447,248.1656 C447,247.8375 446.9844,247.7281 446.9219,247.5562 C446.8125,247.2593 446.4531,247.0093 446.0781,247.0093 C445.7813,247.0093 445.5156,247.15 445.3438,247.3687 C445.2031,247.5562 445.1719,247.7281 445.1719,248.1656 L445.1719,248.2281 L443.8594,248.2281 L443.8594,246.0562 L447.7031,246.0562 L447.7031,246.8062 C447.7031,247.1968 447.7344,247.3843 447.8438,247.5406 C448.0156,247.7906 448.3125,247.9625 448.625,247.9625 C448.9219,247.9625 449.1875,247.8375 449.375,247.6031 C449.5156,247.4156 449.5469,247.275 449.5469,246.8062 L449.5469,244.3062 L441.8438,244.3062 C441.3906,244.3062 441.2656,244.3218 441.0938,244.4312 C440.8281,244.6031 440.6563,244.8687 440.6563,245.1812 C440.6563,245.4625 440.7813,245.7281 441.0313,245.9 C441.2188,246.025 441.4063,246.0562 441.8438,246.0562 L442.0313,246.0562 L442.0313,252.15 L441.8438,252.15 C441.4219,252.15 441.2656,252.1812 441.0938,252.275 C440.8281,252.4312 440.6563,252.7125 440.6563,253.0093 C440.6563,253.5875 441.0625,253.9 441.8438,253.9 L449.9219,253.9 L449.9219,251.3687 C449.9219,250.9625 449.8906,250.7906 449.7813,250.6343 C449.6094,250.3687 449.3281,250.2125 449,250.2125 C448.7188,250.2125 448.4375,250.3531 448.25,250.5718 C448.1094,250.7593 448.0781,250.9156 448.0781,251.3687 L448.0781,252.15 L443.8594,252.15 L443.8594,249.9625 Z "/><text fill="#000000" font-family="sans-serif" font-size="14" font-weight="bold" lengthAdjust="spacingAndGlyphs" textLength="108" x="467" y="247.5059">User.UserTypes</text><text fill="#000000" font-family="sans-serif" font-size="10" lengthAdjust="spacingAndGlyphs" textLength="124" x="459" y="260.5899">it.matlice.ingsw.model.data</text></a><path d="M177.75,168.03 C177.75,168.03 177.75,207.8 177.75,207.8 " fill="none" style="stroke: #A80036; stroke-width: 1.0; stroke-dasharray: 7.0,7.0;"/><polygon fill="none" points="184.75,207.8,177.75,227.8,170.75,207.8,184.75,207.8" style="stroke: #A80036; stroke-width: 1.0;"/><path d="M317,168.03 C317,168.03 317,224.44 317,224.44 " fill="none" style="stroke: #A80036; stroke-width: 1.0; stroke-dasharray: 7.0,7.0;"/><polygon fill="#A80036" points="317,229.44,321,220.44,317,224.44,313,220.44,317,229.44" style="stroke: #A80036; stroke-width: 1.0;"/><path d="M456.25,168.03 C456.25,168.03 456.25,224.44 456.25,224.44 " fill="none" style="stroke: #A80036; stroke-width: 1.0; stroke-dasharray: 7.0,7.0;"/><polygon fill="#A80036" points="456.25,229.44,460.25,220.44,456.25,224.44,452.25,220.44,456.25,229.44" style="stroke: #A80036; stroke-width: 1.0;"/></g></svg>