<?xml version="1.0" encoding="UTF-8" standalone="no"?><svg xmlns="http://www.w3.org/2000/svg" xmlns:xlink="http://www.w3.org/1999/xlink" contentScriptType="application/ecmascript" contentStyleType="text/css" height="348px" preserveAspectRatio="none" style="width:519px;height:348px;" version="1.1" viewBox="0 0 519 348" width="519px" zoomAndPan="magnify"><defs><filter height="300%" id="fj9r4a6" width="300%" x="-1" y="-1"><feGaussianBlur result="blurOut" stdDeviation="2.0"/><feColorMatrix in="blurOut" result="blurOut2" type="matrix" values="0 0 0 0 0 0 0 0 0 0 0 0 0 0 0 0 0 0 .4 0"/><feOffset dx="4.0" dy="4.0" in="blurOut2" result="blurOut3"/><feBlend in="SourceGraphic" in2="blurOut3" mode="normal"/></filter></defs><g><!--class it.matlice.ingsw.model.data.impl.jdbc.XMLImport.SettingsXML--><a target="_parent" xlink:actuate="onRequest" xlink:href="../../../../../../../it/matlice/ingsw/model/data/impl/jdbc/XMLImport.SettingsXML.html" xlink:show="new" xlink:title="it.matlice.ingsw.model.data.impl.jdbc.XMLImport.SettingsXML" xlink:type="simple"><rect fill="#FEFECE" filter="url(#fj9r4a6)" height="133.9993" style="stroke: #A80036; stroke-width: 1.5;" width="504" x="6" y="107"/><ellipse cx="170.25" cy="126.4" fill="#ADD1B2" rx="11" ry="11" style="stroke: #A80036; stroke-width: 1.0;"/><path d="M165.25,127.5562 C165.25,130.0562 167.3906,131.8687 170.3125,131.8687 C171.5469,131.8687 172.7188,131.5718 173.4688,131.0562 C174.0781,130.6343 174.4063,130.2125 174.4063,129.8062 C174.4063,129.3375 173.9844,128.9312 173.4844,128.9312 C173.25,128.9312 173.0313,129.0093 172.8281,129.2125 C172.3906,129.65 172.3906,129.65 172.2188,129.7437 C171.7656,129.9781 171.125,130.1187 170.3594,130.1187 C168.3594,130.1187 167.0781,129.1031 167.0781,127.525 L167.0781,126.4781 C167.0781,124.775 168.2969,123.5718 170,123.5718 C170.5781,123.5718 171.1563,123.7125 171.625,123.9625 C172.0938,124.2281 172.2656,124.4156 172.3281,124.775 C172.4531,125.4468 172.7031,125.6968 173.2344,125.6968 C173.5156,125.6968 173.7969,125.5562 173.9844,125.3375 C174.1094,125.1656 174.1563,124.9937 174.1563,124.5562 L174.1563,123.1968 C174.1563,122.775 174.1406,122.6343 174.0156,122.4625 C173.8438,122.2125 173.5625,122.0562 173.2344,122.0562 C172.9219,122.0562 172.7188,122.1656 172.5,122.4312 C171.3281,121.9312 170.8906,121.8218 169.9375,121.8218 C167.2656,121.8218 165.25,123.8375 165.25,126.4625 L165.25,127.5562 Z "/><text fill="#000000" font-family="sans-serif" font-size="14" font-weight="bold" lengthAdjust="spacingAndGlyphs" textLength="165" x="191.75" y="125.0059">XMLImport.SettingsXML</text><text fill="#000000" font-family="sans-serif" font-size="10" lengthAdjust="spacingAndGlyphs" textLength="167" x="190.75" y="138.0899">it.matlice.ingsw.model.data.impl.jdbc</text><line style="stroke: #A80036; stroke-width: 1.5;" x1="7" x2="509" y1="145.7999" y2="145.7999"/><ellipse cx="17" cy="157.8999" fill="none" rx="3" ry="3" style="stroke: #038048; stroke-width: 1.0;"/><text fill="#000000" font-family="sans-serif" font-size="11" lengthAdjust="spacingAndGlyphs" textLength="48" x="26" y="160.0188">String city</text><ellipse cx="17" cy="171.0998" fill="none" rx="3" ry="3" style="stroke: #038048; stroke-width: 1.0;"/><text fill="#000000" font-family="sans-serif" font-size="11" lengthAdjust="spacingAndGlyphs" textLength="103" x="26" y="173.2187">List&lt;String&gt; locations</text><ellipse cx="17" cy="184.2997" fill="none" rx="3" ry="3" style="stroke: #038048; stroke-width: 1.0;"/><text fill="#000000" font-family="sans-serif" font-size="11" lengthAdjust="spacingAndGlyphs" textLength="76" x="26" y="186.4186">List&lt;Day&gt; days</text><ellipse cx="17" cy="197.4996" fill="none" rx="3" ry="3" style="stroke: #038048; stroke-width: 1.0;"/><text fill="#000000" font-family="sans-serif" font-size="11" lengthAdjust="spacingAndGlyphs" textLength="109" x="26" y="199.6185">List&lt;Interval&gt; intervals</text><ellipse cx="17" cy="210.6995" fill="none" rx="3" ry="3" style="stroke: #038048; stroke-width: 1.0;"/><text fill="#000000" font-family="sans-serif" font-size="11" lengthAdjust="spacingAndGlyphs" textLength="61" x="26" y="212.8184">int expiration</text><line style="stroke: #A80036; stroke-width: 1.5;" x1="7" x2="509" y1="219.7994" y2="219.7994"/><ellipse cx="17" cy="231.8994" fill="#84BE84" rx="3" ry="3" style="stroke: #038048; stroke-width: 1.0;"/><text fill="#000000" font-family="sans-serif" font-size="11" lengthAdjust="spacingAndGlyphs" textLength="478" x="26" y="234.0183">SettingsXML(String city,List&lt;String&gt; locations,List&lt;Day&gt; days,List&lt;Interval&gt; intervals,int expiration)</text></a><!--class it.matlice.ingsw.model.data.impl.jdbc.XMLImport.ConfigurationXML--><a target="_parent" xlink:actuate="onRequest" xlink:href="../../../../../../../it/matlice/ingsw/model/data/impl/jdbc/XMLImport.ConfigurationXML.html" xlink:show="new" xlink:title="it.matlice.ingsw.model.data.impl.jdbc.XMLImport.ConfigurationXML" xlink:type="simple"><rect fill="#FEFECE" filter="url(#fj9r4a6)" height="38.7999" style="stroke: #A80036; stroke-width: 1.5;" width="235" x="140.5" y="8"/><ellipse cx="155.5" cy="27.4" fill="#ADD1B2" rx="11" ry="11" style="stroke: #A80036; stroke-width: 1.0;"/><path d="M150.5,28.5562 C150.5,31.0562 152.6406,32.8687 155.5625,32.8687 C156.7969,32.8687 157.9688,32.5718 158.7188,32.0562 C159.3281,31.6343 159.6563,31.2125 159.6563,30.8062 C159.6563,30.3375 159.2344,29.9312 158.7344,29.9312 C158.5,29.9312 158.2813,30.0093 158.0781,30.2125 C157.6406,30.65 157.6406,30.65 157.4688,30.7437 C157.0156,30.9781 156.375,31.1187 155.6094,31.1187 C153.6094,31.1187 152.3281,30.1031 152.3281,28.525 L152.3281,27.4781 C152.3281,25.775 153.5469,24.5718 155.25,24.5718 C155.8281,24.5718 156.4063,24.7125 156.875,24.9625 C157.3438,25.2281 157.5156,25.4156 157.5781,25.775 C157.7031,26.4468 157.9531,26.6968 158.4844,26.6968 C158.7656,26.6968 159.0469,26.5562 159.2344,26.3375 C159.3594,26.1656 159.4063,25.9937 159.4063,25.5562 L159.4063,24.1968 C159.4063,23.775 159.3906,23.6343 159.2656,23.4625 C159.0938,23.2125 158.8125,23.0562 158.4844,23.0562 C158.1719,23.0562 157.9688,23.1656 157.75,23.4312 C156.5781,22.9312 156.1406,22.8218 155.1875,22.8218 C152.5156,22.8218 150.5,24.8375 150.5,27.4625 L150.5,28.5562 Z "/><text fill="#000000" font-family="sans-serif" font-size="14" font-weight="bold" lengthAdjust="spacingAndGlyphs" textLength="203" x="169.5" y="26.0059">XMLImport.ConfigurationXML</text><text fill="#000000" font-family="sans-serif" font-size="10" lengthAdjust="spacingAndGlyphs" textLength="167" x="187.5" y="39.0899">it.matlice.ingsw.model.data.impl.jdbc</text></a><!--class it.matlice.ingsw.model.data.Settings.Day--><a target="_parent" xlink:actuate="onRequest" xlink:href="../../../../../../../it/matlice/ingsw/model/data/Settings.Day.html" xlink:show="new" xlink:title="it.matlice.ingsw.model.data.Settings.Day" xlink:type="simple"><rect fill="#FFFFFF" filter="url(#fj9r4a6)" height="38.7999" style="stroke: #A80036; stroke-width: 1.5;" width="156" x="85" y="301"/><rect fill="#FFFFFF" height="38.7999" style="stroke: #A80036; stroke-width: 1.5;" width="156" x="85" y="301"/><ellipse cx="100" cy="320.4" fill="#EB937F" rx="11" ry="11" style="stroke: #A80036; stroke-width: 1.0;"/><path d="M98.8594,321.4625 L100.1719,321.4625 L100.1719,321.5093 C100.1719,321.9156 100.1875,322.0718 100.2969,322.2281 C100.4688,322.4781 100.7656,322.65 101.0781,322.65 C101.3594,322.65 101.6563,322.5093 101.8281,322.2906 C101.9531,322.1031 102,321.9625 102,321.5093 L102,319.6656 C102,319.3375 101.9844,319.2281 101.9219,319.0562 C101.8125,318.7593 101.4531,318.5093 101.0781,318.5093 C100.7813,318.5093 100.5156,318.65 100.3438,318.8687 C100.2031,319.0562 100.1719,319.2281 100.1719,319.6656 L100.1719,319.7281 L98.8594,319.7281 L98.8594,317.5562 L102.7031,317.5562 L102.7031,318.3062 C102.7031,318.6968 102.7344,318.8843 102.8438,319.0406 C103.0156,319.2906 103.3125,319.4625 103.625,319.4625 C103.9219,319.4625 104.1875,319.3375 104.375,319.1031 C104.5156,318.9156 104.5469,318.775 104.5469,318.3062 L104.5469,315.8062 L96.8438,315.8062 C96.3906,315.8062 96.2656,315.8218 96.0938,315.9312 C95.8281,316.1031 95.6563,316.3687 95.6563,316.6812 C95.6563,316.9625 95.7813,317.2281 96.0313,317.4 C96.2188,317.525 96.4063,317.5562 96.8438,317.5562 L97.0313,317.5562 L97.0313,323.65 L96.8438,323.65 C96.4219,323.65 96.2656,323.6812 96.0938,323.775 C95.8281,323.9312 95.6563,324.2125 95.6563,324.5093 C95.6563,325.0875 96.0625,325.4 96.8438,325.4 L104.9219,325.4 L104.9219,322.8687 C104.9219,322.4625 104.8906,322.2906 104.7813,322.1343 C104.6094,321.8687 104.3281,321.7125 104,321.7125 C103.7188,321.7125 103.4375,321.8531 103.25,322.0718 C103.1094,322.2593 103.0781,322.4156 103.0781,322.8687 L103.0781,323.65 L98.8594,323.65 L98.8594,321.4625 Z "/><text fill="#000000" font-family="sans-serif" font-size="14" font-weight="bold" lengthAdjust="spacingAndGlyphs" textLength="87" x="132.5" y="319.0059">Settings.Day</text><text fill="#000000" font-family="sans-serif" font-size="10" lengthAdjust="spacingAndGlyphs" textLength="124" x="114" y="332.0899">it.matlice.ingsw.model.data</text></a><!--class it.matlice.ingsw.model.data.Interval--><a target="_parent" xlink:actuate="onRequest" xlink:href="../../../../../../../it/matlice/ingsw/model/data/Interval.html" xlink:show="new" xlink:title="it.matlice.ingsw.model.data.Interval" xlink:type="simple"><rect fill="#FFFFFF" filter="url(#fj9r4a6)" height="38.7999" style="stroke: #A80036; stroke-width: 1.5;" width="156" x="276" y="301"/><rect fill="#FFFFFF" height="38.7999" style="stroke: #A80036; stroke-width: 1.5;" width="156" x="276" y="301"/><ellipse cx="291" cy="320.4" fill="#ADD1B2" rx="11" ry="11" style="stroke: #A80036; stroke-width: 1.0;"/><path d="M286,321.5562 C286,324.0562 288.1406,325.8687 291.0625,325.8687 C292.2969,325.8687 293.4688,325.5718 294.2188,325.0562 C294.8281,324.6343 295.1563,324.2125 295.1563,323.8062 C295.1563,323.3375 294.7344,322.9312 294.2344,322.9312 C294,322.9312 293.7813,323.0093 293.5781,323.2125 C293.1406,323.65 293.1406,323.65 292.9688,323.7437 C292.5156,323.9781 291.875,324.1187 291.1094,324.1187 C289.1094,324.1187 287.8281,323.1031 287.8281,321.525 L287.8281,320.4781 C287.8281,318.775 289.0469,317.5718 290.75,317.5718 C291.3281,317.5718 291.9063,317.7125 292.375,317.9625 C292.8438,318.2281 293.0156,318.4156 293.0781,318.775 C293.2031,319.4468 293.4531,319.6968 293.9844,319.6968 C294.2656,319.6968 294.5469,319.5562 294.7344,319.3375 C294.8594,319.1656 294.9063,318.9937 294.9063,318.5562 L294.9063,317.1968 C294.9063,316.775 294.8906,316.6343 294.7656,316.4625 C294.5938,316.2125 294.3125,316.0562 293.9844,316.0562 C293.6719,316.0562 293.4688,316.1656 293.25,316.4312 C292.0781,315.9312 291.6406,315.8218 290.6875,315.8218 C288.0156,315.8218 286,317.8375 286,320.4625 L286,321.5562 Z "/><text fill="#000000" font-family="sans-serif" font-size="14" font-weight="bold" lengthAdjust="spacingAndGlyphs" textLength="51" x="341.5" y="319.0059">Interval</text><text fill="#000000" font-family="sans-serif" font-size="10" lengthAdjust="spacingAndGlyphs" textLength="124" x="305" y="332.0899">it.matlice.ingsw.model.data</text></a><path d="M258,47.26 C258,47.26 258,101.91 258,101.91 " fill="none" style="stroke: #A80036; stroke-width: 1.0;"/><polygon fill="#A80036" points="258,106.91,262,97.91,258,101.91,254,97.91,258,106.91" style="stroke: #A80036; stroke-width: 1.0;"/><text fill="#000000" font-family="sans-serif" font-size="13" lengthAdjust="spacingAndGlyphs" textLength="46" x="209.3406" y="95.3973">settings</text><path d="M163,241.25 C163,241.25 163,295.7 163,295.7 " fill="none" style="stroke: #A80036; stroke-width: 1.0;"/><polygon fill="#A80036" points="163,300.7,167,291.7,163,295.7,159,291.7,163,300.7" style="stroke: #A80036; stroke-width: 1.0;"/><text fill="#000000" font-family="sans-serif" font-size="13" lengthAdjust="spacingAndGlyphs" textLength="37" x="120.3344" y="289.5389">days *</text><path d="M354,241.25 C354,241.25 354,295.7 354,295.7 " fill="none" style="stroke: #A80036; stroke-width: 1.0;"/><polygon fill="#A80036" points="354,300.7,358,291.7,354,295.7,350,291.7,354,300.7" style="stroke: #A80036; stroke-width: 1.0;"/><text fill="#000000" font-family="sans-serif" font-size="13" lengthAdjust="spacingAndGlyphs" textLength="58" x="287.1188" y="289.5389">intervals *</text></g></svg>