<?xml version="1.0" encoding="UTF-8" standalone="no"?><svg xmlns="http://www.w3.org/2000/svg" xmlns:xlink="http://www.w3.org/1999/xlink" contentScriptType="application/ecmascript" contentStyleType="text/css" height="335px" preserveAspectRatio="none" style="width:416px;height:335px;" version="1.1" viewBox="0 0 416 335" width="416px" zoomAndPan="magnify"><defs><filter height="300%" id="fz3ubcp" width="300%" x="-1" y="-1"><feGaussianBlur result="blurOut" stdDeviation="2.0"/><feColorMatrix in="blurOut" result="blurOut2" type="matrix" values="0 0 0 0 0 0 0 0 0 0 0 0 0 0 0 0 0 0 .4 0"/><feOffset dx="4.0" dy="4.0" in="blurOut2" result="blurOut3"/><feBlend in="SourceGraphic" in2="blurOut3" mode="normal"/></filter></defs><g><!--class it.matlice.ingsw.model.data.impl.jdbc.XMLImport.FieldXML--><a target="_parent" xlink:actuate="onRequest" xlink:href="../../../../../../../it/matlice/ingsw/model/data/impl/jdbc/XMLImport.FieldXML.html" xlink:show="new" xlink:title="it.matlice.ingsw.model.data.impl.jdbc.XMLImport.FieldXML" xlink:type="simple"><rect fill="#FEFECE" filter="url(#fz3ubcp)" height="120.7994" style="stroke: #A80036; stroke-width: 1.5;" width="401" x="6" y="107"/><ellipse cx="118.75" cy="126.4" fill="#ADD1B2" rx="11" ry="11" style="stroke: #A80036; stroke-width: 1.0;"/><path d="M113.75,127.5562 C113.75,130.0562 115.8906,131.8687 118.8125,131.8687 C120.0469,131.8687 121.2188,131.5718 121.9688,131.0562 C122.5781,130.6343 122.9063,130.2125 122.9063,129.8062 C122.9063,129.3375 122.4844,128.9312 121.9844,128.9312 C121.75,128.9312 121.5313,129.0093 121.3281,129.2125 C120.8906,129.65 120.8906,129.65 120.7188,129.7437 C120.2656,129.9781 119.625,130.1187 118.8594,130.1187 C116.8594,130.1187 115.5781,129.1031 115.5781,127.525 L115.5781,126.4781 C115.5781,124.775 116.7969,123.5718 118.5,123.5718 C119.0781,123.5718 119.6563,123.7125 120.125,123.9625 C120.5938,124.2281 120.7656,124.4156 120.8281,124.775 C120.9531,125.4468 121.2031,125.6968 121.7344,125.6968 C122.0156,125.6968 122.2969,125.5562 122.4844,125.3375 C122.6094,125.1656 122.6563,124.9937 122.6563,124.5562 L122.6563,123.1968 C122.6563,122.775 122.6406,122.6343 122.5156,122.4625 C122.3438,122.2125 122.0625,122.0562 121.7344,122.0562 C121.4219,122.0562 121.2188,122.1656 121,122.4312 C119.8281,121.9312 119.3906,121.8218 118.4375,121.8218 C115.7656,121.8218 113.75,123.8375 113.75,126.4625 L113.75,127.5562 Z "/><text fill="#000000" font-family="sans-serif" font-size="14" font-weight="bold" lengthAdjust="spacingAndGlyphs" textLength="142" x="151.75" y="125.0059">XMLImport.FieldXML</text><text fill="#000000" font-family="sans-serif" font-size="10" lengthAdjust="spacingAndGlyphs" textLength="167" x="139.25" y="138.0899">it.matlice.ingsw.model.data.impl.jdbc</text><line style="stroke: #A80036; stroke-width: 1.5;" x1="7" x2="406" y1="145.7999" y2="145.7999"/><ellipse cx="17" cy="157.8999" fill="none" rx="3" ry="3" style="stroke: #038048; stroke-width: 1.0;"/><text fill="#000000" font-family="sans-serif" font-size="11" lengthAdjust="spacingAndGlyphs" textLength="58" x="26" y="160.0188">String name</text><ellipse cx="17" cy="171.0998" fill="none" rx="3" ry="3" style="stroke: #038048; stroke-width: 1.0;"/><text fill="#000000" font-family="sans-serif" font-size="11" lengthAdjust="spacingAndGlyphs" textLength="81" x="26" y="173.2187">boolean required</text><ellipse cx="17" cy="184.2997" fill="none" rx="3" ry="3" style="stroke: #038048; stroke-width: 1.0;"/><text fill="#000000" font-family="sans-serif" font-size="11" lengthAdjust="spacingAndGlyphs" textLength="177" x="26" y="186.4186">TypeDefinition.TypeAssociation type</text><line style="stroke: #A80036; stroke-width: 1.5;" x1="7" x2="406" y1="193.3996" y2="193.3996"/><ellipse cx="17" cy="205.4996" fill="#84BE84" rx="3" ry="3" style="stroke: #038048; stroke-width: 1.0;"/><text fill="#000000" font-family="sans-serif" font-size="11" lengthAdjust="spacingAndGlyphs" textLength="375" x="26" y="207.6185">FieldXML(String name,boolean required,TypeDefinition.TypeAssociation type)</text><ellipse cx="17" cy="218.6995" fill="#84BE84" rx="3" ry="3" style="stroke: #038048; stroke-width: 1.0;"/><text fill="#000000" font-family="sans-serif" font-size="11" lengthAdjust="spacingAndGlyphs" textLength="195" x="26" y="220.8184">FieldXML(String name,boolean required)</text></a><!--class it.matlice.ingsw.model.data.impl.jdbc.XMLImport.CategoryXML--><a target="_parent" xlink:actuate="onRequest" xlink:href="../../../../../../../it/matlice/ingsw/model/data/impl/jdbc/XMLImport.CategoryXML.html" xlink:show="new" xlink:title="it.matlice.ingsw.model.data.impl.jdbc.XMLImport.CategoryXML" xlink:type="simple"><rect fill="#FEFECE" filter="url(#fz3ubcp)" height="38.7999" style="stroke: #A80036; stroke-width: 1.5;" width="202" x="105.5" y="8"/><ellipse cx="120.5" cy="27.4" fill="#ADD1B2" rx="11" ry="11" style="stroke: #A80036; stroke-width: 1.0;"/><path d="M115.5,28.5562 C115.5,31.0562 117.6406,32.8687 120.5625,32.8687 C121.7969,32.8687 122.9688,32.5718 123.7188,32.0562 C124.3281,31.6343 124.6563,31.2125 124.6563,30.8062 C124.6563,30.3375 124.2344,29.9312 123.7344,29.9312 C123.5,29.9312 123.2813,30.0093 123.0781,30.2125 C122.6406,30.65 122.6406,30.65 122.4688,30.7437 C122.0156,30.9781 121.375,31.1187 120.6094,31.1187 C118.6094,31.1187 117.3281,30.1031 117.3281,28.525 L117.3281,27.4781 C117.3281,25.775 118.5469,24.5718 120.25,24.5718 C120.8281,24.5718 121.4063,24.7125 121.875,24.9625 C122.3438,25.2281 122.5156,25.4156 122.5781,25.775 C122.7031,26.4468 122.9531,26.6968 123.4844,26.6968 C123.7656,26.6968 124.0469,26.5562 124.2344,26.3375 C124.3594,26.1656 124.4063,25.9937 124.4063,25.5562 L124.4063,24.1968 C124.4063,23.775 124.3906,23.6343 124.2656,23.4625 C124.0938,23.2125 123.8125,23.0562 123.4844,23.0562 C123.1719,23.0562 122.9688,23.1656 122.75,23.4312 C121.5781,22.9312 121.1406,22.8218 120.1875,22.8218 C117.5156,22.8218 115.5,24.8375 115.5,27.4625 L115.5,28.5562 Z "/><text fill="#000000" font-family="sans-serif" font-size="14" font-weight="bold" lengthAdjust="spacingAndGlyphs" textLength="170" x="134.5" y="26.0059">XMLImport.CategoryXML</text><text fill="#000000" font-family="sans-serif" font-size="10" lengthAdjust="spacingAndGlyphs" textLength="167" x="136" y="39.0899">it.matlice.ingsw.model.data.impl.jdbc</text></a><!--class it.matlice.ingsw.model.data.TypeDefinition.TypeAssociation--><a target="_parent" xlink:actuate="onRequest" xlink:href="../../../../../../../it/matlice/ingsw/model/data/TypeDefinition.TypeAssociation.html" xlink:show="new" xlink:title="it.matlice.ingsw.model.data.TypeDefinition.TypeAssociation" xlink:type="simple"><rect fill="#FFFFFF" filter="url(#fz3ubcp)" height="38.7999" style="stroke: #A80036; stroke-width: 1.5;" width="253" x="80" y="288"/><rect fill="#FFFFFF" height="38.7999" style="stroke: #A80036; stroke-width: 1.5;" width="253" x="80" y="288"/><ellipse cx="95" cy="307.4" fill="#EB937F" rx="11" ry="11" style="stroke: #A80036; stroke-width: 1.0;"/><path d="M93.8594,308.4625 L95.1719,308.4625 L95.1719,308.5093 C95.1719,308.9156 95.1875,309.0718 95.2969,309.2281 C95.4688,309.4781 95.7656,309.65 96.0781,309.65 C96.3594,309.65 96.6563,309.5093 96.8281,309.2906 C96.9531,309.1031 97,308.9625 97,308.5093 L97,306.6656 C97,306.3375 96.9844,306.2281 96.9219,306.0562 C96.8125,305.7593 96.4531,305.5093 96.0781,305.5093 C95.7813,305.5093 95.5156,305.65 95.3438,305.8687 C95.2031,306.0562 95.1719,306.2281 95.1719,306.6656 L95.1719,306.7281 L93.8594,306.7281 L93.8594,304.5562 L97.7031,304.5562 L97.7031,305.3062 C97.7031,305.6968 97.7344,305.8843 97.8438,306.0406 C98.0156,306.2906 98.3125,306.4625 98.625,306.4625 C98.9219,306.4625 99.1875,306.3375 99.375,306.1031 C99.5156,305.9156 99.5469,305.775 99.5469,305.3062 L99.5469,302.8062 L91.8438,302.8062 C91.3906,302.8062 91.2656,302.8218 91.0938,302.9312 C90.8281,303.1031 90.6563,303.3687 90.6563,303.6812 C90.6563,303.9625 90.7813,304.2281 91.0313,304.4 C91.2188,304.525 91.4063,304.5562 91.8438,304.5562 L92.0313,304.5562 L92.0313,310.65 L91.8438,310.65 C91.4219,310.65 91.2656,310.6812 91.0938,310.775 C90.8281,310.9312 90.6563,311.2125 90.6563,311.5093 C90.6563,312.0875 91.0625,312.4 91.8438,312.4 L99.9219,312.4 L99.9219,309.8687 C99.9219,309.4625 99.8906,309.2906 99.7813,309.1343 C99.6094,308.8687 99.3281,308.7125 99,308.7125 C98.7188,308.7125 98.4375,308.8531 98.25,309.0718 C98.1094,309.2593 98.0781,309.4156 98.0781,309.8687 L98.0781,310.65 L93.8594,310.65 L93.8594,308.4625 Z "/><text fill="#000000" font-family="sans-serif" font-size="14" font-weight="bold" lengthAdjust="spacingAndGlyphs" textLength="221" x="109" y="306.0059">TypeDefinition.TypeAssociation</text><text fill="#000000" font-family="sans-serif" font-size="10" lengthAdjust="spacingAndGlyphs" textLength="124" x="157.5" y="319.0899">it.matlice.ingsw.model.data</text></a><path d="M206.5,47.26 C206.5,47.26 206.5,101.94 206.5,101.94 " fill="none" style="stroke: #A80036; stroke-width: 1.0;"/><polygon fill="#A80036" points="206.5,106.94,210.5,97.94,206.5,101.94,202.5,97.94,206.5,106.94" style="stroke: #A80036; stroke-width: 1.0;"/><text fill="#000000" font-family="sans-serif" font-size="13" lengthAdjust="spacingAndGlyphs" textLength="40" x="163.9375" y="95.3481">fields *</text><path d="M206.5,228.09 C206.5,228.09 206.5,282.75 206.5,282.75 " fill="none" style="stroke: #A80036; stroke-width: 1.0;"/><polygon fill="#A80036" points="206.5,287.75,210.5,278.75,206.5,282.75,202.5,278.75,206.5,287.75" style="stroke: #A80036; stroke-width: 1.0;"/><text fill="#000000" font-family="sans-serif" font-size="13" lengthAdjust="spacingAndGlyphs" textLength="25" x="177.6719" y="276.6042">type</text></g></svg>