<?xml version="1.0" encoding="UTF-8" standalone="no"?><svg xmlns="http://www.w3.org/2000/svg" xmlns:xlink="http://www.w3.org/1999/xlink" contentScriptType="application/ecmascript" contentStyleType="text/css" height="385px" preserveAspectRatio="none" style="width:601px;height:385px;" version="1.1" viewBox="0 0 601 385" width="601px" zoomAndPan="magnify"><defs><filter height="300%" id="fs314gb" width="300%" x="-1" y="-1"><feGaussianBlur result="blurOut" stdDeviation="2.0"/><feColorMatrix in="blurOut" result="blurOut2" type="matrix" values="0 0 0 0 0 0 0 0 0 0 0 0 0 0 0 0 0 0 .4 0"/><feOffset dx="4.0" dy="4.0" in="blurOut2" result="blurOut3"/><feBlend in="SourceGraphic" in2="blurOut3" mode="normal"/></filter></defs><g><!--class it.matlice.ingsw.model.data.impl.jdbc.XMLImport--><a target="_parent" xlink:actuate="onRequest" xlink:href="../../../../../../../it/matlice/ingsw/model/data/impl/jdbc/XMLImport.html" xlink:show="new" xlink:title="it.matlice.ingsw.model.data.impl.jdbc.XMLImport" xlink:type="simple"><rect fill="#FEFECE" filter="url(#fs314gb)" height="265.9983" style="stroke: #A80036; stroke-width: 1.5;" width="220" x="142" y="8"/><ellipse cx="166.45" cy="27.4" fill="#ADD1B2" rx="11" ry="11" style="stroke: #A80036; stroke-width: 1.0;"/><path d="M161.45,28.5562 C161.45,31.0562 163.5906,32.8687 166.5125,32.8687 C167.7469,32.8687 168.9188,32.5718 169.6688,32.0562 C170.2781,31.6343 170.6063,31.2125 170.6063,30.8062 C170.6063,30.3375 170.1844,29.9312 169.6844,29.9312 C169.45,29.9312 169.2313,30.0093 169.0281,30.2125 C168.5906,30.65 168.5906,30.65 168.4188,30.7437 C167.9656,30.9781 167.325,31.1187 166.5594,31.1187 C164.5594,31.1187 163.2781,30.1031 163.2781,28.525 L163.2781,27.4781 C163.2781,25.775 164.4969,24.5718 166.2,24.5718 C166.7781,24.5718 167.3563,24.7125 167.825,24.9625 C168.2938,25.2281 168.4656,25.4156 168.5281,25.775 C168.6531,26.4468 168.9031,26.6968 169.4344,26.6968 C169.7156,26.6968 169.9969,26.5562 170.1844,26.3375 C170.3094,26.1656 170.3563,25.9937 170.3563,25.5562 L170.3563,24.1968 C170.3563,23.775 170.3406,23.6343 170.2156,23.4625 C170.0438,23.2125 169.7625,23.0562 169.4344,23.0562 C169.1219,23.0562 168.9188,23.1656 168.7,23.4312 C167.5281,22.9312 167.0906,22.8218 166.1375,22.8218 C163.4656,22.8218 161.45,24.8375 161.45,27.4625 L161.45,28.5562 Z "/><text fill="#000000" font-family="sans-serif" font-size="14" font-weight="bold" lengthAdjust="spacingAndGlyphs" textLength="74" x="229.05" y="26.0059">XMLImport</text><text fill="#000000" font-family="sans-serif" font-size="10" lengthAdjust="spacingAndGlyphs" textLength="167" x="182.55" y="39.0899">it.matlice.ingsw.model.data.impl.jdbc</text><line style="stroke: #A80036; stroke-width: 1.5;" x1="143" x2="361" y1="46.7999" y2="46.7999"/><rect fill="none" height="6" style="stroke: #C82930; stroke-width: 1.0;" width="6" x="150" y="55.8999"/><text fill="#000000" font-family="sans-serif" font-size="11" lengthAdjust="spacingAndGlyphs" textLength="92" x="162" y="61.0188">FileInputStream file</text><rect fill="none" height="6" style="stroke: #C82930; stroke-width: 1.0;" width="6" x="150" y="69.0998"/><text fill="#000000" font-family="sans-serif" font-size="11" lengthAdjust="spacingAndGlyphs" text-decoration="underline" textLength="150" x="162" y="74.2187">XMLConversion DayConverter</text><line style="stroke: #000000; stroke-width: 1.0;" x1="162" x2="312" y1="76.2187" y2="76.2187"/><rect fill="none" height="6" style="stroke: #C82930; stroke-width: 1.0;" width="6" x="150" y="82.2997"/><text fill="#000000" font-family="sans-serif" font-size="11" lengthAdjust="spacingAndGlyphs" text-decoration="underline" textLength="156" x="162" y="87.4186">XMLConversion DaysConverter</text><line style="stroke: #000000; stroke-width: 1.0;" x1="162" x2="318" y1="89.4186" y2="89.4186"/><rect fill="none" height="6" style="stroke: #C82930; stroke-width: 1.0;" width="6" x="150" y="95.4996"/><text fill="#000000" font-family="sans-serif" font-size="11" lengthAdjust="spacingAndGlyphs" text-decoration="underline" textLength="166" x="162" y="100.6185">XMLConversion IntervalConverter</text><line style="stroke: #000000; stroke-width: 1.0;" x1="162" x2="328" y1="102.6185" y2="102.6185"/><rect fill="none" height="6" style="stroke: #C82930; stroke-width: 1.0;" width="6" x="150" y="108.6995"/><text fill="#000000" font-family="sans-serif" font-size="11" lengthAdjust="spacingAndGlyphs" text-decoration="underline" textLength="172" x="162" y="113.8184">XMLConversion IntervalsConverter</text><line style="stroke: #000000; stroke-width: 1.0;" x1="162" x2="334" y1="115.8184" y2="115.8184"/><rect fill="none" height="6" style="stroke: #C82930; stroke-width: 1.0;" width="6" x="150" y="121.8994"/><text fill="#000000" font-family="sans-serif" font-size="11" lengthAdjust="spacingAndGlyphs" text-decoration="underline" textLength="185" x="162" y="127.0183">XMLConversion StringArrayConverter</text><line style="stroke: #000000; stroke-width: 1.0;" x1="162" x2="347" y1="129.0183" y2="129.0183"/><rect fill="none" height="6" style="stroke: #C82930; stroke-width: 1.0;" width="6" x="150" y="135.0993"/><text fill="#000000" font-family="sans-serif" font-size="11" lengthAdjust="spacingAndGlyphs" text-decoration="underline" textLength="153" x="162" y="140.2182">XMLConversion FieldConverter</text><line style="stroke: #000000; stroke-width: 1.0;" x1="162" x2="315" y1="142.2182" y2="142.2182"/><rect fill="none" height="6" style="stroke: #C82930; stroke-width: 1.0;" width="6" x="150" y="148.2992"/><text fill="#000000" font-family="sans-serif" font-size="11" lengthAdjust="spacingAndGlyphs" text-decoration="underline" textLength="159" x="162" y="153.4182">XMLConversion FieldsConverter</text><line style="stroke: #000000; stroke-width: 1.0;" x1="162" x2="321" y1="155.4182" y2="155.4182"/><rect fill="none" height="6" style="stroke: #C82930; stroke-width: 1.0;" width="6" x="150" y="161.4991"/><text fill="#000000" font-family="sans-serif" font-size="11" lengthAdjust="spacingAndGlyphs" text-decoration="underline" textLength="175" x="162" y="166.6181">XMLConversion CategoryConverter</text><line style="stroke: #000000; stroke-width: 1.0;" x1="162" x2="337" y1="168.6181" y2="168.6181"/><rect fill="none" height="6" style="stroke: #C82930; stroke-width: 1.0;" width="6" x="150" y="174.699"/><text fill="#000000" font-family="sans-serif" font-size="11" lengthAdjust="spacingAndGlyphs" text-decoration="underline" textLength="170" x="162" y="179.818">XMLConversion ChildrenConverter</text><line style="stroke: #000000; stroke-width: 1.0;" x1="162" x2="332" y1="181.818" y2="181.818"/><rect fill="none" height="6" style="stroke: #C82930; stroke-width: 1.0;" width="6" x="150" y="187.8989"/><text fill="#000000" font-family="sans-serif" font-size="11" lengthAdjust="spacingAndGlyphs" text-decoration="underline" textLength="178" x="162" y="193.0179">XMLConversion HierarchyConverter</text><line style="stroke: #000000; stroke-width: 1.0;" x1="162" x2="340" y1="195.0179" y2="195.0179"/><rect fill="none" height="6" style="stroke: #C82930; stroke-width: 1.0;" width="6" x="150" y="201.0988"/><text fill="#000000" font-family="sans-serif" font-size="11" lengthAdjust="spacingAndGlyphs" text-decoration="underline" textLength="186" x="162" y="206.2178">XMLConversion HierarchiesConverter</text><line style="stroke: #000000; stroke-width: 1.0;" x1="162" x2="348" y1="208.2178" y2="208.2178"/><rect fill="none" height="6" style="stroke: #C82930; stroke-width: 1.0;" width="6" x="150" y="214.2987"/><text fill="#000000" font-family="sans-serif" font-size="11" lengthAdjust="spacingAndGlyphs" text-decoration="underline" textLength="169" x="162" y="219.4177">XMLConversion SettingsConverter</text><line style="stroke: #000000; stroke-width: 1.0;" x1="162" x2="331" y1="221.4177" y2="221.4177"/><rect fill="none" height="6" style="stroke: #C82930; stroke-width: 1.0;" width="6" x="150" y="227.4986"/><text fill="#000000" font-family="sans-serif" font-size="11" lengthAdjust="spacingAndGlyphs" text-decoration="underline" textLength="194" x="162" y="232.6176">XMLConversion ConfigurationConverter</text><line style="stroke: #000000; stroke-width: 1.0;" x1="162" x2="356" y1="234.6176" y2="234.6176"/><line style="stroke: #A80036; stroke-width: 1.5;" x1="143" x2="361" y1="239.5985" y2="239.5985"/><ellipse cx="153" cy="251.6985" fill="#84BE84" rx="3" ry="3" style="stroke: #038048; stroke-width: 1.0;"/><text fill="#000000" font-family="sans-serif" font-size="11" lengthAdjust="spacingAndGlyphs" textLength="153" x="162" y="253.8175">XMLImport(FileInputStream file)</text><ellipse cx="153" cy="264.8984" fill="#84BE84" rx="3" ry="3" style="stroke: #038048; stroke-width: 1.0;"/><text fill="#000000" font-family="sans-serif" font-size="11" lengthAdjust="spacingAndGlyphs" textLength="181" x="162" y="267.0174">XMLImport.ConfigurationXML parse()</text></a><!--class java.io.FileInputStream--><rect fill="#D3D3D3" filter="url(#fs314gb)" height="38.7999" style="stroke: #A80036; stroke-width: 1.5;" width="140" x="6" y="335.5"/><rect fill="#D3D3D3" height="38.7999" style="stroke: #A80036; stroke-width: 1.5;" width="140" x="6" y="335.5"/><ellipse cx="21" cy="354.9" fill="#ADD1B2" rx="11" ry="11" style="stroke: #A80036; stroke-width: 1.0;"/><path d="M16,356.0562 C16,358.5562 18.1406,360.3687 21.0625,360.3687 C22.2969,360.3687 23.4688,360.0718 24.2188,359.5562 C24.8281,359.1343 25.1563,358.7125 25.1563,358.3062 C25.1563,357.8375 24.7344,357.4312 24.2344,357.4312 C24,357.4312 23.7813,357.5093 23.5781,357.7125 C23.1406,358.15 23.1406,358.15 22.9688,358.2437 C22.5156,358.4781 21.875,358.6187 21.1094,358.6187 C19.1094,358.6187 17.8281,357.6031 17.8281,356.025 L17.8281,354.9781 C17.8281,353.275 19.0469,352.0718 20.75,352.0718 C21.3281,352.0718 21.9063,352.2125 22.375,352.4625 C22.8438,352.7281 23.0156,352.9156 23.0781,353.275 C23.2031,353.9468 23.4531,354.1968 23.9844,354.1968 C24.2656,354.1968 24.5469,354.0562 24.7344,353.8375 C24.8594,353.6656 24.9063,353.4937 24.9063,353.0562 L24.9063,351.6968 C24.9063,351.275 24.8906,351.1343 24.7656,350.9625 C24.5938,350.7125 24.3125,350.5562 23.9844,350.5562 C23.6719,350.5562 23.4688,350.6656 23.25,350.9312 C22.0781,350.4312 21.6406,350.3218 20.6875,350.3218 C18.0156,350.3218 16,352.3375 16,354.9625 L16,356.0562 Z "/><text fill="#000000" font-family="sans-serif" font-size="14" font-weight="bold" lengthAdjust="spacingAndGlyphs" textLength="108" x="35" y="353.5059">FileInputStream</text><text fill="#000000" font-family="sans-serif" font-size="10" lengthAdjust="spacingAndGlyphs" textLength="30" x="74" y="366.5899">java.io</text><!--class it.matlice.ingsw.xml.XMLConversion--><a target="_parent" xlink:actuate="onRequest" xlink:href="../../../../../../../it/matlice/ingsw/xml/XMLConversion.html" xlink:show="new" xlink:title="it.matlice.ingsw.xml.XMLConversion" xlink:type="simple"><rect fill="#FFFFFF" filter="url(#fs314gb)" height="42.3999" style="stroke: #A80036; stroke-width: 1.5;" width="141" x="181.5" y="334"/><rect fill="#FFFFFF" height="42.3999" style="stroke: #A80036; stroke-width: 1.5;" width="141" x="181.5" y="334"/><ellipse cx="196.5" cy="355.2" fill="#B4A7E5" rx="11" ry="11" style="stroke: #A80036; stroke-width: 1.0;"/><path d="M197.5156,352.3562 L199.1719,352.3562 C199.5625,352.3562 199.7656,352.325 199.9219,352.2468 C200.1875,352.075 200.3594,351.7781 200.3594,351.4812 C200.3594,351.2 200.2188,350.95 199.9844,350.7781 C199.7969,350.6531 199.6406,350.6062 199.1719,350.6062 L194.0313,350.6062 C193.5938,350.6062 193.4531,350.6218 193.2813,350.7312 C193.0156,350.9031 192.8438,351.1843 192.8438,351.4812 C192.8438,351.7625 192.9844,352.0437 193.2188,352.2 C193.4063,352.325 193.5938,352.3562 194.0313,352.3562 L195.6875,352.3562 L195.6875,358.45 L194.0313,358.45 C193.5938,358.45 193.4531,358.4656 193.2813,358.575 C193.0156,358.7312 192.8438,359.0281 192.8438,359.3093 C192.8438,359.9187 193.25,360.2 194.0313,360.2 L199.1719,360.2 C199.9531,360.2 200.3594,359.9187 200.3594,359.3093 C200.3594,359.0437 200.2188,358.7937 199.9844,358.6218 C199.7969,358.4812 199.625,358.45 199.1719,358.45 L197.5156,358.45 L197.5156,352.3562 Z "/><text fill="#000000" font-family="sans-serif" font-size="14" font-style="italic" font-weight="bold" lengthAdjust="spacingAndGlyphs" textLength="109" x="210.5" y="354.3999">XMLConversion</text><text fill="#000000" font-family="sans-serif" font-size="10" font-style="italic" lengthAdjust="spacingAndGlyphs" textLength="87" x="221.5" y="368.8999">it.matlice.ingsw.xml</text></a><!--class it.matlice.ingsw.model.data.impl.jdbc.XMLImport.ConfigurationXML--><a target="_parent" xlink:actuate="onRequest" xlink:href="../../../../../../../it/matlice/ingsw/model/data/impl/jdbc/XMLImport.ConfigurationXML.html" xlink:show="new" xlink:title="it.matlice.ingsw.model.data.impl.jdbc.XMLImport.ConfigurationXML" xlink:type="simple"><rect fill="#FEFECE" filter="url(#fs314gb)" height="38.7999" style="stroke: #A80036; stroke-width: 1.5;" width="235" x="357.5" y="335.5"/><ellipse cx="372.5" cy="354.9" fill="#ADD1B2" rx="11" ry="11" style="stroke: #A80036; stroke-width: 1.0;"/><path d="M367.5,356.0562 C367.5,358.5562 369.6406,360.3687 372.5625,360.3687 C373.7969,360.3687 374.9688,360.0718 375.7188,359.5562 C376.3281,359.1343 376.6563,358.7125 376.6563,358.3062 C376.6563,357.8375 376.2344,357.4312 375.7344,357.4312 C375.5,357.4312 375.2813,357.5093 375.0781,357.7125 C374.6406,358.15 374.6406,358.15 374.4688,358.2437 C374.0156,358.4781 373.375,358.6187 372.6094,358.6187 C370.6094,358.6187 369.3281,357.6031 369.3281,356.025 L369.3281,354.9781 C369.3281,353.275 370.5469,352.0718 372.25,352.0718 C372.8281,352.0718 373.4063,352.2125 373.875,352.4625 C374.3438,352.7281 374.5156,352.9156 374.5781,353.275 C374.7031,353.9468 374.9531,354.1968 375.4844,354.1968 C375.7656,354.1968 376.0469,354.0562 376.2344,353.8375 C376.3594,353.6656 376.4063,353.4937 376.4063,353.0562 L376.4063,351.6968 C376.4063,351.275 376.3906,351.1343 376.2656,350.9625 C376.0938,350.7125 375.8125,350.5562 375.4844,350.5562 C375.1719,350.5562 374.9688,350.6656 374.75,350.9312 C373.5781,350.4312 373.1406,350.3218 372.1875,350.3218 C369.5156,350.3218 367.5,352.3375 367.5,354.9625 L367.5,356.0562 Z "/><text fill="#000000" font-family="sans-serif" font-size="14" font-weight="bold" lengthAdjust="spacingAndGlyphs" textLength="203" x="386.5" y="353.5059">XMLImport.ConfigurationXML</text><text fill="#000000" font-family="sans-serif" font-size="10" lengthAdjust="spacingAndGlyphs" textLength="167" x="404.5" y="366.5899">it.matlice.ingsw.model.data.impl.jdbc</text></a><path d="M163.75,274.1 C163.75,318.09 163.75,356 163.75,356 C163.75,356 151.41,356 151.41,356 " fill="none" style="stroke: #A80036; stroke-width: 1.0;"/><polygon fill="#A80036" points="146.41,356,155.41,360,151.41,356,155.41,352,146.41,356" style="stroke: #A80036; stroke-width: 1.0;"/><text fill="#000000" font-family="sans-serif" font-size="13" lengthAdjust="spacingAndGlyphs" textLength="17" x="153.9311" y="352.4956">file</text><path d="M191.57,274.1 C191.57,274.1 191.57,328.9 191.57,328.9 " fill="none" style="stroke: #A80036; stroke-width: 1.0;"/><polygon fill="#A80036" points="191.57,333.9,195.57,324.9,191.57,328.9,187.57,324.9,191.57,333.9" style="stroke: #A80036; stroke-width: 1.0;"/><text fill="#000000" font-family="sans-serif" font-size="13" lengthAdjust="spacingAndGlyphs" textLength="79" x="127.4242" y="322.5004">DayConverter</text><path d="M201.64,274.1 C201.64,274.1 201.64,328.9 201.64,328.9 " fill="none" style="stroke: #A80036; stroke-width: 1.0;"/><polygon fill="#A80036" points="201.64,333.9,205.64,324.9,201.64,328.9,197.64,324.9,201.64,333.9" style="stroke: #A80036; stroke-width: 1.0;"/><text fill="#000000" font-family="sans-serif" font-size="13" lengthAdjust="spacingAndGlyphs" textLength="86" x="199.478" y="322.6052">DaysConverter</text><path d="M211.71,274.1 C211.71,274.1 211.71,328.9 211.71,328.9 " fill="none" style="stroke: #A80036; stroke-width: 1.0;"/><polygon fill="#A80036" points="211.71,333.9,215.71,324.9,211.71,328.9,207.71,324.9,211.71,333.9" style="stroke: #A80036; stroke-width: 1.0;"/><text fill="#000000" font-family="sans-serif" font-size="13" lengthAdjust="spacingAndGlyphs" textLength="99" x="112.9451" y="322.099">IntervalConverter</text><path d="M221.79,274.1 C221.79,274.1 221.79,328.9 221.79,328.9 " fill="none" style="stroke: #A80036; stroke-width: 1.0;"/><polygon fill="#A80036" points="221.79,333.9,225.79,324.9,221.79,328.9,217.79,324.9,221.79,333.9" style="stroke: #A80036; stroke-width: 1.0;"/><text fill="#000000" font-family="sans-serif" font-size="13" lengthAdjust="spacingAndGlyphs" textLength="106" x="228.4846" y="322.6052">IntervalsConverter</text><path d="M231.86,274.1 C231.86,274.1 231.86,328.9 231.86,328.9 " fill="none" style="stroke: #A80036; stroke-width: 1.0;"/><polygon fill="#A80036" points="231.86,333.9,235.86,324.9,231.86,328.9,227.86,324.9,231.86,333.9" style="stroke: #A80036; stroke-width: 1.0;"/><text fill="#000000" font-family="sans-serif" font-size="13" lengthAdjust="spacingAndGlyphs" textLength="121" x="302.49" y="322.3521">StringArrayConverter</text><path d="M241.93,274.1 C241.93,274.1 241.93,328.9 241.93,328.9 " fill="none" style="stroke: #A80036; stroke-width: 1.0;"/><polygon fill="#A80036" points="241.93,333.9,245.93,324.9,241.93,328.9,237.93,324.9,241.93,333.9" style="stroke: #A80036; stroke-width: 1.0;"/><text fill="#000000" font-family="sans-serif" font-size="13" lengthAdjust="spacingAndGlyphs" textLength="84" x="142.6344" y="322.6052">FieldConverter</text><path d="M252,274.1 C252,274.1 252,328.9 252,328.9 " fill="none" style="stroke: #A80036; stroke-width: 1.0;"/><polygon fill="#A80036" points="252,333.9,256,324.9,252,328.9,248,324.9,252,333.9" style="stroke: #A80036; stroke-width: 1.0;"/><text fill="#000000" font-family="sans-serif" font-size="13" lengthAdjust="spacingAndGlyphs" textLength="91" x="265.3656" y="322.6052">FieldsConverter</text><path d="M262.07,274.1 C262.07,274.1 262.07,328.9 262.07,328.9 " fill="none" style="stroke: #A80036; stroke-width: 1.0;"/><polygon fill="#A80036" points="262.07,333.9,266.07,324.9,262.07,328.9,258.07,324.9,262.07,333.9" style="stroke: #A80036; stroke-width: 1.0;"/><text fill="#000000" font-family="sans-serif" font-size="13" lengthAdjust="spacingAndGlyphs" textLength="108" x="280.8906" y="322.6052">CategoryConverter</text><path d="M272.14,274.1 C272.14,274.1 272.14,328.9 272.14,328.9 " fill="none" style="stroke: #A80036; stroke-width: 1.0;"/><polygon fill="#A80036" points="272.14,333.9,276.14,324.9,272.14,328.9,268.14,324.9,272.14,333.9" style="stroke: #A80036; stroke-width: 1.0;"/><text fill="#000000" font-family="sans-serif" font-size="13" lengthAdjust="spacingAndGlyphs" textLength="103" x="114.26" y="322.3521">ChildrenConverter</text><path d="M282.21,274.1 C282.21,274.1 282.21,328.9 282.21,328.9 " fill="none" style="stroke: #A80036; stroke-width: 1.0;"/><polygon fill="#A80036" points="282.21,333.9,286.21,324.9,282.21,328.9,278.21,324.9,282.21,333.9" style="stroke: #A80036; stroke-width: 1.0;"/><text fill="#000000" font-family="sans-serif" font-size="13" lengthAdjust="spacingAndGlyphs" textLength="111" x="307.3873" y="322.6052">HierarchyConverter</text><path d="M292.29,274.1 C292.29,274.1 292.29,328.9 292.29,328.9 " fill="none" style="stroke: #A80036; stroke-width: 1.0;"/><polygon fill="#A80036" points="292.29,333.9,296.29,324.9,292.29,328.9,288.29,324.9,292.29,333.9" style="stroke: #A80036; stroke-width: 1.0;"/><text fill="#000000" font-family="sans-serif" font-size="13" lengthAdjust="spacingAndGlyphs" textLength="121" x="253.2162" y="323.8594">HierarchiesConverter</text><path d="M302.36,274.1 C302.36,274.1 302.36,328.9 302.36,328.9 " fill="none" style="stroke: #A80036; stroke-width: 1.0;"/><polygon fill="#A80036" points="302.36,333.9,306.36,324.9,302.36,328.9,298.36,324.9,302.36,333.9" style="stroke: #A80036; stroke-width: 1.0;"/><text fill="#000000" font-family="sans-serif" font-size="13" lengthAdjust="spacingAndGlyphs" textLength="104" x="329.8693" y="323.3177">SettingsConverter</text><path d="M312.43,274.1 C312.43,274.1 312.43,328.9 312.43,328.9 " fill="none" style="stroke: #A80036; stroke-width: 1.0;"/><polygon fill="#A80036" points="312.43,333.9,316.43,324.9,312.43,328.9,308.43,324.9,312.43,333.9" style="stroke: #A80036; stroke-width: 1.0;"/><text fill="#000000" font-family="sans-serif" font-size="13" lengthAdjust="spacingAndGlyphs" textLength="132" x="322.9457" y="324.0001">ConfigurationConverter</text><path d="M340,274.1 C340,318.09 340,356 340,356 C340,356 352.37,356 352.37,356 " fill="none" style="stroke: #A80036; stroke-width: 1.0; stroke-dasharray: 7.0,7.0;"/><polygon fill="#A80036" points="357.37,356,348.37,352,352.37,356,348.37,360,357.37,356" style="stroke: #A80036; stroke-width: 1.0;"/></g></svg>