<?xml version="1.0" encoding="UTF-8" standalone="no"?><svg xmlns="http://www.w3.org/2000/svg" xmlns:xlink="http://www.w3.org/1999/xlink" contentScriptType="application/ecmascript" contentStyleType="text/css" height="308px" preserveAspectRatio="none" style="width:455px;height:308px;" version="1.1" viewBox="0 0 455 308" width="455px" zoomAndPan="magnify"><defs><filter height="300%" id="fg5jk8w" width="300%" x="-1" y="-1"><feGaussianBlur result="blurOut" stdDeviation="2.0"/><feColorMatrix in="blurOut" result="blurOut2" type="matrix" values="0 0 0 0 0 0 0 0 0 0 0 0 0 0 0 0 0 0 .4 0"/><feOffset dx="4.0" dy="4.0" in="blurOut2" result="blurOut3"/><feBlend in="SourceGraphic" in2="blurOut3" mode="normal"/></filter></defs><g><!--class it.matlice.ingsw.model.data.impl.jdbc.XMLImport.ConfigurationXML--><a target="_parent" xlink:actuate="onRequest" xlink:href="../../../../../../../it/matlice/ingsw/model/data/impl/jdbc/XMLImport.ConfigurationXML.html" xlink:show="new" xlink:title="it.matlice.ingsw.model.data.impl.jdbc.XMLImport.ConfigurationXML" xlink:type="simple"><rect fill="#FEFECE" filter="url(#fg5jk8w)" height="94.3996" style="stroke: #A80036; stroke-width: 1.5;" width="437" x="6" y="107"/><ellipse cx="118.75" cy="126.4" fill="#ADD1B2" rx="11" ry="11" style="stroke: #A80036; stroke-width: 1.0;"/><path d="M113.75,127.5562 C113.75,130.0562 115.8906,131.8687 118.8125,131.8687 C120.0469,131.8687 121.2188,131.5718 121.9688,131.0562 C122.5781,130.6343 122.9063,130.2125 122.9063,129.8062 C122.9063,129.3375 122.4844,128.9312 121.9844,128.9312 C121.75,128.9312 121.5313,129.0093 121.3281,129.2125 C120.8906,129.65 120.8906,129.65 120.7188,129.7437 C120.2656,129.9781 119.625,130.1187 118.8594,130.1187 C116.8594,130.1187 115.5781,129.1031 115.5781,127.525 L115.5781,126.4781 C115.5781,124.775 116.7969,123.5718 118.5,123.5718 C119.0781,123.5718 119.6563,123.7125 120.125,123.9625 C120.5938,124.2281 120.7656,124.4156 120.8281,124.775 C120.9531,125.4468 121.2031,125.6968 121.7344,125.6968 C122.0156,125.6968 122.2969,125.5562 122.4844,125.3375 C122.6094,125.1656 122.6563,124.9937 122.6563,124.5562 L122.6563,123.1968 C122.6563,122.775 122.6406,122.6343 122.5156,122.4625 C122.3438,122.2125 122.0625,122.0562 121.7344,122.0562 C121.4219,122.0562 121.2188,122.1656 121,122.4312 C119.8281,121.9312 119.3906,121.8218 118.4375,121.8218 C115.7656,121.8218 113.75,123.8375 113.75,126.4625 L113.75,127.5562 Z "/><text fill="#000000" font-family="sans-serif" font-size="14" font-weight="bold" lengthAdjust="spacingAndGlyphs" textLength="203" x="139.25" y="125.0059">XMLImport.ConfigurationXML</text><text fill="#000000" font-family="sans-serif" font-size="10" lengthAdjust="spacingAndGlyphs" textLength="167" x="157.25" y="138.0899">it.matlice.ingsw.model.data.impl.jdbc</text><line style="stroke: #A80036; stroke-width: 1.5;" x1="7" x2="442" y1="145.7999" y2="145.7999"/><ellipse cx="17" cy="157.8999" fill="none" rx="3" ry="3" style="stroke: #038048; stroke-width: 1.0;"/><text fill="#000000" font-family="sans-serif" font-size="11" lengthAdjust="spacingAndGlyphs" textLength="158" x="26" y="160.0188">XMLImport.SettingsXML settings</text><ellipse cx="17" cy="171.0998" fill="none" rx="3" ry="3" style="stroke: #038048; stroke-width: 1.0;"/><text fill="#000000" font-family="sans-serif" font-size="11" lengthAdjust="spacingAndGlyphs" textLength="156" x="26" y="173.2187">List&lt;HierarchyXML&gt; hierarchies</text><line style="stroke: #A80036; stroke-width: 1.5;" x1="7" x2="442" y1="180.1997" y2="180.1997"/><ellipse cx="17" cy="192.2997" fill="#84BE84" rx="3" ry="3" style="stroke: #038048; stroke-width: 1.0;"/><text fill="#000000" font-family="sans-serif" font-size="11" lengthAdjust="spacingAndGlyphs" textLength="411" x="26" y="194.4186">ConfigurationXML(XMLImport.SettingsXML settings,List&lt;HierarchyXML&gt; hierarchies)</text></a><!--class it.matlice.ingsw.model.data.impl.jdbc.XMLImport--><a target="_parent" xlink:actuate="onRequest" xlink:href="../../../../../../../it/matlice/ingsw/model/data/impl/jdbc/XMLImport.html" xlink:show="new" xlink:title="it.matlice.ingsw.model.data.impl.jdbc.XMLImport" xlink:type="simple"><rect fill="#FEFECE" filter="url(#fg5jk8w)" height="38.7999" style="stroke: #A80036; stroke-width: 1.5;" width="199" x="125" y="8"/><ellipse cx="140" cy="27.4" fill="#ADD1B2" rx="11" ry="11" style="stroke: #A80036; stroke-width: 1.0;"/><path d="M135,28.5562 C135,31.0562 137.1406,32.8687 140.0625,32.8687 C141.2969,32.8687 142.4688,32.5718 143.2188,32.0562 C143.8281,31.6343 144.1563,31.2125 144.1563,30.8062 C144.1563,30.3375 143.7344,29.9312 143.2344,29.9312 C143,29.9312 142.7813,30.0093 142.5781,30.2125 C142.1406,30.65 142.1406,30.65 141.9688,30.7437 C141.5156,30.9781 140.875,31.1187 140.1094,31.1187 C138.1094,31.1187 136.8281,30.1031 136.8281,28.525 L136.8281,27.4781 C136.8281,25.775 138.0469,24.5718 139.75,24.5718 C140.3281,24.5718 140.9063,24.7125 141.375,24.9625 C141.8438,25.2281 142.0156,25.4156 142.0781,25.775 C142.2031,26.4468 142.4531,26.6968 142.9844,26.6968 C143.2656,26.6968 143.5469,26.5562 143.7344,26.3375 C143.8594,26.1656 143.9063,25.9937 143.9063,25.5562 L143.9063,24.1968 C143.9063,23.775 143.8906,23.6343 143.7656,23.4625 C143.5938,23.2125 143.3125,23.0562 142.9844,23.0562 C142.6719,23.0562 142.4688,23.1656 142.25,23.4312 C141.0781,22.9312 140.6406,22.8218 139.6875,22.8218 C137.0156,22.8218 135,24.8375 135,27.4625 L135,28.5562 Z "/><text fill="#000000" font-family="sans-serif" font-size="14" font-weight="bold" lengthAdjust="spacingAndGlyphs" textLength="74" x="200.5" y="26.0059">XMLImport</text><text fill="#000000" font-family="sans-serif" font-size="10" lengthAdjust="spacingAndGlyphs" textLength="167" x="154" y="39.0899">it.matlice.ingsw.model.data.impl.jdbc</text></a><!--class it.matlice.ingsw.model.data.impl.jdbc.XMLImport.SettingsXML--><a target="_parent" xlink:actuate="onRequest" xlink:href="../../../../../../../it/matlice/ingsw/model/data/impl/jdbc/XMLImport.SettingsXML.html" xlink:show="new" xlink:title="it.matlice.ingsw.model.data.impl.jdbc.XMLImport.SettingsXML" xlink:type="simple"><rect fill="#FEFECE" filter="url(#fg5jk8w)" height="38.7999" style="stroke: #A80036; stroke-width: 1.5;" width="199" x="7" y="261"/><ellipse cx="22" cy="280.4" fill="#ADD1B2" rx="11" ry="11" style="stroke: #A80036; stroke-width: 1.0;"/><path d="M17,281.5562 C17,284.0562 19.1406,285.8687 22.0625,285.8687 C23.2969,285.8687 24.4688,285.5718 25.2188,285.0562 C25.8281,284.6343 26.1563,284.2125 26.1563,283.8062 C26.1563,283.3375 25.7344,282.9312 25.2344,282.9312 C25,282.9312 24.7813,283.0093 24.5781,283.2125 C24.1406,283.65 24.1406,283.65 23.9688,283.7437 C23.5156,283.9781 22.875,284.1187 22.1094,284.1187 C20.1094,284.1187 18.8281,283.1031 18.8281,281.525 L18.8281,280.4781 C18.8281,278.775 20.0469,277.5718 21.75,277.5718 C22.3281,277.5718 22.9063,277.7125 23.375,277.9625 C23.8438,278.2281 24.0156,278.4156 24.0781,278.775 C24.2031,279.4468 24.4531,279.6968 24.9844,279.6968 C25.2656,279.6968 25.5469,279.5562 25.7344,279.3375 C25.8594,279.1656 25.9063,278.9937 25.9063,278.5562 L25.9063,277.1968 C25.9063,276.775 25.8906,276.6343 25.7656,276.4625 C25.5938,276.2125 25.3125,276.0562 24.9844,276.0562 C24.6719,276.0562 24.4688,276.1656 24.25,276.4312 C23.0781,275.9312 22.6406,275.8218 21.6875,275.8218 C19.0156,275.8218 17,277.8375 17,280.4625 L17,281.5562 Z "/><text fill="#000000" font-family="sans-serif" font-size="14" font-weight="bold" lengthAdjust="spacingAndGlyphs" textLength="165" x="37" y="279.0059">XMLImport.SettingsXML</text><text fill="#000000" font-family="sans-serif" font-size="10" lengthAdjust="spacingAndGlyphs" textLength="167" x="36" y="292.0899">it.matlice.ingsw.model.data.impl.jdbc</text></a><!--class it.matlice.ingsw.model.data.impl.jdbc.XMLImport.HierarchyXML--><a target="_parent" xlink:actuate="onRequest" xlink:href="../../../../../../../it/matlice/ingsw/model/data/impl/jdbc/XMLImport.HierarchyXML.html" xlink:show="new" xlink:title="it.matlice.ingsw.model.data.impl.jdbc.XMLImport.HierarchyXML" xlink:type="simple"><rect fill="#FEFECE" filter="url(#fg5jk8w)" height="38.7999" style="stroke: #A80036; stroke-width: 1.5;" width="205" x="241" y="261"/><ellipse cx="256" cy="280.4" fill="#ADD1B2" rx="11" ry="11" style="stroke: #A80036; stroke-width: 1.0;"/><path d="M251,281.5562 C251,284.0562 253.1406,285.8687 256.0625,285.8687 C257.2969,285.8687 258.4688,285.5718 259.2188,285.0562 C259.8281,284.6343 260.1563,284.2125 260.1563,283.8062 C260.1563,283.3375 259.7344,282.9312 259.2344,282.9312 C259,282.9312 258.7813,283.0093 258.5781,283.2125 C258.1406,283.65 258.1406,283.65 257.9688,283.7437 C257.5156,283.9781 256.875,284.1187 256.1094,284.1187 C254.1094,284.1187 252.8281,283.1031 252.8281,281.525 L252.8281,280.4781 C252.8281,278.775 254.0469,277.5718 255.75,277.5718 C256.3281,277.5718 256.9063,277.7125 257.375,277.9625 C257.8438,278.2281 258.0156,278.4156 258.0781,278.775 C258.2031,279.4468 258.4531,279.6968 258.9844,279.6968 C259.2656,279.6968 259.5469,279.5562 259.7344,279.3375 C259.8594,279.1656 259.9063,278.9937 259.9063,278.5562 L259.9063,277.1968 C259.9063,276.775 259.8906,276.6343 259.7656,276.4625 C259.5938,276.2125 259.3125,276.0562 258.9844,276.0562 C258.6719,276.0562 258.4688,276.1656 258.25,276.4312 C257.0781,275.9312 256.6406,275.8218 255.6875,275.8218 C253.0156,275.8218 251,277.8375 251,280.4625 L251,281.5562 Z "/><text fill="#000000" font-family="sans-serif" font-size="14" font-weight="bold" lengthAdjust="spacingAndGlyphs" textLength="173" x="270" y="279.0059">XMLImport.HierarchyXML</text><text fill="#000000" font-family="sans-serif" font-size="10" lengthAdjust="spacingAndGlyphs" textLength="167" x="273" y="292.0899">it.matlice.ingsw.model.data.impl.jdbc</text></a><path d="M224.5,47.27 C224.5,47.27 224.5,101.81 224.5,101.81 " fill="none" style="stroke: #A80036; stroke-width: 1.0; stroke-dasharray: 7.0,7.0;"/><polygon fill="#A80036" points="224.5,106.81,228.5,97.81,224.5,101.81,220.5,97.81,224.5,106.81" style="stroke: #A80036; stroke-width: 1.0;"/><path d="M106.5,201.1 C106.5,201.1 106.5,255.81 106.5,255.81 " fill="none" style="stroke: #A80036; stroke-width: 1.0;"/><polygon fill="#A80036" points="106.5,260.81,110.5,251.81,106.5,255.81,102.5,251.81,106.5,260.81" style="stroke: #A80036; stroke-width: 1.0;"/><text fill="#000000" font-family="sans-serif" font-size="13" lengthAdjust="spacingAndGlyphs" textLength="46" x="53.1687" y="249.3477">settings</text><path d="M342,201.1 C342,201.1 342,255.81 342,255.81 " fill="none" style="stroke: #A80036; stroke-width: 1.0;"/><polygon fill="#A80036" points="342,260.81,346,251.81,342,255.81,338,251.81,342,260.81" style="stroke: #A80036; stroke-width: 1.0;"/><text fill="#000000" font-family="sans-serif" font-size="13" lengthAdjust="spacingAndGlyphs" textLength="72" x="258.0469" y="249.3477">hierarchies *</text></g></svg>