<?xml version="1.0" encoding="UTF-8" standalone="no"?><svg xmlns="http://www.w3.org/2000/svg" xmlns:xlink="http://www.w3.org/1999/xlink" contentScriptType="application/ecmascript" contentStyleType="text/css" height="335px" preserveAspectRatio="none" style="width:537px;height:335px;" version="1.1" viewBox="0 0 537 335" width="537px" zoomAndPan="magnify"><defs><filter height="300%" id="f0ujfil" width="300%" x="-1" y="-1"><feGaussianBlur result="blurOut" stdDeviation="2.0"/><feColorMatrix in="blurOut" result="blurOut2" type="matrix" values="0 0 0 0 0 0 0 0 0 0 0 0 0 0 0 0 0 0 .4 0"/><feOffset dx="4.0" dy="4.0" in="blurOut2" result="blurOut3"/><feBlend in="SourceGraphic" in2="blurOut3" mode="normal"/></filter></defs><g><!--class it.matlice.ingsw.model.data.impl.jdbc.XMLImport.CategoryXML--><a target="_parent" xlink:actuate="onRequest" xlink:href="../../../../../../../it/matlice/ingsw/model/data/impl/jdbc/XMLImport.CategoryXML.html" xlink:show="new" xlink:title="it.matlice.ingsw.model.data.impl.jdbc.XMLImport.CategoryXML" xlink:type="simple"><rect fill="#FEFECE" filter="url(#f0ujfil)" height="120.7994" style="stroke: #A80036; stroke-width: 1.5;" width="504" x="24" y="107"/><ellipse cx="186.75" cy="126.4" fill="#ADD1B2" rx="11" ry="11" style="stroke: #A80036; stroke-width: 1.0;"/><path d="M181.75,127.5562 C181.75,130.0562 183.8906,131.8687 186.8125,131.8687 C188.0469,131.8687 189.2188,131.5718 189.9688,131.0562 C190.5781,130.6343 190.9063,130.2125 190.9063,129.8062 C190.9063,129.3375 190.4844,128.9312 189.9844,128.9312 C189.75,128.9312 189.5313,129.0093 189.3281,129.2125 C188.8906,129.65 188.8906,129.65 188.7188,129.7437 C188.2656,129.9781 187.625,130.1187 186.8594,130.1187 C184.8594,130.1187 183.5781,129.1031 183.5781,127.525 L183.5781,126.4781 C183.5781,124.775 184.7969,123.5718 186.5,123.5718 C187.0781,123.5718 187.6563,123.7125 188.125,123.9625 C188.5938,124.2281 188.7656,124.4156 188.8281,124.775 C188.9531,125.4468 189.2031,125.6968 189.7344,125.6968 C190.0156,125.6968 190.2969,125.5562 190.4844,125.3375 C190.6094,125.1656 190.6563,124.9937 190.6563,124.5562 L190.6563,123.1968 C190.6563,122.775 190.6406,122.6343 190.5156,122.4625 C190.3438,122.2125 190.0625,122.0562 189.7344,122.0562 C189.4219,122.0562 189.2188,122.1656 189,122.4312 C187.8281,121.9312 187.3906,121.8218 186.4375,121.8218 C183.7656,121.8218 181.75,123.8375 181.75,126.4625 L181.75,127.5562 Z "/><text fill="#000000" font-family="sans-serif" font-size="14" font-weight="bold" lengthAdjust="spacingAndGlyphs" textLength="170" x="207.25" y="125.0059">XMLImport.CategoryXML</text><text fill="#000000" font-family="sans-serif" font-size="10" lengthAdjust="spacingAndGlyphs" textLength="167" x="208.75" y="138.0899">it.matlice.ingsw.model.data.impl.jdbc</text><line style="stroke: #A80036; stroke-width: 1.5;" x1="25" x2="527" y1="145.7999" y2="145.7999"/><ellipse cx="35" cy="157.8999" fill="none" rx="3" ry="3" style="stroke: #038048; stroke-width: 1.0;"/><text fill="#000000" font-family="sans-serif" font-size="11" lengthAdjust="spacingAndGlyphs" textLength="58" x="44" y="160.0188">String name</text><ellipse cx="35" cy="171.0998" fill="none" rx="3" ry="3" style="stroke: #038048; stroke-width: 1.0;"/><text fill="#000000" font-family="sans-serif" font-size="11" lengthAdjust="spacingAndGlyphs" textLength="84" x="44" y="173.2187">String description</text><ellipse cx="35" cy="184.2997" fill="none" rx="3" ry="3" style="stroke: #038048; stroke-width: 1.0;"/><text fill="#000000" font-family="sans-serif" font-size="11" lengthAdjust="spacingAndGlyphs" textLength="102" x="44" y="186.4186">List&lt;FieldXML&gt; fields</text><ellipse cx="35" cy="197.4996" fill="none" rx="3" ry="3" style="stroke: #038048; stroke-width: 1.0;"/><text fill="#000000" font-family="sans-serif" font-size="11" lengthAdjust="spacingAndGlyphs" textLength="150" x="44" y="199.6185">List&lt;CategoryXML&gt; categories</text><line style="stroke: #A80036; stroke-width: 1.5;" x1="25" x2="527" y1="206.5995" y2="206.5995"/><ellipse cx="35" cy="218.6995" fill="#84BE84" rx="3" ry="3" style="stroke: #038048; stroke-width: 1.0;"/><text fill="#000000" font-family="sans-serif" font-size="11" lengthAdjust="spacingAndGlyphs" textLength="478" x="44" y="220.8184">CategoryXML(String name,String description,List&lt;FieldXML&gt; fields,List&lt;CategoryXML&gt; categories)</text></a><!--class it.matlice.ingsw.model.data.impl.jdbc.XMLImport.FieldXML--><a target="_parent" xlink:actuate="onRequest" xlink:href="../../../../../../../it/matlice/ingsw/model/data/impl/jdbc/XMLImport.FieldXML.html" xlink:show="new" xlink:title="it.matlice.ingsw.model.data.impl.jdbc.XMLImport.FieldXML" xlink:type="simple"><rect fill="#FEFECE" filter="url(#f0ujfil)" height="38.7999" style="stroke: #A80036; stroke-width: 1.5;" width="199" x="176.5" y="288"/><ellipse cx="191.5" cy="307.4" fill="#ADD1B2" rx="11" ry="11" style="stroke: #A80036; stroke-width: 1.0;"/><path d="M186.5,308.5562 C186.5,311.0562 188.6406,312.8687 191.5625,312.8687 C192.7969,312.8687 193.9688,312.5718 194.7188,312.0562 C195.3281,311.6343 195.6563,311.2125 195.6563,310.8062 C195.6563,310.3375 195.2344,309.9312 194.7344,309.9312 C194.5,309.9312 194.2813,310.0093 194.0781,310.2125 C193.6406,310.65 193.6406,310.65 193.4688,310.7437 C193.0156,310.9781 192.375,311.1187 191.6094,311.1187 C189.6094,311.1187 188.3281,310.1031 188.3281,308.525 L188.3281,307.4781 C188.3281,305.775 189.5469,304.5718 191.25,304.5718 C191.8281,304.5718 192.4063,304.7125 192.875,304.9625 C193.3438,305.2281 193.5156,305.4156 193.5781,305.775 C193.7031,306.4468 193.9531,306.6968 194.4844,306.6968 C194.7656,306.6968 195.0469,306.5562 195.2344,306.3375 C195.3594,306.1656 195.4063,305.9937 195.4063,305.5562 L195.4063,304.1968 C195.4063,303.775 195.3906,303.6343 195.2656,303.4625 C195.0938,303.2125 194.8125,303.0562 194.4844,303.0562 C194.1719,303.0562 193.9688,303.1656 193.75,303.4312 C192.5781,302.9312 192.1406,302.8218 191.1875,302.8218 C188.5156,302.8218 186.5,304.8375 186.5,307.4625 L186.5,308.5562 Z "/><text fill="#000000" font-family="sans-serif" font-size="14" font-weight="bold" lengthAdjust="spacingAndGlyphs" textLength="142" x="218" y="306.0059">XMLImport.FieldXML</text><text fill="#000000" font-family="sans-serif" font-size="10" lengthAdjust="spacingAndGlyphs" textLength="167" x="205.5" y="319.0899">it.matlice.ingsw.model.data.impl.jdbc</text></a><!--class it.matlice.ingsw.model.data.impl.jdbc.XMLImport.HierarchyXML--><a target="_parent" xlink:actuate="onRequest" xlink:href="../../../../../../../it/matlice/ingsw/model/data/impl/jdbc/XMLImport.HierarchyXML.html" xlink:show="new" xlink:title="it.matlice.ingsw.model.data.impl.jdbc.XMLImport.HierarchyXML" xlink:type="simple"><rect fill="#FEFECE" filter="url(#f0ujfil)" height="38.7999" style="stroke: #A80036; stroke-width: 1.5;" width="205" x="173.5" y="8"/><ellipse cx="188.5" cy="27.4" fill="#ADD1B2" rx="11" ry="11" style="stroke: #A80036; stroke-width: 1.0;"/><path d="M183.5,28.5562 C183.5,31.0562 185.6406,32.8687 188.5625,32.8687 C189.7969,32.8687 190.9688,32.5718 191.7188,32.0562 C192.3281,31.6343 192.6563,31.2125 192.6563,30.8062 C192.6563,30.3375 192.2344,29.9312 191.7344,29.9312 C191.5,29.9312 191.2813,30.0093 191.0781,30.2125 C190.6406,30.65 190.6406,30.65 190.4688,30.7437 C190.0156,30.9781 189.375,31.1187 188.6094,31.1187 C186.6094,31.1187 185.3281,30.1031 185.3281,28.525 L185.3281,27.4781 C185.3281,25.775 186.5469,24.5718 188.25,24.5718 C188.8281,24.5718 189.4063,24.7125 189.875,24.9625 C190.3438,25.2281 190.5156,25.4156 190.5781,25.775 C190.7031,26.4468 190.9531,26.6968 191.4844,26.6968 C191.7656,26.6968 192.0469,26.5562 192.2344,26.3375 C192.3594,26.1656 192.4063,25.9937 192.4063,25.5562 L192.4063,24.1968 C192.4063,23.775 192.3906,23.6343 192.2656,23.4625 C192.0938,23.2125 191.8125,23.0562 191.4844,23.0562 C191.1719,23.0562 190.9688,23.1656 190.75,23.4312 C189.5781,22.9312 189.1406,22.8218 188.1875,22.8218 C185.5156,22.8218 183.5,24.8375 183.5,27.4625 L183.5,28.5562 Z "/><text fill="#000000" font-family="sans-serif" font-size="14" font-weight="bold" lengthAdjust="spacingAndGlyphs" textLength="173" x="202.5" y="26.0059">XMLImport.HierarchyXML</text><text fill="#000000" font-family="sans-serif" font-size="10" lengthAdjust="spacingAndGlyphs" textLength="167" x="205.5" y="39.0899">it.matlice.ingsw.model.data.impl.jdbc</text></a><path d="M276,228.09 C276,228.09 276,282.75 276,282.75 " fill="none" style="stroke: #A80036; stroke-width: 1.0;"/><polygon fill="#A80036" points="276,287.75,280,278.75,276,282.75,272,278.75,276,287.75" style="stroke: #A80036; stroke-width: 1.0;"/><text fill="#000000" font-family="sans-serif" font-size="13" lengthAdjust="spacingAndGlyphs" textLength="40" x="229.875" y="276.6042">fields *</text><path d="M98.75,106.88 C98.75,90.4 98.75,77 98.75,77 C98.75,77 6,77 6,77 C6,77 6,258 6,258 C6,258 100.25,258 100.25,258 C100.25,258 100.25,233.12 100.25,233.12 " fill="none" style="stroke: #A80036; stroke-width: 1.0;"/><polygon fill="#A80036" points="100.25,228.12,96.25,237.12,100.25,233.12,104.25,237.12,100.25,228.12" style="stroke: #A80036; stroke-width: 1.0;"/><text fill="#000000" font-family="sans-serif" font-size="13" lengthAdjust="spacingAndGlyphs" textLength="69" x="8.2539" y="247.6914">categories *</text><path d="M276,47.26 C276,47.26 276,101.94 276,101.94 " fill="none" style="stroke: #A80036; stroke-width: 1.0;"/><polygon fill="#A80036" points="276,106.94,280,97.94,276,101.94,272,97.94,276,106.94" style="stroke: #A80036; stroke-width: 1.0;"/><text fill="#000000" font-family="sans-serif" font-size="13" lengthAdjust="spacingAndGlyphs" textLength="22" x="252.5906" y="95.3481">root</text></g></svg>