<?xml version="1.0" encoding="UTF-8" standalone="no"?><svg xmlns="http://www.w3.org/2000/svg" xmlns:xlink="http://www.w3.org/1999/xlink" contentScriptType="application/ecmascript" contentStyleType="text/css" height="295px" preserveAspectRatio="none" style="width:264px;height:295px;" version="1.1" viewBox="0 0 264 295" width="264px" zoomAndPan="magnify"><defs><filter height="300%" id="f9z49vl" width="300%" x="-1" y="-1"><feGaussianBlur result="blurOut" stdDeviation="2.0"/><feColorMatrix in="blurOut" result="blurOut2" type="matrix" values="0 0 0 0 0 0 0 0 0 0 0 0 0 0 0 0 0 0 .4 0"/><feOffset dx="4.0" dy="4.0" in="blurOut2" result="blurOut3"/><feBlend in="SourceGraphic" in2="blurOut3" mode="normal"/></filter></defs><g><!--class it.matlice.ingsw.model.data.impl.jdbc.XMLImport.HierarchyXML--><a target="_parent" xlink:actuate="onRequest" xlink:href="../../../../../../../it/matlice/ingsw/model/data/impl/jdbc/XMLImport.HierarchyXML.html" xlink:show="new" xlink:title="it.matlice.ingsw.model.data.impl.jdbc.XMLImport.HierarchyXML" xlink:type="simple"><rect fill="#FEFECE" filter="url(#f9z49vl)" height="81.1997" style="stroke: #A80036; stroke-width: 1.5;" width="249" x="6" y="107"/><ellipse cx="40.8" cy="126.4" fill="#ADD1B2" rx="11" ry="11" style="stroke: #A80036; stroke-width: 1.0;"/><path d="M35.8,127.5562 C35.8,130.0562 37.9406,131.8687 40.8625,131.8687 C42.0969,131.8687 43.2688,131.5718 44.0188,131.0562 C44.6281,130.6343 44.9563,130.2125 44.9563,129.8062 C44.9563,129.3375 44.5344,128.9312 44.0344,128.9312 C43.8,128.9312 43.5813,129.0093 43.3781,129.2125 C42.9406,129.65 42.9406,129.65 42.7688,129.7437 C42.3156,129.9781 41.675,130.1187 40.9094,130.1187 C38.9094,130.1187 37.6281,129.1031 37.6281,127.525 L37.6281,126.4781 C37.6281,124.775 38.8469,123.5718 40.55,123.5718 C41.1281,123.5718 41.7063,123.7125 42.175,123.9625 C42.6438,124.2281 42.8156,124.4156 42.8781,124.775 C43.0031,125.4468 43.2531,125.6968 43.7844,125.6968 C44.0656,125.6968 44.3469,125.5562 44.5344,125.3375 C44.6594,125.1656 44.7063,124.9937 44.7063,124.5562 L44.7063,123.1968 C44.7063,122.775 44.6906,122.6343 44.5656,122.4625 C44.3938,122.2125 44.1125,122.0562 43.7844,122.0562 C43.4719,122.0562 43.2688,122.1656 43.05,122.4312 C41.8781,121.9312 41.4406,121.8218 40.4875,121.8218 C37.8156,121.8218 35.8,123.8375 35.8,126.4625 L35.8,127.5562 Z "/><text fill="#000000" font-family="sans-serif" font-size="14" font-weight="bold" lengthAdjust="spacingAndGlyphs" textLength="173" x="59.2" y="125.0059">XMLImport.HierarchyXML</text><text fill="#000000" font-family="sans-serif" font-size="10" lengthAdjust="spacingAndGlyphs" textLength="167" x="62.2" y="138.0899">it.matlice.ingsw.model.data.impl.jdbc</text><line style="stroke: #A80036; stroke-width: 1.5;" x1="7" x2="254" y1="145.7999" y2="145.7999"/><ellipse cx="17" cy="157.8999" fill="none" rx="3" ry="3" style="stroke: #038048; stroke-width: 1.0;"/><text fill="#000000" font-family="sans-serif" font-size="11" lengthAdjust="spacingAndGlyphs" textLength="145" x="26" y="160.0188">XMLImport.CategoryXML root</text><line style="stroke: #A80036; stroke-width: 1.5;" x1="7" x2="254" y1="166.9998" y2="166.9998"/><ellipse cx="17" cy="179.0998" fill="#84BE84" rx="3" ry="3" style="stroke: #038048; stroke-width: 1.0;"/><text fill="#000000" font-family="sans-serif" font-size="11" lengthAdjust="spacingAndGlyphs" textLength="223" x="26" y="181.2187">HierarchyXML(XMLImport.CategoryXML root)</text></a><!--class it.matlice.ingsw.model.data.impl.jdbc.XMLImport.ConfigurationXML--><a target="_parent" xlink:actuate="onRequest" xlink:href="../../../../../../../it/matlice/ingsw/model/data/impl/jdbc/XMLImport.ConfigurationXML.html" xlink:show="new" xlink:title="it.matlice.ingsw.model.data.impl.jdbc.XMLImport.ConfigurationXML" xlink:type="simple"><rect fill="#FEFECE" filter="url(#f9z49vl)" height="38.7999" style="stroke: #A80036; stroke-width: 1.5;" width="235" x="13" y="8"/><ellipse cx="28" cy="27.4" fill="#ADD1B2" rx="11" ry="11" style="stroke: #A80036; stroke-width: 1.0;"/><path d="M23,28.5562 C23,31.0562 25.1406,32.8687 28.0625,32.8687 C29.2969,32.8687 30.4688,32.5718 31.2188,32.0562 C31.8281,31.6343 32.1563,31.2125 32.1563,30.8062 C32.1563,30.3375 31.7344,29.9312 31.2344,29.9312 C31,29.9312 30.7813,30.0093 30.5781,30.2125 C30.1406,30.65 30.1406,30.65 29.9688,30.7437 C29.5156,30.9781 28.875,31.1187 28.1094,31.1187 C26.1094,31.1187 24.8281,30.1031 24.8281,28.525 L24.8281,27.4781 C24.8281,25.775 26.0469,24.5718 27.75,24.5718 C28.3281,24.5718 28.9063,24.7125 29.375,24.9625 C29.8438,25.2281 30.0156,25.4156 30.0781,25.775 C30.2031,26.4468 30.4531,26.6968 30.9844,26.6968 C31.2656,26.6968 31.5469,26.5562 31.7344,26.3375 C31.8594,26.1656 31.9063,25.9937 31.9063,25.5562 L31.9063,24.1968 C31.9063,23.775 31.8906,23.6343 31.7656,23.4625 C31.5938,23.2125 31.3125,23.0562 30.9844,23.0562 C30.6719,23.0562 30.4688,23.1656 30.25,23.4312 C29.0781,22.9312 28.6406,22.8218 27.6875,22.8218 C25.0156,22.8218 23,24.8375 23,27.4625 L23,28.5562 Z "/><text fill="#000000" font-family="sans-serif" font-size="14" font-weight="bold" lengthAdjust="spacingAndGlyphs" textLength="203" x="42" y="26.0059">XMLImport.ConfigurationXML</text><text fill="#000000" font-family="sans-serif" font-size="10" lengthAdjust="spacingAndGlyphs" textLength="167" x="60" y="39.0899">it.matlice.ingsw.model.data.impl.jdbc</text></a><!--class it.matlice.ingsw.model.data.impl.jdbc.XMLImport.CategoryXML--><a target="_parent" xlink:actuate="onRequest" xlink:href="../../../../../../../it/matlice/ingsw/model/data/impl/jdbc/XMLImport.CategoryXML.html" xlink:show="new" xlink:title="it.matlice.ingsw.model.data.impl.jdbc.XMLImport.CategoryXML" xlink:type="simple"><rect fill="#FEFECE" filter="url(#f9z49vl)" height="38.7999" style="stroke: #A80036; stroke-width: 1.5;" width="202" x="29.5" y="248"/><ellipse cx="44.5" cy="267.4" fill="#ADD1B2" rx="11" ry="11" style="stroke: #A80036; stroke-width: 1.0;"/><path d="M39.5,268.5562 C39.5,271.0562 41.6406,272.8687 44.5625,272.8687 C45.7969,272.8687 46.9688,272.5718 47.7188,272.0562 C48.3281,271.6343 48.6563,271.2125 48.6563,270.8062 C48.6563,270.3375 48.2344,269.9312 47.7344,269.9312 C47.5,269.9312 47.2813,270.0093 47.0781,270.2125 C46.6406,270.65 46.6406,270.65 46.4688,270.7437 C46.0156,270.9781 45.375,271.1187 44.6094,271.1187 C42.6094,271.1187 41.3281,270.1031 41.3281,268.525 L41.3281,267.4781 C41.3281,265.775 42.5469,264.5718 44.25,264.5718 C44.8281,264.5718 45.4063,264.7125 45.875,264.9625 C46.3438,265.2281 46.5156,265.4156 46.5781,265.775 C46.7031,266.4468 46.9531,266.6968 47.4844,266.6968 C47.7656,266.6968 48.0469,266.5562 48.2344,266.3375 C48.3594,266.1656 48.4063,265.9937 48.4063,265.5562 L48.4063,264.1968 C48.4063,263.775 48.3906,263.6343 48.2656,263.4625 C48.0938,263.2125 47.8125,263.0562 47.4844,263.0562 C47.1719,263.0562 46.9688,263.1656 46.75,263.4312 C45.5781,262.9312 45.1406,262.8218 44.1875,262.8218 C41.5156,262.8218 39.5,264.8375 39.5,267.4625 L39.5,268.5562 Z "/><text fill="#000000" font-family="sans-serif" font-size="14" font-weight="bold" lengthAdjust="spacingAndGlyphs" textLength="170" x="58.5" y="266.0059">XMLImport.CategoryXML</text><text fill="#000000" font-family="sans-serif" font-size="10" lengthAdjust="spacingAndGlyphs" textLength="167" x="60" y="279.0899">it.matlice.ingsw.model.data.impl.jdbc</text></a><path d="M130.5,47.05 C130.5,47.05 130.5,101.57 130.5,101.57 " fill="none" style="stroke: #A80036; stroke-width: 1.0;"/><polygon fill="#A80036" points="130.5,106.57,134.5,97.57,130.5,101.57,126.5,97.57,130.5,106.57" style="stroke: #A80036; stroke-width: 1.0;"/><text fill="#000000" font-family="sans-serif" font-size="13" lengthAdjust="spacingAndGlyphs" textLength="72" x="52.3125" y="95.3575">hierarchies *</text><path d="M130.5,188.13 C130.5,188.13 130.5,242.79 130.5,242.79 " fill="none" style="stroke: #A80036; stroke-width: 1.0;"/><polygon fill="#A80036" points="130.5,247.79,134.5,238.79,130.5,242.79,126.5,238.79,130.5,247.79" style="stroke: #A80036; stroke-width: 1.0;"/><text fill="#000000" font-family="sans-serif" font-size="13" lengthAdjust="spacingAndGlyphs" textLength="22" x="104.9938" y="236.3213">root</text></g></svg>