<?xml version="1.0" encoding="UTF-8" standalone="no"?><svg xmlns="http://www.w3.org/2000/svg" xmlns:xlink="http://www.w3.org/1999/xlink" contentScriptType="application/ecmascript" contentStyleType="text/css" height="566px" preserveAspectRatio="none" style="width:574px;height:566px;" version="1.1" viewBox="0 0 574 566" width="574px" zoomAndPan="magnify"><defs><filter height="300%" id="f1bn428" width="300%" x="-1" y="-1"><feGaussianBlur result="blurOut" stdDeviation="2.0"/><feColorMatrix in="blurOut" result="blurOut2" type="matrix" values="0 0 0 0 0 0 0 0 0 0 0 0 0 0 0 0 0 0 .4 0"/><feOffset dx="4.0" dy="4.0" in="blurOut2" result="blurOut3"/><feBlend in="SourceGraphic" in2="blurOut3" mode="normal"/></filter></defs><g><!--class it.matlice.ingsw.tree.MapNode--><a target="_parent" xlink:actuate="onRequest" xlink:href="../../../../it/matlice/ingsw/tree/MapNode.html" xlink:show="new" xlink:title="it.matlice.ingsw.tree.MapNode" xlink:type="simple"><rect fill="#FEFECE" filter="url(#f1bn428)" height="345.1978" style="stroke: #A80036; stroke-width: 1.5;" width="278" x="63" y="110"/><ellipse cx="152.75" cy="129.4" fill="#ADD1B2" rx="11" ry="11" style="stroke: #A80036; stroke-width: 1.0;"/><path d="M147.75,130.5562 C147.75,133.0562 149.8906,134.8687 152.8125,134.8687 C154.0469,134.8687 155.2188,134.5718 155.9688,134.0562 C156.5781,133.6343 156.9063,133.2125 156.9063,132.8062 C156.9063,132.3375 156.4844,131.9312 155.9844,131.9312 C155.75,131.9312 155.5313,132.0093 155.3281,132.2125 C154.8906,132.65 154.8906,132.65 154.7188,132.7437 C154.2656,132.9781 153.625,133.1187 152.8594,133.1187 C150.8594,133.1187 149.5781,132.1031 149.5781,130.525 L149.5781,129.4781 C149.5781,127.775 150.7969,126.5718 152.5,126.5718 C153.0781,126.5718 153.6563,126.7125 154.125,126.9625 C154.5938,127.2281 154.7656,127.4156 154.8281,127.775 C154.9531,128.4468 155.2031,128.6968 155.7344,128.6968 C156.0156,128.6968 156.2969,128.5562 156.4844,128.3375 C156.6094,128.1656 156.6563,127.9937 156.6563,127.5562 L156.6563,126.1968 C156.6563,125.775 156.6406,125.6343 156.5156,125.4625 C156.3438,125.2125 156.0625,125.0562 155.7344,125.0562 C155.4219,125.0562 155.2188,125.1656 155,125.4312 C153.8281,124.9312 153.3906,124.8218 152.4375,124.8218 C149.7656,124.8218 147.75,126.8375 147.75,129.4625 L147.75,130.5562 Z "/><text fill="#000000" font-family="sans-serif" font-size="14" font-weight="bold" lengthAdjust="spacingAndGlyphs" textLength="65" x="185.75" y="128.0059">MapNode</text><text fill="#000000" font-family="sans-serif" font-size="10" lengthAdjust="spacingAndGlyphs" textLength="90" x="173.25" y="141.0899">it.matlice.ingsw.tree</text><line style="stroke: #A80036; stroke-width: 1.5;" x1="64" x2="340" y1="148.7999" y2="148.7999"/><rect fill="none" height="6" style="stroke: #C82930; stroke-width: 1.0;" width="6" x="71" y="157.8999"/><text fill="#000000" font-family="sans-serif" font-size="11" lengthAdjust="spacingAndGlyphs" textLength="178" x="83" y="163.0188">TreeMap&lt;String, MapNode&gt; children</text><rect fill="none" height="6" style="stroke: #C82930; stroke-width: 1.0;" width="6" x="71" y="171.0998"/><text fill="#000000" font-family="sans-serif" font-size="11" lengthAdjust="spacingAndGlyphs" textLength="179" x="83" y="176.2187">HashMap&lt;String, Integer&gt; duplicates</text><rect fill="none" height="6" style="stroke: #C82930; stroke-width: 1.0;" width="6" x="71" y="184.2997"/><text fill="#000000" font-family="sans-serif" font-size="11" lengthAdjust="spacingAndGlyphs" textLength="56" x="83" y="189.4186">Object data</text><rect fill="none" height="6" style="stroke: #C82930; stroke-width: 1.0;" width="6" x="71" y="197.4996"/><text fill="#000000" font-family="sans-serif" font-size="11" lengthAdjust="spacingAndGlyphs" textLength="100" x="83" y="202.6185">MapNode&lt;T&gt; parent</text><line style="stroke: #A80036; stroke-width: 1.5;" x1="64" x2="340" y1="209.5995" y2="209.5995"/><ellipse cx="74" cy="221.6995" fill="#84BE84" rx="3" ry="3" style="stroke: #038048; stroke-width: 1.0;"/><text fill="#000000" font-family="sans-serif" font-size="11" lengthAdjust="spacingAndGlyphs" textLength="111" x="83" y="223.8184">MapNode(Object data)</text><ellipse cx="74" cy="234.8994" fill="#84BE84" rx="3" ry="3" style="stroke: #038048; stroke-width: 1.0;"/><text fill="#000000" font-family="sans-serif" font-size="11" lengthAdjust="spacingAndGlyphs" textLength="228" x="83" y="237.0183">MapNode&lt;T&gt; addChild(String key,Object child)</text><ellipse cx="74" cy="248.0993" fill="#84BE84" rx="3" ry="3" style="stroke: #038048; stroke-width: 1.0;"/><text fill="#000000" font-family="sans-serif" font-size="11" lengthAdjust="spacingAndGlyphs" textLength="155" x="83" y="250.2182">Node&lt;T&gt; addChild(Object child)</text><ellipse cx="74" cy="261.2992" fill="#84BE84" rx="3" ry="3" style="stroke: #038048; stroke-width: 1.0;"/><text fill="#000000" font-family="sans-serif" font-size="11" lengthAdjust="spacingAndGlyphs" textLength="81" x="83" y="263.4182">Object getData()</text><ellipse cx="74" cy="274.4991" fill="#84BE84" rx="3" ry="3" style="stroke: #038048; stroke-width: 1.0;"/><text fill="#000000" font-family="sans-serif" font-size="11" lengthAdjust="spacingAndGlyphs" textLength="150" x="83" y="276.6181">Node&lt;T&gt; setData(Object data)</text><ellipse cx="74" cy="287.699" fill="#84BE84" rx="3" ry="3" style="stroke: #038048; stroke-width: 1.0;"/><text fill="#000000" font-family="sans-serif" font-size="11" lengthAdjust="spacingAndGlyphs" textLength="124" x="83" y="289.818">MapNode&lt;T&gt; getParent()</text><ellipse cx="74" cy="300.8989" fill="#84BE84" rx="3" ry="3" style="stroke: #038048; stroke-width: 1.0;"/><text fill="#000000" font-family="sans-serif" font-size="11" lengthAdjust="spacingAndGlyphs" textLength="132" x="83" y="303.0179">MapNode&lt;T&gt; getChildren()</text><ellipse cx="74" cy="314.0988" fill="#84BE84" rx="3" ry="3" style="stroke: #038048; stroke-width: 1.0;"/><text fill="#000000" font-family="sans-serif" font-size="11" lengthAdjust="spacingAndGlyphs" textLength="184" x="83" y="316.2178">TreeMap&lt;String, T&gt; getChildrenMap()</text><ellipse cx="74" cy="327.2987" fill="#84BE84" rx="3" ry="3" style="stroke: #038048; stroke-width: 1.0;"/><text fill="#000000" font-family="sans-serif" font-size="11" lengthAdjust="spacingAndGlyphs" textLength="121" x="83" y="329.4177">Object getChildrenData()</text><ellipse cx="74" cy="340.4986" fill="#84BE84" rx="3" ry="3" style="stroke: #038048; stroke-width: 1.0;"/><text fill="#000000" font-family="sans-serif" font-size="11" lengthAdjust="spacingAndGlyphs" textLength="208" x="83" y="342.6176">void traverse_linear(TreeAction&lt;T&gt; action)</text><ellipse cx="74" cy="353.6985" fill="#84BE84" rx="3" ry="3" style="stroke: #038048; stroke-width: 1.0;"/><text fill="#000000" font-family="sans-serif" font-size="11" lengthAdjust="spacingAndGlyphs" textLength="176" x="83" y="355.8175">void traverse(TreeAction&lt;T&gt; action)</text><ellipse cx="74" cy="366.8984" fill="#84BE84" rx="3" ry="3" style="stroke: #038048; stroke-width: 1.0;"/><text fill="#000000" font-family="sans-serif" font-size="11" lengthAdjust="spacingAndGlyphs" textLength="252" x="83" y="369.0174">void traverse_reverse_linear(TreeAction&lt;T&gt; action)</text><ellipse cx="74" cy="380.0983" fill="#84BE84" rx="3" ry="3" style="stroke: #038048; stroke-width: 1.0;"/><text fill="#000000" font-family="sans-serif" font-size="11" lengthAdjust="spacingAndGlyphs" textLength="156" x="83" y="382.2173">void BFT(TreeAction&lt;T&gt; action)</text><ellipse cx="74" cy="393.2982" fill="#84BE84" rx="3" ry="3" style="stroke: #038048; stroke-width: 1.0;"/><text fill="#000000" font-family="sans-serif" font-size="11" lengthAdjust="spacingAndGlyphs" textLength="200" x="83" y="395.4172">void reverse_BFT(TreeAction&lt;T&gt; action)</text><ellipse cx="74" cy="406.4981" fill="#84BE84" rx="3" ry="3" style="stroke: #038048; stroke-width: 1.0;"/><text fill="#000000" font-family="sans-serif" font-size="11" lengthAdjust="spacingAndGlyphs" textLength="157" x="83" y="408.6171">void DFT(TreeAction&lt;T&gt; action)</text><ellipse cx="74" cy="419.698" fill="#84BE84" rx="3" ry="3" style="stroke: #038048; stroke-width: 1.0;"/><text fill="#000000" font-family="sans-serif" font-size="11" lengthAdjust="spacingAndGlyphs" textLength="181" x="83" y="421.817">MapNode&lt;T&gt; getChildren(String key)</text><ellipse cx="74" cy="432.8979" fill="#84BE84" rx="3" ry="3" style="stroke: #038048; stroke-width: 1.0;"/><text fill="#000000" font-family="sans-serif" font-size="11" lengthAdjust="spacingAndGlyphs" textLength="121" x="83" y="435.0169">Set&lt;String&gt; childrenSet()</text><ellipse cx="74" cy="446.0978" fill="#84BE84" rx="3" ry="3" style="stroke: #038048; stroke-width: 1.0;"/><text fill="#000000" font-family="sans-serif" font-size="11" lengthAdjust="spacingAndGlyphs" textLength="76" x="83" y="448.2168">String toString()</text></a><!--class it.matlice.ingsw.tree.MapNodeObject--><a target="_parent" xlink:actuate="onRequest" xlink:href="../../../../it/matlice/ingsw/tree/MapNode.html" xlink:show="new" xlink:title="it.matlice.ingsw.tree.MapNode" xlink:type="simple"><rect fill="#FEFECE" filter="url(#f1bn428)" height="38.7999" style="stroke: #A80036; stroke-width: 1.5;" width="122" x="6" y="516.5"/><ellipse cx="21" cy="535.9" fill="#ADD1B2" rx="11" ry="11" style="stroke: #A80036; stroke-width: 1.0;"/><path d="M16,537.0562 C16,539.5562 18.1406,541.3687 21.0625,541.3687 C22.2969,541.3687 23.4688,541.0718 24.2188,540.5562 C24.8281,540.1343 25.1563,539.7125 25.1563,539.3062 C25.1563,538.8375 24.7344,538.4312 24.2344,538.4312 C24,538.4312 23.7813,538.5093 23.5781,538.7125 C23.1406,539.15 23.1406,539.15 22.9688,539.2437 C22.5156,539.4781 21.875,539.6187 21.1094,539.6187 C19.1094,539.6187 17.8281,538.6031 17.8281,537.025 L17.8281,535.9781 C17.8281,534.275 19.0469,533.0718 20.75,533.0718 C21.3281,533.0718 21.9063,533.2125 22.375,533.4625 C22.8438,533.7281 23.0156,533.9156 23.0781,534.275 C23.2031,534.9468 23.4531,535.1968 23.9844,535.1968 C24.2656,535.1968 24.5469,535.0562 24.7344,534.8375 C24.8594,534.6656 24.9063,534.4937 24.9063,534.0562 L24.9063,532.6968 C24.9063,532.275 24.8906,532.1343 24.7656,531.9625 C24.5938,531.7125 24.3125,531.5562 23.9844,531.5562 C23.6719,531.5562 23.4688,531.6656 23.25,531.9312 C22.0781,531.4312 21.6406,531.3218 20.6875,531.3218 C18.0156,531.3218 16,533.3375 16,535.9625 L16,537.0562 Z "/><text fill="#000000" font-family="sans-serif" font-size="14" font-weight="bold" lengthAdjust="spacingAndGlyphs" textLength="90" x="35" y="534.5059">MapNode&lt;T&gt;</text><text fill="#000000" font-family="sans-serif" font-size="10" lengthAdjust="spacingAndGlyphs" textLength="90" x="35" y="547.5899">it.matlice.ingsw.tree</text></a><!--class java.lang.Object--><rect fill="#D3D3D3" filter="url(#f1bn428)" height="38.7999" style="stroke: #A80036; stroke-width: 1.5;" width="77" x="163.5" y="516.5"/><rect fill="#D3D3D3" height="38.7999" style="stroke: #A80036; stroke-width: 1.5;" width="77" x="163.5" y="516.5"/><ellipse cx="178.5" cy="535.9" fill="#ADD1B2" rx="11" ry="11" style="stroke: #A80036; stroke-width: 1.0;"/><path d="M173.5,537.0562 C173.5,539.5562 175.6406,541.3687 178.5625,541.3687 C179.7969,541.3687 180.9688,541.0718 181.7188,540.5562 C182.3281,540.1343 182.6563,539.7125 182.6563,539.3062 C182.6563,538.8375 182.2344,538.4312 181.7344,538.4312 C181.5,538.4312 181.2813,538.5093 181.0781,538.7125 C180.6406,539.15 180.6406,539.15 180.4688,539.2437 C180.0156,539.4781 179.375,539.6187 178.6094,539.6187 C176.6094,539.6187 175.3281,538.6031 175.3281,537.025 L175.3281,535.9781 C175.3281,534.275 176.5469,533.0718 178.25,533.0718 C178.8281,533.0718 179.4063,533.2125 179.875,533.4625 C180.3438,533.7281 180.5156,533.9156 180.5781,534.275 C180.7031,534.9468 180.9531,535.1968 181.4844,535.1968 C181.7656,535.1968 182.0469,535.0562 182.2344,534.8375 C182.3594,534.6656 182.4063,534.4937 182.4063,534.0562 L182.4063,532.6968 C182.4063,532.275 182.3906,532.1343 182.2656,531.9625 C182.0938,531.7125 181.8125,531.5562 181.4844,531.5562 C181.1719,531.5562 180.9688,531.6656 180.75,531.9312 C179.5781,531.4312 179.1406,531.3218 178.1875,531.3218 C175.5156,531.3218 173.5,533.3375 173.5,535.9625 L173.5,537.0562 Z "/><text fill="#000000" font-family="sans-serif" font-size="14" font-weight="bold" lengthAdjust="spacingAndGlyphs" textLength="45" x="192.5" y="534.5059">Object</text><text fill="#000000" font-family="sans-serif" font-size="10" lengthAdjust="spacingAndGlyphs" textLength="42" x="194" y="547.5899">java.lang</text><!--class it.matlice.ingsw.tree.NodeObject--><a target="_parent" xlink:actuate="onRequest" xlink:href="../../../../it/matlice/ingsw/tree/Node.html" xlink:show="new" xlink:title="it.matlice.ingsw.tree.Node" xlink:type="simple"><rect fill="#FEFECE" filter="url(#f1bn428)" height="42.3999" style="stroke: #A80036; stroke-width: 1.5;" width="122" x="276" y="515"/><ellipse cx="291" cy="536.2" fill="#B4A7E5" rx="11" ry="11" style="stroke: #A80036; stroke-width: 1.0;"/><path d="M292.0156,533.3562 L293.6719,533.3562 C294.0625,533.3562 294.2656,533.325 294.4219,533.2468 C294.6875,533.075 294.8594,532.7781 294.8594,532.4812 C294.8594,532.2 294.7188,531.95 294.4844,531.7781 C294.2969,531.6531 294.1406,531.6062 293.6719,531.6062 L288.5313,531.6062 C288.0938,531.6062 287.9531,531.6218 287.7813,531.7312 C287.5156,531.9031 287.3438,532.1843 287.3438,532.4812 C287.3438,532.7625 287.4844,533.0437 287.7188,533.2 C287.9063,533.325 288.0938,533.3562 288.5313,533.3562 L290.1875,533.3562 L290.1875,539.45 L288.5313,539.45 C288.0938,539.45 287.9531,539.4656 287.7813,539.575 C287.5156,539.7312 287.3438,540.0281 287.3438,540.3093 C287.3438,540.9187 287.75,541.2 288.5313,541.2 L293.6719,541.2 C294.4531,541.2 294.8594,540.9187 294.8594,540.3093 C294.8594,540.0437 294.7188,539.7937 294.4844,539.6218 C294.2969,539.4812 294.125,539.45 293.6719,539.45 L292.0156,539.45 L292.0156,533.3562 Z "/><text fill="#000000" font-family="sans-serif" font-size="14" font-style="italic" font-weight="bold" lengthAdjust="spacingAndGlyphs" textLength="61" x="319.5" y="535.3999">Node&lt;T&gt;</text><text fill="#000000" font-family="sans-serif" font-size="10" font-style="italic" lengthAdjust="spacingAndGlyphs" textLength="90" x="305" y="549.8999">it.matlice.ingsw.tree</text></a><!--class it.matlice.ingsw.tree.TreeActionObject--><a target="_parent" xlink:actuate="onRequest" xlink:href="../../../../it/matlice/ingsw/tree/TreeAction.html" xlink:show="new" xlink:title="it.matlice.ingsw.tree.TreeAction" xlink:type="simple"><rect fill="#FEFECE" filter="url(#f1bn428)" height="42.3999" style="stroke: #A80036; stroke-width: 1.5;" width="132" x="433" y="515"/><ellipse cx="448" cy="536.2" fill="#B4A7E5" rx="11" ry="11" style="stroke: #A80036; stroke-width: 1.0;"/><path d="M449.0156,533.3562 L450.6719,533.3562 C451.0625,533.3562 451.2656,533.325 451.4219,533.2468 C451.6875,533.075 451.8594,532.7781 451.8594,532.4812 C451.8594,532.2 451.7188,531.95 451.4844,531.7781 C451.2969,531.6531 451.1406,531.6062 450.6719,531.6062 L445.5313,531.6062 C445.0938,531.6062 444.9531,531.6218 444.7813,531.7312 C444.5156,531.9031 444.3438,532.1843 444.3438,532.4812 C444.3438,532.7625 444.4844,533.0437 444.7188,533.2 C444.9063,533.325 445.0938,533.3562 445.5313,533.3562 L447.1875,533.3562 L447.1875,539.45 L445.5313,539.45 C445.0938,539.45 444.9531,539.4656 444.7813,539.575 C444.5156,539.7312 444.3438,540.0281 444.3438,540.3093 C444.3438,540.9187 444.75,541.2 445.5313,541.2 L450.6719,541.2 C451.4531,541.2 451.8594,540.9187 451.8594,540.3093 C451.8594,540.0437 451.7188,539.7937 451.4844,539.6218 C451.2969,539.4812 451.125,539.45 450.6719,539.45 L449.0156,539.45 L449.0156,533.3562 Z "/><text fill="#000000" font-family="sans-serif" font-size="14" font-style="italic" font-weight="bold" lengthAdjust="spacingAndGlyphs" textLength="100" x="462" y="535.3999">TreeAction&lt;T&gt;</text><text fill="#000000" font-family="sans-serif" font-size="10" font-style="italic" lengthAdjust="spacingAndGlyphs" textLength="90" x="467" y="549.8999">it.matlice.ingsw.tree</text></a><!--class it.matlice.ingsw.xml.XMLConversion--><a target="_parent" xlink:actuate="onRequest" xlink:href="../../../../it/matlice/ingsw/xml/XMLConversion.html" xlink:show="new" xlink:title="it.matlice.ingsw.xml.XMLConversion" xlink:type="simple"><rect fill="#FFFFFF" filter="url(#f1bn428)" height="42.3999" style="stroke: #A80036; stroke-width: 1.5;" width="141" x="131.5" y="8"/><rect fill="#FFFFFF" height="42.3999" style="stroke: #A80036; stroke-width: 1.5;" width="141" x="131.5" y="8"/><ellipse cx="146.5" cy="29.2" fill="#B4A7E5" rx="11" ry="11" style="stroke: #A80036; stroke-width: 1.0;"/><path d="M147.5156,26.3562 L149.1719,26.3562 C149.5625,26.3562 149.7656,26.325 149.9219,26.2468 C150.1875,26.075 150.3594,25.7781 150.3594,25.4812 C150.3594,25.2 150.2188,24.95 149.9844,24.7781 C149.7969,24.6531 149.6406,24.6062 149.1719,24.6062 L144.0313,24.6062 C143.5938,24.6062 143.4531,24.6218 143.2813,24.7312 C143.0156,24.9031 142.8438,25.1843 142.8438,25.4812 C142.8438,25.7625 142.9844,26.0437 143.2188,26.2 C143.4063,26.325 143.5938,26.3562 144.0313,26.3562 L145.6875,26.3562 L145.6875,32.45 L144.0313,32.45 C143.5938,32.45 143.4531,32.4656 143.2813,32.575 C143.0156,32.7312 142.8438,33.0281 142.8438,33.3093 C142.8438,33.9187 143.25,34.2 144.0313,34.2 L149.1719,34.2 C149.9531,34.2 150.3594,33.9187 150.3594,33.3093 C150.3594,33.0437 150.2188,32.7937 149.9844,32.6218 C149.7969,32.4812 149.625,32.45 149.1719,32.45 L147.5156,32.45 L147.5156,26.3562 Z "/><text fill="#000000" font-family="sans-serif" font-size="14" font-style="italic" font-weight="bold" lengthAdjust="spacingAndGlyphs" textLength="109" x="160.5" y="28.3999">XMLConversion</text><text fill="#000000" font-family="sans-serif" font-size="10" font-style="italic" lengthAdjust="spacingAndGlyphs" textLength="87" x="171.5" y="42.8999">it.matlice.ingsw.xml</text></a><path d="M84.67,455.09 C84.67,455.09 84.67,511.34 84.67,511.34 " fill="none" style="stroke: #A80036; stroke-width: 1.0; stroke-dasharray: 7.0,7.0;"/><polygon fill="#A80036" points="84.67,516.34,88.67,507.34,84.67,511.34,80.67,507.34,84.67,516.34" style="stroke: #A80036; stroke-width: 1.0;"/><path d="M106.33,455.09 C106.33,455.09 106.33,511.34 106.33,511.34 " fill="none" style="stroke: #A80036; stroke-width: 1.0;"/><polygon fill="#A80036" points="106.33,516.34,110.33,507.34,106.33,511.34,102.33,507.34,106.33,516.34" style="stroke: #A80036; stroke-width: 1.0;"/><text fill="#000000" font-family="sans-serif" font-size="13" lengthAdjust="spacingAndGlyphs" textLength="36" x="77.1289" y="504.8873">parent</text><path d="M202,455.09 C202,455.09 202,511.34 202,511.34 " fill="none" style="stroke: #A80036; stroke-width: 1.0;"/><polygon fill="#A80036" points="202,516.34,206,507.34,202,511.34,198,507.34,202,516.34" style="stroke: #A80036; stroke-width: 1.0;"/><text fill="#000000" font-family="sans-serif" font-size="13" lengthAdjust="spacingAndGlyphs" textLength="25" x="173.0156" y="504.8873">data</text><path d="M308.5,455.09 C308.5,455.09 308.5,494.73 308.5,494.73 " fill="none" style="stroke: #A80036; stroke-width: 1.0; stroke-dasharray: 7.0,7.0;"/><polygon fill="none" points="315.5,494.73,308.5,514.73,301.5,494.73,315.5,494.73" style="stroke: #A80036; stroke-width: 1.0;"/><path d="M341.37,283 C418.53,283 499,283 499,283 C499,283 499,509.86 499,509.86 " fill="none" style="stroke: #A80036; stroke-width: 1.0; stroke-dasharray: 7.0,7.0;"/><polygon fill="#A80036" points="499,514.86,503,505.86,499,509.86,495,505.86,499,514.86" style="stroke: #A80036; stroke-width: 1.0;"/><path d="M202,50.18 C202,50.18 202,104.88 202,104.88 " fill="none" style="stroke: #A80036; stroke-width: 1.0; stroke-dasharray: 7.0,7.0;"/><polygon fill="#A80036" points="202,109.88,206,100.88,202,104.88,198,100.88,202,109.88" style="stroke: #A80036; stroke-width: 1.0;"/></g></svg>