<?xml version="1.0" encoding="UTF-8" standalone="no"?><svg xmlns="http://www.w3.org/2000/svg" xmlns:xlink="http://www.w3.org/1999/xlink" contentScriptType="application/ecmascript" contentStyleType="text/css" height="356px" preserveAspectRatio="none" style="width:416px;height:356px;" version="1.1" viewBox="0 0 416 356" width="416px" zoomAndPan="magnify"><defs><filter height="300%" id="f24bnck" width="300%" x="-1" y="-1"><feGaussianBlur result="blurOut" stdDeviation="2.0"/><feColorMatrix in="blurOut" result="blurOut2" type="matrix" values="0 0 0 0 0 0 0 0 0 0 0 0 0 0 0 0 0 0 .4 0"/><feOffset dx="4.0" dy="4.0" in="blurOut2" result="blurOut3"/><feBlend in="SourceGraphic" in2="blurOut3" mode="normal"/></filter></defs><g><!--class it.matlice.ingsw.tree.Node--><a target="_parent" xlink:actuate="onRequest" xlink:href="../../../../it/matlice/ingsw/tree/Node.html" xlink:show="new" xlink:title="it.matlice.ingsw.tree.Node" xlink:type="simple"><rect fill="#FEFECE" filter="url(#f24bnck)" height="236.5986" style="stroke: #A80036; stroke-width: 1.5;" width="278" x="40.5" y="8"/><ellipse cx="130.25" cy="29.2" fill="#B4A7E5" rx="11" ry="11" style="stroke: #A80036; stroke-width: 1.0;"/><path d="M131.2656,26.3562 L132.9219,26.3562 C133.3125,26.3562 133.5156,26.325 133.6719,26.2468 C133.9375,26.075 134.1094,25.7781 134.1094,25.4812 C134.1094,25.2 133.9688,24.95 133.7344,24.7781 C133.5469,24.6531 133.3906,24.6062 132.9219,24.6062 L127.7813,24.6062 C127.3438,24.6062 127.2031,24.6218 127.0313,24.7312 C126.7656,24.9031 126.5938,25.1843 126.5938,25.4812 C126.5938,25.7625 126.7344,26.0437 126.9688,26.2 C127.1563,26.325 127.3438,26.3562 127.7813,26.3562 L129.4375,26.3562 L129.4375,32.45 L127.7813,32.45 C127.3438,32.45 127.2031,32.4656 127.0313,32.575 C126.7656,32.7312 126.5938,33.0281 126.5938,33.3093 C126.5938,33.9187 127,34.2 127.7813,34.2 L132.9219,34.2 C133.7031,34.2 134.1094,33.9187 134.1094,33.3093 C134.1094,33.0437 133.9688,32.7937 133.7344,32.6218 C133.5469,32.4812 133.375,32.45 132.9219,32.45 L131.2656,32.45 L131.2656,26.3562 Z "/><text fill="#000000" font-family="sans-serif" font-size="14" font-style="italic" font-weight="bold" lengthAdjust="spacingAndGlyphs" textLength="36" x="177.75" y="28.3999">Node</text><text fill="#000000" font-family="sans-serif" font-size="10" font-style="italic" lengthAdjust="spacingAndGlyphs" textLength="90" x="150.75" y="42.8999">it.matlice.ingsw.tree</text><line style="stroke: #A80036; stroke-width: 1.5;" x1="41.5" x2="317.5" y1="50.3999" y2="50.3999"/><line style="stroke: #A80036; stroke-width: 1.5;" x1="41.5" x2="317.5" y1="58.3999" y2="58.3999"/><ellipse cx="51.5" cy="71.3248" fill="#84BE84" rx="3" ry="3" style="stroke: #038048; stroke-width: 1.0;"/><text fill="#000000" font-family="sans-serif" font-size="11" font-style="italic" lengthAdjust="spacingAndGlyphs" textLength="155" x="60.5" y="74.4998">Node&lt;T&gt; addChild(Object child)</text><ellipse cx="51.5" cy="86.1747" fill="#84BE84" rx="3" ry="3" style="stroke: #038048; stroke-width: 1.0;"/><text fill="#000000" font-family="sans-serif" font-size="11" font-style="italic" lengthAdjust="spacingAndGlyphs" textLength="81" x="60.5" y="89.3497">Object getData()</text><ellipse cx="51.5" cy="101.0246" fill="#84BE84" rx="3" ry="3" style="stroke: #038048; stroke-width: 1.0;"/><text fill="#000000" font-family="sans-serif" font-size="11" font-style="italic" lengthAdjust="spacingAndGlyphs" textLength="150" x="60.5" y="104.1996">Node&lt;T&gt; setData(Object data)</text><ellipse cx="51.5" cy="115.8745" fill="#84BE84" rx="3" ry="3" style="stroke: #038048; stroke-width: 1.0;"/><text fill="#000000" font-family="sans-serif" font-size="11" font-style="italic" lengthAdjust="spacingAndGlyphs" textLength="103" x="60.5" y="119.0495">Node&lt;T&gt; getParent()</text><ellipse cx="51.5" cy="130.7244" fill="#84BE84" rx="3" ry="3" style="stroke: #038048; stroke-width: 1.0;"/><text fill="#000000" font-family="sans-serif" font-size="11" font-style="italic" lengthAdjust="spacingAndGlyphs" textLength="111" x="60.5" y="133.8994">Node&lt;T&gt; getChildren()</text><ellipse cx="51.5" cy="145.5743" fill="#84BE84" rx="3" ry="3" style="stroke: #038048; stroke-width: 1.0;"/><text fill="#000000" font-family="sans-serif" font-size="11" font-style="italic" lengthAdjust="spacingAndGlyphs" textLength="121" x="60.5" y="148.7493">Object getChildrenData()</text><ellipse cx="51.5" cy="160.4242" fill="#84BE84" rx="3" ry="3" style="stroke: #038048; stroke-width: 1.0;"/><text fill="#000000" font-family="sans-serif" font-size="11" font-style="italic" lengthAdjust="spacingAndGlyphs" textLength="208" x="60.5" y="163.5992">void traverse_linear(TreeAction&lt;T&gt; action)</text><ellipse cx="51.5" cy="175.2741" fill="#84BE84" rx="3" ry="3" style="stroke: #038048; stroke-width: 1.0;"/><text fill="#000000" font-family="sans-serif" font-size="11" font-style="italic" lengthAdjust="spacingAndGlyphs" textLength="176" x="60.5" y="178.449">void traverse(TreeAction&lt;T&gt; action)</text><ellipse cx="51.5" cy="190.124" fill="#84BE84" rx="3" ry="3" style="stroke: #038048; stroke-width: 1.0;"/><text fill="#000000" font-family="sans-serif" font-size="11" font-style="italic" lengthAdjust="spacingAndGlyphs" textLength="252" x="60.5" y="193.2989">void traverse_reverse_linear(TreeAction&lt;T&gt; action)</text><ellipse cx="51.5" cy="204.9739" fill="#84BE84" rx="3" ry="3" style="stroke: #038048; stroke-width: 1.0;"/><text fill="#000000" font-family="sans-serif" font-size="11" font-style="italic" lengthAdjust="spacingAndGlyphs" textLength="156" x="60.5" y="208.1488">void BFT(TreeAction&lt;T&gt; action)</text><ellipse cx="51.5" cy="219.8237" fill="#84BE84" rx="3" ry="3" style="stroke: #038048; stroke-width: 1.0;"/><text fill="#000000" font-family="sans-serif" font-size="11" font-style="italic" lengthAdjust="spacingAndGlyphs" textLength="200" x="60.5" y="222.9987">void reverse_BFT(TreeAction&lt;T&gt; action)</text><ellipse cx="51.5" cy="234.6736" fill="#84BE84" rx="3" ry="3" style="stroke: #038048; stroke-width: 1.0;"/><text fill="#000000" font-family="sans-serif" font-size="11" font-style="italic" lengthAdjust="spacingAndGlyphs" textLength="157" x="60.5" y="237.8486">void DFT(TreeAction&lt;T&gt; action)</text></a><!--class java.lang.Object--><rect fill="#D3D3D3" filter="url(#f24bnck)" height="38.7999" style="stroke: #A80036; stroke-width: 1.5;" width="77" x="6" y="306.5"/><rect fill="#D3D3D3" height="38.7999" style="stroke: #A80036; stroke-width: 1.5;" width="77" x="6" y="306.5"/><ellipse cx="21" cy="325.9" fill="#ADD1B2" rx="11" ry="11" style="stroke: #A80036; stroke-width: 1.0;"/><path d="M16,327.0562 C16,329.5562 18.1406,331.3687 21.0625,331.3687 C22.2969,331.3687 23.4688,331.0718 24.2188,330.5562 C24.8281,330.1343 25.1563,329.7125 25.1563,329.3062 C25.1563,328.8375 24.7344,328.4312 24.2344,328.4312 C24,328.4312 23.7813,328.5093 23.5781,328.7125 C23.1406,329.15 23.1406,329.15 22.9688,329.2437 C22.5156,329.4781 21.875,329.6187 21.1094,329.6187 C19.1094,329.6187 17.8281,328.6031 17.8281,327.025 L17.8281,325.9781 C17.8281,324.275 19.0469,323.0718 20.75,323.0718 C21.3281,323.0718 21.9063,323.2125 22.375,323.4625 C22.8438,323.7281 23.0156,323.9156 23.0781,324.275 C23.2031,324.9468 23.4531,325.1968 23.9844,325.1968 C24.2656,325.1968 24.5469,325.0562 24.7344,324.8375 C24.8594,324.6656 24.9063,324.4937 24.9063,324.0562 L24.9063,322.6968 C24.9063,322.275 24.8906,322.1343 24.7656,321.9625 C24.5938,321.7125 24.3125,321.5562 23.9844,321.5562 C23.6719,321.5562 23.4688,321.6656 23.25,321.9312 C22.0781,321.4312 21.6406,321.3218 20.6875,321.3218 C18.0156,321.3218 16,323.3375 16,325.9625 L16,327.0562 Z "/><text fill="#000000" font-family="sans-serif" font-size="14" font-weight="bold" lengthAdjust="spacingAndGlyphs" textLength="45" x="35" y="324.5059">Object</text><text fill="#000000" font-family="sans-serif" font-size="10" lengthAdjust="spacingAndGlyphs" textLength="42" x="36.5" y="337.5899">java.lang</text><!--class it.matlice.ingsw.tree.NodeObject--><a target="_parent" xlink:actuate="onRequest" xlink:href="../../../../it/matlice/ingsw/tree/Node.html" xlink:show="new" xlink:title="it.matlice.ingsw.tree.Node" xlink:type="simple"><rect fill="#FEFECE" filter="url(#f24bnck)" height="42.3999" style="stroke: #A80036; stroke-width: 1.5;" width="122" x="118.5" y="305"/><ellipse cx="133.5" cy="326.2" fill="#B4A7E5" rx="11" ry="11" style="stroke: #A80036; stroke-width: 1.0;"/><path d="M134.5156,323.3562 L136.1719,323.3562 C136.5625,323.3562 136.7656,323.325 136.9219,323.2468 C137.1875,323.075 137.3594,322.7781 137.3594,322.4812 C137.3594,322.2 137.2188,321.95 136.9844,321.7781 C136.7969,321.6531 136.6406,321.6062 136.1719,321.6062 L131.0313,321.6062 C130.5938,321.6062 130.4531,321.6218 130.2813,321.7312 C130.0156,321.9031 129.8438,322.1843 129.8438,322.4812 C129.8438,322.7625 129.9844,323.0437 130.2188,323.2 C130.4063,323.325 130.5938,323.3562 131.0313,323.3562 L132.6875,323.3562 L132.6875,329.45 L131.0313,329.45 C130.5938,329.45 130.4531,329.4656 130.2813,329.575 C130.0156,329.7312 129.8438,330.0281 129.8438,330.3093 C129.8438,330.9187 130.25,331.2 131.0313,331.2 L136.1719,331.2 C136.9531,331.2 137.3594,330.9187 137.3594,330.3093 C137.3594,330.0437 137.2188,329.7937 136.9844,329.6218 C136.7969,329.4812 136.625,329.45 136.1719,329.45 L134.5156,329.45 L134.5156,323.3562 Z "/><text fill="#000000" font-family="sans-serif" font-size="14" font-style="italic" font-weight="bold" lengthAdjust="spacingAndGlyphs" textLength="61" x="162" y="325.3999">Node&lt;T&gt;</text><text fill="#000000" font-family="sans-serif" font-size="10" font-style="italic" lengthAdjust="spacingAndGlyphs" textLength="90" x="147.5" y="339.8999">it.matlice.ingsw.tree</text></a><!--class it.matlice.ingsw.tree.TreeActionObject--><a target="_parent" xlink:actuate="onRequest" xlink:href="../../../../it/matlice/ingsw/tree/TreeAction.html" xlink:show="new" xlink:title="it.matlice.ingsw.tree.TreeAction" xlink:type="simple"><rect fill="#FEFECE" filter="url(#f24bnck)" height="42.3999" style="stroke: #A80036; stroke-width: 1.5;" width="132" x="275.5" y="305"/><ellipse cx="290.5" cy="326.2" fill="#B4A7E5" rx="11" ry="11" style="stroke: #A80036; stroke-width: 1.0;"/><path d="M291.5156,323.3562 L293.1719,323.3562 C293.5625,323.3562 293.7656,323.325 293.9219,323.2468 C294.1875,323.075 294.3594,322.7781 294.3594,322.4812 C294.3594,322.2 294.2188,321.95 293.9844,321.7781 C293.7969,321.6531 293.6406,321.6062 293.1719,321.6062 L288.0313,321.6062 C287.5938,321.6062 287.4531,321.6218 287.2813,321.7312 C287.0156,321.9031 286.8438,322.1843 286.8438,322.4812 C286.8438,322.7625 286.9844,323.0437 287.2188,323.2 C287.4063,323.325 287.5938,323.3562 288.0313,323.3562 L289.6875,323.3562 L289.6875,329.45 L288.0313,329.45 C287.5938,329.45 287.4531,329.4656 287.2813,329.575 C287.0156,329.7312 286.8438,330.0281 286.8438,330.3093 C286.8438,330.9187 287.25,331.2 288.0313,331.2 L293.1719,331.2 C293.9531,331.2 294.3594,330.9187 294.3594,330.3093 C294.3594,330.0437 294.2188,329.7937 293.9844,329.6218 C293.7969,329.4812 293.625,329.45 293.1719,329.45 L291.5156,329.45 L291.5156,323.3562 Z "/><text fill="#000000" font-family="sans-serif" font-size="14" font-style="italic" font-weight="bold" lengthAdjust="spacingAndGlyphs" textLength="100" x="304.5" y="325.3999">TreeAction&lt;T&gt;</text><text fill="#000000" font-family="sans-serif" font-size="10" font-style="italic" lengthAdjust="spacingAndGlyphs" textLength="90" x="309.5" y="339.8999">it.matlice.ingsw.tree</text></a><path d="M61.75,245.14 C61.75,245.14 61.75,301.32 61.75,301.32 " fill="none" style="stroke: #A80036; stroke-width: 1.0; stroke-dasharray: 7.0,7.0;"/><polygon fill="#A80036" points="61.75,306.32,65.75,297.32,61.75,301.32,57.75,297.32,61.75,306.32" style="stroke: #A80036; stroke-width: 1.0;"/><path d="M179.5,245.14 C179.5,245.14 179.5,299.69 179.5,299.69 " fill="none" style="stroke: #A80036; stroke-width: 1.0; stroke-dasharray: 7.0,7.0;"/><polygon fill="#A80036" points="179.5,304.69,183.5,295.69,179.5,299.69,175.5,295.69,179.5,304.69" style="stroke: #A80036; stroke-width: 1.0;"/><path d="M297,245.14 C297,245.14 297,299.69 297,299.69 " fill="none" style="stroke: #A80036; stroke-width: 1.0; stroke-dasharray: 7.0,7.0;"/><polygon fill="#A80036" points="297,304.69,301,295.69,297,299.69,293,295.69,297,304.69" style="stroke: #A80036; stroke-width: 1.0;"/></g></svg>