<?xml version="1.0" encoding="UTF-8" standalone="no"?><svg xmlns="http://www.w3.org/2000/svg" xmlns:xlink="http://www.w3.org/1999/xlink" contentScriptType="application/ecmascript" contentStyleType="text/css" height="222px" preserveAspectRatio="none" style="width:634px;height:222px;" version="1.1" viewBox="0 0 634 222" width="634px" zoomAndPan="magnify"><defs><filter height="300%" id="f40fi12" width="300%" x="-1" y="-1"><feGaussianBlur result="blurOut" stdDeviation="2.0"/><feColorMatrix in="blurOut" result="blurOut2" type="matrix" values="0 0 0 0 0 0 0 0 0 0 0 0 0 0 0 0 0 0 .4 0"/><feOffset dx="4.0" dy="4.0" in="blurOut2" result="blurOut3"/><feBlend in="SourceGraphic" in2="blurOut3" mode="normal"/></filter></defs><g><!--cluster it.matlice.ingsw.tree--><a target="_parent" xlink:actuate="onRequest" xlink:href="../../../../it/matlice/ingsw/tree/package-summary.html" xlink:show="new" xlink:title="it.matlice.ingsw.tree" xlink:type="simple"><polygon fill="#FFFFE0" filter="url(#f40fi12)" points="22,24,165,24,172,46.7999,627,46.7999,627,215,22,215,22,24" style="stroke: #000000; stroke-width: 2.0;"/><line style="stroke: #000000; stroke-width: 2.0;" x1="22" x2="172" y1="46.7999" y2="46.7999"/><text fill="#000000" font-family="sans-serif" font-size="14" font-weight="bold" lengthAdjust="spacingAndGlyphs" textLength="137" x="26" y="39.0059">it.matlice.ingsw.tree</text></a><!--class it.matlice.ingsw.tree.TreeNode--><a target="_parent" xlink:actuate="onRequest" xlink:href="../../../../it/matlice/ingsw/tree/TreeNode.html" xlink:show="new" xlink:title="it.matlice.ingsw.tree.TreeNode" xlink:type="simple"><rect fill="#FEFECE" filter="url(#f40fi12)" height="32" style="stroke: #A80036; stroke-width: 1.5;" width="98" x="497" y="59"/><ellipse cx="512" cy="75" fill="#ADD1B2" rx="11" ry="11" style="stroke: #A80036; stroke-width: 1.0;"/><path d="M507,76.1563 C507,78.6563 509.1406,80.4688 512.0625,80.4688 C513.2969,80.4688 514.4688,80.1719 515.2188,79.6563 C515.8281,79.2344 516.1563,78.8125 516.1563,78.4063 C516.1563,77.9375 515.7344,77.5313 515.2344,77.5313 C515,77.5313 514.7813,77.6094 514.5781,77.8125 C514.1406,78.25 514.1406,78.25 513.9688,78.3438 C513.5156,78.5781 512.875,78.7188 512.1094,78.7188 C510.1094,78.7188 508.8281,77.7031 508.8281,76.125 L508.8281,75.0781 C508.8281,73.375 510.0469,72.1719 511.75,72.1719 C512.3281,72.1719 512.9063,72.3125 513.375,72.5625 C513.8438,72.8281 514.0156,73.0156 514.0781,73.375 C514.2031,74.0469 514.4531,74.2969 514.9844,74.2969 C515.2656,74.2969 515.5469,74.1563 515.7344,73.9375 C515.8594,73.7656 515.9063,73.5938 515.9063,73.1563 L515.9063,71.7969 C515.9063,71.375 515.8906,71.2344 515.7656,71.0625 C515.5938,70.8125 515.3125,70.6563 514.9844,70.6563 C514.6719,70.6563 514.4688,70.7656 514.25,71.0313 C513.0781,70.5313 512.6406,70.4219 511.6875,70.4219 C509.0156,70.4219 507,72.4375 507,75.0625 L507,76.1563 Z "/><text fill="#000000" font-family="sans-serif" font-size="14" font-weight="bold" lengthAdjust="spacingAndGlyphs" textLength="66" x="526" y="79.606">TreeNode</text></a><!--class it.matlice.ingsw.tree.TreeAction--><a target="_parent" xlink:actuate="onRequest" xlink:href="../../../../it/matlice/ingsw/tree/TreeAction.html" xlink:show="new" xlink:title="it.matlice.ingsw.tree.TreeAction" xlink:type="simple"><rect fill="#FEFECE" filter="url(#f40fi12)" height="32" style="stroke: #A80036; stroke-width: 1.5;" width="107" x="351.5" y="59"/><ellipse cx="366.5" cy="75" fill="#B4A7E5" rx="11" ry="11" style="stroke: #A80036; stroke-width: 1.0;"/><path d="M367.5156,72.1563 L369.1719,72.1563 C369.5625,72.1563 369.7656,72.125 369.9219,72.0469 C370.1875,71.875 370.3594,71.5781 370.3594,71.2813 C370.3594,71 370.2188,70.75 369.9844,70.5781 C369.7969,70.4531 369.6406,70.4063 369.1719,70.4063 L364.0313,70.4063 C363.5938,70.4063 363.4531,70.4219 363.2813,70.5313 C363.0156,70.7031 362.8438,70.9844 362.8438,71.2813 C362.8438,71.5625 362.9844,71.8438 363.2188,72 C363.4063,72.125 363.5938,72.1563 364.0313,72.1563 L365.6875,72.1563 L365.6875,78.25 L364.0313,78.25 C363.5938,78.25 363.4531,78.2656 363.2813,78.375 C363.0156,78.5313 362.8438,78.8281 362.8438,79.1094 C362.8438,79.7188 363.25,80 364.0313,80 L369.1719,80 C369.9531,80 370.3594,79.7188 370.3594,79.1094 C370.3594,78.8438 370.2188,78.5938 369.9844,78.4219 C369.7969,78.2813 369.625,78.25 369.1719,78.25 L367.5156,78.25 L367.5156,72.1563 Z "/><text fill="#000000" font-family="sans-serif" font-size="14" font-style="italic" font-weight="bold" lengthAdjust="spacingAndGlyphs" textLength="75" x="380.5" y="80.95">TreeAction</text></a><!--class it.matlice.ingsw.tree.Node--><a target="_parent" xlink:actuate="onRequest" xlink:href="../../../../it/matlice/ingsw/tree/Node.html" xlink:show="new" xlink:title="it.matlice.ingsw.tree.Node" xlink:type="simple"><rect fill="#FEFECE" filter="url(#f40fi12)" height="32" style="stroke: #A80036; stroke-width: 1.5;" width="68" x="236" y="59"/><ellipse cx="251" cy="75" fill="#B4A7E5" rx="11" ry="11" style="stroke: #A80036; stroke-width: 1.0;"/><path d="M252.0156,72.1563 L253.6719,72.1563 C254.0625,72.1563 254.2656,72.125 254.4219,72.0469 C254.6875,71.875 254.8594,71.5781 254.8594,71.2813 C254.8594,71 254.7188,70.75 254.4844,70.5781 C254.2969,70.4531 254.1406,70.4063 253.6719,70.4063 L248.5313,70.4063 C248.0938,70.4063 247.9531,70.4219 247.7813,70.5313 C247.5156,70.7031 247.3438,70.9844 247.3438,71.2813 C247.3438,71.5625 247.4844,71.8438 247.7188,72 C247.9063,72.125 248.0938,72.1563 248.5313,72.1563 L250.1875,72.1563 L250.1875,78.25 L248.5313,78.25 C248.0938,78.25 247.9531,78.2656 247.7813,78.375 C247.5156,78.5313 247.3438,78.8281 247.3438,79.1094 C247.3438,79.7188 247.75,80 248.5313,80 L253.6719,80 C254.4531,80 254.8594,79.7188 254.8594,79.1094 C254.8594,78.8438 254.7188,78.5938 254.4844,78.4219 C254.2969,78.2813 254.125,78.25 253.6719,78.25 L252.0156,78.25 L252.0156,72.1563 Z "/><text fill="#000000" font-family="sans-serif" font-size="14" font-style="italic" font-weight="bold" lengthAdjust="spacingAndGlyphs" textLength="36" x="265" y="80.95">Node</text></a><!--class it.matlice.ingsw.tree.MapNode--><a target="_parent" xlink:actuate="onRequest" xlink:href="../../../../it/matlice/ingsw/tree/MapNode.html" xlink:show="new" xlink:title="it.matlice.ingsw.tree.MapNode" xlink:type="simple"><rect fill="#FEFECE" filter="url(#f40fi12)" height="32" style="stroke: #A80036; stroke-width: 1.5;" width="97" x="76.5" y="59"/><ellipse cx="91.5" cy="75" fill="#ADD1B2" rx="11" ry="11" style="stroke: #A80036; stroke-width: 1.0;"/><path d="M86.5,76.1563 C86.5,78.6563 88.6406,80.4688 91.5625,80.4688 C92.7969,80.4688 93.9688,80.1719 94.7188,79.6563 C95.3281,79.2344 95.6563,78.8125 95.6563,78.4063 C95.6563,77.9375 95.2344,77.5313 94.7344,77.5313 C94.5,77.5313 94.2813,77.6094 94.0781,77.8125 C93.6406,78.25 93.6406,78.25 93.4688,78.3438 C93.0156,78.5781 92.375,78.7188 91.6094,78.7188 C89.6094,78.7188 88.3281,77.7031 88.3281,76.125 L88.3281,75.0781 C88.3281,73.375 89.5469,72.1719 91.25,72.1719 C91.8281,72.1719 92.4063,72.3125 92.875,72.5625 C93.3438,72.8281 93.5156,73.0156 93.5781,73.375 C93.7031,74.0469 93.9531,74.2969 94.4844,74.2969 C94.7656,74.2969 95.0469,74.1563 95.2344,73.9375 C95.3594,73.7656 95.4063,73.5938 95.4063,73.1563 L95.4063,71.7969 C95.4063,71.375 95.3906,71.2344 95.2656,71.0625 C95.0938,70.8125 94.8125,70.6563 94.4844,70.6563 C94.1719,70.6563 93.9688,70.7656 93.75,71.0313 C92.5781,70.5313 92.1406,70.4219 91.1875,70.4219 C88.5156,70.4219 86.5,72.4375 86.5,75.0625 L86.5,76.1563 Z "/><text fill="#000000" font-family="sans-serif" font-size="14" font-weight="bold" lengthAdjust="spacingAndGlyphs" textLength="65" x="105.5" y="79.606">MapNode</text></a><!--class it.matlice.ingsw.tree.TreeNodeObject--><rect fill="#FEFECE" filter="url(#f40fi12)" height="48" style="stroke: #A80036; stroke-width: 1.5;" width="122" x="489" y="151"/><ellipse cx="504" cy="167" fill="#ADD1B2" rx="11" ry="11" style="stroke: #A80036; stroke-width: 1.0;"/><path d="M499,168.1563 C499,170.6563 501.1406,172.4688 504.0625,172.4688 C505.2969,172.4688 506.4688,172.1719 507.2188,171.6563 C507.8281,171.2344 508.1563,170.8125 508.1563,170.4063 C508.1563,169.9375 507.7344,169.5313 507.2344,169.5313 C507,169.5313 506.7813,169.6094 506.5781,169.8125 C506.1406,170.25 506.1406,170.25 505.9688,170.3438 C505.5156,170.5781 504.875,170.7188 504.1094,170.7188 C502.1094,170.7188 500.8281,169.7031 500.8281,168.125 L500.8281,167.0781 C500.8281,165.375 502.0469,164.1719 503.75,164.1719 C504.3281,164.1719 504.9063,164.3125 505.375,164.5625 C505.8438,164.8281 506.0156,165.0156 506.0781,165.375 C506.2031,166.0469 506.4531,166.2969 506.9844,166.2969 C507.2656,166.2969 507.5469,166.1563 507.7344,165.9375 C507.8594,165.7656 507.9063,165.5938 507.9063,165.1563 L507.9063,163.7969 C507.9063,163.375 507.8906,163.2344 507.7656,163.0625 C507.5938,162.8125 507.3125,162.6563 506.9844,162.6563 C506.6719,162.6563 506.4688,162.7656 506.25,163.0313 C505.0781,162.5313 504.6406,162.4219 503.6875,162.4219 C501.0156,162.4219 499,164.4375 499,167.0625 L499,168.1563 Z "/><text fill="#000000" font-family="sans-serif" font-size="12" lengthAdjust="spacingAndGlyphs" textLength="90" x="518" y="170.948">TreeNodeObject</text><line style="stroke: #A80036; stroke-width: 1.5;" x1="490" x2="610" y1="183" y2="183"/><line style="stroke: #A80036; stroke-width: 1.5;" x1="490" x2="610" y1="191" y2="191"/><!--class it.matlice.ingsw.tree.NodeObject--><rect fill="#FEFECE" filter="url(#f40fi12)" height="48" style="stroke: #A80036; stroke-width: 1.5;" width="97" x="356.5" y="151"/><ellipse cx="371.5" cy="167" fill="#ADD1B2" rx="11" ry="11" style="stroke: #A80036; stroke-width: 1.0;"/><path d="M366.5,168.1563 C366.5,170.6563 368.6406,172.4688 371.5625,172.4688 C372.7969,172.4688 373.9688,172.1719 374.7188,171.6563 C375.3281,171.2344 375.6563,170.8125 375.6563,170.4063 C375.6563,169.9375 375.2344,169.5313 374.7344,169.5313 C374.5,169.5313 374.2813,169.6094 374.0781,169.8125 C373.6406,170.25 373.6406,170.25 373.4688,170.3438 C373.0156,170.5781 372.375,170.7188 371.6094,170.7188 C369.6094,170.7188 368.3281,169.7031 368.3281,168.125 L368.3281,167.0781 C368.3281,165.375 369.5469,164.1719 371.25,164.1719 C371.8281,164.1719 372.4063,164.3125 372.875,164.5625 C373.3438,164.8281 373.5156,165.0156 373.5781,165.375 C373.7031,166.0469 373.9531,166.2969 374.4844,166.2969 C374.7656,166.2969 375.0469,166.1563 375.2344,165.9375 C375.3594,165.7656 375.4063,165.5938 375.4063,165.1563 L375.4063,163.7969 C375.4063,163.375 375.3906,163.2344 375.2656,163.0625 C375.0938,162.8125 374.8125,162.6563 374.4844,162.6563 C374.1719,162.6563 373.9688,162.7656 373.75,163.0313 C372.5781,162.5313 372.1406,162.4219 371.1875,162.4219 C368.5156,162.4219 366.5,164.4375 366.5,167.0625 L366.5,168.1563 Z "/><text fill="#000000" font-family="sans-serif" font-size="12" lengthAdjust="spacingAndGlyphs" textLength="65" x="385.5" y="170.948">NodeObject</text><line style="stroke: #A80036; stroke-width: 1.5;" x1="357.5" x2="452.5" y1="183" y2="183"/><line style="stroke: #A80036; stroke-width: 1.5;" x1="357.5" x2="452.5" y1="191" y2="191"/><!--class it.matlice.ingsw.tree.TreeActionObject--><rect fill="#FEFECE" filter="url(#f40fi12)" height="48" style="stroke: #A80036; stroke-width: 1.5;" width="126" x="195" y="151"/><ellipse cx="210" cy="167" fill="#ADD1B2" rx="11" ry="11" style="stroke: #A80036; stroke-width: 1.0;"/><path d="M205,168.1563 C205,170.6563 207.1406,172.4688 210.0625,172.4688 C211.2969,172.4688 212.4688,172.1719 213.2188,171.6563 C213.8281,171.2344 214.1563,170.8125 214.1563,170.4063 C214.1563,169.9375 213.7344,169.5313 213.2344,169.5313 C213,169.5313 212.7813,169.6094 212.5781,169.8125 C212.1406,170.25 212.1406,170.25 211.9688,170.3438 C211.5156,170.5781 210.875,170.7188 210.1094,170.7188 C208.1094,170.7188 206.8281,169.7031 206.8281,168.125 L206.8281,167.0781 C206.8281,165.375 208.0469,164.1719 209.75,164.1719 C210.3281,164.1719 210.9063,164.3125 211.375,164.5625 C211.8438,164.8281 212.0156,165.0156 212.0781,165.375 C212.2031,166.0469 212.4531,166.2969 212.9844,166.2969 C213.2656,166.2969 213.5469,166.1563 213.7344,165.9375 C213.8594,165.7656 213.9063,165.5938 213.9063,165.1563 L213.9063,163.7969 C213.9063,163.375 213.8906,163.2344 213.7656,163.0625 C213.5938,162.8125 213.3125,162.6563 212.9844,162.6563 C212.6719,162.6563 212.4688,162.7656 212.25,163.0313 C211.0781,162.5313 210.6406,162.4219 209.6875,162.4219 C207.0156,162.4219 205,164.4375 205,167.0625 L205,168.1563 Z "/><text fill="#000000" font-family="sans-serif" font-size="12" lengthAdjust="spacingAndGlyphs" textLength="94" x="224" y="170.948">TreeActionObject</text><line style="stroke: #A80036; stroke-width: 1.5;" x1="196" x2="320" y1="183" y2="183"/><line style="stroke: #A80036; stroke-width: 1.5;" x1="196" x2="320" y1="191" y2="191"/><!--class it.matlice.ingsw.tree.MapNodeObject--><rect fill="#FEFECE" filter="url(#f40fi12)" height="48" style="stroke: #A80036; stroke-width: 1.5;" width="121" x="38.5" y="151"/><ellipse cx="53.5" cy="167" fill="#ADD1B2" rx="11" ry="11" style="stroke: #A80036; stroke-width: 1.0;"/><path d="M48.5,168.1563 C48.5,170.6563 50.6406,172.4688 53.5625,172.4688 C54.7969,172.4688 55.9688,172.1719 56.7188,171.6563 C57.3281,171.2344 57.6563,170.8125 57.6563,170.4063 C57.6563,169.9375 57.2344,169.5313 56.7344,169.5313 C56.5,169.5313 56.2813,169.6094 56.0781,169.8125 C55.6406,170.25 55.6406,170.25 55.4688,170.3438 C55.0156,170.5781 54.375,170.7188 53.6094,170.7188 C51.6094,170.7188 50.3281,169.7031 50.3281,168.125 L50.3281,167.0781 C50.3281,165.375 51.5469,164.1719 53.25,164.1719 C53.8281,164.1719 54.4063,164.3125 54.875,164.5625 C55.3438,164.8281 55.5156,165.0156 55.5781,165.375 C55.7031,166.0469 55.9531,166.2969 56.4844,166.2969 C56.7656,166.2969 57.0469,166.1563 57.2344,165.9375 C57.3594,165.7656 57.4063,165.5938 57.4063,165.1563 L57.4063,163.7969 C57.4063,163.375 57.3906,163.2344 57.2656,163.0625 C57.0938,162.8125 56.8125,162.6563 56.4844,162.6563 C56.1719,162.6563 55.9688,162.7656 55.75,163.0313 C54.5781,162.5313 54.1406,162.4219 53.1875,162.4219 C50.5156,162.4219 48.5,164.4375 48.5,167.0625 L48.5,168.1563 Z "/><text fill="#000000" font-family="sans-serif" font-size="12" lengthAdjust="spacingAndGlyphs" textLength="89" x="67.5" y="170.948">MapNodeObject</text><line style="stroke: #A80036; stroke-width: 1.5;" x1="39.5" x2="158.5" y1="183" y2="183"/><line style="stroke: #A80036; stroke-width: 1.5;" x1="39.5" x2="158.5" y1="191" y2="191"/><path d="M546,91.07 C546,91.07 546,145.76 546,145.76 " fill="none" style="stroke: #A80036; stroke-width: 1.0; stroke-dasharray: 7.0,7.0;"/><polygon fill="#A80036" points="546,150.76,550,141.76,546,145.76,542,141.76,546,150.76" style="stroke: #A80036; stroke-width: 1.0;"/><path d="M570.5,91.07 C570.5,91.07 570.5,145.76 570.5,145.76 " fill="none" style="stroke: #A80036; stroke-width: 1.0;"/><polygon fill="#A80036" points="570.5,150.76,574.5,141.76,570.5,145.76,566.5,141.76,570.5,150.76" style="stroke: #A80036; stroke-width: 1.0;"/><text fill="#000000" font-family="sans-serif" font-size="13" lengthAdjust="spacingAndGlyphs" textLength="36" x="535.1719" y="139.3875">parent</text><path d="M496.61,75 C483.91,75 473.75,75 473.75,75 C473.75,75 473.75,175 473.75,175 C473.75,175 471.76,175 471.76,175 " fill="none" style="stroke: #A80036; stroke-width: 1.0; stroke-dasharray: 7.0,7.0;"/><polygon fill="none" points="473.86,182,453.86,175,473.86,168,473.86,182" style="stroke: #A80036; stroke-width: 1.0;"/><path d="M521.5,91.31 C521.5,100.84 521.5,111 521.5,111 C521.5,111 312.5,111 312.5,111 C312.5,111 312.5,145.8 312.5,145.8 " fill="none" style="stroke: #A80036; stroke-width: 1.0; stroke-dasharray: 7.0,7.0;"/><polygon fill="#A80036" points="312.5,150.8,316.5,141.8,312.5,145.8,308.5,141.8,312.5,150.8" style="stroke: #A80036; stroke-width: 1.0;"/><path d="M421.17,91.07 C421.17,91.07 421.17,145.76 421.17,145.76 " fill="none" style="stroke: #A80036; stroke-width: 1.0; stroke-dasharray: 7.0,7.0;"/><polygon fill="#A80036" points="421.17,150.76,425.17,141.76,421.17,145.76,417.17,141.76,421.17,150.76" style="stroke: #A80036; stroke-width: 1.0;"/><path d="M304.29,75 C320.45,75 336.25,75 336.25,75 C336.25,75 336.25,175 336.25,175 C336.25,175 351.14,175 351.14,175 " fill="none" style="stroke: #A80036; stroke-width: 1.0; stroke-dasharray: 7.0,7.0;"/><polygon fill="#A80036" points="356.14,175,347.14,171,351.14,175,347.14,179,356.14,175" style="stroke: #A80036; stroke-width: 1.0;"/><path d="M270,91.07 C270,91.07 270,145.76 270,145.76 " fill="none" style="stroke: #A80036; stroke-width: 1.0; stroke-dasharray: 7.0,7.0;"/><polygon fill="#A80036" points="270,150.76,274,141.76,270,145.76,266,141.76,270,150.76" style="stroke: #A80036; stroke-width: 1.0;"/><path d="M104.17,91.07 C104.17,91.07 104.17,145.76 104.17,145.76 " fill="none" style="stroke: #A80036; stroke-width: 1.0; stroke-dasharray: 7.0,7.0;"/><polygon fill="#A80036" points="104.17,150.76,108.17,141.76,104.17,145.76,100.17,141.76,104.17,150.76" style="stroke: #A80036; stroke-width: 1.0;"/><path d="M131.83,91.07 C131.83,91.07 131.83,145.76 131.83,145.76 " fill="none" style="stroke: #A80036; stroke-width: 1.0;"/><polygon fill="#A80036" points="131.83,150.76,135.83,141.76,131.83,145.76,127.83,141.76,131.83,150.76" style="stroke: #A80036; stroke-width: 1.0;"/><text fill="#000000" font-family="sans-serif" font-size="13" lengthAdjust="spacingAndGlyphs" textLength="36" x="99.8156" y="139.3875">parent</text><path d="M164.17,91.2 C164.17,107.74 164.17,131 164.17,131 C164.17,131 388.83,131 388.83,131 C388.83,131 388.83,132.99 388.83,132.99 " fill="none" style="stroke: #A80036; stroke-width: 1.0; stroke-dasharray: 7.0,7.0;"/><polygon fill="none" points="395.83,130.94,388.83,150.94,381.83,130.94,395.83,130.94" style="stroke: #A80036; stroke-width: 1.0;"/><path d="M168.83,91.07 C168.83,119.33 168.83,175 168.83,175 C168.83,175 189.62,175 189.62,175 " fill="none" style="stroke: #A80036; stroke-width: 1.0; stroke-dasharray: 7.0,7.0;"/><polygon fill="#A80036" points="194.62,175,185.62,171,189.62,175,185.62,179,194.62,175" style="stroke: #A80036; stroke-width: 1.0;"/></g></svg>