<?xml version="1.0" encoding="UTF-8" standalone="no"?><svg xmlns="http://www.w3.org/2000/svg" xmlns:xlink="http://www.w3.org/1999/xlink" contentScriptType="application/ecmascript" contentStyleType="text/css" height="385px" preserveAspectRatio="none" style="width:574px;height:385px;" version="1.1" viewBox="0 0 574 385" width="574px" zoomAndPan="magnify"><defs><filter height="300%" id="fln51hb" width="300%" x="-1" y="-1"><feGaussianBlur result="blurOut" stdDeviation="2.0"/><feColorMatrix in="blurOut" result="blurOut2" type="matrix" values="0 0 0 0 0 0 0 0 0 0 0 0 0 0 0 0 0 0 .4 0"/><feOffset dx="4.0" dy="4.0" in="blurOut2" result="blurOut3"/><feBlend in="SourceGraphic" in2="blurOut3" mode="normal"/></filter></defs><g><!--class it.matlice.ingsw.tree.TreeNode--><a target="_parent" xlink:actuate="onRequest" xlink:href="../../../../it/matlice/ingsw/tree/TreeNode.html" xlink:show="new" xlink:title="it.matlice.ingsw.tree.TreeNode" xlink:type="simple"><rect fill="#FEFECE" filter="url(#fln51hb)" height="265.9983" style="stroke: #A80036; stroke-width: 1.5;" width="278" x="63.5" y="8"/><ellipse cx="153.25" cy="27.4" fill="#ADD1B2" rx="11" ry="11" style="stroke: #A80036; stroke-width: 1.0;"/><path d="M148.25,28.5562 C148.25,31.0562 150.3906,32.8687 153.3125,32.8687 C154.5469,32.8687 155.7188,32.5718 156.4688,32.0562 C157.0781,31.6343 157.4063,31.2125 157.4063,30.8062 C157.4063,30.3375 156.9844,29.9312 156.4844,29.9312 C156.25,29.9312 156.0313,30.0093 155.8281,30.2125 C155.3906,30.65 155.3906,30.65 155.2188,30.7437 C154.7656,30.9781 154.125,31.1187 153.3594,31.1187 C151.3594,31.1187 150.0781,30.1031 150.0781,28.525 L150.0781,27.4781 C150.0781,25.775 151.2969,24.5718 153,24.5718 C153.5781,24.5718 154.1563,24.7125 154.625,24.9625 C155.0938,25.2281 155.2656,25.4156 155.3281,25.775 C155.4531,26.4468 155.7031,26.6968 156.2344,26.6968 C156.5156,26.6968 156.7969,26.5562 156.9844,26.3375 C157.1094,26.1656 157.1563,25.9937 157.1563,25.5562 L157.1563,24.1968 C157.1563,23.775 157.1406,23.6343 157.0156,23.4625 C156.8438,23.2125 156.5625,23.0562 156.2344,23.0562 C155.9219,23.0562 155.7188,23.1656 155.5,23.4312 C154.3281,22.9312 153.8906,22.8218 152.9375,22.8218 C150.2656,22.8218 148.25,24.8375 148.25,27.4625 L148.25,28.5562 Z "/><text fill="#000000" font-family="sans-serif" font-size="14" font-weight="bold" lengthAdjust="spacingAndGlyphs" textLength="66" x="185.75" y="26.0059">TreeNode</text><text fill="#000000" font-family="sans-serif" font-size="10" lengthAdjust="spacingAndGlyphs" textLength="90" x="173.75" y="39.0899">it.matlice.ingsw.tree</text><line style="stroke: #A80036; stroke-width: 1.5;" x1="64.5" x2="340.5" y1="46.7999" y2="46.7999"/><rect fill="none" height="6" style="stroke: #C82930; stroke-width: 1.0;" width="6" x="71.5" y="55.8999"/><text fill="#000000" font-family="sans-serif" font-size="11" lengthAdjust="spacingAndGlyphs" textLength="151" x="83.5" y="61.0188">LinkedList&lt;TreeNode&gt; children</text><rect fill="none" height="6" style="stroke: #C82930; stroke-width: 1.0;" width="6" x="71.5" y="69.0998"/><text fill="#000000" font-family="sans-serif" font-size="11" lengthAdjust="spacingAndGlyphs" textLength="56" x="83.5" y="74.2187">Object data</text><rect fill="none" height="6" style="stroke: #C82930; stroke-width: 1.0;" width="6" x="71.5" y="82.2997"/><text fill="#000000" font-family="sans-serif" font-size="11" lengthAdjust="spacingAndGlyphs" textLength="102" x="83.5" y="87.4186">TreeNode&lt;T&gt; parent</text><line style="stroke: #A80036; stroke-width: 1.5;" x1="64.5" x2="340.5" y1="94.3996" y2="94.3996"/><ellipse cx="74.5" cy="106.4996" fill="#84BE84" rx="3" ry="3" style="stroke: #038048; stroke-width: 1.0;"/><text fill="#000000" font-family="sans-serif" font-size="11" lengthAdjust="spacingAndGlyphs" textLength="113" x="83.5" y="108.6185">TreeNode(Object data)</text><ellipse cx="74.5" cy="119.6995" fill="#84BE84" rx="3" ry="3" style="stroke: #038048; stroke-width: 1.0;"/><text fill="#000000" font-family="sans-serif" font-size="11" lengthAdjust="spacingAndGlyphs" textLength="178" x="83.5" y="121.8184">TreeNode&lt;T&gt; addChild(Object child)</text><ellipse cx="74.5" cy="132.8994" fill="#84BE84" rx="3" ry="3" style="stroke: #038048; stroke-width: 1.0;"/><text fill="#000000" font-family="sans-serif" font-size="11" lengthAdjust="spacingAndGlyphs" textLength="81" x="83.5" y="135.0183">Object getData()</text><ellipse cx="74.5" cy="146.0993" fill="#84BE84" rx="3" ry="3" style="stroke: #038048; stroke-width: 1.0;"/><text fill="#000000" font-family="sans-serif" font-size="11" lengthAdjust="spacingAndGlyphs" textLength="150" x="83.5" y="148.2182">Node&lt;T&gt; setData(Object data)</text><ellipse cx="74.5" cy="159.2992" fill="#84BE84" rx="3" ry="3" style="stroke: #038048; stroke-width: 1.0;"/><text fill="#000000" font-family="sans-serif" font-size="11" lengthAdjust="spacingAndGlyphs" textLength="126" x="83.5" y="161.4182">TreeNode&lt;T&gt; getParent()</text><ellipse cx="74.5" cy="172.4991" fill="#84BE84" rx="3" ry="3" style="stroke: #038048; stroke-width: 1.0;"/><text fill="#000000" font-family="sans-serif" font-size="11" lengthAdjust="spacingAndGlyphs" textLength="134" x="83.5" y="174.6181">TreeNode&lt;T&gt; getChildren()</text><ellipse cx="74.5" cy="185.699" fill="#84BE84" rx="3" ry="3" style="stroke: #038048; stroke-width: 1.0;"/><text fill="#000000" font-family="sans-serif" font-size="11" lengthAdjust="spacingAndGlyphs" textLength="121" x="83.5" y="187.818">Object getChildrenData()</text><ellipse cx="74.5" cy="198.8989" fill="#84BE84" rx="3" ry="3" style="stroke: #038048; stroke-width: 1.0;"/><text fill="#000000" font-family="sans-serif" font-size="11" lengthAdjust="spacingAndGlyphs" textLength="208" x="83.5" y="201.0179">void traverse_linear(TreeAction&lt;T&gt; action)</text><ellipse cx="74.5" cy="212.0988" fill="#84BE84" rx="3" ry="3" style="stroke: #038048; stroke-width: 1.0;"/><text fill="#000000" font-family="sans-serif" font-size="11" lengthAdjust="spacingAndGlyphs" textLength="176" x="83.5" y="214.2178">void traverse(TreeAction&lt;T&gt; action)</text><ellipse cx="74.5" cy="225.2987" fill="#84BE84" rx="3" ry="3" style="stroke: #038048; stroke-width: 1.0;"/><text fill="#000000" font-family="sans-serif" font-size="11" lengthAdjust="spacingAndGlyphs" textLength="252" x="83.5" y="227.4177">void traverse_reverse_linear(TreeAction&lt;T&gt; action)</text><ellipse cx="74.5" cy="238.4986" fill="#84BE84" rx="3" ry="3" style="stroke: #038048; stroke-width: 1.0;"/><text fill="#000000" font-family="sans-serif" font-size="11" lengthAdjust="spacingAndGlyphs" textLength="156" x="83.5" y="240.6176">void BFT(TreeAction&lt;T&gt; action)</text><ellipse cx="74.5" cy="251.6985" fill="#84BE84" rx="3" ry="3" style="stroke: #038048; stroke-width: 1.0;"/><text fill="#000000" font-family="sans-serif" font-size="11" lengthAdjust="spacingAndGlyphs" textLength="200" x="83.5" y="253.8175">void reverse_BFT(TreeAction&lt;T&gt; action)</text><ellipse cx="74.5" cy="264.8984" fill="#84BE84" rx="3" ry="3" style="stroke: #038048; stroke-width: 1.0;"/><text fill="#000000" font-family="sans-serif" font-size="11" lengthAdjust="spacingAndGlyphs" textLength="157" x="83.5" y="267.0174">void DFT(TreeAction&lt;T&gt; action)</text></a><!--class it.matlice.ingsw.tree.TreeNodeObject--><a target="_parent" xlink:actuate="onRequest" xlink:href="../../../../it/matlice/ingsw/tree/TreeNode.html" xlink:show="new" xlink:title="it.matlice.ingsw.tree.TreeNode" xlink:type="simple"><rect fill="#FEFECE" filter="url(#fln51hb)" height="38.7999" style="stroke: #A80036; stroke-width: 1.5;" width="123" x="6" y="335.5"/><ellipse cx="21" cy="354.9" fill="#ADD1B2" rx="11" ry="11" style="stroke: #A80036; stroke-width: 1.0;"/><path d="M16,356.0562 C16,358.5562 18.1406,360.3687 21.0625,360.3687 C22.2969,360.3687 23.4688,360.0718 24.2188,359.5562 C24.8281,359.1343 25.1563,358.7125 25.1563,358.3062 C25.1563,357.8375 24.7344,357.4312 24.2344,357.4312 C24,357.4312 23.7813,357.5093 23.5781,357.7125 C23.1406,358.15 23.1406,358.15 22.9688,358.2437 C22.5156,358.4781 21.875,358.6187 21.1094,358.6187 C19.1094,358.6187 17.8281,357.6031 17.8281,356.025 L17.8281,354.9781 C17.8281,353.275 19.0469,352.0718 20.75,352.0718 C21.3281,352.0718 21.9063,352.2125 22.375,352.4625 C22.8438,352.7281 23.0156,352.9156 23.0781,353.275 C23.2031,353.9468 23.4531,354.1968 23.9844,354.1968 C24.2656,354.1968 24.5469,354.0562 24.7344,353.8375 C24.8594,353.6656 24.9063,353.4937 24.9063,353.0562 L24.9063,351.6968 C24.9063,351.275 24.8906,351.1343 24.7656,350.9625 C24.5938,350.7125 24.3125,350.5562 23.9844,350.5562 C23.6719,350.5562 23.4688,350.6656 23.25,350.9312 C22.0781,350.4312 21.6406,350.3218 20.6875,350.3218 C18.0156,350.3218 16,352.3375 16,354.9625 L16,356.0562 Z "/><text fill="#000000" font-family="sans-serif" font-size="14" font-weight="bold" lengthAdjust="spacingAndGlyphs" textLength="91" x="35" y="353.5059">TreeNode&lt;T&gt;</text><text fill="#000000" font-family="sans-serif" font-size="10" lengthAdjust="spacingAndGlyphs" textLength="90" x="35.5" y="366.5899">it.matlice.ingsw.tree</text></a><!--class java.lang.Object--><rect fill="#D3D3D3" filter="url(#fln51hb)" height="38.7999" style="stroke: #A80036; stroke-width: 1.5;" width="77" x="164" y="335.5"/><rect fill="#D3D3D3" height="38.7999" style="stroke: #A80036; stroke-width: 1.5;" width="77" x="164" y="335.5"/><ellipse cx="179" cy="354.9" fill="#ADD1B2" rx="11" ry="11" style="stroke: #A80036; stroke-width: 1.0;"/><path d="M174,356.0562 C174,358.5562 176.1406,360.3687 179.0625,360.3687 C180.2969,360.3687 181.4688,360.0718 182.2188,359.5562 C182.8281,359.1343 183.1563,358.7125 183.1563,358.3062 C183.1563,357.8375 182.7344,357.4312 182.2344,357.4312 C182,357.4312 181.7813,357.5093 181.5781,357.7125 C181.1406,358.15 181.1406,358.15 180.9688,358.2437 C180.5156,358.4781 179.875,358.6187 179.1094,358.6187 C177.1094,358.6187 175.8281,357.6031 175.8281,356.025 L175.8281,354.9781 C175.8281,353.275 177.0469,352.0718 178.75,352.0718 C179.3281,352.0718 179.9063,352.2125 180.375,352.4625 C180.8438,352.7281 181.0156,352.9156 181.0781,353.275 C181.2031,353.9468 181.4531,354.1968 181.9844,354.1968 C182.2656,354.1968 182.5469,354.0562 182.7344,353.8375 C182.8594,353.6656 182.9063,353.4937 182.9063,353.0562 L182.9063,351.6968 C182.9063,351.275 182.8906,351.1343 182.7656,350.9625 C182.5938,350.7125 182.3125,350.5562 181.9844,350.5562 C181.6719,350.5562 181.4688,350.6656 181.25,350.9312 C180.0781,350.4312 179.6406,350.3218 178.6875,350.3218 C176.0156,350.3218 174,352.3375 174,354.9625 L174,356.0562 Z "/><text fill="#000000" font-family="sans-serif" font-size="14" font-weight="bold" lengthAdjust="spacingAndGlyphs" textLength="45" x="193" y="353.5059">Object</text><text fill="#000000" font-family="sans-serif" font-size="10" lengthAdjust="spacingAndGlyphs" textLength="42" x="194.5" y="366.5899">java.lang</text><!--class it.matlice.ingsw.tree.NodeObject--><a target="_parent" xlink:actuate="onRequest" xlink:href="../../../../it/matlice/ingsw/tree/Node.html" xlink:show="new" xlink:title="it.matlice.ingsw.tree.Node" xlink:type="simple"><rect fill="#FEFECE" filter="url(#fln51hb)" height="42.3999" style="stroke: #A80036; stroke-width: 1.5;" width="122" x="276.5" y="334"/><ellipse cx="291.5" cy="355.2" fill="#B4A7E5" rx="11" ry="11" style="stroke: #A80036; stroke-width: 1.0;"/><path d="M292.5156,352.3562 L294.1719,352.3562 C294.5625,352.3562 294.7656,352.325 294.9219,352.2468 C295.1875,352.075 295.3594,351.7781 295.3594,351.4812 C295.3594,351.2 295.2188,350.95 294.9844,350.7781 C294.7969,350.6531 294.6406,350.6062 294.1719,350.6062 L289.0313,350.6062 C288.5938,350.6062 288.4531,350.6218 288.2813,350.7312 C288.0156,350.9031 287.8438,351.1843 287.8438,351.4812 C287.8438,351.7625 287.9844,352.0437 288.2188,352.2 C288.4063,352.325 288.5938,352.3562 289.0313,352.3562 L290.6875,352.3562 L290.6875,358.45 L289.0313,358.45 C288.5938,358.45 288.4531,358.4656 288.2813,358.575 C288.0156,358.7312 287.8438,359.0281 287.8438,359.3093 C287.8438,359.9187 288.25,360.2 289.0313,360.2 L294.1719,360.2 C294.9531,360.2 295.3594,359.9187 295.3594,359.3093 C295.3594,359.0437 295.2188,358.7937 294.9844,358.6218 C294.7969,358.4812 294.625,358.45 294.1719,358.45 L292.5156,358.45 L292.5156,352.3562 Z "/><text fill="#000000" font-family="sans-serif" font-size="14" font-style="italic" font-weight="bold" lengthAdjust="spacingAndGlyphs" textLength="61" x="320" y="354.3999">Node&lt;T&gt;</text><text fill="#000000" font-family="sans-serif" font-size="10" font-style="italic" lengthAdjust="spacingAndGlyphs" textLength="90" x="305.5" y="368.8999">it.matlice.ingsw.tree</text></a><!--class it.matlice.ingsw.tree.TreeActionObject--><a target="_parent" xlink:actuate="onRequest" xlink:href="../../../../it/matlice/ingsw/tree/TreeAction.html" xlink:show="new" xlink:title="it.matlice.ingsw.tree.TreeAction" xlink:type="simple"><rect fill="#FEFECE" filter="url(#fln51hb)" height="42.3999" style="stroke: #A80036; stroke-width: 1.5;" width="132" x="433.5" y="334"/><ellipse cx="448.5" cy="355.2" fill="#B4A7E5" rx="11" ry="11" style="stroke: #A80036; stroke-width: 1.0;"/><path d="M449.5156,352.3562 L451.1719,352.3562 C451.5625,352.3562 451.7656,352.325 451.9219,352.2468 C452.1875,352.075 452.3594,351.7781 452.3594,351.4812 C452.3594,351.2 452.2188,350.95 451.9844,350.7781 C451.7969,350.6531 451.6406,350.6062 451.1719,350.6062 L446.0313,350.6062 C445.5938,350.6062 445.4531,350.6218 445.2813,350.7312 C445.0156,350.9031 444.8438,351.1843 444.8438,351.4812 C444.8438,351.7625 444.9844,352.0437 445.2188,352.2 C445.4063,352.325 445.5938,352.3562 446.0313,352.3562 L447.6875,352.3562 L447.6875,358.45 L446.0313,358.45 C445.5938,358.45 445.4531,358.4656 445.2813,358.575 C445.0156,358.7312 444.8438,359.0281 444.8438,359.3093 C444.8438,359.9187 445.25,360.2 446.0313,360.2 L451.1719,360.2 C451.9531,360.2 452.3594,359.9187 452.3594,359.3093 C452.3594,359.0437 452.2188,358.7937 451.9844,358.6218 C451.7969,358.4812 451.625,358.45 451.1719,358.45 L449.5156,358.45 L449.5156,352.3562 Z "/><text fill="#000000" font-family="sans-serif" font-size="14" font-style="italic" font-weight="bold" lengthAdjust="spacingAndGlyphs" textLength="100" x="462.5" y="354.3999">TreeAction&lt;T&gt;</text><text fill="#000000" font-family="sans-serif" font-size="10" font-style="italic" lengthAdjust="spacingAndGlyphs" textLength="90" x="467.5" y="368.8999">it.matlice.ingsw.tree</text></a><path d="M85.33,274.1 C85.33,274.1 85.33,330.2 85.33,330.2 " fill="none" style="stroke: #A80036; stroke-width: 1.0; stroke-dasharray: 7.0,7.0;"/><polygon fill="#A80036" points="85.33,335.2,89.33,326.2,85.33,330.2,81.33,326.2,85.33,335.2" style="stroke: #A80036; stroke-width: 1.0;"/><path d="M107.17,274.1 C107.17,274.1 107.17,330.2 107.17,330.2 " fill="none" style="stroke: #A80036; stroke-width: 1.0;"/><polygon fill="#A80036" points="107.17,335.2,111.17,326.2,107.17,330.2,103.17,326.2,107.17,335.2" style="stroke: #A80036; stroke-width: 1.0;"/><text fill="#000000" font-family="sans-serif" font-size="13" lengthAdjust="spacingAndGlyphs" textLength="36" x="77.8064" y="324.0389">parent</text><path d="M202.5,274.1 C202.5,274.1 202.5,330.2 202.5,330.2 " fill="none" style="stroke: #A80036; stroke-width: 1.0;"/><polygon fill="#A80036" points="202.5,335.2,206.5,326.2,202.5,330.2,198.5,326.2,202.5,335.2" style="stroke: #A80036; stroke-width: 1.0;"/><text fill="#000000" font-family="sans-serif" font-size="13" lengthAdjust="spacingAndGlyphs" textLength="25" x="173.6719" y="324.0389">data</text><path d="M309,274.1 C309,274.1 309,313.9 309,313.9 " fill="none" style="stroke: #A80036; stroke-width: 1.0; stroke-dasharray: 7.0,7.0;"/><polygon fill="none" points="316,313.9,309,333.9,302,313.9,316,313.9" style="stroke: #A80036; stroke-width: 1.0;"/><path d="M341.87,141 C419.03,141 499.5,141 499.5,141 C499.5,141 499.5,328.7 499.5,328.7 " fill="none" style="stroke: #A80036; stroke-width: 1.0; stroke-dasharray: 7.0,7.0;"/><polygon fill="#A80036" points="499.5,333.7,503.5,324.7,499.5,328.7,495.5,324.7,499.5,333.7" style="stroke: #A80036; stroke-width: 1.0;"/></g></svg>