<?xml version="1.0" encoding="UTF-8" standalone="no"?><svg xmlns="http://www.w3.org/2000/svg" xmlns:xlink="http://www.w3.org/1999/xlink" contentScriptType="application/ecmascript" contentStyleType="text/css" height="192px" preserveAspectRatio="none" style="width:249px;height:192px;" version="1.1" viewBox="0 0 249 192" width="249px" zoomAndPan="magnify"><defs><filter height="300%" id="fn8j9vq" width="300%" x="-1" y="-1"><feGaussianBlur result="blurOut" stdDeviation="2.0"/><feColorMatrix in="blurOut" result="blurOut2" type="matrix" values="0 0 0 0 0 0 0 0 0 0 0 0 0 0 0 0 0 0 .4 0"/><feOffset dx="4.0" dy="4.0" in="blurOut2" result="blurOut3"/><feBlend in="SourceGraphic" in2="blurOut3" mode="normal"/></filter></defs><g><!--class it.matlice.ingsw.tree.TreeAction--><a target="_parent" xlink:actuate="onRequest" xlink:href="../../../../it/matlice/ingsw/tree/TreeAction.html" xlink:show="new" xlink:title="it.matlice.ingsw.tree.TreeAction" xlink:type="simple"><rect fill="#FEFECE" filter="url(#fn8j9vq)" height="73.2498" style="stroke: #A80036; stroke-width: 1.5;" width="172" x="48" y="8"/><ellipse cx="85.5" cy="29.2" fill="#B4A7E5" rx="11" ry="11" style="stroke: #A80036; stroke-width: 1.0;"/><path d="M86.5156,26.3562 L88.1719,26.3562 C88.5625,26.3562 88.7656,26.325 88.9219,26.2468 C89.1875,26.075 89.3594,25.7781 89.3594,25.4812 C89.3594,25.2 89.2188,24.95 88.9844,24.7781 C88.7969,24.6531 88.6406,24.6062 88.1719,24.6062 L83.0313,24.6062 C82.5938,24.6062 82.4531,24.6218 82.2813,24.7312 C82.0156,24.9031 81.8438,25.1843 81.8438,25.4812 C81.8438,25.7625 81.9844,26.0437 82.2188,26.2 C82.4063,26.325 82.5938,26.3562 83.0313,26.3562 L84.6875,26.3562 L84.6875,32.45 L83.0313,32.45 C82.5938,32.45 82.4531,32.4656 82.2813,32.575 C82.0156,32.7312 81.8438,33.0281 81.8438,33.3093 C81.8438,33.9187 82.25,34.2 83.0313,34.2 L88.1719,34.2 C88.9531,34.2 89.3594,33.9187 89.3594,33.3093 C89.3594,33.0437 89.2188,32.7937 88.9844,32.6218 C88.7969,32.4812 88.625,32.45 88.1719,32.45 L86.5156,32.45 L86.5156,26.3562 Z "/><text fill="#000000" font-family="sans-serif" font-size="14" font-style="italic" font-weight="bold" lengthAdjust="spacingAndGlyphs" textLength="75" x="112" y="28.3999">TreeAction</text><text fill="#000000" font-family="sans-serif" font-size="10" font-style="italic" lengthAdjust="spacingAndGlyphs" textLength="90" x="104.5" y="42.8999">it.matlice.ingsw.tree</text><line style="stroke: #A80036; stroke-width: 1.5;" x1="49" x2="219" y1="50.3999" y2="50.3999"/><line style="stroke: #A80036; stroke-width: 1.5;" x1="49" x2="219" y1="58.3999" y2="58.3999"/><ellipse cx="59" cy="71.3248" fill="#84BE84" rx="3" ry="3" style="stroke: #038048; stroke-width: 1.0;"/><text fill="#000000" font-family="sans-serif" font-size="11" font-style="italic" lengthAdjust="spacingAndGlyphs" textLength="146" x="68" y="74.4998">void nodeAction(Node&lt;T&gt; ref)</text></a><!--class it.matlice.ingsw.tree.NodeObject--><a target="_parent" xlink:actuate="onRequest" xlink:href="../../../../it/matlice/ingsw/tree/Node.html" xlink:show="new" xlink:title="it.matlice.ingsw.tree.Node" xlink:type="simple"><rect fill="#FEFECE" filter="url(#fn8j9vq)" height="42.3999" style="stroke: #A80036; stroke-width: 1.5;" width="122" x="6" y="141"/><ellipse cx="21" cy="162.2" fill="#B4A7E5" rx="11" ry="11" style="stroke: #A80036; stroke-width: 1.0;"/><path d="M22.0156,159.3562 L23.6719,159.3562 C24.0625,159.3562 24.2656,159.325 24.4219,159.2468 C24.6875,159.075 24.8594,158.7781 24.8594,158.4812 C24.8594,158.2 24.7188,157.95 24.4844,157.7781 C24.2969,157.6531 24.1406,157.6062 23.6719,157.6062 L18.5313,157.6062 C18.0938,157.6062 17.9531,157.6218 17.7813,157.7312 C17.5156,157.9031 17.3438,158.1843 17.3438,158.4812 C17.3438,158.7625 17.4844,159.0437 17.7188,159.2 C17.9063,159.325 18.0938,159.3562 18.5313,159.3562 L20.1875,159.3562 L20.1875,165.45 L18.5313,165.45 C18.0938,165.45 17.9531,165.4656 17.7813,165.575 C17.5156,165.7312 17.3438,166.0281 17.3438,166.3093 C17.3438,166.9187 17.75,167.2 18.5313,167.2 L23.6719,167.2 C24.4531,167.2 24.8594,166.9187 24.8594,166.3093 C24.8594,166.0437 24.7188,165.7937 24.4844,165.6218 C24.2969,165.4812 24.125,165.45 23.6719,165.45 L22.0156,165.45 L22.0156,159.3562 Z "/><text fill="#000000" font-family="sans-serif" font-size="14" font-style="italic" font-weight="bold" lengthAdjust="spacingAndGlyphs" textLength="61" x="49.5" y="161.3999">Node&lt;T&gt;</text><text fill="#000000" font-family="sans-serif" font-size="10" font-style="italic" lengthAdjust="spacingAndGlyphs" textLength="90" x="35" y="175.8999">it.matlice.ingsw.tree</text></a><!--class java.lang.Object--><rect fill="#D3D3D3" filter="url(#fn8j9vq)" height="38.7999" style="stroke: #A80036; stroke-width: 1.5;" width="77" x="163.5" y="142.5"/><rect fill="#D3D3D3" height="38.7999" style="stroke: #A80036; stroke-width: 1.5;" width="77" x="163.5" y="142.5"/><ellipse cx="178.5" cy="161.9" fill="#ADD1B2" rx="11" ry="11" style="stroke: #A80036; stroke-width: 1.0;"/><path d="M173.5,163.0562 C173.5,165.5562 175.6406,167.3687 178.5625,167.3687 C179.7969,167.3687 180.9688,167.0718 181.7188,166.5562 C182.3281,166.1343 182.6563,165.7125 182.6563,165.3062 C182.6563,164.8375 182.2344,164.4312 181.7344,164.4312 C181.5,164.4312 181.2813,164.5093 181.0781,164.7125 C180.6406,165.15 180.6406,165.15 180.4688,165.2437 C180.0156,165.4781 179.375,165.6187 178.6094,165.6187 C176.6094,165.6187 175.3281,164.6031 175.3281,163.025 L175.3281,161.9781 C175.3281,160.275 176.5469,159.0718 178.25,159.0718 C178.8281,159.0718 179.4063,159.2125 179.875,159.4625 C180.3438,159.7281 180.5156,159.9156 180.5781,160.275 C180.7031,160.9468 180.9531,161.1968 181.4844,161.1968 C181.7656,161.1968 182.0469,161.0562 182.2344,160.8375 C182.3594,160.6656 182.4063,160.4937 182.4063,160.0562 L182.4063,158.6968 C182.4063,158.275 182.3906,158.1343 182.2656,157.9625 C182.0938,157.7125 181.8125,157.5562 181.4844,157.5562 C181.1719,157.5562 180.9688,157.6656 180.75,157.9312 C179.5781,157.4312 179.1406,157.3218 178.1875,157.3218 C175.5156,157.3218 173.5,159.3375 173.5,161.9625 L173.5,163.0562 Z "/><text fill="#000000" font-family="sans-serif" font-size="14" font-weight="bold" lengthAdjust="spacingAndGlyphs" textLength="45" x="192.5" y="160.5059">Object</text><text fill="#000000" font-family="sans-serif" font-size="10" lengthAdjust="spacingAndGlyphs" textLength="42" x="194" y="173.5899">java.lang</text><path d="M88,81.03 C88,81.03 88,135.9 88,135.9 " fill="none" style="stroke: #A80036; stroke-width: 1.0; stroke-dasharray: 7.0,7.0;"/><polygon fill="#A80036" points="88,140.9,92,131.9,88,135.9,84,131.9,88,140.9" style="stroke: #A80036; stroke-width: 1.0;"/><path d="M191.75,81.03 C191.75,81.03 191.75,137.25 191.75,137.25 " fill="none" style="stroke: #A80036; stroke-width: 1.0; stroke-dasharray: 7.0,7.0;"/><polygon fill="#A80036" points="191.75,142.25,195.75,133.25,191.75,137.25,187.75,133.25,191.75,142.25" style="stroke: #A80036; stroke-width: 1.0;"/></g></svg>