<?xml version="1.0" encoding="UTF-8" standalone="no"?><svg xmlns="http://www.w3.org/2000/svg" xmlns:xlink="http://www.w3.org/1999/xlink" contentScriptType="application/ecmascript" contentStyleType="text/css" height="206px" preserveAspectRatio="none" style="width:444px;height:206px;" version="1.1" viewBox="0 0 444 206" width="444px" zoomAndPan="magnify"><defs><filter height="300%" id="fwssbdd" width="300%" x="-1" y="-1"><feGaussianBlur result="blurOut" stdDeviation="2.0"/><feColorMatrix in="blurOut" result="blurOut2" type="matrix" values="0 0 0 0 0 0 0 0 0 0 0 0 0 0 0 0 0 0 .4 0"/><feOffset dx="4.0" dy="4.0" in="blurOut2" result="blurOut3"/><feBlend in="SourceGraphic" in2="blurOut3" mode="normal"/></filter></defs><g><!--cluster it.matlice.ingsw.model.auth.password--><a target="_parent" xlink:actuate="onRequest" xlink:href="../../../../../../it/matlice/ingsw/model/auth/password/package-summary.html" xlink:show="new" xlink:title="it.matlice.ingsw.model.auth.password" xlink:type="simple"><polygon fill="#FFFFE0" filter="url(#fwssbdd)" points="22,24,287,24,294,46.7999,437,46.7999,437,199,22,199,22,24" style="stroke: #000000; stroke-width: 2.0;"/><line style="stroke: #000000; stroke-width: 2.0;" x1="22" x2="294" y1="46.7999" y2="46.7999"/><text fill="#000000" font-family="sans-serif" font-size="14" font-weight="bold" lengthAdjust="spacingAndGlyphs" textLength="259" x="26" y="39.0059">it.matlice.ingsw.model.auth.password</text></a><!--class it.matlice.ingsw.model.auth.password.PasswordAuthData--><a target="_parent" xlink:actuate="onRequest" xlink:href="../../../../../../it/matlice/ingsw/model/auth/password/PasswordAuthData.html" xlink:show="new" xlink:title="it.matlice.ingsw.model.auth.password.PasswordAuthData" xlink:type="simple"><rect fill="#FEFECE" filter="url(#fwssbdd)" height="32" style="stroke: #A80036; stroke-width: 1.5;" width="163" x="257.5" y="59"/><ellipse cx="272.5" cy="75" fill="#ADD1B2" rx="11" ry="11" style="stroke: #A80036; stroke-width: 1.0;"/><path d="M267.5,76.1563 C267.5,78.6563 269.6406,80.4688 272.5625,80.4688 C273.7969,80.4688 274.9688,80.1719 275.7188,79.6563 C276.3281,79.2344 276.6563,78.8125 276.6563,78.4063 C276.6563,77.9375 276.2344,77.5313 275.7344,77.5313 C275.5,77.5313 275.2813,77.6094 275.0781,77.8125 C274.6406,78.25 274.6406,78.25 274.4688,78.3438 C274.0156,78.5781 273.375,78.7188 272.6094,78.7188 C270.6094,78.7188 269.3281,77.7031 269.3281,76.125 L269.3281,75.0781 C269.3281,73.375 270.5469,72.1719 272.25,72.1719 C272.8281,72.1719 273.4063,72.3125 273.875,72.5625 C274.3438,72.8281 274.5156,73.0156 274.5781,73.375 C274.7031,74.0469 274.9531,74.2969 275.4844,74.2969 C275.7656,74.2969 276.0469,74.1563 276.2344,73.9375 C276.3594,73.7656 276.4063,73.5938 276.4063,73.1563 L276.4063,71.7969 C276.4063,71.375 276.3906,71.2344 276.2656,71.0625 C276.0938,70.8125 275.8125,70.6563 275.4844,70.6563 C275.1719,70.6563 274.9688,70.7656 274.75,71.0313 C273.5781,70.5313 273.1406,70.4219 272.1875,70.4219 C269.5156,70.4219 267.5,72.4375 267.5,75.0625 L267.5,76.1563 Z "/><text fill="#000000" font-family="sans-serif" font-size="14" font-weight="bold" lengthAdjust="spacingAndGlyphs" textLength="131" x="286.5" y="79.606">PasswordAuthData</text></a><!--class it.matlice.ingsw.model.auth.password.PasswordAuthenticable--><a target="_parent" xlink:actuate="onRequest" xlink:href="../../../../../../it/matlice/ingsw/model/auth/password/PasswordAuthenticable.html" xlink:show="new" xlink:title="it.matlice.ingsw.model.auth.password.PasswordAuthenticable" xlink:type="simple"><rect fill="#FEFECE" filter="url(#fwssbdd)" height="32" style="stroke: #A80036; stroke-width: 1.5;" width="195" x="37.5" y="151"/><ellipse cx="52.5" cy="167" fill="#B4A7E5" rx="11" ry="11" style="stroke: #A80036; stroke-width: 1.0;"/><path d="M53.5156,164.1563 L55.1719,164.1563 C55.5625,164.1563 55.7656,164.125 55.9219,164.0469 C56.1875,163.875 56.3594,163.5781 56.3594,163.2813 C56.3594,163 56.2188,162.75 55.9844,162.5781 C55.7969,162.4531 55.6406,162.4063 55.1719,162.4063 L50.0313,162.4063 C49.5938,162.4063 49.4531,162.4219 49.2813,162.5313 C49.0156,162.7031 48.8438,162.9844 48.8438,163.2813 C48.8438,163.5625 48.9844,163.8438 49.2188,164 C49.4063,164.125 49.5938,164.1563 50.0313,164.1563 L51.6875,164.1563 L51.6875,170.25 L50.0313,170.25 C49.5938,170.25 49.4531,170.2656 49.2813,170.375 C49.0156,170.5313 48.8438,170.8281 48.8438,171.1094 C48.8438,171.7188 49.25,172 50.0313,172 L55.1719,172 C55.9531,172 56.3594,171.7188 56.3594,171.1094 C56.3594,170.8438 56.2188,170.5938 55.9844,170.4219 C55.7969,170.2813 55.625,170.25 55.1719,170.25 L53.5156,170.25 L53.5156,164.1563 Z "/><text fill="#000000" font-family="sans-serif" font-size="14" font-style="italic" font-weight="bold" lengthAdjust="spacingAndGlyphs" textLength="163" x="66.5" y="172.95">PasswordAuthenticable</text></a><!--class it.matlice.ingsw.model.auth.password.PasswordAuthMethod--><a target="_parent" xlink:actuate="onRequest" xlink:href="../../../../../../it/matlice/ingsw/model/auth/password/PasswordAuthMethod.html" xlink:show="new" xlink:title="it.matlice.ingsw.model.auth.password.PasswordAuthMethod" xlink:type="simple"><rect fill="#FEFECE" filter="url(#fwssbdd)" height="32" style="stroke: #A80036; stroke-width: 1.5;" width="184" x="38" y="59"/><ellipse cx="53" cy="75" fill="#ADD1B2" rx="11" ry="11" style="stroke: #A80036; stroke-width: 1.0;"/><path d="M48,76.1563 C48,78.6563 50.1406,80.4688 53.0625,80.4688 C54.2969,80.4688 55.4688,80.1719 56.2188,79.6563 C56.8281,79.2344 57.1563,78.8125 57.1563,78.4063 C57.1563,77.9375 56.7344,77.5313 56.2344,77.5313 C56,77.5313 55.7813,77.6094 55.5781,77.8125 C55.1406,78.25 55.1406,78.25 54.9688,78.3438 C54.5156,78.5781 53.875,78.7188 53.1094,78.7188 C51.1094,78.7188 49.8281,77.7031 49.8281,76.125 L49.8281,75.0781 C49.8281,73.375 51.0469,72.1719 52.75,72.1719 C53.3281,72.1719 53.9063,72.3125 54.375,72.5625 C54.8438,72.8281 55.0156,73.0156 55.0781,73.375 C55.2031,74.0469 55.4531,74.2969 55.9844,74.2969 C56.2656,74.2969 56.5469,74.1563 56.7344,73.9375 C56.8594,73.7656 56.9063,73.5938 56.9063,73.1563 L56.9063,71.7969 C56.9063,71.375 56.8906,71.2344 56.7656,71.0625 C56.5938,70.8125 56.3125,70.6563 55.9844,70.6563 C55.6719,70.6563 55.4688,70.7656 55.25,71.0313 C54.0781,70.5313 53.6406,70.4219 52.6875,70.4219 C50.0156,70.4219 48,72.4375 48,75.0625 L48,76.1563 Z "/><text fill="#000000" font-family="sans-serif" font-size="14" font-weight="bold" lengthAdjust="spacingAndGlyphs" textLength="152" x="67" y="79.606">PasswordAuthMethod</text></a><path d="M130,91.03 C130,91.03 130,145.85 130,145.85 " fill="none" style="stroke: #A80036; stroke-width: 1.0;"/><polygon fill="#A80036" points="130,150.85,134,141.85,130,145.85,126,141.85,130,150.85" style="stroke: #A80036; stroke-width: 1.0;"/><text fill="#000000" font-family="sans-serif" font-size="13" lengthAdjust="spacingAndGlyphs" textLength="25" x="98.7656" y="139.6086">user</text></g></svg>