<?xml version="1.0" encoding="UTF-8" standalone="no"?><svg xmlns="http://www.w3.org/2000/svg" xmlns:xlink="http://www.w3.org/1999/xlink" contentScriptType="application/ecmascript" contentStyleType="text/css" height="253px" preserveAspectRatio="none" style="width:222px;height:253px;" version="1.1" viewBox="0 0 222 253" width="222px" zoomAndPan="magnify"><defs><filter height="300%" id="frbl5oo" width="300%" x="-1" y="-1"><feGaussianBlur result="blurOut" stdDeviation="2.0"/><feColorMatrix in="blurOut" result="blurOut2" type="matrix" values="0 0 0 0 0 0 0 0 0 0 0 0 0 0 0 0 0 0 .4 0"/><feOffset dx="4.0" dy="4.0" in="blurOut2" result="blurOut3"/><feBlend in="SourceGraphic" in2="blurOut3" mode="normal"/></filter></defs><g><!--class it.matlice.ingsw.model.auth.password.PasswordAuthData--><a target="_parent" xlink:actuate="onRequest" xlink:href="../../../../../../it/matlice/ingsw/model/auth/password/PasswordAuthData.html" xlink:show="new" xlink:title="it.matlice.ingsw.model.auth.password.PasswordAuthData" xlink:type="simple"><rect fill="#FEFECE" filter="url(#frbl5oo)" height="133.9993" style="stroke: #A80036; stroke-width: 1.5;" width="207" x="6" y="8"/><ellipse cx="22.8" cy="27.4" fill="#ADD1B2" rx="11" ry="11" style="stroke: #A80036; stroke-width: 1.0;"/><path d="M17.8,28.5562 C17.8,31.0562 19.9406,32.8687 22.8625,32.8687 C24.0969,32.8687 25.2688,32.5718 26.0188,32.0562 C26.6281,31.6343 26.9563,31.2125 26.9563,30.8062 C26.9563,30.3375 26.5344,29.9312 26.0344,29.9312 C25.8,29.9312 25.5813,30.0093 25.3781,30.2125 C24.9406,30.65 24.9406,30.65 24.7688,30.7437 C24.3156,30.9781 23.675,31.1187 22.9094,31.1187 C20.9094,31.1187 19.6281,30.1031 19.6281,28.525 L19.6281,27.4781 C19.6281,25.775 20.8469,24.5718 22.55,24.5718 C23.1281,24.5718 23.7063,24.7125 24.175,24.9625 C24.6438,25.2281 24.8156,25.4156 24.8781,25.775 C25.0031,26.4468 25.2531,26.6968 25.7844,26.6968 C26.0656,26.6968 26.3469,26.5562 26.5344,26.3375 C26.6594,26.1656 26.7063,25.9937 26.7063,25.5562 L26.7063,24.1968 C26.7063,23.775 26.6906,23.6343 26.5656,23.4625 C26.3938,23.2125 26.1125,23.0562 25.7844,23.0562 C25.4719,23.0562 25.2688,23.1656 25.05,23.4312 C23.8781,22.9312 23.4406,22.8218 22.4875,22.8218 C19.8156,22.8218 17.8,24.8375 17.8,27.4625 L17.8,28.5562 Z "/><text fill="#000000" font-family="sans-serif" font-size="14" font-weight="bold" lengthAdjust="spacingAndGlyphs" textLength="131" x="57.2" y="26.0059">PasswordAuthData</text><text fill="#000000" font-family="sans-serif" font-size="10" lengthAdjust="spacingAndGlyphs" textLength="171" x="37.2" y="39.0899">it.matlice.ingsw.model.auth.password</text><line style="stroke: #A80036; stroke-width: 1.5;" x1="7" x2="212" y1="46.7999" y2="46.7999"/><rect fill="none" height="6" style="stroke: #C82930; stroke-width: 1.0;" width="6" x="14" y="55.8999"/><text fill="#000000" font-family="sans-serif" font-size="11" lengthAdjust="spacingAndGlyphs" textLength="79" x="26" y="61.0188">String password</text><line style="stroke: #A80036; stroke-width: 1.5;" x1="7" x2="212" y1="67.9998" y2="67.9998"/><ellipse cx="17" cy="80.0998" fill="#84BE84" rx="3" ry="3" style="stroke: #038048; stroke-width: 1.0;"/><text fill="#000000" font-family="sans-serif" font-size="11" lengthAdjust="spacingAndGlyphs" textLength="181" x="26" y="82.2187">PasswordAuthData(String password)</text><ellipse cx="17" cy="93.2997" fill="#84BE84" rx="3" ry="3" style="stroke: #038048; stroke-width: 1.0;"/><text fill="#000000" font-family="sans-serif" font-size="11" lengthAdjust="spacingAndGlyphs" textLength="87" x="26" y="95.4186">String password()</text><ellipse cx="17" cy="106.4996" fill="#84BE84" rx="3" ry="3" style="stroke: #038048; stroke-width: 1.0;"/><text fill="#000000" font-family="sans-serif" font-size="11" lengthAdjust="spacingAndGlyphs" textLength="130" x="26" y="108.6185">boolean equals(Object obj)</text><ellipse cx="17" cy="119.6995" fill="#84BE84" rx="3" ry="3" style="stroke: #038048; stroke-width: 1.0;"/><text fill="#000000" font-family="sans-serif" font-size="11" lengthAdjust="spacingAndGlyphs" textLength="72" x="26" y="121.8184">int hashCode()</text><ellipse cx="17" cy="132.8994" fill="#84BE84" rx="3" ry="3" style="stroke: #038048; stroke-width: 1.0;"/><text fill="#000000" font-family="sans-serif" font-size="11" lengthAdjust="spacingAndGlyphs" textLength="76" x="26" y="135.0183">String toString()</text></a><!--class it.matlice.ingsw.model.auth.AuthData--><a target="_parent" xlink:actuate="onRequest" xlink:href="../../../../../../it/matlice/ingsw/model/auth/AuthData.html" xlink:show="new" xlink:title="it.matlice.ingsw.model.auth.AuthData" xlink:type="simple"><rect fill="#FFFFFF" filter="url(#frbl5oo)" height="42.3999" style="stroke: #A80036; stroke-width: 1.5;" width="156" x="31.5" y="202"/><rect fill="#FFFFFF" height="42.3999" style="stroke: #A80036; stroke-width: 1.5;" width="156" x="31.5" y="202"/><ellipse cx="46.5" cy="223.2" fill="#B4A7E5" rx="11" ry="11" style="stroke: #A80036; stroke-width: 1.0;"/><path d="M47.5156,220.3562 L49.1719,220.3562 C49.5625,220.3562 49.7656,220.325 49.9219,220.2468 C50.1875,220.075 50.3594,219.7781 50.3594,219.4812 C50.3594,219.2 50.2188,218.95 49.9844,218.7781 C49.7969,218.6531 49.6406,218.6062 49.1719,218.6062 L44.0313,218.6062 C43.5938,218.6062 43.4531,218.6218 43.2813,218.7312 C43.0156,218.9031 42.8438,219.1843 42.8438,219.4812 C42.8438,219.7625 42.9844,220.0437 43.2188,220.2 C43.4063,220.325 43.5938,220.3562 44.0313,220.3562 L45.6875,220.3562 L45.6875,226.45 L44.0313,226.45 C43.5938,226.45 43.4531,226.4656 43.2813,226.575 C43.0156,226.7312 42.8438,227.0281 42.8438,227.3093 C42.8438,227.9187 43.25,228.2 44.0313,228.2 L49.1719,228.2 C49.9531,228.2 50.3594,227.9187 50.3594,227.3093 C50.3594,227.0437 50.2188,226.7937 49.9844,226.6218 C49.7969,226.4812 49.625,226.45 49.1719,226.45 L47.5156,226.45 L47.5156,220.3562 Z "/><text fill="#000000" font-family="sans-serif" font-size="14" font-style="italic" font-weight="bold" lengthAdjust="spacingAndGlyphs" textLength="64" x="90.5" y="222.3999">AuthData</text><text fill="#000000" font-family="sans-serif" font-size="10" font-style="italic" lengthAdjust="spacingAndGlyphs" textLength="124" x="60.5" y="236.8999">it.matlice.ingsw.model.auth</text></a><path d="M109.5,142.07 C109.5,142.07 109.5,181.74 109.5,181.74 " fill="none" style="stroke: #A80036; stroke-width: 1.0; stroke-dasharray: 7.0,7.0;"/><polygon fill="none" points="116.5,181.74,109.5,201.74,102.5,181.74,116.5,181.74" style="stroke: #A80036; stroke-width: 1.0;"/></g></svg>