<?xml version="1.0" encoding="UTF-8" standalone="no"?><svg xmlns="http://www.w3.org/2000/svg" xmlns:xlink="http://www.w3.org/1999/xlink" contentScriptType="application/ecmascript" contentStyleType="text/css" height="336px" preserveAspectRatio="none" style="width:742px;height:336px;" version="1.1" viewBox="0 0 742 336" width="742px" zoomAndPan="magnify"><defs><filter height="300%" id="farbyck" width="300%" x="-1" y="-1"><feGaussianBlur result="blurOut" stdDeviation="2.0"/><feColorMatrix in="blurOut" result="blurOut2" type="matrix" values="0 0 0 0 0 0 0 0 0 0 0 0 0 0 0 0 0 0 .4 0"/><feOffset dx="4.0" dy="4.0" in="blurOut2" result="blurOut3"/><feBlend in="SourceGraphic" in2="blurOut3" mode="normal"/></filter></defs><g><!--class it.matlice.ingsw.model.auth.password.PasswordAuthenticable--><a target="_parent" xlink:actuate="onRequest" xlink:href="../../../../../../it/matlice/ingsw/model/auth/password/PasswordAuthenticable.html" xlink:show="new" xlink:title="it.matlice.ingsw.model.auth.password.PasswordAuthenticable" xlink:type="simple"><rect fill="#FEFECE" filter="url(#farbyck)" height="117.7995" style="stroke: #A80036; stroke-width: 1.5;" width="203" x="256" y="107"/><ellipse cx="271" cy="128.2" fill="#B4A7E5" rx="11" ry="11" style="stroke: #A80036; stroke-width: 1.0;"/><path d="M272.0156,125.3562 L273.6719,125.3562 C274.0625,125.3562 274.2656,125.325 274.4219,125.2468 C274.6875,125.075 274.8594,124.7781 274.8594,124.4812 C274.8594,124.2 274.7188,123.95 274.4844,123.7781 C274.2969,123.6531 274.1406,123.6062 273.6719,123.6062 L268.5313,123.6062 C268.0938,123.6062 267.9531,123.6218 267.7813,123.7312 C267.5156,123.9031 267.3438,124.1843 267.3438,124.4812 C267.3438,124.7625 267.4844,125.0437 267.7188,125.2 C267.9063,125.325 268.0938,125.3562 268.5313,125.3562 L270.1875,125.3562 L270.1875,131.45 L268.5313,131.45 C268.0938,131.45 267.9531,131.4656 267.7813,131.575 C267.5156,131.7312 267.3438,132.0281 267.3438,132.3093 C267.3438,132.9187 267.75,133.2 268.5313,133.2 L273.6719,133.2 C274.4531,133.2 274.8594,132.9187 274.8594,132.3093 C274.8594,132.0437 274.7188,131.7937 274.4844,131.6218 C274.2969,131.4812 274.125,131.45 273.6719,131.45 L272.0156,131.45 L272.0156,125.3562 Z "/><text fill="#000000" font-family="sans-serif" font-size="14" font-style="italic" font-weight="bold" lengthAdjust="spacingAndGlyphs" textLength="163" x="289" y="127.3999">PasswordAuthenticable</text><text fill="#000000" font-family="sans-serif" font-size="10" font-style="italic" lengthAdjust="spacingAndGlyphs" textLength="171" x="285" y="141.8999">it.matlice.ingsw.model.auth.password</text><line style="stroke: #A80036; stroke-width: 1.5;" x1="257" x2="458" y1="149.3999" y2="149.3999"/><line style="stroke: #A80036; stroke-width: 1.5;" x1="257" x2="458" y1="157.3999" y2="157.3999"/><ellipse cx="267" cy="170.3248" fill="#84BE84" rx="3" ry="3" style="stroke: #038048; stroke-width: 1.0;"/><text fill="#000000" font-family="sans-serif" font-size="11" font-style="italic" lengthAdjust="spacingAndGlyphs" textLength="122" x="276" y="173.4998">byte getPasswordHash()</text><ellipse cx="267" cy="185.1747" fill="#84BE84" rx="3" ry="3" style="stroke: #038048; stroke-width: 1.0;"/><text fill="#000000" font-family="sans-serif" font-size="11" font-style="italic" lengthAdjust="spacingAndGlyphs" textLength="114" x="276" y="188.3497">byte getPasswordSalt()</text><ellipse cx="267" cy="200.0246" fill="#84BE84" rx="3" ry="3" style="stroke: #038048; stroke-width: 1.0;"/><text fill="#000000" font-family="sans-serif" font-size="11" font-style="italic" lengthAdjust="spacingAndGlyphs" textLength="167" x="276" y="203.1996">void setPassword(byte password)</text><ellipse cx="267" cy="214.8745" fill="#84BE84" rx="3" ry="3" style="stroke: #038048; stroke-width: 1.0;"/><text fill="#000000" font-family="sans-serif" font-size="11" font-style="italic" lengthAdjust="spacingAndGlyphs" textLength="105" x="276" y="218.0495">void setSalt(byte salt)</text></a><!--class it.matlice.ingsw.model.auth.Authenticable--><a target="_parent" xlink:actuate="onRequest" xlink:href="../../../../../../it/matlice/ingsw/model/auth/Authenticable.html" xlink:show="new" xlink:title="it.matlice.ingsw.model.auth.Authenticable" xlink:type="simple"><rect fill="#FFFFFF" filter="url(#farbyck)" height="42.3999" style="stroke: #A80036; stroke-width: 1.5;" width="156" x="279.5" y="285"/><rect fill="#FFFFFF" height="42.3999" style="stroke: #A80036; stroke-width: 1.5;" width="156" x="279.5" y="285"/><ellipse cx="294.5" cy="306.2" fill="#B4A7E5" rx="11" ry="11" style="stroke: #A80036; stroke-width: 1.0;"/><path d="M295.5156,303.3562 L297.1719,303.3562 C297.5625,303.3562 297.7656,303.325 297.9219,303.2468 C298.1875,303.075 298.3594,302.7781 298.3594,302.4812 C298.3594,302.2 298.2188,301.95 297.9844,301.7781 C297.7969,301.6531 297.6406,301.6062 297.1719,301.6062 L292.0313,301.6062 C291.5938,301.6062 291.4531,301.6218 291.2813,301.7312 C291.0156,301.9031 290.8438,302.1843 290.8438,302.4812 C290.8438,302.7625 290.9844,303.0437 291.2188,303.2 C291.4063,303.325 291.5938,303.3562 292.0313,303.3562 L293.6875,303.3562 L293.6875,309.45 L292.0313,309.45 C291.5938,309.45 291.4531,309.4656 291.2813,309.575 C291.0156,309.7312 290.8438,310.0281 290.8438,310.3093 C290.8438,310.9187 291.25,311.2 292.0313,311.2 L297.1719,311.2 C297.9531,311.2 298.3594,310.9187 298.3594,310.3093 C298.3594,310.0437 298.2188,309.7937 297.9844,309.6218 C297.7969,309.4812 297.625,309.45 297.1719,309.45 L295.5156,309.45 L295.5156,303.3562 Z "/><text fill="#000000" font-family="sans-serif" font-size="14" font-style="italic" font-weight="bold" lengthAdjust="spacingAndGlyphs" textLength="96" x="322.5" y="305.3999">Authenticable</text><text fill="#000000" font-family="sans-serif" font-size="10" font-style="italic" lengthAdjust="spacingAndGlyphs" textLength="124" x="308.5" y="319.8999">it.matlice.ingsw.model.auth</text></a><!--class it.matlice.ingsw.model.auth.password.PasswordAuthMethod--><a target="_parent" xlink:actuate="onRequest" xlink:href="../../../../../../it/matlice/ingsw/model/auth/password/PasswordAuthMethod.html" xlink:show="new" xlink:title="it.matlice.ingsw.model.auth.password.PasswordAuthMethod" xlink:type="simple"><rect fill="#FEFECE" filter="url(#farbyck)" height="38.7999" style="stroke: #A80036; stroke-width: 1.5;" width="203" x="6" y="8"/><ellipse cx="21" cy="27.4" fill="#ADD1B2" rx="11" ry="11" style="stroke: #A80036; stroke-width: 1.0;"/><path d="M16,28.5562 C16,31.0562 18.1406,32.8687 21.0625,32.8687 C22.2969,32.8687 23.4688,32.5718 24.2188,32.0562 C24.8281,31.6343 25.1563,31.2125 25.1563,30.8062 C25.1563,30.3375 24.7344,29.9312 24.2344,29.9312 C24,29.9312 23.7813,30.0093 23.5781,30.2125 C23.1406,30.65 23.1406,30.65 22.9688,30.7437 C22.5156,30.9781 21.875,31.1187 21.1094,31.1187 C19.1094,31.1187 17.8281,30.1031 17.8281,28.525 L17.8281,27.4781 C17.8281,25.775 19.0469,24.5718 20.75,24.5718 C21.3281,24.5718 21.9063,24.7125 22.375,24.9625 C22.8438,25.2281 23.0156,25.4156 23.0781,25.775 C23.2031,26.4468 23.4531,26.6968 23.9844,26.6968 C24.2656,26.6968 24.5469,26.5562 24.7344,26.3375 C24.8594,26.1656 24.9063,25.9937 24.9063,25.5562 L24.9063,24.1968 C24.9063,23.775 24.8906,23.6343 24.7656,23.4625 C24.5938,23.2125 24.3125,23.0562 23.9844,23.0562 C23.6719,23.0562 23.4688,23.1656 23.25,23.4312 C22.0781,22.9312 21.6406,22.8218 20.6875,22.8218 C18.0156,22.8218 16,24.8375 16,27.4625 L16,28.5562 Z "/><text fill="#000000" font-family="sans-serif" font-size="14" font-weight="bold" lengthAdjust="spacingAndGlyphs" textLength="152" x="44.5" y="26.0059">PasswordAuthMethod</text><text fill="#000000" font-family="sans-serif" font-size="10" lengthAdjust="spacingAndGlyphs" textLength="171" x="35" y="39.0899">it.matlice.ingsw.model.auth.password</text></a><!--class it.matlice.ingsw.model.data.impl.jdbc.types.CustomerUserImpl--><a target="_parent" xlink:actuate="onRequest" xlink:href="../../../../../../it/matlice/ingsw/model/data/impl/jdbc/types/CustomerUserImpl.html" xlink:show="new" xlink:title="it.matlice.ingsw.model.data.impl.jdbc.types.CustomerUserImpl" xlink:type="simple"><rect fill="#FFFFFF" filter="url(#farbyck)" height="38.7999" style="stroke: #A80036; stroke-width: 1.5;" width="227" x="244" y="8"/><rect fill="#FFFFFF" height="38.7999" style="stroke: #A80036; stroke-width: 1.5;" width="227" x="244" y="8"/><ellipse cx="259" cy="27.4" fill="#ADD1B2" rx="11" ry="11" style="stroke: #A80036; stroke-width: 1.0;"/><path d="M254,28.5562 C254,31.0562 256.1406,32.8687 259.0625,32.8687 C260.2969,32.8687 261.4688,32.5718 262.2188,32.0562 C262.8281,31.6343 263.1563,31.2125 263.1563,30.8062 C263.1563,30.3375 262.7344,29.9312 262.2344,29.9312 C262,29.9312 261.7813,30.0093 261.5781,30.2125 C261.1406,30.65 261.1406,30.65 260.9688,30.7437 C260.5156,30.9781 259.875,31.1187 259.1094,31.1187 C257.1094,31.1187 255.8281,30.1031 255.8281,28.525 L255.8281,27.4781 C255.8281,25.775 257.0469,24.5718 258.75,24.5718 C259.3281,24.5718 259.9063,24.7125 260.375,24.9625 C260.8438,25.2281 261.0156,25.4156 261.0781,25.775 C261.2031,26.4468 261.4531,26.6968 261.9844,26.6968 C262.2656,26.6968 262.5469,26.5562 262.7344,26.3375 C262.8594,26.1656 262.9063,25.9937 262.9063,25.5562 L262.9063,24.1968 C262.9063,23.775 262.8906,23.6343 262.7656,23.4625 C262.5938,23.2125 262.3125,23.0562 261.9844,23.0562 C261.6719,23.0562 261.4688,23.1656 261.25,23.4312 C260.0781,22.9312 259.6406,22.8218 258.6875,22.8218 C256.0156,22.8218 254,24.8375 254,27.4625 L254,28.5562 Z "/><text fill="#000000" font-family="sans-serif" font-size="14" font-weight="bold" lengthAdjust="spacingAndGlyphs" textLength="126" x="307.5" y="26.0059">CustomerUserImpl</text><text fill="#000000" font-family="sans-serif" font-size="10" lengthAdjust="spacingAndGlyphs" textLength="195" x="273" y="39.0899">it.matlice.ingsw.model.data.impl.jdbc.types</text></a><!--class it.matlice.ingsw.model.data.impl.jdbc.types.ConfiguratorUserImpl--><a target="_parent" xlink:actuate="onRequest" xlink:href="../../../../../../it/matlice/ingsw/model/data/impl/jdbc/types/ConfiguratorUserImpl.html" xlink:show="new" xlink:title="it.matlice.ingsw.model.data.impl.jdbc.types.ConfiguratorUserImpl" xlink:type="simple"><rect fill="#FFFFFF" filter="url(#farbyck)" height="38.7999" style="stroke: #A80036; stroke-width: 1.5;" width="227" x="506" y="8"/><rect fill="#FFFFFF" height="38.7999" style="stroke: #A80036; stroke-width: 1.5;" width="227" x="506" y="8"/><ellipse cx="521" cy="27.4" fill="#ADD1B2" rx="11" ry="11" style="stroke: #A80036; stroke-width: 1.0;"/><path d="M516,28.5562 C516,31.0562 518.1406,32.8687 521.0625,32.8687 C522.2969,32.8687 523.4688,32.5718 524.2188,32.0562 C524.8281,31.6343 525.1563,31.2125 525.1563,30.8062 C525.1563,30.3375 524.7344,29.9312 524.2344,29.9312 C524,29.9312 523.7813,30.0093 523.5781,30.2125 C523.1406,30.65 523.1406,30.65 522.9688,30.7437 C522.5156,30.9781 521.875,31.1187 521.1094,31.1187 C519.1094,31.1187 517.8281,30.1031 517.8281,28.525 L517.8281,27.4781 C517.8281,25.775 519.0469,24.5718 520.75,24.5718 C521.3281,24.5718 521.9063,24.7125 522.375,24.9625 C522.8438,25.2281 523.0156,25.4156 523.0781,25.775 C523.2031,26.4468 523.4531,26.6968 523.9844,26.6968 C524.2656,26.6968 524.5469,26.5562 524.7344,26.3375 C524.8594,26.1656 524.9063,25.9937 524.9063,25.5562 L524.9063,24.1968 C524.9063,23.775 524.8906,23.6343 524.7656,23.4625 C524.5938,23.2125 524.3125,23.0562 523.9844,23.0562 C523.6719,23.0562 523.4688,23.1656 523.25,23.4312 C522.0781,22.9312 521.6406,22.8218 520.6875,22.8218 C518.0156,22.8218 516,24.8375 516,27.4625 L516,28.5562 Z "/><text fill="#000000" font-family="sans-serif" font-size="14" font-weight="bold" lengthAdjust="spacingAndGlyphs" textLength="147" x="559" y="26.0059">ConfiguratorUserImpl</text><text fill="#000000" font-family="sans-serif" font-size="10" lengthAdjust="spacingAndGlyphs" textLength="195" x="535" y="39.0899">it.matlice.ingsw.model.data.impl.jdbc.types</text></a><path d="M357.5,225.37 C357.5,225.37 357.5,264.87 357.5,264.87 " fill="none" style="stroke: #A80036; stroke-width: 1.0;"/><polygon fill="none" points="364.5,264.87,357.5,284.87,350.5,264.87,364.5,264.87" style="stroke: #A80036; stroke-width: 1.0;"/><path d="M107.5,47.05 C107.5,85.23 107.5,166 107.5,166 C107.5,166 250.82,166 250.82,166 " fill="none" style="stroke: #A80036; stroke-width: 1.0;"/><polygon fill="#A80036" points="255.82,166,246.82,162,250.82,166,246.82,170,255.82,166" style="stroke: #A80036; stroke-width: 1.0;"/><text fill="#000000" font-family="sans-serif" font-size="13" lengthAdjust="spacingAndGlyphs" textLength="25" x="223.1485" y="162.6">user</text><path d="M357.5,47.05 C357.5,47.05 357.5,86.7 357.5,86.7 " fill="none" style="stroke: #A80036; stroke-width: 1.0; stroke-dasharray: 7.0,7.0;"/><polygon fill="none" points="364.5,86.7,357.5,106.7,350.5,86.7,364.5,86.7" style="stroke: #A80036; stroke-width: 1.0;"/><path d="M619.5,47.05 C619.5,85.23 619.5,166 619.5,166 C619.5,166 479.17,166 479.17,166 " fill="none" style="stroke: #A80036; stroke-width: 1.0; stroke-dasharray: 7.0,7.0;"/><polygon fill="none" points="479.17,173,459.17,166,479.17,159,479.17,173" style="stroke: #A80036; stroke-width: 1.0;"/></g></svg>