<?xml version="1.0" encoding="UTF-8" standalone="no"?><svg xmlns="http://www.w3.org/2000/svg" xmlns:xlink="http://www.w3.org/1999/xlink" contentScriptType="application/ecmascript" contentStyleType="text/css" height="359px" preserveAspectRatio="none" style="width:791px;height:359px;" version="1.1" viewBox="0 0 791 359" width="791px" zoomAndPan="magnify"><defs><filter height="300%" id="fdxgapq" width="300%" x="-1" y="-1"><feGaussianBlur result="blurOut" stdDeviation="2.0"/><feColorMatrix in="blurOut" result="blurOut2" type="matrix" values="0 0 0 0 0 0 0 0 0 0 0 0 0 0 0 0 0 0 .4 0"/><feOffset dx="4.0" dy="4.0" in="blurOut2" result="blurOut3"/><feBlend in="SourceGraphic" in2="blurOut3" mode="normal"/></filter></defs><g><!--class it.matlice.ingsw.model.auth.password.PasswordAuthMethod--><a target="_parent" xlink:actuate="onRequest" xlink:href="../../../../../../it/matlice/ingsw/model/auth/password/PasswordAuthMethod.html" xlink:show="new" xlink:title="it.matlice.ingsw.model.auth.password.PasswordAuthMethod" xlink:type="simple"><rect fill="#FEFECE" filter="url(#fdxgapq)" height="239.5985" style="stroke: #A80036; stroke-width: 1.5;" width="350" x="242.5" y="8"/><ellipse cx="327.75" cy="27.4" fill="#ADD1B2" rx="11" ry="11" style="stroke: #A80036; stroke-width: 1.0;"/><path d="M322.75,28.5562 C322.75,31.0562 324.8906,32.8687 327.8125,32.8687 C329.0469,32.8687 330.2188,32.5718 330.9688,32.0562 C331.5781,31.6343 331.9063,31.2125 331.9063,30.8062 C331.9063,30.3375 331.4844,29.9312 330.9844,29.9312 C330.75,29.9312 330.5313,30.0093 330.3281,30.2125 C329.8906,30.65 329.8906,30.65 329.7188,30.7437 C329.2656,30.9781 328.625,31.1187 327.8594,31.1187 C325.8594,31.1187 324.5781,30.1031 324.5781,28.525 L324.5781,27.4781 C324.5781,25.775 325.7969,24.5718 327.5,24.5718 C328.0781,24.5718 328.6563,24.7125 329.125,24.9625 C329.5938,25.2281 329.7656,25.4156 329.8281,25.775 C329.9531,26.4468 330.2031,26.6968 330.7344,26.6968 C331.0156,26.6968 331.2969,26.5562 331.4844,26.3375 C331.6094,26.1656 331.6563,25.9937 331.6563,25.5562 L331.6563,24.1968 C331.6563,23.775 331.6406,23.6343 331.5156,23.4625 C331.3438,23.2125 331.0625,23.0562 330.7344,23.0562 C330.4219,23.0562 330.2188,23.1656 330,23.4312 C328.8281,22.9312 328.3906,22.8218 327.4375,22.8218 C324.7656,22.8218 322.75,24.8375 322.75,27.4625 L322.75,28.5562 Z "/><text fill="#000000" font-family="sans-serif" font-size="14" font-weight="bold" lengthAdjust="spacingAndGlyphs" textLength="152" x="357.75" y="26.0059">PasswordAuthMethod</text><text fill="#000000" font-family="sans-serif" font-size="10" lengthAdjust="spacingAndGlyphs" textLength="171" x="348.25" y="39.0899">it.matlice.ingsw.model.auth.password</text><line style="stroke: #A80036; stroke-width: 1.5;" x1="243.5" x2="591.5" y1="46.7999" y2="46.7999"/><ellipse cx="253.5" cy="58.8999" fill="none" rx="3" ry="3" style="stroke: #038048; stroke-width: 1.0;"/><text fill="#000000" font-family="sans-serif" font-size="11" lengthAdjust="spacingAndGlyphs" text-decoration="underline" textLength="92" x="262.5" y="61.0188">String MAC_ALGO</text><line style="stroke: #000000; stroke-width: 1.0;" x1="262.5" x2="354.5" y1="63.0188" y2="63.0188"/><ellipse cx="253.5" cy="72.0998" fill="none" rx="3" ry="3" style="stroke: #038048; stroke-width: 1.0;"/><text fill="#000000" font-family="sans-serif" font-size="11" lengthAdjust="spacingAndGlyphs" text-decoration="underline" textLength="173" x="262.5" y="74.2187">Pattern PASSWORD_SEC_REGEX</text><line style="stroke: #000000; stroke-width: 1.0;" x1="262.5" x2="435.5" y1="76.2187" y2="76.2187"/><ellipse cx="253.5" cy="85.2997" fill="none" rx="3" ry="3" style="stroke: #038048; stroke-width: 1.0;"/><text fill="#000000" font-family="sans-serif" font-size="11" lengthAdjust="spacingAndGlyphs" text-decoration="underline" textLength="92" x="262.5" y="87.4186">int SALT_LENGTH</text><line style="stroke: #000000; stroke-width: 1.0;" x1="262.5" x2="354.5" y1="89.4186" y2="89.4186"/><rect fill="none" height="6" style="stroke: #C82930; stroke-width: 1.0;" width="6" x="250.5" y="95.4996"/><text fill="#000000" font-family="sans-serif" font-size="11" lengthAdjust="spacingAndGlyphs" textLength="139" x="262.5" y="100.6185">PasswordAuthenticable user</text><rect fill="none" height="6" style="stroke: #C82930; stroke-width: 1.0;" width="6" x="250.5" y="108.6995"/><text fill="#000000" font-family="sans-serif" font-size="11" lengthAdjust="spacingAndGlyphs" textLength="121" x="262.5" y="113.8184">Random random_source</text><line style="stroke: #A80036; stroke-width: 1.5;" x1="243.5" x2="591.5" y1="120.7994" y2="120.7994"/><ellipse cx="253.5" cy="132.8994" fill="#84BE84" rx="3" ry="3" style="stroke: #038048; stroke-width: 1.0;"/><text fill="#000000" font-family="sans-serif" font-size="11" lengthAdjust="spacingAndGlyphs" textLength="254" x="262.5" y="135.0183">PasswordAuthMethod(PasswordAuthenticable user)</text><ellipse cx="253.5" cy="146.0993" fill="#84BE84" rx="3" ry="3" style="stroke: #038048; stroke-width: 1.0;"/><text fill="#000000" font-family="sans-serif" font-size="11" lengthAdjust="spacingAndGlyphs" text-decoration="underline" textLength="195" x="262.5" y="148.2182">AuthData getAuthData(String password)</text><line style="stroke: #000000; stroke-width: 1.0;" x1="262.5" x2="457.5" y1="150.2182" y2="150.2182"/><ellipse cx="253.5" cy="159.2992" fill="#84BE84" rx="3" ry="3" style="stroke: #038048; stroke-width: 1.0;"/><text fill="#000000" font-family="sans-serif" font-size="11" lengthAdjust="spacingAndGlyphs" text-decoration="underline" textLength="208" x="262.5" y="161.4182">boolean isPasswordValid(String password)</text><line style="stroke: #000000; stroke-width: 1.0;" x1="262.5" x2="470.5" y1="163.4182" y2="163.4182"/><ellipse cx="253.5" cy="172.4991" fill="#84BE84" rx="3" ry="3" style="stroke: #038048; stroke-width: 1.0;"/><text fill="#000000" font-family="sans-serif" font-size="11" lengthAdjust="spacingAndGlyphs" textLength="115" x="262.5" y="174.6181">Authenticable getUser()</text><ellipse cx="253.5" cy="185.699" fill="#84BE84" rx="3" ry="3" style="stroke: #038048; stroke-width: 1.0;"/><text fill="#000000" font-family="sans-serif" font-size="11" lengthAdjust="spacingAndGlyphs" textLength="324" x="262.5" y="187.818">void setPassword(String password,boolean skipComplexityCheck)</text><ellipse cx="253.5" cy="198.8989" fill="#84BE84" rx="3" ry="3" style="stroke: #038048; stroke-width: 1.0;"/><text fill="#000000" font-family="sans-serif" font-size="11" lengthAdjust="spacingAndGlyphs" textLength="174" x="262.5" y="201.0179">void setPassword(String password)</text><ellipse cx="253.5" cy="212.0988" fill="#84BE84" rx="3" ry="3" style="stroke: #038048; stroke-width: 1.0;"/><text fill="#000000" font-family="sans-serif" font-size="11" lengthAdjust="spacingAndGlyphs" textLength="224" x="262.5" y="214.2178">boolean performAuthentication(AuthData data)</text><rect fill="#F24D5C" height="6" style="stroke: #C82930; stroke-width: 1.0;" width="6" x="250.5" y="222.2987"/><text fill="#000000" font-family="sans-serif" font-size="11" lengthAdjust="spacingAndGlyphs" textLength="87" x="262.5" y="227.4177">byte getNewSalt()</text><rect fill="#F24D5C" height="6" style="stroke: #C82930; stroke-width: 1.0;" width="6" x="250.5" y="235.4986"/><text fill="#000000" font-family="sans-serif" font-size="11" lengthAdjust="spacingAndGlyphs" textLength="245" x="262.5" y="240.6176">byte getPasswordHash(byte salt,String password)</text></a><!--class it.matlice.ingsw.model.auth.password.PasswordAuthenticable--><a target="_parent" xlink:actuate="onRequest" xlink:href="../../../../../../it/matlice/ingsw/model/auth/password/PasswordAuthenticable.html" xlink:show="new" xlink:title="it.matlice.ingsw.model.auth.password.PasswordAuthenticable" xlink:type="simple"><rect fill="#FEFECE" filter="url(#fdxgapq)" height="42.3999" style="stroke: #A80036; stroke-width: 1.5;" width="203" x="6" y="308"/><ellipse cx="21" cy="329.2" fill="#B4A7E5" rx="11" ry="11" style="stroke: #A80036; stroke-width: 1.0;"/><path d="M22.0156,326.3562 L23.6719,326.3562 C24.0625,326.3562 24.2656,326.325 24.4219,326.2468 C24.6875,326.075 24.8594,325.7781 24.8594,325.4812 C24.8594,325.2 24.7188,324.95 24.4844,324.7781 C24.2969,324.6531 24.1406,324.6062 23.6719,324.6062 L18.5313,324.6062 C18.0938,324.6062 17.9531,324.6218 17.7813,324.7312 C17.5156,324.9031 17.3438,325.1843 17.3438,325.4812 C17.3438,325.7625 17.4844,326.0437 17.7188,326.2 C17.9063,326.325 18.0938,326.3562 18.5313,326.3562 L20.1875,326.3562 L20.1875,332.45 L18.5313,332.45 C18.0938,332.45 17.9531,332.4656 17.7813,332.575 C17.5156,332.7312 17.3438,333.0281 17.3438,333.3093 C17.3438,333.9187 17.75,334.2 18.5313,334.2 L23.6719,334.2 C24.4531,334.2 24.8594,333.9187 24.8594,333.3093 C24.8594,333.0437 24.7188,332.7937 24.4844,332.6218 C24.2969,332.4812 24.125,332.45 23.6719,332.45 L22.0156,332.45 L22.0156,326.3562 Z "/><text fill="#000000" font-family="sans-serif" font-size="14" font-style="italic" font-weight="bold" lengthAdjust="spacingAndGlyphs" textLength="163" x="39" y="328.3999">PasswordAuthenticable</text><text fill="#000000" font-family="sans-serif" font-size="10" font-style="italic" lengthAdjust="spacingAndGlyphs" textLength="171" x="35" y="342.8999">it.matlice.ingsw.model.auth.password</text></a><!--class it.matlice.ingsw.model.auth.AuthMethod--><a target="_parent" xlink:actuate="onRequest" xlink:href="../../../../../../it/matlice/ingsw/model/auth/AuthMethod.html" xlink:show="new" xlink:title="it.matlice.ingsw.model.auth.AuthMethod" xlink:type="simple"><rect fill="#FFFFFF" filter="url(#fdxgapq)" height="42.3999" style="stroke: #A80036; stroke-width: 1.5;" width="156" x="244.5" y="308"/><rect fill="#FFFFFF" height="42.3999" style="stroke: #A80036; stroke-width: 1.5;" width="156" x="244.5" y="308"/><ellipse cx="259.5" cy="329.2" fill="#B4A7E5" rx="11" ry="11" style="stroke: #A80036; stroke-width: 1.0;"/><path d="M260.5156,326.3562 L262.1719,326.3562 C262.5625,326.3562 262.7656,326.325 262.9219,326.2468 C263.1875,326.075 263.3594,325.7781 263.3594,325.4812 C263.3594,325.2 263.2188,324.95 262.9844,324.7781 C262.7969,324.6531 262.6406,324.6062 262.1719,324.6062 L257.0313,324.6062 C256.5938,324.6062 256.4531,324.6218 256.2813,324.7312 C256.0156,324.9031 255.8438,325.1843 255.8438,325.4812 C255.8438,325.7625 255.9844,326.0437 256.2188,326.2 C256.4063,326.325 256.5938,326.3562 257.0313,326.3562 L258.6875,326.3562 L258.6875,332.45 L257.0313,332.45 C256.5938,332.45 256.4531,332.4656 256.2813,332.575 C256.0156,332.7312 255.8438,333.0281 255.8438,333.3093 C255.8438,333.9187 256.25,334.2 257.0313,334.2 L262.1719,334.2 C262.9531,334.2 263.3594,333.9187 263.3594,333.3093 C263.3594,333.0437 263.2188,332.7937 262.9844,332.6218 C262.7969,332.4812 262.625,332.45 262.1719,332.45 L260.5156,332.45 L260.5156,326.3562 Z "/><text fill="#000000" font-family="sans-serif" font-size="14" font-style="italic" font-weight="bold" lengthAdjust="spacingAndGlyphs" textLength="85" x="293" y="328.3999">AuthMethod</text><text fill="#000000" font-family="sans-serif" font-size="10" font-style="italic" lengthAdjust="spacingAndGlyphs" textLength="124" x="273.5" y="342.8999">it.matlice.ingsw.model.auth</text></a><!--class it.matlice.ingsw.model.auth.AuthData--><a target="_parent" xlink:actuate="onRequest" xlink:href="../../../../../../it/matlice/ingsw/model/auth/AuthData.html" xlink:show="new" xlink:title="it.matlice.ingsw.model.auth.AuthData" xlink:type="simple"><rect fill="#FFFFFF" filter="url(#fdxgapq)" height="42.3999" style="stroke: #A80036; stroke-width: 1.5;" width="156" x="435.5" y="308"/><rect fill="#FFFFFF" height="42.3999" style="stroke: #A80036; stroke-width: 1.5;" width="156" x="435.5" y="308"/><ellipse cx="450.5" cy="329.2" fill="#B4A7E5" rx="11" ry="11" style="stroke: #A80036; stroke-width: 1.0;"/><path d="M451.5156,326.3562 L453.1719,326.3562 C453.5625,326.3562 453.7656,326.325 453.9219,326.2468 C454.1875,326.075 454.3594,325.7781 454.3594,325.4812 C454.3594,325.2 454.2188,324.95 453.9844,324.7781 C453.7969,324.6531 453.6406,324.6062 453.1719,324.6062 L448.0313,324.6062 C447.5938,324.6062 447.4531,324.6218 447.2813,324.7312 C447.0156,324.9031 446.8438,325.1843 446.8438,325.4812 C446.8438,325.7625 446.9844,326.0437 447.2188,326.2 C447.4063,326.325 447.5938,326.3562 448.0313,326.3562 L449.6875,326.3562 L449.6875,332.45 L448.0313,332.45 C447.5938,332.45 447.4531,332.4656 447.2813,332.575 C447.0156,332.7312 446.8438,333.0281 446.8438,333.3093 C446.8438,333.9187 447.25,334.2 448.0313,334.2 L453.1719,334.2 C453.9531,334.2 454.3594,333.9187 454.3594,333.3093 C454.3594,333.0437 454.2188,332.7937 453.9844,332.6218 C453.7969,332.4812 453.625,332.45 453.1719,332.45 L451.5156,332.45 L451.5156,326.3562 Z "/><text fill="#000000" font-family="sans-serif" font-size="14" font-style="italic" font-weight="bold" lengthAdjust="spacingAndGlyphs" textLength="64" x="494.5" y="328.3999">AuthData</text><text fill="#000000" font-family="sans-serif" font-size="10" font-style="italic" lengthAdjust="spacingAndGlyphs" textLength="124" x="464.5" y="342.8999">it.matlice.ingsw.model.auth</text></a><!--class it.matlice.ingsw.model.auth.Authenticable--><a target="_parent" xlink:actuate="onRequest" xlink:href="../../../../../../it/matlice/ingsw/model/auth/Authenticable.html" xlink:show="new" xlink:title="it.matlice.ingsw.model.auth.Authenticable" xlink:type="simple"><rect fill="#FFFFFF" filter="url(#fdxgapq)" height="42.3999" style="stroke: #A80036; stroke-width: 1.5;" width="156" x="626.5" y="308"/><rect fill="#FFFFFF" height="42.3999" style="stroke: #A80036; stroke-width: 1.5;" width="156" x="626.5" y="308"/><ellipse cx="641.5" cy="329.2" fill="#B4A7E5" rx="11" ry="11" style="stroke: #A80036; stroke-width: 1.0;"/><path d="M642.5156,326.3562 L644.1719,326.3562 C644.5625,326.3562 644.7656,326.325 644.9219,326.2468 C645.1875,326.075 645.3594,325.7781 645.3594,325.4812 C645.3594,325.2 645.2188,324.95 644.9844,324.7781 C644.7969,324.6531 644.6406,324.6062 644.1719,324.6062 L639.0313,324.6062 C638.5938,324.6062 638.4531,324.6218 638.2813,324.7312 C638.0156,324.9031 637.8438,325.1843 637.8438,325.4812 C637.8438,325.7625 637.9844,326.0437 638.2188,326.2 C638.4063,326.325 638.5938,326.3562 639.0313,326.3562 L640.6875,326.3562 L640.6875,332.45 L639.0313,332.45 C638.5938,332.45 638.4531,332.4656 638.2813,332.575 C638.0156,332.7312 637.8438,333.0281 637.8438,333.3093 C637.8438,333.9187 638.25,334.2 639.0313,334.2 L644.1719,334.2 C644.9531,334.2 645.3594,333.9187 645.3594,333.3093 C645.3594,333.0437 645.2188,332.7937 644.9844,332.6218 C644.7969,332.4812 644.625,332.45 644.1719,332.45 L642.5156,332.45 L642.5156,326.3562 Z "/><text fill="#000000" font-family="sans-serif" font-size="14" font-style="italic" font-weight="bold" lengthAdjust="spacingAndGlyphs" textLength="96" x="669.5" y="328.3999">Authenticable</text><text fill="#000000" font-family="sans-serif" font-size="10" font-style="italic" lengthAdjust="spacingAndGlyphs" textLength="124" x="655.5" y="342.8999">it.matlice.ingsw.model.auth</text></a><path d="M242.12,129 C171.98,129 107.5,129 107.5,129 C107.5,129 107.5,302.97 107.5,302.97 " fill="none" style="stroke: #A80036; stroke-width: 1.0;"/><polygon fill="#A80036" points="107.5,307.97,111.5,298.97,107.5,302.97,103.5,298.97,107.5,307.97" style="stroke: #A80036; stroke-width: 1.0;"/><text fill="#000000" font-family="sans-serif" font-size="13" lengthAdjust="spacingAndGlyphs" textLength="25" x="78.6719" y="296.3403">user</text><path d="M322.5,248.11 C322.5,248.11 322.5,287.71 322.5,287.71 " fill="none" style="stroke: #A80036; stroke-width: 1.0; stroke-dasharray: 7.0,7.0;"/><polygon fill="none" points="329.5,287.71,322.5,307.71,315.5,287.71,329.5,287.71" style="stroke: #A80036; stroke-width: 1.0;"/><path d="M513.5,248.11 C513.5,248.11 513.5,302.71 513.5,302.71 " fill="none" style="stroke: #A80036; stroke-width: 1.0; stroke-dasharray: 7.0,7.0;"/><polygon fill="#A80036" points="513.5,307.71,517.5,298.71,513.5,302.71,509.5,298.71,513.5,307.71" style="stroke: #A80036; stroke-width: 1.0;"/><path d="M592.72,129 C652.47,129 704.5,129 704.5,129 C704.5,129 704.5,302.97 704.5,302.97 " fill="none" style="stroke: #A80036; stroke-width: 1.0; stroke-dasharray: 7.0,7.0;"/><polygon fill="#A80036" points="704.5,307.97,708.5,298.97,704.5,302.97,700.5,298.97,704.5,307.97" style="stroke: #A80036; stroke-width: 1.0;"/></g></svg>