<?xml version="1.0" encoding="UTF-8" standalone="no"?><svg xmlns="http://www.w3.org/2000/svg" xmlns:xlink="http://www.w3.org/1999/xlink" contentScriptType="application/ecmascript" contentStyleType="text/css" height="317px" preserveAspectRatio="none" style="width:470px;height:317px;" version="1.1" viewBox="0 0 470 317" width="470px" zoomAndPan="magnify"><defs><filter height="300%" id="f90zku2" width="300%" x="-1" y="-1"><feGaussianBlur result="blurOut" stdDeviation="2.0"/><feColorMatrix in="blurOut" result="blurOut2" type="matrix" values="0 0 0 0 0 0 0 0 0 0 0 0 0 0 0 0 0 0 .4 0"/><feOffset dx="4.0" dy="4.0" in="blurOut2" result="blurOut3"/><feBlend in="SourceGraphic" in2="blurOut3" mode="normal"/></filter></defs><g><!--class it.matlice.ingsw.model.data.factories.CategoryFactory--><a target="_parent" xlink:actuate="onRequest" xlink:href="../../../../../../it/matlice/ingsw/model/data/factories/CategoryFactory.html" xlink:show="new" xlink:title="it.matlice.ingsw.model.data.factories.CategoryFactory" xlink:type="simple"><rect fill="#FEFECE" filter="url(#f90zku2)" height="102.9496" style="stroke: #A80036; stroke-width: 1.5;" width="455" x="6" y="107"/><ellipse cx="146.25" cy="128.2" fill="#B4A7E5" rx="11" ry="11" style="stroke: #A80036; stroke-width: 1.0;"/><path d="M147.2656,125.3562 L148.9219,125.3562 C149.3125,125.3562 149.5156,125.325 149.6719,125.2468 C149.9375,125.075 150.1094,124.7781 150.1094,124.4812 C150.1094,124.2 149.9688,123.95 149.7344,123.7781 C149.5469,123.6531 149.3906,123.6062 148.9219,123.6062 L143.7813,123.6062 C143.3438,123.6062 143.2031,123.6218 143.0313,123.7312 C142.7656,123.9031 142.5938,124.1843 142.5938,124.4812 C142.5938,124.7625 142.7344,125.0437 142.9688,125.2 C143.1563,125.325 143.3438,125.3562 143.7813,125.3562 L145.4375,125.3562 L145.4375,131.45 L143.7813,131.45 C143.3438,131.45 143.2031,131.4656 143.0313,131.575 C142.7656,131.7312 142.5938,132.0281 142.5938,132.3093 C142.5938,132.9187 143,133.2 143.7813,133.2 L148.9219,133.2 C149.7031,133.2 150.1094,132.9187 150.1094,132.3093 C150.1094,132.0437 149.9688,131.7937 149.7344,131.6218 C149.5469,131.4812 149.375,131.45 148.9219,131.45 L147.2656,131.45 L147.2656,125.3562 Z "/><text fill="#000000" font-family="sans-serif" font-size="14" font-style="italic" font-weight="bold" lengthAdjust="spacingAndGlyphs" textLength="114" x="192.75" y="127.3999">CategoryFactory</text><text fill="#000000" font-family="sans-serif" font-size="10" font-style="italic" lengthAdjust="spacingAndGlyphs" textLength="166" x="166.75" y="141.8999">it.matlice.ingsw.model.data.factories</text><line style="stroke: #A80036; stroke-width: 1.5;" x1="7" x2="460" y1="149.3999" y2="149.3999"/><line style="stroke: #A80036; stroke-width: 1.5;" x1="7" x2="460" y1="157.3999" y2="157.3999"/><ellipse cx="17" cy="170.3248" fill="#84BE84" rx="3" ry="3" style="stroke: #038048; stroke-width: 1.0;"/><text fill="#000000" font-family="sans-serif" font-size="11" font-style="italic" lengthAdjust="spacingAndGlyphs" textLength="138" x="26" y="173.4998">Category getCategory(int id)</text><ellipse cx="17" cy="185.1747" fill="#84BE84" rx="3" ry="3" style="stroke: #038048; stroke-width: 1.0;"/><text fill="#000000" font-family="sans-serif" font-size="11" font-style="italic" lengthAdjust="spacingAndGlyphs" textLength="429" x="26" y="188.3497">Category createCategory(String nome,String description,Category father,boolean isLeaf)</text><ellipse cx="17" cy="200.0246" fill="#84BE84" rx="3" ry="3" style="stroke: #038048; stroke-width: 1.0;"/><text fill="#000000" font-family="sans-serif" font-size="11" font-style="italic" lengthAdjust="spacingAndGlyphs" textLength="216" x="26" y="203.1996">Category saveCategory(Category category)</text></a><!--class it.matlice.ingsw.model.Model--><a target="_parent" xlink:actuate="onRequest" xlink:href="../../../../../../it/matlice/ingsw/model/Model.html" xlink:show="new" xlink:title="it.matlice.ingsw.model.Model" xlink:type="simple"><rect fill="#FFFFFF" filter="url(#f90zku2)" height="38.7999" style="stroke: #A80036; stroke-width: 1.5;" width="132" x="67.5" y="8"/><rect fill="#FFFFFF" height="38.7999" style="stroke: #A80036; stroke-width: 1.5;" width="132" x="67.5" y="8"/><ellipse cx="82.5" cy="27.4" fill="#ADD1B2" rx="11" ry="11" style="stroke: #A80036; stroke-width: 1.0;"/><path d="M77.5,28.5562 C77.5,31.0562 79.6406,32.8687 82.5625,32.8687 C83.7969,32.8687 84.9688,32.5718 85.7188,32.0562 C86.3281,31.6343 86.6563,31.2125 86.6563,30.8062 C86.6563,30.3375 86.2344,29.9312 85.7344,29.9312 C85.5,29.9312 85.2813,30.0093 85.0781,30.2125 C84.6406,30.65 84.6406,30.65 84.4688,30.7437 C84.0156,30.9781 83.375,31.1187 82.6094,31.1187 C80.6094,31.1187 79.3281,30.1031 79.3281,28.525 L79.3281,27.4781 C79.3281,25.775 80.5469,24.5718 82.25,24.5718 C82.8281,24.5718 83.4063,24.7125 83.875,24.9625 C84.3438,25.2281 84.5156,25.4156 84.5781,25.775 C84.7031,26.4468 84.9531,26.6968 85.4844,26.6968 C85.7656,26.6968 86.0469,26.5562 86.2344,26.3375 C86.3594,26.1656 86.4063,25.9937 86.4063,25.5562 L86.4063,24.1968 C86.4063,23.775 86.3906,23.6343 86.2656,23.4625 C86.0938,23.2125 85.8125,23.0562 85.4844,23.0562 C85.1719,23.0562 84.9688,23.1656 84.75,23.4312 C83.5781,22.9312 83.1406,22.8218 82.1875,22.8218 C79.5156,22.8218 77.5,24.8375 77.5,27.4625 L77.5,28.5562 Z "/><text fill="#000000" font-family="sans-serif" font-size="14" font-weight="bold" lengthAdjust="spacingAndGlyphs" textLength="42" x="125.5" y="26.0059">Model</text><text fill="#000000" font-family="sans-serif" font-size="10" lengthAdjust="spacingAndGlyphs" textLength="100" x="96.5" y="39.0899">it.matlice.ingsw.model</text></a><!--class it.matlice.ingsw.model.data.Category--><a target="_parent" xlink:actuate="onRequest" xlink:href="../../../../../../it/matlice/ingsw/model/data/Category.html" xlink:show="new" xlink:title="it.matlice.ingsw.model.data.Category" xlink:type="simple"><rect fill="#FFFFFF" filter="url(#f90zku2)" height="38.7999" style="stroke: #A80036; stroke-width: 1.5;" width="156" x="155.5" y="270"/><rect fill="#FFFFFF" height="38.7999" style="stroke: #A80036; stroke-width: 1.5;" width="156" x="155.5" y="270"/><ellipse cx="170.5" cy="289.4" fill="#ADD1B2" rx="11" ry="11" style="stroke: #A80036; stroke-width: 1.0;"/><path d="M165.5,290.5562 C165.5,293.0562 167.6406,294.8687 170.5625,294.8687 C171.7969,294.8687 172.9688,294.5718 173.7188,294.0562 C174.3281,293.6343 174.6563,293.2125 174.6563,292.8062 C174.6563,292.3375 174.2344,291.9312 173.7344,291.9312 C173.5,291.9312 173.2813,292.0093 173.0781,292.2125 C172.6406,292.65 172.6406,292.65 172.4688,292.7437 C172.0156,292.9781 171.375,293.1187 170.6094,293.1187 C168.6094,293.1187 167.3281,292.1031 167.3281,290.525 L167.3281,289.4781 C167.3281,287.775 168.5469,286.5718 170.25,286.5718 C170.8281,286.5718 171.4063,286.7125 171.875,286.9625 C172.3438,287.2281 172.5156,287.4156 172.5781,287.775 C172.7031,288.4468 172.9531,288.6968 173.4844,288.6968 C173.7656,288.6968 174.0469,288.5562 174.2344,288.3375 C174.3594,288.1656 174.4063,287.9937 174.4063,287.5562 L174.4063,286.1968 C174.4063,285.775 174.3906,285.6343 174.2656,285.4625 C174.0938,285.2125 173.8125,285.0562 173.4844,285.0562 C173.1719,285.0562 172.9688,285.1656 172.75,285.4312 C171.5781,284.9312 171.1406,284.8218 170.1875,284.8218 C167.5156,284.8218 165.5,286.8375 165.5,289.4625 L165.5,290.5562 Z "/><text fill="#000000" font-family="sans-serif" font-size="14" font-weight="bold" lengthAdjust="spacingAndGlyphs" textLength="62" x="215.5" y="288.0059">Category</text><text fill="#000000" font-family="sans-serif" font-size="10" lengthAdjust="spacingAndGlyphs" textLength="124" x="184.5" y="301.0899">it.matlice.ingsw.model.data</text></a><!--class it.matlice.ingsw.model.data.impl.jdbc.CategoryFactoryImpl--><a target="_parent" xlink:actuate="onRequest" xlink:href="../../../../../../it/matlice/ingsw/model/data/impl/jdbc/CategoryFactoryImpl.html" xlink:show="new" xlink:title="it.matlice.ingsw.model.data.impl.jdbc.CategoryFactoryImpl" xlink:type="simple"><rect fill="#FFFFFF" filter="url(#f90zku2)" height="38.7999" style="stroke: #A80036; stroke-width: 1.5;" width="199" x="235" y="8"/><rect fill="#FFFFFF" height="38.7999" style="stroke: #A80036; stroke-width: 1.5;" width="199" x="235" y="8"/><ellipse cx="250" cy="27.4" fill="#ADD1B2" rx="11" ry="11" style="stroke: #A80036; stroke-width: 1.0;"/><path d="M245,28.5562 C245,31.0562 247.1406,32.8687 250.0625,32.8687 C251.2969,32.8687 252.4688,32.5718 253.2188,32.0562 C253.8281,31.6343 254.1563,31.2125 254.1563,30.8062 C254.1563,30.3375 253.7344,29.9312 253.2344,29.9312 C253,29.9312 252.7813,30.0093 252.5781,30.2125 C252.1406,30.65 252.1406,30.65 251.9688,30.7437 C251.5156,30.9781 250.875,31.1187 250.1094,31.1187 C248.1094,31.1187 246.8281,30.1031 246.8281,28.525 L246.8281,27.4781 C246.8281,25.775 248.0469,24.5718 249.75,24.5718 C250.3281,24.5718 250.9063,24.7125 251.375,24.9625 C251.8438,25.2281 252.0156,25.4156 252.0781,25.775 C252.2031,26.4468 252.4531,26.6968 252.9844,26.6968 C253.2656,26.6968 253.5469,26.5562 253.7344,26.3375 C253.8594,26.1656 253.9063,25.9937 253.9063,25.5562 L253.9063,24.1968 C253.9063,23.775 253.8906,23.6343 253.7656,23.4625 C253.5938,23.2125 253.3125,23.0562 252.9844,23.0562 C252.6719,23.0562 252.4688,23.1656 252.25,23.4312 C251.0781,22.9312 250.6406,22.8218 249.6875,22.8218 C247.0156,22.8218 245,24.8375 245,27.4625 L245,28.5562 Z "/><text fill="#000000" font-family="sans-serif" font-size="14" font-weight="bold" lengthAdjust="spacingAndGlyphs" textLength="143" x="276" y="26.0059">CategoryFactoryImpl</text><text fill="#000000" font-family="sans-serif" font-size="10" lengthAdjust="spacingAndGlyphs" textLength="167" x="264" y="39.0899">it.matlice.ingsw.model.data.impl.jdbc</text></a><path d="M133.5,47.11 C133.5,47.11 133.5,101.74 133.5,101.74 " fill="none" style="stroke: #A80036; stroke-width: 1.0;"/><polygon fill="#A80036" points="133.5,106.74,137.5,97.74,133.5,101.74,129.5,97.74,133.5,106.74" style="stroke: #A80036; stroke-width: 1.0;"/><text fill="#000000" font-family="sans-serif" font-size="13" lengthAdjust="spacingAndGlyphs" textLength="11" x="107.6641" y="95.5293">cf</text><path d="M233.5,210.27 C233.5,210.27 233.5,264.76 233.5,264.76 " fill="none" style="stroke: #A80036; stroke-width: 1.0; stroke-dasharray: 7.0,7.0;"/><polygon fill="#A80036" points="233.5,269.76,237.5257,260.7715,233.5143,264.76,229.5257,260.7486,233.5,269.76" style="stroke: #A80036; stroke-width: 1.0;"/><path d="M334.5,47.11 C334.5,47.11 334.5,86.74 334.5,86.74 " fill="none" style="stroke: #A80036; stroke-width: 1.0; stroke-dasharray: 7.0,7.0;"/><polygon fill="none" points="341.5,86.74,334.5,106.74,327.5,86.74,341.5,86.74" style="stroke: #A80036; stroke-width: 1.0;"/></g></svg>