<?xml version="1.0" encoding="UTF-8" standalone="no"?><svg xmlns="http://www.w3.org/2000/svg" xmlns:xlink="http://www.w3.org/1999/xlink" contentScriptType="application/ecmascript" contentStyleType="text/css" height="317px" preserveAspectRatio="none" style="width:388px;height:317px;" version="1.1" viewBox="0 0 388 317" width="388px" zoomAndPan="magnify"><defs><filter height="300%" id="fn635me" width="300%" x="-1" y="-1"><feGaussianBlur result="blurOut" stdDeviation="2.0"/><feColorMatrix in="blurOut" result="blurOut2" type="matrix" values="0 0 0 0 0 0 0 0 0 0 0 0 0 0 0 0 0 0 .4 0"/><feOffset dx="4.0" dy="4.0" in="blurOut2" result="blurOut3"/><feBlend in="SourceGraphic" in2="blurOut3" mode="normal"/></filter></defs><g><!--class it.matlice.ingsw.model.data.factories.HierarchyFactory--><a target="_parent" xlink:actuate="onRequest" xlink:href="../../../../../../it/matlice/ingsw/model/data/factories/HierarchyFactory.html" xlink:show="new" xlink:title="it.matlice.ingsw.model.data.factories.HierarchyFactory" xlink:type="simple"><rect fill="#FEFECE" filter="url(#fn635me)" height="102.9496" style="stroke: #A80036; stroke-width: 1.5;" width="276" x="41" y="107"/><ellipse cx="91.75" cy="128.2" fill="#B4A7E5" rx="11" ry="11" style="stroke: #A80036; stroke-width: 1.0;"/><path d="M92.7656,125.3562 L94.4219,125.3562 C94.8125,125.3562 95.0156,125.325 95.1719,125.2468 C95.4375,125.075 95.6094,124.7781 95.6094,124.4812 C95.6094,124.2 95.4688,123.95 95.2344,123.7781 C95.0469,123.6531 94.8906,123.6062 94.4219,123.6062 L89.2813,123.6062 C88.8438,123.6062 88.7031,123.6218 88.5313,123.7312 C88.2656,123.9031 88.0938,124.1843 88.0938,124.4812 C88.0938,124.7625 88.2344,125.0437 88.4688,125.2 C88.6563,125.325 88.8438,125.3562 89.2813,125.3562 L90.9375,125.3562 L90.9375,131.45 L89.2813,131.45 C88.8438,131.45 88.7031,131.4656 88.5313,131.575 C88.2656,131.7312 88.0938,132.0281 88.0938,132.3093 C88.0938,132.9187 88.5,133.2 89.2813,133.2 L94.4219,133.2 C95.2031,133.2 95.6094,132.9187 95.6094,132.3093 C95.6094,132.0437 95.4688,131.7937 95.2344,131.6218 C95.0469,131.4812 94.875,131.45 94.4219,131.45 L92.7656,131.45 L92.7656,125.3562 Z "/><text fill="#000000" font-family="sans-serif" font-size="14" font-style="italic" font-weight="bold" lengthAdjust="spacingAndGlyphs" textLength="117" x="136.75" y="127.3999">HierarchyFactory</text><text fill="#000000" font-family="sans-serif" font-size="10" font-style="italic" lengthAdjust="spacingAndGlyphs" textLength="166" x="112.25" y="141.8999">it.matlice.ingsw.model.data.factories</text><line style="stroke: #A80036; stroke-width: 1.5;" x1="42" x2="316" y1="149.3999" y2="149.3999"/><line style="stroke: #A80036; stroke-width: 1.5;" x1="42" x2="316" y1="157.3999" y2="157.3999"/><ellipse cx="52" cy="170.3248" fill="#84BE84" rx="3" ry="3" style="stroke: #038048; stroke-width: 1.0;"/><text fill="#000000" font-family="sans-serif" font-size="11" font-style="italic" lengthAdjust="spacingAndGlyphs" textLength="159" x="61" y="173.4998">List&lt;Hierarchy&gt; getHierarchies()</text><ellipse cx="52" cy="185.1747" fill="#84BE84" rx="3" ry="3" style="stroke: #038048; stroke-width: 1.0;"/><text fill="#000000" font-family="sans-serif" font-size="11" font-style="italic" lengthAdjust="spacingAndGlyphs" textLength="250" x="61" y="188.3497">Hierarchy createHierarchy(Category rootCategory)</text><ellipse cx="52" cy="200.0246" fill="#84BE84" rx="3" ry="3" style="stroke: #038048; stroke-width: 1.0;"/><text fill="#000000" font-family="sans-serif" font-size="11" font-style="italic" lengthAdjust="spacingAndGlyphs" textLength="165" x="61" y="203.1996">void deleteHierarchy(Hierarchy h)</text></a><!--class it.matlice.ingsw.model.Model--><a target="_parent" xlink:actuate="onRequest" xlink:href="../../../../../../it/matlice/ingsw/model/Model.html" xlink:show="new" xlink:title="it.matlice.ingsw.model.Model" xlink:type="simple"><rect fill="#FFFFFF" filter="url(#fn635me)" height="38.7999" style="stroke: #A80036; stroke-width: 1.5;" width="132" x="13" y="8"/><rect fill="#FFFFFF" height="38.7999" style="stroke: #A80036; stroke-width: 1.5;" width="132" x="13" y="8"/><ellipse cx="28" cy="27.4" fill="#ADD1B2" rx="11" ry="11" style="stroke: #A80036; stroke-width: 1.0;"/><path d="M23,28.5562 C23,31.0562 25.1406,32.8687 28.0625,32.8687 C29.2969,32.8687 30.4688,32.5718 31.2188,32.0562 C31.8281,31.6343 32.1563,31.2125 32.1563,30.8062 C32.1563,30.3375 31.7344,29.9312 31.2344,29.9312 C31,29.9312 30.7813,30.0093 30.5781,30.2125 C30.1406,30.65 30.1406,30.65 29.9688,30.7437 C29.5156,30.9781 28.875,31.1187 28.1094,31.1187 C26.1094,31.1187 24.8281,30.1031 24.8281,28.525 L24.8281,27.4781 C24.8281,25.775 26.0469,24.5718 27.75,24.5718 C28.3281,24.5718 28.9063,24.7125 29.375,24.9625 C29.8438,25.2281 30.0156,25.4156 30.0781,25.775 C30.2031,26.4468 30.4531,26.6968 30.9844,26.6968 C31.2656,26.6968 31.5469,26.5562 31.7344,26.3375 C31.8594,26.1656 31.9063,25.9937 31.9063,25.5562 L31.9063,24.1968 C31.9063,23.775 31.8906,23.6343 31.7656,23.4625 C31.5938,23.2125 31.3125,23.0562 30.9844,23.0562 C30.6719,23.0562 30.4688,23.1656 30.25,23.4312 C29.0781,22.9312 28.6406,22.8218 27.6875,22.8218 C25.0156,22.8218 23,24.8375 23,27.4625 L23,28.5562 Z "/><text fill="#000000" font-family="sans-serif" font-size="14" font-weight="bold" lengthAdjust="spacingAndGlyphs" textLength="42" x="71" y="26.0059">Model</text><text fill="#000000" font-family="sans-serif" font-size="10" lengthAdjust="spacingAndGlyphs" textLength="100" x="42" y="39.0899">it.matlice.ingsw.model</text></a><!--class it.matlice.ingsw.model.data.Hierarchy--><a target="_parent" xlink:actuate="onRequest" xlink:href="../../../../../../it/matlice/ingsw/model/data/Hierarchy.html" xlink:show="new" xlink:title="it.matlice.ingsw.model.data.Hierarchy" xlink:type="simple"><rect fill="#FFFFFF" filter="url(#fn635me)" height="38.7999" style="stroke: #A80036; stroke-width: 1.5;" width="156" x="6" y="270"/><rect fill="#FFFFFF" height="38.7999" style="stroke: #A80036; stroke-width: 1.5;" width="156" x="6" y="270"/><ellipse cx="21" cy="289.4" fill="#ADD1B2" rx="11" ry="11" style="stroke: #A80036; stroke-width: 1.0;"/><path d="M16,290.5562 C16,293.0562 18.1406,294.8687 21.0625,294.8687 C22.2969,294.8687 23.4688,294.5718 24.2188,294.0562 C24.8281,293.6343 25.1563,293.2125 25.1563,292.8062 C25.1563,292.3375 24.7344,291.9312 24.2344,291.9312 C24,291.9312 23.7813,292.0093 23.5781,292.2125 C23.1406,292.65 23.1406,292.65 22.9688,292.7437 C22.5156,292.9781 21.875,293.1187 21.1094,293.1187 C19.1094,293.1187 17.8281,292.1031 17.8281,290.525 L17.8281,289.4781 C17.8281,287.775 19.0469,286.5718 20.75,286.5718 C21.3281,286.5718 21.9063,286.7125 22.375,286.9625 C22.8438,287.2281 23.0156,287.4156 23.0781,287.775 C23.2031,288.4468 23.4531,288.6968 23.9844,288.6968 C24.2656,288.6968 24.5469,288.5562 24.7344,288.3375 C24.8594,288.1656 24.9063,287.9937 24.9063,287.5562 L24.9063,286.1968 C24.9063,285.775 24.8906,285.6343 24.7656,285.4625 C24.5938,285.2125 24.3125,285.0562 23.9844,285.0562 C23.6719,285.0562 23.4688,285.1656 23.25,285.4312 C22.0781,284.9312 21.6406,284.8218 20.6875,284.8218 C18.0156,284.8218 16,286.8375 16,289.4625 L16,290.5562 Z "/><text fill="#000000" font-family="sans-serif" font-size="14" font-weight="bold" lengthAdjust="spacingAndGlyphs" textLength="65" x="64.5" y="288.0059">Hierarchy</text><text fill="#000000" font-family="sans-serif" font-size="10" lengthAdjust="spacingAndGlyphs" textLength="124" x="35" y="301.0899">it.matlice.ingsw.model.data</text></a><!--class it.matlice.ingsw.model.data.Category--><a target="_parent" xlink:actuate="onRequest" xlink:href="../../../../../../it/matlice/ingsw/model/data/Category.html" xlink:show="new" xlink:title="it.matlice.ingsw.model.data.Category" xlink:type="simple"><rect fill="#FFFFFF" filter="url(#fn635me)" height="38.7999" style="stroke: #A80036; stroke-width: 1.5;" width="156" x="197" y="270"/><rect fill="#FFFFFF" height="38.7999" style="stroke: #A80036; stroke-width: 1.5;" width="156" x="197" y="270"/><ellipse cx="212" cy="289.4" fill="#ADD1B2" rx="11" ry="11" style="stroke: #A80036; stroke-width: 1.0;"/><path d="M207,290.5562 C207,293.0562 209.1406,294.8687 212.0625,294.8687 C213.2969,294.8687 214.4688,294.5718 215.2188,294.0562 C215.8281,293.6343 216.1563,293.2125 216.1563,292.8062 C216.1563,292.3375 215.7344,291.9312 215.2344,291.9312 C215,291.9312 214.7813,292.0093 214.5781,292.2125 C214.1406,292.65 214.1406,292.65 213.9688,292.7437 C213.5156,292.9781 212.875,293.1187 212.1094,293.1187 C210.1094,293.1187 208.8281,292.1031 208.8281,290.525 L208.8281,289.4781 C208.8281,287.775 210.0469,286.5718 211.75,286.5718 C212.3281,286.5718 212.9063,286.7125 213.375,286.9625 C213.8438,287.2281 214.0156,287.4156 214.0781,287.775 C214.2031,288.4468 214.4531,288.6968 214.9844,288.6968 C215.2656,288.6968 215.5469,288.5562 215.7344,288.3375 C215.8594,288.1656 215.9063,287.9937 215.9063,287.5562 L215.9063,286.1968 C215.9063,285.775 215.8906,285.6343 215.7656,285.4625 C215.5938,285.2125 215.3125,285.0562 214.9844,285.0562 C214.6719,285.0562 214.4688,285.1656 214.25,285.4312 C213.0781,284.9312 212.6406,284.8218 211.6875,284.8218 C209.0156,284.8218 207,286.8375 207,289.4625 L207,290.5562 Z "/><text fill="#000000" font-family="sans-serif" font-size="14" font-weight="bold" lengthAdjust="spacingAndGlyphs" textLength="62" x="257" y="288.0059">Category</text><text fill="#000000" font-family="sans-serif" font-size="10" lengthAdjust="spacingAndGlyphs" textLength="124" x="226" y="301.0899">it.matlice.ingsw.model.data</text></a><!--class it.matlice.ingsw.model.data.impl.jdbc.HierarchyFactoryImpl--><a target="_parent" xlink:actuate="onRequest" xlink:href="../../../../../../it/matlice/ingsw/model/data/impl/jdbc/HierarchyFactoryImpl.html" xlink:show="new" xlink:title="it.matlice.ingsw.model.data.impl.jdbc.HierarchyFactoryImpl" xlink:type="simple"><rect fill="#FFFFFF" filter="url(#fn635me)" height="38.7999" style="stroke: #A80036; stroke-width: 1.5;" width="199" x="180.5" y="8"/><rect fill="#FFFFFF" height="38.7999" style="stroke: #A80036; stroke-width: 1.5;" width="199" x="180.5" y="8"/><ellipse cx="195.5" cy="27.4" fill="#ADD1B2" rx="11" ry="11" style="stroke: #A80036; stroke-width: 1.0;"/><path d="M190.5,28.5562 C190.5,31.0562 192.6406,32.8687 195.5625,32.8687 C196.7969,32.8687 197.9688,32.5718 198.7188,32.0562 C199.3281,31.6343 199.6563,31.2125 199.6563,30.8062 C199.6563,30.3375 199.2344,29.9312 198.7344,29.9312 C198.5,29.9312 198.2813,30.0093 198.0781,30.2125 C197.6406,30.65 197.6406,30.65 197.4688,30.7437 C197.0156,30.9781 196.375,31.1187 195.6094,31.1187 C193.6094,31.1187 192.3281,30.1031 192.3281,28.525 L192.3281,27.4781 C192.3281,25.775 193.5469,24.5718 195.25,24.5718 C195.8281,24.5718 196.4063,24.7125 196.875,24.9625 C197.3438,25.2281 197.5156,25.4156 197.5781,25.775 C197.7031,26.4468 197.9531,26.6968 198.4844,26.6968 C198.7656,26.6968 199.0469,26.5562 199.2344,26.3375 C199.3594,26.1656 199.4063,25.9937 199.4063,25.5562 L199.4063,24.1968 C199.4063,23.775 199.3906,23.6343 199.2656,23.4625 C199.0938,23.2125 198.8125,23.0562 198.4844,23.0562 C198.1719,23.0562 197.9688,23.1656 197.75,23.4312 C196.5781,22.9312 196.1406,22.8218 195.1875,22.8218 C192.5156,22.8218 190.5,24.8375 190.5,27.4625 L190.5,28.5562 Z "/><text fill="#000000" font-family="sans-serif" font-size="14" font-weight="bold" lengthAdjust="spacingAndGlyphs" textLength="146" x="220" y="26.0059">HierarchyFactoryImpl</text><text fill="#000000" font-family="sans-serif" font-size="10" lengthAdjust="spacingAndGlyphs" textLength="167" x="209.5" y="39.0899">it.matlice.ingsw.model.data.impl.jdbc</text></a><path d="M93,47.11 C93,47.11 93,101.74 93,101.74 " fill="none" style="stroke: #A80036; stroke-width: 1.0;"/><polygon fill="#A80036" points="93,106.74,97,97.74,93,101.74,89,97.74,93,106.74" style="stroke: #A80036; stroke-width: 1.0;"/><text fill="#000000" font-family="sans-serif" font-size="13" lengthAdjust="spacingAndGlyphs" textLength="11" x="69.1328" y="95.5293">hf</text><path d="M101.5,210.27 C101.5,210.27 101.5,264.76 101.5,264.76 " fill="none" style="stroke: #A80036; stroke-width: 1.0; stroke-dasharray: 7.0,7.0;"/><polygon fill="#A80036" points="101.5,269.76,105.5257,260.7715,101.5143,264.76,97.5257,260.7486,101.5,269.76" style="stroke: #A80036; stroke-width: 1.0;"/><path d="M257,210.27 C257,210.27 257,264.76 257,264.76 " fill="none" style="stroke: #A80036; stroke-width: 1.0; stroke-dasharray: 7.0,7.0;"/><polygon fill="#A80036" points="257,269.76,261.0257,260.7715,257.0143,264.76,253.0257,260.7486,257,269.76" style="stroke: #A80036; stroke-width: 1.0;"/><path d="M248.75,47.11 C248.75,47.11 248.75,86.74 248.75,86.74 " fill="none" style="stroke: #A80036; stroke-width: 1.0; stroke-dasharray: 7.0,7.0;"/><polygon fill="none" points="255.75,86.74,248.75,106.74,241.75,86.74,255.75,86.74" style="stroke: #A80036; stroke-width: 1.0;"/></g></svg>