<?xml version="1.0" encoding="UTF-8" standalone="no"?><svg xmlns="http://www.w3.org/2000/svg" xmlns:xlink="http://www.w3.org/1999/xlink" contentScriptType="application/ecmascript" contentStyleType="text/css" height="320px" preserveAspectRatio="none" style="width:848px;height:320px;" version="1.1" viewBox="0 0 848 320" width="848px" zoomAndPan="magnify"><defs><filter height="300%" id="fuavtjn" width="300%" x="-1" y="-1"><feGaussianBlur result="blurOut" stdDeviation="2.0"/><feColorMatrix in="blurOut" result="blurOut2" type="matrix" values="0 0 0 0 0 0 0 0 0 0 0 0 0 0 0 0 0 0 .4 0"/><feOffset dx="4.0" dy="4.0" in="blurOut2" result="blurOut3"/><feBlend in="SourceGraphic" in2="blurOut3" mode="normal"/></filter></defs><g><!--class it.matlice.ingsw.model.data.factories.MessageFactory--><a target="_parent" xlink:actuate="onRequest" xlink:href="../../../../../../it/matlice/ingsw/model/data/factories/MessageFactory.html" xlink:show="new" xlink:title="it.matlice.ingsw.model.data.factories.MessageFactory" xlink:type="simple"><rect fill="#FEFECE" filter="url(#fuavtjn)" height="102.9496" style="stroke: #A80036; stroke-width: 1.5;" width="382" x="198" y="110"/><ellipse cx="301.75" cy="131.2" fill="#B4A7E5" rx="11" ry="11" style="stroke: #A80036; stroke-width: 1.0;"/><path d="M302.7656,128.3562 L304.4219,128.3562 C304.8125,128.3562 305.0156,128.325 305.1719,128.2468 C305.4375,128.075 305.6094,127.7781 305.6094,127.4812 C305.6094,127.2 305.4688,126.95 305.2344,126.7781 C305.0469,126.6531 304.8906,126.6062 304.4219,126.6062 L299.2813,126.6062 C298.8438,126.6062 298.7031,126.6218 298.5313,126.7312 C298.2656,126.9031 298.0938,127.1843 298.0938,127.4812 C298.0938,127.7625 298.2344,128.0437 298.4688,128.2 C298.6563,128.325 298.8438,128.3562 299.2813,128.3562 L300.9375,128.3562 L300.9375,134.45 L299.2813,134.45 C298.8438,134.45 298.7031,134.4656 298.5313,134.575 C298.2656,134.7312 298.0938,135.0281 298.0938,135.3093 C298.0938,135.9187 298.5,136.2 299.2813,136.2 L304.4219,136.2 C305.2031,136.2 305.6094,135.9187 305.6094,135.3093 C305.6094,135.0437 305.4688,134.7937 305.2344,134.6218 C305.0469,134.4812 304.875,134.45 304.4219,134.45 L302.7656,134.45 L302.7656,128.3562 Z "/><text fill="#000000" font-family="sans-serif" font-size="14" font-style="italic" font-weight="bold" lengthAdjust="spacingAndGlyphs" textLength="113" x="348.75" y="130.3999">MessageFactory</text><text fill="#000000" font-family="sans-serif" font-size="10" font-style="italic" lengthAdjust="spacingAndGlyphs" textLength="166" x="322.25" y="144.8999">it.matlice.ingsw.model.data.factories</text><line style="stroke: #A80036; stroke-width: 1.5;" x1="199" x2="579" y1="152.3999" y2="152.3999"/><line style="stroke: #A80036; stroke-width: 1.5;" x1="199" x2="579" y1="160.3999" y2="160.3999"/><ellipse cx="209" cy="173.3248" fill="#84BE84" rx="3" ry="3" style="stroke: #038048; stroke-width: 1.0;"/><text fill="#000000" font-family="sans-serif" font-size="11" font-style="italic" lengthAdjust="spacingAndGlyphs" textLength="348" x="218" y="176.4998">Message send(Offer offer,String location,Calendar date,long timestamp)</text><ellipse cx="209" cy="188.1747" fill="#84BE84" rx="3" ry="3" style="stroke: #038048; stroke-width: 1.0;"/><text fill="#000000" font-family="sans-serif" font-size="11" font-style="italic" lengthAdjust="spacingAndGlyphs" textLength="356" x="218" y="191.3497">Message answer(Message msg,Offer offer,String location,Calendar date)</text><ellipse cx="209" cy="203.0246" fill="#84BE84" rx="3" ry="3" style="stroke: #038048; stroke-width: 1.0;"/><text fill="#000000" font-family="sans-serif" font-size="11" font-style="italic" lengthAdjust="spacingAndGlyphs" textLength="208" x="218" y="206.1996">List&lt;Message&gt; getUserMessages(User u)</text></a><!--class it.matlice.ingsw.model.Model--><a target="_parent" xlink:actuate="onRequest" xlink:href="../../../../../../it/matlice/ingsw/model/Model.html" xlink:show="new" xlink:title="it.matlice.ingsw.model.Model" xlink:type="simple"><rect fill="#FFFFFF" filter="url(#fuavtjn)" height="38.7999" style="stroke: #A80036; stroke-width: 1.5;" width="132" x="6" y="9.5"/><rect fill="#FFFFFF" height="38.7999" style="stroke: #A80036; stroke-width: 1.5;" width="132" x="6" y="9.5"/><ellipse cx="21" cy="28.9" fill="#ADD1B2" rx="11" ry="11" style="stroke: #A80036; stroke-width: 1.0;"/><path d="M16,30.0562 C16,32.5562 18.1406,34.3687 21.0625,34.3687 C22.2969,34.3687 23.4688,34.0718 24.2188,33.5562 C24.8281,33.1343 25.1563,32.7125 25.1563,32.3062 C25.1563,31.8375 24.7344,31.4312 24.2344,31.4312 C24,31.4312 23.7813,31.5093 23.5781,31.7125 C23.1406,32.15 23.1406,32.15 22.9688,32.2437 C22.5156,32.4781 21.875,32.6187 21.1094,32.6187 C19.1094,32.6187 17.8281,31.6031 17.8281,30.025 L17.8281,28.9781 C17.8281,27.275 19.0469,26.0718 20.75,26.0718 C21.3281,26.0718 21.9063,26.2125 22.375,26.4625 C22.8438,26.7281 23.0156,26.9156 23.0781,27.275 C23.2031,27.9468 23.4531,28.1968 23.9844,28.1968 C24.2656,28.1968 24.5469,28.0562 24.7344,27.8375 C24.8594,27.6656 24.9063,27.4937 24.9063,27.0562 L24.9063,25.6968 C24.9063,25.275 24.8906,25.1343 24.7656,24.9625 C24.5938,24.7125 24.3125,24.5562 23.9844,24.5562 C23.6719,24.5562 23.4688,24.6656 23.25,24.9312 C22.0781,24.4312 21.6406,24.3218 20.6875,24.3218 C18.0156,24.3218 16,26.3375 16,28.9625 L16,30.0562 Z "/><text fill="#000000" font-family="sans-serif" font-size="14" font-weight="bold" lengthAdjust="spacingAndGlyphs" textLength="42" x="64" y="27.5059">Model</text><text fill="#000000" font-family="sans-serif" font-size="10" lengthAdjust="spacingAndGlyphs" textLength="100" x="35" y="40.5899">it.matlice.ingsw.model</text></a><!--class it.matlice.ingsw.model.data.factories.OfferFactory--><a target="_parent" xlink:actuate="onRequest" xlink:href="../../../../../../it/matlice/ingsw/model/data/factories/OfferFactory.html" xlink:show="new" xlink:title="it.matlice.ingsw.model.data.factories.OfferFactory" xlink:type="simple"><rect fill="#FEFECE" filter="url(#fuavtjn)" height="42.3999" style="stroke: #A80036; stroke-width: 1.5;" width="198" x="173" y="8"/><ellipse cx="188" cy="29.2" fill="#B4A7E5" rx="11" ry="11" style="stroke: #A80036; stroke-width: 1.0;"/><path d="M189.0156,26.3562 L190.6719,26.3562 C191.0625,26.3562 191.2656,26.325 191.4219,26.2468 C191.6875,26.075 191.8594,25.7781 191.8594,25.4812 C191.8594,25.2 191.7188,24.95 191.4844,24.7781 C191.2969,24.6531 191.1406,24.6062 190.6719,24.6062 L185.5313,24.6062 C185.0938,24.6062 184.9531,24.6218 184.7813,24.7312 C184.5156,24.9031 184.3438,25.1843 184.3438,25.4812 C184.3438,25.7625 184.4844,26.0437 184.7188,26.2 C184.9063,26.325 185.0938,26.3562 185.5313,26.3562 L187.1875,26.3562 L187.1875,32.45 L185.5313,32.45 C185.0938,32.45 184.9531,32.4656 184.7813,32.575 C184.5156,32.7312 184.3438,33.0281 184.3438,33.3093 C184.3438,33.9187 184.75,34.2 185.5313,34.2 L190.6719,34.2 C191.4531,34.2 191.8594,33.9187 191.8594,33.3093 C191.8594,33.0437 191.7188,32.7937 191.4844,32.6218 C191.2969,32.4812 191.125,32.45 190.6719,32.45 L189.0156,32.45 L189.0156,26.3562 Z "/><text fill="#000000" font-family="sans-serif" font-size="14" font-style="italic" font-weight="bold" lengthAdjust="spacingAndGlyphs" textLength="86" x="242" y="28.3999">OfferFactory</text><text fill="#000000" font-family="sans-serif" font-size="10" font-style="italic" lengthAdjust="spacingAndGlyphs" textLength="166" x="202" y="42.8999">it.matlice.ingsw.model.data.factories</text></a><!--class it.matlice.ingsw.model.data.Offer--><a target="_parent" xlink:actuate="onRequest" xlink:href="../../../../../../it/matlice/ingsw/model/data/Offer.html" xlink:show="new" xlink:title="it.matlice.ingsw.model.data.Offer" xlink:type="simple"><rect fill="#FFFFFF" filter="url(#fuavtjn)" height="38.7999" style="stroke: #A80036; stroke-width: 1.5;" width="156" x="120" y="273"/><rect fill="#FFFFFF" height="38.7999" style="stroke: #A80036; stroke-width: 1.5;" width="156" x="120" y="273"/><ellipse cx="135" cy="292.4" fill="#ADD1B2" rx="11" ry="11" style="stroke: #A80036; stroke-width: 1.0;"/><path d="M130,293.5562 C130,296.0562 132.1406,297.8687 135.0625,297.8687 C136.2969,297.8687 137.4688,297.5718 138.2188,297.0562 C138.8281,296.6343 139.1563,296.2125 139.1563,295.8062 C139.1563,295.3375 138.7344,294.9312 138.2344,294.9312 C138,294.9312 137.7813,295.0093 137.5781,295.2125 C137.1406,295.65 137.1406,295.65 136.9688,295.7437 C136.5156,295.9781 135.875,296.1187 135.1094,296.1187 C133.1094,296.1187 131.8281,295.1031 131.8281,293.525 L131.8281,292.4781 C131.8281,290.775 133.0469,289.5718 134.75,289.5718 C135.3281,289.5718 135.9063,289.7125 136.375,289.9625 C136.8438,290.2281 137.0156,290.4156 137.0781,290.775 C137.2031,291.4468 137.4531,291.6968 137.9844,291.6968 C138.2656,291.6968 138.5469,291.5562 138.7344,291.3375 C138.8594,291.1656 138.9063,290.9937 138.9063,290.5562 L138.9063,289.1968 C138.9063,288.775 138.8906,288.6343 138.7656,288.4625 C138.5938,288.2125 138.3125,288.0562 137.9844,288.0562 C137.6719,288.0562 137.4688,288.1656 137.25,288.4312 C136.0781,287.9312 135.6406,287.8218 134.6875,287.8218 C132.0156,287.8218 130,289.8375 130,292.4625 L130,293.5562 Z "/><text fill="#000000" font-family="sans-serif" font-size="14" font-weight="bold" lengthAdjust="spacingAndGlyphs" textLength="34" x="194" y="291.0059">Offer</text><text fill="#000000" font-family="sans-serif" font-size="10" lengthAdjust="spacingAndGlyphs" textLength="124" x="149" y="304.0899">it.matlice.ingsw.model.data</text></a><!--class it.matlice.ingsw.model.data.Message--><a target="_parent" xlink:actuate="onRequest" xlink:href="../../../../../../it/matlice/ingsw/model/data/Message.html" xlink:show="new" xlink:title="it.matlice.ingsw.model.data.Message" xlink:type="simple"><rect fill="#FFFFFF" filter="url(#fuavtjn)" height="38.7999" style="stroke: #A80036; stroke-width: 1.5;" width="156" x="311" y="273"/><rect fill="#FFFFFF" height="38.7999" style="stroke: #A80036; stroke-width: 1.5;" width="156" x="311" y="273"/><ellipse cx="326" cy="292.4" fill="#ADD1B2" rx="11" ry="11" style="stroke: #A80036; stroke-width: 1.0;"/><path d="M321,293.5562 C321,296.0562 323.1406,297.8687 326.0625,297.8687 C327.2969,297.8687 328.4688,297.5718 329.2188,297.0562 C329.8281,296.6343 330.1563,296.2125 330.1563,295.8062 C330.1563,295.3375 329.7344,294.9312 329.2344,294.9312 C329,294.9312 328.7813,295.0093 328.5781,295.2125 C328.1406,295.65 328.1406,295.65 327.9688,295.7437 C327.5156,295.9781 326.875,296.1187 326.1094,296.1187 C324.1094,296.1187 322.8281,295.1031 322.8281,293.525 L322.8281,292.4781 C322.8281,290.775 324.0469,289.5718 325.75,289.5718 C326.3281,289.5718 326.9063,289.7125 327.375,289.9625 C327.8438,290.2281 328.0156,290.4156 328.0781,290.775 C328.2031,291.4468 328.4531,291.6968 328.9844,291.6968 C329.2656,291.6968 329.5469,291.5562 329.7344,291.3375 C329.8594,291.1656 329.9063,290.9937 329.9063,290.5562 L329.9063,289.1968 C329.9063,288.775 329.8906,288.6343 329.7656,288.4625 C329.5938,288.2125 329.3125,288.0562 328.9844,288.0562 C328.6719,288.0562 328.4688,288.1656 328.25,288.4312 C327.0781,287.9312 326.6406,287.8218 325.6875,287.8218 C323.0156,287.8218 321,289.8375 321,292.4625 L321,293.5562 Z "/><text fill="#000000" font-family="sans-serif" font-size="14" font-weight="bold" lengthAdjust="spacingAndGlyphs" textLength="61" x="371.5" y="291.0059">Message</text><text fill="#000000" font-family="sans-serif" font-size="10" lengthAdjust="spacingAndGlyphs" textLength="124" x="340" y="304.0899">it.matlice.ingsw.model.data</text></a><!--class it.matlice.ingsw.model.data.User--><a target="_parent" xlink:actuate="onRequest" xlink:href="../../../../../../it/matlice/ingsw/model/data/User.html" xlink:show="new" xlink:title="it.matlice.ingsw.model.data.User" xlink:type="simple"><rect fill="#FFFFFF" filter="url(#fuavtjn)" height="38.7999" style="stroke: #A80036; stroke-width: 1.5;" width="156" x="502" y="273"/><rect fill="#FFFFFF" height="38.7999" style="stroke: #A80036; stroke-width: 1.5;" width="156" x="502" y="273"/><ellipse cx="517" cy="292.4" fill="#ADD1B2" rx="11" ry="11" style="stroke: #A80036; stroke-width: 1.0;"/><path d="M512,293.5562 C512,296.0562 514.1406,297.8687 517.0625,297.8687 C518.2969,297.8687 519.4688,297.5718 520.2188,297.0562 C520.8281,296.6343 521.1563,296.2125 521.1563,295.8062 C521.1563,295.3375 520.7344,294.9312 520.2344,294.9312 C520,294.9312 519.7813,295.0093 519.5781,295.2125 C519.1406,295.65 519.1406,295.65 518.9688,295.7437 C518.5156,295.9781 517.875,296.1187 517.1094,296.1187 C515.1094,296.1187 513.8281,295.1031 513.8281,293.525 L513.8281,292.4781 C513.8281,290.775 515.0469,289.5718 516.75,289.5718 C517.3281,289.5718 517.9063,289.7125 518.375,289.9625 C518.8438,290.2281 519.0156,290.4156 519.0781,290.775 C519.2031,291.4468 519.4531,291.6968 519.9844,291.6968 C520.2656,291.6968 520.5469,291.5562 520.7344,291.3375 C520.8594,291.1656 520.9063,290.9937 520.9063,290.5562 L520.9063,289.1968 C520.9063,288.775 520.8906,288.6343 520.7656,288.4625 C520.5938,288.2125 520.3125,288.0562 519.9844,288.0562 C519.6719,288.0562 519.4688,288.1656 519.25,288.4312 C518.0781,287.9312 517.6406,287.8218 516.6875,287.8218 C514.0156,287.8218 512,289.8375 512,292.4625 L512,293.5562 Z "/><text fill="#000000" font-family="sans-serif" font-size="14" font-weight="bold" lengthAdjust="spacingAndGlyphs" textLength="31" x="577.5" y="291.0059">User</text><text fill="#000000" font-family="sans-serif" font-size="10" lengthAdjust="spacingAndGlyphs" textLength="124" x="531" y="304.0899">it.matlice.ingsw.model.data</text></a><!--class it.matlice.ingsw.model.data.impl.jdbc.OfferFactoryImpl--><a target="_parent" xlink:actuate="onRequest" xlink:href="../../../../../../it/matlice/ingsw/model/data/impl/jdbc/OfferFactoryImpl.html" xlink:show="new" xlink:title="it.matlice.ingsw.model.data.impl.jdbc.OfferFactoryImpl" xlink:type="simple"><rect fill="#FFFFFF" filter="url(#fuavtjn)" height="38.7999" style="stroke: #A80036; stroke-width: 1.5;" width="199" x="406.5" y="9.5"/><rect fill="#FFFFFF" height="38.7999" style="stroke: #A80036; stroke-width: 1.5;" width="199" x="406.5" y="9.5"/><ellipse cx="421.5" cy="28.9" fill="#ADD1B2" rx="11" ry="11" style="stroke: #A80036; stroke-width: 1.0;"/><path d="M416.5,30.0562 C416.5,32.5562 418.6406,34.3687 421.5625,34.3687 C422.7969,34.3687 423.9688,34.0718 424.7188,33.5562 C425.3281,33.1343 425.6563,32.7125 425.6563,32.3062 C425.6563,31.8375 425.2344,31.4312 424.7344,31.4312 C424.5,31.4312 424.2813,31.5093 424.0781,31.7125 C423.6406,32.15 423.6406,32.15 423.4688,32.2437 C423.0156,32.4781 422.375,32.6187 421.6094,32.6187 C419.6094,32.6187 418.3281,31.6031 418.3281,30.025 L418.3281,28.9781 C418.3281,27.275 419.5469,26.0718 421.25,26.0718 C421.8281,26.0718 422.4063,26.2125 422.875,26.4625 C423.3438,26.7281 423.5156,26.9156 423.5781,27.275 C423.7031,27.9468 423.9531,28.1968 424.4844,28.1968 C424.7656,28.1968 425.0469,28.0562 425.2344,27.8375 C425.3594,27.6656 425.4063,27.4937 425.4063,27.0562 L425.4063,25.6968 C425.4063,25.275 425.3906,25.1343 425.2656,24.9625 C425.0938,24.7125 424.8125,24.5562 424.4844,24.5562 C424.1719,24.5562 423.9688,24.6656 423.75,24.9312 C422.5781,24.4312 422.1406,24.3218 421.1875,24.3218 C418.5156,24.3218 416.5,26.3375 416.5,28.9625 L416.5,30.0562 Z "/><text fill="#000000" font-family="sans-serif" font-size="14" font-weight="bold" lengthAdjust="spacingAndGlyphs" textLength="115" x="461.5" y="27.5059">OfferFactoryImpl</text><text fill="#000000" font-family="sans-serif" font-size="10" lengthAdjust="spacingAndGlyphs" textLength="167" x="435.5" y="40.5899">it.matlice.ingsw.model.data.impl.jdbc</text></a><!--class it.matlice.ingsw.model.data.impl.jdbc.MessageFactoryImpl--><a target="_parent" xlink:actuate="onRequest" xlink:href="../../../../../../it/matlice/ingsw/model/data/impl/jdbc/MessageFactoryImpl.html" xlink:show="new" xlink:title="it.matlice.ingsw.model.data.impl.jdbc.MessageFactoryImpl" xlink:type="simple"><rect fill="#FFFFFF" filter="url(#fuavtjn)" height="38.7999" style="stroke: #A80036; stroke-width: 1.5;" width="199" x="640.5" y="9.5"/><rect fill="#FFFFFF" height="38.7999" style="stroke: #A80036; stroke-width: 1.5;" width="199" x="640.5" y="9.5"/><ellipse cx="655.5" cy="28.9" fill="#ADD1B2" rx="11" ry="11" style="stroke: #A80036; stroke-width: 1.0;"/><path d="M650.5,30.0562 C650.5,32.5562 652.6406,34.3687 655.5625,34.3687 C656.7969,34.3687 657.9688,34.0718 658.7188,33.5562 C659.3281,33.1343 659.6563,32.7125 659.6563,32.3062 C659.6563,31.8375 659.2344,31.4312 658.7344,31.4312 C658.5,31.4312 658.2813,31.5093 658.0781,31.7125 C657.6406,32.15 657.6406,32.15 657.4688,32.2437 C657.0156,32.4781 656.375,32.6187 655.6094,32.6187 C653.6094,32.6187 652.3281,31.6031 652.3281,30.025 L652.3281,28.9781 C652.3281,27.275 653.5469,26.0718 655.25,26.0718 C655.8281,26.0718 656.4063,26.2125 656.875,26.4625 C657.3438,26.7281 657.5156,26.9156 657.5781,27.275 C657.7031,27.9468 657.9531,28.1968 658.4844,28.1968 C658.7656,28.1968 659.0469,28.0562 659.2344,27.8375 C659.3594,27.6656 659.4063,27.4937 659.4063,27.0562 L659.4063,25.6968 C659.4063,25.275 659.3906,25.1343 659.2656,24.9625 C659.0938,24.7125 658.8125,24.5562 658.4844,24.5562 C658.1719,24.5562 657.9688,24.6656 657.75,24.9312 C656.5781,24.4312 656.1406,24.3218 655.1875,24.3218 C652.5156,24.3218 650.5,26.3375 650.5,28.9625 L650.5,30.0562 Z "/><text fill="#000000" font-family="sans-serif" font-size="14" font-weight="bold" lengthAdjust="spacingAndGlyphs" textLength="142" x="682" y="27.5059">MessageFactoryImpl</text><text fill="#000000" font-family="sans-serif" font-size="10" lengthAdjust="spacingAndGlyphs" textLength="167" x="669.5" y="40.5899">it.matlice.ingsw.model.data.impl.jdbc</text></a><path d="M129,48.62 C129,85.62 129,162 129,162 C129,162 192.99,162 192.99,162 " fill="none" style="stroke: #A80036; stroke-width: 1.0;"/><polygon fill="#A80036" points="197.99,162,188.99,158,192.99,162,188.99,166,197.99,162" style="stroke: #A80036; stroke-width: 1.0;"/><text fill="#000000" font-family="sans-serif" font-size="13" lengthAdjust="spacingAndGlyphs" textLength="15" x="175.2357" y="158.8163">mf</text><path d="M284.5,50.29 C284.5,50.29 284.5,104.95 284.5,104.95 " fill="none" style="stroke: #A80036; stroke-width: 1.0; stroke-dasharray: 7.0,7.0;"/><polygon fill="#A80036" points="284.5,109.95,288.5,100.95,284.5,104.95,280.5,100.95,284.5,109.95" style="stroke: #A80036; stroke-width: 1.0;"/><path d="M237,213.27 C237,213.27 237,267.76 237,267.76 " fill="none" style="stroke: #A80036; stroke-width: 1.0; stroke-dasharray: 7.0,7.0;"/><polygon fill="#A80036" points="237,272.76,241.0257,263.7715,237.0143,267.76,233.0257,263.7486,237,272.76" style="stroke: #A80036; stroke-width: 1.0;"/><path d="M389,213.27 C389,213.27 389,267.76 389,267.76 " fill="none" style="stroke: #A80036; stroke-width: 1.0; stroke-dasharray: 7.0,7.0;"/><polygon fill="#A80036" points="389,272.76,393.0257,263.7715,389.0143,267.76,385.0257,263.7486,389,272.76" style="stroke: #A80036; stroke-width: 1.0;"/><path d="M541,213.27 C541,213.27 541,267.76 541,267.76 " fill="none" style="stroke: #A80036; stroke-width: 1.0; stroke-dasharray: 7.0,7.0;"/><polygon fill="#A80036" points="541,272.76,545.0257,263.7715,541.0143,267.76,537.0257,263.7486,541,272.76" style="stroke: #A80036; stroke-width: 1.0;"/><path d="M493.25,48.55 C493.25,48.55 493.25,104.8 493.25,104.8 " fill="none" style="stroke: #A80036; stroke-width: 1.0; stroke-dasharray: 7.0,7.0;"/><polygon fill="#A80036" points="493.25,109.8,497.25,100.8,493.25,104.8,489.25,100.8,493.25,109.8" style="stroke: #A80036; stroke-width: 1.0;"/><path d="M649.25,48.62 C649.25,85.62 649.25,162 649.25,162 C649.25,162 600.19,162 600.19,162 " fill="none" style="stroke: #A80036; stroke-width: 1.0; stroke-dasharray: 7.0,7.0;"/><polygon fill="none" points="600.19,169,580.19,162,600.19,155,600.19,169" style="stroke: #A80036; stroke-width: 1.0;"/></g></svg>