<?xml version="1.0" encoding="UTF-8" standalone="no"?><svg xmlns="http://www.w3.org/2000/svg" xmlns:xlink="http://www.w3.org/1999/xlink" contentScriptType="application/ecmascript" contentStyleType="text/css" height="425px" preserveAspectRatio="none" style="width:1168px;height:425px;" version="1.1" viewBox="0 0 1168 425" width="1168px" zoomAndPan="magnify"><defs><filter height="300%" id="f5p5qef" width="300%" x="-1" y="-1"><feGaussianBlur result="blurOut" stdDeviation="2.0"/><feColorMatrix in="blurOut" result="blurOut2" type="matrix" values="0 0 0 0 0 0 0 0 0 0 0 0 0 0 0 0 0 0 .4 0"/><feOffset dx="4.0" dy="4.0" in="blurOut2" result="blurOut3"/><feBlend in="SourceGraphic" in2="blurOut3" mode="normal"/></filter></defs><g><!--class it.matlice.ingsw.model.data.factories.OfferFactory--><a target="_parent" xlink:actuate="onRequest" xlink:href="../../../../../../it/matlice/ingsw/model/data/factories/OfferFactory.html" xlink:show="new" xlink:title="it.matlice.ingsw.model.data.factories.OfferFactory" xlink:type="simple"><rect fill="#FEFECE" filter="url(#f5p5qef)" height="206.8988" style="stroke: #A80036; stroke-width: 1.5;" width="509" x="306.5" y="107"/><ellipse cx="473.75" cy="128.2" fill="#B4A7E5" rx="11" ry="11" style="stroke: #A80036; stroke-width: 1.0;"/><path d="M474.7656,125.3562 L476.4219,125.3562 C476.8125,125.3562 477.0156,125.325 477.1719,125.2468 C477.4375,125.075 477.6094,124.7781 477.6094,124.4812 C477.6094,124.2 477.4688,123.95 477.2344,123.7781 C477.0469,123.6531 476.8906,123.6062 476.4219,123.6062 L471.2813,123.6062 C470.8438,123.6062 470.7031,123.6218 470.5313,123.7312 C470.2656,123.9031 470.0938,124.1843 470.0938,124.4812 C470.0938,124.7625 470.2344,125.0437 470.4688,125.2 C470.6563,125.325 470.8438,125.3562 471.2813,125.3562 L472.9375,125.3562 L472.9375,131.45 L471.2813,131.45 C470.8438,131.45 470.7031,131.4656 470.5313,131.575 C470.2656,131.7312 470.0938,132.0281 470.0938,132.3093 C470.0938,132.9187 470.5,133.2 471.2813,133.2 L476.4219,133.2 C477.2031,133.2 477.6094,132.9187 477.6094,132.3093 C477.6094,132.0437 477.4688,131.7937 477.2344,131.6218 C477.0469,131.4812 476.875,131.45 476.4219,131.45 L474.7656,131.45 L474.7656,125.3562 Z "/><text fill="#000000" font-family="sans-serif" font-size="14" font-style="italic" font-weight="bold" lengthAdjust="spacingAndGlyphs" textLength="86" x="534.25" y="127.3999">OfferFactory</text><text fill="#000000" font-family="sans-serif" font-size="10" font-style="italic" lengthAdjust="spacingAndGlyphs" textLength="166" x="494.25" y="141.8999">it.matlice.ingsw.model.data.factories</text><line style="stroke: #A80036; stroke-width: 1.5;" x1="307.5" x2="814.5" y1="149.3999" y2="149.3999"/><line style="stroke: #A80036; stroke-width: 1.5;" x1="307.5" x2="814.5" y1="157.3999" y2="157.3999"/><ellipse cx="317.5" cy="170.3248" fill="#84BE84" rx="3" ry="3" style="stroke: #038048; stroke-width: 1.0;"/><text fill="#000000" font-family="sans-serif" font-size="11" font-style="italic" lengthAdjust="spacingAndGlyphs" textLength="483" x="326.5" y="173.4998">Offer makeOffer(String name,User owner,LeafCategory category,Map&lt;String, Object&gt; field_values)</text><ellipse cx="317.5" cy="185.1747" fill="#84BE84" rx="3" ry="3" style="stroke: #038048; stroke-width: 1.0;"/><text fill="#000000" font-family="sans-serif" font-size="11" font-style="italic" lengthAdjust="spacingAndGlyphs" textLength="168" x="326.5" y="188.3497">List&lt;Offer&gt; getOffers(User owner)</text><ellipse cx="317.5" cy="200.0246" fill="#84BE84" rx="3" ry="3" style="stroke: #038048; stroke-width: 1.0;"/><text fill="#000000" font-family="sans-serif" font-size="11" font-style="italic" lengthAdjust="spacingAndGlyphs" textLength="272" x="326.5" y="203.1996">void setOfferStatus(Offer offer,Offer.OfferStatus status)</text><ellipse cx="317.5" cy="214.8745" fill="#84BE84" rx="3" ry="3" style="stroke: #038048; stroke-width: 1.0;"/><text fill="#000000" font-family="sans-serif" font-size="11" font-style="italic" lengthAdjust="spacingAndGlyphs" textLength="195" x="326.5" y="218.0495">List&lt;Offer&gt; getOffers(LeafCategory cat)</text><ellipse cx="317.5" cy="229.7244" fill="#84BE84" rx="3" ry="3" style="stroke: #038048; stroke-width: 1.0;"/><text fill="#000000" font-family="sans-serif" font-size="11" font-style="italic" lengthAdjust="spacingAndGlyphs" textLength="210" x="326.5" y="232.8994">List&lt;Offer&gt; getSelectedOffers(User owner)</text><ellipse cx="317.5" cy="244.5743" fill="#84BE84" rx="3" ry="3" style="stroke: #038048; stroke-width: 1.0;"/><text fill="#000000" font-family="sans-serif" font-size="11" font-style="italic" lengthAdjust="spacingAndGlyphs" textLength="308" x="326.5" y="247.7493">void createTradeOffer(Offer offerToTrade,Offer offerToAccept)</text><ellipse cx="317.5" cy="259.4242" fill="#84BE84" rx="3" ry="3" style="stroke: #038048; stroke-width: 1.0;"/><text fill="#000000" font-family="sans-serif" font-size="11" font-style="italic" lengthAdjust="spacingAndGlyphs" textLength="411" x="326.5" y="262.5992">void acceptTradeOffer(Offer offer,MessageFactory mf,String location,Calendar date)</text><ellipse cx="317.5" cy="274.2741" fill="#84BE84" rx="3" ry="3" style="stroke: #038048; stroke-width: 1.0;"/><text fill="#000000" font-family="sans-serif" font-size="11" font-style="italic" lengthAdjust="spacingAndGlyphs" textLength="208" x="326.5" y="277.449">void updateDate(Offer offer,Calendar date)</text><ellipse cx="317.5" cy="289.124" fill="#84BE84" rx="3" ry="3" style="stroke: #038048; stroke-width: 1.0;"/><text fill="#000000" font-family="sans-serif" font-size="11" font-style="italic" lengthAdjust="spacingAndGlyphs" textLength="168" x="326.5" y="292.2989">void closeTradeOffer(Message m)</text><ellipse cx="317.5" cy="303.9739" fill="#84BE84" rx="3" ry="3" style="stroke: #038048; stroke-width: 1.0;"/><text fill="#000000" font-family="sans-serif" font-size="11" font-style="italic" lengthAdjust="spacingAndGlyphs" textLength="121" x="326.5" y="307.1488">void checkForDueDate()</text></a><!--class it.matlice.ingsw.model.Model--><a target="_parent" xlink:actuate="onRequest" xlink:href="../../../../../../it/matlice/ingsw/model/Model.html" xlink:show="new" xlink:title="it.matlice.ingsw.model.Model" xlink:type="simple"><rect fill="#FFFFFF" filter="url(#f5p5qef)" height="38.7999" style="stroke: #A80036; stroke-width: 1.5;" width="132" x="395" y="8"/><rect fill="#FFFFFF" height="38.7999" style="stroke: #A80036; stroke-width: 1.5;" width="132" x="395" y="8"/><ellipse cx="410" cy="27.4" fill="#ADD1B2" rx="11" ry="11" style="stroke: #A80036; stroke-width: 1.0;"/><path d="M405,28.5562 C405,31.0562 407.1406,32.8687 410.0625,32.8687 C411.2969,32.8687 412.4688,32.5718 413.2188,32.0562 C413.8281,31.6343 414.1563,31.2125 414.1563,30.8062 C414.1563,30.3375 413.7344,29.9312 413.2344,29.9312 C413,29.9312 412.7813,30.0093 412.5781,30.2125 C412.1406,30.65 412.1406,30.65 411.9688,30.7437 C411.5156,30.9781 410.875,31.1187 410.1094,31.1187 C408.1094,31.1187 406.8281,30.1031 406.8281,28.525 L406.8281,27.4781 C406.8281,25.775 408.0469,24.5718 409.75,24.5718 C410.3281,24.5718 410.9063,24.7125 411.375,24.9625 C411.8438,25.2281 412.0156,25.4156 412.0781,25.775 C412.2031,26.4468 412.4531,26.6968 412.9844,26.6968 C413.2656,26.6968 413.5469,26.5562 413.7344,26.3375 C413.8594,26.1656 413.9063,25.9937 413.9063,25.5562 L413.9063,24.1968 C413.9063,23.775 413.8906,23.6343 413.7656,23.4625 C413.5938,23.2125 413.3125,23.0562 412.9844,23.0562 C412.6719,23.0562 412.4688,23.1656 412.25,23.4312 C411.0781,22.9312 410.6406,22.8218 409.6875,22.8218 C407.0156,22.8218 405,24.8375 405,27.4625 L405,28.5562 Z "/><text fill="#000000" font-family="sans-serif" font-size="14" font-weight="bold" lengthAdjust="spacingAndGlyphs" textLength="42" x="453" y="26.0059">Model</text><text fill="#000000" font-family="sans-serif" font-size="10" lengthAdjust="spacingAndGlyphs" textLength="100" x="424" y="39.0899">it.matlice.ingsw.model</text></a><!--class it.matlice.ingsw.model.data.User--><a target="_parent" xlink:actuate="onRequest" xlink:href="../../../../../../it/matlice/ingsw/model/data/User.html" xlink:show="new" xlink:title="it.matlice.ingsw.model.data.User" xlink:type="simple"><rect fill="#FFFFFF" filter="url(#f5p5qef)" height="38.7999" style="stroke: #A80036; stroke-width: 1.5;" width="156" x="6" y="375.5"/><rect fill="#FFFFFF" height="38.7999" style="stroke: #A80036; stroke-width: 1.5;" width="156" x="6" y="375.5"/><ellipse cx="21" cy="394.9" fill="#ADD1B2" rx="11" ry="11" style="stroke: #A80036; stroke-width: 1.0;"/><path d="M16,396.0562 C16,398.5562 18.1406,400.3687 21.0625,400.3687 C22.2969,400.3687 23.4688,400.0718 24.2188,399.5562 C24.8281,399.1343 25.1563,398.7125 25.1563,398.3062 C25.1563,397.8375 24.7344,397.4312 24.2344,397.4312 C24,397.4312 23.7813,397.5093 23.5781,397.7125 C23.1406,398.15 23.1406,398.15 22.9688,398.2437 C22.5156,398.4781 21.875,398.6187 21.1094,398.6187 C19.1094,398.6187 17.8281,397.6031 17.8281,396.025 L17.8281,394.9781 C17.8281,393.275 19.0469,392.0718 20.75,392.0718 C21.3281,392.0718 21.9063,392.2125 22.375,392.4625 C22.8438,392.7281 23.0156,392.9156 23.0781,393.275 C23.2031,393.9468 23.4531,394.1968 23.9844,394.1968 C24.2656,394.1968 24.5469,394.0562 24.7344,393.8375 C24.8594,393.6656 24.9063,393.4937 24.9063,393.0562 L24.9063,391.6968 C24.9063,391.275 24.8906,391.1343 24.7656,390.9625 C24.5938,390.7125 24.3125,390.5562 23.9844,390.5562 C23.6719,390.5562 23.4688,390.6656 23.25,390.9312 C22.0781,390.4312 21.6406,390.3218 20.6875,390.3218 C18.0156,390.3218 16,392.3375 16,394.9625 L16,396.0562 Z "/><text fill="#000000" font-family="sans-serif" font-size="14" font-weight="bold" lengthAdjust="spacingAndGlyphs" textLength="31" x="81.5" y="393.5059">User</text><text fill="#000000" font-family="sans-serif" font-size="10" lengthAdjust="spacingAndGlyphs" textLength="124" x="35" y="406.5899">it.matlice.ingsw.model.data</text></a><!--class it.matlice.ingsw.model.data.LeafCategory--><a target="_parent" xlink:actuate="onRequest" xlink:href="../../../../../../it/matlice/ingsw/model/data/LeafCategory.html" xlink:show="new" xlink:title="it.matlice.ingsw.model.data.LeafCategory" xlink:type="simple"><rect fill="#FFFFFF" filter="url(#f5p5qef)" height="38.7999" style="stroke: #A80036; stroke-width: 1.5;" width="156" x="197" y="375.5"/><rect fill="#FFFFFF" height="38.7999" style="stroke: #A80036; stroke-width: 1.5;" width="156" x="197" y="375.5"/><ellipse cx="212" cy="394.9" fill="#ADD1B2" rx="11" ry="11" style="stroke: #A80036; stroke-width: 1.0;"/><path d="M207,396.0562 C207,398.5562 209.1406,400.3687 212.0625,400.3687 C213.2969,400.3687 214.4688,400.0718 215.2188,399.5562 C215.8281,399.1343 216.1563,398.7125 216.1563,398.3062 C216.1563,397.8375 215.7344,397.4312 215.2344,397.4312 C215,397.4312 214.7813,397.5093 214.5781,397.7125 C214.1406,398.15 214.1406,398.15 213.9688,398.2437 C213.5156,398.4781 212.875,398.6187 212.1094,398.6187 C210.1094,398.6187 208.8281,397.6031 208.8281,396.025 L208.8281,394.9781 C208.8281,393.275 210.0469,392.0718 211.75,392.0718 C212.3281,392.0718 212.9063,392.2125 213.375,392.4625 C213.8438,392.7281 214.0156,392.9156 214.0781,393.275 C214.2031,393.9468 214.4531,394.1968 214.9844,394.1968 C215.2656,394.1968 215.5469,394.0562 215.7344,393.8375 C215.8594,393.6656 215.9063,393.4937 215.9063,393.0562 L215.9063,391.6968 C215.9063,391.275 215.8906,391.1343 215.7656,390.9625 C215.5938,390.7125 215.3125,390.5562 214.9844,390.5562 C214.6719,390.5562 214.4688,390.6656 214.25,390.9312 C213.0781,390.4312 212.6406,390.3218 211.6875,390.3218 C209.0156,390.3218 207,392.3375 207,394.9625 L207,396.0562 Z "/><text fill="#000000" font-family="sans-serif" font-size="14" font-weight="bold" lengthAdjust="spacingAndGlyphs" textLength="92" x="242" y="393.5059">LeafCategory</text><text fill="#000000" font-family="sans-serif" font-size="10" lengthAdjust="spacingAndGlyphs" textLength="124" x="226" y="406.5899">it.matlice.ingsw.model.data</text></a><!--class it.matlice.ingsw.model.data.Offer--><a target="_parent" xlink:actuate="onRequest" xlink:href="../../../../../../it/matlice/ingsw/model/data/Offer.html" xlink:show="new" xlink:title="it.matlice.ingsw.model.data.Offer" xlink:type="simple"><rect fill="#FFFFFF" filter="url(#f5p5qef)" height="38.7999" style="stroke: #A80036; stroke-width: 1.5;" width="156" x="388" y="375.5"/><rect fill="#FFFFFF" height="38.7999" style="stroke: #A80036; stroke-width: 1.5;" width="156" x="388" y="375.5"/><ellipse cx="403" cy="394.9" fill="#ADD1B2" rx="11" ry="11" style="stroke: #A80036; stroke-width: 1.0;"/><path d="M398,396.0562 C398,398.5562 400.1406,400.3687 403.0625,400.3687 C404.2969,400.3687 405.4688,400.0718 406.2188,399.5562 C406.8281,399.1343 407.1563,398.7125 407.1563,398.3062 C407.1563,397.8375 406.7344,397.4312 406.2344,397.4312 C406,397.4312 405.7813,397.5093 405.5781,397.7125 C405.1406,398.15 405.1406,398.15 404.9688,398.2437 C404.5156,398.4781 403.875,398.6187 403.1094,398.6187 C401.1094,398.6187 399.8281,397.6031 399.8281,396.025 L399.8281,394.9781 C399.8281,393.275 401.0469,392.0718 402.75,392.0718 C403.3281,392.0718 403.9063,392.2125 404.375,392.4625 C404.8438,392.7281 405.0156,392.9156 405.0781,393.275 C405.2031,393.9468 405.4531,394.1968 405.9844,394.1968 C406.2656,394.1968 406.5469,394.0562 406.7344,393.8375 C406.8594,393.6656 406.9063,393.4937 406.9063,393.0562 L406.9063,391.6968 C406.9063,391.275 406.8906,391.1343 406.7656,390.9625 C406.5938,390.7125 406.3125,390.5562 405.9844,390.5562 C405.6719,390.5562 405.4688,390.6656 405.25,390.9312 C404.0781,390.4312 403.6406,390.3218 402.6875,390.3218 C400.0156,390.3218 398,392.3375 398,394.9625 L398,396.0562 Z "/><text fill="#000000" font-family="sans-serif" font-size="14" font-weight="bold" lengthAdjust="spacingAndGlyphs" textLength="34" x="462" y="393.5059">Offer</text><text fill="#000000" font-family="sans-serif" font-size="10" lengthAdjust="spacingAndGlyphs" textLength="124" x="417" y="406.5899">it.matlice.ingsw.model.data</text></a><!--class it.matlice.ingsw.model.data.Offer.OfferStatus--><a target="_parent" xlink:actuate="onRequest" xlink:href="../../../../../../it/matlice/ingsw/model/data/Offer.OfferStatus.html" xlink:show="new" xlink:title="it.matlice.ingsw.model.data.Offer.OfferStatus" xlink:type="simple"><rect fill="#FFFFFF" filter="url(#f5p5qef)" height="38.7999" style="stroke: #A80036; stroke-width: 1.5;" width="156" x="579" y="375.5"/><rect fill="#FFFFFF" height="38.7999" style="stroke: #A80036; stroke-width: 1.5;" width="156" x="579" y="375.5"/><ellipse cx="594" cy="394.9" fill="#EB937F" rx="11" ry="11" style="stroke: #A80036; stroke-width: 1.0;"/><path d="M592.8594,395.9625 L594.1719,395.9625 L594.1719,396.0093 C594.1719,396.4156 594.1875,396.5718 594.2969,396.7281 C594.4688,396.9781 594.7656,397.15 595.0781,397.15 C595.3594,397.15 595.6563,397.0093 595.8281,396.7906 C595.9531,396.6031 596,396.4625 596,396.0093 L596,394.1656 C596,393.8375 595.9844,393.7281 595.9219,393.5562 C595.8125,393.2593 595.4531,393.0093 595.0781,393.0093 C594.7813,393.0093 594.5156,393.15 594.3438,393.3687 C594.2031,393.5562 594.1719,393.7281 594.1719,394.1656 L594.1719,394.2281 L592.8594,394.2281 L592.8594,392.0562 L596.7031,392.0562 L596.7031,392.8062 C596.7031,393.1968 596.7344,393.3843 596.8438,393.5406 C597.0156,393.7906 597.3125,393.9625 597.625,393.9625 C597.9219,393.9625 598.1875,393.8375 598.375,393.6031 C598.5156,393.4156 598.5469,393.275 598.5469,392.8062 L598.5469,390.3062 L590.8438,390.3062 C590.3906,390.3062 590.2656,390.3218 590.0938,390.4312 C589.8281,390.6031 589.6563,390.8687 589.6563,391.1812 C589.6563,391.4625 589.7813,391.7281 590.0313,391.9 C590.2188,392.025 590.4063,392.0562 590.8438,392.0562 L591.0313,392.0562 L591.0313,398.15 L590.8438,398.15 C590.4219,398.15 590.2656,398.1812 590.0938,398.275 C589.8281,398.4312 589.6563,398.7125 589.6563,399.0093 C589.6563,399.5875 590.0625,399.9 590.8438,399.9 L598.9219,399.9 L598.9219,397.3687 C598.9219,396.9625 598.8906,396.7906 598.7813,396.6343 C598.6094,396.3687 598.3281,396.2125 598,396.2125 C597.7188,396.2125 597.4375,396.3531 597.25,396.5718 C597.1094,396.7593 597.0781,396.9156 597.0781,397.3687 L597.0781,398.15 L592.8594,398.15 L592.8594,395.9625 Z "/><text fill="#000000" font-family="sans-serif" font-size="14" font-weight="bold" lengthAdjust="spacingAndGlyphs" textLength="116" x="612" y="393.5059">Offer.OfferStatus</text><text fill="#000000" font-family="sans-serif" font-size="10" lengthAdjust="spacingAndGlyphs" textLength="124" x="608" y="406.5899">it.matlice.ingsw.model.data</text></a><!--class it.matlice.ingsw.model.data.factories.MessageFactory--><a target="_parent" xlink:actuate="onRequest" xlink:href="../../../../../../it/matlice/ingsw/model/data/factories/MessageFactory.html" xlink:show="new" xlink:title="it.matlice.ingsw.model.data.factories.MessageFactory" xlink:type="simple"><rect fill="#FEFECE" filter="url(#f5p5qef)" height="42.3999" style="stroke: #A80036; stroke-width: 1.5;" width="198" x="770" y="374"/><ellipse cx="785" cy="395.2" fill="#B4A7E5" rx="11" ry="11" style="stroke: #A80036; stroke-width: 1.0;"/><path d="M786.0156,392.3562 L787.6719,392.3562 C788.0625,392.3562 788.2656,392.325 788.4219,392.2468 C788.6875,392.075 788.8594,391.7781 788.8594,391.4812 C788.8594,391.2 788.7188,390.95 788.4844,390.7781 C788.2969,390.6531 788.1406,390.6062 787.6719,390.6062 L782.5313,390.6062 C782.0938,390.6062 781.9531,390.6218 781.7813,390.7312 C781.5156,390.9031 781.3438,391.1843 781.3438,391.4812 C781.3438,391.7625 781.4844,392.0437 781.7188,392.2 C781.9063,392.325 782.0938,392.3562 782.5313,392.3562 L784.1875,392.3562 L784.1875,398.45 L782.5313,398.45 C782.0938,398.45 781.9531,398.4656 781.7813,398.575 C781.5156,398.7312 781.3438,399.0281 781.3438,399.3093 C781.3438,399.9187 781.75,400.2 782.5313,400.2 L787.6719,400.2 C788.4531,400.2 788.8594,399.9187 788.8594,399.3093 C788.8594,399.0437 788.7188,398.7937 788.4844,398.6218 C788.2969,398.4812 788.125,398.45 787.6719,398.45 L786.0156,398.45 L786.0156,392.3562 Z "/><text fill="#000000" font-family="sans-serif" font-size="14" font-style="italic" font-weight="bold" lengthAdjust="spacingAndGlyphs" textLength="113" x="825.5" y="394.3999">MessageFactory</text><text fill="#000000" font-family="sans-serif" font-size="10" font-style="italic" lengthAdjust="spacingAndGlyphs" textLength="166" x="799" y="408.8999">it.matlice.ingsw.model.data.factories</text></a><!--class it.matlice.ingsw.model.data.Message--><a target="_parent" xlink:actuate="onRequest" xlink:href="../../../../../../it/matlice/ingsw/model/data/Message.html" xlink:show="new" xlink:title="it.matlice.ingsw.model.data.Message" xlink:type="simple"><rect fill="#FFFFFF" filter="url(#f5p5qef)" height="38.7999" style="stroke: #A80036; stroke-width: 1.5;" width="156" x="1003" y="375.5"/><rect fill="#FFFFFF" height="38.7999" style="stroke: #A80036; stroke-width: 1.5;" width="156" x="1003" y="375.5"/><ellipse cx="1018" cy="394.9" fill="#ADD1B2" rx="11" ry="11" style="stroke: #A80036; stroke-width: 1.0;"/><path d="M1013,396.0562 C1013,398.5562 1015.1406,400.3687 1018.0625,400.3687 C1019.2969,400.3687 1020.4688,400.0718 1021.2188,399.5562 C1021.8281,399.1343 1022.1563,398.7125 1022.1563,398.3062 C1022.1563,397.8375 1021.7344,397.4312 1021.2344,397.4312 C1021,397.4312 1020.7813,397.5093 1020.5781,397.7125 C1020.1406,398.15 1020.1406,398.15 1019.9688,398.2437 C1019.5156,398.4781 1018.875,398.6187 1018.1094,398.6187 C1016.1094,398.6187 1014.8281,397.6031 1014.8281,396.025 L1014.8281,394.9781 C1014.8281,393.275 1016.0469,392.0718 1017.75,392.0718 C1018.3281,392.0718 1018.9063,392.2125 1019.375,392.4625 C1019.8438,392.7281 1020.0156,392.9156 1020.0781,393.275 C1020.2031,393.9468 1020.4531,394.1968 1020.9844,394.1968 C1021.2656,394.1968 1021.5469,394.0562 1021.7344,393.8375 C1021.8594,393.6656 1021.9063,393.4937 1021.9063,393.0562 L1021.9063,391.6968 C1021.9063,391.275 1021.8906,391.1343 1021.7656,390.9625 C1021.5938,390.7125 1021.3125,390.5562 1020.9844,390.5562 C1020.6719,390.5562 1020.4688,390.6656 1020.25,390.9312 C1019.0781,390.4312 1018.6406,390.3218 1017.6875,390.3218 C1015.0156,390.3218 1013,392.3375 1013,394.9625 L1013,396.0562 Z "/><text fill="#000000" font-family="sans-serif" font-size="14" font-weight="bold" lengthAdjust="spacingAndGlyphs" textLength="61" x="1063.5" y="393.5059">Message</text><text fill="#000000" font-family="sans-serif" font-size="10" lengthAdjust="spacingAndGlyphs" textLength="124" x="1032" y="406.5899">it.matlice.ingsw.model.data</text></a><!--class it.matlice.ingsw.model.data.impl.jdbc.OfferFactoryImpl--><a target="_parent" xlink:actuate="onRequest" xlink:href="../../../../../../it/matlice/ingsw/model/data/impl/jdbc/OfferFactoryImpl.html" xlink:show="new" xlink:title="it.matlice.ingsw.model.data.impl.jdbc.OfferFactoryImpl" xlink:type="simple"><rect fill="#FFFFFF" filter="url(#f5p5qef)" height="38.7999" style="stroke: #A80036; stroke-width: 1.5;" width="199" x="562.5" y="8"/><rect fill="#FFFFFF" height="38.7999" style="stroke: #A80036; stroke-width: 1.5;" width="199" x="562.5" y="8"/><ellipse cx="577.5" cy="27.4" fill="#ADD1B2" rx="11" ry="11" style="stroke: #A80036; stroke-width: 1.0;"/><path d="M572.5,28.5562 C572.5,31.0562 574.6406,32.8687 577.5625,32.8687 C578.7969,32.8687 579.9688,32.5718 580.7188,32.0562 C581.3281,31.6343 581.6563,31.2125 581.6563,30.8062 C581.6563,30.3375 581.2344,29.9312 580.7344,29.9312 C580.5,29.9312 580.2813,30.0093 580.0781,30.2125 C579.6406,30.65 579.6406,30.65 579.4688,30.7437 C579.0156,30.9781 578.375,31.1187 577.6094,31.1187 C575.6094,31.1187 574.3281,30.1031 574.3281,28.525 L574.3281,27.4781 C574.3281,25.775 575.5469,24.5718 577.25,24.5718 C577.8281,24.5718 578.4063,24.7125 578.875,24.9625 C579.3438,25.2281 579.5156,25.4156 579.5781,25.775 C579.7031,26.4468 579.9531,26.6968 580.4844,26.6968 C580.7656,26.6968 581.0469,26.5562 581.2344,26.3375 C581.3594,26.1656 581.4063,25.9937 581.4063,25.5562 L581.4063,24.1968 C581.4063,23.775 581.3906,23.6343 581.2656,23.4625 C581.0938,23.2125 580.8125,23.0562 580.4844,23.0562 C580.1719,23.0562 579.9688,23.1656 579.75,23.4312 C578.5781,22.9312 578.1406,22.8218 577.1875,22.8218 C574.5156,22.8218 572.5,24.8375 572.5,27.4625 L572.5,28.5562 Z "/><text fill="#000000" font-family="sans-serif" font-size="14" font-weight="bold" lengthAdjust="spacingAndGlyphs" textLength="115" x="617.5" y="26.0059">OfferFactoryImpl</text><text fill="#000000" font-family="sans-serif" font-size="10" lengthAdjust="spacingAndGlyphs" textLength="167" x="591.5" y="39.0899">it.matlice.ingsw.model.data.impl.jdbc</text></a><path d="M461,47.08 C461,47.08 461,101.75 461,101.75 " fill="none" style="stroke: #A80036; stroke-width: 1.0;"/><polygon fill="#A80036" points="461,106.75,465,97.75,461,101.75,457,97.75,461,106.75" style="stroke: #A80036; stroke-width: 1.0;"/><text fill="#000000" font-family="sans-serif" font-size="13" lengthAdjust="spacingAndGlyphs" textLength="11" x="441.9227" y="95.3363">of</text><path d="M306.44,211 C192.78,211 84,211 84,211 C84,211 84,370.31 84,370.31 " fill="none" style="stroke: #A80036; stroke-width: 1.0; stroke-dasharray: 7.0,7.0;"/><polygon fill="#A80036" points="84,375.31,88,366.31,84,370.31,80,366.31,84,375.31" style="stroke: #A80036; stroke-width: 1.0;"/><path d="M329.75,314.08 C329.75,314.08 329.75,370.35 329.75,370.35 " fill="none" style="stroke: #A80036; stroke-width: 1.0; stroke-dasharray: 7.0,7.0;"/><polygon fill="#A80036" points="329.75,375.35,333.75,366.35,329.75,370.35,325.75,366.35,329.75,375.35" style="stroke: #A80036; stroke-width: 1.0;"/><path d="M466,314.08 C466,314.08 466,370.35 466,370.35 " fill="none" style="stroke: #A80036; stroke-width: 1.0; stroke-dasharray: 7.0,7.0;"/><polygon fill="#A80036" points="466,375.35,470,366.35,466,370.35,462,366.35,466,375.35" style="stroke: #A80036; stroke-width: 1.0;"/><path d="M657,314.08 C657,314.08 657,370.35 657,370.35 " fill="none" style="stroke: #A80036; stroke-width: 1.0; stroke-dasharray: 7.0,7.0;"/><polygon fill="#A80036" points="657,375.35,661,366.35,657,370.35,653,366.35,657,375.35" style="stroke: #A80036; stroke-width: 1.0;"/><path d="M792.75,314.08 C792.75,314.08 792.75,368.72 792.75,368.72 " fill="none" style="stroke: #A80036; stroke-width: 1.0; stroke-dasharray: 7.0,7.0;"/><polygon fill="#A80036" points="792.75,373.72,796.75,364.72,792.75,368.72,788.75,364.72,792.75,373.72" style="stroke: #A80036; stroke-width: 1.0;"/><path d="M815.67,211 C947.42,211 1081,211 1081,211 C1081,211 1081,370.31 1081,370.31 " fill="none" style="stroke: #A80036; stroke-width: 1.0; stroke-dasharray: 7.0,7.0;"/><polygon fill="#A80036" points="1081,375.31,1085,366.31,1081,370.31,1077,366.31,1081,375.31" style="stroke: #A80036; stroke-width: 1.0;"/><path d="M662,47.08 C662,47.08 662,86.75 662,86.75 " fill="none" style="stroke: #A80036; stroke-width: 1.0; stroke-dasharray: 7.0,7.0;"/><polygon fill="none" points="669,86.75,662,106.75,655,86.75,669,86.75" style="stroke: #A80036; stroke-width: 1.0;"/></g></svg>