<?xml version="1.0" encoding="UTF-8" standalone="no"?><svg xmlns="http://www.w3.org/2000/svg" xmlns:xlink="http://www.w3.org/1999/xlink" contentScriptType="application/ecmascript" contentStyleType="text/css" height="206px" preserveAspectRatio="none" style="width:572px;height:206px;" version="1.1" viewBox="0 0 572 206" width="572px" zoomAndPan="magnify"><defs><filter height="300%" id="f55dtil" width="300%" x="-1" y="-1"><feGaussianBlur result="blurOut" stdDeviation="2.0"/><feColorMatrix in="blurOut" result="blurOut2" type="matrix" values="0 0 0 0 0 0 0 0 0 0 0 0 0 0 0 0 0 0 .4 0"/><feOffset dx="4.0" dy="4.0" in="blurOut2" result="blurOut3"/><feBlend in="SourceGraphic" in2="blurOut3" mode="normal"/></filter></defs><g><!--cluster it.matlice.ingsw.model.data.factories--><a target="_parent" xlink:actuate="onRequest" xlink:href="../../../../../../it/matlice/ingsw/model/data/factories/package-summary.html" xlink:show="new" xlink:title="it.matlice.ingsw.model.data.factories" xlink:type="simple"><polygon fill="#FFFFE0" filter="url(#f55dtil)" points="22,24,279,24,286,46.7999,565,46.7999,565,199,22,199,22,24" style="stroke: #000000; stroke-width: 2.0;"/><line style="stroke: #000000; stroke-width: 2.0;" x1="22" x2="286" y1="46.7999" y2="46.7999"/><text fill="#000000" font-family="sans-serif" font-size="14" font-weight="bold" lengthAdjust="spacingAndGlyphs" textLength="251" x="26" y="39.0059">it.matlice.ingsw.model.data.factories</text></a><!--class it.matlice.ingsw.model.data.factories.UserFactory--><a target="_parent" xlink:actuate="onRequest" xlink:href="../../../../../../it/matlice/ingsw/model/data/factories/UserFactory.html" xlink:show="new" xlink:title="it.matlice.ingsw.model.data.factories.UserFactory" xlink:type="simple"><rect fill="#FEFECE" filter="url(#f55dtil)" height="32" style="stroke: #A80036; stroke-width: 1.5;" width="115" x="235.5" y="59"/><ellipse cx="250.5" cy="75" fill="#B4A7E5" rx="11" ry="11" style="stroke: #A80036; stroke-width: 1.0;"/><path d="M251.5156,72.1563 L253.1719,72.1563 C253.5625,72.1563 253.7656,72.125 253.9219,72.0469 C254.1875,71.875 254.3594,71.5781 254.3594,71.2813 C254.3594,71 254.2188,70.75 253.9844,70.5781 C253.7969,70.4531 253.6406,70.4063 253.1719,70.4063 L248.0313,70.4063 C247.5938,70.4063 247.4531,70.4219 247.2813,70.5313 C247.0156,70.7031 246.8438,70.9844 246.8438,71.2813 C246.8438,71.5625 246.9844,71.8438 247.2188,72 C247.4063,72.125 247.5938,72.1563 248.0313,72.1563 L249.6875,72.1563 L249.6875,78.25 L248.0313,78.25 C247.5938,78.25 247.4531,78.2656 247.2813,78.375 C247.0156,78.5313 246.8438,78.8281 246.8438,79.1094 C246.8438,79.7188 247.25,80 248.0313,80 L253.1719,80 C253.9531,80 254.3594,79.7188 254.3594,79.1094 C254.3594,78.8438 254.2188,78.5938 253.9844,78.4219 C253.7969,78.2813 253.625,78.25 253.1719,78.25 L251.5156,78.25 L251.5156,72.1563 Z "/><text fill="#000000" font-family="sans-serif" font-size="14" font-style="italic" font-weight="bold" lengthAdjust="spacingAndGlyphs" textLength="83" x="264.5" y="80.95">UserFactory</text></a><!--class it.matlice.ingsw.model.data.factories.SettingsFactory--><a target="_parent" xlink:actuate="onRequest" xlink:href="../../../../../../it/matlice/ingsw/model/data/factories/SettingsFactory.html" xlink:show="new" xlink:title="it.matlice.ingsw.model.data.factories.SettingsFactory" xlink:type="simple"><rect fill="#FEFECE" filter="url(#f55dtil)" height="32" style="stroke: #A80036; stroke-width: 1.5;" width="141" x="385.5" y="59"/><ellipse cx="400.5" cy="75" fill="#B4A7E5" rx="11" ry="11" style="stroke: #A80036; stroke-width: 1.0;"/><path d="M401.5156,72.1563 L403.1719,72.1563 C403.5625,72.1563 403.7656,72.125 403.9219,72.0469 C404.1875,71.875 404.3594,71.5781 404.3594,71.2813 C404.3594,71 404.2188,70.75 403.9844,70.5781 C403.7969,70.4531 403.6406,70.4063 403.1719,70.4063 L398.0313,70.4063 C397.5938,70.4063 397.4531,70.4219 397.2813,70.5313 C397.0156,70.7031 396.8438,70.9844 396.8438,71.2813 C396.8438,71.5625 396.9844,71.8438 397.2188,72 C397.4063,72.125 397.5938,72.1563 398.0313,72.1563 L399.6875,72.1563 L399.6875,78.25 L398.0313,78.25 C397.5938,78.25 397.4531,78.2656 397.2813,78.375 C397.0156,78.5313 396.8438,78.8281 396.8438,79.1094 C396.8438,79.7188 397.25,80 398.0313,80 L403.1719,80 C403.9531,80 404.3594,79.7188 404.3594,79.1094 C404.3594,78.8438 404.2188,78.5938 403.9844,78.4219 C403.7969,78.2813 403.625,78.25 403.1719,78.25 L401.5156,78.25 L401.5156,72.1563 Z "/><text fill="#000000" font-family="sans-serif" font-size="14" font-style="italic" font-weight="bold" lengthAdjust="spacingAndGlyphs" textLength="109" x="414.5" y="80.95">SettingsFactory</text></a><!--class it.matlice.ingsw.model.data.factories.OfferFactory--><a target="_parent" xlink:actuate="onRequest" xlink:href="../../../../../../it/matlice/ingsw/model/data/factories/OfferFactory.html" xlink:show="new" xlink:title="it.matlice.ingsw.model.data.factories.OfferFactory" xlink:type="simple"><rect fill="#FEFECE" filter="url(#f55dtil)" height="32" style="stroke: #A80036; stroke-width: 1.5;" width="118" x="52" y="59"/><ellipse cx="67" cy="75" fill="#B4A7E5" rx="11" ry="11" style="stroke: #A80036; stroke-width: 1.0;"/><path d="M68.0156,72.1563 L69.6719,72.1563 C70.0625,72.1563 70.2656,72.125 70.4219,72.0469 C70.6875,71.875 70.8594,71.5781 70.8594,71.2813 C70.8594,71 70.7188,70.75 70.4844,70.5781 C70.2969,70.4531 70.1406,70.4063 69.6719,70.4063 L64.5313,70.4063 C64.0938,70.4063 63.9531,70.4219 63.7813,70.5313 C63.5156,70.7031 63.3438,70.9844 63.3438,71.2813 C63.3438,71.5625 63.4844,71.8438 63.7188,72 C63.9063,72.125 64.0938,72.1563 64.5313,72.1563 L66.1875,72.1563 L66.1875,78.25 L64.5313,78.25 C64.0938,78.25 63.9531,78.2656 63.7813,78.375 C63.5156,78.5313 63.3438,78.8281 63.3438,79.1094 C63.3438,79.7188 63.75,80 64.5313,80 L69.6719,80 C70.4531,80 70.8594,79.7188 70.8594,79.1094 C70.8594,78.8438 70.7188,78.5938 70.4844,78.4219 C70.2969,78.2813 70.125,78.25 69.6719,78.25 L68.0156,78.25 L68.0156,72.1563 Z "/><text fill="#000000" font-family="sans-serif" font-size="14" font-style="italic" font-weight="bold" lengthAdjust="spacingAndGlyphs" textLength="86" x="81" y="80.95">OfferFactory</text></a><!--class it.matlice.ingsw.model.data.factories.MessageFactory--><a target="_parent" xlink:actuate="onRequest" xlink:href="../../../../../../it/matlice/ingsw/model/data/factories/MessageFactory.html" xlink:show="new" xlink:title="it.matlice.ingsw.model.data.factories.MessageFactory" xlink:type="simple"><rect fill="#FEFECE" filter="url(#f55dtil)" height="32" style="stroke: #A80036; stroke-width: 1.5;" width="145" x="38.5" y="151"/><ellipse cx="53.5" cy="167" fill="#B4A7E5" rx="11" ry="11" style="stroke: #A80036; stroke-width: 1.0;"/><path d="M54.5156,164.1563 L56.1719,164.1563 C56.5625,164.1563 56.7656,164.125 56.9219,164.0469 C57.1875,163.875 57.3594,163.5781 57.3594,163.2813 C57.3594,163 57.2188,162.75 56.9844,162.5781 C56.7969,162.4531 56.6406,162.4063 56.1719,162.4063 L51.0313,162.4063 C50.5938,162.4063 50.4531,162.4219 50.2813,162.5313 C50.0156,162.7031 49.8438,162.9844 49.8438,163.2813 C49.8438,163.5625 49.9844,163.8438 50.2188,164 C50.4063,164.125 50.5938,164.1563 51.0313,164.1563 L52.6875,164.1563 L52.6875,170.25 L51.0313,170.25 C50.5938,170.25 50.4531,170.2656 50.2813,170.375 C50.0156,170.5313 49.8438,170.8281 49.8438,171.1094 C49.8438,171.7188 50.25,172 51.0313,172 L56.1719,172 C56.9531,172 57.3594,171.7188 57.3594,171.1094 C57.3594,170.8438 57.2188,170.5938 56.9844,170.4219 C56.7969,170.2813 56.625,170.25 56.1719,170.25 L54.5156,170.25 L54.5156,164.1563 Z "/><text fill="#000000" font-family="sans-serif" font-size="14" font-style="italic" font-weight="bold" lengthAdjust="spacingAndGlyphs" textLength="113" x="67.5" y="172.95">MessageFactory</text></a><!--class it.matlice.ingsw.model.data.factories.HierarchyFactory--><a target="_parent" xlink:actuate="onRequest" xlink:href="../../../../../../it/matlice/ingsw/model/data/factories/HierarchyFactory.html" xlink:show="new" xlink:title="it.matlice.ingsw.model.data.factories.HierarchyFactory" xlink:type="simple"><rect fill="#FEFECE" filter="url(#f55dtil)" height="32" style="stroke: #A80036; stroke-width: 1.5;" width="149" x="218.5" y="151"/><ellipse cx="233.5" cy="167" fill="#B4A7E5" rx="11" ry="11" style="stroke: #A80036; stroke-width: 1.0;"/><path d="M234.5156,164.1563 L236.1719,164.1563 C236.5625,164.1563 236.7656,164.125 236.9219,164.0469 C237.1875,163.875 237.3594,163.5781 237.3594,163.2813 C237.3594,163 237.2188,162.75 236.9844,162.5781 C236.7969,162.4531 236.6406,162.4063 236.1719,162.4063 L231.0313,162.4063 C230.5938,162.4063 230.4531,162.4219 230.2813,162.5313 C230.0156,162.7031 229.8438,162.9844 229.8438,163.2813 C229.8438,163.5625 229.9844,163.8438 230.2188,164 C230.4063,164.125 230.5938,164.1563 231.0313,164.1563 L232.6875,164.1563 L232.6875,170.25 L231.0313,170.25 C230.5938,170.25 230.4531,170.2656 230.2813,170.375 C230.0156,170.5313 229.8438,170.8281 229.8438,171.1094 C229.8438,171.7188 230.25,172 231.0313,172 L236.1719,172 C236.9531,172 237.3594,171.7188 237.3594,171.1094 C237.3594,170.8438 237.2188,170.5938 236.9844,170.4219 C236.7969,170.2813 236.625,170.25 236.1719,170.25 L234.5156,170.25 L234.5156,164.1563 Z "/><text fill="#000000" font-family="sans-serif" font-size="14" font-style="italic" font-weight="bold" lengthAdjust="spacingAndGlyphs" textLength="117" x="247.5" y="172.95">HierarchyFactory</text></a><!--class it.matlice.ingsw.model.data.factories.CategoryFactory--><a target="_parent" xlink:actuate="onRequest" xlink:href="../../../../../../it/matlice/ingsw/model/data/factories/CategoryFactory.html" xlink:show="new" xlink:title="it.matlice.ingsw.model.data.factories.CategoryFactory" xlink:type="simple"><rect fill="#FEFECE" filter="url(#f55dtil)" height="32" style="stroke: #A80036; stroke-width: 1.5;" width="146" x="403" y="151"/><ellipse cx="418" cy="167" fill="#B4A7E5" rx="11" ry="11" style="stroke: #A80036; stroke-width: 1.0;"/><path d="M419.0156,164.1563 L420.6719,164.1563 C421.0625,164.1563 421.2656,164.125 421.4219,164.0469 C421.6875,163.875 421.8594,163.5781 421.8594,163.2813 C421.8594,163 421.7188,162.75 421.4844,162.5781 C421.2969,162.4531 421.1406,162.4063 420.6719,162.4063 L415.5313,162.4063 C415.0938,162.4063 414.9531,162.4219 414.7813,162.5313 C414.5156,162.7031 414.3438,162.9844 414.3438,163.2813 C414.3438,163.5625 414.4844,163.8438 414.7188,164 C414.9063,164.125 415.0938,164.1563 415.5313,164.1563 L417.1875,164.1563 L417.1875,170.25 L415.5313,170.25 C415.0938,170.25 414.9531,170.2656 414.7813,170.375 C414.5156,170.5313 414.3438,170.8281 414.3438,171.1094 C414.3438,171.7188 414.75,172 415.5313,172 L420.6719,172 C421.4531,172 421.8594,171.7188 421.8594,171.1094 C421.8594,170.8438 421.7188,170.5938 421.4844,170.4219 C421.2969,170.2813 421.125,170.25 420.6719,170.25 L419.0156,170.25 L419.0156,164.1563 Z "/><text fill="#000000" font-family="sans-serif" font-size="14" font-style="italic" font-weight="bold" lengthAdjust="spacingAndGlyphs" textLength="114" x="432" y="172.95">CategoryFactory</text></a><path d="M111,91.03 C111,91.03 111,145.85 111,145.85 " fill="none" style="stroke: #A80036; stroke-width: 1.0; stroke-dasharray: 7.0,7.0;"/><polygon fill="#A80036" points="111,150.85,115,141.85,111,145.85,107,141.85,111,150.85" style="stroke: #A80036; stroke-width: 1.0;"/></g></svg>