<?xml version="1.0" encoding="UTF-8" standalone="no"?><svg xmlns="http://www.w3.org/2000/svg" xmlns:xlink="http://www.w3.org/1999/xlink" contentScriptType="application/ecmascript" contentStyleType="text/css" height="406px" preserveAspectRatio="none" style="width:617px;height:406px;" version="1.1" viewBox="0 0 617 406" width="617px" zoomAndPan="magnify"><defs><filter height="300%" id="fq8s2qh" width="300%" x="-1" y="-1"><feGaussianBlur result="blurOut" stdDeviation="2.0"/><feColorMatrix in="blurOut" result="blurOut2" type="matrix" values="0 0 0 0 0 0 0 0 0 0 0 0 0 0 0 0 0 0 .4 0"/><feOffset dx="4.0" dy="4.0" in="blurOut2" result="blurOut3"/><feBlend in="SourceGraphic" in2="blurOut3" mode="normal"/></filter></defs><g><!--class it.matlice.ingsw.model.data.factories.SettingsFactory--><a target="_parent" xlink:actuate="onRequest" xlink:href="../../../../../../it/matlice/ingsw/model/data/factories/SettingsFactory.html" xlink:show="new" xlink:title="it.matlice.ingsw.model.data.factories.SettingsFactory" xlink:type="simple"><rect fill="#FEFECE" filter="url(#fq8s2qh)" height="192.0489" style="stroke: #A80036; stroke-width: 1.5;" width="522" x="14" y="107"/><ellipse cx="187.75" cy="128.2" fill="#B4A7E5" rx="11" ry="11" style="stroke: #A80036; stroke-width: 1.0;"/><path d="M188.7656,125.3562 L190.4219,125.3562 C190.8125,125.3562 191.0156,125.325 191.1719,125.2468 C191.4375,125.075 191.6094,124.7781 191.6094,124.4812 C191.6094,124.2 191.4688,123.95 191.2344,123.7781 C191.0469,123.6531 190.8906,123.6062 190.4219,123.6062 L185.2813,123.6062 C184.8438,123.6062 184.7031,123.6218 184.5313,123.7312 C184.2656,123.9031 184.0938,124.1843 184.0938,124.4812 C184.0938,124.7625 184.2344,125.0437 184.4688,125.2 C184.6563,125.325 184.8438,125.3562 185.2813,125.3562 L186.9375,125.3562 L186.9375,131.45 L185.2813,131.45 C184.8438,131.45 184.7031,131.4656 184.5313,131.575 C184.2656,131.7312 184.0938,132.0281 184.0938,132.3093 C184.0938,132.9187 184.5,133.2 185.2813,133.2 L190.4219,133.2 C191.2031,133.2 191.6094,132.9187 191.6094,132.3093 C191.6094,132.0437 191.4688,131.7937 191.2344,131.6218 C191.0469,131.4812 190.875,131.45 190.4219,131.45 L188.7656,131.45 L188.7656,125.3562 Z "/><text fill="#000000" font-family="sans-serif" font-size="14" font-style="italic" font-weight="bold" lengthAdjust="spacingAndGlyphs" textLength="109" x="236.75" y="127.3999">SettingsFactory</text><text fill="#000000" font-family="sans-serif" font-size="10" font-style="italic" lengthAdjust="spacingAndGlyphs" textLength="166" x="208.25" y="141.8999">it.matlice.ingsw.model.data.factories</text><line style="stroke: #A80036; stroke-width: 1.5;" x1="15" x2="535" y1="149.3999" y2="149.3999"/><line style="stroke: #A80036; stroke-width: 1.5;" x1="15" x2="535" y1="157.3999" y2="157.3999"/><ellipse cx="25" cy="170.3248" fill="#84BE84" rx="3" ry="3" style="stroke: #038048; stroke-width: 1.0;"/><text fill="#000000" font-family="sans-serif" font-size="11" font-style="italic" lengthAdjust="spacingAndGlyphs" textLength="111" x="34" y="173.4998">Settings readSettings()</text><ellipse cx="25" cy="185.1747" fill="#84BE84" rx="3" ry="3" style="stroke: #038048; stroke-width: 1.0;"/><text fill="#000000" font-family="sans-serif" font-size="11" font-style="italic" lengthAdjust="spacingAndGlyphs" textLength="496" x="34" y="188.3497">Settings makeSettings(String city,int due,List&lt;String&gt; locations,List&lt;Day&gt; days,List&lt;Interval&gt; intervals)</text><ellipse cx="25" cy="200.0246" fill="#84BE84" rx="3" ry="3" style="stroke: #038048; stroke-width: 1.0;"/><text fill="#000000" font-family="sans-serif" font-size="11" font-style="italic" lengthAdjust="spacingAndGlyphs" textLength="155" x="34" y="203.1996">void setDue(Settings db,int due)</text><ellipse cx="25" cy="214.8745" fill="#84BE84" rx="3" ry="3" style="stroke: #038048; stroke-width: 1.0;"/><text fill="#000000" font-family="sans-serif" font-size="11" font-style="italic" lengthAdjust="spacingAndGlyphs" textLength="180" x="34" y="218.0495">void addLocation(Settings db,String l)</text><ellipse cx="25" cy="229.7244" fill="#84BE84" rx="3" ry="3" style="stroke: #038048; stroke-width: 1.0;"/><text fill="#000000" font-family="sans-serif" font-size="11" font-style="italic" lengthAdjust="spacingAndGlyphs" textLength="197" x="34" y="232.8994">void addDay(Settings db,Settings.Day d)</text><ellipse cx="25" cy="244.5743" fill="#84BE84" rx="3" ry="3" style="stroke: #038048; stroke-width: 1.0;"/><text fill="#000000" font-family="sans-serif" font-size="11" font-style="italic" lengthAdjust="spacingAndGlyphs" textLength="183" x="34" y="247.7493">void addInterval(Settings db,Interval i)</text><ellipse cx="25" cy="259.4242" fill="#84BE84" rx="3" ry="3" style="stroke: #038048; stroke-width: 1.0;"/><text fill="#000000" font-family="sans-serif" font-size="11" font-style="italic" lengthAdjust="spacingAndGlyphs" textLength="169" x="34" y="262.5992">void removeLocations(Settings db)</text><ellipse cx="25" cy="274.2741" fill="#84BE84" rx="3" ry="3" style="stroke: #038048; stroke-width: 1.0;"/><text fill="#000000" font-family="sans-serif" font-size="11" font-style="italic" lengthAdjust="spacingAndGlyphs" textLength="148" x="34" y="277.449">void removeDays(Settings db)</text><ellipse cx="25" cy="289.124" fill="#84BE84" rx="3" ry="3" style="stroke: #038048; stroke-width: 1.0;"/><text fill="#000000" font-family="sans-serif" font-size="11" font-style="italic" lengthAdjust="spacingAndGlyphs" textLength="164" x="34" y="292.2989">void removeIntervals(Settings db)</text></a><!--class it.matlice.ingsw.model.Model--><a target="_parent" xlink:actuate="onRequest" xlink:href="../../../../../../it/matlice/ingsw/model/Model.html" xlink:show="new" xlink:title="it.matlice.ingsw.model.Model" xlink:type="simple"><rect fill="#FFFFFF" filter="url(#fq8s2qh)" height="38.7999" style="stroke: #A80036; stroke-width: 1.5;" width="132" x="8" y="8"/><rect fill="#FFFFFF" height="38.7999" style="stroke: #A80036; stroke-width: 1.5;" width="132" x="8" y="8"/><ellipse cx="23" cy="27.4" fill="#ADD1B2" rx="11" ry="11" style="stroke: #A80036; stroke-width: 1.0;"/><path d="M18,28.5562 C18,31.0562 20.1406,32.8687 23.0625,32.8687 C24.2969,32.8687 25.4688,32.5718 26.2188,32.0562 C26.8281,31.6343 27.1563,31.2125 27.1563,30.8062 C27.1563,30.3375 26.7344,29.9312 26.2344,29.9312 C26,29.9312 25.7813,30.0093 25.5781,30.2125 C25.1406,30.65 25.1406,30.65 24.9688,30.7437 C24.5156,30.9781 23.875,31.1187 23.1094,31.1187 C21.1094,31.1187 19.8281,30.1031 19.8281,28.525 L19.8281,27.4781 C19.8281,25.775 21.0469,24.5718 22.75,24.5718 C23.3281,24.5718 23.9063,24.7125 24.375,24.9625 C24.8438,25.2281 25.0156,25.4156 25.0781,25.775 C25.2031,26.4468 25.4531,26.6968 25.9844,26.6968 C26.2656,26.6968 26.5469,26.5562 26.7344,26.3375 C26.8594,26.1656 26.9063,25.9937 26.9063,25.5562 L26.9063,24.1968 C26.9063,23.775 26.8906,23.6343 26.7656,23.4625 C26.5938,23.2125 26.3125,23.0562 25.9844,23.0562 C25.6719,23.0562 25.4688,23.1656 25.25,23.4312 C24.0781,22.9312 23.6406,22.8218 22.6875,22.8218 C20.0156,22.8218 18,24.8375 18,27.4625 L18,28.5562 Z "/><text fill="#000000" font-family="sans-serif" font-size="14" font-weight="bold" lengthAdjust="spacingAndGlyphs" textLength="42" x="66" y="26.0059">Model</text><text fill="#000000" font-family="sans-serif" font-size="10" lengthAdjust="spacingAndGlyphs" textLength="100" x="37" y="39.0899">it.matlice.ingsw.model</text></a><!--class it.matlice.ingsw.model.data.Settings--><a target="_parent" xlink:actuate="onRequest" xlink:href="../../../../../../it/matlice/ingsw/model/data/Settings.html" xlink:show="new" xlink:title="it.matlice.ingsw.model.data.Settings" xlink:type="simple"><rect fill="#FFFFFF" filter="url(#fq8s2qh)" height="38.7999" style="stroke: #A80036; stroke-width: 1.5;" width="156" x="6" y="359"/><rect fill="#FFFFFF" height="38.7999" style="stroke: #A80036; stroke-width: 1.5;" width="156" x="6" y="359"/><ellipse cx="21" cy="378.4" fill="#ADD1B2" rx="11" ry="11" style="stroke: #A80036; stroke-width: 1.0;"/><path d="M16,379.5562 C16,382.0562 18.1406,383.8687 21.0625,383.8687 C22.2969,383.8687 23.4688,383.5718 24.2188,383.0562 C24.8281,382.6343 25.1563,382.2125 25.1563,381.8062 C25.1563,381.3375 24.7344,380.9312 24.2344,380.9312 C24,380.9312 23.7813,381.0093 23.5781,381.2125 C23.1406,381.65 23.1406,381.65 22.9688,381.7437 C22.5156,381.9781 21.875,382.1187 21.1094,382.1187 C19.1094,382.1187 17.8281,381.1031 17.8281,379.525 L17.8281,378.4781 C17.8281,376.775 19.0469,375.5718 20.75,375.5718 C21.3281,375.5718 21.9063,375.7125 22.375,375.9625 C22.8438,376.2281 23.0156,376.4156 23.0781,376.775 C23.2031,377.4468 23.4531,377.6968 23.9844,377.6968 C24.2656,377.6968 24.5469,377.5562 24.7344,377.3375 C24.8594,377.1656 24.9063,376.9937 24.9063,376.5562 L24.9063,375.1968 C24.9063,374.775 24.8906,374.6343 24.7656,374.4625 C24.5938,374.2125 24.3125,374.0562 23.9844,374.0562 C23.6719,374.0562 23.4688,374.1656 23.25,374.4312 C22.0781,373.9312 21.6406,373.8218 20.6875,373.8218 C18.0156,373.8218 16,375.8375 16,378.4625 L16,379.5562 Z "/><text fill="#000000" font-family="sans-serif" font-size="14" font-weight="bold" lengthAdjust="spacingAndGlyphs" textLength="57" x="68.5" y="377.0059">Settings</text><text fill="#000000" font-family="sans-serif" font-size="10" lengthAdjust="spacingAndGlyphs" textLength="124" x="35" y="390.0899">it.matlice.ingsw.model.data</text></a><!--class it.matlice.ingsw.model.data.Settings.Day--><a target="_parent" xlink:actuate="onRequest" xlink:href="../../../../../../it/matlice/ingsw/model/data/Settings.Day.html" xlink:show="new" xlink:title="it.matlice.ingsw.model.data.Settings.Day" xlink:type="simple"><rect fill="#FFFFFF" filter="url(#fq8s2qh)" height="38.7999" style="stroke: #A80036; stroke-width: 1.5;" width="156" x="197" y="359"/><rect fill="#FFFFFF" height="38.7999" style="stroke: #A80036; stroke-width: 1.5;" width="156" x="197" y="359"/><ellipse cx="212" cy="378.4" fill="#EB937F" rx="11" ry="11" style="stroke: #A80036; stroke-width: 1.0;"/><path d="M210.8594,379.4625 L212.1719,379.4625 L212.1719,379.5093 C212.1719,379.9156 212.1875,380.0718 212.2969,380.2281 C212.4688,380.4781 212.7656,380.65 213.0781,380.65 C213.3594,380.65 213.6563,380.5093 213.8281,380.2906 C213.9531,380.1031 214,379.9625 214,379.5093 L214,377.6656 C214,377.3375 213.9844,377.2281 213.9219,377.0562 C213.8125,376.7593 213.4531,376.5093 213.0781,376.5093 C212.7813,376.5093 212.5156,376.65 212.3438,376.8687 C212.2031,377.0562 212.1719,377.2281 212.1719,377.6656 L212.1719,377.7281 L210.8594,377.7281 L210.8594,375.5562 L214.7031,375.5562 L214.7031,376.3062 C214.7031,376.6968 214.7344,376.8843 214.8438,377.0406 C215.0156,377.2906 215.3125,377.4625 215.625,377.4625 C215.9219,377.4625 216.1875,377.3375 216.375,377.1031 C216.5156,376.9156 216.5469,376.775 216.5469,376.3062 L216.5469,373.8062 L208.8438,373.8062 C208.3906,373.8062 208.2656,373.8218 208.0938,373.9312 C207.8281,374.1031 207.6563,374.3687 207.6563,374.6812 C207.6563,374.9625 207.7813,375.2281 208.0313,375.4 C208.2188,375.525 208.4063,375.5562 208.8438,375.5562 L209.0313,375.5562 L209.0313,381.65 L208.8438,381.65 C208.4219,381.65 208.2656,381.6812 208.0938,381.775 C207.8281,381.9312 207.6563,382.2125 207.6563,382.5093 C207.6563,383.0875 208.0625,383.4 208.8438,383.4 L216.9219,383.4 L216.9219,380.8687 C216.9219,380.4625 216.8906,380.2906 216.7813,380.1343 C216.6094,379.8687 216.3281,379.7125 216,379.7125 C215.7188,379.7125 215.4375,379.8531 215.25,380.0718 C215.1094,380.2593 215.0781,380.4156 215.0781,380.8687 L215.0781,381.65 L210.8594,381.65 L210.8594,379.4625 Z "/><text fill="#000000" font-family="sans-serif" font-size="14" font-weight="bold" lengthAdjust="spacingAndGlyphs" textLength="87" x="244.5" y="377.0059">Settings.Day</text><text fill="#000000" font-family="sans-serif" font-size="10" lengthAdjust="spacingAndGlyphs" textLength="124" x="226" y="390.0899">it.matlice.ingsw.model.data</text></a><!--class it.matlice.ingsw.model.data.Interval--><a target="_parent" xlink:actuate="onRequest" xlink:href="../../../../../../it/matlice/ingsw/model/data/Interval.html" xlink:show="new" xlink:title="it.matlice.ingsw.model.data.Interval" xlink:type="simple"><rect fill="#FFFFFF" filter="url(#fq8s2qh)" height="38.7999" style="stroke: #A80036; stroke-width: 1.5;" width="156" x="388" y="359"/><rect fill="#FFFFFF" height="38.7999" style="stroke: #A80036; stroke-width: 1.5;" width="156" x="388" y="359"/><ellipse cx="403" cy="378.4" fill="#ADD1B2" rx="11" ry="11" style="stroke: #A80036; stroke-width: 1.0;"/><path d="M398,379.5562 C398,382.0562 400.1406,383.8687 403.0625,383.8687 C404.2969,383.8687 405.4688,383.5718 406.2188,383.0562 C406.8281,382.6343 407.1563,382.2125 407.1563,381.8062 C407.1563,381.3375 406.7344,380.9312 406.2344,380.9312 C406,380.9312 405.7813,381.0093 405.5781,381.2125 C405.1406,381.65 405.1406,381.65 404.9688,381.7437 C404.5156,381.9781 403.875,382.1187 403.1094,382.1187 C401.1094,382.1187 399.8281,381.1031 399.8281,379.525 L399.8281,378.4781 C399.8281,376.775 401.0469,375.5718 402.75,375.5718 C403.3281,375.5718 403.9063,375.7125 404.375,375.9625 C404.8438,376.2281 405.0156,376.4156 405.0781,376.775 C405.2031,377.4468 405.4531,377.6968 405.9844,377.6968 C406.2656,377.6968 406.5469,377.5562 406.7344,377.3375 C406.8594,377.1656 406.9063,376.9937 406.9063,376.5562 L406.9063,375.1968 C406.9063,374.775 406.8906,374.6343 406.7656,374.4625 C406.5938,374.2125 406.3125,374.0562 405.9844,374.0562 C405.6719,374.0562 405.4688,374.1656 405.25,374.4312 C404.0781,373.9312 403.6406,373.8218 402.6875,373.8218 C400.0156,373.8218 398,375.8375 398,378.4625 L398,379.5562 Z "/><text fill="#000000" font-family="sans-serif" font-size="14" font-weight="bold" lengthAdjust="spacingAndGlyphs" textLength="51" x="453.5" y="377.0059">Interval</text><text fill="#000000" font-family="sans-serif" font-size="10" lengthAdjust="spacingAndGlyphs" textLength="124" x="417" y="390.0899">it.matlice.ingsw.model.data</text></a><!--class it.matlice.ingsw.model.data.impl.jdbc.SettingsFactoryImpl--><a target="_parent" xlink:actuate="onRequest" xlink:href="../../../../../../it/matlice/ingsw/model/data/impl/jdbc/SettingsFactoryImpl.html" xlink:show="new" xlink:title="it.matlice.ingsw.model.data.impl.jdbc.SettingsFactoryImpl" xlink:type="simple"><rect fill="#FFFFFF" filter="url(#fq8s2qh)" height="38.7999" style="stroke: #A80036; stroke-width: 1.5;" width="199" x="175.5" y="8"/><rect fill="#FFFFFF" height="38.7999" style="stroke: #A80036; stroke-width: 1.5;" width="199" x="175.5" y="8"/><ellipse cx="190.5" cy="27.4" fill="#ADD1B2" rx="11" ry="11" style="stroke: #A80036; stroke-width: 1.0;"/><path d="M185.5,28.5562 C185.5,31.0562 187.6406,32.8687 190.5625,32.8687 C191.7969,32.8687 192.9688,32.5718 193.7188,32.0562 C194.3281,31.6343 194.6563,31.2125 194.6563,30.8062 C194.6563,30.3375 194.2344,29.9312 193.7344,29.9312 C193.5,29.9312 193.2813,30.0093 193.0781,30.2125 C192.6406,30.65 192.6406,30.65 192.4688,30.7437 C192.0156,30.9781 191.375,31.1187 190.6094,31.1187 C188.6094,31.1187 187.3281,30.1031 187.3281,28.525 L187.3281,27.4781 C187.3281,25.775 188.5469,24.5718 190.25,24.5718 C190.8281,24.5718 191.4063,24.7125 191.875,24.9625 C192.3438,25.2281 192.5156,25.4156 192.5781,25.775 C192.7031,26.4468 192.9531,26.6968 193.4844,26.6968 C193.7656,26.6968 194.0469,26.5562 194.2344,26.3375 C194.3594,26.1656 194.4063,25.9937 194.4063,25.5562 L194.4063,24.1968 C194.4063,23.775 194.3906,23.6343 194.2656,23.4625 C194.0938,23.2125 193.8125,23.0562 193.4844,23.0562 C193.1719,23.0562 192.9688,23.1656 192.75,23.4312 C191.5781,22.9312 191.1406,22.8218 190.1875,22.8218 C187.5156,22.8218 185.5,24.8375 185.5,27.4625 L185.5,28.5562 Z "/><text fill="#000000" font-family="sans-serif" font-size="14" font-weight="bold" lengthAdjust="spacingAndGlyphs" textLength="138" x="219" y="26.0059">SettingsFactoryImpl</text><text fill="#000000" font-family="sans-serif" font-size="10" lengthAdjust="spacingAndGlyphs" textLength="167" x="204.5" y="39.0899">it.matlice.ingsw.model.data.impl.jdbc</text></a><!--class it.matlice.ingsw.model.data.impl.jdbc.OfferFactoryImpl--><a target="_parent" xlink:actuate="onRequest" xlink:href="../../../../../../it/matlice/ingsw/model/data/impl/jdbc/OfferFactoryImpl.html" xlink:show="new" xlink:title="it.matlice.ingsw.model.data.impl.jdbc.OfferFactoryImpl" xlink:type="simple"><rect fill="#FFFFFF" filter="url(#fq8s2qh)" height="38.7999" style="stroke: #A80036; stroke-width: 1.5;" width="199" x="409.5" y="8"/><rect fill="#FFFFFF" height="38.7999" style="stroke: #A80036; stroke-width: 1.5;" width="199" x="409.5" y="8"/><ellipse cx="424.5" cy="27.4" fill="#ADD1B2" rx="11" ry="11" style="stroke: #A80036; stroke-width: 1.0;"/><path d="M419.5,28.5562 C419.5,31.0562 421.6406,32.8687 424.5625,32.8687 C425.7969,32.8687 426.9688,32.5718 427.7188,32.0562 C428.3281,31.6343 428.6563,31.2125 428.6563,30.8062 C428.6563,30.3375 428.2344,29.9312 427.7344,29.9312 C427.5,29.9312 427.2813,30.0093 427.0781,30.2125 C426.6406,30.65 426.6406,30.65 426.4688,30.7437 C426.0156,30.9781 425.375,31.1187 424.6094,31.1187 C422.6094,31.1187 421.3281,30.1031 421.3281,28.525 L421.3281,27.4781 C421.3281,25.775 422.5469,24.5718 424.25,24.5718 C424.8281,24.5718 425.4063,24.7125 425.875,24.9625 C426.3438,25.2281 426.5156,25.4156 426.5781,25.775 C426.7031,26.4468 426.9531,26.6968 427.4844,26.6968 C427.7656,26.6968 428.0469,26.5562 428.2344,26.3375 C428.3594,26.1656 428.4063,25.9937 428.4063,25.5562 L428.4063,24.1968 C428.4063,23.775 428.3906,23.6343 428.2656,23.4625 C428.0938,23.2125 427.8125,23.0562 427.4844,23.0562 C427.1719,23.0562 426.9688,23.1656 426.75,23.4312 C425.5781,22.9312 425.1406,22.8218 424.1875,22.8218 C421.5156,22.8218 419.5,24.8375 419.5,27.4625 L419.5,28.5562 Z "/><text fill="#000000" font-family="sans-serif" font-size="14" font-weight="bold" lengthAdjust="spacingAndGlyphs" textLength="115" x="464.5" y="26.0059">OfferFactoryImpl</text><text fill="#000000" font-family="sans-serif" font-size="10" lengthAdjust="spacingAndGlyphs" textLength="167" x="438.5" y="39.0899">it.matlice.ingsw.model.data.impl.jdbc</text></a><path d="M77,47.29 C77,47.29 77,101.98 77,101.98 " fill="none" style="stroke: #A80036; stroke-width: 1.0;"/><polygon fill="#A80036" points="77,106.98,81,97.98,77,101.98,73,97.98,77,106.98" style="stroke: #A80036; stroke-width: 1.0;"/><text fill="#000000" font-family="sans-serif" font-size="13" lengthAdjust="spacingAndGlyphs" textLength="11" x="49.1477" y="95.5071">sf</text><path d="M88,299.22 C88,299.22 88,353.83 88,353.83 " fill="none" style="stroke: #A80036; stroke-width: 1.0; stroke-dasharray: 7.0,7.0;"/><polygon fill="#A80036" points="88,358.83,92,349.83,88,353.83,84,349.83,88,358.83" style="stroke: #A80036; stroke-width: 1.0;"/><path d="M275,299.22 C275,299.22 275,353.83 275,353.83 " fill="none" style="stroke: #A80036; stroke-width: 1.0; stroke-dasharray: 7.0,7.0;"/><polygon fill="#A80036" points="275,358.83,279,349.83,275,353.83,271,349.83,275,358.83" style="stroke: #A80036; stroke-width: 1.0;"/><path d="M462,299.22 C462,299.22 462,353.83 462,353.83 " fill="none" style="stroke: #A80036; stroke-width: 1.0; stroke-dasharray: 7.0,7.0;"/><polygon fill="#A80036" points="462,358.83,466,349.83,462,353.83,458,349.83,462,358.83" style="stroke: #A80036; stroke-width: 1.0;"/><path d="M275,47.29 C275,47.29 275,86.98 275,86.98 " fill="none" style="stroke: #A80036; stroke-width: 1.0; stroke-dasharray: 7.0,7.0;"/><polygon fill="none" points="282,86.98,275,106.98,268,86.98,282,86.98" style="stroke: #A80036; stroke-width: 1.0;"/><path d="M472.75,47.29 C472.75,47.29 472.75,101.98 472.75,101.98 " fill="none" style="stroke: #A80036; stroke-width: 1.0;"/><polygon fill="#A80036" points="472.75,106.98,476.75,97.98,472.75,101.98,468.75,97.98,472.75,106.98" style="stroke: #A80036; stroke-width: 1.0;"/><text fill="#000000" font-family="sans-serif" font-size="13" lengthAdjust="spacingAndGlyphs" textLength="90" x="395.3996" y="95.5071">settingsFactory</text></g></svg>