<?xml version="1.0" encoding="UTF-8" standalone="no"?><svg xmlns="http://www.w3.org/2000/svg" xmlns:xlink="http://www.w3.org/1999/xlink" contentScriptType="application/ecmascript" contentStyleType="text/css" height="347px" preserveAspectRatio="none" style="width:388px;height:347px;" version="1.1" viewBox="0 0 388 347" width="388px" zoomAndPan="magnify"><defs><filter height="300%" id="fssc5iu" width="300%" x="-1" y="-1"><feGaussianBlur result="blurOut" stdDeviation="2.0"/><feColorMatrix in="blurOut" result="blurOut2" type="matrix" values="0 0 0 0 0 0 0 0 0 0 0 0 0 0 0 0 0 0 .4 0"/><feOffset dx="4.0" dy="4.0" in="blurOut2" result="blurOut3"/><feBlend in="SourceGraphic" in2="blurOut3" mode="normal"/></filter></defs><g><!--class it.matlice.ingsw.model.data.factories.UserFactory--><a target="_parent" xlink:actuate="onRequest" xlink:href="../../../../../../it/matlice/ingsw/model/data/factories/UserFactory.html" xlink:show="new" xlink:title="it.matlice.ingsw.model.data.factories.UserFactory" xlink:type="simple"><rect fill="#FEFECE" filter="url(#fssc5iu)" height="132.6494" style="stroke: #A80036; stroke-width: 1.5;" width="331" x="13.5" y="107"/><ellipse cx="91.75" cy="128.2" fill="#B4A7E5" rx="11" ry="11" style="stroke: #A80036; stroke-width: 1.0;"/><path d="M92.7656,125.3562 L94.4219,125.3562 C94.8125,125.3562 95.0156,125.325 95.1719,125.2468 C95.4375,125.075 95.6094,124.7781 95.6094,124.4812 C95.6094,124.2 95.4688,123.95 95.2344,123.7781 C95.0469,123.6531 94.8906,123.6062 94.4219,123.6062 L89.2813,123.6062 C88.8438,123.6062 88.7031,123.6218 88.5313,123.7312 C88.2656,123.9031 88.0938,124.1843 88.0938,124.4812 C88.0938,124.7625 88.2344,125.0437 88.4688,125.2 C88.6563,125.325 88.8438,125.3562 89.2813,125.3562 L90.9375,125.3562 L90.9375,131.45 L89.2813,131.45 C88.8438,131.45 88.7031,131.4656 88.5313,131.575 C88.2656,131.7312 88.0938,132.0281 88.0938,132.3093 C88.0938,132.9187 88.5,133.2 89.2813,133.2 L94.4219,133.2 C95.2031,133.2 95.6094,132.9187 95.6094,132.3093 C95.6094,132.0437 95.4688,131.7937 95.2344,131.6218 C95.0469,131.4812 94.875,131.45 94.4219,131.45 L92.7656,131.45 L92.7656,125.3562 Z "/><text fill="#000000" font-family="sans-serif" font-size="14" font-style="italic" font-weight="bold" lengthAdjust="spacingAndGlyphs" textLength="83" x="153.75" y="127.3999">UserFactory</text><text fill="#000000" font-family="sans-serif" font-size="10" font-style="italic" lengthAdjust="spacingAndGlyphs" textLength="166" x="112.25" y="141.8999">it.matlice.ingsw.model.data.factories</text><line style="stroke: #A80036; stroke-width: 1.5;" x1="14.5" x2="343.5" y1="149.3999" y2="149.3999"/><line style="stroke: #A80036; stroke-width: 1.5;" x1="14.5" x2="343.5" y1="157.3999" y2="157.3999"/><ellipse cx="24.5" cy="170.3248" fill="#84BE84" rx="3" ry="3" style="stroke: #038048; stroke-width: 1.0;"/><text fill="#000000" font-family="sans-serif" font-size="11" font-style="italic" lengthAdjust="spacingAndGlyphs" textLength="154" x="33.5" y="173.4998">User getUser(String username)</text><ellipse cx="24.5" cy="185.1747" fill="#84BE84" rx="3" ry="3" style="stroke: #038048; stroke-width: 1.0;"/><text fill="#000000" font-family="sans-serif" font-size="11" font-style="italic" lengthAdjust="spacingAndGlyphs" textLength="201" x="33.5" y="188.3497">boolean doesUserExist(String username)</text><ellipse cx="24.5" cy="200.0246" fill="#84BE84" rx="3" ry="3" style="stroke: #038048; stroke-width: 1.0;"/><text fill="#000000" font-family="sans-serif" font-size="11" font-style="italic" lengthAdjust="spacingAndGlyphs" textLength="305" x="33.5" y="203.1996">User createUser(String username,User.UserTypes userType)</text><ellipse cx="24.5" cy="214.8745" fill="#84BE84" rx="3" ry="3" style="stroke: #038048; stroke-width: 1.0;"/><text fill="#000000" font-family="sans-serif" font-size="11" font-style="italic" lengthAdjust="spacingAndGlyphs" textLength="116" x="33.5" y="218.0495">User saveUser(User u)</text><ellipse cx="24.5" cy="229.7244" fill="#84BE84" rx="3" ry="3" style="stroke: #038048; stroke-width: 1.0;"/><text fill="#000000" font-family="sans-serif" font-size="11" font-style="italic" lengthAdjust="spacingAndGlyphs" textLength="109" x="33.5" y="232.8994">List&lt;User&gt; getUsers()</text></a><!--class it.matlice.ingsw.model.Model--><a target="_parent" xlink:actuate="onRequest" xlink:href="../../../../../../it/matlice/ingsw/model/Model.html" xlink:show="new" xlink:title="it.matlice.ingsw.model.Model" xlink:type="simple"><rect fill="#FFFFFF" filter="url(#fssc5iu)" height="38.7999" style="stroke: #A80036; stroke-width: 1.5;" width="132" x="13" y="8"/><rect fill="#FFFFFF" height="38.7999" style="stroke: #A80036; stroke-width: 1.5;" width="132" x="13" y="8"/><ellipse cx="28" cy="27.4" fill="#ADD1B2" rx="11" ry="11" style="stroke: #A80036; stroke-width: 1.0;"/><path d="M23,28.5562 C23,31.0562 25.1406,32.8687 28.0625,32.8687 C29.2969,32.8687 30.4688,32.5718 31.2188,32.0562 C31.8281,31.6343 32.1563,31.2125 32.1563,30.8062 C32.1563,30.3375 31.7344,29.9312 31.2344,29.9312 C31,29.9312 30.7813,30.0093 30.5781,30.2125 C30.1406,30.65 30.1406,30.65 29.9688,30.7437 C29.5156,30.9781 28.875,31.1187 28.1094,31.1187 C26.1094,31.1187 24.8281,30.1031 24.8281,28.525 L24.8281,27.4781 C24.8281,25.775 26.0469,24.5718 27.75,24.5718 C28.3281,24.5718 28.9063,24.7125 29.375,24.9625 C29.8438,25.2281 30.0156,25.4156 30.0781,25.775 C30.2031,26.4468 30.4531,26.6968 30.9844,26.6968 C31.2656,26.6968 31.5469,26.5562 31.7344,26.3375 C31.8594,26.1656 31.9063,25.9937 31.9063,25.5562 L31.9063,24.1968 C31.9063,23.775 31.8906,23.6343 31.7656,23.4625 C31.5938,23.2125 31.3125,23.0562 30.9844,23.0562 C30.6719,23.0562 30.4688,23.1656 30.25,23.4312 C29.0781,22.9312 28.6406,22.8218 27.6875,22.8218 C25.0156,22.8218 23,24.8375 23,27.4625 L23,28.5562 Z "/><text fill="#000000" font-family="sans-serif" font-size="14" font-weight="bold" lengthAdjust="spacingAndGlyphs" textLength="42" x="71" y="26.0059">Model</text><text fill="#000000" font-family="sans-serif" font-size="10" lengthAdjust="spacingAndGlyphs" textLength="100" x="42" y="39.0899">it.matlice.ingsw.model</text></a><!--class it.matlice.ingsw.model.data.User--><a target="_parent" xlink:actuate="onRequest" xlink:href="../../../../../../it/matlice/ingsw/model/data/User.html" xlink:show="new" xlink:title="it.matlice.ingsw.model.data.User" xlink:type="simple"><rect fill="#FFFFFF" filter="url(#fssc5iu)" height="38.7999" style="stroke: #A80036; stroke-width: 1.5;" width="156" x="6" y="300"/><rect fill="#FFFFFF" height="38.7999" style="stroke: #A80036; stroke-width: 1.5;" width="156" x="6" y="300"/><ellipse cx="21" cy="319.4" fill="#ADD1B2" rx="11" ry="11" style="stroke: #A80036; stroke-width: 1.0;"/><path d="M16,320.5562 C16,323.0562 18.1406,324.8687 21.0625,324.8687 C22.2969,324.8687 23.4688,324.5718 24.2188,324.0562 C24.8281,323.6343 25.1563,323.2125 25.1563,322.8062 C25.1563,322.3375 24.7344,321.9312 24.2344,321.9312 C24,321.9312 23.7813,322.0093 23.5781,322.2125 C23.1406,322.65 23.1406,322.65 22.9688,322.7437 C22.5156,322.9781 21.875,323.1187 21.1094,323.1187 C19.1094,323.1187 17.8281,322.1031 17.8281,320.525 L17.8281,319.4781 C17.8281,317.775 19.0469,316.5718 20.75,316.5718 C21.3281,316.5718 21.9063,316.7125 22.375,316.9625 C22.8438,317.2281 23.0156,317.4156 23.0781,317.775 C23.2031,318.4468 23.4531,318.6968 23.9844,318.6968 C24.2656,318.6968 24.5469,318.5562 24.7344,318.3375 C24.8594,318.1656 24.9063,317.9937 24.9063,317.5562 L24.9063,316.1968 C24.9063,315.775 24.8906,315.6343 24.7656,315.4625 C24.5938,315.2125 24.3125,315.0562 23.9844,315.0562 C23.6719,315.0562 23.4688,315.1656 23.25,315.4312 C22.0781,314.9312 21.6406,314.8218 20.6875,314.8218 C18.0156,314.8218 16,316.8375 16,319.4625 L16,320.5562 Z "/><text fill="#000000" font-family="sans-serif" font-size="14" font-weight="bold" lengthAdjust="spacingAndGlyphs" textLength="31" x="81.5" y="318.0059">User</text><text fill="#000000" font-family="sans-serif" font-size="10" lengthAdjust="spacingAndGlyphs" textLength="124" x="35" y="331.0899">it.matlice.ingsw.model.data</text></a><!--class it.matlice.ingsw.model.data.User.UserTypes--><a target="_parent" xlink:actuate="onRequest" xlink:href="../../../../../../it/matlice/ingsw/model/data/User.UserTypes.html" xlink:show="new" xlink:title="it.matlice.ingsw.model.data.User.UserTypes" xlink:type="simple"><rect fill="#FFFFFF" filter="url(#fssc5iu)" height="38.7999" style="stroke: #A80036; stroke-width: 1.5;" width="156" x="197" y="300"/><rect fill="#FFFFFF" height="38.7999" style="stroke: #A80036; stroke-width: 1.5;" width="156" x="197" y="300"/><ellipse cx="212" cy="319.4" fill="#EB937F" rx="11" ry="11" style="stroke: #A80036; stroke-width: 1.0;"/><path d="M210.8594,320.4625 L212.1719,320.4625 L212.1719,320.5093 C212.1719,320.9156 212.1875,321.0718 212.2969,321.2281 C212.4688,321.4781 212.7656,321.65 213.0781,321.65 C213.3594,321.65 213.6563,321.5093 213.8281,321.2906 C213.9531,321.1031 214,320.9625 214,320.5093 L214,318.6656 C214,318.3375 213.9844,318.2281 213.9219,318.0562 C213.8125,317.7593 213.4531,317.5093 213.0781,317.5093 C212.7813,317.5093 212.5156,317.65 212.3438,317.8687 C212.2031,318.0562 212.1719,318.2281 212.1719,318.6656 L212.1719,318.7281 L210.8594,318.7281 L210.8594,316.5562 L214.7031,316.5562 L214.7031,317.3062 C214.7031,317.6968 214.7344,317.8843 214.8438,318.0406 C215.0156,318.2906 215.3125,318.4625 215.625,318.4625 C215.9219,318.4625 216.1875,318.3375 216.375,318.1031 C216.5156,317.9156 216.5469,317.775 216.5469,317.3062 L216.5469,314.8062 L208.8438,314.8062 C208.3906,314.8062 208.2656,314.8218 208.0938,314.9312 C207.8281,315.1031 207.6563,315.3687 207.6563,315.6812 C207.6563,315.9625 207.7813,316.2281 208.0313,316.4 C208.2188,316.525 208.4063,316.5562 208.8438,316.5562 L209.0313,316.5562 L209.0313,322.65 L208.8438,322.65 C208.4219,322.65 208.2656,322.6812 208.0938,322.775 C207.8281,322.9312 207.6563,323.2125 207.6563,323.5093 C207.6563,324.0875 208.0625,324.4 208.8438,324.4 L216.9219,324.4 L216.9219,321.8687 C216.9219,321.4625 216.8906,321.2906 216.7813,321.1343 C216.6094,320.8687 216.3281,320.7125 216,320.7125 C215.7188,320.7125 215.4375,320.8531 215.25,321.0718 C215.1094,321.2593 215.0781,321.4156 215.0781,321.8687 L215.0781,322.65 L210.8594,322.65 L210.8594,320.4625 Z "/><text fill="#000000" font-family="sans-serif" font-size="14" font-weight="bold" lengthAdjust="spacingAndGlyphs" textLength="108" x="234" y="318.0059">User.UserTypes</text><text fill="#000000" font-family="sans-serif" font-size="10" lengthAdjust="spacingAndGlyphs" textLength="124" x="226" y="331.0899">it.matlice.ingsw.model.data</text></a><!--class it.matlice.ingsw.model.data.impl.jdbc.UserFactoryImpl--><a target="_parent" xlink:actuate="onRequest" xlink:href="../../../../../../it/matlice/ingsw/model/data/impl/jdbc/UserFactoryImpl.html" xlink:show="new" xlink:title="it.matlice.ingsw.model.data.impl.jdbc.UserFactoryImpl" xlink:type="simple"><rect fill="#FFFFFF" filter="url(#fssc5iu)" height="38.7999" style="stroke: #A80036; stroke-width: 1.5;" width="199" x="180.5" y="8"/><rect fill="#FFFFFF" height="38.7999" style="stroke: #A80036; stroke-width: 1.5;" width="199" x="180.5" y="8"/><ellipse cx="195.5" cy="27.4" fill="#ADD1B2" rx="11" ry="11" style="stroke: #A80036; stroke-width: 1.0;"/><path d="M190.5,28.5562 C190.5,31.0562 192.6406,32.8687 195.5625,32.8687 C196.7969,32.8687 197.9688,32.5718 198.7188,32.0562 C199.3281,31.6343 199.6563,31.2125 199.6563,30.8062 C199.6563,30.3375 199.2344,29.9312 198.7344,29.9312 C198.5,29.9312 198.2813,30.0093 198.0781,30.2125 C197.6406,30.65 197.6406,30.65 197.4688,30.7437 C197.0156,30.9781 196.375,31.1187 195.6094,31.1187 C193.6094,31.1187 192.3281,30.1031 192.3281,28.525 L192.3281,27.4781 C192.3281,25.775 193.5469,24.5718 195.25,24.5718 C195.8281,24.5718 196.4063,24.7125 196.875,24.9625 C197.3438,25.2281 197.5156,25.4156 197.5781,25.775 C197.7031,26.4468 197.9531,26.6968 198.4844,26.6968 C198.7656,26.6968 199.0469,26.5562 199.2344,26.3375 C199.3594,26.1656 199.4063,25.9937 199.4063,25.5562 L199.4063,24.1968 C199.4063,23.775 199.3906,23.6343 199.2656,23.4625 C199.0938,23.2125 198.8125,23.0562 198.4844,23.0562 C198.1719,23.0562 197.9688,23.1656 197.75,23.4312 C196.5781,22.9312 196.1406,22.8218 195.1875,22.8218 C192.5156,22.8218 190.5,24.8375 190.5,27.4625 L190.5,28.5562 Z "/><text fill="#000000" font-family="sans-serif" font-size="14" font-weight="bold" lengthAdjust="spacingAndGlyphs" textLength="112" x="237" y="26.0059">UserFactoryImpl</text><text fill="#000000" font-family="sans-serif" font-size="10" lengthAdjust="spacingAndGlyphs" textLength="167" x="209.5" y="39.0899">it.matlice.ingsw.model.data.impl.jdbc</text></a><path d="M79.25,47.19 C79.25,47.19 79.25,101.97 79.25,101.97 " fill="none" style="stroke: #A80036; stroke-width: 1.0;"/><polygon fill="#A80036" points="79.25,106.97,83.25,97.97,79.25,101.97,75.25,97.97,79.25,106.97" style="stroke: #A80036; stroke-width: 1.0;"/><text fill="#000000" font-family="sans-serif" font-size="13" lengthAdjust="spacingAndGlyphs" textLength="11" x="56.0805" y="95.5423">uf</text><path d="M87.75,240.09 C87.75,240.09 87.75,294.96 87.75,294.96 " fill="none" style="stroke: #A80036; stroke-width: 1.0; stroke-dasharray: 7.0,7.0;"/><polygon fill="#A80036" points="87.75,299.96,91.75,290.96,87.75,294.96,83.75,290.96,87.75,299.96" style="stroke: #A80036; stroke-width: 1.0;"/><path d="M270.75,240.09 C270.75,240.09 270.75,294.96 270.75,294.96 " fill="none" style="stroke: #A80036; stroke-width: 1.0; stroke-dasharray: 7.0,7.0;"/><polygon fill="#A80036" points="270.75,299.96,274.75,290.96,270.75,294.96,266.75,290.96,270.75,299.96" style="stroke: #A80036; stroke-width: 1.0;"/><path d="M262.5,47.19 C262.5,47.19 262.5,86.97 262.5,86.97 " fill="none" style="stroke: #A80036; stroke-width: 1.0; stroke-dasharray: 7.0,7.0;"/><polygon fill="none" points="269.5,86.97,262.5,106.97,255.5,86.97,269.5,86.97" style="stroke: #A80036; stroke-width: 1.0;"/></g></svg>