<?xml version="1.0" encoding="UTF-8" standalone="no"?><svg xmlns="http://www.w3.org/2000/svg" xmlns:xlink="http://www.w3.org/1999/xlink" contentScriptType="application/ecmascript" contentStyleType="text/css" height="114px" preserveAspectRatio="none" style="width:237px;height:114px;" version="1.1" viewBox="0 0 237 114" width="237px" zoomAndPan="magnify"><defs><filter height="300%" id="fbv5pdo" width="300%" x="-1" y="-1"><feGaussianBlur result="blurOut" stdDeviation="2.0"/><feColorMatrix in="blurOut" result="blurOut2" type="matrix" values="0 0 0 0 0 0 0 0 0 0 0 0 0 0 0 0 0 0 .4 0"/><feOffset dx="4.0" dy="4.0" in="blurOut2" result="blurOut3"/><feBlend in="SourceGraphic" in2="blurOut3" mode="normal"/></filter></defs><g><!--cluster it.matlice.ingsw.view.stream--><a target="_parent" xlink:actuate="onRequest" xlink:href="../../../../../it/matlice/ingsw/view/stream/package-summary.html" xlink:show="new" xlink:title="it.matlice.ingsw.view.stream" xlink:type="simple"><polygon fill="#FFFFE0" filter="url(#fbv5pdo)" points="22,24,220,24,227,46.7999,230,46.7999,230,107,22,107,22,24" style="stroke: #000000; stroke-width: 2.0;"/><line style="stroke: #000000; stroke-width: 2.0;" x1="22" x2="227" y1="46.7999" y2="46.7999"/><text fill="#000000" font-family="sans-serif" font-size="14" font-weight="bold" lengthAdjust="spacingAndGlyphs" textLength="192" x="26" y="39.0059">it.matlice.ingsw.view.stream</text></a><!--class it.matlice.ingsw.view.stream.StreamView--><a target="_parent" xlink:actuate="onRequest" xlink:href="../../../../../it/matlice/ingsw/view/stream/StreamView.html" xlink:show="new" xlink:title="it.matlice.ingsw.view.stream.StreamView" xlink:type="simple"><rect fill="#FEFECE" filter="url(#fbv5pdo)" height="32" style="stroke: #A80036; stroke-width: 1.5;" width="111" x="70.5" y="59"/><ellipse cx="85.5" cy="75" fill="#ADD1B2" rx="11" ry="11" style="stroke: #A80036; stroke-width: 1.0;"/><path d="M80.5,76.1563 C80.5,78.6563 82.6406,80.4688 85.5625,80.4688 C86.7969,80.4688 87.9688,80.1719 88.7188,79.6563 C89.3281,79.2344 89.6563,78.8125 89.6563,78.4063 C89.6563,77.9375 89.2344,77.5313 88.7344,77.5313 C88.5,77.5313 88.2813,77.6094 88.0781,77.8125 C87.6406,78.25 87.6406,78.25 87.4688,78.3438 C87.0156,78.5781 86.375,78.7188 85.6094,78.7188 C83.6094,78.7188 82.3281,77.7031 82.3281,76.125 L82.3281,75.0781 C82.3281,73.375 83.5469,72.1719 85.25,72.1719 C85.8281,72.1719 86.4063,72.3125 86.875,72.5625 C87.3438,72.8281 87.5156,73.0156 87.5781,73.375 C87.7031,74.0469 87.9531,74.2969 88.4844,74.2969 C88.7656,74.2969 89.0469,74.1563 89.2344,73.9375 C89.3594,73.7656 89.4063,73.5938 89.4063,73.1563 L89.4063,71.7969 C89.4063,71.375 89.3906,71.2344 89.2656,71.0625 C89.0938,70.8125 88.8125,70.6563 88.4844,70.6563 C88.1719,70.6563 87.9688,70.7656 87.75,71.0313 C86.5781,70.5313 86.1406,70.4219 85.1875,70.4219 C82.5156,70.4219 80.5,72.4375 80.5,75.0625 L80.5,76.1563 Z "/><text fill="#000000" font-family="sans-serif" font-size="14" font-weight="bold" lengthAdjust="spacingAndGlyphs" textLength="79" x="99.5" y="79.606">StreamView</text></a></g></svg>