<?xml version="1.0" encoding="UTF-8" standalone="no"?><svg xmlns="http://www.w3.org/2000/svg" xmlns:xlink="http://www.w3.org/1999/xlink" contentScriptType="application/ecmascript" contentStyleType="text/css" height="491px" preserveAspectRatio="none" style="width:834px;height:491px;" version="1.1" viewBox="0 0 834 491" width="834px" zoomAndPan="magnify"><defs><filter height="300%" id="f0fbtz2" width="300%" x="-1" y="-1"><feGaussianBlur result="blurOut" stdDeviation="2.0"/><feColorMatrix in="blurOut" result="blurOut2" type="matrix" values="0 0 0 0 0 0 0 0 0 0 0 0 0 0 0 0 0 0 .4 0"/><feOffset dx="4.0" dy="4.0" in="blurOut2" result="blurOut3"/><feBlend in="SourceGraphic" in2="blurOut3" mode="normal"/></filter></defs><g><!--class it.matlice.ingsw.view.stream.StreamView--><a target="_parent" xlink:actuate="onRequest" xlink:href="../../../../../it/matlice/ingsw/view/stream/StreamView.html" xlink:show="new" xlink:title="it.matlice.ingsw.view.stream.StreamView" xlink:type="simple"><rect fill="#FEFECE" filter="url(#f0fbtz2)" height="371.5976" style="stroke: #A80036; stroke-width: 1.5;" width="753" x="6" y="8"/><ellipse cx="315.25" cy="27.4" fill="#ADD1B2" rx="11" ry="11" style="stroke: #A80036; stroke-width: 1.0;"/><path d="M310.25,28.5562 C310.25,31.0562 312.3906,32.8687 315.3125,32.8687 C316.5469,32.8687 317.7188,32.5718 318.4688,32.0562 C319.0781,31.6343 319.4063,31.2125 319.4063,30.8062 C319.4063,30.3375 318.9844,29.9312 318.4844,29.9312 C318.25,29.9312 318.0313,30.0093 317.8281,30.2125 C317.3906,30.65 317.3906,30.65 317.2188,30.7437 C316.7656,30.9781 316.125,31.1187 315.3594,31.1187 C313.3594,31.1187 312.0781,30.1031 312.0781,28.525 L312.0781,27.4781 C312.0781,25.775 313.2969,24.5718 315,24.5718 C315.5781,24.5718 316.1563,24.7125 316.625,24.9625 C317.0938,25.2281 317.2656,25.4156 317.3281,25.775 C317.4531,26.4468 317.7031,26.6968 318.2344,26.6968 C318.5156,26.6968 318.7969,26.5562 318.9844,26.3375 C319.1094,26.1656 319.1563,25.9937 319.1563,25.5562 L319.1563,24.1968 C319.1563,23.775 319.1406,23.6343 319.0156,23.4625 C318.8438,23.2125 318.5625,23.0562 318.2344,23.0562 C317.9219,23.0562 317.7188,23.1656 317.5,23.4312 C316.3281,22.9312 315.8906,22.8218 314.9375,22.8218 C312.2656,22.8218 310.25,24.8375 310.25,27.4625 L310.25,28.5562 Z "/><text fill="#000000" font-family="sans-serif" font-size="14" font-weight="bold" lengthAdjust="spacingAndGlyphs" textLength="79" x="359.25" y="26.0059">StreamView</text><text fill="#000000" font-family="sans-serif" font-size="10" lengthAdjust="spacingAndGlyphs" textLength="126" x="335.75" y="39.0899">it.matlice.ingsw.view.stream</text><line style="stroke: #A80036; stroke-width: 1.5;" x1="7" x2="758" y1="46.7999" y2="46.7999"/><rect fill="none" height="6" style="stroke: #C82930; stroke-width: 1.0;" width="6" x="14" y="55.8999"/><text fill="#000000" font-family="sans-serif" font-size="11" lengthAdjust="spacingAndGlyphs" textLength="75" x="26" y="61.0188">PrintStream out</text><rect fill="none" height="6" style="stroke: #C82930; stroke-width: 1.0;" width="6" x="14" y="69.0998"/><text fill="#000000" font-family="sans-serif" font-size="11" lengthAdjust="spacingAndGlyphs" textLength="52" x="26" y="74.2187">Scanner in</text><line style="stroke: #A80036; stroke-width: 1.5;" x1="7" x2="758" y1="81.1997" y2="81.1997"/><ellipse cx="17" cy="93.2997" fill="#84BE84" rx="3" ry="3" style="stroke: #038048; stroke-width: 1.0;"/><text fill="#000000" font-family="sans-serif" font-size="11" lengthAdjust="spacingAndGlyphs" textLength="196" x="26" y="95.4186">StreamView(PrintStream out,Scanner in)</text><ellipse cx="17" cy="106.4996" fill="#84BE84" rx="3" ry="3" style="stroke: #038048; stroke-width: 1.0;"/><text fill="#000000" font-family="sans-serif" font-size="11" lengthAdjust="spacingAndGlyphs" textLength="190" x="26" y="108.6185">void info(String text,boolean separated)</text><ellipse cx="17" cy="119.6995" fill="#84BE84" rx="3" ry="3" style="stroke: #038048; stroke-width: 1.0;"/><text fill="#000000" font-family="sans-serif" font-size="11" lengthAdjust="spacingAndGlyphs" textLength="97" x="26" y="121.8184">void info(String text)</text><ellipse cx="17" cy="132.8994" fill="#84BE84" rx="3" ry="3" style="stroke: #038048; stroke-width: 1.0;"/><text fill="#000000" font-family="sans-serif" font-size="11" lengthAdjust="spacingAndGlyphs" textLength="197" x="26" y="135.0183">void warn(String text,boolean separated)</text><ellipse cx="17" cy="146.0993" fill="#84BE84" rx="3" ry="3" style="stroke: #038048; stroke-width: 1.0;"/><text fill="#000000" font-family="sans-serif" font-size="11" lengthAdjust="spacingAndGlyphs" textLength="104" x="26" y="148.2182">void warn(String text)</text><ellipse cx="17" cy="159.2992" fill="#84BE84" rx="3" ry="3" style="stroke: #038048; stroke-width: 1.0;"/><text fill="#000000" font-family="sans-serif" font-size="11" lengthAdjust="spacingAndGlyphs" textLength="104" x="26" y="161.4182">void error(String text)</text><ellipse cx="17" cy="172.4991" fill="#84BE84" rx="3" ry="3" style="stroke: #038048; stroke-width: 1.0;"/><text fill="#000000" font-family="sans-serif" font-size="11" lengthAdjust="spacingAndGlyphs" textLength="205" x="26" y="174.6181">void showList(String message,List&lt;T&gt; list)</text><ellipse cx="17" cy="185.699" fill="#84BE84" rx="3" ry="3" style="stroke: #038048; stroke-width: 1.0;"/><text fill="#000000" font-family="sans-serif" font-size="11" lengthAdjust="spacingAndGlyphs" textLength="103" x="26" y="187.818">String getPassword()</text><ellipse cx="17" cy="198.8989" fill="#84BE84" rx="3" ry="3" style="stroke: #038048; stroke-width: 1.0;"/><text fill="#000000" font-family="sans-serif" font-size="11" lengthAdjust="spacingAndGlyphs" textLength="168" x="26" y="201.0179">String getPassword(String prompt)</text><ellipse cx="17" cy="212.0988" fill="#84BE84" rx="3" ry="3" style="stroke: #038048; stroke-width: 1.0;"/><text fill="#000000" font-family="sans-serif" font-size="11" lengthAdjust="spacingAndGlyphs" textLength="119" x="26" y="214.2178">String get(String prompt)</text><ellipse cx="17" cy="225.2987" fill="#84BE84" rx="3" ry="3" style="stroke: #038048; stroke-width: 1.0;"/><text fill="#000000" font-family="sans-serif" font-size="11" lengthAdjust="spacingAndGlyphs" textLength="139" x="26" y="227.4177">String getLine(String prompt)</text><ellipse cx="17" cy="238.4986" fill="#84BE84" rx="3" ry="3" style="stroke: #038048; stroke-width: 1.0;"/><text fill="#000000" font-family="sans-serif" font-size="11" lengthAdjust="spacingAndGlyphs" textLength="314" x="26" y="240.6176">String getLine(String prompt,Function&lt;String, Boolean&gt; available)</text><ellipse cx="17" cy="251.6985" fill="#84BE84" rx="3" ry="3" style="stroke: #038048; stroke-width: 1.0;"/><text fill="#000000" font-family="sans-serif" font-size="11" lengthAdjust="spacingAndGlyphs" textLength="541" x="26" y="253.8175">Object getLineWithConversion(String prompt,Function&lt;String, V&gt; conversionMap,String nonValidErrorMessage)</text><ellipse cx="17" cy="264.8984" fill="#84BE84" rx="3" ry="3" style="stroke: #038048; stroke-width: 1.0;"/><text fill="#000000" font-family="sans-serif" font-size="11" lengthAdjust="spacingAndGlyphs" textLength="288" x="26" y="267.0174">String getTrimmedLine(String prompt,boolean canBeEmpty)</text><ellipse cx="17" cy="278.0983" fill="#84BE84" rx="3" ry="3" style="stroke: #038048; stroke-width: 1.0;"/><text fill="#000000" font-family="sans-serif" font-size="11" lengthAdjust="spacingAndGlyphs" textLength="440" x="26" y="280.2173">int getInt(String prompt,Function&lt;Integer, Boolean&gt; available,String nonValidErrorMessage)</text><ellipse cx="17" cy="291.2982" fill="#84BE84" rx="3" ry="3" style="stroke: #038048; stroke-width: 1.0;"/><text fill="#000000" font-family="sans-serif" font-size="11" lengthAdjust="spacingAndGlyphs" textLength="295" x="26" y="293.4172">int getInt(String prompt,Function&lt;Integer, Boolean&gt; available)</text><ellipse cx="17" cy="304.4981" fill="#84BE84" rx="3" ry="3" style="stroke: #038048; stroke-width: 1.0;"/><text fill="#000000" font-family="sans-serif" font-size="11" lengthAdjust="spacingAndGlyphs" textLength="114" x="26" y="306.6171">int getInt(String prompt)</text><ellipse cx="17" cy="317.698" fill="#84BE84" rx="3" ry="3" style="stroke: #038048; stroke-width: 1.0;"/><text fill="#000000" font-family="sans-serif" font-size="11" lengthAdjust="spacingAndGlyphs" textLength="727" x="26" y="319.817">List&lt;V&gt; getGenericList(String prompt,boolean unique,Function&lt;String, V&gt; conversionMap,String duplicateErrorMessage,String nonValidErrorMessage)</text><ellipse cx="17" cy="330.8979" fill="#84BE84" rx="3" ry="3" style="stroke: #038048; stroke-width: 1.0;"/><text fill="#000000" font-family="sans-serif" font-size="11" lengthAdjust="spacingAndGlyphs" textLength="435" x="26" y="333.0169">List&lt;V&gt; getGenericList(String prompt,boolean unique,Function&lt;String, V&gt; conversionMap)</text><ellipse cx="17" cy="344.0978" fill="#84BE84" rx="3" ry="3" style="stroke: #038048; stroke-width: 1.0;"/><text fill="#000000" font-family="sans-serif" font-size="11" lengthAdjust="spacingAndGlyphs" textLength="561" x="26" y="346.2168">List&lt;String&gt; getStringList(String prompt,boolean unique,String duplicateErrorMessage,String nonValidErrorMessage)</text><ellipse cx="17" cy="357.2977" fill="#84BE84" rx="3" ry="3" style="stroke: #038048; stroke-width: 1.0;"/><text fill="#000000" font-family="sans-serif" font-size="11" lengthAdjust="spacingAndGlyphs" textLength="269" x="26" y="359.4167">List&lt;String&gt; getStringList(String prompt,boolean unique)</text><ellipse cx="17" cy="370.4976" fill="#84BE84" rx="3" ry="3" style="stroke: #038048; stroke-width: 1.0;"/><text fill="#000000" font-family="sans-serif" font-size="11" lengthAdjust="spacingAndGlyphs" textLength="350" x="26" y="372.6166">MenuAction&lt;T&gt; chooseOption(List&lt;MenuAction&gt; choices,String prompt)</text></a><!--class java.io.PrintStream--><rect fill="#D3D3D3" filter="url(#f0fbtz2)" height="38.7999" style="stroke: #A80036; stroke-width: 1.5;" width="111" x="38" y="441.5"/><rect fill="#D3D3D3" height="38.7999" style="stroke: #A80036; stroke-width: 1.5;" width="111" x="38" y="441.5"/><ellipse cx="53" cy="460.9" fill="#ADD1B2" rx="11" ry="11" style="stroke: #A80036; stroke-width: 1.0;"/><path d="M48,462.0562 C48,464.5562 50.1406,466.3687 53.0625,466.3687 C54.2969,466.3687 55.4688,466.0718 56.2188,465.5562 C56.8281,465.1343 57.1563,464.7125 57.1563,464.3062 C57.1563,463.8375 56.7344,463.4312 56.2344,463.4312 C56,463.4312 55.7813,463.5093 55.5781,463.7125 C55.1406,464.15 55.1406,464.15 54.9688,464.2437 C54.5156,464.4781 53.875,464.6187 53.1094,464.6187 C51.1094,464.6187 49.8281,463.6031 49.8281,462.025 L49.8281,460.9781 C49.8281,459.275 51.0469,458.0718 52.75,458.0718 C53.3281,458.0718 53.9063,458.2125 54.375,458.4625 C54.8438,458.7281 55.0156,458.9156 55.0781,459.275 C55.2031,459.9468 55.4531,460.1968 55.9844,460.1968 C56.2656,460.1968 56.5469,460.0562 56.7344,459.8375 C56.8594,459.6656 56.9063,459.4937 56.9063,459.0562 L56.9063,457.6968 C56.9063,457.275 56.8906,457.1343 56.7656,456.9625 C56.5938,456.7125 56.3125,456.5562 55.9844,456.5562 C55.6719,456.5562 55.4688,456.6656 55.25,456.9312 C54.0781,456.4312 53.6406,456.3218 52.6875,456.3218 C50.0156,456.3218 48,458.3375 48,460.9625 L48,462.0562 Z "/><text fill="#000000" font-family="sans-serif" font-size="14" font-weight="bold" lengthAdjust="spacingAndGlyphs" textLength="79" x="67" y="459.5059">PrintStream</text><text fill="#000000" font-family="sans-serif" font-size="10" lengthAdjust="spacingAndGlyphs" textLength="30" x="91.5" y="472.5899">java.io</text><!--class it.matlice.ingsw.view.View--><a target="_parent" xlink:actuate="onRequest" xlink:href="../../../../../it/matlice/ingsw/view/View.html" xlink:show="new" xlink:title="it.matlice.ingsw.view.View" xlink:type="simple"><rect fill="#FFFFFF" filter="url(#f0fbtz2)" height="42.3999" style="stroke: #A80036; stroke-width: 1.5;" width="124" x="184.5" y="440"/><rect fill="#FFFFFF" height="42.3999" style="stroke: #A80036; stroke-width: 1.5;" width="124" x="184.5" y="440"/><ellipse cx="199.5" cy="461.2" fill="#B4A7E5" rx="11" ry="11" style="stroke: #A80036; stroke-width: 1.0;"/><path d="M200.5156,458.3562 L202.1719,458.3562 C202.5625,458.3562 202.7656,458.325 202.9219,458.2468 C203.1875,458.075 203.3594,457.7781 203.3594,457.4812 C203.3594,457.2 203.2188,456.95 202.9844,456.7781 C202.7969,456.6531 202.6406,456.6062 202.1719,456.6062 L197.0313,456.6062 C196.5938,456.6062 196.4531,456.6218 196.2813,456.7312 C196.0156,456.9031 195.8438,457.1843 195.8438,457.4812 C195.8438,457.7625 195.9844,458.0437 196.2188,458.2 C196.4063,458.325 196.5938,458.3562 197.0313,458.3562 L198.6875,458.3562 L198.6875,464.45 L197.0313,464.45 C196.5938,464.45 196.4531,464.4656 196.2813,464.575 C196.0156,464.7312 195.8438,465.0281 195.8438,465.3093 C195.8438,465.9187 196.25,466.2 197.0313,466.2 L202.1719,466.2 C202.9531,466.2 203.3594,465.9187 203.3594,465.3093 C203.3594,465.0437 203.2188,464.7937 202.9844,464.6218 C202.7969,464.4812 202.625,464.45 202.1719,464.45 L200.5156,464.45 L200.5156,458.3562 Z "/><text fill="#000000" font-family="sans-serif" font-size="14" font-style="italic" font-weight="bold" lengthAdjust="spacingAndGlyphs" textLength="32" x="243.5" y="460.3999">View</text><text fill="#000000" font-family="sans-serif" font-size="10" font-style="italic" lengthAdjust="spacingAndGlyphs" textLength="92" x="213.5" y="474.8999">it.matlice.ingsw.view</text></a><!--class java.lang.Object--><rect fill="#D3D3D3" filter="url(#f0fbtz2)" height="38.7999" style="stroke: #A80036; stroke-width: 1.5;" width="77" x="344" y="441.5"/><rect fill="#D3D3D3" height="38.7999" style="stroke: #A80036; stroke-width: 1.5;" width="77" x="344" y="441.5"/><ellipse cx="359" cy="460.9" fill="#ADD1B2" rx="11" ry="11" style="stroke: #A80036; stroke-width: 1.0;"/><path d="M354,462.0562 C354,464.5562 356.1406,466.3687 359.0625,466.3687 C360.2969,466.3687 361.4688,466.0718 362.2188,465.5562 C362.8281,465.1343 363.1563,464.7125 363.1563,464.3062 C363.1563,463.8375 362.7344,463.4312 362.2344,463.4312 C362,463.4312 361.7813,463.5093 361.5781,463.7125 C361.1406,464.15 361.1406,464.15 360.9688,464.2437 C360.5156,464.4781 359.875,464.6187 359.1094,464.6187 C357.1094,464.6187 355.8281,463.6031 355.8281,462.025 L355.8281,460.9781 C355.8281,459.275 357.0469,458.0718 358.75,458.0718 C359.3281,458.0718 359.9063,458.2125 360.375,458.4625 C360.8438,458.7281 361.0156,458.9156 361.0781,459.275 C361.2031,459.9468 361.4531,460.1968 361.9844,460.1968 C362.2656,460.1968 362.5469,460.0562 362.7344,459.8375 C362.8594,459.6656 362.9063,459.4937 362.9063,459.0562 L362.9063,457.6968 C362.9063,457.275 362.8906,457.1343 362.7656,456.9625 C362.5938,456.7125 362.3125,456.5562 361.9844,456.5562 C361.6719,456.5562 361.4688,456.6656 361.25,456.9312 C360.0781,456.4312 359.6406,456.3218 358.6875,456.3218 C356.0156,456.3218 354,458.3375 354,460.9625 L354,462.0562 Z "/><text fill="#000000" font-family="sans-serif" font-size="14" font-weight="bold" lengthAdjust="spacingAndGlyphs" textLength="45" x="373" y="459.5059">Object</text><text fill="#000000" font-family="sans-serif" font-size="10" lengthAdjust="spacingAndGlyphs" textLength="42" x="374.5" y="472.5899">java.lang</text><!--class it.matlice.ingsw.controller.MenuActionBoolean--><a target="_parent" xlink:actuate="onRequest" xlink:href="../../../../../it/matlice/ingsw/controller/MenuAction.html" xlink:show="new" xlink:title="it.matlice.ingsw.controller.MenuAction" xlink:type="simple"><rect fill="#D3D3D3" filter="url(#f0fbtz2)" height="38.7999" style="stroke: #A80036; stroke-width: 1.5;" width="188" x="456.5" y="441.5"/><rect fill="#D3D3D3" height="38.7999" style="stroke: #A80036; stroke-width: 1.5;" width="188" x="456.5" y="441.5"/><ellipse cx="471.5" cy="460.9" fill="#ADD1B2" rx="11" ry="11" style="stroke: #A80036; stroke-width: 1.0;"/><path d="M466.5,462.0562 C466.5,464.5562 468.6406,466.3687 471.5625,466.3687 C472.7969,466.3687 473.9688,466.0718 474.7188,465.5562 C475.3281,465.1343 475.6563,464.7125 475.6563,464.3062 C475.6563,463.8375 475.2344,463.4312 474.7344,463.4312 C474.5,463.4312 474.2813,463.5093 474.0781,463.7125 C473.6406,464.15 473.6406,464.15 473.4688,464.2437 C473.0156,464.4781 472.375,464.6187 471.6094,464.6187 C469.6094,464.6187 468.3281,463.6031 468.3281,462.025 L468.3281,460.9781 C468.3281,459.275 469.5469,458.0718 471.25,458.0718 C471.8281,458.0718 472.4063,458.2125 472.875,458.4625 C473.3438,458.7281 473.5156,458.9156 473.5781,459.275 C473.7031,459.9468 473.9531,460.1968 474.4844,460.1968 C474.7656,460.1968 475.0469,460.0562 475.2344,459.8375 C475.3594,459.6656 475.4063,459.4937 475.4063,459.0562 L475.4063,457.6968 C475.4063,457.275 475.3906,457.1343 475.2656,456.9625 C475.0938,456.7125 474.8125,456.5562 474.4844,456.5562 C474.1719,456.5562 473.9688,456.6656 473.75,456.9312 C472.5781,456.4312 472.1406,456.3218 471.1875,456.3218 C468.5156,456.3218 466.5,458.3375 466.5,460.9625 L466.5,462.0562 Z "/><text fill="#000000" font-family="sans-serif" font-size="14" font-weight="bold" lengthAdjust="spacingAndGlyphs" textLength="156" x="485.5" y="459.5059">MenuAction&lt;Boolean&gt;</text><text fill="#000000" font-family="sans-serif" font-size="10" lengthAdjust="spacingAndGlyphs" textLength="114" x="506.5" y="472.5899">it.matlice.ingsw.controller</text></a><!--class it.matlice.ingsw.controller.MenuActionObject--><a target="_parent" xlink:actuate="onRequest" xlink:href="../../../../../it/matlice/ingsw/controller/MenuAction.html" xlink:show="new" xlink:title="it.matlice.ingsw.controller.MenuAction" xlink:type="simple"><rect fill="#D3D3D3" filter="url(#f0fbtz2)" height="38.7999" style="stroke: #A80036; stroke-width: 1.5;" width="146" x="679.5" y="441.5"/><rect fill="#D3D3D3" height="38.7999" style="stroke: #A80036; stroke-width: 1.5;" width="146" x="679.5" y="441.5"/><ellipse cx="694.5" cy="460.9" fill="#ADD1B2" rx="11" ry="11" style="stroke: #A80036; stroke-width: 1.0;"/><path d="M689.5,462.0562 C689.5,464.5562 691.6406,466.3687 694.5625,466.3687 C695.7969,466.3687 696.9688,466.0718 697.7188,465.5562 C698.3281,465.1343 698.6563,464.7125 698.6563,464.3062 C698.6563,463.8375 698.2344,463.4312 697.7344,463.4312 C697.5,463.4312 697.2813,463.5093 697.0781,463.7125 C696.6406,464.15 696.6406,464.15 696.4688,464.2437 C696.0156,464.4781 695.375,464.6187 694.6094,464.6187 C692.6094,464.6187 691.3281,463.6031 691.3281,462.025 L691.3281,460.9781 C691.3281,459.275 692.5469,458.0718 694.25,458.0718 C694.8281,458.0718 695.4063,458.2125 695.875,458.4625 C696.3438,458.7281 696.5156,458.9156 696.5781,459.275 C696.7031,459.9468 696.9531,460.1968 697.4844,460.1968 C697.7656,460.1968 698.0469,460.0562 698.2344,459.8375 C698.3594,459.6656 698.4063,459.4937 698.4063,459.0562 L698.4063,457.6968 C698.4063,457.275 698.3906,457.1343 698.2656,456.9625 C698.0938,456.7125 697.8125,456.5562 697.4844,456.5562 C697.1719,456.5562 696.9688,456.6656 696.75,456.9312 C695.5781,456.4312 695.1406,456.3218 694.1875,456.3218 C691.5156,456.3218 689.5,458.3375 689.5,460.9625 L689.5,462.0562 Z "/><text fill="#000000" font-family="sans-serif" font-size="14" font-weight="bold" lengthAdjust="spacingAndGlyphs" textLength="108" x="711.5" y="459.5059">MenuAction&lt;T&gt;</text><text fill="#000000" font-family="sans-serif" font-size="10" lengthAdjust="spacingAndGlyphs" textLength="114" x="708.5" y="472.5899">it.matlice.ingsw.controller</text></a><path d="M93.5,380.17 C93.5,380.17 93.5,436.48 93.5,436.48 " fill="none" style="stroke: #A80036; stroke-width: 1.0;"/><polygon fill="#A80036" points="93.5,441.48,97.5,432.48,93.5,436.48,89.5,432.48,93.5,441.48" style="stroke: #A80036; stroke-width: 1.0;"/><text fill="#000000" font-family="sans-serif" font-size="13" lengthAdjust="spacingAndGlyphs" textLength="18" x="72.6313" y="430.0719">out</text><path d="M246.5,380.17 C246.5,380.17 246.5,419.88 246.5,419.88 " fill="none" style="stroke: #A80036; stroke-width: 1.0; stroke-dasharray: 7.0,7.0;"/><polygon fill="none" points="253.5,419.88,246.5,439.88,239.5,419.88,253.5,419.88" style="stroke: #A80036; stroke-width: 1.0;"/><path d="M382.5,380.17 C382.5,380.17 382.5,436.48 382.5,436.48 " fill="none" style="stroke: #A80036; stroke-width: 1.0; stroke-dasharray: 7.0,7.0;"/><polygon fill="#A80036" points="382.5,441.48,386.5,432.48,382.5,436.48,378.5,432.48,382.5,441.48" style="stroke: #A80036; stroke-width: 1.0;"/><path d="M550.5,380.17 C550.5,380.17 550.5,436.48 550.5,436.48 " fill="none" style="stroke: #A80036; stroke-width: 1.0; stroke-dasharray: 7.0,7.0;"/><polygon fill="#A80036" points="550.5,441.48,554.5,432.48,550.5,436.48,546.5,432.48,550.5,441.48" style="stroke: #A80036; stroke-width: 1.0;"/><path d="M719.25,380.17 C719.25,380.17 719.25,436.48 719.25,436.48 " fill="none" style="stroke: #A80036; stroke-width: 1.0; stroke-dasharray: 7.0,7.0;"/><polygon fill="#A80036" points="719.25,441.48,723.25,432.48,719.25,436.48,715.25,432.48,719.25,441.48" style="stroke: #A80036; stroke-width: 1.0;"/></g></svg>