<?xml version="1.0" encoding="UTF-8" standalone="no"?><svg xmlns="http://www.w3.org/2000/svg" xmlns:xlink="http://www.w3.org/1999/xlink" contentScriptType="application/ecmascript" contentStyleType="text/css" height="386px" preserveAspectRatio="none" style="width:1513px;height:386px;" version="1.1" viewBox="0 0 1513 386" width="1513px" zoomAndPan="magnify"><defs><filter height="300%" id="fxvlp83" width="300%" x="-1" y="-1"><feGaussianBlur result="blurOut" stdDeviation="2.0"/><feColorMatrix in="blurOut" result="blurOut2" type="matrix" values="0 0 0 0 0 0 0 0 0 0 0 0 0 0 0 0 0 0 .4 0"/><feOffset dx="4.0" dy="4.0" in="blurOut2" result="blurOut3"/><feBlend in="SourceGraphic" in2="blurOut3" mode="normal"/></filter></defs><g><!--class it.matlice.ingsw.model.data.impl.jdbc.db.CategoryDB--><a target="_parent" xlink:actuate="onRequest" xlink:href="../../../../../../../../it/matlice/ingsw/model/data/impl/jdbc/db/CategoryDB.html" xlink:show="new" xlink:title="it.matlice.ingsw.model.data.impl.jdbc.db.CategoryDB" xlink:type="simple"><rect fill="#FEFECE" filter="url(#fxvlp83)" height="242.5987" style="stroke: #A80036; stroke-width: 1.5;" width="431" x="523.5" y="123"/><ellipse cx="643.75" cy="150.5" fill="#ADD1B2" rx="11" ry="11" style="stroke: #A80036; stroke-width: 1.0;"/><path d="M638.75,151.6563 C638.75,154.1563 640.8906,155.9688 643.8125,155.9688 C645.0469,155.9688 646.2188,155.6719 646.9688,155.1563 C647.5781,154.7344 647.9063,154.3125 647.9063,153.9063 C647.9063,153.4375 647.4844,153.0313 646.9844,153.0313 C646.75,153.0313 646.5313,153.1094 646.3281,153.3125 C645.8906,153.75 645.8906,153.75 645.7188,153.8438 C645.2656,154.0781 644.625,154.2188 643.8594,154.2188 C641.8594,154.2188 640.5781,153.2031 640.5781,151.625 L640.5781,150.5781 C640.5781,148.875 641.7969,147.6719 643.5,147.6719 C644.0781,147.6719 644.6563,147.8125 645.125,148.0625 C645.5938,148.3281 645.7656,148.5156 645.8281,148.875 C645.9531,149.5469 646.2031,149.7969 646.7344,149.7969 C647.0156,149.7969 647.2969,149.6563 647.4844,149.4375 C647.6094,149.2656 647.6563,149.0938 647.6563,148.6563 L647.6563,147.2969 C647.6563,146.875 647.6406,146.7344 647.5156,146.5625 C647.3438,146.3125 647.0625,146.1563 646.7344,146.1563 C646.4219,146.1563 646.2188,146.2656 646,146.5313 C644.8281,146.0313 644.3906,145.9219 643.4375,145.9219 C640.7656,145.9219 638.75,147.9375 638.75,150.5625 L638.75,151.6563 Z "/><text fill="#000000" font-family="sans-serif" font-size="12" font-style="italic" lengthAdjust="spacingAndGlyphs" textLength="98" x="706.25" y="141.2001">«DatabaseTable»</text><text fill="#000000" font-family="sans-serif" font-size="14" font-weight="bold" lengthAdjust="spacingAndGlyphs" textLength="82" x="714.25" y="157.2061">CategoryDB</text><text fill="#000000" font-family="sans-serif" font-size="10" lengthAdjust="spacingAndGlyphs" textLength="182" x="664.25" y="170.29">it.matlice.ingsw.model.data.impl.jdbc.db</text><line style="stroke: #A80036; stroke-width: 1.5;" x1="524.5" x2="953.5" y1="178" y2="178"/><rect fill="none" height="6" style="stroke: #C82930; stroke-width: 1.0;" width="6" x="531.5" y="187.1"/><text fill="#000000" font-family="sans-serif" font-size="11" lengthAdjust="spacingAndGlyphs" textLength="71" x="543.5" y="192.219">int category_id</text><rect fill="none" height="6" style="stroke: #C82930; stroke-width: 1.0;" width="6" x="531.5" y="200.2999"/><text fill="#000000" font-family="sans-serif" font-size="11" lengthAdjust="spacingAndGlyphs" textLength="107" x="543.5" y="205.4189">String category_name</text><rect fill="none" height="6" style="stroke: #C82930; stroke-width: 1.0;" width="6" x="531.5" y="213.4998"/><text fill="#000000" font-family="sans-serif" font-size="11" lengthAdjust="spacingAndGlyphs" textLength="133" x="543.5" y="218.6188">String category_description</text><rect fill="none" height="6" style="stroke: #C82930; stroke-width: 1.0;" width="6" x="531.5" y="226.6997"/><text fill="#000000" font-family="sans-serif" font-size="11" lengthAdjust="spacingAndGlyphs" textLength="91" x="543.5" y="231.8187">CategoryDB father</text><line style="stroke: #A80036; stroke-width: 1.5;" x1="524.5" x2="953.5" y1="238.7996" y2="238.7996"/><ellipse cx="534.5" cy="250.8996" fill="#84BE84" rx="3" ry="3" style="stroke: #038048; stroke-width: 1.0;"/><text fill="#000000" font-family="sans-serif" font-size="11" lengthAdjust="spacingAndGlyphs" textLength="405" x="543.5" y="253.0186">CategoryDB(String category_name,String category_description,CategoryDB father)</text><polygon fill="#4177AF" points="534.5,260.0995,530.5,266.0995,538.5,266.0995" style="stroke: #1963A0; stroke-width: 1.0;"/><text fill="#000000" font-family="sans-serif" font-size="11" lengthAdjust="spacingAndGlyphs" textLength="68" x="543.5" y="266.2185">CategoryDB()</text><ellipse cx="534.5" cy="277.2994" fill="#84BE84" rx="3" ry="3" style="stroke: #038048; stroke-width: 1.0;"/><text fill="#000000" font-family="sans-serif" font-size="11" lengthAdjust="spacingAndGlyphs" textLength="169" x="543.5" y="279.4184">void setFather(CategoryDB father)</text><ellipse cx="534.5" cy="290.4993" fill="#84BE84" rx="3" ry="3" style="stroke: #038048; stroke-width: 1.0;"/><text fill="#000000" font-family="sans-serif" font-size="11" lengthAdjust="spacingAndGlyphs" textLength="91" x="543.5" y="292.6183">int getCategoryId()</text><ellipse cx="534.5" cy="303.6992" fill="#84BE84" rx="3" ry="3" style="stroke: #038048; stroke-width: 1.0;"/><text fill="#000000" font-family="sans-serif" font-size="11" lengthAdjust="spacingAndGlyphs" textLength="154" x="543.5" y="305.8182">String getCategoryDescription()</text><ellipse cx="534.5" cy="316.8991" fill="#84BE84" rx="3" ry="3" style="stroke: #038048; stroke-width: 1.0;"/><text fill="#000000" font-family="sans-serif" font-size="11" lengthAdjust="spacingAndGlyphs" textLength="128" x="543.5" y="319.0181">String getCategoryName()</text><ellipse cx="534.5" cy="330.099" fill="#84BE84" rx="3" ry="3" style="stroke: #038048; stroke-width: 1.0;"/><text fill="#000000" font-family="sans-serif" font-size="11" lengthAdjust="spacingAndGlyphs" textLength="118" x="543.5" y="332.218">CategoryDB getFather()</text><ellipse cx="534.5" cy="343.2989" fill="#84BE84" rx="3" ry="3" style="stroke: #038048; stroke-width: 1.0;"/><text fill="#000000" font-family="sans-serif" font-size="11" lengthAdjust="spacingAndGlyphs" textLength="122" x="543.5" y="345.4179">boolean equals(Object o)</text><ellipse cx="534.5" cy="356.4988" fill="#84BE84" rx="3" ry="3" style="stroke: #038048; stroke-width: 1.0;"/><text fill="#000000" font-family="sans-serif" font-size="11" lengthAdjust="spacingAndGlyphs" textLength="72" x="543.5" y="358.6178">int hashCode()</text></a><!--class it.matlice.ingsw.model.data.impl.jdbc.db.OfferDB--><a target="_parent" xlink:actuate="onRequest" xlink:href="../../../../../../../../it/matlice/ingsw/model/data/impl/jdbc/db/OfferDB.html" xlink:show="new" xlink:title="it.matlice.ingsw.model.data.impl.jdbc.db.OfferDB" xlink:type="simple"><rect fill="#FEFECE" filter="url(#fxvlp83)" height="55" style="stroke: #A80036; stroke-width: 1.5;" width="214" x="6" y="8"/><ellipse cx="21" cy="35.5" fill="#ADD1B2" rx="11" ry="11" style="stroke: #A80036; stroke-width: 1.0;"/><path d="M16,36.6563 C16,39.1563 18.1406,40.9688 21.0625,40.9688 C22.2969,40.9688 23.4688,40.6719 24.2188,40.1563 C24.8281,39.7344 25.1563,39.3125 25.1563,38.9063 C25.1563,38.4375 24.7344,38.0313 24.2344,38.0313 C24,38.0313 23.7813,38.1094 23.5781,38.3125 C23.1406,38.75 23.1406,38.75 22.9688,38.8438 C22.5156,39.0781 21.875,39.2188 21.1094,39.2188 C19.1094,39.2188 17.8281,38.2031 17.8281,36.625 L17.8281,35.5781 C17.8281,33.875 19.0469,32.6719 20.75,32.6719 C21.3281,32.6719 21.9063,32.8125 22.375,33.0625 C22.8438,33.3281 23.0156,33.5156 23.0781,33.875 C23.2031,34.5469 23.4531,34.7969 23.9844,34.7969 C24.2656,34.7969 24.5469,34.6563 24.7344,34.4375 C24.8594,34.2656 24.9063,34.0938 24.9063,33.6563 L24.9063,32.2969 C24.9063,31.875 24.8906,31.7344 24.7656,31.5625 C24.5938,31.3125 24.3125,31.1563 23.9844,31.1563 C23.6719,31.1563 23.4688,31.2656 23.25,31.5313 C22.0781,31.0313 21.6406,30.9219 20.6875,30.9219 C18.0156,30.9219 16,32.9375 16,35.5625 L16,36.6563 Z "/><text fill="#000000" font-family="sans-serif" font-size="12" font-style="italic" lengthAdjust="spacingAndGlyphs" textLength="98" x="77" y="26.2001">«DatabaseTable»</text><text fill="#000000" font-family="sans-serif" font-size="14" font-weight="bold" lengthAdjust="spacingAndGlyphs" textLength="54" x="99" y="42.2061">OfferDB</text><text fill="#000000" font-family="sans-serif" font-size="10" lengthAdjust="spacingAndGlyphs" textLength="182" x="35" y="55.29">it.matlice.ingsw.model.data.impl.jdbc.db</text></a><!--class it.matlice.ingsw.model.data.impl.jdbc.db.HierarchyDB--><a target="_parent" xlink:actuate="onRequest" xlink:href="../../../../../../../../it/matlice/ingsw/model/data/impl/jdbc/db/HierarchyDB.html" xlink:show="new" xlink:title="it.matlice.ingsw.model.data.impl.jdbc.db.HierarchyDB" xlink:type="simple"><rect fill="#FEFECE" filter="url(#fxvlp83)" height="55" style="stroke: #A80036; stroke-width: 1.5;" width="214" x="255" y="8"/><ellipse cx="270" cy="35.5" fill="#ADD1B2" rx="11" ry="11" style="stroke: #A80036; stroke-width: 1.0;"/><path d="M265,36.6563 C265,39.1563 267.1406,40.9688 270.0625,40.9688 C271.2969,40.9688 272.4688,40.6719 273.2188,40.1563 C273.8281,39.7344 274.1563,39.3125 274.1563,38.9063 C274.1563,38.4375 273.7344,38.0313 273.2344,38.0313 C273,38.0313 272.7813,38.1094 272.5781,38.3125 C272.1406,38.75 272.1406,38.75 271.9688,38.8438 C271.5156,39.0781 270.875,39.2188 270.1094,39.2188 C268.1094,39.2188 266.8281,38.2031 266.8281,36.625 L266.8281,35.5781 C266.8281,33.875 268.0469,32.6719 269.75,32.6719 C270.3281,32.6719 270.9063,32.8125 271.375,33.0625 C271.8438,33.3281 272.0156,33.5156 272.0781,33.875 C272.2031,34.5469 272.4531,34.7969 272.9844,34.7969 C273.2656,34.7969 273.5469,34.6563 273.7344,34.4375 C273.8594,34.2656 273.9063,34.0938 273.9063,33.6563 L273.9063,32.2969 C273.9063,31.875 273.8906,31.7344 273.7656,31.5625 C273.5938,31.3125 273.3125,31.1563 272.9844,31.1563 C272.6719,31.1563 272.4688,31.2656 272.25,31.5313 C271.0781,31.0313 270.6406,30.9219 269.6875,30.9219 C267.0156,30.9219 265,32.9375 265,35.5625 L265,36.6563 Z "/><text fill="#000000" font-family="sans-serif" font-size="12" font-style="italic" lengthAdjust="spacingAndGlyphs" textLength="98" x="326" y="26.2001">«DatabaseTable»</text><text fill="#000000" font-family="sans-serif" font-size="14" font-weight="bold" lengthAdjust="spacingAndGlyphs" textLength="85" x="332.5" y="42.2061">HierarchyDB</text><text fill="#000000" font-family="sans-serif" font-size="10" lengthAdjust="spacingAndGlyphs" textLength="182" x="284" y="55.29">it.matlice.ingsw.model.data.impl.jdbc.db</text></a><!--class it.matlice.ingsw.model.data.impl.jdbc.db.CategoryFieldDB--><a target="_parent" xlink:actuate="onRequest" xlink:href="../../../../../../../../it/matlice/ingsw/model/data/impl/jdbc/db/CategoryFieldDB.html" xlink:show="new" xlink:title="it.matlice.ingsw.model.data.impl.jdbc.db.CategoryFieldDB" xlink:type="simple"><rect fill="#FEFECE" filter="url(#fxvlp83)" height="55" style="stroke: #A80036; stroke-width: 1.5;" width="214" x="504" y="8"/><ellipse cx="519" cy="35.5" fill="#ADD1B2" rx="11" ry="11" style="stroke: #A80036; stroke-width: 1.0;"/><path d="M514,36.6563 C514,39.1563 516.1406,40.9688 519.0625,40.9688 C520.2969,40.9688 521.4688,40.6719 522.2188,40.1563 C522.8281,39.7344 523.1563,39.3125 523.1563,38.9063 C523.1563,38.4375 522.7344,38.0313 522.2344,38.0313 C522,38.0313 521.7813,38.1094 521.5781,38.3125 C521.1406,38.75 521.1406,38.75 520.9688,38.8438 C520.5156,39.0781 519.875,39.2188 519.1094,39.2188 C517.1094,39.2188 515.8281,38.2031 515.8281,36.625 L515.8281,35.5781 C515.8281,33.875 517.0469,32.6719 518.75,32.6719 C519.3281,32.6719 519.9063,32.8125 520.375,33.0625 C520.8438,33.3281 521.0156,33.5156 521.0781,33.875 C521.2031,34.5469 521.4531,34.7969 521.9844,34.7969 C522.2656,34.7969 522.5469,34.6563 522.7344,34.4375 C522.8594,34.2656 522.9063,34.0938 522.9063,33.6563 L522.9063,32.2969 C522.9063,31.875 522.8906,31.7344 522.7656,31.5625 C522.5938,31.3125 522.3125,31.1563 521.9844,31.1563 C521.6719,31.1563 521.4688,31.2656 521.25,31.5313 C520.0781,31.0313 519.6406,30.9219 518.6875,30.9219 C516.0156,30.9219 514,32.9375 514,35.5625 L514,36.6563 Z "/><text fill="#000000" font-family="sans-serif" font-size="12" font-style="italic" lengthAdjust="spacingAndGlyphs" textLength="98" x="575" y="26.2001">«DatabaseTable»</text><text fill="#000000" font-family="sans-serif" font-size="14" font-weight="bold" lengthAdjust="spacingAndGlyphs" textLength="116" x="566" y="42.2061">CategoryFieldDB</text><text fill="#000000" font-family="sans-serif" font-size="10" lengthAdjust="spacingAndGlyphs" textLength="182" x="533" y="55.29">it.matlice.ingsw.model.data.impl.jdbc.db</text></a><!--class it.matlice.ingsw.model.data.impl.jdbc.types.NodeCategoryImpl--><a target="_parent" xlink:actuate="onRequest" xlink:href="../../../../../../../../it/matlice/ingsw/model/data/impl/jdbc/types/NodeCategoryImpl.html" xlink:show="new" xlink:title="it.matlice.ingsw.model.data.impl.jdbc.types.NodeCategoryImpl" xlink:type="simple"><rect fill="#FFFFFF" filter="url(#fxvlp83)" height="38.7999" style="stroke: #A80036; stroke-width: 1.5;" width="227" x="753.5" y="16"/><rect fill="#FFFFFF" height="38.7999" style="stroke: #A80036; stroke-width: 1.5;" width="227" x="753.5" y="16"/><ellipse cx="768.5" cy="35.4" fill="#ADD1B2" rx="11" ry="11" style="stroke: #A80036; stroke-width: 1.0;"/><path d="M763.5,36.5562 C763.5,39.0562 765.6406,40.8687 768.5625,40.8687 C769.7969,40.8687 770.9688,40.5718 771.7188,40.0562 C772.3281,39.6343 772.6563,39.2125 772.6563,38.8062 C772.6563,38.3375 772.2344,37.9312 771.7344,37.9312 C771.5,37.9312 771.2813,38.0093 771.0781,38.2125 C770.6406,38.65 770.6406,38.65 770.4688,38.7437 C770.0156,38.9781 769.375,39.1187 768.6094,39.1187 C766.6094,39.1187 765.3281,38.1031 765.3281,36.525 L765.3281,35.4781 C765.3281,33.775 766.5469,32.5718 768.25,32.5718 C768.8281,32.5718 769.4063,32.7125 769.875,32.9625 C770.3438,33.2281 770.5156,33.4156 770.5781,33.775 C770.7031,34.4468 770.9531,34.6968 771.4844,34.6968 C771.7656,34.6968 772.0469,34.5562 772.2344,34.3375 C772.3594,34.1656 772.4063,33.9937 772.4063,33.5562 L772.4063,32.1968 C772.4063,31.775 772.3906,31.6343 772.2656,31.4625 C772.0938,31.2125 771.8125,31.0562 771.4844,31.0562 C771.1719,31.0562 770.9688,31.1656 770.75,31.4312 C769.5781,30.9312 769.1406,30.8218 768.1875,30.8218 C765.5156,30.8218 763.5,32.8375 763.5,35.4625 L763.5,36.5562 Z "/><text fill="#000000" font-family="sans-serif" font-size="14" font-weight="bold" lengthAdjust="spacingAndGlyphs" textLength="127" x="816.5" y="34.0059">NodeCategoryImpl</text><text fill="#000000" font-family="sans-serif" font-size="10" lengthAdjust="spacingAndGlyphs" textLength="195" x="782.5" y="47.0899">it.matlice.ingsw.model.data.impl.jdbc.types</text></a><!--class it.matlice.ingsw.model.data.impl.jdbc.types.LeafCategoryImpl--><a target="_parent" xlink:actuate="onRequest" xlink:href="../../../../../../../../it/matlice/ingsw/model/data/impl/jdbc/types/LeafCategoryImpl.html" xlink:show="new" xlink:title="it.matlice.ingsw.model.data.impl.jdbc.types.LeafCategoryImpl" xlink:type="simple"><rect fill="#FFFFFF" filter="url(#fxvlp83)" height="38.7999" style="stroke: #A80036; stroke-width: 1.5;" width="227" x="1015.5" y="16"/><rect fill="#FFFFFF" height="38.7999" style="stroke: #A80036; stroke-width: 1.5;" width="227" x="1015.5" y="16"/><ellipse cx="1030.5" cy="35.4" fill="#ADD1B2" rx="11" ry="11" style="stroke: #A80036; stroke-width: 1.0;"/><path d="M1025.5,36.5562 C1025.5,39.0562 1027.6406,40.8687 1030.5625,40.8687 C1031.7969,40.8687 1032.9688,40.5718 1033.7188,40.0562 C1034.3281,39.6343 1034.6563,39.2125 1034.6563,38.8062 C1034.6563,38.3375 1034.2344,37.9312 1033.7344,37.9312 C1033.5,37.9312 1033.2813,38.0093 1033.0781,38.2125 C1032.6406,38.65 1032.6406,38.65 1032.4688,38.7437 C1032.0156,38.9781 1031.375,39.1187 1030.6094,39.1187 C1028.6094,39.1187 1027.3281,38.1031 1027.3281,36.525 L1027.3281,35.4781 C1027.3281,33.775 1028.5469,32.5718 1030.25,32.5718 C1030.8281,32.5718 1031.4063,32.7125 1031.875,32.9625 C1032.3438,33.2281 1032.5156,33.4156 1032.5781,33.775 C1032.7031,34.4468 1032.9531,34.6968 1033.4844,34.6968 C1033.7656,34.6968 1034.0469,34.5562 1034.2344,34.3375 C1034.3594,34.1656 1034.4063,33.9937 1034.4063,33.5562 L1034.4063,32.1968 C1034.4063,31.775 1034.3906,31.6343 1034.2656,31.4625 C1034.0938,31.2125 1033.8125,31.0562 1033.4844,31.0562 C1033.1719,31.0562 1032.9688,31.1656 1032.75,31.4312 C1031.5781,30.9312 1031.1406,30.8218 1030.1875,30.8218 C1027.5156,30.8218 1025.5,32.8375 1025.5,35.4625 L1025.5,36.5562 Z "/><text fill="#000000" font-family="sans-serif" font-size="14" font-weight="bold" lengthAdjust="spacingAndGlyphs" textLength="121" x="1081.5" y="34.0059">LeafCategoryImpl</text><text fill="#000000" font-family="sans-serif" font-size="10" lengthAdjust="spacingAndGlyphs" textLength="195" x="1044.5" y="47.0899">it.matlice.ingsw.model.data.impl.jdbc.types</text></a><!--class it.matlice.ingsw.model.data.impl.jdbc.types.CategoryImpl--><a target="_parent" xlink:actuate="onRequest" xlink:href="../../../../../../../../it/matlice/ingsw/model/data/impl/jdbc/types/CategoryImpl.html" xlink:show="new" xlink:title="it.matlice.ingsw.model.data.impl.jdbc.types.CategoryImpl" xlink:type="simple"><rect fill="#FFFFFF" filter="url(#fxvlp83)" height="42.3999" style="stroke: #A80036; stroke-width: 1.5;" width="227" x="1277.5" y="14.5"/><rect fill="#FFFFFF" height="42.3999" style="stroke: #A80036; stroke-width: 1.5;" width="227" x="1277.5" y="14.5"/><ellipse cx="1292.5" cy="35.7" fill="#B4A7E5" rx="11" ry="11" style="stroke: #A80036; stroke-width: 1.0;"/><path d="M1293.5156,32.8562 L1295.1719,32.8562 C1295.5625,32.8562 1295.7656,32.825 1295.9219,32.7468 C1296.1875,32.575 1296.3594,32.2781 1296.3594,31.9812 C1296.3594,31.7 1296.2188,31.45 1295.9844,31.2781 C1295.7969,31.1531 1295.6406,31.1062 1295.1719,31.1062 L1290.0313,31.1062 C1289.5938,31.1062 1289.4531,31.1218 1289.2813,31.2312 C1289.0156,31.4031 1288.8438,31.6843 1288.8438,31.9812 C1288.8438,32.2625 1288.9844,32.5437 1289.2188,32.7 C1289.4063,32.825 1289.5938,32.8562 1290.0313,32.8562 L1291.6875,32.8562 L1291.6875,38.95 L1290.0313,38.95 C1289.5938,38.95 1289.4531,38.9656 1289.2813,39.075 C1289.0156,39.2312 1288.8438,39.5281 1288.8438,39.8093 C1288.8438,40.4187 1289.25,40.7 1290.0313,40.7 L1295.1719,40.7 C1295.9531,40.7 1296.3594,40.4187 1296.3594,39.8093 C1296.3594,39.5437 1296.2188,39.2937 1295.9844,39.1218 C1295.7969,38.9812 1295.625,38.95 1295.1719,38.95 L1293.5156,38.95 L1293.5156,32.8562 Z "/><text fill="#000000" font-family="sans-serif" font-size="14" font-style="italic" font-weight="bold" lengthAdjust="spacingAndGlyphs" textLength="91" x="1358.5" y="34.8999">CategoryImpl</text><text fill="#000000" font-family="sans-serif" font-size="10" font-style="italic" lengthAdjust="spacingAndGlyphs" textLength="195" x="1306.5" y="49.3999">it.matlice.ingsw.model.data.impl.jdbc.types</text></a><path d="M113,63.15 C113,128.11 113,285 113,285 C113,285 518.13,285 518.13,285 " fill="none" style="stroke: #A80036; stroke-width: 1.0;"/><polygon fill="#A80036" points="523.13,285,514.13,281,518.13,285,514.13,289,523.13,285" style="stroke: #A80036; stroke-width: 1.0;"/><text fill="#000000" font-family="sans-serif" font-size="13" lengthAdjust="spacingAndGlyphs" textLength="50" x="465.2265" y="283.1763">category</text><path d="M362,63.32 C362,111.18 362,204 362,204 C362,204 518.25,204 518.25,204 " fill="none" style="stroke: #A80036; stroke-width: 1.0;"/><polygon fill="#A80036" points="523.25,204,514.25,200,518.25,204,514.25,208,523.25,204" style="stroke: #A80036; stroke-width: 1.0;"/><text fill="#000000" font-family="sans-serif" font-size="13" lengthAdjust="spacingAndGlyphs" textLength="22" x="493.8098" y="199.5184">root</text><path d="M653.17,63.25 C653.17,63.25 653.17,117.98 653.17,117.98 " fill="none" style="stroke: #A80036; stroke-width: 1.0;"/><polygon fill="#A80036" points="653.17,122.98,657.17,113.98,653.17,117.98,649.17,113.98,653.17,122.98" style="stroke: #A80036; stroke-width: 1.0;"/><text fill="#000000" font-family="sans-serif" font-size="13" lengthAdjust="spacingAndGlyphs" textLength="50" x="595.7236" y="111.4221">category</text><path d="M588.33,122.93 C588.33,105.32 588.33,93 588.33,93 C588.33,93 513.75,93 513.75,93 C513.75,93 513.75,384 513.75,384 C513.75,384 739,384 739,384 C739,384 739,371.05 739,371.05 " fill="none" style="stroke: #A80036; stroke-width: 1.0;"/><polygon fill="#A80036" points="739,366.05,735,375.05,739,371.05,743,375.05,739,366.05" style="stroke: #A80036; stroke-width: 1.0;"/><text fill="#000000" font-family="sans-serif" font-size="13" lengthAdjust="spacingAndGlyphs" textLength="33" x="705.0461" y="385.6167">father</text><path d="M854,55.16 C854,55.16 854,117.62 854,117.62 " fill="none" style="stroke: #A80036; stroke-width: 1.0;"/><polygon fill="#A80036" points="854,122.62,858,113.62,854,117.62,850,113.62,854,122.62" style="stroke: #A80036; stroke-width: 1.0;"/><text fill="#000000" font-family="sans-serif" font-size="13" lengthAdjust="spacingAndGlyphs" textLength="41" x="819.0539" y="111.4407">dbData</text><path d="M1129,55.16 C1129,99.61 1129,204 1129,204 C1129,204 959.53,204 959.53,204 " fill="none" style="stroke: #A80036; stroke-width: 1.0;"/><polygon fill="#A80036" points="954.53,204,963.53,208,959.53,204,963.53,200,954.53,204" style="stroke: #A80036; stroke-width: 1.0;"/><text fill="#000000" font-family="sans-serif" font-size="13" lengthAdjust="spacingAndGlyphs" textLength="41" x="962.2747" y="199.5184">dbData</text><path d="M1391,56.77 C1391,117.11 1391,285 1391,285 C1391,285 959.75,285 959.75,285 " fill="none" style="stroke: #A80036; stroke-width: 1.0; stroke-dasharray: 7.0,7.0;"/><polygon fill="#A80036" points="954.75,285,963.75,289,959.75,285,963.75,281,954.75,285" style="stroke: #A80036; stroke-width: 1.0;"/></g></svg>