<?xml version="1.0" encoding="UTF-8" standalone="no"?><svg xmlns="http://www.w3.org/2000/svg" xmlns:xlink="http://www.w3.org/1999/xlink" contentScriptType="application/ecmascript" contentStyleType="text/css" height="542px" preserveAspectRatio="none" style="width:459px;height:542px;" version="1.1" viewBox="0 0 459 542" width="459px" zoomAndPan="magnify"><defs><filter height="300%" id="fqunmw9" width="300%" x="-1" y="-1"><feGaussianBlur result="blurOut" stdDeviation="2.0"/><feColorMatrix in="blurOut" result="blurOut2" type="matrix" values="0 0 0 0 0 0 0 0 0 0 0 0 0 0 0 0 0 0 .4 0"/><feOffset dx="4.0" dy="4.0" in="blurOut2" result="blurOut3"/><feBlend in="SourceGraphic" in2="blurOut3" mode="normal"/></filter></defs><g><!--class it.matlice.ingsw.model.data.impl.jdbc.db.CategoryFieldDB--><a target="_parent" xlink:actuate="onRequest" xlink:href="../../../../../../../../it/matlice/ingsw/model/data/impl/jdbc/db/CategoryFieldDB.html" xlink:show="new" xlink:title="it.matlice.ingsw.model.data.impl.jdbc.db.CategoryFieldDB" xlink:type="simple"><rect fill="#FEFECE" filter="url(#fqunmw9)" height="295.3984" style="stroke: #A80036; stroke-width: 1.5;" width="444" x="6" y="123"/><ellipse cx="132.75" cy="150.5" fill="#ADD1B2" rx="11" ry="11" style="stroke: #A80036; stroke-width: 1.0;"/><path d="M127.75,151.6563 C127.75,154.1563 129.8906,155.9688 132.8125,155.9688 C134.0469,155.9688 135.2188,155.6719 135.9688,155.1563 C136.5781,154.7344 136.9063,154.3125 136.9063,153.9063 C136.9063,153.4375 136.4844,153.0313 135.9844,153.0313 C135.75,153.0313 135.5313,153.1094 135.3281,153.3125 C134.8906,153.75 134.8906,153.75 134.7188,153.8438 C134.2656,154.0781 133.625,154.2188 132.8594,154.2188 C130.8594,154.2188 129.5781,153.2031 129.5781,151.625 L129.5781,150.5781 C129.5781,148.875 130.7969,147.6719 132.5,147.6719 C133.0781,147.6719 133.6563,147.8125 134.125,148.0625 C134.5938,148.3281 134.7656,148.5156 134.8281,148.875 C134.9531,149.5469 135.2031,149.7969 135.7344,149.7969 C136.0156,149.7969 136.2969,149.6563 136.4844,149.4375 C136.6094,149.2656 136.6563,149.0938 136.6563,148.6563 L136.6563,147.2969 C136.6563,146.875 136.6406,146.7344 136.5156,146.5625 C136.3438,146.3125 136.0625,146.1563 135.7344,146.1563 C135.4219,146.1563 135.2188,146.2656 135,146.5313 C133.8281,146.0313 133.3906,145.9219 132.4375,145.9219 C129.7656,145.9219 127.75,147.9375 127.75,150.5625 L127.75,151.6563 Z "/><text fill="#000000" font-family="sans-serif" font-size="12" font-style="italic" lengthAdjust="spacingAndGlyphs" textLength="98" x="195.25" y="141.2001">«DatabaseTable»</text><text fill="#000000" font-family="sans-serif" font-size="14" font-weight="bold" lengthAdjust="spacingAndGlyphs" textLength="116" x="186.25" y="157.2061">CategoryFieldDB</text><text fill="#000000" font-family="sans-serif" font-size="10" lengthAdjust="spacingAndGlyphs" textLength="182" x="153.25" y="170.29">it.matlice.ingsw.model.data.impl.jdbc.db</text><line style="stroke: #A80036; stroke-width: 1.5;" x1="7" x2="449" y1="178" y2="178"/><rect fill="none" height="6" style="stroke: #C82930; stroke-width: 1.0;" width="6" x="14" y="187.1"/><text fill="#000000" font-family="sans-serif" font-size="11" lengthAdjust="spacingAndGlyphs" textLength="42" x="26" y="192.219">int fieldId</text><rect fill="none" height="6" style="stroke: #C82930; stroke-width: 1.0;" width="6" x="14" y="200.2999"/><text fill="#000000" font-family="sans-serif" font-size="11" lengthAdjust="spacingAndGlyphs" textLength="79" x="26" y="205.4189">String fieldName</text><rect fill="none" height="6" style="stroke: #C82930; stroke-width: 1.0;" width="6" x="14" y="213.4998"/><text fill="#000000" font-family="sans-serif" font-size="11" lengthAdjust="spacingAndGlyphs" textLength="106" x="26" y="218.6188">CategoryDB category</text><rect fill="none" height="6" style="stroke: #C82930; stroke-width: 1.0;" width="6" x="14" y="226.6997"/><text fill="#000000" font-family="sans-serif" font-size="11" lengthAdjust="spacingAndGlyphs" textLength="52" x="26" y="231.8187">String type</text><rect fill="none" height="6" style="stroke: #C82930; stroke-width: 1.0;" width="6" x="14" y="239.8996"/><text fill="#000000" font-family="sans-serif" font-size="11" lengthAdjust="spacingAndGlyphs" textLength="81" x="26" y="245.0186">boolean required</text><line style="stroke: #A80036; stroke-width: 1.5;" x1="7" x2="449" y1="251.9995" y2="251.9995"/><ellipse cx="17" cy="264.0995" fill="#84BE84" rx="3" ry="3" style="stroke: #038048; stroke-width: 1.0;"/><text fill="#000000" font-family="sans-serif" font-size="11" lengthAdjust="spacingAndGlyphs" textLength="418" x="26" y="266.2185">CategoryFieldDB(String fieldName,CategoryDB category,String type,boolean required)</text><polygon fill="#4177AF" points="17,273.2994,13,279.2994,21,279.2994" style="stroke: #1963A0; stroke-width: 1.0;"/><text fill="#000000" font-family="sans-serif" font-size="11" lengthAdjust="spacingAndGlyphs" textLength="91" x="26" y="279.4184">CategoryFieldDB()</text><ellipse cx="17" cy="290.4993" fill="#84BE84" rx="3" ry="3" style="stroke: #038048; stroke-width: 1.0;"/><text fill="#000000" font-family="sans-serif" font-size="11" lengthAdjust="spacingAndGlyphs" textLength="69" x="26" y="292.6183">int getFieldId()</text><ellipse cx="17" cy="303.6992" fill="#84BE84" rx="3" ry="3" style="stroke: #038048; stroke-width: 1.0;"/><text fill="#000000" font-family="sans-serif" font-size="11" lengthAdjust="spacingAndGlyphs" textLength="120" x="26" y="305.8182">void setFieldId(int fieldId)</text><ellipse cx="17" cy="316.8991" fill="#84BE84" rx="3" ry="3" style="stroke: #038048; stroke-width: 1.0;"/><text fill="#000000" font-family="sans-serif" font-size="11" lengthAdjust="spacingAndGlyphs" textLength="101" x="26" y="319.0181">boolean isRequired()</text><ellipse cx="17" cy="330.099" fill="#84BE84" rx="3" ry="3" style="stroke: #038048; stroke-width: 1.0;"/><text fill="#000000" font-family="sans-serif" font-size="11" lengthAdjust="spacingAndGlyphs" textLength="171" x="26" y="332.218">void setRequired(boolean required)</text><ellipse cx="17" cy="343.2989" fill="#84BE84" rx="3" ry="3" style="stroke: #038048; stroke-width: 1.0;"/><text fill="#000000" font-family="sans-serif" font-size="11" lengthAdjust="spacingAndGlyphs" textLength="106" x="26" y="345.4179">String getFieldName()</text><ellipse cx="17" cy="356.4988" fill="#84BE84" rx="3" ry="3" style="stroke: #038048; stroke-width: 1.0;"/><text fill="#000000" font-family="sans-serif" font-size="11" lengthAdjust="spacingAndGlyphs" textLength="177" x="26" y="358.6178">void setFieldName(String fieldName)</text><ellipse cx="17" cy="369.6987" fill="#84BE84" rx="3" ry="3" style="stroke: #038048; stroke-width: 1.0;"/><text fill="#000000" font-family="sans-serif" font-size="11" lengthAdjust="spacingAndGlyphs" textLength="131" x="26" y="371.8177">CategoryDB getCategory()</text><ellipse cx="17" cy="382.8986" fill="#84BE84" rx="3" ry="3" style="stroke: #038048; stroke-width: 1.0;"/><text fill="#000000" font-family="sans-serif" font-size="11" lengthAdjust="spacingAndGlyphs" textLength="197" x="26" y="385.0176">void setCategory(CategoryDB category)</text><ellipse cx="17" cy="396.0985" fill="#84BE84" rx="3" ry="3" style="stroke: #038048; stroke-width: 1.0;"/><text fill="#000000" font-family="sans-serif" font-size="11" lengthAdjust="spacingAndGlyphs" textLength="79" x="26" y="398.2175">String getType()</text><ellipse cx="17" cy="409.2984" fill="#84BE84" rx="3" ry="3" style="stroke: #038048; stroke-width: 1.0;"/><text fill="#000000" font-family="sans-serif" font-size="11" lengthAdjust="spacingAndGlyphs" textLength="123" x="26" y="411.4174">void setType(String type)</text></a><!--class it.matlice.ingsw.model.data.impl.jdbc.db.OfferFieldDB--><a target="_parent" xlink:actuate="onRequest" xlink:href="../../../../../../../../it/matlice/ingsw/model/data/impl/jdbc/db/OfferFieldDB.html" xlink:show="new" xlink:title="it.matlice.ingsw.model.data.impl.jdbc.db.OfferFieldDB" xlink:type="simple"><rect fill="#FEFECE" filter="url(#fqunmw9)" height="55" style="stroke: #A80036; stroke-width: 1.5;" width="214" x="121" y="8"/><ellipse cx="136" cy="35.5" fill="#ADD1B2" rx="11" ry="11" style="stroke: #A80036; stroke-width: 1.0;"/><path d="M131,36.6563 C131,39.1563 133.1406,40.9688 136.0625,40.9688 C137.2969,40.9688 138.4688,40.6719 139.2188,40.1563 C139.8281,39.7344 140.1563,39.3125 140.1563,38.9063 C140.1563,38.4375 139.7344,38.0313 139.2344,38.0313 C139,38.0313 138.7813,38.1094 138.5781,38.3125 C138.1406,38.75 138.1406,38.75 137.9688,38.8438 C137.5156,39.0781 136.875,39.2188 136.1094,39.2188 C134.1094,39.2188 132.8281,38.2031 132.8281,36.625 L132.8281,35.5781 C132.8281,33.875 134.0469,32.6719 135.75,32.6719 C136.3281,32.6719 136.9063,32.8125 137.375,33.0625 C137.8438,33.3281 138.0156,33.5156 138.0781,33.875 C138.2031,34.5469 138.4531,34.7969 138.9844,34.7969 C139.2656,34.7969 139.5469,34.6563 139.7344,34.4375 C139.8594,34.2656 139.9063,34.0938 139.9063,33.6563 L139.9063,32.2969 C139.9063,31.875 139.8906,31.7344 139.7656,31.5625 C139.5938,31.3125 139.3125,31.1563 138.9844,31.1563 C138.6719,31.1563 138.4688,31.2656 138.25,31.5313 C137.0781,31.0313 136.6406,30.9219 135.6875,30.9219 C133.0156,30.9219 131,32.9375 131,35.5625 L131,36.6563 Z "/><text fill="#000000" font-family="sans-serif" font-size="12" font-style="italic" lengthAdjust="spacingAndGlyphs" textLength="98" x="192" y="26.2001">«DatabaseTable»</text><text fill="#000000" font-family="sans-serif" font-size="14" font-weight="bold" lengthAdjust="spacingAndGlyphs" textLength="88" x="197" y="42.2061">OfferFieldDB</text><text fill="#000000" font-family="sans-serif" font-size="10" lengthAdjust="spacingAndGlyphs" textLength="182" x="150" y="55.29">it.matlice.ingsw.model.data.impl.jdbc.db</text></a><!--class it.matlice.ingsw.model.data.impl.jdbc.db.CategoryDB--><a target="_parent" xlink:actuate="onRequest" xlink:href="../../../../../../../../it/matlice/ingsw/model/data/impl/jdbc/db/CategoryDB.html" xlink:show="new" xlink:title="it.matlice.ingsw.model.data.impl.jdbc.db.CategoryDB" xlink:type="simple"><rect fill="#FEFECE" filter="url(#fqunmw9)" height="55" style="stroke: #A80036; stroke-width: 1.5;" width="214" x="121" y="478"/><ellipse cx="136" cy="505.5" fill="#ADD1B2" rx="11" ry="11" style="stroke: #A80036; stroke-width: 1.0;"/><path d="M131,506.6563 C131,509.1563 133.1406,510.9688 136.0625,510.9688 C137.2969,510.9688 138.4688,510.6719 139.2188,510.1563 C139.8281,509.7344 140.1563,509.3125 140.1563,508.9063 C140.1563,508.4375 139.7344,508.0313 139.2344,508.0313 C139,508.0313 138.7813,508.1094 138.5781,508.3125 C138.1406,508.75 138.1406,508.75 137.9688,508.8438 C137.5156,509.0781 136.875,509.2188 136.1094,509.2188 C134.1094,509.2188 132.8281,508.2031 132.8281,506.625 L132.8281,505.5781 C132.8281,503.875 134.0469,502.6719 135.75,502.6719 C136.3281,502.6719 136.9063,502.8125 137.375,503.0625 C137.8438,503.3281 138.0156,503.5156 138.0781,503.875 C138.2031,504.5469 138.4531,504.7969 138.9844,504.7969 C139.2656,504.7969 139.5469,504.6563 139.7344,504.4375 C139.8594,504.2656 139.9063,504.0938 139.9063,503.6563 L139.9063,502.2969 C139.9063,501.875 139.8906,501.7344 139.7656,501.5625 C139.5938,501.3125 139.3125,501.1563 138.9844,501.1563 C138.6719,501.1563 138.4688,501.2656 138.25,501.5313 C137.0781,501.0313 136.6406,500.9219 135.6875,500.9219 C133.0156,500.9219 131,502.9375 131,505.5625 L131,506.6563 Z "/><text fill="#000000" font-family="sans-serif" font-size="12" font-style="italic" lengthAdjust="spacingAndGlyphs" textLength="98" x="192" y="496.2001">«DatabaseTable»</text><text fill="#000000" font-family="sans-serif" font-size="14" font-weight="bold" lengthAdjust="spacingAndGlyphs" textLength="82" x="200" y="512.2061">CategoryDB</text><text fill="#000000" font-family="sans-serif" font-size="10" lengthAdjust="spacingAndGlyphs" textLength="182" x="150" y="525.29">it.matlice.ingsw.model.data.impl.jdbc.db</text></a><path d="M228,63.38 C228,63.38 228,117.79 228,117.79 " fill="none" style="stroke: #A80036; stroke-width: 1.0;"/><polygon fill="#A80036" points="228,122.79,232,113.79,228,117.79,224,113.79,228,122.79" style="stroke: #A80036; stroke-width: 1.0;"/><text fill="#000000" font-family="sans-serif" font-size="13" lengthAdjust="spacingAndGlyphs" textLength="15" x="212.5898" y="111.3845">ref</text><path d="M228,418.33 C228,418.33 228,472.67 228,472.67 " fill="none" style="stroke: #A80036; stroke-width: 1.0;"/><polygon fill="#A80036" points="228,477.67,232,468.67,228,472.67,224,468.67,228,477.67" style="stroke: #A80036; stroke-width: 1.0;"/><text fill="#000000" font-family="sans-serif" font-size="13" lengthAdjust="spacingAndGlyphs" textLength="50" x="172.2188" y="466.6463">category</text></g></svg>