<?xml version="1.0" encoding="UTF-8" standalone="no"?><svg xmlns="http://www.w3.org/2000/svg" xmlns:xlink="http://www.w3.org/1999/xlink" contentScriptType="application/ecmascript" contentStyleType="text/css" height="408px" preserveAspectRatio="none" style="width:420px;height:408px;" version="1.1" viewBox="0 0 420 408" width="420px" zoomAndPan="magnify"><defs><filter height="300%" id="firt901" width="300%" x="-1" y="-1"><feGaussianBlur result="blurOut" stdDeviation="2.0"/><feColorMatrix in="blurOut" result="blurOut2" type="matrix" values="0 0 0 0 0 0 0 0 0 0 0 0 0 0 0 0 0 0 .4 0"/><feOffset dx="4.0" dy="4.0" in="blurOut2" result="blurOut3"/><feBlend in="SourceGraphic" in2="blurOut3" mode="normal"/></filter></defs><g><!--class it.matlice.ingsw.model.data.impl.jdbc.db.DaysDB--><a target="_parent" xlink:actuate="onRequest" xlink:href="../../../../../../../../it/matlice/ingsw/model/data/impl/jdbc/db/DaysDB.html" xlink:show="new" xlink:title="it.matlice.ingsw.model.data.impl.jdbc.db.DaysDB" xlink:type="simple"><rect fill="#FEFECE" filter="url(#firt901)" height="176.5992" style="stroke: #A80036; stroke-width: 1.5;" width="231" x="107.5" y="107"/><ellipse cx="130.15" cy="134.5" fill="#ADD1B2" rx="11" ry="11" style="stroke: #A80036; stroke-width: 1.0;"/><path d="M125.15,135.6563 C125.15,138.1563 127.2906,139.9688 130.2125,139.9688 C131.4469,139.9688 132.6188,139.6719 133.3688,139.1563 C133.9781,138.7344 134.3063,138.3125 134.3063,137.9063 C134.3063,137.4375 133.8844,137.0313 133.3844,137.0313 C133.15,137.0313 132.9313,137.1094 132.7281,137.3125 C132.2906,137.75 132.2906,137.75 132.1188,137.8438 C131.6656,138.0781 131.025,138.2188 130.2594,138.2188 C128.2594,138.2188 126.9781,137.2031 126.9781,135.625 L126.9781,134.5781 C126.9781,132.875 128.1969,131.6719 129.9,131.6719 C130.4781,131.6719 131.0563,131.8125 131.525,132.0625 C131.9938,132.3281 132.1656,132.5156 132.2281,132.875 C132.3531,133.5469 132.6031,133.7969 133.1344,133.7969 C133.4156,133.7969 133.6969,133.6563 133.8844,133.4375 C134.0094,133.2656 134.0563,133.0938 134.0563,132.6563 L134.0563,131.2969 C134.0563,130.875 134.0406,130.7344 133.9156,130.5625 C133.7438,130.3125 133.4625,130.1563 133.1344,130.1563 C132.8219,130.1563 132.6188,130.2656 132.4,130.5313 C131.2281,130.0313 130.7906,129.9219 129.8375,129.9219 C127.1656,129.9219 125.15,131.9375 125.15,134.5625 L125.15,135.6563 Z "/><text fill="#000000" font-family="sans-serif" font-size="12" font-style="italic" lengthAdjust="spacingAndGlyphs" textLength="98" x="187.85" y="125.2001">«DatabaseTable»</text><text fill="#000000" font-family="sans-serif" font-size="14" font-weight="bold" lengthAdjust="spacingAndGlyphs" textLength="54" x="209.85" y="141.2061">DaysDB</text><text fill="#000000" font-family="sans-serif" font-size="10" lengthAdjust="spacingAndGlyphs" textLength="182" x="145.85" y="154.29">it.matlice.ingsw.model.data.impl.jdbc.db</text><line style="stroke: #A80036; stroke-width: 1.5;" x1="108.5" x2="337.5" y1="162" y2="162"/><rect fill="none" height="6" style="stroke: #C82930; stroke-width: 1.0;" width="6" x="115.5" y="171.1"/><text fill="#000000" font-family="sans-serif" font-size="11" lengthAdjust="spacingAndGlyphs" textLength="70" x="127.5" y="176.219">SettingsDB ref</text><rect fill="none" height="6" style="stroke: #C82930; stroke-width: 1.0;" width="6" x="115.5" y="184.2999"/><text fill="#000000" font-family="sans-serif" font-size="11" lengthAdjust="spacingAndGlyphs" textLength="49" x="127.5" y="189.4189">String day</text><line style="stroke: #A80036; stroke-width: 1.5;" x1="108.5" x2="337.5" y1="196.3998" y2="196.3998"/><ellipse cx="118.5" cy="208.4998" fill="#84BE84" rx="3" ry="3" style="stroke: #038048; stroke-width: 1.0;"/><text fill="#000000" font-family="sans-serif" font-size="11" lengthAdjust="spacingAndGlyphs" textLength="205" x="127.5" y="210.6188">DaysDB(SettingsDB ref,Settings.Day day)</text><polygon fill="#4177AF" points="118.5,217.6997,114.5,223.6997,122.5,223.6997" style="stroke: #1963A0; stroke-width: 1.0;"/><text fill="#000000" font-family="sans-serif" font-size="11" lengthAdjust="spacingAndGlyphs" textLength="49" x="127.5" y="223.8187">DaysDB()</text><ellipse cx="118.5" cy="234.8996" fill="#84BE84" rx="3" ry="3" style="stroke: #038048; stroke-width: 1.0;"/><text fill="#000000" font-family="sans-serif" font-size="11" lengthAdjust="spacingAndGlyphs" textLength="97" x="127.5" y="237.0186">SettingsDB getRef()</text><ellipse cx="118.5" cy="248.0995" fill="#84BE84" rx="3" ry="3" style="stroke: #038048; stroke-width: 1.0;"/><text fill="#000000" font-family="sans-serif" font-size="11" lengthAdjust="spacingAndGlyphs" textLength="133" x="127.5" y="250.2185">void setRef(SettingsDB ref)</text><ellipse cx="118.5" cy="261.2994" fill="#84BE84" rx="3" ry="3" style="stroke: #038048; stroke-width: 1.0;"/><text fill="#000000" font-family="sans-serif" font-size="11" lengthAdjust="spacingAndGlyphs" textLength="108" x="127.5" y="263.4184">Settings.Day getDay()</text><ellipse cx="118.5" cy="274.4993" fill="#84BE84" rx="3" ry="3" style="stroke: #038048; stroke-width: 1.0;"/><text fill="#000000" font-family="sans-serif" font-size="11" lengthAdjust="spacingAndGlyphs" textLength="170" x="127.5" y="276.6183">void setLocation(Settings.Day day)</text></a><!--class it.matlice.ingsw.model.data.impl.jdbc.db.SettingsDB--><a target="_parent" xlink:actuate="onRequest" xlink:href="../../../../../../../../it/matlice/ingsw/model/data/impl/jdbc/db/SettingsDB.html" xlink:show="new" xlink:title="it.matlice.ingsw.model.data.impl.jdbc.db.SettingsDB" xlink:type="simple"><rect fill="#FEFECE" filter="url(#firt901)" height="55" style="stroke: #A80036; stroke-width: 1.5;" width="214" x="6" y="344"/><ellipse cx="21" cy="371.5" fill="#ADD1B2" rx="11" ry="11" style="stroke: #A80036; stroke-width: 1.0;"/><path d="M16,372.6563 C16,375.1563 18.1406,376.9688 21.0625,376.9688 C22.2969,376.9688 23.4688,376.6719 24.2188,376.1563 C24.8281,375.7344 25.1563,375.3125 25.1563,374.9063 C25.1563,374.4375 24.7344,374.0313 24.2344,374.0313 C24,374.0313 23.7813,374.1094 23.5781,374.3125 C23.1406,374.75 23.1406,374.75 22.9688,374.8438 C22.5156,375.0781 21.875,375.2188 21.1094,375.2188 C19.1094,375.2188 17.8281,374.2031 17.8281,372.625 L17.8281,371.5781 C17.8281,369.875 19.0469,368.6719 20.75,368.6719 C21.3281,368.6719 21.9063,368.8125 22.375,369.0625 C22.8438,369.3281 23.0156,369.5156 23.0781,369.875 C23.2031,370.5469 23.4531,370.7969 23.9844,370.7969 C24.2656,370.7969 24.5469,370.6563 24.7344,370.4375 C24.8594,370.2656 24.9063,370.0938 24.9063,369.6563 L24.9063,368.2969 C24.9063,367.875 24.8906,367.7344 24.7656,367.5625 C24.5938,367.3125 24.3125,367.1563 23.9844,367.1563 C23.6719,367.1563 23.4688,367.2656 23.25,367.5313 C22.0781,367.0313 21.6406,366.9219 20.6875,366.9219 C18.0156,366.9219 16,368.9375 16,371.5625 L16,372.6563 Z "/><text fill="#000000" font-family="sans-serif" font-size="12" font-style="italic" lengthAdjust="spacingAndGlyphs" textLength="98" x="77" y="362.2001">«DatabaseTable»</text><text fill="#000000" font-family="sans-serif" font-size="14" font-weight="bold" lengthAdjust="spacingAndGlyphs" textLength="77" x="87.5" y="378.2061">SettingsDB</text><text fill="#000000" font-family="sans-serif" font-size="10" lengthAdjust="spacingAndGlyphs" textLength="182" x="35" y="391.29">it.matlice.ingsw.model.data.impl.jdbc.db</text></a><!--class it.matlice.ingsw.model.data.Settings.Day--><a target="_parent" xlink:actuate="onRequest" xlink:href="../../../../../../../../it/matlice/ingsw/model/data/Settings.Day.html" xlink:show="new" xlink:title="it.matlice.ingsw.model.data.Settings.Day" xlink:type="simple"><rect fill="#FFFFFF" filter="url(#firt901)" height="38.7999" style="stroke: #A80036; stroke-width: 1.5;" width="156" x="255" y="352"/><rect fill="#FFFFFF" height="38.7999" style="stroke: #A80036; stroke-width: 1.5;" width="156" x="255" y="352"/><ellipse cx="270" cy="371.4" fill="#EB937F" rx="11" ry="11" style="stroke: #A80036; stroke-width: 1.0;"/><path d="M268.8594,372.4625 L270.1719,372.4625 L270.1719,372.5093 C270.1719,372.9156 270.1875,373.0718 270.2969,373.2281 C270.4688,373.4781 270.7656,373.65 271.0781,373.65 C271.3594,373.65 271.6563,373.5093 271.8281,373.2906 C271.9531,373.1031 272,372.9625 272,372.5093 L272,370.6656 C272,370.3375 271.9844,370.2281 271.9219,370.0562 C271.8125,369.7593 271.4531,369.5093 271.0781,369.5093 C270.7813,369.5093 270.5156,369.65 270.3438,369.8687 C270.2031,370.0562 270.1719,370.2281 270.1719,370.6656 L270.1719,370.7281 L268.8594,370.7281 L268.8594,368.5562 L272.7031,368.5562 L272.7031,369.3062 C272.7031,369.6968 272.7344,369.8843 272.8438,370.0406 C273.0156,370.2906 273.3125,370.4625 273.625,370.4625 C273.9219,370.4625 274.1875,370.3375 274.375,370.1031 C274.5156,369.9156 274.5469,369.775 274.5469,369.3062 L274.5469,366.8062 L266.8438,366.8062 C266.3906,366.8062 266.2656,366.8218 266.0938,366.9312 C265.8281,367.1031 265.6563,367.3687 265.6563,367.6812 C265.6563,367.9625 265.7813,368.2281 266.0313,368.4 C266.2188,368.525 266.4063,368.5562 266.8438,368.5562 L267.0313,368.5562 L267.0313,374.65 L266.8438,374.65 C266.4219,374.65 266.2656,374.6812 266.0938,374.775 C265.8281,374.9312 265.6563,375.2125 265.6563,375.5093 C265.6563,376.0875 266.0625,376.4 266.8438,376.4 L274.9219,376.4 L274.9219,373.8687 C274.9219,373.4625 274.8906,373.2906 274.7813,373.1343 C274.6094,372.8687 274.3281,372.7125 274,372.7125 C273.7188,372.7125 273.4375,372.8531 273.25,373.0718 C273.1094,373.2593 273.0781,373.4156 273.0781,373.8687 L273.0781,374.65 L268.8594,374.65 L268.8594,372.4625 Z "/><text fill="#000000" font-family="sans-serif" font-size="14" font-weight="bold" lengthAdjust="spacingAndGlyphs" textLength="87" x="302.5" y="370.0059">Settings.Day</text><text fill="#000000" font-family="sans-serif" font-size="10" lengthAdjust="spacingAndGlyphs" textLength="124" x="284" y="383.0899">it.matlice.ingsw.model.data</text></a><!--class it.matlice.ingsw.model.data.impl.jdbc.types.SettingsImpl--><a target="_parent" xlink:actuate="onRequest" xlink:href="../../../../../../../../it/matlice/ingsw/model/data/impl/jdbc/types/SettingsImpl.html" xlink:show="new" xlink:title="it.matlice.ingsw.model.data.impl.jdbc.types.SettingsImpl" xlink:type="simple"><rect fill="#FFFFFF" filter="url(#firt901)" height="38.7999" style="stroke: #A80036; stroke-width: 1.5;" width="227" x="109.5" y="8"/><rect fill="#FFFFFF" height="38.7999" style="stroke: #A80036; stroke-width: 1.5;" width="227" x="109.5" y="8"/><ellipse cx="124.5" cy="27.4" fill="#ADD1B2" rx="11" ry="11" style="stroke: #A80036; stroke-width: 1.0;"/><path d="M119.5,28.5562 C119.5,31.0562 121.6406,32.8687 124.5625,32.8687 C125.7969,32.8687 126.9688,32.5718 127.7188,32.0562 C128.3281,31.6343 128.6563,31.2125 128.6563,30.8062 C128.6563,30.3375 128.2344,29.9312 127.7344,29.9312 C127.5,29.9312 127.2813,30.0093 127.0781,30.2125 C126.6406,30.65 126.6406,30.65 126.4688,30.7437 C126.0156,30.9781 125.375,31.1187 124.6094,31.1187 C122.6094,31.1187 121.3281,30.1031 121.3281,28.525 L121.3281,27.4781 C121.3281,25.775 122.5469,24.5718 124.25,24.5718 C124.8281,24.5718 125.4063,24.7125 125.875,24.9625 C126.3438,25.2281 126.5156,25.4156 126.5781,25.775 C126.7031,26.4468 126.9531,26.6968 127.4844,26.6968 C127.7656,26.6968 128.0469,26.5562 128.2344,26.3375 C128.3594,26.1656 128.4063,25.9937 128.4063,25.5562 L128.4063,24.1968 C128.4063,23.775 128.3906,23.6343 128.2656,23.4625 C128.0938,23.2125 127.8125,23.0562 127.4844,23.0562 C127.1719,23.0562 126.9688,23.1656 126.75,23.4312 C125.5781,22.9312 125.1406,22.8218 124.1875,22.8218 C121.5156,22.8218 119.5,24.8375 119.5,27.4625 L119.5,28.5562 Z "/><text fill="#000000" font-family="sans-serif" font-size="14" font-weight="bold" lengthAdjust="spacingAndGlyphs" textLength="86" x="193" y="26.0059">SettingsImpl</text><text fill="#000000" font-family="sans-serif" font-size="10" lengthAdjust="spacingAndGlyphs" textLength="195" x="138.5" y="39.0899">it.matlice.ingsw.model.data.impl.jdbc.types</text></a><path d="M163.75,284.02 C163.75,284.02 163.75,338.81 163.75,338.81 " fill="none" style="stroke: #A80036; stroke-width: 1.0;"/><polygon fill="#A80036" points="163.75,343.81,167.75,334.81,163.75,338.81,159.75,334.81,163.75,343.81" style="stroke: #A80036; stroke-width: 1.0;"/><text fill="#000000" font-family="sans-serif" font-size="13" lengthAdjust="spacingAndGlyphs" textLength="15" x="159.2922" y="332.3826">ref</text><path d="M296.75,284.02 C296.75,284.02 296.75,346.79 296.75,346.79 " fill="none" style="stroke: #A80036; stroke-width: 1.0; stroke-dasharray: 7.0,7.0;"/><polygon fill="#A80036" points="296.75,351.79,300.7757,342.8015,296.7643,346.79,292.7757,342.7786,296.75,351.79" style="stroke: #A80036; stroke-width: 1.0;"/><path d="M223,47.1 C223,47.1 223,101.95 223,101.95 " fill="none" style="stroke: #A80036; stroke-width: 1.0;"/><polygon fill="#A80036" points="223,106.95,227,97.95,223,101.95,219,97.95,223,106.95" style="stroke: #A80036; stroke-width: 1.0;"/><text fill="#000000" font-family="sans-serif" font-size="13" lengthAdjust="spacingAndGlyphs" textLength="53" x="167.6398" y="95.5171">dbDays *</text></g></svg>