<?xml version="1.0" encoding="UTF-8" standalone="no"?><svg xmlns="http://www.w3.org/2000/svg" xmlns:xlink="http://www.w3.org/1999/xlink" contentScriptType="application/ecmascript" contentStyleType="text/css" height="381px" preserveAspectRatio="none" style="width:242px;height:381px;" version="1.1" viewBox="0 0 242 381" width="242px" zoomAndPan="magnify"><defs><filter height="300%" id="fkeva1i" width="300%" x="-1" y="-1"><feGaussianBlur result="blurOut" stdDeviation="2.0"/><feColorMatrix in="blurOut" result="blurOut2" type="matrix" values="0 0 0 0 0 0 0 0 0 0 0 0 0 0 0 0 0 0 .4 0"/><feOffset dx="4.0" dy="4.0" in="blurOut2" result="blurOut3"/><feBlend in="SourceGraphic" in2="blurOut3" mode="normal"/></filter></defs><g><!--class it.matlice.ingsw.model.data.impl.jdbc.db.HierarchyDB--><a target="_parent" xlink:actuate="onRequest" xlink:href="../../../../../../../../it/matlice/ingsw/model/data/impl/jdbc/db/HierarchyDB.html" xlink:show="new" xlink:title="it.matlice.ingsw.model.data.impl.jdbc.db.HierarchyDB" xlink:type="simple"><rect fill="#FEFECE" filter="url(#fkeva1i)" height="150.1994" style="stroke: #A80036; stroke-width: 1.5;" width="214" x="12.5" y="107"/><ellipse cx="27.5" cy="134.5" fill="#ADD1B2" rx="11" ry="11" style="stroke: #A80036; stroke-width: 1.0;"/><path d="M22.5,135.6563 C22.5,138.1563 24.6406,139.9688 27.5625,139.9688 C28.7969,139.9688 29.9688,139.6719 30.7188,139.1563 C31.3281,138.7344 31.6563,138.3125 31.6563,137.9063 C31.6563,137.4375 31.2344,137.0313 30.7344,137.0313 C30.5,137.0313 30.2813,137.1094 30.0781,137.3125 C29.6406,137.75 29.6406,137.75 29.4688,137.8438 C29.0156,138.0781 28.375,138.2188 27.6094,138.2188 C25.6094,138.2188 24.3281,137.2031 24.3281,135.625 L24.3281,134.5781 C24.3281,132.875 25.5469,131.6719 27.25,131.6719 C27.8281,131.6719 28.4063,131.8125 28.875,132.0625 C29.3438,132.3281 29.5156,132.5156 29.5781,132.875 C29.7031,133.5469 29.9531,133.7969 30.4844,133.7969 C30.7656,133.7969 31.0469,133.6563 31.2344,133.4375 C31.3594,133.2656 31.4063,133.0938 31.4063,132.6563 L31.4063,131.2969 C31.4063,130.875 31.3906,130.7344 31.2656,130.5625 C31.0938,130.3125 30.8125,130.1563 30.4844,130.1563 C30.1719,130.1563 29.9688,130.2656 29.75,130.5313 C28.5781,130.0313 28.1406,129.9219 27.1875,129.9219 C24.5156,129.9219 22.5,131.9375 22.5,134.5625 L22.5,135.6563 Z "/><text fill="#000000" font-family="sans-serif" font-size="12" font-style="italic" lengthAdjust="spacingAndGlyphs" textLength="98" x="83.5" y="125.2001">«DatabaseTable»</text><text fill="#000000" font-family="sans-serif" font-size="14" font-weight="bold" lengthAdjust="spacingAndGlyphs" textLength="85" x="90" y="141.2061">HierarchyDB</text><text fill="#000000" font-family="sans-serif" font-size="10" lengthAdjust="spacingAndGlyphs" textLength="182" x="41.5" y="154.29">it.matlice.ingsw.model.data.impl.jdbc.db</text><line style="stroke: #A80036; stroke-width: 1.5;" x1="13.5" x2="225.5" y1="162" y2="162"/><rect fill="none" height="6" style="stroke: #C82930; stroke-width: 1.0;" width="6" x="20.5" y="171.1"/><text fill="#000000" font-family="sans-serif" font-size="11" lengthAdjust="spacingAndGlyphs" textLength="74" x="32.5" y="176.219">int hierarchy_id</text><rect fill="none" height="6" style="stroke: #C82930; stroke-width: 1.0;" width="6" x="20.5" y="184.2999"/><text fill="#000000" font-family="sans-serif" font-size="11" lengthAdjust="spacingAndGlyphs" textLength="82" x="32.5" y="189.4189">CategoryDB root</text><line style="stroke: #A80036; stroke-width: 1.5;" x1="13.5" x2="225.5" y1="196.3998" y2="196.3998"/><ellipse cx="23.5" cy="208.4998" fill="#84BE84" rx="3" ry="3" style="stroke: #038048; stroke-width: 1.0;"/><text fill="#000000" font-family="sans-serif" font-size="11" lengthAdjust="spacingAndGlyphs" textLength="153" x="32.5" y="210.6188">HierarchyDB(CategoryDB root)</text><polygon fill="#4177AF" points="23.5,217.6997,19.5,223.6997,27.5,223.6997" style="stroke: #1963A0; stroke-width: 1.0;"/><text fill="#000000" font-family="sans-serif" font-size="11" lengthAdjust="spacingAndGlyphs" textLength="71" x="32.5" y="223.8187">HierarchyDB()</text><ellipse cx="23.5" cy="234.8996" fill="#84BE84" rx="3" ry="3" style="stroke: #038048; stroke-width: 1.0;"/><text fill="#000000" font-family="sans-serif" font-size="11" lengthAdjust="spacingAndGlyphs" textLength="109" x="32.5" y="237.0186">CategoryDB getRoot()</text><ellipse cx="23.5" cy="248.0995" fill="#84BE84" rx="3" ry="3" style="stroke: #038048; stroke-width: 1.0;"/><text fill="#000000" font-family="sans-serif" font-size="11" lengthAdjust="spacingAndGlyphs" textLength="94" x="32.5" y="250.2185">int getHierarchyId()</text></a><!--class it.matlice.ingsw.model.data.impl.jdbc.db.CategoryDB--><a target="_parent" xlink:actuate="onRequest" xlink:href="../../../../../../../../it/matlice/ingsw/model/data/impl/jdbc/db/CategoryDB.html" xlink:show="new" xlink:title="it.matlice.ingsw.model.data.impl.jdbc.db.CategoryDB" xlink:type="simple"><rect fill="#FEFECE" filter="url(#fkeva1i)" height="55" style="stroke: #A80036; stroke-width: 1.5;" width="214" x="12.5" y="317"/><ellipse cx="27.5" cy="344.5" fill="#ADD1B2" rx="11" ry="11" style="stroke: #A80036; stroke-width: 1.0;"/><path d="M22.5,345.6563 C22.5,348.1563 24.6406,349.9688 27.5625,349.9688 C28.7969,349.9688 29.9688,349.6719 30.7188,349.1563 C31.3281,348.7344 31.6563,348.3125 31.6563,347.9063 C31.6563,347.4375 31.2344,347.0313 30.7344,347.0313 C30.5,347.0313 30.2813,347.1094 30.0781,347.3125 C29.6406,347.75 29.6406,347.75 29.4688,347.8438 C29.0156,348.0781 28.375,348.2188 27.6094,348.2188 C25.6094,348.2188 24.3281,347.2031 24.3281,345.625 L24.3281,344.5781 C24.3281,342.875 25.5469,341.6719 27.25,341.6719 C27.8281,341.6719 28.4063,341.8125 28.875,342.0625 C29.3438,342.3281 29.5156,342.5156 29.5781,342.875 C29.7031,343.5469 29.9531,343.7969 30.4844,343.7969 C30.7656,343.7969 31.0469,343.6563 31.2344,343.4375 C31.3594,343.2656 31.4063,343.0938 31.4063,342.6563 L31.4063,341.2969 C31.4063,340.875 31.3906,340.7344 31.2656,340.5625 C31.0938,340.3125 30.8125,340.1563 30.4844,340.1563 C30.1719,340.1563 29.9688,340.2656 29.75,340.5313 C28.5781,340.0313 28.1406,339.9219 27.1875,339.9219 C24.5156,339.9219 22.5,341.9375 22.5,344.5625 L22.5,345.6563 Z "/><text fill="#000000" font-family="sans-serif" font-size="12" font-style="italic" lengthAdjust="spacingAndGlyphs" textLength="98" x="83.5" y="335.2001">«DatabaseTable»</text><text fill="#000000" font-family="sans-serif" font-size="14" font-weight="bold" lengthAdjust="spacingAndGlyphs" textLength="82" x="91.5" y="351.2061">CategoryDB</text><text fill="#000000" font-family="sans-serif" font-size="10" lengthAdjust="spacingAndGlyphs" textLength="182" x="41.5" y="364.29">it.matlice.ingsw.model.data.impl.jdbc.db</text></a><!--class it.matlice.ingsw.model.data.impl.jdbc.types.HierarchyImpl--><a target="_parent" xlink:actuate="onRequest" xlink:href="../../../../../../../../it/matlice/ingsw/model/data/impl/jdbc/types/HierarchyImpl.html" xlink:show="new" xlink:title="it.matlice.ingsw.model.data.impl.jdbc.types.HierarchyImpl" xlink:type="simple"><rect fill="#FFFFFF" filter="url(#fkeva1i)" height="38.7999" style="stroke: #A80036; stroke-width: 1.5;" width="227" x="6" y="8"/><rect fill="#FFFFFF" height="38.7999" style="stroke: #A80036; stroke-width: 1.5;" width="227" x="6" y="8"/><ellipse cx="21" cy="27.4" fill="#ADD1B2" rx="11" ry="11" style="stroke: #A80036; stroke-width: 1.0;"/><path d="M16,28.5562 C16,31.0562 18.1406,32.8687 21.0625,32.8687 C22.2969,32.8687 23.4688,32.5718 24.2188,32.0562 C24.8281,31.6343 25.1563,31.2125 25.1563,30.8062 C25.1563,30.3375 24.7344,29.9312 24.2344,29.9312 C24,29.9312 23.7813,30.0093 23.5781,30.2125 C23.1406,30.65 23.1406,30.65 22.9688,30.7437 C22.5156,30.9781 21.875,31.1187 21.1094,31.1187 C19.1094,31.1187 17.8281,30.1031 17.8281,28.525 L17.8281,27.4781 C17.8281,25.775 19.0469,24.5718 20.75,24.5718 C21.3281,24.5718 21.9063,24.7125 22.375,24.9625 C22.8438,25.2281 23.0156,25.4156 23.0781,25.775 C23.2031,26.4468 23.4531,26.6968 23.9844,26.6968 C24.2656,26.6968 24.5469,26.5562 24.7344,26.3375 C24.8594,26.1656 24.9063,25.9937 24.9063,25.5562 L24.9063,24.1968 C24.9063,23.775 24.8906,23.6343 24.7656,23.4625 C24.5938,23.2125 24.3125,23.0562 23.9844,23.0562 C23.6719,23.0562 23.4688,23.1656 23.25,23.4312 C22.0781,22.9312 21.6406,22.8218 20.6875,22.8218 C18.0156,22.8218 16,24.8375 16,27.4625 L16,28.5562 Z "/><text fill="#000000" font-family="sans-serif" font-size="14" font-weight="bold" lengthAdjust="spacingAndGlyphs" textLength="94" x="85.5" y="26.0059">HierarchyImpl</text><text fill="#000000" font-family="sans-serif" font-size="10" lengthAdjust="spacingAndGlyphs" textLength="195" x="35" y="39.0899">it.matlice.ingsw.model.data.impl.jdbc.types</text></a><path d="M119.5,257.07 C119.5,257.07 119.5,311.75 119.5,311.75 " fill="none" style="stroke: #A80036; stroke-width: 1.0;"/><polygon fill="#A80036" points="119.5,316.75,123.5,307.75,119.5,311.75,115.5,307.75,119.5,316.75" style="stroke: #A80036; stroke-width: 1.0;"/><text fill="#000000" font-family="sans-serif" font-size="13" lengthAdjust="spacingAndGlyphs" textLength="22" x="94.8188" y="305.3079">root</text><path d="M119.5,47.07 C119.5,47.07 119.5,101.98 119.5,101.98 " fill="none" style="stroke: #A80036; stroke-width: 1.0;"/><polygon fill="#A80036" points="119.5,106.98,123.5,97.98,119.5,101.98,115.5,97.98,119.5,106.98" style="stroke: #A80036; stroke-width: 1.0;"/><text fill="#000000" font-family="sans-serif" font-size="13" lengthAdjust="spacingAndGlyphs" textLength="41" x="76.3859" y="95.5678">dbData</text></g></svg>