<?xml version="1.0" encoding="UTF-8" standalone="no"?><svg xmlns="http://www.w3.org/2000/svg" xmlns:xlink="http://www.w3.org/1999/xlink" contentScriptType="application/ecmascript" contentStyleType="text/css" height="421px" preserveAspectRatio="none" style="width:420px;height:421px;" version="1.1" viewBox="0 0 420 421" width="420px" zoomAndPan="magnify"><defs><filter height="300%" id="fyequo1" width="300%" x="-1" y="-1"><feGaussianBlur result="blurOut" stdDeviation="2.0"/><feColorMatrix in="blurOut" result="blurOut2" type="matrix" values="0 0 0 0 0 0 0 0 0 0 0 0 0 0 0 0 0 0 .4 0"/><feOffset dx="4.0" dy="4.0" in="blurOut2" result="blurOut3"/><feBlend in="SourceGraphic" in2="blurOut3" mode="normal"/></filter></defs><g><!--class it.matlice.ingsw.model.data.impl.jdbc.db.IntervalsDB--><a target="_parent" xlink:actuate="onRequest" xlink:href="../../../../../../../../it/matlice/ingsw/model/data/impl/jdbc/db/IntervalsDB.html" xlink:show="new" xlink:title="it.matlice.ingsw.model.data.impl.jdbc.db.IntervalsDB" xlink:type="simple"><rect fill="#FEFECE" filter="url(#fyequo1)" height="189.7991" style="stroke: #A80036; stroke-width: 1.5;" width="238" x="104" y="107"/><ellipse cx="129.8" cy="134.5" fill="#ADD1B2" rx="11" ry="11" style="stroke: #A80036; stroke-width: 1.0;"/><path d="M124.8,135.6563 C124.8,138.1563 126.9406,139.9688 129.8625,139.9688 C131.0969,139.9688 132.2688,139.6719 133.0188,139.1563 C133.6281,138.7344 133.9563,138.3125 133.9563,137.9063 C133.9563,137.4375 133.5344,137.0313 133.0344,137.0313 C132.8,137.0313 132.5813,137.1094 132.3781,137.3125 C131.9406,137.75 131.9406,137.75 131.7688,137.8438 C131.3156,138.0781 130.675,138.2188 129.9094,138.2188 C127.9094,138.2188 126.6281,137.2031 126.6281,135.625 L126.6281,134.5781 C126.6281,132.875 127.8469,131.6719 129.55,131.6719 C130.1281,131.6719 130.7063,131.8125 131.175,132.0625 C131.6438,132.3281 131.8156,132.5156 131.8781,132.875 C132.0031,133.5469 132.2531,133.7969 132.7844,133.7969 C133.0656,133.7969 133.3469,133.6563 133.5344,133.4375 C133.6594,133.2656 133.7063,133.0938 133.7063,132.6563 L133.7063,131.2969 C133.7063,130.875 133.6906,130.7344 133.5656,130.5625 C133.3938,130.3125 133.1125,130.1563 132.7844,130.1563 C132.4719,130.1563 132.2688,130.2656 132.05,130.5313 C130.8781,130.0313 130.4406,129.9219 129.4875,129.9219 C126.8156,129.9219 124.8,131.9375 124.8,134.5625 L124.8,135.6563 Z "/><text fill="#000000" font-family="sans-serif" font-size="12" font-style="italic" lengthAdjust="spacingAndGlyphs" textLength="98" x="188.2" y="125.2001">«DatabaseTable»</text><text fill="#000000" font-family="sans-serif" font-size="14" font-weight="bold" lengthAdjust="spacingAndGlyphs" textLength="79" x="197.7" y="141.2061">IntervalsDB</text><text fill="#000000" font-family="sans-serif" font-size="10" lengthAdjust="spacingAndGlyphs" textLength="182" x="146.2" y="154.29">it.matlice.ingsw.model.data.impl.jdbc.db</text><line style="stroke: #A80036; stroke-width: 1.5;" x1="105" x2="341" y1="162" y2="162"/><rect fill="none" height="6" style="stroke: #C82930; stroke-width: 1.0;" width="6" x="112" y="171.1"/><text fill="#000000" font-family="sans-serif" font-size="11" lengthAdjust="spacingAndGlyphs" textLength="70" x="124" y="176.219">SettingsDB ref</text><rect fill="none" height="6" style="stroke: #C82930; stroke-width: 1.0;" width="6" x="112" y="184.2999"/><text fill="#000000" font-family="sans-serif" font-size="11" lengthAdjust="spacingAndGlyphs" textLength="100" x="124" y="189.4189">Integer interval_start</text><rect fill="none" height="6" style="stroke: #C82930; stroke-width: 1.0;" width="6" x="112" y="197.4998"/><text fill="#000000" font-family="sans-serif" font-size="11" lengthAdjust="spacingAndGlyphs" textLength="96" x="124" y="202.6188">Integer interval_end</text><line style="stroke: #A80036; stroke-width: 1.5;" x1="105" x2="341" y1="209.5997" y2="209.5997"/><ellipse cx="115" cy="221.6997" fill="#84BE84" rx="3" ry="3" style="stroke: #038048; stroke-width: 1.0;"/><text fill="#000000" font-family="sans-serif" font-size="11" lengthAdjust="spacingAndGlyphs" textLength="212" x="124" y="223.8187">IntervalsDB(SettingsDB ref,Interval interval)</text><polygon fill="#4177AF" points="115,230.8996,111,236.8996,119,236.8996" style="stroke: #1963A0; stroke-width: 1.0;"/><text fill="#000000" font-family="sans-serif" font-size="11" lengthAdjust="spacingAndGlyphs" textLength="65" x="124" y="237.0186">IntervalsDB()</text><ellipse cx="115" cy="248.0995" fill="#84BE84" rx="3" ry="3" style="stroke: #038048; stroke-width: 1.0;"/><text fill="#000000" font-family="sans-serif" font-size="11" lengthAdjust="spacingAndGlyphs" textLength="97" x="124" y="250.2185">SettingsDB getRef()</text><ellipse cx="115" cy="261.2994" fill="#84BE84" rx="3" ry="3" style="stroke: #038048; stroke-width: 1.0;"/><text fill="#000000" font-family="sans-serif" font-size="11" lengthAdjust="spacingAndGlyphs" textLength="133" x="124" y="263.4184">void setRef(SettingsDB ref)</text><ellipse cx="115" cy="274.4993" fill="#84BE84" rx="3" ry="3" style="stroke: #038048; stroke-width: 1.0;"/><text fill="#000000" font-family="sans-serif" font-size="11" lengthAdjust="spacingAndGlyphs" textLength="98" x="124" y="276.6183">Interval getInterval()</text><ellipse cx="115" cy="287.6992" fill="#84BE84" rx="3" ry="3" style="stroke: #038048; stroke-width: 1.0;"/><text fill="#000000" font-family="sans-serif" font-size="11" lengthAdjust="spacingAndGlyphs" textLength="156" x="124" y="289.8182">void setInterval(Interval interval)</text></a><!--class it.matlice.ingsw.model.data.impl.jdbc.db.SettingsDB--><a target="_parent" xlink:actuate="onRequest" xlink:href="../../../../../../../../it/matlice/ingsw/model/data/impl/jdbc/db/SettingsDB.html" xlink:show="new" xlink:title="it.matlice.ingsw.model.data.impl.jdbc.db.SettingsDB" xlink:type="simple"><rect fill="#FEFECE" filter="url(#fyequo1)" height="55" style="stroke: #A80036; stroke-width: 1.5;" width="214" x="6" y="357"/><ellipse cx="21" cy="384.5" fill="#ADD1B2" rx="11" ry="11" style="stroke: #A80036; stroke-width: 1.0;"/><path d="M16,385.6563 C16,388.1563 18.1406,389.9688 21.0625,389.9688 C22.2969,389.9688 23.4688,389.6719 24.2188,389.1563 C24.8281,388.7344 25.1563,388.3125 25.1563,387.9063 C25.1563,387.4375 24.7344,387.0313 24.2344,387.0313 C24,387.0313 23.7813,387.1094 23.5781,387.3125 C23.1406,387.75 23.1406,387.75 22.9688,387.8438 C22.5156,388.0781 21.875,388.2188 21.1094,388.2188 C19.1094,388.2188 17.8281,387.2031 17.8281,385.625 L17.8281,384.5781 C17.8281,382.875 19.0469,381.6719 20.75,381.6719 C21.3281,381.6719 21.9063,381.8125 22.375,382.0625 C22.8438,382.3281 23.0156,382.5156 23.0781,382.875 C23.2031,383.5469 23.4531,383.7969 23.9844,383.7969 C24.2656,383.7969 24.5469,383.6563 24.7344,383.4375 C24.8594,383.2656 24.9063,383.0938 24.9063,382.6563 L24.9063,381.2969 C24.9063,380.875 24.8906,380.7344 24.7656,380.5625 C24.5938,380.3125 24.3125,380.1563 23.9844,380.1563 C23.6719,380.1563 23.4688,380.2656 23.25,380.5313 C22.0781,380.0313 21.6406,379.9219 20.6875,379.9219 C18.0156,379.9219 16,381.9375 16,384.5625 L16,385.6563 Z "/><text fill="#000000" font-family="sans-serif" font-size="12" font-style="italic" lengthAdjust="spacingAndGlyphs" textLength="98" x="77" y="375.2001">«DatabaseTable»</text><text fill="#000000" font-family="sans-serif" font-size="14" font-weight="bold" lengthAdjust="spacingAndGlyphs" textLength="77" x="87.5" y="391.2061">SettingsDB</text><text fill="#000000" font-family="sans-serif" font-size="10" lengthAdjust="spacingAndGlyphs" textLength="182" x="35" y="404.29">it.matlice.ingsw.model.data.impl.jdbc.db</text></a><!--class it.matlice.ingsw.model.data.Interval--><a target="_parent" xlink:actuate="onRequest" xlink:href="../../../../../../../../it/matlice/ingsw/model/data/Interval.html" xlink:show="new" xlink:title="it.matlice.ingsw.model.data.Interval" xlink:type="simple"><rect fill="#FFFFFF" filter="url(#fyequo1)" height="38.7999" style="stroke: #A80036; stroke-width: 1.5;" width="156" x="255" y="365"/><rect fill="#FFFFFF" height="38.7999" style="stroke: #A80036; stroke-width: 1.5;" width="156" x="255" y="365"/><ellipse cx="270" cy="384.4" fill="#ADD1B2" rx="11" ry="11" style="stroke: #A80036; stroke-width: 1.0;"/><path d="M265,385.5562 C265,388.0562 267.1406,389.8687 270.0625,389.8687 C271.2969,389.8687 272.4688,389.5718 273.2188,389.0562 C273.8281,388.6343 274.1563,388.2125 274.1563,387.8062 C274.1563,387.3375 273.7344,386.9312 273.2344,386.9312 C273,386.9312 272.7813,387.0093 272.5781,387.2125 C272.1406,387.65 272.1406,387.65 271.9688,387.7437 C271.5156,387.9781 270.875,388.1187 270.1094,388.1187 C268.1094,388.1187 266.8281,387.1031 266.8281,385.525 L266.8281,384.4781 C266.8281,382.775 268.0469,381.5718 269.75,381.5718 C270.3281,381.5718 270.9063,381.7125 271.375,381.9625 C271.8438,382.2281 272.0156,382.4156 272.0781,382.775 C272.2031,383.4468 272.4531,383.6968 272.9844,383.6968 C273.2656,383.6968 273.5469,383.5562 273.7344,383.3375 C273.8594,383.1656 273.9063,382.9937 273.9063,382.5562 L273.9063,381.1968 C273.9063,380.775 273.8906,380.6343 273.7656,380.4625 C273.5938,380.2125 273.3125,380.0562 272.9844,380.0562 C272.6719,380.0562 272.4688,380.1656 272.25,380.4312 C271.0781,379.9312 270.6406,379.8218 269.6875,379.8218 C267.0156,379.8218 265,381.8375 265,384.4625 L265,385.5562 Z "/><text fill="#000000" font-family="sans-serif" font-size="14" font-weight="bold" lengthAdjust="spacingAndGlyphs" textLength="51" x="320.5" y="383.0059">Interval</text><text fill="#000000" font-family="sans-serif" font-size="10" lengthAdjust="spacingAndGlyphs" textLength="124" x="284" y="396.0899">it.matlice.ingsw.model.data</text></a><!--class it.matlice.ingsw.model.data.impl.jdbc.types.SettingsImpl--><a target="_parent" xlink:actuate="onRequest" xlink:href="../../../../../../../../it/matlice/ingsw/model/data/impl/jdbc/types/SettingsImpl.html" xlink:show="new" xlink:title="it.matlice.ingsw.model.data.impl.jdbc.types.SettingsImpl" xlink:type="simple"><rect fill="#FFFFFF" filter="url(#fyequo1)" height="38.7999" style="stroke: #A80036; stroke-width: 1.5;" width="227" x="109.5" y="8"/><rect fill="#FFFFFF" height="38.7999" style="stroke: #A80036; stroke-width: 1.5;" width="227" x="109.5" y="8"/><ellipse cx="124.5" cy="27.4" fill="#ADD1B2" rx="11" ry="11" style="stroke: #A80036; stroke-width: 1.0;"/><path d="M119.5,28.5562 C119.5,31.0562 121.6406,32.8687 124.5625,32.8687 C125.7969,32.8687 126.9688,32.5718 127.7188,32.0562 C128.3281,31.6343 128.6563,31.2125 128.6563,30.8062 C128.6563,30.3375 128.2344,29.9312 127.7344,29.9312 C127.5,29.9312 127.2813,30.0093 127.0781,30.2125 C126.6406,30.65 126.6406,30.65 126.4688,30.7437 C126.0156,30.9781 125.375,31.1187 124.6094,31.1187 C122.6094,31.1187 121.3281,30.1031 121.3281,28.525 L121.3281,27.4781 C121.3281,25.775 122.5469,24.5718 124.25,24.5718 C124.8281,24.5718 125.4063,24.7125 125.875,24.9625 C126.3438,25.2281 126.5156,25.4156 126.5781,25.775 C126.7031,26.4468 126.9531,26.6968 127.4844,26.6968 C127.7656,26.6968 128.0469,26.5562 128.2344,26.3375 C128.3594,26.1656 128.4063,25.9937 128.4063,25.5562 L128.4063,24.1968 C128.4063,23.775 128.3906,23.6343 128.2656,23.4625 C128.0938,23.2125 127.8125,23.0562 127.4844,23.0562 C127.1719,23.0562 126.9688,23.1656 126.75,23.4312 C125.5781,22.9312 125.1406,22.8218 124.1875,22.8218 C121.5156,22.8218 119.5,24.8375 119.5,27.4625 L119.5,28.5562 Z "/><text fill="#000000" font-family="sans-serif" font-size="14" font-weight="bold" lengthAdjust="spacingAndGlyphs" textLength="86" x="193" y="26.0059">SettingsImpl</text><text fill="#000000" font-family="sans-serif" font-size="10" lengthAdjust="spacingAndGlyphs" textLength="195" x="138.5" y="39.0899">it.matlice.ingsw.model.data.impl.jdbc.types</text></a><path d="M162,297.26 C162,297.26 162,351.71 162,351.71 " fill="none" style="stroke: #A80036; stroke-width: 1.0;"/><polygon fill="#A80036" points="162,356.71,166,347.71,162,351.71,158,347.71,162,356.71" style="stroke: #A80036; stroke-width: 1.0;"/><text fill="#000000" font-family="sans-serif" font-size="13" lengthAdjust="spacingAndGlyphs" textLength="15" x="156.5969" y="345.6956">ref</text><path d="M298.5,297.26 C298.5,297.26 298.5,359.68 298.5,359.68 " fill="none" style="stroke: #A80036; stroke-width: 1.0; stroke-dasharray: 7.0,7.0;"/><polygon fill="#A80036" points="298.5,364.68,302.5,355.68,298.5,359.68,294.5,355.68,298.5,364.68" style="stroke: #A80036; stroke-width: 1.0;"/><path d="M223,47.18 C223,47.18 223,101.93 223,101.93 " fill="none" style="stroke: #A80036; stroke-width: 1.0;"/><polygon fill="#A80036" points="223,106.93,227,97.93,223,101.93,219,97.93,223,106.93" style="stroke: #A80036; stroke-width: 1.0;"/><text fill="#000000" font-family="sans-serif" font-size="13" lengthAdjust="spacingAndGlyphs" textLength="73" x="146.9773" y="95.5461">dbIntervals *</text></g></svg>