<?xml version="1.0" encoding="UTF-8" standalone="no"?><svg xmlns="http://www.w3.org/2000/svg" xmlns:xlink="http://www.w3.org/1999/xlink" contentScriptType="application/ecmascript" contentStyleType="text/css" height="408px" preserveAspectRatio="none" style="width:252px;height:408px;" version="1.1" viewBox="0 0 252 408" width="252px" zoomAndPan="magnify"><defs><filter height="300%" id="fc9tqrr" width="300%" x="-1" y="-1"><feGaussianBlur result="blurOut" stdDeviation="2.0"/><feColorMatrix in="blurOut" result="blurOut2" type="matrix" values="0 0 0 0 0 0 0 0 0 0 0 0 0 0 0 0 0 0 .4 0"/><feOffset dx="4.0" dy="4.0" in="blurOut2" result="blurOut3"/><feBlend in="SourceGraphic" in2="blurOut3" mode="normal"/></filter></defs><g><!--class it.matlice.ingsw.model.data.impl.jdbc.db.LocationsDB--><a target="_parent" xlink:actuate="onRequest" xlink:href="../../../../../../../../it/matlice/ingsw/model/data/impl/jdbc/db/LocationsDB.html" xlink:show="new" xlink:title="it.matlice.ingsw.model.data.impl.jdbc.db.LocationsDB" xlink:type="simple"><rect fill="#FEFECE" filter="url(#fc9tqrr)" height="176.5992" style="stroke: #A80036; stroke-width: 1.5;" width="237" x="6" y="107"/><ellipse cx="31.35" cy="134.5" fill="#ADD1B2" rx="11" ry="11" style="stroke: #A80036; stroke-width: 1.0;"/><path d="M26.35,135.6563 C26.35,138.1563 28.4906,139.9688 31.4125,139.9688 C32.6469,139.9688 33.8188,139.6719 34.5688,139.1563 C35.1781,138.7344 35.5063,138.3125 35.5063,137.9063 C35.5063,137.4375 35.0844,137.0313 34.5844,137.0313 C34.35,137.0313 34.1313,137.1094 33.9281,137.3125 C33.4906,137.75 33.4906,137.75 33.3188,137.8438 C32.8656,138.0781 32.225,138.2188 31.4594,138.2188 C29.4594,138.2188 28.1781,137.2031 28.1781,135.625 L28.1781,134.5781 C28.1781,132.875 29.3969,131.6719 31.1,131.6719 C31.6781,131.6719 32.2563,131.8125 32.725,132.0625 C33.1938,132.3281 33.3656,132.5156 33.4281,132.875 C33.5531,133.5469 33.8031,133.7969 34.3344,133.7969 C34.6156,133.7969 34.8969,133.6563 35.0844,133.4375 C35.2094,133.2656 35.2563,133.0938 35.2563,132.6563 L35.2563,131.2969 C35.2563,130.875 35.2406,130.7344 35.1156,130.5625 C34.9438,130.3125 34.6625,130.1563 34.3344,130.1563 C34.0219,130.1563 33.8188,130.2656 33.6,130.5313 C32.4281,130.0313 31.9906,129.9219 31.0375,129.9219 C28.3656,129.9219 26.35,131.9375 26.35,134.5625 L26.35,135.6563 Z "/><text fill="#000000" font-family="sans-serif" font-size="12" font-style="italic" lengthAdjust="spacingAndGlyphs" textLength="98" x="89.65" y="125.2001">«DatabaseTable»</text><text fill="#000000" font-family="sans-serif" font-size="14" font-weight="bold" lengthAdjust="spacingAndGlyphs" textLength="89" x="94.15" y="141.2061">LocationsDB</text><text fill="#000000" font-family="sans-serif" font-size="10" lengthAdjust="spacingAndGlyphs" textLength="182" x="47.65" y="154.29">it.matlice.ingsw.model.data.impl.jdbc.db</text><line style="stroke: #A80036; stroke-width: 1.5;" x1="7" x2="242" y1="162" y2="162"/><rect fill="none" height="6" style="stroke: #C82930; stroke-width: 1.0;" width="6" x="14" y="171.1"/><text fill="#000000" font-family="sans-serif" font-size="11" lengthAdjust="spacingAndGlyphs" textLength="70" x="26" y="176.219">SettingsDB ref</text><rect fill="none" height="6" style="stroke: #C82930; stroke-width: 1.0;" width="6" x="14" y="184.2999"/><text fill="#000000" font-family="sans-serif" font-size="11" lengthAdjust="spacingAndGlyphs" textLength="68" x="26" y="189.4189">String location</text><line style="stroke: #A80036; stroke-width: 1.5;" x1="7" x2="242" y1="196.3998" y2="196.3998"/><ellipse cx="17" cy="208.4998" fill="#84BE84" rx="3" ry="3" style="stroke: #038048; stroke-width: 1.0;"/><text fill="#000000" font-family="sans-serif" font-size="11" lengthAdjust="spacingAndGlyphs" textLength="211" x="26" y="210.6188">LocationsDB(SettingsDB ref,String location)</text><polygon fill="#4177AF" points="17,217.6997,13,223.6997,21,223.6997" style="stroke: #1963A0; stroke-width: 1.0;"/><text fill="#000000" font-family="sans-serif" font-size="11" lengthAdjust="spacingAndGlyphs" textLength="70" x="26" y="223.8187">LocationsDB()</text><ellipse cx="17" cy="234.8996" fill="#84BE84" rx="3" ry="3" style="stroke: #038048; stroke-width: 1.0;"/><text fill="#000000" font-family="sans-serif" font-size="11" lengthAdjust="spacingAndGlyphs" textLength="97" x="26" y="237.0186">SettingsDB getRef()</text><ellipse cx="17" cy="248.0995" fill="#84BE84" rx="3" ry="3" style="stroke: #038048; stroke-width: 1.0;"/><text fill="#000000" font-family="sans-serif" font-size="11" lengthAdjust="spacingAndGlyphs" textLength="133" x="26" y="250.2185">void setRef(SettingsDB ref)</text><ellipse cx="17" cy="261.2994" fill="#84BE84" rx="3" ry="3" style="stroke: #038048; stroke-width: 1.0;"/><text fill="#000000" font-family="sans-serif" font-size="11" lengthAdjust="spacingAndGlyphs" textLength="95" x="26" y="263.4184">String getLocation()</text><ellipse cx="17" cy="274.4993" fill="#84BE84" rx="3" ry="3" style="stroke: #038048; stroke-width: 1.0;"/><text fill="#000000" font-family="sans-serif" font-size="11" lengthAdjust="spacingAndGlyphs" textLength="155" x="26" y="276.6183">void setLocation(String location)</text></a><!--class it.matlice.ingsw.model.data.impl.jdbc.db.SettingsDB--><a target="_parent" xlink:actuate="onRequest" xlink:href="../../../../../../../../it/matlice/ingsw/model/data/impl/jdbc/db/SettingsDB.html" xlink:show="new" xlink:title="it.matlice.ingsw.model.data.impl.jdbc.db.SettingsDB" xlink:type="simple"><rect fill="#FEFECE" filter="url(#fc9tqrr)" height="55" style="stroke: #A80036; stroke-width: 1.5;" width="214" x="17.5" y="344"/><ellipse cx="32.5" cy="371.5" fill="#ADD1B2" rx="11" ry="11" style="stroke: #A80036; stroke-width: 1.0;"/><path d="M27.5,372.6563 C27.5,375.1563 29.6406,376.9688 32.5625,376.9688 C33.7969,376.9688 34.9688,376.6719 35.7188,376.1563 C36.3281,375.7344 36.6563,375.3125 36.6563,374.9063 C36.6563,374.4375 36.2344,374.0313 35.7344,374.0313 C35.5,374.0313 35.2813,374.1094 35.0781,374.3125 C34.6406,374.75 34.6406,374.75 34.4688,374.8438 C34.0156,375.0781 33.375,375.2188 32.6094,375.2188 C30.6094,375.2188 29.3281,374.2031 29.3281,372.625 L29.3281,371.5781 C29.3281,369.875 30.5469,368.6719 32.25,368.6719 C32.8281,368.6719 33.4063,368.8125 33.875,369.0625 C34.3438,369.3281 34.5156,369.5156 34.5781,369.875 C34.7031,370.5469 34.9531,370.7969 35.4844,370.7969 C35.7656,370.7969 36.0469,370.6563 36.2344,370.4375 C36.3594,370.2656 36.4063,370.0938 36.4063,369.6563 L36.4063,368.2969 C36.4063,367.875 36.3906,367.7344 36.2656,367.5625 C36.0938,367.3125 35.8125,367.1563 35.4844,367.1563 C35.1719,367.1563 34.9688,367.2656 34.75,367.5313 C33.5781,367.0313 33.1406,366.9219 32.1875,366.9219 C29.5156,366.9219 27.5,368.9375 27.5,371.5625 L27.5,372.6563 Z "/><text fill="#000000" font-family="sans-serif" font-size="12" font-style="italic" lengthAdjust="spacingAndGlyphs" textLength="98" x="88.5" y="362.2001">«DatabaseTable»</text><text fill="#000000" font-family="sans-serif" font-size="14" font-weight="bold" lengthAdjust="spacingAndGlyphs" textLength="77" x="99" y="378.2061">SettingsDB</text><text fill="#000000" font-family="sans-serif" font-size="10" lengthAdjust="spacingAndGlyphs" textLength="182" x="46.5" y="391.29">it.matlice.ingsw.model.data.impl.jdbc.db</text></a><!--class it.matlice.ingsw.model.data.impl.jdbc.types.SettingsImpl--><a target="_parent" xlink:actuate="onRequest" xlink:href="../../../../../../../../it/matlice/ingsw/model/data/impl/jdbc/types/SettingsImpl.html" xlink:show="new" xlink:title="it.matlice.ingsw.model.data.impl.jdbc.types.SettingsImpl" xlink:type="simple"><rect fill="#FFFFFF" filter="url(#fc9tqrr)" height="38.7999" style="stroke: #A80036; stroke-width: 1.5;" width="227" x="11" y="8"/><rect fill="#FFFFFF" height="38.7999" style="stroke: #A80036; stroke-width: 1.5;" width="227" x="11" y="8"/><ellipse cx="26" cy="27.4" fill="#ADD1B2" rx="11" ry="11" style="stroke: #A80036; stroke-width: 1.0;"/><path d="M21,28.5562 C21,31.0562 23.1406,32.8687 26.0625,32.8687 C27.2969,32.8687 28.4688,32.5718 29.2188,32.0562 C29.8281,31.6343 30.1563,31.2125 30.1563,30.8062 C30.1563,30.3375 29.7344,29.9312 29.2344,29.9312 C29,29.9312 28.7813,30.0093 28.5781,30.2125 C28.1406,30.65 28.1406,30.65 27.9688,30.7437 C27.5156,30.9781 26.875,31.1187 26.1094,31.1187 C24.1094,31.1187 22.8281,30.1031 22.8281,28.525 L22.8281,27.4781 C22.8281,25.775 24.0469,24.5718 25.75,24.5718 C26.3281,24.5718 26.9063,24.7125 27.375,24.9625 C27.8438,25.2281 28.0156,25.4156 28.0781,25.775 C28.2031,26.4468 28.4531,26.6968 28.9844,26.6968 C29.2656,26.6968 29.5469,26.5562 29.7344,26.3375 C29.8594,26.1656 29.9063,25.9937 29.9063,25.5562 L29.9063,24.1968 C29.9063,23.775 29.8906,23.6343 29.7656,23.4625 C29.5938,23.2125 29.3125,23.0562 28.9844,23.0562 C28.6719,23.0562 28.4688,23.1656 28.25,23.4312 C27.0781,22.9312 26.6406,22.8218 25.6875,22.8218 C23.0156,22.8218 21,24.8375 21,27.4625 L21,28.5562 Z "/><text fill="#000000" font-family="sans-serif" font-size="14" font-weight="bold" lengthAdjust="spacingAndGlyphs" textLength="86" x="94.5" y="26.0059">SettingsImpl</text><text fill="#000000" font-family="sans-serif" font-size="10" lengthAdjust="spacingAndGlyphs" textLength="195" x="40" y="39.0899">it.matlice.ingsw.model.data.impl.jdbc.types</text></a><path d="M124.5,284.02 C124.5,284.02 124.5,338.81 124.5,338.81 " fill="none" style="stroke: #A80036; stroke-width: 1.0;"/><polygon fill="#A80036" points="124.5,343.81,128.5,334.81,124.5,338.81,120.5,334.81,124.5,343.81" style="stroke: #A80036; stroke-width: 1.0;"/><text fill="#000000" font-family="sans-serif" font-size="13" lengthAdjust="spacingAndGlyphs" textLength="15" x="107.6719" y="332.3826">ref</text><path d="M124.5,47.1 C124.5,47.1 124.5,101.95 124.5,101.95 " fill="none" style="stroke: #A80036; stroke-width: 1.0;"/><polygon fill="#A80036" points="124.5,106.95,128.5,97.95,124.5,101.95,120.5,97.95,124.5,106.95" style="stroke: #A80036; stroke-width: 1.0;"/><text fill="#000000" font-family="sans-serif" font-size="13" lengthAdjust="spacingAndGlyphs" textLength="79" x="41.982" y="95.5171">dbLocations *</text></g></svg>