<?xml version="1.0" encoding="UTF-8" standalone="no"?><svg xmlns="http://www.w3.org/2000/svg" xmlns:xlink="http://www.w3.org/1999/xlink" contentScriptType="application/ecmascript" contentStyleType="text/css" height="474px" preserveAspectRatio="none" style="width:445px;height:474px;" version="1.1" viewBox="0 0 445 474" width="445px" zoomAndPan="magnify"><defs><filter height="300%" id="fuzp3lc" width="300%" x="-1" y="-1"><feGaussianBlur result="blurOut" stdDeviation="2.0"/><feColorMatrix in="blurOut" result="blurOut2" type="matrix" values="0 0 0 0 0 0 0 0 0 0 0 0 0 0 0 0 0 0 .4 0"/><feOffset dx="4.0" dy="4.0" in="blurOut2" result="blurOut3"/><feBlend in="SourceGraphic" in2="blurOut3" mode="normal"/></filter></defs><g><!--class it.matlice.ingsw.model.data.impl.jdbc.db.MessageDB--><a target="_parent" xlink:actuate="onRequest" xlink:href="../../../../../../../../it/matlice/ingsw/model/data/impl/jdbc/db/MessageDB.html" xlink:show="new" xlink:title="it.matlice.ingsw.model.data.impl.jdbc.db.MessageDB" xlink:type="simple"><rect fill="#FEFECE" filter="url(#fuzp3lc)" height="242.5987" style="stroke: #A80036; stroke-width: 1.5;" width="420" x="6" y="107"/><ellipse cx="120.75" cy="134.5" fill="#ADD1B2" rx="11" ry="11" style="stroke: #A80036; stroke-width: 1.0;"/><path d="M115.75,135.6563 C115.75,138.1563 117.8906,139.9688 120.8125,139.9688 C122.0469,139.9688 123.2188,139.6719 123.9688,139.1563 C124.5781,138.7344 124.9063,138.3125 124.9063,137.9063 C124.9063,137.4375 124.4844,137.0313 123.9844,137.0313 C123.75,137.0313 123.5313,137.1094 123.3281,137.3125 C122.8906,137.75 122.8906,137.75 122.7188,137.8438 C122.2656,138.0781 121.625,138.2188 120.8594,138.2188 C118.8594,138.2188 117.5781,137.2031 117.5781,135.625 L117.5781,134.5781 C117.5781,132.875 118.7969,131.6719 120.5,131.6719 C121.0781,131.6719 121.6563,131.8125 122.125,132.0625 C122.5938,132.3281 122.7656,132.5156 122.8281,132.875 C122.9531,133.5469 123.2031,133.7969 123.7344,133.7969 C124.0156,133.7969 124.2969,133.6563 124.4844,133.4375 C124.6094,133.2656 124.6563,133.0938 124.6563,132.6563 L124.6563,131.2969 C124.6563,130.875 124.6406,130.7344 124.5156,130.5625 C124.3438,130.3125 124.0625,130.1563 123.7344,130.1563 C123.4219,130.1563 123.2188,130.2656 123,130.5313 C121.8281,130.0313 121.3906,129.9219 120.4375,129.9219 C117.7656,129.9219 115.75,131.9375 115.75,134.5625 L115.75,135.6563 Z "/><text fill="#000000" font-family="sans-serif" font-size="12" font-style="italic" lengthAdjust="spacingAndGlyphs" textLength="98" x="183.25" y="125.2001">«DatabaseTable»</text><text fill="#000000" font-family="sans-serif" font-size="14" font-weight="bold" lengthAdjust="spacingAndGlyphs" textLength="81" x="191.75" y="141.2061">MessageDB</text><text fill="#000000" font-family="sans-serif" font-size="10" lengthAdjust="spacingAndGlyphs" textLength="182" x="141.25" y="154.29">it.matlice.ingsw.model.data.impl.jdbc.db</text><line style="stroke: #A80036; stroke-width: 1.5;" x1="7" x2="425" y1="162" y2="162"/><rect fill="none" height="6" style="stroke: #C82930; stroke-width: 1.0;" width="6" x="14" y="171.1"/><text fill="#000000" font-family="sans-serif" font-size="11" lengthAdjust="spacingAndGlyphs" textLength="45" x="26" y="176.219">Integer id</text><rect fill="none" height="6" style="stroke: #C82930; stroke-width: 1.0;" width="6" x="14" y="184.2999"/><text fill="#000000" font-family="sans-serif" font-size="11" lengthAdjust="spacingAndGlyphs" textLength="96" x="26" y="189.4189">Long proposedDate</text><rect fill="none" height="6" style="stroke: #C82930; stroke-width: 1.0;" width="6" x="14" y="197.4998"/><text fill="#000000" font-family="sans-serif" font-size="11" lengthAdjust="spacingAndGlyphs" textLength="118" x="26" y="202.6188">String proposedLocation</text><rect fill="none" height="6" style="stroke: #C82930; stroke-width: 1.0;" width="6" x="14" y="210.6997"/><text fill="#000000" font-family="sans-serif" font-size="11" lengthAdjust="spacingAndGlyphs" textLength="99" x="26" y="215.8187">MessageDB answer</text><rect fill="none" height="6" style="stroke: #C82930; stroke-width: 1.0;" width="6" x="14" y="223.8996"/><text fill="#000000" font-family="sans-serif" font-size="11" lengthAdjust="spacingAndGlyphs" textLength="106" x="26" y="229.0186">OfferDB relative_offer</text><line style="stroke: #A80036; stroke-width: 1.5;" x1="7" x2="425" y1="235.9995" y2="235.9995"/><ellipse cx="17" cy="248.0995" fill="#84BE84" rx="3" ry="3" style="stroke: #038048; stroke-width: 1.0;"/><text fill="#000000" font-family="sans-serif" font-size="11" lengthAdjust="spacingAndGlyphs" textLength="394" x="26" y="250.2185">MessageDB(Long proposedDate,String proposedLocation,OfferDB relative_offer)</text><polygon fill="#4177AF" points="17,257.2994,13,263.2994,21,263.2994" style="stroke: #1963A0; stroke-width: 1.0;"/><text fill="#000000" font-family="sans-serif" font-size="11" lengthAdjust="spacingAndGlyphs" textLength="68" x="26" y="263.4184">MessageDB()</text><ellipse cx="17" cy="274.4993" fill="#84BE84" rx="3" ry="3" style="stroke: #038048; stroke-width: 1.0;"/><text fill="#000000" font-family="sans-serif" font-size="11" lengthAdjust="spacingAndGlyphs" textLength="182" x="26" y="276.6183">void setAnswer(MessageDB answer)</text><ellipse cx="17" cy="287.6992" fill="#84BE84" rx="3" ry="3" style="stroke: #038048; stroke-width: 1.0;"/><text fill="#000000" font-family="sans-serif" font-size="11" lengthAdjust="spacingAndGlyphs" textLength="69" x="26" y="289.8182">Integer getId()</text><ellipse cx="17" cy="300.8991" fill="#84BE84" rx="3" ry="3" style="stroke: #038048; stroke-width: 1.0;"/><text fill="#000000" font-family="sans-serif" font-size="11" lengthAdjust="spacingAndGlyphs" textLength="120" x="26" y="303.0181">Long getProposedDate()</text><ellipse cx="17" cy="314.099" fill="#84BE84" rx="3" ry="3" style="stroke: #038048; stroke-width: 1.0;"/><text fill="#000000" font-family="sans-serif" font-size="11" lengthAdjust="spacingAndGlyphs" textLength="142" x="26" y="316.218">String getProposedLocation()</text><ellipse cx="17" cy="327.2989" fill="#84BE84" rx="3" ry="3" style="stroke: #038048; stroke-width: 1.0;"/><text fill="#000000" font-family="sans-serif" font-size="11" lengthAdjust="spacingAndGlyphs" textLength="123" x="26" y="329.4179">MessageDB getAnswer()</text><ellipse cx="17" cy="340.4988" fill="#84BE84" rx="3" ry="3" style="stroke: #038048; stroke-width: 1.0;"/><text fill="#000000" font-family="sans-serif" font-size="11" lengthAdjust="spacingAndGlyphs" textLength="133" x="26" y="342.6178">OfferDB getRelative_offer()</text></a><!--class it.matlice.ingsw.model.data.impl.jdbc.db.OfferDB--><a target="_parent" xlink:actuate="onRequest" xlink:href="../../../../../../../../it/matlice/ingsw/model/data/impl/jdbc/db/OfferDB.html" xlink:show="new" xlink:title="it.matlice.ingsw.model.data.impl.jdbc.db.OfferDB" xlink:type="simple"><rect fill="#FEFECE" filter="url(#fuzp3lc)" height="55" style="stroke: #A80036; stroke-width: 1.5;" width="214" x="109" y="410"/><ellipse cx="124" cy="437.5" fill="#ADD1B2" rx="11" ry="11" style="stroke: #A80036; stroke-width: 1.0;"/><path d="M119,438.6563 C119,441.1563 121.1406,442.9688 124.0625,442.9688 C125.2969,442.9688 126.4688,442.6719 127.2188,442.1563 C127.8281,441.7344 128.1563,441.3125 128.1563,440.9063 C128.1563,440.4375 127.7344,440.0313 127.2344,440.0313 C127,440.0313 126.7813,440.1094 126.5781,440.3125 C126.1406,440.75 126.1406,440.75 125.9688,440.8438 C125.5156,441.0781 124.875,441.2188 124.1094,441.2188 C122.1094,441.2188 120.8281,440.2031 120.8281,438.625 L120.8281,437.5781 C120.8281,435.875 122.0469,434.6719 123.75,434.6719 C124.3281,434.6719 124.9063,434.8125 125.375,435.0625 C125.8438,435.3281 126.0156,435.5156 126.0781,435.875 C126.2031,436.5469 126.4531,436.7969 126.9844,436.7969 C127.2656,436.7969 127.5469,436.6563 127.7344,436.4375 C127.8594,436.2656 127.9063,436.0938 127.9063,435.6563 L127.9063,434.2969 C127.9063,433.875 127.8906,433.7344 127.7656,433.5625 C127.5938,433.3125 127.3125,433.1563 126.9844,433.1563 C126.6719,433.1563 126.4688,433.2656 126.25,433.5313 C125.0781,433.0313 124.6406,432.9219 123.6875,432.9219 C121.0156,432.9219 119,434.9375 119,437.5625 L119,438.6563 Z "/><text fill="#000000" font-family="sans-serif" font-size="12" font-style="italic" lengthAdjust="spacingAndGlyphs" textLength="98" x="180" y="428.2001">«DatabaseTable»</text><text fill="#000000" font-family="sans-serif" font-size="14" font-weight="bold" lengthAdjust="spacingAndGlyphs" textLength="54" x="202" y="444.2061">OfferDB</text><text fill="#000000" font-family="sans-serif" font-size="10" lengthAdjust="spacingAndGlyphs" textLength="182" x="138" y="457.29">it.matlice.ingsw.model.data.impl.jdbc.db</text></a><!--class it.matlice.ingsw.model.data.impl.jdbc.types.MessageImpl--><a target="_parent" xlink:actuate="onRequest" xlink:href="../../../../../../../../it/matlice/ingsw/model/data/impl/jdbc/types/MessageImpl.html" xlink:show="new" xlink:title="it.matlice.ingsw.model.data.impl.jdbc.types.MessageImpl" xlink:type="simple"><rect fill="#FFFFFF" filter="url(#fuzp3lc)" height="38.7999" style="stroke: #A80036; stroke-width: 1.5;" width="227" x="102.5" y="8"/><rect fill="#FFFFFF" height="38.7999" style="stroke: #A80036; stroke-width: 1.5;" width="227" x="102.5" y="8"/><ellipse cx="117.5" cy="27.4" fill="#ADD1B2" rx="11" ry="11" style="stroke: #A80036; stroke-width: 1.0;"/><path d="M112.5,28.5562 C112.5,31.0562 114.6406,32.8687 117.5625,32.8687 C118.7969,32.8687 119.9688,32.5718 120.7188,32.0562 C121.3281,31.6343 121.6563,31.2125 121.6563,30.8062 C121.6563,30.3375 121.2344,29.9312 120.7344,29.9312 C120.5,29.9312 120.2813,30.0093 120.0781,30.2125 C119.6406,30.65 119.6406,30.65 119.4688,30.7437 C119.0156,30.9781 118.375,31.1187 117.6094,31.1187 C115.6094,31.1187 114.3281,30.1031 114.3281,28.525 L114.3281,27.4781 C114.3281,25.775 115.5469,24.5718 117.25,24.5718 C117.8281,24.5718 118.4063,24.7125 118.875,24.9625 C119.3438,25.2281 119.5156,25.4156 119.5781,25.775 C119.7031,26.4468 119.9531,26.6968 120.4844,26.6968 C120.7656,26.6968 121.0469,26.5562 121.2344,26.3375 C121.3594,26.1656 121.4063,25.9937 121.4063,25.5562 L121.4063,24.1968 C121.4063,23.775 121.3906,23.6343 121.2656,23.4625 C121.0938,23.2125 120.8125,23.0562 120.4844,23.0562 C120.1719,23.0562 119.9688,23.1656 119.75,23.4312 C118.5781,22.9312 118.1406,22.8218 117.1875,22.8218 C114.5156,22.8218 112.5,24.8375 112.5,27.4625 L112.5,28.5562 Z "/><text fill="#000000" font-family="sans-serif" font-size="14" font-weight="bold" lengthAdjust="spacingAndGlyphs" textLength="90" x="184" y="26.0059">MessageImpl</text><text fill="#000000" font-family="sans-serif" font-size="10" lengthAdjust="spacingAndGlyphs" textLength="195" x="131.5" y="39.0899">it.matlice.ingsw.model.data.impl.jdbc.types</text></a><path d="M377.75,106.93 C377.75,89.32 377.75,77 377.75,77 C377.75,77 444,77 444,77 C444,77 444,380 444,380 C444,380 374.5,380 374.5,380 C374.5,380 374.5,355.07 374.5,355.07 " fill="none" style="stroke: #A80036; stroke-width: 1.0;"/><polygon fill="#A80036" points="374.5,350.07,370.5,359.07,374.5,355.07,378.5,359.07,374.5,350.07" style="stroke: #A80036; stroke-width: 1.0;"/><text fill="#000000" font-family="sans-serif" font-size="13" lengthAdjust="spacingAndGlyphs" textLength="41" x="341.4781" y="369.6378">answer</text><path d="M216,350.08 C216,350.08 216,404.89 216,404.89 " fill="none" style="stroke: #A80036; stroke-width: 1.0;"/><polygon fill="#A80036" points="216,409.89,220,400.89,216,404.89,212,400.89,216,409.89" style="stroke: #A80036; stroke-width: 1.0;"/><text fill="#000000" font-family="sans-serif" font-size="13" lengthAdjust="spacingAndGlyphs" textLength="75" x="131.8594" y="398.4821">relative_offer</text><path d="M216,47.14 C216,47.14 216,101.94 216,101.94 " fill="none" style="stroke: #A80036; stroke-width: 1.0;"/><polygon fill="#A80036" points="216,106.94,220,97.94,216,101.94,212,97.94,216,106.94" style="stroke: #A80036; stroke-width: 1.0;"/><text fill="#000000" font-family="sans-serif" font-size="13" lengthAdjust="spacingAndGlyphs" textLength="41" x="173.6227" y="95.3794">dbData</text></g></svg>