<?xml version="1.0" encoding="UTF-8" standalone="no"?><svg xmlns="http://www.w3.org/2000/svg" xmlns:xlink="http://www.w3.org/1999/xlink" contentScriptType="application/ecmascript" contentStyleType="text/css" height="582px" preserveAspectRatio="none" style="width:740px;height:582px;" version="1.1" viewBox="0 0 740 582" width="740px" zoomAndPan="magnify"><defs><filter height="300%" id="fcm1pce" width="300%" x="-1" y="-1"><feGaussianBlur result="blurOut" stdDeviation="2.0"/><feColorMatrix in="blurOut" result="blurOut2" type="matrix" values="0 0 0 0 0 0 0 0 0 0 0 0 0 0 0 0 0 0 .4 0"/><feOffset dx="4.0" dy="4.0" in="blurOut2" result="blurOut3"/><feBlend in="SourceGraphic" in2="blurOut3" mode="normal"/></filter></defs><g><!--class it.matlice.ingsw.model.data.impl.jdbc.db.OfferDB--><a target="_parent" xlink:actuate="onRequest" xlink:href="../../../../../../../../it/matlice/ingsw/model/data/impl/jdbc/db/OfferDB.html" xlink:show="new" xlink:title="it.matlice.ingsw.model.data.impl.jdbc.db.OfferDB" xlink:type="simple"><rect fill="#FEFECE" filter="url(#fcm1pce)" height="334.9981" style="stroke: #A80036; stroke-width: 1.5;" width="640" x="42" y="123"/><ellipse cx="266.75" cy="150.5" fill="#ADD1B2" rx="11" ry="11" style="stroke: #A80036; stroke-width: 1.0;"/><path d="M261.75,151.6563 C261.75,154.1563 263.8906,155.9688 266.8125,155.9688 C268.0469,155.9688 269.2188,155.6719 269.9688,155.1563 C270.5781,154.7344 270.9063,154.3125 270.9063,153.9063 C270.9063,153.4375 270.4844,153.0313 269.9844,153.0313 C269.75,153.0313 269.5313,153.1094 269.3281,153.3125 C268.8906,153.75 268.8906,153.75 268.7188,153.8438 C268.2656,154.0781 267.625,154.2188 266.8594,154.2188 C264.8594,154.2188 263.5781,153.2031 263.5781,151.625 L263.5781,150.5781 C263.5781,148.875 264.7969,147.6719 266.5,147.6719 C267.0781,147.6719 267.6563,147.8125 268.125,148.0625 C268.5938,148.3281 268.7656,148.5156 268.8281,148.875 C268.9531,149.5469 269.2031,149.7969 269.7344,149.7969 C270.0156,149.7969 270.2969,149.6563 270.4844,149.4375 C270.6094,149.2656 270.6563,149.0938 270.6563,148.6563 L270.6563,147.2969 C270.6563,146.875 270.6406,146.7344 270.5156,146.5625 C270.3438,146.3125 270.0625,146.1563 269.7344,146.1563 C269.4219,146.1563 269.2188,146.2656 269,146.5313 C267.8281,146.0313 267.3906,145.9219 266.4375,145.9219 C263.7656,145.9219 261.75,147.9375 261.75,150.5625 L261.75,151.6563 Z "/><text fill="#000000" font-family="sans-serif" font-size="12" font-style="italic" lengthAdjust="spacingAndGlyphs" textLength="98" x="329.25" y="141.2001">«DatabaseTable»</text><text fill="#000000" font-family="sans-serif" font-size="14" font-weight="bold" lengthAdjust="spacingAndGlyphs" textLength="54" x="351.25" y="157.2061">OfferDB</text><text fill="#000000" font-family="sans-serif" font-size="10" lengthAdjust="spacingAndGlyphs" textLength="182" x="287.25" y="170.29">it.matlice.ingsw.model.data.impl.jdbc.db</text><line style="stroke: #A80036; stroke-width: 1.5;" x1="43" x2="681" y1="178" y2="178"/><rect fill="none" height="6" style="stroke: #C82930; stroke-width: 1.0;" width="6" x="50" y="187.1"/><text fill="#000000" font-family="sans-serif" font-size="11" lengthAdjust="spacingAndGlyphs" textLength="45" x="62" y="192.219">Integer id</text><rect fill="none" height="6" style="stroke: #C82930; stroke-width: 1.0;" width="6" x="50" y="200.2999"/><text fill="#000000" font-family="sans-serif" font-size="11" lengthAdjust="spacingAndGlyphs" textLength="58" x="62" y="205.4189">String name</text><rect fill="none" height="6" style="stroke: #C82930; stroke-width: 1.0;" width="6" x="50" y="213.4998"/><text fill="#000000" font-family="sans-serif" font-size="11" lengthAdjust="spacingAndGlyphs" textLength="72" x="62" y="218.6188">UserDB owner</text><rect fill="none" height="6" style="stroke: #C82930; stroke-width: 1.0;" width="6" x="50" y="226.6997"/><text fill="#000000" font-family="sans-serif" font-size="11" lengthAdjust="spacingAndGlyphs" textLength="106" x="62" y="231.8187">CategoryDB category</text><rect fill="none" height="6" style="stroke: #C82930; stroke-width: 1.0;" width="6" x="50" y="239.8996"/><text fill="#000000" font-family="sans-serif" font-size="11" lengthAdjust="spacingAndGlyphs" textLength="61" x="62" y="245.0186">String status</text><rect fill="none" height="6" style="stroke: #C82930; stroke-width: 1.0;" width="6" x="50" y="253.0995"/><text fill="#000000" font-family="sans-serif" font-size="11" lengthAdjust="spacingAndGlyphs" textLength="99" x="62" y="258.2185">OfferDB linked_offer</text><rect fill="none" height="6" style="stroke: #C82930; stroke-width: 1.0;" width="6" x="50" y="266.2994"/><text fill="#000000" font-family="sans-serif" font-size="11" lengthAdjust="spacingAndGlyphs" textLength="99" x="62" y="271.4184">Long proposed_time</text><line style="stroke: #A80036; stroke-width: 1.5;" x1="43" x2="681" y1="278.3993" y2="278.3993"/><ellipse cx="53" cy="290.4993" fill="#84BE84" rx="3" ry="3" style="stroke: #038048; stroke-width: 1.0;"/><text fill="#000000" font-family="sans-serif" font-size="11" lengthAdjust="spacingAndGlyphs" textLength="614" x="62" y="292.6183">OfferDB(String name,UserDB owner,CategoryDB category,Offer.OfferStatus status,OfferDB linked_offer,Long proposed_time)</text><polygon fill="#4177AF" points="53,299.6992,49,305.6992,57,305.6992" style="stroke: #1963A0; stroke-width: 1.0;"/><text fill="#000000" font-family="sans-serif" font-size="11" lengthAdjust="spacingAndGlyphs" textLength="48" x="62" y="305.8182">OfferDB()</text><ellipse cx="53" cy="316.8991" fill="#84BE84" rx="3" ry="3" style="stroke: #038048; stroke-width: 1.0;"/><text fill="#000000" font-family="sans-serif" font-size="11" lengthAdjust="spacingAndGlyphs" textLength="69" x="62" y="319.0181">Integer getId()</text><ellipse cx="53" cy="330.099" fill="#84BE84" rx="3" ry="3" style="stroke: #038048; stroke-width: 1.0;"/><text fill="#000000" font-family="sans-serif" font-size="11" lengthAdjust="spacingAndGlyphs" textLength="83" x="62" y="332.218">String getName()</text><ellipse cx="53" cy="343.2989" fill="#84BE84" rx="3" ry="3" style="stroke: #038048; stroke-width: 1.0;"/><text fill="#000000" font-family="sans-serif" font-size="11" lengthAdjust="spacingAndGlyphs" textLength="98" x="62" y="345.4179">UserDB getOwner()</text><ellipse cx="53" cy="356.4988" fill="#84BE84" rx="3" ry="3" style="stroke: #038048; stroke-width: 1.0;"/><text fill="#000000" font-family="sans-serif" font-size="11" lengthAdjust="spacingAndGlyphs" textLength="131" x="62" y="358.6178">CategoryDB getCategory()</text><ellipse cx="53" cy="369.6987" fill="#84BE84" rx="3" ry="3" style="stroke: #038048; stroke-width: 1.0;"/><text fill="#000000" font-family="sans-serif" font-size="11" lengthAdjust="spacingAndGlyphs" textLength="141" x="62" y="371.8177">Offer.OfferStatus getStatus()</text><ellipse cx="53" cy="382.8986" fill="#84BE84" rx="3" ry="3" style="stroke: #038048; stroke-width: 1.0;"/><text fill="#000000" font-family="sans-serif" font-size="11" lengthAdjust="spacingAndGlyphs" textLength="123" x="62" y="385.0176">OfferDB getLinkedOffer()</text><ellipse cx="53" cy="396.0985" fill="#84BE84" rx="3" ry="3" style="stroke: #038048; stroke-width: 1.0;"/><text fill="#000000" font-family="sans-serif" font-size="11" lengthAdjust="spacingAndGlyphs" textLength="121" x="62" y="398.2175">Long getProposedTime()</text><ellipse cx="53" cy="409.2984" fill="#84BE84" rx="3" ry="3" style="stroke: #038048; stroke-width: 1.0;"/><text fill="#000000" font-family="sans-serif" font-size="11" lengthAdjust="spacingAndGlyphs" textLength="194" x="62" y="411.4174">void setStatus(Offer.OfferStatus status)</text><ellipse cx="53" cy="422.4983" fill="#84BE84" rx="3" ry="3" style="stroke: #038048; stroke-width: 1.0;"/><text fill="#000000" font-family="sans-serif" font-size="11" lengthAdjust="spacingAndGlyphs" textLength="181" x="62" y="424.6173">void setLinkedOffer(OfferDB dbData)</text><ellipse cx="53" cy="435.6982" fill="#84BE84" rx="3" ry="3" style="stroke: #038048; stroke-width: 1.0;"/><text fill="#000000" font-family="sans-serif" font-size="11" lengthAdjust="spacingAndGlyphs" textLength="160" x="62" y="437.8172">void setProposedTime(long time)</text><ellipse cx="53" cy="448.8981" fill="#84BE84" rx="3" ry="3" style="stroke: #038048; stroke-width: 1.0;"/><text fill="#000000" font-family="sans-serif" font-size="11" lengthAdjust="spacingAndGlyphs" textLength="130" x="62" y="451.0171">boolean equals(Object obj)</text></a><!--class it.matlice.ingsw.model.data.impl.jdbc.db.OfferFieldDB--><a target="_parent" xlink:actuate="onRequest" xlink:href="../../../../../../../../it/matlice/ingsw/model/data/impl/jdbc/db/OfferFieldDB.html" xlink:show="new" xlink:title="it.matlice.ingsw.model.data.impl.jdbc.db.OfferFieldDB" xlink:type="simple"><rect fill="#FEFECE" filter="url(#fcm1pce)" height="55" style="stroke: #A80036; stroke-width: 1.5;" width="214" x="6" y="8"/><ellipse cx="21" cy="35.5" fill="#ADD1B2" rx="11" ry="11" style="stroke: #A80036; stroke-width: 1.0;"/><path d="M16,36.6563 C16,39.1563 18.1406,40.9688 21.0625,40.9688 C22.2969,40.9688 23.4688,40.6719 24.2188,40.1563 C24.8281,39.7344 25.1563,39.3125 25.1563,38.9063 C25.1563,38.4375 24.7344,38.0313 24.2344,38.0313 C24,38.0313 23.7813,38.1094 23.5781,38.3125 C23.1406,38.75 23.1406,38.75 22.9688,38.8438 C22.5156,39.0781 21.875,39.2188 21.1094,39.2188 C19.1094,39.2188 17.8281,38.2031 17.8281,36.625 L17.8281,35.5781 C17.8281,33.875 19.0469,32.6719 20.75,32.6719 C21.3281,32.6719 21.9063,32.8125 22.375,33.0625 C22.8438,33.3281 23.0156,33.5156 23.0781,33.875 C23.2031,34.5469 23.4531,34.7969 23.9844,34.7969 C24.2656,34.7969 24.5469,34.6563 24.7344,34.4375 C24.8594,34.2656 24.9063,34.0938 24.9063,33.6563 L24.9063,32.2969 C24.9063,31.875 24.8906,31.7344 24.7656,31.5625 C24.5938,31.3125 24.3125,31.1563 23.9844,31.1563 C23.6719,31.1563 23.4688,31.2656 23.25,31.5313 C22.0781,31.0313 21.6406,30.9219 20.6875,30.9219 C18.0156,30.9219 16,32.9375 16,35.5625 L16,36.6563 Z "/><text fill="#000000" font-family="sans-serif" font-size="12" font-style="italic" lengthAdjust="spacingAndGlyphs" textLength="98" x="77" y="26.2001">«DatabaseTable»</text><text fill="#000000" font-family="sans-serif" font-size="14" font-weight="bold" lengthAdjust="spacingAndGlyphs" textLength="88" x="82" y="42.2061">OfferFieldDB</text><text fill="#000000" font-family="sans-serif" font-size="10" lengthAdjust="spacingAndGlyphs" textLength="182" x="35" y="55.29">it.matlice.ingsw.model.data.impl.jdbc.db</text></a><!--class it.matlice.ingsw.model.data.impl.jdbc.db.UserDB--><a target="_parent" xlink:actuate="onRequest" xlink:href="../../../../../../../../it/matlice/ingsw/model/data/impl/jdbc/db/UserDB.html" xlink:show="new" xlink:title="it.matlice.ingsw.model.data.impl.jdbc.db.UserDB" xlink:type="simple"><rect fill="#FEFECE" filter="url(#fcm1pce)" height="55" style="stroke: #A80036; stroke-width: 1.5;" width="214" x="6" y="518"/><ellipse cx="21" cy="545.5" fill="#ADD1B2" rx="11" ry="11" style="stroke: #A80036; stroke-width: 1.0;"/><path d="M16,546.6563 C16,549.1563 18.1406,550.9688 21.0625,550.9688 C22.2969,550.9688 23.4688,550.6719 24.2188,550.1563 C24.8281,549.7344 25.1563,549.3125 25.1563,548.9063 C25.1563,548.4375 24.7344,548.0313 24.2344,548.0313 C24,548.0313 23.7813,548.1094 23.5781,548.3125 C23.1406,548.75 23.1406,548.75 22.9688,548.8438 C22.5156,549.0781 21.875,549.2188 21.1094,549.2188 C19.1094,549.2188 17.8281,548.2031 17.8281,546.625 L17.8281,545.5781 C17.8281,543.875 19.0469,542.6719 20.75,542.6719 C21.3281,542.6719 21.9063,542.8125 22.375,543.0625 C22.8438,543.3281 23.0156,543.5156 23.0781,543.875 C23.2031,544.5469 23.4531,544.7969 23.9844,544.7969 C24.2656,544.7969 24.5469,544.6563 24.7344,544.4375 C24.8594,544.2656 24.9063,544.0938 24.9063,543.6563 L24.9063,542.2969 C24.9063,541.875 24.8906,541.7344 24.7656,541.5625 C24.5938,541.3125 24.3125,541.1563 23.9844,541.1563 C23.6719,541.1563 23.4688,541.2656 23.25,541.5313 C22.0781,541.0313 21.6406,540.9219 20.6875,540.9219 C18.0156,540.9219 16,542.9375 16,545.5625 L16,546.6563 Z "/><text fill="#000000" font-family="sans-serif" font-size="12" font-style="italic" lengthAdjust="spacingAndGlyphs" textLength="98" x="77" y="536.2001">«DatabaseTable»</text><text fill="#000000" font-family="sans-serif" font-size="14" font-weight="bold" lengthAdjust="spacingAndGlyphs" textLength="51" x="100.5" y="552.2061">UserDB</text><text fill="#000000" font-family="sans-serif" font-size="10" lengthAdjust="spacingAndGlyphs" textLength="182" x="35" y="565.29">it.matlice.ingsw.model.data.impl.jdbc.db</text></a><!--class it.matlice.ingsw.model.data.impl.jdbc.db.CategoryDB--><a target="_parent" xlink:actuate="onRequest" xlink:href="../../../../../../../../it/matlice/ingsw/model/data/impl/jdbc/db/CategoryDB.html" xlink:show="new" xlink:title="it.matlice.ingsw.model.data.impl.jdbc.db.CategoryDB" xlink:type="simple"><rect fill="#FEFECE" filter="url(#fcm1pce)" height="55" style="stroke: #A80036; stroke-width: 1.5;" width="214" x="255" y="518"/><ellipse cx="270" cy="545.5" fill="#ADD1B2" rx="11" ry="11" style="stroke: #A80036; stroke-width: 1.0;"/><path d="M265,546.6563 C265,549.1563 267.1406,550.9688 270.0625,550.9688 C271.2969,550.9688 272.4688,550.6719 273.2188,550.1563 C273.8281,549.7344 274.1563,549.3125 274.1563,548.9063 C274.1563,548.4375 273.7344,548.0313 273.2344,548.0313 C273,548.0313 272.7813,548.1094 272.5781,548.3125 C272.1406,548.75 272.1406,548.75 271.9688,548.8438 C271.5156,549.0781 270.875,549.2188 270.1094,549.2188 C268.1094,549.2188 266.8281,548.2031 266.8281,546.625 L266.8281,545.5781 C266.8281,543.875 268.0469,542.6719 269.75,542.6719 C270.3281,542.6719 270.9063,542.8125 271.375,543.0625 C271.8438,543.3281 272.0156,543.5156 272.0781,543.875 C272.2031,544.5469 272.4531,544.7969 272.9844,544.7969 C273.2656,544.7969 273.5469,544.6563 273.7344,544.4375 C273.8594,544.2656 273.9063,544.0938 273.9063,543.6563 L273.9063,542.2969 C273.9063,541.875 273.8906,541.7344 273.7656,541.5625 C273.5938,541.3125 273.3125,541.1563 272.9844,541.1563 C272.6719,541.1563 272.4688,541.2656 272.25,541.5313 C271.0781,541.0313 270.6406,540.9219 269.6875,540.9219 C267.0156,540.9219 265,542.9375 265,545.5625 L265,546.6563 Z "/><text fill="#000000" font-family="sans-serif" font-size="12" font-style="italic" lengthAdjust="spacingAndGlyphs" textLength="98" x="326" y="536.2001">«DatabaseTable»</text><text fill="#000000" font-family="sans-serif" font-size="14" font-weight="bold" lengthAdjust="spacingAndGlyphs" textLength="82" x="334" y="552.2061">CategoryDB</text><text fill="#000000" font-family="sans-serif" font-size="10" lengthAdjust="spacingAndGlyphs" textLength="182" x="284" y="565.29">it.matlice.ingsw.model.data.impl.jdbc.db</text></a><!--class it.matlice.ingsw.model.data.Offer.OfferStatus--><a target="_parent" xlink:actuate="onRequest" xlink:href="../../../../../../../../it/matlice/ingsw/model/data/Offer.OfferStatus.html" xlink:show="new" xlink:title="it.matlice.ingsw.model.data.Offer.OfferStatus" xlink:type="simple"><rect fill="#FFFFFF" filter="url(#fcm1pce)" height="38.7999" style="stroke: #A80036; stroke-width: 1.5;" width="156" x="504" y="526"/><rect fill="#FFFFFF" height="38.7999" style="stroke: #A80036; stroke-width: 1.5;" width="156" x="504" y="526"/><ellipse cx="519" cy="545.4" fill="#EB937F" rx="11" ry="11" style="stroke: #A80036; stroke-width: 1.0;"/><path d="M517.8594,546.4625 L519.1719,546.4625 L519.1719,546.5093 C519.1719,546.9156 519.1875,547.0718 519.2969,547.2281 C519.4688,547.4781 519.7656,547.65 520.0781,547.65 C520.3594,547.65 520.6563,547.5093 520.8281,547.2906 C520.9531,547.1031 521,546.9625 521,546.5093 L521,544.6656 C521,544.3375 520.9844,544.2281 520.9219,544.0562 C520.8125,543.7593 520.4531,543.5093 520.0781,543.5093 C519.7813,543.5093 519.5156,543.65 519.3438,543.8687 C519.2031,544.0562 519.1719,544.2281 519.1719,544.6656 L519.1719,544.7281 L517.8594,544.7281 L517.8594,542.5562 L521.7031,542.5562 L521.7031,543.3062 C521.7031,543.6968 521.7344,543.8843 521.8438,544.0406 C522.0156,544.2906 522.3125,544.4625 522.625,544.4625 C522.9219,544.4625 523.1875,544.3375 523.375,544.1031 C523.5156,543.9156 523.5469,543.775 523.5469,543.3062 L523.5469,540.8062 L515.8438,540.8062 C515.3906,540.8062 515.2656,540.8218 515.0938,540.9312 C514.8281,541.1031 514.6563,541.3687 514.6563,541.6812 C514.6563,541.9625 514.7813,542.2281 515.0313,542.4 C515.2188,542.525 515.4063,542.5562 515.8438,542.5562 L516.0313,542.5562 L516.0313,548.65 L515.8438,548.65 C515.4219,548.65 515.2656,548.6812 515.0938,548.775 C514.8281,548.9312 514.6563,549.2125 514.6563,549.5093 C514.6563,550.0875 515.0625,550.4 515.8438,550.4 L523.9219,550.4 L523.9219,547.8687 C523.9219,547.4625 523.8906,547.2906 523.7813,547.1343 C523.6094,546.8687 523.3281,546.7125 523,546.7125 C522.7188,546.7125 522.4375,546.8531 522.25,547.0718 C522.1094,547.2593 522.0781,547.4156 522.0781,547.8687 L522.0781,548.65 L517.8594,548.65 L517.8594,546.4625 Z "/><text fill="#000000" font-family="sans-serif" font-size="14" font-weight="bold" lengthAdjust="spacingAndGlyphs" textLength="116" x="537" y="544.0059">Offer.OfferStatus</text><text fill="#000000" font-family="sans-serif" font-size="10" lengthAdjust="spacingAndGlyphs" textLength="124" x="533" y="557.0899">it.matlice.ingsw.model.data</text></a><!--class it.matlice.ingsw.model.data.impl.jdbc.db.MessageDB--><a target="_parent" xlink:actuate="onRequest" xlink:href="../../../../../../../../it/matlice/ingsw/model/data/impl/jdbc/db/MessageDB.html" xlink:show="new" xlink:title="it.matlice.ingsw.model.data.impl.jdbc.db.MessageDB" xlink:type="simple"><rect fill="#FEFECE" filter="url(#fcm1pce)" height="55" style="stroke: #A80036; stroke-width: 1.5;" width="214" x="255" y="8"/><ellipse cx="270" cy="35.5" fill="#ADD1B2" rx="11" ry="11" style="stroke: #A80036; stroke-width: 1.0;"/><path d="M265,36.6563 C265,39.1563 267.1406,40.9688 270.0625,40.9688 C271.2969,40.9688 272.4688,40.6719 273.2188,40.1563 C273.8281,39.7344 274.1563,39.3125 274.1563,38.9063 C274.1563,38.4375 273.7344,38.0313 273.2344,38.0313 C273,38.0313 272.7813,38.1094 272.5781,38.3125 C272.1406,38.75 272.1406,38.75 271.9688,38.8438 C271.5156,39.0781 270.875,39.2188 270.1094,39.2188 C268.1094,39.2188 266.8281,38.2031 266.8281,36.625 L266.8281,35.5781 C266.8281,33.875 268.0469,32.6719 269.75,32.6719 C270.3281,32.6719 270.9063,32.8125 271.375,33.0625 C271.8438,33.3281 272.0156,33.5156 272.0781,33.875 C272.2031,34.5469 272.4531,34.7969 272.9844,34.7969 C273.2656,34.7969 273.5469,34.6563 273.7344,34.4375 C273.8594,34.2656 273.9063,34.0938 273.9063,33.6563 L273.9063,32.2969 C273.9063,31.875 273.8906,31.7344 273.7656,31.5625 C273.5938,31.3125 273.3125,31.1563 272.9844,31.1563 C272.6719,31.1563 272.4688,31.2656 272.25,31.5313 C271.0781,31.0313 270.6406,30.9219 269.6875,30.9219 C267.0156,30.9219 265,32.9375 265,35.5625 L265,36.6563 Z "/><text fill="#000000" font-family="sans-serif" font-size="12" font-style="italic" lengthAdjust="spacingAndGlyphs" textLength="98" x="326" y="26.2001">«DatabaseTable»</text><text fill="#000000" font-family="sans-serif" font-size="14" font-weight="bold" lengthAdjust="spacingAndGlyphs" textLength="81" x="334.5" y="42.2061">MessageDB</text><text fill="#000000" font-family="sans-serif" font-size="10" lengthAdjust="spacingAndGlyphs" textLength="182" x="284" y="55.29">it.matlice.ingsw.model.data.impl.jdbc.db</text></a><!--class it.matlice.ingsw.model.data.impl.jdbc.types.OfferImpl--><a target="_parent" xlink:actuate="onRequest" xlink:href="../../../../../../../../it/matlice/ingsw/model/data/impl/jdbc/types/OfferImpl.html" xlink:show="new" xlink:title="it.matlice.ingsw.model.data.impl.jdbc.types.OfferImpl" xlink:type="simple"><rect fill="#FFFFFF" filter="url(#fcm1pce)" height="38.7999" style="stroke: #A80036; stroke-width: 1.5;" width="227" x="504.5" y="16"/><rect fill="#FFFFFF" height="38.7999" style="stroke: #A80036; stroke-width: 1.5;" width="227" x="504.5" y="16"/><ellipse cx="519.5" cy="35.4" fill="#ADD1B2" rx="11" ry="11" style="stroke: #A80036; stroke-width: 1.0;"/><path d="M514.5,36.5562 C514.5,39.0562 516.6406,40.8687 519.5625,40.8687 C520.7969,40.8687 521.9688,40.5718 522.7188,40.0562 C523.3281,39.6343 523.6563,39.2125 523.6563,38.8062 C523.6563,38.3375 523.2344,37.9312 522.7344,37.9312 C522.5,37.9312 522.2813,38.0093 522.0781,38.2125 C521.6406,38.65 521.6406,38.65 521.4688,38.7437 C521.0156,38.9781 520.375,39.1187 519.6094,39.1187 C517.6094,39.1187 516.3281,38.1031 516.3281,36.525 L516.3281,35.4781 C516.3281,33.775 517.5469,32.5718 519.25,32.5718 C519.8281,32.5718 520.4063,32.7125 520.875,32.9625 C521.3438,33.2281 521.5156,33.4156 521.5781,33.775 C521.7031,34.4468 521.9531,34.6968 522.4844,34.6968 C522.7656,34.6968 523.0469,34.5562 523.2344,34.3375 C523.3594,34.1656 523.4063,33.9937 523.4063,33.5562 L523.4063,32.1968 C523.4063,31.775 523.3906,31.6343 523.2656,31.4625 C523.0938,31.2125 522.8125,31.0562 522.4844,31.0562 C522.1719,31.0562 521.9688,31.1656 521.75,31.4312 C520.5781,30.9312 520.1406,30.8218 519.1875,30.8218 C516.5156,30.8218 514.5,32.8375 514.5,35.4625 L514.5,36.5562 Z "/><text fill="#000000" font-family="sans-serif" font-size="14" font-weight="bold" lengthAdjust="spacingAndGlyphs" textLength="63" x="599.5" y="34.0059">OfferImpl</text><text fill="#000000" font-family="sans-serif" font-size="10" lengthAdjust="spacingAndGlyphs" textLength="195" x="533.5" y="47.0899">it.matlice.ingsw.model.data.impl.jdbc.types</text></a><path d="M131,63.27 C131,63.27 131,117.96 131,117.96 " fill="none" style="stroke: #A80036; stroke-width: 1.0;"/><polygon fill="#A80036" points="131,122.96,135,113.96,131,117.96,127,113.96,131,122.96" style="stroke: #A80036; stroke-width: 1.0;"/><text fill="#000000" font-family="sans-serif" font-size="13" lengthAdjust="spacingAndGlyphs" textLength="48" x="70.6484" y="111.5731">offer_ref</text><path d="M131,458.1 C131,458.1 131,512.88 131,512.88 " fill="none" style="stroke: #A80036; stroke-width: 1.0;"/><polygon fill="#A80036" points="131,517.88,135,508.88,131,512.88,127,508.88,131,517.88" style="stroke: #A80036; stroke-width: 1.0;"/><text fill="#000000" font-family="sans-serif" font-size="13" lengthAdjust="spacingAndGlyphs" textLength="34" x="97.2438" y="506.4696">owner</text><path d="M362,458.1 C362,458.1 362,512.88 362,512.88 " fill="none" style="stroke: #A80036; stroke-width: 1.0;"/><polygon fill="#A80036" points="362,517.88,366,508.88,362,512.88,358,508.88,362,517.88" style="stroke: #A80036; stroke-width: 1.0;"/><text fill="#000000" font-family="sans-serif" font-size="13" lengthAdjust="spacingAndGlyphs" textLength="50" x="305.9063" y="506.4696">category</text><path d="M622.83,123 C622.83,104.96 622.83,93 622.83,93 C622.83,93 706.75,93 706.75,93 C706.75,93 706.75,488 706.75,488 C706.75,488 671,488 671,488 C671,488 671,463 671,463 " fill="none" style="stroke: #A80036; stroke-width: 1.0;"/><polygon fill="#A80036" points="671,458,667,467,671,463,675,467,671,458" style="stroke: #A80036; stroke-width: 1.0;"/><text fill="#000000" font-family="sans-serif" font-size="13" lengthAdjust="spacingAndGlyphs" textLength="67" x="616.4836" y="478.0203">linked_offer</text><path d="M582,458.1 C582,458.1 582,520.76 582,520.76 " fill="none" style="stroke: #A80036; stroke-width: 1.0; stroke-dasharray: 7.0,7.0;"/><polygon fill="#A80036" points="582,525.76,586,516.76,582,520.76,578,516.76,582,525.76" style="stroke: #A80036; stroke-width: 1.0;"/><path d="M362,63.27 C362,63.27 362,117.96 362,117.96 " fill="none" style="stroke: #A80036; stroke-width: 1.0;"/><polygon fill="#A80036" points="362,122.96,366,113.96,362,117.96,358,113.96,362,122.96" style="stroke: #A80036; stroke-width: 1.0;"/><text fill="#000000" font-family="sans-serif" font-size="13" lengthAdjust="spacingAndGlyphs" textLength="75" x="285.1836" y="111.5731">relative_offer</text><path d="M563.67,55.09 C563.67,55.09 563.67,117.94 563.67,117.94 " fill="none" style="stroke: #A80036; stroke-width: 1.0;"/><polygon fill="#A80036" points="563.67,122.94,567.67,113.94,563.67,117.94,559.67,113.94,563.67,122.94" style="stroke: #A80036; stroke-width: 1.0;"/><text fill="#000000" font-family="sans-serif" font-size="13" lengthAdjust="spacingAndGlyphs" textLength="41" x="531.4454" y="111.5521">dbData</text></g></svg>