<?xml version="1.0" encoding="UTF-8" standalone="no"?><svg xmlns="http://www.w3.org/2000/svg" xmlns:xlink="http://www.w3.org/1999/xlink" contentScriptType="application/ecmascript" contentStyleType="text/css" height="322px" preserveAspectRatio="none" style="width:478px;height:322px;" version="1.1" viewBox="0 0 478 322" width="478px" zoomAndPan="magnify"><defs><filter height="300%" id="fgignv2" width="300%" x="-1" y="-1"><feGaussianBlur result="blurOut" stdDeviation="2.0"/><feColorMatrix in="blurOut" result="blurOut2" type="matrix" values="0 0 0 0 0 0 0 0 0 0 0 0 0 0 0 0 0 0 .4 0"/><feOffset dx="4.0" dy="4.0" in="blurOut2" result="blurOut3"/><feBlend in="SourceGraphic" in2="blurOut3" mode="normal"/></filter></defs><g><!--class it.matlice.ingsw.model.data.impl.jdbc.db.OfferFieldDB--><a target="_parent" xlink:actuate="onRequest" xlink:href="../../../../../../../../it/matlice/ingsw/model/data/impl/jdbc/db/OfferFieldDB.html" xlink:show="new" xlink:title="it.matlice.ingsw.model.data.impl.jdbc.db.OfferFieldDB" xlink:type="simple"><rect fill="#FEFECE" filter="url(#fgignv2)" height="189.7991" style="stroke: #A80036; stroke-width: 1.5;" width="321" x="76.5" y="8"/><ellipse cx="141.75" cy="35.5" fill="#ADD1B2" rx="11" ry="11" style="stroke: #A80036; stroke-width: 1.0;"/><path d="M136.75,36.6563 C136.75,39.1563 138.8906,40.9688 141.8125,40.9688 C143.0469,40.9688 144.2188,40.6719 144.9688,40.1563 C145.5781,39.7344 145.9063,39.3125 145.9063,38.9063 C145.9063,38.4375 145.4844,38.0313 144.9844,38.0313 C144.75,38.0313 144.5313,38.1094 144.3281,38.3125 C143.8906,38.75 143.8906,38.75 143.7188,38.8438 C143.2656,39.0781 142.625,39.2188 141.8594,39.2188 C139.8594,39.2188 138.5781,38.2031 138.5781,36.625 L138.5781,35.5781 C138.5781,33.875 139.7969,32.6719 141.5,32.6719 C142.0781,32.6719 142.6563,32.8125 143.125,33.0625 C143.5938,33.3281 143.7656,33.5156 143.8281,33.875 C143.9531,34.5469 144.2031,34.7969 144.7344,34.7969 C145.0156,34.7969 145.2969,34.6563 145.4844,34.4375 C145.6094,34.2656 145.6563,34.0938 145.6563,33.6563 L145.6563,32.2969 C145.6563,31.875 145.6406,31.7344 145.5156,31.5625 C145.3438,31.3125 145.0625,31.1563 144.7344,31.1563 C144.4219,31.1563 144.2188,31.2656 144,31.5313 C142.8281,31.0313 142.3906,30.9219 141.4375,30.9219 C138.7656,30.9219 136.75,32.9375 136.75,35.5625 L136.75,36.6563 Z "/><text fill="#000000" font-family="sans-serif" font-size="12" font-style="italic" lengthAdjust="spacingAndGlyphs" textLength="98" x="204.25" y="26.2001">«DatabaseTable»</text><text fill="#000000" font-family="sans-serif" font-size="14" font-weight="bold" lengthAdjust="spacingAndGlyphs" textLength="88" x="209.25" y="42.2061">OfferFieldDB</text><text fill="#000000" font-family="sans-serif" font-size="10" lengthAdjust="spacingAndGlyphs" textLength="182" x="162.25" y="55.29">it.matlice.ingsw.model.data.impl.jdbc.db</text><line style="stroke: #A80036; stroke-width: 1.5;" x1="77.5" x2="396.5" y1="63" y2="63"/><rect fill="none" height="6" style="stroke: #C82930; stroke-width: 1.0;" width="6" x="84.5" y="72.1"/><text fill="#000000" font-family="sans-serif" font-size="11" lengthAdjust="spacingAndGlyphs" textLength="45" x="96.5" y="77.219">Integer id</text><rect fill="none" height="6" style="stroke: #C82930; stroke-width: 1.0;" width="6" x="84.5" y="85.2999"/><text fill="#000000" font-family="sans-serif" font-size="11" lengthAdjust="spacingAndGlyphs" textLength="99" x="96.5" y="90.4189">CategoryFieldDB ref</text><rect fill="none" height="6" style="stroke: #C82930; stroke-width: 1.0;" width="6" x="84.5" y="98.4998"/><text fill="#000000" font-family="sans-serif" font-size="11" lengthAdjust="spacingAndGlyphs" textLength="84" x="96.5" y="103.6188">OfferDB offer_ref</text><rect fill="none" height="6" style="stroke: #C82930; stroke-width: 1.0;" width="6" x="84.5" y="111.6997"/><text fill="#000000" font-family="sans-serif" font-size="11" lengthAdjust="spacingAndGlyphs" textLength="57" x="96.5" y="116.8187">String value</text><line style="stroke: #A80036; stroke-width: 1.5;" x1="77.5" x2="396.5" y1="123.7996" y2="123.7996"/><ellipse cx="87.5" cy="135.8996" fill="#84BE84" rx="3" ry="3" style="stroke: #038048; stroke-width: 1.0;"/><text fill="#000000" font-family="sans-serif" font-size="11" lengthAdjust="spacingAndGlyphs" textLength="295" x="96.5" y="138.0186">OfferFieldDB(CategoryFieldDB ref,OfferDB aref,String value)</text><polygon fill="#4177AF" points="87.5,145.0995,83.5,151.0995,91.5,151.0995" style="stroke: #1963A0; stroke-width: 1.0;"/><text fill="#000000" font-family="sans-serif" font-size="11" lengthAdjust="spacingAndGlyphs" textLength="71" x="96.5" y="151.2185">OfferFieldDB()</text><ellipse cx="87.5" cy="162.2994" fill="#84BE84" rx="3" ry="3" style="stroke: #038048; stroke-width: 1.0;"/><text fill="#000000" font-family="sans-serif" font-size="11" lengthAdjust="spacingAndGlyphs" textLength="81" x="96.5" y="164.4184">String getValue()</text><ellipse cx="87.5" cy="175.4993" fill="#84BE84" rx="3" ry="3" style="stroke: #038048; stroke-width: 1.0;"/><text fill="#000000" font-family="sans-serif" font-size="11" lengthAdjust="spacingAndGlyphs" textLength="69" x="96.5" y="177.6183">Integer getId()</text><ellipse cx="87.5" cy="188.6992" fill="#84BE84" rx="3" ry="3" style="stroke: #038048; stroke-width: 1.0;"/><text fill="#000000" font-family="sans-serif" font-size="11" lengthAdjust="spacingAndGlyphs" textLength="126" x="96.5" y="190.8182">CategoryFieldDB getRef()</text></a><!--class it.matlice.ingsw.model.data.impl.jdbc.db.CategoryFieldDB--><a target="_parent" xlink:actuate="onRequest" xlink:href="../../../../../../../../it/matlice/ingsw/model/data/impl/jdbc/db/CategoryFieldDB.html" xlink:show="new" xlink:title="it.matlice.ingsw.model.data.impl.jdbc.db.CategoryFieldDB" xlink:type="simple"><rect fill="#FEFECE" filter="url(#fgignv2)" height="55" style="stroke: #A80036; stroke-width: 1.5;" width="214" x="6" y="258"/><ellipse cx="21" cy="285.5" fill="#ADD1B2" rx="11" ry="11" style="stroke: #A80036; stroke-width: 1.0;"/><path d="M16,286.6563 C16,289.1563 18.1406,290.9688 21.0625,290.9688 C22.2969,290.9688 23.4688,290.6719 24.2188,290.1563 C24.8281,289.7344 25.1563,289.3125 25.1563,288.9063 C25.1563,288.4375 24.7344,288.0313 24.2344,288.0313 C24,288.0313 23.7813,288.1094 23.5781,288.3125 C23.1406,288.75 23.1406,288.75 22.9688,288.8438 C22.5156,289.0781 21.875,289.2188 21.1094,289.2188 C19.1094,289.2188 17.8281,288.2031 17.8281,286.625 L17.8281,285.5781 C17.8281,283.875 19.0469,282.6719 20.75,282.6719 C21.3281,282.6719 21.9063,282.8125 22.375,283.0625 C22.8438,283.3281 23.0156,283.5156 23.0781,283.875 C23.2031,284.5469 23.4531,284.7969 23.9844,284.7969 C24.2656,284.7969 24.5469,284.6563 24.7344,284.4375 C24.8594,284.2656 24.9063,284.0938 24.9063,283.6563 L24.9063,282.2969 C24.9063,281.875 24.8906,281.7344 24.7656,281.5625 C24.5938,281.3125 24.3125,281.1563 23.9844,281.1563 C23.6719,281.1563 23.4688,281.2656 23.25,281.5313 C22.0781,281.0313 21.6406,280.9219 20.6875,280.9219 C18.0156,280.9219 16,282.9375 16,285.5625 L16,286.6563 Z "/><text fill="#000000" font-family="sans-serif" font-size="12" font-style="italic" lengthAdjust="spacingAndGlyphs" textLength="98" x="77" y="276.2001">«DatabaseTable»</text><text fill="#000000" font-family="sans-serif" font-size="14" font-weight="bold" lengthAdjust="spacingAndGlyphs" textLength="116" x="68" y="292.2061">CategoryFieldDB</text><text fill="#000000" font-family="sans-serif" font-size="10" lengthAdjust="spacingAndGlyphs" textLength="182" x="35" y="305.29">it.matlice.ingsw.model.data.impl.jdbc.db</text></a><!--class it.matlice.ingsw.model.data.impl.jdbc.db.OfferDB--><a target="_parent" xlink:actuate="onRequest" xlink:href="../../../../../../../../it/matlice/ingsw/model/data/impl/jdbc/db/OfferDB.html" xlink:show="new" xlink:title="it.matlice.ingsw.model.data.impl.jdbc.db.OfferDB" xlink:type="simple"><rect fill="#FEFECE" filter="url(#fgignv2)" height="55" style="stroke: #A80036; stroke-width: 1.5;" width="214" x="255" y="258"/><ellipse cx="270" cy="285.5" fill="#ADD1B2" rx="11" ry="11" style="stroke: #A80036; stroke-width: 1.0;"/><path d="M265,286.6563 C265,289.1563 267.1406,290.9688 270.0625,290.9688 C271.2969,290.9688 272.4688,290.6719 273.2188,290.1563 C273.8281,289.7344 274.1563,289.3125 274.1563,288.9063 C274.1563,288.4375 273.7344,288.0313 273.2344,288.0313 C273,288.0313 272.7813,288.1094 272.5781,288.3125 C272.1406,288.75 272.1406,288.75 271.9688,288.8438 C271.5156,289.0781 270.875,289.2188 270.1094,289.2188 C268.1094,289.2188 266.8281,288.2031 266.8281,286.625 L266.8281,285.5781 C266.8281,283.875 268.0469,282.6719 269.75,282.6719 C270.3281,282.6719 270.9063,282.8125 271.375,283.0625 C271.8438,283.3281 272.0156,283.5156 272.0781,283.875 C272.2031,284.5469 272.4531,284.7969 272.9844,284.7969 C273.2656,284.7969 273.5469,284.6563 273.7344,284.4375 C273.8594,284.2656 273.9063,284.0938 273.9063,283.6563 L273.9063,282.2969 C273.9063,281.875 273.8906,281.7344 273.7656,281.5625 C273.5938,281.3125 273.3125,281.1563 272.9844,281.1563 C272.6719,281.1563 272.4688,281.2656 272.25,281.5313 C271.0781,281.0313 270.6406,280.9219 269.6875,280.9219 C267.0156,280.9219 265,282.9375 265,285.5625 L265,286.6563 Z "/><text fill="#000000" font-family="sans-serif" font-size="12" font-style="italic" lengthAdjust="spacingAndGlyphs" textLength="98" x="326" y="276.2001">«DatabaseTable»</text><text fill="#000000" font-family="sans-serif" font-size="14" font-weight="bold" lengthAdjust="spacingAndGlyphs" textLength="54" x="348" y="292.2061">OfferDB</text><text fill="#000000" font-family="sans-serif" font-size="10" lengthAdjust="spacingAndGlyphs" textLength="182" x="284" y="305.29">it.matlice.ingsw.model.data.impl.jdbc.db</text></a><path d="M148.25,198.26 C148.25,198.26 148.25,252.71 148.25,252.71 " fill="none" style="stroke: #A80036; stroke-width: 1.0;"/><polygon fill="#A80036" points="148.25,257.71,152.25,248.71,148.25,252.71,144.25,248.71,148.25,257.71" style="stroke: #A80036; stroke-width: 1.0;"/><text fill="#000000" font-family="sans-serif" font-size="13" lengthAdjust="spacingAndGlyphs" textLength="15" x="139.6672" y="246.6956">ref</text><path d="M326.25,198.26 C326.25,198.26 326.25,252.71 326.25,252.71 " fill="none" style="stroke: #A80036; stroke-width: 1.0;"/><polygon fill="#A80036" points="326.25,257.71,330.25,248.71,326.25,252.71,322.25,248.71,326.25,257.71" style="stroke: #A80036; stroke-width: 1.0;"/><text fill="#000000" font-family="sans-serif" font-size="13" lengthAdjust="spacingAndGlyphs" textLength="48" x="264.4328" y="246.6956">offer_ref</text></g></svg>