<?xml version="1.0" encoding="UTF-8" standalone="no"?><svg xmlns="http://www.w3.org/2000/svg" xmlns:xlink="http://www.w3.org/1999/xlink" contentScriptType="application/ecmascript" contentStyleType="text/css" height="331px" preserveAspectRatio="none" style="width:849px;height:331px;" version="1.1" viewBox="0 0 849 331" width="849px" zoomAndPan="magnify"><defs><filter height="300%" id="fduskbr" width="300%" x="-1" y="-1"><feGaussianBlur result="blurOut" stdDeviation="2.0"/><feColorMatrix in="blurOut" result="blurOut2" type="matrix" values="0 0 0 0 0 0 0 0 0 0 0 0 0 0 0 0 0 0 .4 0"/><feOffset dx="4.0" dy="4.0" in="blurOut2" result="blurOut3"/><feBlend in="SourceGraphic" in2="blurOut3" mode="normal"/></filter></defs><g><!--cluster it.matlice.ingsw.model.data.impl.jdbc.db--><a target="_parent" xlink:actuate="onRequest" xlink:href="../../../../../../../../it/matlice/ingsw/model/data/impl/jdbc/db/package-summary.html" xlink:show="new" xlink:title="it.matlice.ingsw.model.data.impl.jdbc.db" xlink:type="simple"><polygon fill="#FFFFE0" filter="url(#fduskbr)" points="22,24,304,24,311,46.7999,842,46.7999,842,324,22,324,22,24" style="stroke: #000000; stroke-width: 2.0;"/><line style="stroke: #000000; stroke-width: 2.0;" x1="22" x2="311" y1="46.7999" y2="46.7999"/><text fill="#000000" font-family="sans-serif" font-size="14" font-weight="bold" lengthAdjust="spacingAndGlyphs" textLength="276" x="26" y="39.0059">it.matlice.ingsw.model.data.impl.jdbc.db</text></a><!--class it.matlice.ingsw.model.data.impl.jdbc.db.UserDB--><a target="_parent" xlink:actuate="onRequest" xlink:href="../../../../../../../../it/matlice/ingsw/model/data/impl/jdbc/db/UserDB.html" xlink:show="new" xlink:title="it.matlice.ingsw.model.data.impl.jdbc.db.UserDB" xlink:type="simple"><rect fill="#FEFECE" filter="url(#fduskbr)" height="43" style="stroke: #A80036; stroke-width: 1.5;" width="126" x="691" y="265"/><ellipse cx="706" cy="286.5" fill="#ADD1B2" rx="11" ry="11" style="stroke: #A80036; stroke-width: 1.0;"/><path d="M701,287.6563 C701,290.1563 703.1406,291.9688 706.0625,291.9688 C707.2969,291.9688 708.4688,291.6719 709.2188,291.1563 C709.8281,290.7344 710.1563,290.3125 710.1563,289.9063 C710.1563,289.4375 709.7344,289.0313 709.2344,289.0313 C709,289.0313 708.7813,289.1094 708.5781,289.3125 C708.1406,289.75 708.1406,289.75 707.9688,289.8438 C707.5156,290.0781 706.875,290.2188 706.1094,290.2188 C704.1094,290.2188 702.8281,289.2031 702.8281,287.625 L702.8281,286.5781 C702.8281,284.875 704.0469,283.6719 705.75,283.6719 C706.3281,283.6719 706.9063,283.8125 707.375,284.0625 C707.8438,284.3281 708.0156,284.5156 708.0781,284.875 C708.2031,285.5469 708.4531,285.7969 708.9844,285.7969 C709.2656,285.7969 709.5469,285.6563 709.7344,285.4375 C709.8594,285.2656 709.9063,285.0938 709.9063,284.6563 L709.9063,283.2969 C709.9063,282.875 709.8906,282.7344 709.7656,282.5625 C709.5938,282.3125 709.3125,282.1563 708.9844,282.1563 C708.6719,282.1563 708.4688,282.2656 708.25,282.5313 C707.0781,282.0313 706.6406,281.9219 705.6875,281.9219 C703.0156,281.9219 701,283.9375 701,286.5625 L701,287.6563 Z "/><text fill="#000000" font-family="sans-serif" font-size="12" font-style="italic" lengthAdjust="spacingAndGlyphs" textLength="98" x="718" y="283.2001">«DatabaseTable»</text><text fill="#000000" font-family="sans-serif" font-size="14" font-weight="bold" lengthAdjust="spacingAndGlyphs" textLength="51" x="741.5" y="299.2061">UserDB</text></a><!--class it.matlice.ingsw.model.data.impl.jdbc.db.SettingsDB--><a target="_parent" xlink:actuate="onRequest" xlink:href="../../../../../../../../it/matlice/ingsw/model/data/impl/jdbc/db/SettingsDB.html" xlink:show="new" xlink:title="it.matlice.ingsw.model.data.impl.jdbc.db.SettingsDB" xlink:type="simple"><rect fill="#FEFECE" filter="url(#fduskbr)" height="43" style="stroke: #A80036; stroke-width: 1.5;" width="126" x="177" y="162"/><ellipse cx="192" cy="183.5" fill="#ADD1B2" rx="11" ry="11" style="stroke: #A80036; stroke-width: 1.0;"/><path d="M187,184.6563 C187,187.1563 189.1406,188.9688 192.0625,188.9688 C193.2969,188.9688 194.4688,188.6719 195.2188,188.1563 C195.8281,187.7344 196.1563,187.3125 196.1563,186.9063 C196.1563,186.4375 195.7344,186.0313 195.2344,186.0313 C195,186.0313 194.7813,186.1094 194.5781,186.3125 C194.1406,186.75 194.1406,186.75 193.9688,186.8438 C193.5156,187.0781 192.875,187.2188 192.1094,187.2188 C190.1094,187.2188 188.8281,186.2031 188.8281,184.625 L188.8281,183.5781 C188.8281,181.875 190.0469,180.6719 191.75,180.6719 C192.3281,180.6719 192.9063,180.8125 193.375,181.0625 C193.8438,181.3281 194.0156,181.5156 194.0781,181.875 C194.2031,182.5469 194.4531,182.7969 194.9844,182.7969 C195.2656,182.7969 195.5469,182.6563 195.7344,182.4375 C195.8594,182.2656 195.9063,182.0938 195.9063,181.6563 L195.9063,180.2969 C195.9063,179.875 195.8906,179.7344 195.7656,179.5625 C195.5938,179.3125 195.3125,179.1563 194.9844,179.1563 C194.6719,179.1563 194.4688,179.2656 194.25,179.5313 C193.0781,179.0313 192.6406,178.9219 191.6875,178.9219 C189.0156,178.9219 187,180.9375 187,183.5625 L187,184.6563 Z "/><text fill="#000000" font-family="sans-serif" font-size="12" font-style="italic" lengthAdjust="spacingAndGlyphs" textLength="98" x="204" y="180.2001">«DatabaseTable»</text><text fill="#000000" font-family="sans-serif" font-size="14" font-weight="bold" lengthAdjust="spacingAndGlyphs" textLength="77" x="214.5" y="196.2061">SettingsDB</text></a><!--class it.matlice.ingsw.model.data.impl.jdbc.db.OfferFieldDB--><a target="_parent" xlink:actuate="onRequest" xlink:href="../../../../../../../../it/matlice/ingsw/model/data/impl/jdbc/db/OfferFieldDB.html" xlink:show="new" xlink:title="it.matlice.ingsw.model.data.impl.jdbc.db.OfferFieldDB" xlink:type="simple"><rect fill="#FEFECE" filter="url(#fduskbr)" height="43" style="stroke: #A80036; stroke-width: 1.5;" width="126" x="521" y="59"/><ellipse cx="536" cy="80.5" fill="#ADD1B2" rx="11" ry="11" style="stroke: #A80036; stroke-width: 1.0;"/><path d="M531,81.6563 C531,84.1563 533.1406,85.9688 536.0625,85.9688 C537.2969,85.9688 538.4688,85.6719 539.2188,85.1563 C539.8281,84.7344 540.1563,84.3125 540.1563,83.9063 C540.1563,83.4375 539.7344,83.0313 539.2344,83.0313 C539,83.0313 538.7813,83.1094 538.5781,83.3125 C538.1406,83.75 538.1406,83.75 537.9688,83.8438 C537.5156,84.0781 536.875,84.2188 536.1094,84.2188 C534.1094,84.2188 532.8281,83.2031 532.8281,81.625 L532.8281,80.5781 C532.8281,78.875 534.0469,77.6719 535.75,77.6719 C536.3281,77.6719 536.9063,77.8125 537.375,78.0625 C537.8438,78.3281 538.0156,78.5156 538.0781,78.875 C538.2031,79.5469 538.4531,79.7969 538.9844,79.7969 C539.2656,79.7969 539.5469,79.6563 539.7344,79.4375 C539.8594,79.2656 539.9063,79.0938 539.9063,78.6563 L539.9063,77.2969 C539.9063,76.875 539.8906,76.7344 539.7656,76.5625 C539.5938,76.3125 539.3125,76.1563 538.9844,76.1563 C538.6719,76.1563 538.4688,76.2656 538.25,76.5313 C537.0781,76.0313 536.6406,75.9219 535.6875,75.9219 C533.0156,75.9219 531,77.9375 531,80.5625 L531,81.6563 Z "/><text fill="#000000" font-family="sans-serif" font-size="12" font-style="italic" lengthAdjust="spacingAndGlyphs" textLength="98" x="548" y="77.2001">«DatabaseTable»</text><text fill="#000000" font-family="sans-serif" font-size="14" font-weight="bold" lengthAdjust="spacingAndGlyphs" textLength="88" x="553" y="93.2061">OfferFieldDB</text></a><!--class it.matlice.ingsw.model.data.impl.jdbc.db.OfferDB--><a target="_parent" xlink:actuate="onRequest" xlink:href="../../../../../../../../it/matlice/ingsw/model/data/impl/jdbc/db/OfferDB.html" xlink:show="new" xlink:title="it.matlice.ingsw.model.data.impl.jdbc.db.OfferDB" xlink:type="simple"><rect fill="#FEFECE" filter="url(#fduskbr)" height="43" style="stroke: #A80036; stroke-width: 1.5;" width="126" x="682" y="162"/><ellipse cx="697" cy="183.5" fill="#ADD1B2" rx="11" ry="11" style="stroke: #A80036; stroke-width: 1.0;"/><path d="M692,184.6563 C692,187.1563 694.1406,188.9688 697.0625,188.9688 C698.2969,188.9688 699.4688,188.6719 700.2188,188.1563 C700.8281,187.7344 701.1563,187.3125 701.1563,186.9063 C701.1563,186.4375 700.7344,186.0313 700.2344,186.0313 C700,186.0313 699.7813,186.1094 699.5781,186.3125 C699.1406,186.75 699.1406,186.75 698.9688,186.8438 C698.5156,187.0781 697.875,187.2188 697.1094,187.2188 C695.1094,187.2188 693.8281,186.2031 693.8281,184.625 L693.8281,183.5781 C693.8281,181.875 695.0469,180.6719 696.75,180.6719 C697.3281,180.6719 697.9063,180.8125 698.375,181.0625 C698.8438,181.3281 699.0156,181.5156 699.0781,181.875 C699.2031,182.5469 699.4531,182.7969 699.9844,182.7969 C700.2656,182.7969 700.5469,182.6563 700.7344,182.4375 C700.8594,182.2656 700.9063,182.0938 700.9063,181.6563 L700.9063,180.2969 C700.9063,179.875 700.8906,179.7344 700.7656,179.5625 C700.5938,179.3125 700.3125,179.1563 699.9844,179.1563 C699.6719,179.1563 699.4688,179.2656 699.25,179.5313 C698.0781,179.0313 697.6406,178.9219 696.6875,178.9219 C694.0156,178.9219 692,180.9375 692,183.5625 L692,184.6563 Z "/><text fill="#000000" font-family="sans-serif" font-size="12" font-style="italic" lengthAdjust="spacingAndGlyphs" textLength="98" x="709" y="180.2001">«DatabaseTable»</text><text fill="#000000" font-family="sans-serif" font-size="14" font-weight="bold" lengthAdjust="spacingAndGlyphs" textLength="54" x="731" y="196.2061">OfferDB</text></a><!--class it.matlice.ingsw.model.data.impl.jdbc.db.MessageDB--><a target="_parent" xlink:actuate="onRequest" xlink:href="../../../../../../../../it/matlice/ingsw/model/data/impl/jdbc/db/MessageDB.html" xlink:show="new" xlink:title="it.matlice.ingsw.model.data.impl.jdbc.db.MessageDB" xlink:type="simple"><rect fill="#FEFECE" filter="url(#fduskbr)" height="43" style="stroke: #A80036; stroke-width: 1.5;" width="126" x="682" y="59"/><ellipse cx="697" cy="80.5" fill="#ADD1B2" rx="11" ry="11" style="stroke: #A80036; stroke-width: 1.0;"/><path d="M692,81.6563 C692,84.1563 694.1406,85.9688 697.0625,85.9688 C698.2969,85.9688 699.4688,85.6719 700.2188,85.1563 C700.8281,84.7344 701.1563,84.3125 701.1563,83.9063 C701.1563,83.4375 700.7344,83.0313 700.2344,83.0313 C700,83.0313 699.7813,83.1094 699.5781,83.3125 C699.1406,83.75 699.1406,83.75 698.9688,83.8438 C698.5156,84.0781 697.875,84.2188 697.1094,84.2188 C695.1094,84.2188 693.8281,83.2031 693.8281,81.625 L693.8281,80.5781 C693.8281,78.875 695.0469,77.6719 696.75,77.6719 C697.3281,77.6719 697.9063,77.8125 698.375,78.0625 C698.8438,78.3281 699.0156,78.5156 699.0781,78.875 C699.2031,79.5469 699.4531,79.7969 699.9844,79.7969 C700.2656,79.7969 700.5469,79.6563 700.7344,79.4375 C700.8594,79.2656 700.9063,79.0938 700.9063,78.6563 L700.9063,77.2969 C700.9063,76.875 700.8906,76.7344 700.7656,76.5625 C700.5938,76.3125 700.3125,76.1563 699.9844,76.1563 C699.6719,76.1563 699.4688,76.2656 699.25,76.5313 C698.0781,76.0313 697.6406,75.9219 696.6875,75.9219 C694.0156,75.9219 692,77.9375 692,80.5625 L692,81.6563 Z "/><text fill="#000000" font-family="sans-serif" font-size="12" font-style="italic" lengthAdjust="spacingAndGlyphs" textLength="98" x="709" y="77.2001">«DatabaseTable»</text><text fill="#000000" font-family="sans-serif" font-size="14" font-weight="bold" lengthAdjust="spacingAndGlyphs" textLength="81" x="717.5" y="93.2061">MessageDB</text></a><!--class it.matlice.ingsw.model.data.impl.jdbc.db.LocationsDB--><a target="_parent" xlink:actuate="onRequest" xlink:href="../../../../../../../../it/matlice/ingsw/model/data/impl/jdbc/db/LocationsDB.html" xlink:show="new" xlink:title="it.matlice.ingsw.model.data.impl.jdbc.db.LocationsDB" xlink:type="simple"><rect fill="#FEFECE" filter="url(#fduskbr)" height="43" style="stroke: #A80036; stroke-width: 1.5;" width="126" x="38" y="59"/><ellipse cx="53" cy="80.5" fill="#ADD1B2" rx="11" ry="11" style="stroke: #A80036; stroke-width: 1.0;"/><path d="M48,81.6563 C48,84.1563 50.1406,85.9688 53.0625,85.9688 C54.2969,85.9688 55.4688,85.6719 56.2188,85.1563 C56.8281,84.7344 57.1563,84.3125 57.1563,83.9063 C57.1563,83.4375 56.7344,83.0313 56.2344,83.0313 C56,83.0313 55.7813,83.1094 55.5781,83.3125 C55.1406,83.75 55.1406,83.75 54.9688,83.8438 C54.5156,84.0781 53.875,84.2188 53.1094,84.2188 C51.1094,84.2188 49.8281,83.2031 49.8281,81.625 L49.8281,80.5781 C49.8281,78.875 51.0469,77.6719 52.75,77.6719 C53.3281,77.6719 53.9063,77.8125 54.375,78.0625 C54.8438,78.3281 55.0156,78.5156 55.0781,78.875 C55.2031,79.5469 55.4531,79.7969 55.9844,79.7969 C56.2656,79.7969 56.5469,79.6563 56.7344,79.4375 C56.8594,79.2656 56.9063,79.0938 56.9063,78.6563 L56.9063,77.2969 C56.9063,76.875 56.8906,76.7344 56.7656,76.5625 C56.5938,76.3125 56.3125,76.1563 55.9844,76.1563 C55.6719,76.1563 55.4688,76.2656 55.25,76.5313 C54.0781,76.0313 53.6406,75.9219 52.6875,75.9219 C50.0156,75.9219 48,77.9375 48,80.5625 L48,81.6563 Z "/><text fill="#000000" font-family="sans-serif" font-size="12" font-style="italic" lengthAdjust="spacingAndGlyphs" textLength="98" x="65" y="77.2001">«DatabaseTable»</text><text fill="#000000" font-family="sans-serif" font-size="14" font-weight="bold" lengthAdjust="spacingAndGlyphs" textLength="89" x="69.5" y="93.2061">LocationsDB</text></a><!--class it.matlice.ingsw.model.data.impl.jdbc.db.IntervalsDB--><a target="_parent" xlink:actuate="onRequest" xlink:href="../../../../../../../../it/matlice/ingsw/model/data/impl/jdbc/db/IntervalsDB.html" xlink:show="new" xlink:title="it.matlice.ingsw.model.data.impl.jdbc.db.IntervalsDB" xlink:type="simple"><rect fill="#FEFECE" filter="url(#fduskbr)" height="43" style="stroke: #A80036; stroke-width: 1.5;" width="126" x="360" y="59"/><ellipse cx="375" cy="80.5" fill="#ADD1B2" rx="11" ry="11" style="stroke: #A80036; stroke-width: 1.0;"/><path d="M370,81.6563 C370,84.1563 372.1406,85.9688 375.0625,85.9688 C376.2969,85.9688 377.4688,85.6719 378.2188,85.1563 C378.8281,84.7344 379.1563,84.3125 379.1563,83.9063 C379.1563,83.4375 378.7344,83.0313 378.2344,83.0313 C378,83.0313 377.7813,83.1094 377.5781,83.3125 C377.1406,83.75 377.1406,83.75 376.9688,83.8438 C376.5156,84.0781 375.875,84.2188 375.1094,84.2188 C373.1094,84.2188 371.8281,83.2031 371.8281,81.625 L371.8281,80.5781 C371.8281,78.875 373.0469,77.6719 374.75,77.6719 C375.3281,77.6719 375.9063,77.8125 376.375,78.0625 C376.8438,78.3281 377.0156,78.5156 377.0781,78.875 C377.2031,79.5469 377.4531,79.7969 377.9844,79.7969 C378.2656,79.7969 378.5469,79.6563 378.7344,79.4375 C378.8594,79.2656 378.9063,79.0938 378.9063,78.6563 L378.9063,77.2969 C378.9063,76.875 378.8906,76.7344 378.7656,76.5625 C378.5938,76.3125 378.3125,76.1563 377.9844,76.1563 C377.6719,76.1563 377.4688,76.2656 377.25,76.5313 C376.0781,76.0313 375.6406,75.9219 374.6875,75.9219 C372.0156,75.9219 370,77.9375 370,80.5625 L370,81.6563 Z "/><text fill="#000000" font-family="sans-serif" font-size="12" font-style="italic" lengthAdjust="spacingAndGlyphs" textLength="98" x="387" y="77.2001">«DatabaseTable»</text><text fill="#000000" font-family="sans-serif" font-size="14" font-weight="bold" lengthAdjust="spacingAndGlyphs" textLength="79" x="396.5" y="93.2061">IntervalsDB</text></a><!--class it.matlice.ingsw.model.data.impl.jdbc.db.HierarchyDB--><a target="_parent" xlink:actuate="onRequest" xlink:href="../../../../../../../../it/matlice/ingsw/model/data/impl/jdbc/db/HierarchyDB.html" xlink:show="new" xlink:title="it.matlice.ingsw.model.data.impl.jdbc.db.HierarchyDB" xlink:type="simple"><rect fill="#FEFECE" filter="url(#fduskbr)" height="43" style="stroke: #A80036; stroke-width: 1.5;" width="126" x="521" y="162"/><ellipse cx="536" cy="183.5" fill="#ADD1B2" rx="11" ry="11" style="stroke: #A80036; stroke-width: 1.0;"/><path d="M531,184.6563 C531,187.1563 533.1406,188.9688 536.0625,188.9688 C537.2969,188.9688 538.4688,188.6719 539.2188,188.1563 C539.8281,187.7344 540.1563,187.3125 540.1563,186.9063 C540.1563,186.4375 539.7344,186.0313 539.2344,186.0313 C539,186.0313 538.7813,186.1094 538.5781,186.3125 C538.1406,186.75 538.1406,186.75 537.9688,186.8438 C537.5156,187.0781 536.875,187.2188 536.1094,187.2188 C534.1094,187.2188 532.8281,186.2031 532.8281,184.625 L532.8281,183.5781 C532.8281,181.875 534.0469,180.6719 535.75,180.6719 C536.3281,180.6719 536.9063,180.8125 537.375,181.0625 C537.8438,181.3281 538.0156,181.5156 538.0781,181.875 C538.2031,182.5469 538.4531,182.7969 538.9844,182.7969 C539.2656,182.7969 539.5469,182.6563 539.7344,182.4375 C539.8594,182.2656 539.9063,182.0938 539.9063,181.6563 L539.9063,180.2969 C539.9063,179.875 539.8906,179.7344 539.7656,179.5625 C539.5938,179.3125 539.3125,179.1563 538.9844,179.1563 C538.6719,179.1563 538.4688,179.2656 538.25,179.5313 C537.0781,179.0313 536.6406,178.9219 535.6875,178.9219 C533.0156,178.9219 531,180.9375 531,183.5625 L531,184.6563 Z "/><text fill="#000000" font-family="sans-serif" font-size="12" font-style="italic" lengthAdjust="spacingAndGlyphs" textLength="98" x="548" y="180.2001">«DatabaseTable»</text><text fill="#000000" font-family="sans-serif" font-size="14" font-weight="bold" lengthAdjust="spacingAndGlyphs" textLength="85" x="554.5" y="196.2061">HierarchyDB</text></a><!--class it.matlice.ingsw.model.data.impl.jdbc.db.DaysDB--><a target="_parent" xlink:actuate="onRequest" xlink:href="../../../../../../../../it/matlice/ingsw/model/data/impl/jdbc/db/DaysDB.html" xlink:show="new" xlink:title="it.matlice.ingsw.model.data.impl.jdbc.db.DaysDB" xlink:type="simple"><rect fill="#FEFECE" filter="url(#fduskbr)" height="43" style="stroke: #A80036; stroke-width: 1.5;" width="126" x="199" y="59"/><ellipse cx="214" cy="80.5" fill="#ADD1B2" rx="11" ry="11" style="stroke: #A80036; stroke-width: 1.0;"/><path d="M209,81.6563 C209,84.1563 211.1406,85.9688 214.0625,85.9688 C215.2969,85.9688 216.4688,85.6719 217.2188,85.1563 C217.8281,84.7344 218.1563,84.3125 218.1563,83.9063 C218.1563,83.4375 217.7344,83.0313 217.2344,83.0313 C217,83.0313 216.7813,83.1094 216.5781,83.3125 C216.1406,83.75 216.1406,83.75 215.9688,83.8438 C215.5156,84.0781 214.875,84.2188 214.1094,84.2188 C212.1094,84.2188 210.8281,83.2031 210.8281,81.625 L210.8281,80.5781 C210.8281,78.875 212.0469,77.6719 213.75,77.6719 C214.3281,77.6719 214.9063,77.8125 215.375,78.0625 C215.8438,78.3281 216.0156,78.5156 216.0781,78.875 C216.2031,79.5469 216.4531,79.7969 216.9844,79.7969 C217.2656,79.7969 217.5469,79.6563 217.7344,79.4375 C217.8594,79.2656 217.9063,79.0938 217.9063,78.6563 L217.9063,77.2969 C217.9063,76.875 217.8906,76.7344 217.7656,76.5625 C217.5938,76.3125 217.3125,76.1563 216.9844,76.1563 C216.6719,76.1563 216.4688,76.2656 216.25,76.5313 C215.0781,76.0313 214.6406,75.9219 213.6875,75.9219 C211.0156,75.9219 209,77.9375 209,80.5625 L209,81.6563 Z "/><text fill="#000000" font-family="sans-serif" font-size="12" font-style="italic" lengthAdjust="spacingAndGlyphs" textLength="98" x="226" y="77.2001">«DatabaseTable»</text><text fill="#000000" font-family="sans-serif" font-size="14" font-weight="bold" lengthAdjust="spacingAndGlyphs" textLength="54" x="248" y="93.2061">DaysDB</text></a><!--class it.matlice.ingsw.model.data.impl.jdbc.db.CategoryFieldDB--><a target="_parent" xlink:actuate="onRequest" xlink:href="../../../../../../../../it/matlice/ingsw/model/data/impl/jdbc/db/CategoryFieldDB.html" xlink:show="new" xlink:title="it.matlice.ingsw.model.data.impl.jdbc.db.CategoryFieldDB" xlink:type="simple"><rect fill="#FEFECE" filter="url(#fduskbr)" height="43" style="stroke: #A80036; stroke-width: 1.5;" width="148" x="338" y="162"/><ellipse cx="353" cy="183.5" fill="#ADD1B2" rx="11" ry="11" style="stroke: #A80036; stroke-width: 1.0;"/><path d="M348,184.6563 C348,187.1563 350.1406,188.9688 353.0625,188.9688 C354.2969,188.9688 355.4688,188.6719 356.2188,188.1563 C356.8281,187.7344 357.1563,187.3125 357.1563,186.9063 C357.1563,186.4375 356.7344,186.0313 356.2344,186.0313 C356,186.0313 355.7813,186.1094 355.5781,186.3125 C355.1406,186.75 355.1406,186.75 354.9688,186.8438 C354.5156,187.0781 353.875,187.2188 353.1094,187.2188 C351.1094,187.2188 349.8281,186.2031 349.8281,184.625 L349.8281,183.5781 C349.8281,181.875 351.0469,180.6719 352.75,180.6719 C353.3281,180.6719 353.9063,180.8125 354.375,181.0625 C354.8438,181.3281 355.0156,181.5156 355.0781,181.875 C355.2031,182.5469 355.4531,182.7969 355.9844,182.7969 C356.2656,182.7969 356.5469,182.6563 356.7344,182.4375 C356.8594,182.2656 356.9063,182.0938 356.9063,181.6563 L356.9063,180.2969 C356.9063,179.875 356.8906,179.7344 356.7656,179.5625 C356.5938,179.3125 356.3125,179.1563 355.9844,179.1563 C355.6719,179.1563 355.4688,179.2656 355.25,179.5313 C354.0781,179.0313 353.6406,178.9219 352.6875,178.9219 C350.0156,178.9219 348,180.9375 348,183.5625 L348,184.6563 Z "/><text fill="#000000" font-family="sans-serif" font-size="12" font-style="italic" lengthAdjust="spacingAndGlyphs" textLength="98" x="376" y="180.2001">«DatabaseTable»</text><text fill="#000000" font-family="sans-serif" font-size="14" font-weight="bold" lengthAdjust="spacingAndGlyphs" textLength="116" x="367" y="196.2061">CategoryFieldDB</text></a><!--class it.matlice.ingsw.model.data.impl.jdbc.db.CategoryDB--><a target="_parent" xlink:actuate="onRequest" xlink:href="../../../../../../../../it/matlice/ingsw/model/data/impl/jdbc/db/CategoryDB.html" xlink:show="new" xlink:title="it.matlice.ingsw.model.data.impl.jdbc.db.CategoryDB" xlink:type="simple"><rect fill="#FEFECE" filter="url(#fduskbr)" height="43" style="stroke: #A80036; stroke-width: 1.5;" width="126" x="512" y="265"/><ellipse cx="527" cy="286.5" fill="#ADD1B2" rx="11" ry="11" style="stroke: #A80036; stroke-width: 1.0;"/><path d="M522,287.6563 C522,290.1563 524.1406,291.9688 527.0625,291.9688 C528.2969,291.9688 529.4688,291.6719 530.2188,291.1563 C530.8281,290.7344 531.1563,290.3125 531.1563,289.9063 C531.1563,289.4375 530.7344,289.0313 530.2344,289.0313 C530,289.0313 529.7813,289.1094 529.5781,289.3125 C529.1406,289.75 529.1406,289.75 528.9688,289.8438 C528.5156,290.0781 527.875,290.2188 527.1094,290.2188 C525.1094,290.2188 523.8281,289.2031 523.8281,287.625 L523.8281,286.5781 C523.8281,284.875 525.0469,283.6719 526.75,283.6719 C527.3281,283.6719 527.9063,283.8125 528.375,284.0625 C528.8438,284.3281 529.0156,284.5156 529.0781,284.875 C529.2031,285.5469 529.4531,285.7969 529.9844,285.7969 C530.2656,285.7969 530.5469,285.6563 530.7344,285.4375 C530.8594,285.2656 530.9063,285.0938 530.9063,284.6563 L530.9063,283.2969 C530.9063,282.875 530.8906,282.7344 530.7656,282.5625 C530.5938,282.3125 530.3125,282.1563 529.9844,282.1563 C529.6719,282.1563 529.4688,282.2656 529.25,282.5313 C528.0781,282.0313 527.6406,281.9219 526.6875,281.9219 C524.0156,281.9219 522,283.9375 522,286.5625 L522,287.6563 Z "/><text fill="#000000" font-family="sans-serif" font-size="12" font-style="italic" lengthAdjust="spacingAndGlyphs" textLength="98" x="539" y="283.2001">«DatabaseTable»</text><text fill="#000000" font-family="sans-serif" font-size="14" font-weight="bold" lengthAdjust="spacingAndGlyphs" textLength="82" x="547" y="299.2061">CategoryDB</text></a><path d="M520.99,81 C506.2,81 494.67,81 494.67,81 C494.67,81 494.67,177 494.67,177 C494.67,177 491.13,177 491.13,177 " fill="none" style="stroke: #A80036; stroke-width: 1.0;"/><polygon fill="#A80036" points="486.13,177,495.13,181,491.13,177,495.13,173,486.13,177" style="stroke: #A80036; stroke-width: 1.0;"/><text fill="#000000" font-family="sans-serif" font-size="13" lengthAdjust="spacingAndGlyphs" textLength="15" x="493.9104" y="172.7712">ref</text><path d="M647.33,81 C654.14,81 658.67,81 658.67,81 C658.67,81 658.67,184 658.67,184 C658.67,184 676.8,184 676.8,184 " fill="none" style="stroke: #A80036; stroke-width: 1.0;"/><polygon fill="#A80036" points="681.8,184,672.8,180,676.8,184,672.8,188,681.8,184" style="stroke: #A80036; stroke-width: 1.0;"/><text fill="#000000" font-family="sans-serif" font-size="13" lengthAdjust="spacingAndGlyphs" textLength="48" x="654.9235" y="177.288">offer_ref</text><path d="M749.5,205.34 C749.5,205.34 749.5,259.69 749.5,259.69 " fill="none" style="stroke: #A80036; stroke-width: 1.0;"/><polygon fill="#A80036" points="749.5,264.69,753.5,255.69,749.5,259.69,745.5,255.69,749.5,264.69" style="stroke: #A80036; stroke-width: 1.0;"/><text fill="#000000" font-family="sans-serif" font-size="13" lengthAdjust="spacingAndGlyphs" textLength="34" x="709.4531" y="253.6079">owner</text><path d="M685,205.2 C685,235.55 685,287 685,287 C685,287 643.03,287 643.03,287 " fill="none" style="stroke: #A80036; stroke-width: 1.0;"/><polygon fill="#A80036" points="638.03,287,647.03,291,643.03,287,647.03,283,638.03,287" style="stroke: #A80036; stroke-width: 1.0;"/><text fill="#000000" font-family="sans-serif" font-size="13" lengthAdjust="spacingAndGlyphs" textLength="50" x="645.7729" y="282.6286">category</text><path d="M713.5,161.78 C713.5,151.74 713.5,142 713.5,142 C713.5,142 670.33,142 670.33,142 C670.33,142 670.33,245 670.33,245 C670.33,245 688,245 688,245 C688,245 688,210.01 688,210.01 " fill="none" style="stroke: #A80036; stroke-width: 1.0;"/><polygon fill="#A80036" points="688,205.01,684,214.01,688,210.01,692,214.01,688,205.01" style="stroke: #A80036; stroke-width: 1.0;"/><text fill="#000000" font-family="sans-serif" font-size="13" lengthAdjust="spacingAndGlyphs" textLength="67" x="612.9834" y="225.0605">linked_offer</text><path d="M745,58.9 C745,49.68 745,41 745,41 C745,41 812.5,41 812.5,41 C812.5,41 812.5,122 812.5,122 C812.5,122 776.5,122 776.5,122 C776.5,122 776.5,107.22 776.5,107.22 " fill="none" style="stroke: #A80036; stroke-width: 1.0;"/><polygon fill="#A80036" points="776.5,102.22,772.5,111.22,776.5,107.22,780.5,111.22,776.5,102.22" style="stroke: #A80036; stroke-width: 1.0;"/><text fill="#000000" font-family="sans-serif" font-size="13" lengthAdjust="spacingAndGlyphs" textLength="41" x="738.4563" y="122.2305">answer</text><path d="M745,102.34 C745,102.34 745,156.69 745,156.69 " fill="none" style="stroke: #A80036; stroke-width: 1.0;"/><polygon fill="#A80036" points="745,161.69,749,152.69,745,156.69,741,152.69,745,161.69" style="stroke: #A80036; stroke-width: 1.0;"/><text fill="#000000" font-family="sans-serif" font-size="13" lengthAdjust="spacingAndGlyphs" textLength="75" x="659.4531" y="150.6079">relative_offer</text><path d="M164.23,81 C177.72,81 188,81 188,81 C188,81 188,156.76 188,156.76 " fill="none" style="stroke: #A80036; stroke-width: 1.0;"/><polygon fill="#A80036" points="188,161.76,192,152.76,188,156.76,184,152.76,188,161.76" style="stroke: #A80036; stroke-width: 1.0;"/><text fill="#000000" font-family="sans-serif" font-size="13" lengthAdjust="spacingAndGlyphs" textLength="15" x="155.5219" y="150.3359">ref</text><path d="M359.95,81 C344.1,81 331.5,81 331.5,81 C331.5,81 331.5,184 331.5,184 C331.5,184 308.05,184 308.05,184 " fill="none" style="stroke: #A80036; stroke-width: 1.0;"/><polygon fill="#A80036" points="303.05,184,312.05,188,308.05,184,312.05,180,303.05,184" style="stroke: #A80036; stroke-width: 1.0;"/><text fill="#000000" font-family="sans-serif" font-size="13" lengthAdjust="spacingAndGlyphs" textLength="15" x="311.2073" y="180.3023">ref</text><path d="M579.5,205.34 C579.5,205.34 579.5,259.69 579.5,259.69 " fill="none" style="stroke: #A80036; stroke-width: 1.0;"/><polygon fill="#A80036" points="579.5,264.69,583.5,255.69,579.5,259.69,575.5,255.69,579.5,264.69" style="stroke: #A80036; stroke-width: 1.0;"/><text fill="#000000" font-family="sans-serif" font-size="13" lengthAdjust="spacingAndGlyphs" textLength="22" x="555.6719" y="253.6079">root</text><path d="M251,102.34 C251,102.34 251,156.69 251,156.69 " fill="none" style="stroke: #A80036; stroke-width: 1.0;"/><polygon fill="#A80036" points="251,161.69,255,152.69,251,156.69,247,152.69,251,161.69" style="stroke: #A80036; stroke-width: 1.0;"/><text fill="#000000" font-family="sans-serif" font-size="13" lengthAdjust="spacingAndGlyphs" textLength="15" x="236.9844" y="150.6079">ref</text><path d="M486.2,191 C504.01,191 518,191 518,191 C518,191 518,259.83 518,259.83 " fill="none" style="stroke: #A80036; stroke-width: 1.0;"/><polygon fill="#A80036" points="518,264.83,522,255.83,518,259.83,514,255.83,518,264.83" style="stroke: #A80036; stroke-width: 1.0;"/><text fill="#000000" font-family="sans-serif" font-size="13" lengthAdjust="spacingAndGlyphs" textLength="50" x="453.9063" y="256.945">category</text><path d="M515,264.99 C515,247.26 515,225 515,225 C515,225 503.33,225 503.33,225 C503.33,225 503.33,326 503.33,326 C503.33,326 575,326 575,326 C575,326 575,313.1 575,313.1 " fill="none" style="stroke: #A80036; stroke-width: 1.0;"/><polygon fill="#A80036" points="575,308.1,571,317.1,575,313.1,579,317.1,575,308.1" style="stroke: #A80036; stroke-width: 1.0;"/><text fill="#000000" font-family="sans-serif" font-size="13" lengthAdjust="spacingAndGlyphs" textLength="33" x="537.5656" y="328.0783">father</text></g></svg>