<?xml version="1.0" encoding="UTF-8" standalone="no"?><svg xmlns="http://www.w3.org/2000/svg" xmlns:xlink="http://www.w3.org/1999/xlink" contentScriptType="application/ecmascript" contentStyleType="text/css" height="321px" preserveAspectRatio="none" style="width:989px;height:321px;" version="1.1" viewBox="0 0 989 321" width="989px" zoomAndPan="magnify"><defs><filter height="300%" id="fgue2gl" width="300%" x="-1" y="-1"><feGaussianBlur result="blurOut" stdDeviation="2.0"/><feColorMatrix in="blurOut" result="blurOut2" type="matrix" values="0 0 0 0 0 0 0 0 0 0 0 0 0 0 0 0 0 0 .4 0"/><feOffset dx="4.0" dy="4.0" in="blurOut2" result="blurOut3"/><feBlend in="SourceGraphic" in2="blurOut3" mode="normal"/></filter></defs><g><!--class it.matlice.ingsw.model.data.impl.jdbc.db.SettingsDB--><a target="_parent" xlink:actuate="onRequest" xlink:href="../../../../../../../../it/matlice/ingsw/model/data/impl/jdbc/db/SettingsDB.html" xlink:show="new" xlink:title="it.matlice.ingsw.model.data.impl.jdbc.db.SettingsDB" xlink:type="simple"><rect fill="#FEFECE" filter="url(#fgue2gl)" height="189.7991" style="stroke: #A80036; stroke-width: 1.5;" width="214" x="379" y="123"/><ellipse cx="394" cy="150.5" fill="#ADD1B2" rx="11" ry="11" style="stroke: #A80036; stroke-width: 1.0;"/><path d="M389,151.6563 C389,154.1563 391.1406,155.9688 394.0625,155.9688 C395.2969,155.9688 396.4688,155.6719 397.2188,155.1563 C397.8281,154.7344 398.1563,154.3125 398.1563,153.9063 C398.1563,153.4375 397.7344,153.0313 397.2344,153.0313 C397,153.0313 396.7813,153.1094 396.5781,153.3125 C396.1406,153.75 396.1406,153.75 395.9688,153.8438 C395.5156,154.0781 394.875,154.2188 394.1094,154.2188 C392.1094,154.2188 390.8281,153.2031 390.8281,151.625 L390.8281,150.5781 C390.8281,148.875 392.0469,147.6719 393.75,147.6719 C394.3281,147.6719 394.9063,147.8125 395.375,148.0625 C395.8438,148.3281 396.0156,148.5156 396.0781,148.875 C396.2031,149.5469 396.4531,149.7969 396.9844,149.7969 C397.2656,149.7969 397.5469,149.6563 397.7344,149.4375 C397.8594,149.2656 397.9063,149.0938 397.9063,148.6563 L397.9063,147.2969 C397.9063,146.875 397.8906,146.7344 397.7656,146.5625 C397.5938,146.3125 397.3125,146.1563 396.9844,146.1563 C396.6719,146.1563 396.4688,146.2656 396.25,146.5313 C395.0781,146.0313 394.6406,145.9219 393.6875,145.9219 C391.0156,145.9219 389,147.9375 389,150.5625 L389,151.6563 Z "/><text fill="#000000" font-family="sans-serif" font-size="12" font-style="italic" lengthAdjust="spacingAndGlyphs" textLength="98" x="450" y="141.2001">«DatabaseTable»</text><text fill="#000000" font-family="sans-serif" font-size="14" font-weight="bold" lengthAdjust="spacingAndGlyphs" textLength="77" x="460.5" y="157.2061">SettingsDB</text><text fill="#000000" font-family="sans-serif" font-size="10" lengthAdjust="spacingAndGlyphs" textLength="182" x="408" y="170.29">it.matlice.ingsw.model.data.impl.jdbc.db</text><line style="stroke: #A80036; stroke-width: 1.5;" x1="380" x2="592" y1="178" y2="178"/><rect fill="none" height="6" style="stroke: #C82930; stroke-width: 1.0;" width="6" x="387" y="187.1"/><text fill="#000000" font-family="sans-serif" font-size="11" lengthAdjust="spacingAndGlyphs" textLength="45" x="399" y="192.219">Integer id</text><rect fill="none" height="6" style="stroke: #C82930; stroke-width: 1.0;" width="6" x="387" y="200.2999"/><text fill="#000000" font-family="sans-serif" font-size="11" lengthAdjust="spacingAndGlyphs" textLength="48" x="399" y="205.4189">String city</text><rect fill="none" height="6" style="stroke: #C82930; stroke-width: 1.0;" width="6" x="387" y="213.4998"/><text fill="#000000" font-family="sans-serif" font-size="11" lengthAdjust="spacingAndGlyphs" textLength="55" x="399" y="218.6188">Integer due</text><line style="stroke: #A80036; stroke-width: 1.5;" x1="380" x2="592" y1="225.5997" y2="225.5997"/><ellipse cx="390" cy="237.6997" fill="#84BE84" rx="3" ry="3" style="stroke: #038048; stroke-width: 1.0;"/><text fill="#000000" font-family="sans-serif" font-size="11" lengthAdjust="spacingAndGlyphs" textLength="168" x="399" y="239.8187">SettingsDB(String city,Integer due)</text><polygon fill="#4177AF" points="390,246.8996,386,252.8996,394,252.8996" style="stroke: #1963A0; stroke-width: 1.0;"/><text fill="#000000" font-family="sans-serif" font-size="11" lengthAdjust="spacingAndGlyphs" textLength="62" x="399" y="253.0186">SettingsDB()</text><ellipse cx="390" cy="264.0995" fill="#84BE84" rx="3" ry="3" style="stroke: #038048; stroke-width: 1.0;"/><text fill="#000000" font-family="sans-serif" font-size="11" lengthAdjust="spacingAndGlyphs" textLength="73" x="399" y="266.2185">String getCity()</text><ellipse cx="390" cy="277.2994" fill="#84BE84" rx="3" ry="3" style="stroke: #038048; stroke-width: 1.0;"/><text fill="#000000" font-family="sans-serif" font-size="11" lengthAdjust="spacingAndGlyphs" textLength="80" x="399" y="279.4184">Integer getDue()</text><ellipse cx="390" cy="290.4993" fill="#84BE84" rx="3" ry="3" style="stroke: #038048; stroke-width: 1.0;"/><text fill="#000000" font-family="sans-serif" font-size="11" lengthAdjust="spacingAndGlyphs" textLength="121" x="399" y="292.6183">void setDue(Integer due)</text><ellipse cx="390" cy="303.6992" fill="#84BE84" rx="3" ry="3" style="stroke: #038048; stroke-width: 1.0;"/><text fill="#000000" font-family="sans-serif" font-size="11" lengthAdjust="spacingAndGlyphs" textLength="69" x="399" y="305.8182">Integer getId()</text></a><!--class it.matlice.ingsw.model.data.impl.jdbc.db.LocationsDB--><a target="_parent" xlink:actuate="onRequest" xlink:href="../../../../../../../../it/matlice/ingsw/model/data/impl/jdbc/db/LocationsDB.html" xlink:show="new" xlink:title="it.matlice.ingsw.model.data.impl.jdbc.db.LocationsDB" xlink:type="simple"><rect fill="#FEFECE" filter="url(#fgue2gl)" height="55" style="stroke: #A80036; stroke-width: 1.5;" width="214" x="6" y="8"/><ellipse cx="21" cy="35.5" fill="#ADD1B2" rx="11" ry="11" style="stroke: #A80036; stroke-width: 1.0;"/><path d="M16,36.6563 C16,39.1563 18.1406,40.9688 21.0625,40.9688 C22.2969,40.9688 23.4688,40.6719 24.2188,40.1563 C24.8281,39.7344 25.1563,39.3125 25.1563,38.9063 C25.1563,38.4375 24.7344,38.0313 24.2344,38.0313 C24,38.0313 23.7813,38.1094 23.5781,38.3125 C23.1406,38.75 23.1406,38.75 22.9688,38.8438 C22.5156,39.0781 21.875,39.2188 21.1094,39.2188 C19.1094,39.2188 17.8281,38.2031 17.8281,36.625 L17.8281,35.5781 C17.8281,33.875 19.0469,32.6719 20.75,32.6719 C21.3281,32.6719 21.9063,32.8125 22.375,33.0625 C22.8438,33.3281 23.0156,33.5156 23.0781,33.875 C23.2031,34.5469 23.4531,34.7969 23.9844,34.7969 C24.2656,34.7969 24.5469,34.6563 24.7344,34.4375 C24.8594,34.2656 24.9063,34.0938 24.9063,33.6563 L24.9063,32.2969 C24.9063,31.875 24.8906,31.7344 24.7656,31.5625 C24.5938,31.3125 24.3125,31.1563 23.9844,31.1563 C23.6719,31.1563 23.4688,31.2656 23.25,31.5313 C22.0781,31.0313 21.6406,30.9219 20.6875,30.9219 C18.0156,30.9219 16,32.9375 16,35.5625 L16,36.6563 Z "/><text fill="#000000" font-family="sans-serif" font-size="12" font-style="italic" lengthAdjust="spacingAndGlyphs" textLength="98" x="77" y="26.2001">«DatabaseTable»</text><text fill="#000000" font-family="sans-serif" font-size="14" font-weight="bold" lengthAdjust="spacingAndGlyphs" textLength="89" x="81.5" y="42.2061">LocationsDB</text><text fill="#000000" font-family="sans-serif" font-size="10" lengthAdjust="spacingAndGlyphs" textLength="182" x="35" y="55.29">it.matlice.ingsw.model.data.impl.jdbc.db</text></a><!--class it.matlice.ingsw.model.data.impl.jdbc.db.IntervalsDB--><a target="_parent" xlink:actuate="onRequest" xlink:href="../../../../../../../../it/matlice/ingsw/model/data/impl/jdbc/db/IntervalsDB.html" xlink:show="new" xlink:title="it.matlice.ingsw.model.data.impl.jdbc.db.IntervalsDB" xlink:type="simple"><rect fill="#FEFECE" filter="url(#fgue2gl)" height="55" style="stroke: #A80036; stroke-width: 1.5;" width="214" x="255" y="8"/><ellipse cx="270" cy="35.5" fill="#ADD1B2" rx="11" ry="11" style="stroke: #A80036; stroke-width: 1.0;"/><path d="M265,36.6563 C265,39.1563 267.1406,40.9688 270.0625,40.9688 C271.2969,40.9688 272.4688,40.6719 273.2188,40.1563 C273.8281,39.7344 274.1563,39.3125 274.1563,38.9063 C274.1563,38.4375 273.7344,38.0313 273.2344,38.0313 C273,38.0313 272.7813,38.1094 272.5781,38.3125 C272.1406,38.75 272.1406,38.75 271.9688,38.8438 C271.5156,39.0781 270.875,39.2188 270.1094,39.2188 C268.1094,39.2188 266.8281,38.2031 266.8281,36.625 L266.8281,35.5781 C266.8281,33.875 268.0469,32.6719 269.75,32.6719 C270.3281,32.6719 270.9063,32.8125 271.375,33.0625 C271.8438,33.3281 272.0156,33.5156 272.0781,33.875 C272.2031,34.5469 272.4531,34.7969 272.9844,34.7969 C273.2656,34.7969 273.5469,34.6563 273.7344,34.4375 C273.8594,34.2656 273.9063,34.0938 273.9063,33.6563 L273.9063,32.2969 C273.9063,31.875 273.8906,31.7344 273.7656,31.5625 C273.5938,31.3125 273.3125,31.1563 272.9844,31.1563 C272.6719,31.1563 272.4688,31.2656 272.25,31.5313 C271.0781,31.0313 270.6406,30.9219 269.6875,30.9219 C267.0156,30.9219 265,32.9375 265,35.5625 L265,36.6563 Z "/><text fill="#000000" font-family="sans-serif" font-size="12" font-style="italic" lengthAdjust="spacingAndGlyphs" textLength="98" x="326" y="26.2001">«DatabaseTable»</text><text fill="#000000" font-family="sans-serif" font-size="14" font-weight="bold" lengthAdjust="spacingAndGlyphs" textLength="79" x="335.5" y="42.2061">IntervalsDB</text><text fill="#000000" font-family="sans-serif" font-size="10" lengthAdjust="spacingAndGlyphs" textLength="182" x="284" y="55.29">it.matlice.ingsw.model.data.impl.jdbc.db</text></a><!--class it.matlice.ingsw.model.data.impl.jdbc.db.DaysDB--><a target="_parent" xlink:actuate="onRequest" xlink:href="../../../../../../../../it/matlice/ingsw/model/data/impl/jdbc/db/DaysDB.html" xlink:show="new" xlink:title="it.matlice.ingsw.model.data.impl.jdbc.db.DaysDB" xlink:type="simple"><rect fill="#FEFECE" filter="url(#fgue2gl)" height="55" style="stroke: #A80036; stroke-width: 1.5;" width="214" x="504" y="8"/><ellipse cx="519" cy="35.5" fill="#ADD1B2" rx="11" ry="11" style="stroke: #A80036; stroke-width: 1.0;"/><path d="M514,36.6563 C514,39.1563 516.1406,40.9688 519.0625,40.9688 C520.2969,40.9688 521.4688,40.6719 522.2188,40.1563 C522.8281,39.7344 523.1563,39.3125 523.1563,38.9063 C523.1563,38.4375 522.7344,38.0313 522.2344,38.0313 C522,38.0313 521.7813,38.1094 521.5781,38.3125 C521.1406,38.75 521.1406,38.75 520.9688,38.8438 C520.5156,39.0781 519.875,39.2188 519.1094,39.2188 C517.1094,39.2188 515.8281,38.2031 515.8281,36.625 L515.8281,35.5781 C515.8281,33.875 517.0469,32.6719 518.75,32.6719 C519.3281,32.6719 519.9063,32.8125 520.375,33.0625 C520.8438,33.3281 521.0156,33.5156 521.0781,33.875 C521.2031,34.5469 521.4531,34.7969 521.9844,34.7969 C522.2656,34.7969 522.5469,34.6563 522.7344,34.4375 C522.8594,34.2656 522.9063,34.0938 522.9063,33.6563 L522.9063,32.2969 C522.9063,31.875 522.8906,31.7344 522.7656,31.5625 C522.5938,31.3125 522.3125,31.1563 521.9844,31.1563 C521.6719,31.1563 521.4688,31.2656 521.25,31.5313 C520.0781,31.0313 519.6406,30.9219 518.6875,30.9219 C516.0156,30.9219 514,32.9375 514,35.5625 L514,36.6563 Z "/><text fill="#000000" font-family="sans-serif" font-size="12" font-style="italic" lengthAdjust="spacingAndGlyphs" textLength="98" x="575" y="26.2001">«DatabaseTable»</text><text fill="#000000" font-family="sans-serif" font-size="14" font-weight="bold" lengthAdjust="spacingAndGlyphs" textLength="54" x="597" y="42.2061">DaysDB</text><text fill="#000000" font-family="sans-serif" font-size="10" lengthAdjust="spacingAndGlyphs" textLength="182" x="533" y="55.29">it.matlice.ingsw.model.data.impl.jdbc.db</text></a><!--class it.matlice.ingsw.model.data.impl.jdbc.types.SettingsImpl--><a target="_parent" xlink:actuate="onRequest" xlink:href="../../../../../../../../it/matlice/ingsw/model/data/impl/jdbc/types/SettingsImpl.html" xlink:show="new" xlink:title="it.matlice.ingsw.model.data.impl.jdbc.types.SettingsImpl" xlink:type="simple"><rect fill="#FFFFFF" filter="url(#fgue2gl)" height="38.7999" style="stroke: #A80036; stroke-width: 1.5;" width="227" x="753.5" y="16"/><rect fill="#FFFFFF" height="38.7999" style="stroke: #A80036; stroke-width: 1.5;" width="227" x="753.5" y="16"/><ellipse cx="768.5" cy="35.4" fill="#ADD1B2" rx="11" ry="11" style="stroke: #A80036; stroke-width: 1.0;"/><path d="M763.5,36.5562 C763.5,39.0562 765.6406,40.8687 768.5625,40.8687 C769.7969,40.8687 770.9688,40.5718 771.7188,40.0562 C772.3281,39.6343 772.6563,39.2125 772.6563,38.8062 C772.6563,38.3375 772.2344,37.9312 771.7344,37.9312 C771.5,37.9312 771.2813,38.0093 771.0781,38.2125 C770.6406,38.65 770.6406,38.65 770.4688,38.7437 C770.0156,38.9781 769.375,39.1187 768.6094,39.1187 C766.6094,39.1187 765.3281,38.1031 765.3281,36.525 L765.3281,35.4781 C765.3281,33.775 766.5469,32.5718 768.25,32.5718 C768.8281,32.5718 769.4063,32.7125 769.875,32.9625 C770.3438,33.2281 770.5156,33.4156 770.5781,33.775 C770.7031,34.4468 770.9531,34.6968 771.4844,34.6968 C771.7656,34.6968 772.0469,34.5562 772.2344,34.3375 C772.3594,34.1656 772.4063,33.9937 772.4063,33.5562 L772.4063,32.1968 C772.4063,31.775 772.3906,31.6343 772.2656,31.4625 C772.0938,31.2125 771.8125,31.0562 771.4844,31.0562 C771.1719,31.0562 770.9688,31.1656 770.75,31.4312 C769.5781,30.9312 769.1406,30.8218 768.1875,30.8218 C765.5156,30.8218 763.5,32.8375 763.5,35.4625 L763.5,36.5562 Z "/><text fill="#000000" font-family="sans-serif" font-size="14" font-weight="bold" lengthAdjust="spacingAndGlyphs" textLength="86" x="837" y="34.0059">SettingsImpl</text><text fill="#000000" font-family="sans-serif" font-size="10" lengthAdjust="spacingAndGlyphs" textLength="195" x="782.5" y="47.0899">it.matlice.ingsw.model.data.impl.jdbc.types</text></a><path d="M113,63.22 C113,114.27 113,218 113,218 C113,218 373.61,218 373.61,218 " fill="none" style="stroke: #A80036; stroke-width: 1.0;"/><polygon fill="#A80036" points="378.61,218,369.61,214,373.61,218,369.61,222,378.61,218" style="stroke: #A80036; stroke-width: 1.0;"/><text fill="#000000" font-family="sans-serif" font-size="13" lengthAdjust="spacingAndGlyphs" textLength="15" x="355.8908" y="214.6">ref</text><path d="M424,63.22 C424,63.22 424,117.95 424,117.95 " fill="none" style="stroke: #A80036; stroke-width: 1.0;"/><polygon fill="#A80036" points="424,122.95,428,113.95,424,117.95,420,113.95,424,122.95" style="stroke: #A80036; stroke-width: 1.0;"/><text fill="#000000" font-family="sans-serif" font-size="13" lengthAdjust="spacingAndGlyphs" textLength="15" x="403.2445" y="111.5677">ref</text><path d="M548.5,63.22 C548.5,63.22 548.5,117.95 548.5,117.95 " fill="none" style="stroke: #A80036; stroke-width: 1.0;"/><polygon fill="#A80036" points="548.5,122.95,552.5,113.95,548.5,117.95,544.5,113.95,548.5,122.95" style="stroke: #A80036; stroke-width: 1.0;"/><text fill="#000000" font-family="sans-serif" font-size="13" lengthAdjust="spacingAndGlyphs" textLength="15" x="538.0547" y="111.5677">ref</text><path d="M867,55.03 C867,102.11 867,218 867,218 C867,218 598.14,218 598.14,218 " fill="none" style="stroke: #A80036; stroke-width: 1.0;"/><polygon fill="#A80036" points="593.14,218,602.14,222,598.14,218,602.14,214,593.14,218" style="stroke: #A80036; stroke-width: 1.0;"/><text fill="#000000" font-family="sans-serif" font-size="13" lengthAdjust="spacingAndGlyphs" textLength="41" x="600.9181" y="214.6444">dbData</text></g></svg>