<?xml version="1.0" encoding="UTF-8" standalone="no"?><svg xmlns="http://www.w3.org/2000/svg" xmlns:xlink="http://www.w3.org/1999/xlink" contentScriptType="application/ecmascript" contentStyleType="text/css" height="427px" preserveAspectRatio="none" style="width:1015px;height:427px;" version="1.1" viewBox="0 0 1015 427" width="1015px" zoomAndPan="magnify"><defs><filter height="300%" id="f9aucfj" width="300%" x="-1" y="-1"><feGaussianBlur result="blurOut" stdDeviation="2.0"/><feColorMatrix in="blurOut" result="blurOut2" type="matrix" values="0 0 0 0 0 0 0 0 0 0 0 0 0 0 0 0 0 0 .4 0"/><feOffset dx="4.0" dy="4.0" in="blurOut2" result="blurOut3"/><feBlend in="SourceGraphic" in2="blurOut3" mode="normal"/></filter></defs><g><!--class it.matlice.ingsw.model.data.impl.jdbc.db.UserDB--><a target="_parent" xlink:actuate="onRequest" xlink:href="../../../../../../../../it/matlice/ingsw/model/data/impl/jdbc/db/UserDB.html" xlink:show="new" xlink:title="it.matlice.ingsw.model.data.impl.jdbc.db.UserDB" xlink:type="simple"><rect fill="#FEFECE" filter="url(#f9aucfj)" height="295.3984" style="stroke: #A80036; stroke-width: 1.5;" width="256" x="372" y="123"/><ellipse cx="405.9" cy="150.5" fill="#ADD1B2" rx="11" ry="11" style="stroke: #A80036; stroke-width: 1.0;"/><path d="M400.9,151.6563 C400.9,154.1563 403.0406,155.9688 405.9625,155.9688 C407.1969,155.9688 408.3688,155.6719 409.1188,155.1563 C409.7281,154.7344 410.0563,154.3125 410.0563,153.9063 C410.0563,153.4375 409.6344,153.0313 409.1344,153.0313 C408.9,153.0313 408.6813,153.1094 408.4781,153.3125 C408.0406,153.75 408.0406,153.75 407.8688,153.8438 C407.4156,154.0781 406.775,154.2188 406.0094,154.2188 C404.0094,154.2188 402.7281,153.2031 402.7281,151.625 L402.7281,150.5781 C402.7281,148.875 403.9469,147.6719 405.65,147.6719 C406.2281,147.6719 406.8063,147.8125 407.275,148.0625 C407.7438,148.3281 407.9156,148.5156 407.9781,148.875 C408.1031,149.5469 408.3531,149.7969 408.8844,149.7969 C409.1656,149.7969 409.4469,149.6563 409.6344,149.4375 C409.7594,149.2656 409.8063,149.0938 409.8063,148.6563 L409.8063,147.2969 C409.8063,146.875 409.7906,146.7344 409.6656,146.5625 C409.4938,146.3125 409.2125,146.1563 408.8844,146.1563 C408.5719,146.1563 408.3688,146.2656 408.15,146.5313 C406.9781,146.0313 406.5406,145.9219 405.5875,145.9219 C402.9156,145.9219 400.9,147.9375 400.9,150.5625 L400.9,151.6563 Z "/><text fill="#000000" font-family="sans-serif" font-size="12" font-style="italic" lengthAdjust="spacingAndGlyphs" textLength="98" x="466.1" y="141.2001">«DatabaseTable»</text><text fill="#000000" font-family="sans-serif" font-size="14" font-weight="bold" lengthAdjust="spacingAndGlyphs" textLength="51" x="489.6" y="157.2061">UserDB</text><text fill="#000000" font-family="sans-serif" font-size="10" lengthAdjust="spacingAndGlyphs" textLength="182" x="424.1" y="170.29">it.matlice.ingsw.model.data.impl.jdbc.db</text><line style="stroke: #A80036; stroke-width: 1.5;" x1="373" x2="627" y1="178" y2="178"/><rect fill="none" height="6" style="stroke: #C82930; stroke-width: 1.0;" width="6" x="380" y="187.1"/><text fill="#000000" font-family="sans-serif" font-size="11" lengthAdjust="spacingAndGlyphs" textLength="80" x="392" y="192.219">String username</text><rect fill="none" height="6" style="stroke: #C82930; stroke-width: 1.0;" width="6" x="380" y="200.2999"/><text fill="#000000" font-family="sans-serif" font-size="11" lengthAdjust="spacingAndGlyphs" textLength="109" x="392" y="205.4189">String password_hash</text><rect fill="none" height="6" style="stroke: #C82930; stroke-width: 1.0;" width="6" x="380" y="213.4998"/><text fill="#000000" font-family="sans-serif" font-size="11" lengthAdjust="spacingAndGlyphs" textLength="102" x="392" y="218.6188">String password_salt</text><rect fill="none" height="6" style="stroke: #C82930; stroke-width: 1.0;" width="6" x="380" y="226.6997"/><text fill="#000000" font-family="sans-serif" font-size="11" lengthAdjust="spacingAndGlyphs" textLength="52" x="392" y="231.8187">String type</text><rect fill="none" height="6" style="stroke: #C82930; stroke-width: 1.0;" width="6" x="380" y="239.8996"/><text fill="#000000" font-family="sans-serif" font-size="11" lengthAdjust="spacingAndGlyphs" textLength="81" x="392" y="245.0186">Long lastAccess</text><line style="stroke: #A80036; stroke-width: 1.5;" x1="373" x2="627" y1="251.9995" y2="251.9995"/><ellipse cx="383" cy="264.0995" fill="#84BE84" rx="3" ry="3" style="stroke: #038048; stroke-width: 1.0;"/><text fill="#000000" font-family="sans-serif" font-size="11" lengthAdjust="spacingAndGlyphs" textLength="47" x="392" y="266.2185">UserDB()</text><ellipse cx="383" cy="277.2994" fill="#84BE84" rx="3" ry="3" style="stroke: #038048; stroke-width: 1.0;"/><text fill="#000000" font-family="sans-serif" font-size="11" lengthAdjust="spacingAndGlyphs" textLength="108" x="392" y="279.4184">Long getLastAccess()</text><ellipse cx="383" cy="290.4993" fill="#84BE84" rx="3" ry="3" style="stroke: #038048; stroke-width: 1.0;"/><text fill="#000000" font-family="sans-serif" font-size="11" lengthAdjust="spacingAndGlyphs" textLength="185" x="392" y="292.6183">void setLastAccess(Long lastAccess)</text><ellipse cx="383" cy="303.6992" fill="#84BE84" rx="3" ry="3" style="stroke: #038048; stroke-width: 1.0;"/><text fill="#000000" font-family="sans-serif" font-size="11" lengthAdjust="spacingAndGlyphs" textLength="105" x="392" y="305.8182">String getUsername()</text><ellipse cx="383" cy="316.8991" fill="#84BE84" rx="3" ry="3" style="stroke: #038048; stroke-width: 1.0;"/><text fill="#000000" font-family="sans-serif" font-size="11" lengthAdjust="spacingAndGlyphs" textLength="177" x="392" y="319.0181">void setUsername(String username)</text><ellipse cx="383" cy="330.099" fill="#84BE84" rx="3" ry="3" style="stroke: #038048; stroke-width: 1.0;"/><text fill="#000000" font-family="sans-serif" font-size="11" lengthAdjust="spacingAndGlyphs" textLength="129" x="392" y="332.218">String getPasswordHash()</text><ellipse cx="383" cy="343.2989" fill="#84BE84" rx="3" ry="3" style="stroke: #038048; stroke-width: 1.0;"/><text fill="#000000" font-family="sans-serif" font-size="11" lengthAdjust="spacingAndGlyphs" textLength="230" x="392" y="345.4179">void setPasswordHash(String password_hash)</text><ellipse cx="383" cy="356.4988" fill="#84BE84" rx="3" ry="3" style="stroke: #038048; stroke-width: 1.0;"/><text fill="#000000" font-family="sans-serif" font-size="11" lengthAdjust="spacingAndGlyphs" textLength="121" x="392" y="358.6178">String getPasswordSalt()</text><ellipse cx="383" cy="369.6987" fill="#84BE84" rx="3" ry="3" style="stroke: #038048; stroke-width: 1.0;"/><text fill="#000000" font-family="sans-serif" font-size="11" lengthAdjust="spacingAndGlyphs" textLength="215" x="392" y="371.8177">void setPasswordSalt(String password_salt)</text><ellipse cx="383" cy="382.8986" fill="#84BE84" rx="3" ry="3" style="stroke: #038048; stroke-width: 1.0;"/><text fill="#000000" font-family="sans-serif" font-size="11" lengthAdjust="spacingAndGlyphs" textLength="79" x="392" y="385.0176">String getType()</text><ellipse cx="383" cy="396.0985" fill="#84BE84" rx="3" ry="3" style="stroke: #038048; stroke-width: 1.0;"/><text fill="#000000" font-family="sans-serif" font-size="11" lengthAdjust="spacingAndGlyphs" textLength="123" x="392" y="398.2175">void setType(String type)</text><ellipse cx="383" cy="409.2984" fill="#84BE84" rx="3" ry="3" style="stroke: #038048; stroke-width: 1.0;"/><text fill="#000000" font-family="sans-serif" font-size="11" lengthAdjust="spacingAndGlyphs" textLength="130" x="392" y="411.4174">boolean equals(Object obj)</text></a><!--class it.matlice.ingsw.model.data.impl.jdbc.db.OfferDB--><a target="_parent" xlink:actuate="onRequest" xlink:href="../../../../../../../../it/matlice/ingsw/model/data/impl/jdbc/db/OfferDB.html" xlink:show="new" xlink:title="it.matlice.ingsw.model.data.impl.jdbc.db.OfferDB" xlink:type="simple"><rect fill="#FEFECE" filter="url(#f9aucfj)" height="55" style="stroke: #A80036; stroke-width: 1.5;" width="214" x="6" y="8"/><ellipse cx="21" cy="35.5" fill="#ADD1B2" rx="11" ry="11" style="stroke: #A80036; stroke-width: 1.0;"/><path d="M16,36.6563 C16,39.1563 18.1406,40.9688 21.0625,40.9688 C22.2969,40.9688 23.4688,40.6719 24.2188,40.1563 C24.8281,39.7344 25.1563,39.3125 25.1563,38.9063 C25.1563,38.4375 24.7344,38.0313 24.2344,38.0313 C24,38.0313 23.7813,38.1094 23.5781,38.3125 C23.1406,38.75 23.1406,38.75 22.9688,38.8438 C22.5156,39.0781 21.875,39.2188 21.1094,39.2188 C19.1094,39.2188 17.8281,38.2031 17.8281,36.625 L17.8281,35.5781 C17.8281,33.875 19.0469,32.6719 20.75,32.6719 C21.3281,32.6719 21.9063,32.8125 22.375,33.0625 C22.8438,33.3281 23.0156,33.5156 23.0781,33.875 C23.2031,34.5469 23.4531,34.7969 23.9844,34.7969 C24.2656,34.7969 24.5469,34.6563 24.7344,34.4375 C24.8594,34.2656 24.9063,34.0938 24.9063,33.6563 L24.9063,32.2969 C24.9063,31.875 24.8906,31.7344 24.7656,31.5625 C24.5938,31.3125 24.3125,31.1563 23.9844,31.1563 C23.6719,31.1563 23.4688,31.2656 23.25,31.5313 C22.0781,31.0313 21.6406,30.9219 20.6875,30.9219 C18.0156,30.9219 16,32.9375 16,35.5625 L16,36.6563 Z "/><text fill="#000000" font-family="sans-serif" font-size="12" font-style="italic" lengthAdjust="spacingAndGlyphs" textLength="98" x="77" y="26.2001">«DatabaseTable»</text><text fill="#000000" font-family="sans-serif" font-size="14" font-weight="bold" lengthAdjust="spacingAndGlyphs" textLength="54" x="99" y="42.2061">OfferDB</text><text fill="#000000" font-family="sans-serif" font-size="10" lengthAdjust="spacingAndGlyphs" textLength="182" x="35" y="55.29">it.matlice.ingsw.model.data.impl.jdbc.db</text></a><!--class it.matlice.ingsw.model.data.impl.jdbc.types.UserImpl--><a target="_parent" xlink:actuate="onRequest" xlink:href="../../../../../../../../it/matlice/ingsw/model/data/impl/jdbc/types/UserImpl.html" xlink:show="new" xlink:title="it.matlice.ingsw.model.data.impl.jdbc.types.UserImpl" xlink:type="simple"><rect fill="#FFFFFF" filter="url(#f9aucfj)" height="42.3999" style="stroke: #A80036; stroke-width: 1.5;" width="227" x="255.5" y="14.5"/><rect fill="#FFFFFF" height="42.3999" style="stroke: #A80036; stroke-width: 1.5;" width="227" x="255.5" y="14.5"/><ellipse cx="270.5" cy="35.7" fill="#B4A7E5" rx="11" ry="11" style="stroke: #A80036; stroke-width: 1.0;"/><path d="M271.5156,32.8562 L273.1719,32.8562 C273.5625,32.8562 273.7656,32.825 273.9219,32.7468 C274.1875,32.575 274.3594,32.2781 274.3594,31.9812 C274.3594,31.7 274.2188,31.45 273.9844,31.2781 C273.7969,31.1531 273.6406,31.1062 273.1719,31.1062 L268.0313,31.1062 C267.5938,31.1062 267.4531,31.1218 267.2813,31.2312 C267.0156,31.4031 266.8438,31.6843 266.8438,31.9812 C266.8438,32.2625 266.9844,32.5437 267.2188,32.7 C267.4063,32.825 267.5938,32.8562 268.0313,32.8562 L269.6875,32.8562 L269.6875,38.95 L268.0313,38.95 C267.5938,38.95 267.4531,38.9656 267.2813,39.075 C267.0156,39.2312 266.8438,39.5281 266.8438,39.8093 C266.8438,40.4187 267.25,40.7 268.0313,40.7 L273.1719,40.7 C273.9531,40.7 274.3594,40.4187 274.3594,39.8093 C274.3594,39.5437 274.2188,39.2937 273.9844,39.1218 C273.7969,38.9812 273.625,38.95 273.1719,38.95 L271.5156,38.95 L271.5156,32.8562 Z "/><text fill="#000000" font-family="sans-serif" font-size="14" font-style="italic" font-weight="bold" lengthAdjust="spacingAndGlyphs" textLength="60" x="352" y="34.8999">UserImpl</text><text fill="#000000" font-family="sans-serif" font-size="10" font-style="italic" lengthAdjust="spacingAndGlyphs" textLength="195" x="284.5" y="49.3999">it.matlice.ingsw.model.data.impl.jdbc.types</text></a><!--class it.matlice.ingsw.model.data.impl.jdbc.types.CustomerUserImpl--><a target="_parent" xlink:actuate="onRequest" xlink:href="../../../../../../../../it/matlice/ingsw/model/data/impl/jdbc/types/CustomerUserImpl.html" xlink:show="new" xlink:title="it.matlice.ingsw.model.data.impl.jdbc.types.CustomerUserImpl" xlink:type="simple"><rect fill="#FFFFFF" filter="url(#f9aucfj)" height="38.7999" style="stroke: #A80036; stroke-width: 1.5;" width="227" x="517.5" y="16"/><rect fill="#FFFFFF" height="38.7999" style="stroke: #A80036; stroke-width: 1.5;" width="227" x="517.5" y="16"/><ellipse cx="532.5" cy="35.4" fill="#ADD1B2" rx="11" ry="11" style="stroke: #A80036; stroke-width: 1.0;"/><path d="M527.5,36.5562 C527.5,39.0562 529.6406,40.8687 532.5625,40.8687 C533.7969,40.8687 534.9688,40.5718 535.7188,40.0562 C536.3281,39.6343 536.6563,39.2125 536.6563,38.8062 C536.6563,38.3375 536.2344,37.9312 535.7344,37.9312 C535.5,37.9312 535.2813,38.0093 535.0781,38.2125 C534.6406,38.65 534.6406,38.65 534.4688,38.7437 C534.0156,38.9781 533.375,39.1187 532.6094,39.1187 C530.6094,39.1187 529.3281,38.1031 529.3281,36.525 L529.3281,35.4781 C529.3281,33.775 530.5469,32.5718 532.25,32.5718 C532.8281,32.5718 533.4063,32.7125 533.875,32.9625 C534.3438,33.2281 534.5156,33.4156 534.5781,33.775 C534.7031,34.4468 534.9531,34.6968 535.4844,34.6968 C535.7656,34.6968 536.0469,34.5562 536.2344,34.3375 C536.3594,34.1656 536.4063,33.9937 536.4063,33.5562 L536.4063,32.1968 C536.4063,31.775 536.3906,31.6343 536.2656,31.4625 C536.0938,31.2125 535.8125,31.0562 535.4844,31.0562 C535.1719,31.0562 534.9688,31.1656 534.75,31.4312 C533.5781,30.9312 533.1406,30.8218 532.1875,30.8218 C529.5156,30.8218 527.5,32.8375 527.5,35.4625 L527.5,36.5562 Z "/><text fill="#000000" font-family="sans-serif" font-size="14" font-weight="bold" lengthAdjust="spacingAndGlyphs" textLength="126" x="581" y="34.0059">CustomerUserImpl</text><text fill="#000000" font-family="sans-serif" font-size="10" lengthAdjust="spacingAndGlyphs" textLength="195" x="546.5" y="47.0899">it.matlice.ingsw.model.data.impl.jdbc.types</text></a><!--class it.matlice.ingsw.model.data.impl.jdbc.types.ConfiguratorUserImpl--><a target="_parent" xlink:actuate="onRequest" xlink:href="../../../../../../../../it/matlice/ingsw/model/data/impl/jdbc/types/ConfiguratorUserImpl.html" xlink:show="new" xlink:title="it.matlice.ingsw.model.data.impl.jdbc.types.ConfiguratorUserImpl" xlink:type="simple"><rect fill="#FFFFFF" filter="url(#f9aucfj)" height="38.7999" style="stroke: #A80036; stroke-width: 1.5;" width="227" x="779.5" y="16"/><rect fill="#FFFFFF" height="38.7999" style="stroke: #A80036; stroke-width: 1.5;" width="227" x="779.5" y="16"/><ellipse cx="794.5" cy="35.4" fill="#ADD1B2" rx="11" ry="11" style="stroke: #A80036; stroke-width: 1.0;"/><path d="M789.5,36.5562 C789.5,39.0562 791.6406,40.8687 794.5625,40.8687 C795.7969,40.8687 796.9688,40.5718 797.7188,40.0562 C798.3281,39.6343 798.6563,39.2125 798.6563,38.8062 C798.6563,38.3375 798.2344,37.9312 797.7344,37.9312 C797.5,37.9312 797.2813,38.0093 797.0781,38.2125 C796.6406,38.65 796.6406,38.65 796.4688,38.7437 C796.0156,38.9781 795.375,39.1187 794.6094,39.1187 C792.6094,39.1187 791.3281,38.1031 791.3281,36.525 L791.3281,35.4781 C791.3281,33.775 792.5469,32.5718 794.25,32.5718 C794.8281,32.5718 795.4063,32.7125 795.875,32.9625 C796.3438,33.2281 796.5156,33.4156 796.5781,33.775 C796.7031,34.4468 796.9531,34.6968 797.4844,34.6968 C797.7656,34.6968 798.0469,34.5562 798.2344,34.3375 C798.3594,34.1656 798.4063,33.9937 798.4063,33.5562 L798.4063,32.1968 C798.4063,31.775 798.3906,31.6343 798.2656,31.4625 C798.0938,31.2125 797.8125,31.0562 797.4844,31.0562 C797.1719,31.0562 796.9688,31.1656 796.75,31.4312 C795.5781,30.9312 795.1406,30.8218 794.1875,30.8218 C791.5156,30.8218 789.5,32.8375 789.5,35.4625 L789.5,36.5562 Z "/><text fill="#000000" font-family="sans-serif" font-size="14" font-weight="bold" lengthAdjust="spacingAndGlyphs" textLength="147" x="832.5" y="34.0059">ConfiguratorUserImpl</text><text fill="#000000" font-family="sans-serif" font-size="10" lengthAdjust="spacingAndGlyphs" textLength="195" x="808.5" y="47.0899">it.matlice.ingsw.model.data.impl.jdbc.types</text></a><path d="M113,63.44 C113,125.82 113,271 113,271 C113,271 366.94,271 366.94,271 " fill="none" style="stroke: #A80036; stroke-width: 1.0;"/><polygon fill="#A80036" points="371.94,271,362.94,267,366.94,271,362.94,275,371.94,271" style="stroke: #A80036; stroke-width: 1.0;"/><text fill="#000000" font-family="sans-serif" font-size="13" lengthAdjust="spacingAndGlyphs" textLength="34" x="330.007" y="267.6997">owner</text><path d="M427.25,56.77 C427.25,56.77 427.25,117.92 427.25,117.92 " fill="none" style="stroke: #A80036; stroke-width: 1.0; stroke-dasharray: 7.0,7.0;"/><polygon fill="#A80036" points="427.25,122.92,431.25,113.92,427.25,117.92,423.25,113.92,427.25,122.92" style="stroke: #A80036; stroke-width: 1.0;"/><path d="M572.75,55.13 C572.75,55.13 572.75,117.92 572.75,117.92 " fill="none" style="stroke: #A80036; stroke-width: 1.0;"/><polygon fill="#A80036" points="572.75,122.92,576.75,113.92,572.75,117.92,568.75,113.92,572.75,122.92" style="stroke: #A80036; stroke-width: 1.0;"/><text fill="#000000" font-family="sans-serif" font-size="13" lengthAdjust="spacingAndGlyphs" textLength="41" x="534.6074" y="111.5216">dbData</text><path d="M893,55.17 C893,111.77 893,271 893,271 C893,271 633.14,271 633.14,271 " fill="none" style="stroke: #A80036; stroke-width: 1.0;"/><polygon fill="#A80036" points="628.14,271,637.14,275,633.14,271,637.14,267,628.14,271" style="stroke: #A80036; stroke-width: 1.0;"/><text fill="#000000" font-family="sans-serif" font-size="13" lengthAdjust="spacingAndGlyphs" textLength="41" x="635.8043" y="267.7213">dbData</text></g></svg>