<?xml version="1.0" encoding="UTF-8" standalone="no"?><svg xmlns="http://www.w3.org/2000/svg" xmlns:xlink="http://www.w3.org/1999/xlink" contentScriptType="application/ecmascript" contentStyleType="text/css" height="304px" preserveAspectRatio="none" style="width:504px;height:304px;" version="1.1" viewBox="0 0 504 304" width="504px" zoomAndPan="magnify"><defs><filter height="300%" id="fso4k01" width="300%" x="-1" y="-1"><feGaussianBlur result="blurOut" stdDeviation="2.0"/><feColorMatrix in="blurOut" result="blurOut2" type="matrix" values="0 0 0 0 0 0 0 0 0 0 0 0 0 0 0 0 0 0 .4 0"/><feOffset dx="4.0" dy="4.0" in="blurOut2" result="blurOut3"/><feBlend in="SourceGraphic" in2="blurOut3" mode="normal"/></filter></defs><g><!--class it.matlice.ingsw.model.data.impl.jdbc.types.CategoryImpl--><a target="_parent" xlink:actuate="onRequest" xlink:href="../../../../../../../../it/matlice/ingsw/model/data/impl/jdbc/types/CategoryImpl.html" xlink:show="new" xlink:title="it.matlice.ingsw.model.data.impl.jdbc.types.CategoryImpl" xlink:type="simple"><rect fill="#FEFECE" filter="url(#fso4k01)" height="73.2498" style="stroke: #A80036; stroke-width: 1.5;" width="227" x="137" y="107"/><ellipse cx="152" cy="128.2" fill="#B4A7E5" rx="11" ry="11" style="stroke: #A80036; stroke-width: 1.0;"/><path d="M153.0156,125.3562 L154.6719,125.3562 C155.0625,125.3562 155.2656,125.325 155.4219,125.2468 C155.6875,125.075 155.8594,124.7781 155.8594,124.4812 C155.8594,124.2 155.7188,123.95 155.4844,123.7781 C155.2969,123.6531 155.1406,123.6062 154.6719,123.6062 L149.5313,123.6062 C149.0938,123.6062 148.9531,123.6218 148.7813,123.7312 C148.5156,123.9031 148.3438,124.1843 148.3438,124.4812 C148.3438,124.7625 148.4844,125.0437 148.7188,125.2 C148.9063,125.325 149.0938,125.3562 149.5313,125.3562 L151.1875,125.3562 L151.1875,131.45 L149.5313,131.45 C149.0938,131.45 148.9531,131.4656 148.7813,131.575 C148.5156,131.7312 148.3438,132.0281 148.3438,132.3093 C148.3438,132.9187 148.75,133.2 149.5313,133.2 L154.6719,133.2 C155.4531,133.2 155.8594,132.9187 155.8594,132.3093 C155.8594,132.0437 155.7188,131.7937 155.4844,131.6218 C155.2969,131.4812 155.125,131.45 154.6719,131.45 L153.0156,131.45 L153.0156,125.3562 Z "/><text fill="#000000" font-family="sans-serif" font-size="14" font-style="italic" font-weight="bold" lengthAdjust="spacingAndGlyphs" textLength="91" x="218" y="127.3999">CategoryImpl</text><text fill="#000000" font-family="sans-serif" font-size="10" font-style="italic" lengthAdjust="spacingAndGlyphs" textLength="195" x="166" y="141.8999">it.matlice.ingsw.model.data.impl.jdbc.types</text><line style="stroke: #A80036; stroke-width: 1.5;" x1="138" x2="363" y1="149.3999" y2="149.3999"/><line style="stroke: #A80036; stroke-width: 1.5;" x1="138" x2="363" y1="157.3999" y2="157.3999"/><ellipse cx="148" cy="170.3248" fill="#84BE84" rx="3" ry="3" style="stroke: #038048; stroke-width: 1.0;"/><text fill="#000000" font-family="sans-serif" font-size="11" font-style="italic" lengthAdjust="spacingAndGlyphs" textLength="123" x="157" y="173.4998">CategoryDB getDbData()</text></a><!--class it.matlice.ingsw.model.data.impl.jdbc.types.NodeCategoryImpl--><a target="_parent" xlink:actuate="onRequest" xlink:href="../../../../../../../../it/matlice/ingsw/model/data/impl/jdbc/types/NodeCategoryImpl.html" xlink:show="new" xlink:title="it.matlice.ingsw.model.data.impl.jdbc.types.NodeCategoryImpl" xlink:type="simple"><rect fill="#FEFECE" filter="url(#fso4k01)" height="38.7999" style="stroke: #A80036; stroke-width: 1.5;" width="227" x="6" y="8"/><ellipse cx="21" cy="27.4" fill="#ADD1B2" rx="11" ry="11" style="stroke: #A80036; stroke-width: 1.0;"/><path d="M16,28.5562 C16,31.0562 18.1406,32.8687 21.0625,32.8687 C22.2969,32.8687 23.4688,32.5718 24.2188,32.0562 C24.8281,31.6343 25.1563,31.2125 25.1563,30.8062 C25.1563,30.3375 24.7344,29.9312 24.2344,29.9312 C24,29.9312 23.7813,30.0093 23.5781,30.2125 C23.1406,30.65 23.1406,30.65 22.9688,30.7437 C22.5156,30.9781 21.875,31.1187 21.1094,31.1187 C19.1094,31.1187 17.8281,30.1031 17.8281,28.525 L17.8281,27.4781 C17.8281,25.775 19.0469,24.5718 20.75,24.5718 C21.3281,24.5718 21.9063,24.7125 22.375,24.9625 C22.8438,25.2281 23.0156,25.4156 23.0781,25.775 C23.2031,26.4468 23.4531,26.6968 23.9844,26.6968 C24.2656,26.6968 24.5469,26.5562 24.7344,26.3375 C24.8594,26.1656 24.9063,25.9937 24.9063,25.5562 L24.9063,24.1968 C24.9063,23.775 24.8906,23.6343 24.7656,23.4625 C24.5938,23.2125 24.3125,23.0562 23.9844,23.0562 C23.6719,23.0562 23.4688,23.1656 23.25,23.4312 C22.0781,22.9312 21.6406,22.8218 20.6875,22.8218 C18.0156,22.8218 16,24.8375 16,27.4625 L16,28.5562 Z "/><text fill="#000000" font-family="sans-serif" font-size="14" font-weight="bold" lengthAdjust="spacingAndGlyphs" textLength="127" x="69" y="26.0059">NodeCategoryImpl</text><text fill="#000000" font-family="sans-serif" font-size="10" lengthAdjust="spacingAndGlyphs" textLength="195" x="35" y="39.0899">it.matlice.ingsw.model.data.impl.jdbc.types</text></a><!--class it.matlice.ingsw.model.data.impl.jdbc.types.LeafCategoryImpl--><a target="_parent" xlink:actuate="onRequest" xlink:href="../../../../../../../../it/matlice/ingsw/model/data/impl/jdbc/types/LeafCategoryImpl.html" xlink:show="new" xlink:title="it.matlice.ingsw.model.data.impl.jdbc.types.LeafCategoryImpl" xlink:type="simple"><rect fill="#FEFECE" filter="url(#fso4k01)" height="38.7999" style="stroke: #A80036; stroke-width: 1.5;" width="227" x="268" y="8"/><ellipse cx="283" cy="27.4" fill="#ADD1B2" rx="11" ry="11" style="stroke: #A80036; stroke-width: 1.0;"/><path d="M278,28.5562 C278,31.0562 280.1406,32.8687 283.0625,32.8687 C284.2969,32.8687 285.4688,32.5718 286.2188,32.0562 C286.8281,31.6343 287.1563,31.2125 287.1563,30.8062 C287.1563,30.3375 286.7344,29.9312 286.2344,29.9312 C286,29.9312 285.7813,30.0093 285.5781,30.2125 C285.1406,30.65 285.1406,30.65 284.9688,30.7437 C284.5156,30.9781 283.875,31.1187 283.1094,31.1187 C281.1094,31.1187 279.8281,30.1031 279.8281,28.525 L279.8281,27.4781 C279.8281,25.775 281.0469,24.5718 282.75,24.5718 C283.3281,24.5718 283.9063,24.7125 284.375,24.9625 C284.8438,25.2281 285.0156,25.4156 285.0781,25.775 C285.2031,26.4468 285.4531,26.6968 285.9844,26.6968 C286.2656,26.6968 286.5469,26.5562 286.7344,26.3375 C286.8594,26.1656 286.9063,25.9937 286.9063,25.5562 L286.9063,24.1968 C286.9063,23.775 286.8906,23.6343 286.7656,23.4625 C286.5938,23.2125 286.3125,23.0562 285.9844,23.0562 C285.6719,23.0562 285.4688,23.1656 285.25,23.4312 C284.0781,22.9312 283.6406,22.8218 282.6875,22.8218 C280.0156,22.8218 278,24.8375 278,27.4625 L278,28.5562 Z "/><text fill="#000000" font-family="sans-serif" font-size="14" font-weight="bold" lengthAdjust="spacingAndGlyphs" textLength="121" x="334" y="26.0059">LeafCategoryImpl</text><text fill="#000000" font-family="sans-serif" font-size="10" lengthAdjust="spacingAndGlyphs" textLength="195" x="297" y="39.0899">it.matlice.ingsw.model.data.impl.jdbc.types</text></a><!--class it.matlice.ingsw.model.data.impl.jdbc.db.CategoryDB--><a target="_parent" xlink:actuate="onRequest" xlink:href="../../../../../../../../it/matlice/ingsw/model/data/impl/jdbc/db/CategoryDB.html" xlink:show="new" xlink:title="it.matlice.ingsw.model.data.impl.jdbc.db.CategoryDB" xlink:type="simple"><rect fill="#FFFFFF" filter="url(#fso4k01)" height="55" style="stroke: #A80036; stroke-width: 1.5;" width="214" x="143.5" y="240"/><rect fill="#FFFFFF" height="55" style="stroke: #A80036; stroke-width: 1.5;" width="214" x="143.5" y="240"/><ellipse cx="158.5" cy="267.5" fill="#ADD1B2" rx="11" ry="11" style="stroke: #A80036; stroke-width: 1.0;"/><path d="M153.5,268.6563 C153.5,271.1563 155.6406,272.9688 158.5625,272.9688 C159.7969,272.9688 160.9688,272.6719 161.7188,272.1563 C162.3281,271.7344 162.6563,271.3125 162.6563,270.9063 C162.6563,270.4375 162.2344,270.0313 161.7344,270.0313 C161.5,270.0313 161.2813,270.1094 161.0781,270.3125 C160.6406,270.75 160.6406,270.75 160.4688,270.8438 C160.0156,271.0781 159.375,271.2188 158.6094,271.2188 C156.6094,271.2188 155.3281,270.2031 155.3281,268.625 L155.3281,267.5781 C155.3281,265.875 156.5469,264.6719 158.25,264.6719 C158.8281,264.6719 159.4063,264.8125 159.875,265.0625 C160.3438,265.3281 160.5156,265.5156 160.5781,265.875 C160.7031,266.5469 160.9531,266.7969 161.4844,266.7969 C161.7656,266.7969 162.0469,266.6563 162.2344,266.4375 C162.3594,266.2656 162.4063,266.0938 162.4063,265.6563 L162.4063,264.2969 C162.4063,263.875 162.3906,263.7344 162.2656,263.5625 C162.0938,263.3125 161.8125,263.1563 161.4844,263.1563 C161.1719,263.1563 160.9688,263.2656 160.75,263.5313 C159.5781,263.0313 159.1406,262.9219 158.1875,262.9219 C155.5156,262.9219 153.5,264.9375 153.5,267.5625 L153.5,268.6563 Z "/><text fill="#000000" font-family="sans-serif" font-size="12" font-style="italic" lengthAdjust="spacingAndGlyphs" textLength="98" x="214.5" y="258.2001">«DatabaseTable»</text><text fill="#000000" font-family="sans-serif" font-size="14" font-weight="bold" lengthAdjust="spacingAndGlyphs" textLength="82" x="222.5" y="274.2061">CategoryDB</text><text fill="#000000" font-family="sans-serif" font-size="10" lengthAdjust="spacingAndGlyphs" textLength="182" x="172.5" y="287.29">it.matlice.ingsw.model.data.impl.jdbc.db</text></a><path d="M185,47.18 C185,47.18 185,86.81 185,86.81 " fill="none" style="stroke: #A80036; stroke-width: 1.0; stroke-dasharray: 7.0,7.0;"/><polygon fill="none" points="192,86.81,185,106.81,178,86.81,192,86.81" style="stroke: #A80036; stroke-width: 1.0;"/><path d="M316,47.18 C316,47.18 316,86.81 316,86.81 " fill="none" style="stroke: #A80036; stroke-width: 1.0; stroke-dasharray: 7.0,7.0;"/><polygon fill="none" points="323,86.81,316,106.81,309,86.81,323,86.81" style="stroke: #A80036; stroke-width: 1.0;"/><path d="M250.5,180.03 C250.5,180.03 250.5,234.88 250.5,234.88 " fill="none" style="stroke: #A80036; stroke-width: 1.0; stroke-dasharray: 7.0,7.0;"/><polygon fill="#A80036" points="250.5,239.88,254.5,230.88,250.5,234.88,246.5,230.88,250.5,239.88" style="stroke: #A80036; stroke-width: 1.0;"/></g></svg>