<?xml version="1.0" encoding="UTF-8" standalone="no"?><svg xmlns="http://www.w3.org/2000/svg" xmlns:xlink="http://www.w3.org/1999/xlink" contentScriptType="application/ecmascript" contentStyleType="text/css" height="358px" preserveAspectRatio="none" style="width:1112px;height:358px;" version="1.1" viewBox="0 0 1112 358" width="1112px" zoomAndPan="magnify"><defs><filter height="300%" id="f09zu9n" width="300%" x="-1" y="-1"><feGaussianBlur result="blurOut" stdDeviation="2.0"/><feColorMatrix in="blurOut" result="blurOut2" type="matrix" values="0 0 0 0 0 0 0 0 0 0 0 0 0 0 0 0 0 0 .4 0"/><feOffset dx="4.0" dy="4.0" in="blurOut2" result="blurOut3"/><feBlend in="SourceGraphic" in2="blurOut3" mode="normal"/></filter></defs><g><!--class it.matlice.ingsw.model.data.impl.jdbc.types.ConfiguratorUserImpl--><a target="_parent" xlink:actuate="onRequest" xlink:href="../../../../../../../../it/matlice/ingsw/model/data/impl/jdbc/types/ConfiguratorUserImpl.html" xlink:show="new" xlink:title="it.matlice.ingsw.model.data.impl.jdbc.types.ConfiguratorUserImpl" xlink:type="simple"><rect fill="#FEFECE" filter="url(#f09zu9n)" height="226.3986" style="stroke: #A80036; stroke-width: 1.5;" width="227" x="434.5" y="8"/><ellipse cx="449.5" cy="27.4" fill="#ADD1B2" rx="11" ry="11" style="stroke: #A80036; stroke-width: 1.0;"/><path d="M444.5,28.5562 C444.5,31.0562 446.6406,32.8687 449.5625,32.8687 C450.7969,32.8687 451.9688,32.5718 452.7188,32.0562 C453.3281,31.6343 453.6563,31.2125 453.6563,30.8062 C453.6563,30.3375 453.2344,29.9312 452.7344,29.9312 C452.5,29.9312 452.2813,30.0093 452.0781,30.2125 C451.6406,30.65 451.6406,30.65 451.4688,30.7437 C451.0156,30.9781 450.375,31.1187 449.6094,31.1187 C447.6094,31.1187 446.3281,30.1031 446.3281,28.525 L446.3281,27.4781 C446.3281,25.775 447.5469,24.5718 449.25,24.5718 C449.8281,24.5718 450.4063,24.7125 450.875,24.9625 C451.3438,25.2281 451.5156,25.4156 451.5781,25.775 C451.7031,26.4468 451.9531,26.6968 452.4844,26.6968 C452.7656,26.6968 453.0469,26.5562 453.2344,26.3375 C453.3594,26.1656 453.4063,25.9937 453.4063,25.5562 L453.4063,24.1968 C453.4063,23.775 453.3906,23.6343 453.2656,23.4625 C453.0938,23.2125 452.8125,23.0562 452.4844,23.0562 C452.1719,23.0562 451.9688,23.1656 451.75,23.4312 C450.5781,22.9312 450.1406,22.8218 449.1875,22.8218 C446.5156,22.8218 444.5,24.8375 444.5,27.4625 L444.5,28.5562 Z "/><text fill="#000000" font-family="sans-serif" font-size="14" font-weight="bold" lengthAdjust="spacingAndGlyphs" textLength="147" x="487.5" y="26.0059">ConfiguratorUserImpl</text><text fill="#000000" font-family="sans-serif" font-size="10" lengthAdjust="spacingAndGlyphs" textLength="195" x="463.5" y="39.0899">it.matlice.ingsw.model.data.impl.jdbc.types</text><line style="stroke: #A80036; stroke-width: 1.5;" x1="435.5" x2="660.5" y1="46.7999" y2="46.7999"/><rect fill="none" height="6" style="stroke: #C82930; stroke-width: 1.0;" width="6" x="442.5" y="55.8999"/><text fill="#000000" font-family="sans-serif" font-size="11" lengthAdjust="spacingAndGlyphs" textLength="77" x="454.5" y="61.0188">UserDB dbData</text><line style="stroke: #A80036; stroke-width: 1.5;" x1="435.5" x2="660.5" y1="67.9998" y2="67.9998"/><ellipse cx="445.5" cy="80.0998" fill="#84BE84" rx="3" ry="3" style="stroke: #038048; stroke-width: 1.0;"/><text fill="#000000" font-family="sans-serif" font-size="11" lengthAdjust="spacingAndGlyphs" textLength="176" x="454.5" y="82.2187">ConfiguratorUserImpl(UserDB from)</text><ellipse cx="445.5" cy="93.2997" fill="#84BE84" rx="3" ry="3" style="stroke: #038048; stroke-width: 1.0;"/><text fill="#000000" font-family="sans-serif" font-size="11" lengthAdjust="spacingAndGlyphs" textLength="192" x="454.5" y="95.4186">ConfiguratorUserImpl(String username)</text><ellipse cx="445.5" cy="106.4996" fill="#84BE84" rx="3" ry="3" style="stroke: #038048; stroke-width: 1.0;"/><text fill="#000000" font-family="sans-serif" font-size="11" lengthAdjust="spacingAndGlyphs" textLength="102" x="454.5" y="108.6185">UserDB getDbData()</text><ellipse cx="445.5" cy="119.6995" fill="#84BE84" rx="3" ry="3" style="stroke: #038048; stroke-width: 1.0;"/><text fill="#000000" font-family="sans-serif" font-size="11" lengthAdjust="spacingAndGlyphs" textLength="105" x="454.5" y="121.8184">String getUsername()</text><ellipse cx="445.5" cy="132.8994" fill="#84BE84" rx="3" ry="3" style="stroke: #038048; stroke-width: 1.0;"/><text fill="#000000" font-family="sans-serif" font-size="11" lengthAdjust="spacingAndGlyphs" textLength="121" x="454.5" y="135.0183">Long getLastLoginTime()</text><ellipse cx="445.5" cy="146.0993" fill="#84BE84" rx="3" ry="3" style="stroke: #038048; stroke-width: 1.0;"/><text fill="#000000" font-family="sans-serif" font-size="11" lengthAdjust="spacingAndGlyphs" textLength="160" x="454.5" y="148.2182">void setLastLoginTime(long time)</text><ellipse cx="445.5" cy="159.2992" fill="#84BE84" rx="3" ry="3" style="stroke: #038048; stroke-width: 1.0;"/><text fill="#000000" font-family="sans-serif" font-size="11" lengthAdjust="spacingAndGlyphs" textLength="177" x="454.5" y="161.4182">List&lt;AuthMethod&gt; getAuthMethods()</text><ellipse cx="445.5" cy="172.4991" fill="#84BE84" rx="3" ry="3" style="stroke: #038048; stroke-width: 1.0;"/><text fill="#000000" font-family="sans-serif" font-size="11" lengthAdjust="spacingAndGlyphs" textLength="122" x="454.5" y="174.6181">byte getPasswordHash()</text><ellipse cx="445.5" cy="185.699" fill="#84BE84" rx="3" ry="3" style="stroke: #038048; stroke-width: 1.0;"/><text fill="#000000" font-family="sans-serif" font-size="11" lengthAdjust="spacingAndGlyphs" textLength="114" x="454.5" y="187.818">byte getPasswordSalt()</text><ellipse cx="445.5" cy="198.8989" fill="#84BE84" rx="3" ry="3" style="stroke: #038048; stroke-width: 1.0;"/><text fill="#000000" font-family="sans-serif" font-size="11" lengthAdjust="spacingAndGlyphs" textLength="167" x="454.5" y="201.0179">void setPassword(byte password)</text><ellipse cx="445.5" cy="212.0988" fill="#84BE84" rx="3" ry="3" style="stroke: #038048; stroke-width: 1.0;"/><text fill="#000000" font-family="sans-serif" font-size="11" lengthAdjust="spacingAndGlyphs" textLength="105" x="454.5" y="214.2178">void setSalt(byte salt)</text><ellipse cx="445.5" cy="225.2987" fill="#84BE84" rx="3" ry="3" style="stroke: #038048; stroke-width: 1.0;"/><text fill="#000000" font-family="sans-serif" font-size="11" lengthAdjust="spacingAndGlyphs" textLength="130" x="454.5" y="227.4177">boolean equals(Object obj)</text></a><!--class it.matlice.ingsw.model.data.impl.jdbc.db.UserDB--><a target="_parent" xlink:actuate="onRequest" xlink:href="../../../../../../../../it/matlice/ingsw/model/data/impl/jdbc/db/UserDB.html" xlink:show="new" xlink:title="it.matlice.ingsw.model.data.impl.jdbc.db.UserDB" xlink:type="simple"><rect fill="#FFFFFF" filter="url(#f09zu9n)" height="55" style="stroke: #A80036; stroke-width: 1.5;" width="214" x="6" y="294"/><rect fill="#FFFFFF" height="55" style="stroke: #A80036; stroke-width: 1.5;" width="214" x="6" y="294"/><ellipse cx="21" cy="321.5" fill="#ADD1B2" rx="11" ry="11" style="stroke: #A80036; stroke-width: 1.0;"/><path d="M16,322.6563 C16,325.1563 18.1406,326.9688 21.0625,326.9688 C22.2969,326.9688 23.4688,326.6719 24.2188,326.1563 C24.8281,325.7344 25.1563,325.3125 25.1563,324.9063 C25.1563,324.4375 24.7344,324.0313 24.2344,324.0313 C24,324.0313 23.7813,324.1094 23.5781,324.3125 C23.1406,324.75 23.1406,324.75 22.9688,324.8438 C22.5156,325.0781 21.875,325.2188 21.1094,325.2188 C19.1094,325.2188 17.8281,324.2031 17.8281,322.625 L17.8281,321.5781 C17.8281,319.875 19.0469,318.6719 20.75,318.6719 C21.3281,318.6719 21.9063,318.8125 22.375,319.0625 C22.8438,319.3281 23.0156,319.5156 23.0781,319.875 C23.2031,320.5469 23.4531,320.7969 23.9844,320.7969 C24.2656,320.7969 24.5469,320.6563 24.7344,320.4375 C24.8594,320.2656 24.9063,320.0938 24.9063,319.6563 L24.9063,318.2969 C24.9063,317.875 24.8906,317.7344 24.7656,317.5625 C24.5938,317.3125 24.3125,317.1563 23.9844,317.1563 C23.6719,317.1563 23.4688,317.2656 23.25,317.5313 C22.0781,317.0313 21.6406,316.9219 20.6875,316.9219 C18.0156,316.9219 16,318.9375 16,321.5625 L16,322.6563 Z "/><text fill="#000000" font-family="sans-serif" font-size="12" font-style="italic" lengthAdjust="spacingAndGlyphs" textLength="98" x="77" y="312.2001">«DatabaseTable»</text><text fill="#000000" font-family="sans-serif" font-size="14" font-weight="bold" lengthAdjust="spacingAndGlyphs" textLength="51" x="100.5" y="328.2061">UserDB</text><text fill="#000000" font-family="sans-serif" font-size="10" lengthAdjust="spacingAndGlyphs" textLength="182" x="35" y="341.29">it.matlice.ingsw.model.data.impl.jdbc.db</text></a><!--class it.matlice.ingsw.model.data.ConfiguratorUser--><a target="_parent" xlink:actuate="onRequest" xlink:href="../../../../../../../../it/matlice/ingsw/model/data/ConfiguratorUser.html" xlink:show="new" xlink:title="it.matlice.ingsw.model.data.ConfiguratorUser" xlink:type="simple"><rect fill="#FFFFFF" filter="url(#f09zu9n)" height="38.7999" style="stroke: #A80036; stroke-width: 1.5;" width="156" x="255" y="302"/><rect fill="#FFFFFF" height="38.7999" style="stroke: #A80036; stroke-width: 1.5;" width="156" x="255" y="302"/><ellipse cx="270" cy="321.4" fill="#ADD1B2" rx="11" ry="11" style="stroke: #A80036; stroke-width: 1.0;"/><path d="M265,322.5562 C265,325.0562 267.1406,326.8687 270.0625,326.8687 C271.2969,326.8687 272.4688,326.5718 273.2188,326.0562 C273.8281,325.6343 274.1563,325.2125 274.1563,324.8062 C274.1563,324.3375 273.7344,323.9312 273.2344,323.9312 C273,323.9312 272.7813,324.0093 272.5781,324.2125 C272.1406,324.65 272.1406,324.65 271.9688,324.7437 C271.5156,324.9781 270.875,325.1187 270.1094,325.1187 C268.1094,325.1187 266.8281,324.1031 266.8281,322.525 L266.8281,321.4781 C266.8281,319.775 268.0469,318.5718 269.75,318.5718 C270.3281,318.5718 270.9063,318.7125 271.375,318.9625 C271.8438,319.2281 272.0156,319.4156 272.0781,319.775 C272.2031,320.4468 272.4531,320.6968 272.9844,320.6968 C273.2656,320.6968 273.5469,320.5562 273.7344,320.3375 C273.8594,320.1656 273.9063,319.9937 273.9063,319.5562 L273.9063,318.1968 C273.9063,317.775 273.8906,317.6343 273.7656,317.4625 C273.5938,317.2125 273.3125,317.0562 272.9844,317.0562 C272.6719,317.0562 272.4688,317.1656 272.25,317.4312 C271.0781,316.9312 270.6406,316.8218 269.6875,316.8218 C267.0156,316.8218 265,318.8375 265,321.4625 L265,322.5562 Z "/><text fill="#000000" font-family="sans-serif" font-size="14" font-weight="bold" lengthAdjust="spacingAndGlyphs" textLength="118" x="287" y="320.0059">ConfiguratorUser</text><text fill="#000000" font-family="sans-serif" font-size="10" lengthAdjust="spacingAndGlyphs" textLength="124" x="284" y="333.0899">it.matlice.ingsw.model.data</text></a><!--class it.matlice.ingsw.model.auth.password.PasswordAuthenticable--><a target="_parent" xlink:actuate="onRequest" xlink:href="../../../../../../../../it/matlice/ingsw/model/auth/password/PasswordAuthenticable.html" xlink:show="new" xlink:title="it.matlice.ingsw.model.auth.password.PasswordAuthenticable" xlink:type="simple"><rect fill="#FFFFFF" filter="url(#f09zu9n)" height="42.3999" style="stroke: #A80036; stroke-width: 1.5;" width="203" x="446.5" y="300.5"/><rect fill="#FFFFFF" height="42.3999" style="stroke: #A80036; stroke-width: 1.5;" width="203" x="446.5" y="300.5"/><ellipse cx="461.5" cy="321.7" fill="#B4A7E5" rx="11" ry="11" style="stroke: #A80036; stroke-width: 1.0;"/><path d="M462.5156,318.8562 L464.1719,318.8562 C464.5625,318.8562 464.7656,318.825 464.9219,318.7468 C465.1875,318.575 465.3594,318.2781 465.3594,317.9812 C465.3594,317.7 465.2188,317.45 464.9844,317.2781 C464.7969,317.1531 464.6406,317.1062 464.1719,317.1062 L459.0313,317.1062 C458.5938,317.1062 458.4531,317.1218 458.2813,317.2312 C458.0156,317.4031 457.8438,317.6843 457.8438,317.9812 C457.8438,318.2625 457.9844,318.5437 458.2188,318.7 C458.4063,318.825 458.5938,318.8562 459.0313,318.8562 L460.6875,318.8562 L460.6875,324.95 L459.0313,324.95 C458.5938,324.95 458.4531,324.9656 458.2813,325.075 C458.0156,325.2312 457.8438,325.5281 457.8438,325.8093 C457.8438,326.4187 458.25,326.7 459.0313,326.7 L464.1719,326.7 C464.9531,326.7 465.3594,326.4187 465.3594,325.8093 C465.3594,325.5437 465.2188,325.2937 464.9844,325.1218 C464.7969,324.9812 464.625,324.95 464.1719,324.95 L462.5156,324.95 L462.5156,318.8562 Z "/><text fill="#000000" font-family="sans-serif" font-size="14" font-style="italic" font-weight="bold" lengthAdjust="spacingAndGlyphs" textLength="163" x="479.5" y="320.8999">PasswordAuthenticable</text><text fill="#000000" font-family="sans-serif" font-size="10" font-style="italic" lengthAdjust="spacingAndGlyphs" textLength="171" x="475.5" y="335.3999">it.matlice.ingsw.model.auth.password</text></a><!--class it.matlice.ingsw.model.data.impl.jdbc.types.UserImpl--><a target="_parent" xlink:actuate="onRequest" xlink:href="../../../../../../../../it/matlice/ingsw/model/data/impl/jdbc/types/UserImpl.html" xlink:show="new" xlink:title="it.matlice.ingsw.model.data.impl.jdbc.types.UserImpl" xlink:type="simple"><rect fill="#FEFECE" filter="url(#f09zu9n)" height="42.3999" style="stroke: #A80036; stroke-width: 1.5;" width="227" x="684.5" y="300.5"/><ellipse cx="699.5" cy="321.7" fill="#B4A7E5" rx="11" ry="11" style="stroke: #A80036; stroke-width: 1.0;"/><path d="M700.5156,318.8562 L702.1719,318.8562 C702.5625,318.8562 702.7656,318.825 702.9219,318.7468 C703.1875,318.575 703.3594,318.2781 703.3594,317.9812 C703.3594,317.7 703.2188,317.45 702.9844,317.2781 C702.7969,317.1531 702.6406,317.1062 702.1719,317.1062 L697.0313,317.1062 C696.5938,317.1062 696.4531,317.1218 696.2813,317.2312 C696.0156,317.4031 695.8438,317.6843 695.8438,317.9812 C695.8438,318.2625 695.9844,318.5437 696.2188,318.7 C696.4063,318.825 696.5938,318.8562 697.0313,318.8562 L698.6875,318.8562 L698.6875,324.95 L697.0313,324.95 C696.5938,324.95 696.4531,324.9656 696.2813,325.075 C696.0156,325.2312 695.8438,325.5281 695.8438,325.8093 C695.8438,326.4187 696.25,326.7 697.0313,326.7 L702.1719,326.7 C702.9531,326.7 703.3594,326.4187 703.3594,325.8093 C703.3594,325.5437 703.2188,325.2937 702.9844,325.1218 C702.7969,324.9812 702.625,324.95 702.1719,324.95 L700.5156,324.95 L700.5156,318.8562 Z "/><text fill="#000000" font-family="sans-serif" font-size="14" font-style="italic" font-weight="bold" lengthAdjust="spacingAndGlyphs" textLength="60" x="781" y="320.8999">UserImpl</text><text fill="#000000" font-family="sans-serif" font-size="10" font-style="italic" lengthAdjust="spacingAndGlyphs" textLength="195" x="713.5" y="335.3999">it.matlice.ingsw.model.data.impl.jdbc.types</text></a><!--class it.matlice.ingsw.model.auth.AuthMethod--><a target="_parent" xlink:actuate="onRequest" xlink:href="../../../../../../../../it/matlice/ingsw/model/auth/AuthMethod.html" xlink:show="new" xlink:title="it.matlice.ingsw.model.auth.AuthMethod" xlink:type="simple"><rect fill="#FFFFFF" filter="url(#f09zu9n)" height="42.3999" style="stroke: #A80036; stroke-width: 1.5;" width="156" x="947" y="300.5"/><rect fill="#FFFFFF" height="42.3999" style="stroke: #A80036; stroke-width: 1.5;" width="156" x="947" y="300.5"/><ellipse cx="962" cy="321.7" fill="#B4A7E5" rx="11" ry="11" style="stroke: #A80036; stroke-width: 1.0;"/><path d="M963.0156,318.8562 L964.6719,318.8562 C965.0625,318.8562 965.2656,318.825 965.4219,318.7468 C965.6875,318.575 965.8594,318.2781 965.8594,317.9812 C965.8594,317.7 965.7188,317.45 965.4844,317.2781 C965.2969,317.1531 965.1406,317.1062 964.6719,317.1062 L959.5313,317.1062 C959.0938,317.1062 958.9531,317.1218 958.7813,317.2312 C958.5156,317.4031 958.3438,317.6843 958.3438,317.9812 C958.3438,318.2625 958.4844,318.5437 958.7188,318.7 C958.9063,318.825 959.0938,318.8562 959.5313,318.8562 L961.1875,318.8562 L961.1875,324.95 L959.5313,324.95 C959.0938,324.95 958.9531,324.9656 958.7813,325.075 C958.5156,325.2312 958.3438,325.5281 958.3438,325.8093 C958.3438,326.4187 958.75,326.7 959.5313,326.7 L964.6719,326.7 C965.4531,326.7 965.8594,326.4187 965.8594,325.8093 C965.8594,325.5437 965.7188,325.2937 965.4844,325.1218 C965.2969,324.9812 965.125,324.95 964.6719,324.95 L963.0156,324.95 L963.0156,318.8562 Z "/><text fill="#000000" font-family="sans-serif" font-size="14" font-style="italic" font-weight="bold" lengthAdjust="spacingAndGlyphs" textLength="85" x="995.5" y="320.8999">AuthMethod</text><text fill="#000000" font-family="sans-serif" font-size="10" font-style="italic" lengthAdjust="spacingAndGlyphs" textLength="124" x="976" y="335.3999">it.matlice.ingsw.model.auth</text></a><path d="M434.28,121 C305.39,121 113,121 113,121 C113,121 113,288.62 113,288.62 " fill="none" style="stroke: #A80036; stroke-width: 1.0;"/><polygon fill="#A80036" points="113,293.62,117,284.62,113,288.62,109,284.62,113,293.62" style="stroke: #A80036; stroke-width: 1.0;"/><text fill="#000000" font-family="sans-serif" font-size="13" lengthAdjust="spacingAndGlyphs" textLength="41" x="67.2594" y="282.5848">dbData</text><path d="M440.5,234.13 C440.5,279.84 440.5,322 440.5,322 C440.5,322 431.13,322 431.13,322 " fill="none" style="stroke: #A80036; stroke-width: 1.0;"/><polygon fill="none" points="431.13,329,411.13,322,431.13,315,431.13,329" style="stroke: #A80036; stroke-width: 1.0;"/><path d="M548,234.14 C548,234.14 548,280.31 548,280.31 " fill="none" style="stroke: #A80036; stroke-width: 1.0; stroke-dasharray: 7.0,7.0;"/><polygon fill="none" points="555,280.31,548,300.31,541,280.31,555,280.31" style="stroke: #A80036; stroke-width: 1.0;"/><path d="M655.5,234.13 C655.5,279.84 655.5,322 655.5,322 C655.5,322 664.34,322 664.34,322 " fill="none" style="stroke: #A80036; stroke-width: 1.0; stroke-dasharray: 7.0,7.0;"/><polygon fill="none" points="664.34,315,684.34,322,664.34,329,664.34,315" style="stroke: #A80036; stroke-width: 1.0;"/><path d="M661.65,121 C802.73,121 1025,121 1025,121 C1025,121 1025,295.42 1025,295.42 " fill="none" style="stroke: #A80036; stroke-width: 1.0; stroke-dasharray: 7.0,7.0;"/><polygon fill="#A80036" points="1025,300.42,1029,291.42,1025,295.42,1021,291.42,1025,300.42" style="stroke: #A80036; stroke-width: 1.0;"/></g></svg>