<?xml version="1.0" encoding="UTF-8" standalone="no"?><svg xmlns="http://www.w3.org/2000/svg" xmlns:xlink="http://www.w3.org/1999/xlink" contentScriptType="application/ecmascript" contentStyleType="text/css" height="306px" preserveAspectRatio="none" style="width:874px;height:306px;" version="1.1" viewBox="0 0 874 306" width="874px" zoomAndPan="magnify"><defs><filter height="300%" id="f9d6hew" width="300%" x="-1" y="-1"><feGaussianBlur result="blurOut" stdDeviation="2.0"/><feColorMatrix in="blurOut" result="blurOut2" type="matrix" values="0 0 0 0 0 0 0 0 0 0 0 0 0 0 0 0 0 0 .4 0"/><feOffset dx="4.0" dy="4.0" in="blurOut2" result="blurOut3"/><feBlend in="SourceGraphic" in2="blurOut3" mode="normal"/></filter></defs><g><!--class it.matlice.ingsw.model.data.impl.jdbc.types.LeafCategoryImpl--><a target="_parent" xlink:actuate="onRequest" xlink:href="../../../../../../../../it/matlice/ingsw/model/data/impl/jdbc/types/LeafCategoryImpl.html" xlink:show="new" xlink:title="it.matlice.ingsw.model.data.impl.jdbc.types.LeafCategoryImpl" xlink:type="simple"><rect fill="#FEFECE" filter="url(#f9d6hew)" height="173.599" style="stroke: #A80036; stroke-width: 1.5;" width="262" x="315" y="8"/><ellipse cx="345.75" cy="27.4" fill="#ADD1B2" rx="11" ry="11" style="stroke: #A80036; stroke-width: 1.0;"/><path d="M340.75,28.5562 C340.75,31.0562 342.8906,32.8687 345.8125,32.8687 C347.0469,32.8687 348.2188,32.5718 348.9688,32.0562 C349.5781,31.6343 349.9063,31.2125 349.9063,30.8062 C349.9063,30.3375 349.4844,29.9312 348.9844,29.9312 C348.75,29.9312 348.5313,30.0093 348.3281,30.2125 C347.8906,30.65 347.8906,30.65 347.7188,30.7437 C347.2656,30.9781 346.625,31.1187 345.8594,31.1187 C343.8594,31.1187 342.5781,30.1031 342.5781,28.525 L342.5781,27.4781 C342.5781,25.775 343.7969,24.5718 345.5,24.5718 C346.0781,24.5718 346.6563,24.7125 347.125,24.9625 C347.5938,25.2281 347.7656,25.4156 347.8281,25.775 C347.9531,26.4468 348.2031,26.6968 348.7344,26.6968 C349.0156,26.6968 349.2969,26.5562 349.4844,26.3375 C349.6094,26.1656 349.6563,25.9937 349.6563,25.5562 L349.6563,24.1968 C349.6563,23.775 349.6406,23.6343 349.5156,23.4625 C349.3438,23.2125 349.0625,23.0562 348.7344,23.0562 C348.4219,23.0562 348.2188,23.1656 348,23.4312 C346.8281,22.9312 346.3906,22.8218 345.4375,22.8218 C342.7656,22.8218 340.75,24.8375 340.75,27.4625 L340.75,28.5562 Z "/><text fill="#000000" font-family="sans-serif" font-size="14" font-weight="bold" lengthAdjust="spacingAndGlyphs" textLength="121" x="400.25" y="26.0059">LeafCategoryImpl</text><text fill="#000000" font-family="sans-serif" font-size="10" lengthAdjust="spacingAndGlyphs" textLength="195" x="363.25" y="39.0899">it.matlice.ingsw.model.data.impl.jdbc.types</text><line style="stroke: #A80036; stroke-width: 1.5;" x1="316" x2="576" y1="46.7999" y2="46.7999"/><rect fill="none" height="6" style="stroke: #C82930; stroke-width: 1.0;" width="6" x="323" y="55.8999"/><text fill="#000000" font-family="sans-serif" font-size="11" lengthAdjust="spacingAndGlyphs" textLength="98" x="335" y="61.0188">CategoryDB dbData</text><line style="stroke: #A80036; stroke-width: 1.5;" x1="316" x2="576" y1="67.9998" y2="67.9998"/><ellipse cx="326" cy="80.0998" fill="#84BE84" rx="3" ry="3" style="stroke: #038048; stroke-width: 1.0;"/><text fill="#000000" font-family="sans-serif" font-size="11" lengthAdjust="spacingAndGlyphs" textLength="179" x="335" y="82.2187">LeafCategoryImpl(CategoryDB from)</text><ellipse cx="326" cy="93.2997" fill="#84BE84" rx="3" ry="3" style="stroke: #038048; stroke-width: 1.0;"/><text fill="#000000" font-family="sans-serif" font-size="11" lengthAdjust="spacingAndGlyphs" textLength="123" x="335" y="95.4186">CategoryDB getDbData()</text><ellipse cx="326" cy="106.4996" fill="#84BE84" rx="3" ry="3" style="stroke: #038048; stroke-width: 1.0;"/><text fill="#000000" font-family="sans-serif" font-size="11" lengthAdjust="spacingAndGlyphs" textLength="83" x="335" y="108.6185">String getName()</text><ellipse cx="326" cy="119.6995" fill="#84BE84" rx="3" ry="3" style="stroke: #038048; stroke-width: 1.0;"/><text fill="#000000" font-family="sans-serif" font-size="11" lengthAdjust="spacingAndGlyphs" textLength="109" x="335" y="121.8184">String getDescription()</text><ellipse cx="326" cy="132.8994" fill="#84BE84" rx="3" ry="3" style="stroke: #038048; stroke-width: 1.0;"/><text fill="#000000" font-family="sans-serif" font-size="11" lengthAdjust="spacingAndGlyphs" textLength="172" x="335" y="135.0183">List&lt;LeafCategory&gt; getChildLeafs()</text><ellipse cx="326" cy="146.0993" fill="#84BE84" rx="3" ry="3" style="stroke: #038048; stroke-width: 1.0;"/><text fill="#000000" font-family="sans-serif" font-size="11" lengthAdjust="spacingAndGlyphs" textLength="236" x="335" y="148.2182">boolean isValidChildCategoryName(String name)</text><ellipse cx="326" cy="159.2992" fill="#84BE84" rx="3" ry="3" style="stroke: #038048; stroke-width: 1.0;"/><text fill="#000000" font-family="sans-serif" font-size="11" lengthAdjust="spacingAndGlyphs" textLength="158" x="335" y="161.4182">NodeCategory convertToNode()</text><ellipse cx="326" cy="172.4991" fill="#84BE84" rx="3" ry="3" style="stroke: #038048; stroke-width: 1.0;"/><text fill="#000000" font-family="sans-serif" font-size="11" lengthAdjust="spacingAndGlyphs" textLength="130" x="335" y="174.6181">boolean equals(Object obj)</text></a><!--class it.matlice.ingsw.model.data.impl.jdbc.db.CategoryDB--><a target="_parent" xlink:actuate="onRequest" xlink:href="../../../../../../../../it/matlice/ingsw/model/data/impl/jdbc/db/CategoryDB.html" xlink:show="new" xlink:title="it.matlice.ingsw.model.data.impl.jdbc.db.CategoryDB" xlink:type="simple"><rect fill="#FFFFFF" filter="url(#f9d6hew)" height="55" style="stroke: #A80036; stroke-width: 1.5;" width="214" x="6" y="242"/><rect fill="#FFFFFF" height="55" style="stroke: #A80036; stroke-width: 1.5;" width="214" x="6" y="242"/><ellipse cx="21" cy="269.5" fill="#ADD1B2" rx="11" ry="11" style="stroke: #A80036; stroke-width: 1.0;"/><path d="M16,270.6563 C16,273.1563 18.1406,274.9688 21.0625,274.9688 C22.2969,274.9688 23.4688,274.6719 24.2188,274.1563 C24.8281,273.7344 25.1563,273.3125 25.1563,272.9063 C25.1563,272.4375 24.7344,272.0313 24.2344,272.0313 C24,272.0313 23.7813,272.1094 23.5781,272.3125 C23.1406,272.75 23.1406,272.75 22.9688,272.8438 C22.5156,273.0781 21.875,273.2188 21.1094,273.2188 C19.1094,273.2188 17.8281,272.2031 17.8281,270.625 L17.8281,269.5781 C17.8281,267.875 19.0469,266.6719 20.75,266.6719 C21.3281,266.6719 21.9063,266.8125 22.375,267.0625 C22.8438,267.3281 23.0156,267.5156 23.0781,267.875 C23.2031,268.5469 23.4531,268.7969 23.9844,268.7969 C24.2656,268.7969 24.5469,268.6563 24.7344,268.4375 C24.8594,268.2656 24.9063,268.0938 24.9063,267.6563 L24.9063,266.2969 C24.9063,265.875 24.8906,265.7344 24.7656,265.5625 C24.5938,265.3125 24.3125,265.1563 23.9844,265.1563 C23.6719,265.1563 23.4688,265.2656 23.25,265.5313 C22.0781,265.0313 21.6406,264.9219 20.6875,264.9219 C18.0156,264.9219 16,266.9375 16,269.5625 L16,270.6563 Z "/><text fill="#000000" font-family="sans-serif" font-size="12" font-style="italic" lengthAdjust="spacingAndGlyphs" textLength="98" x="77" y="260.2001">«DatabaseTable»</text><text fill="#000000" font-family="sans-serif" font-size="14" font-weight="bold" lengthAdjust="spacingAndGlyphs" textLength="82" x="85" y="276.2061">CategoryDB</text><text fill="#000000" font-family="sans-serif" font-size="10" lengthAdjust="spacingAndGlyphs" textLength="182" x="35" y="289.29">it.matlice.ingsw.model.data.impl.jdbc.db</text></a><!--class it.matlice.ingsw.model.data.LeafCategory--><a target="_parent" xlink:actuate="onRequest" xlink:href="../../../../../../../../it/matlice/ingsw/model/data/LeafCategory.html" xlink:show="new" xlink:title="it.matlice.ingsw.model.data.LeafCategory" xlink:type="simple"><rect fill="#FFFFFF" filter="url(#f9d6hew)" height="38.7999" style="stroke: #A80036; stroke-width: 1.5;" width="156" x="255" y="250"/><rect fill="#FFFFFF" height="38.7999" style="stroke: #A80036; stroke-width: 1.5;" width="156" x="255" y="250"/><ellipse cx="270" cy="269.4" fill="#ADD1B2" rx="11" ry="11" style="stroke: #A80036; stroke-width: 1.0;"/><path d="M265,270.5562 C265,273.0562 267.1406,274.8687 270.0625,274.8687 C271.2969,274.8687 272.4688,274.5718 273.2188,274.0562 C273.8281,273.6343 274.1563,273.2125 274.1563,272.8062 C274.1563,272.3375 273.7344,271.9312 273.2344,271.9312 C273,271.9312 272.7813,272.0093 272.5781,272.2125 C272.1406,272.65 272.1406,272.65 271.9688,272.7437 C271.5156,272.9781 270.875,273.1187 270.1094,273.1187 C268.1094,273.1187 266.8281,272.1031 266.8281,270.525 L266.8281,269.4781 C266.8281,267.775 268.0469,266.5718 269.75,266.5718 C270.3281,266.5718 270.9063,266.7125 271.375,266.9625 C271.8438,267.2281 272.0156,267.4156 272.0781,267.775 C272.2031,268.4468 272.4531,268.6968 272.9844,268.6968 C273.2656,268.6968 273.5469,268.5562 273.7344,268.3375 C273.8594,268.1656 273.9063,267.9937 273.9063,267.5562 L273.9063,266.1968 C273.9063,265.775 273.8906,265.6343 273.7656,265.4625 C273.5938,265.2125 273.3125,265.0562 272.9844,265.0562 C272.6719,265.0562 272.4688,265.1656 272.25,265.4312 C271.0781,264.9312 270.6406,264.8218 269.6875,264.8218 C267.0156,264.8218 265,266.8375 265,269.4625 L265,270.5562 Z "/><text fill="#000000" font-family="sans-serif" font-size="14" font-weight="bold" lengthAdjust="spacingAndGlyphs" textLength="92" x="300" y="268.0059">LeafCategory</text><text fill="#000000" font-family="sans-serif" font-size="10" lengthAdjust="spacingAndGlyphs" textLength="124" x="284" y="281.0899">it.matlice.ingsw.model.data</text></a><!--class it.matlice.ingsw.model.data.impl.jdbc.types.CategoryImpl--><a target="_parent" xlink:actuate="onRequest" xlink:href="../../../../../../../../it/matlice/ingsw/model/data/impl/jdbc/types/CategoryImpl.html" xlink:show="new" xlink:title="it.matlice.ingsw.model.data.impl.jdbc.types.CategoryImpl" xlink:type="simple"><rect fill="#FEFECE" filter="url(#f9d6hew)" height="42.3999" style="stroke: #A80036; stroke-width: 1.5;" width="227" x="446.5" y="248.5"/><ellipse cx="461.5" cy="269.7" fill="#B4A7E5" rx="11" ry="11" style="stroke: #A80036; stroke-width: 1.0;"/><path d="M462.5156,266.8562 L464.1719,266.8562 C464.5625,266.8562 464.7656,266.825 464.9219,266.7468 C465.1875,266.575 465.3594,266.2781 465.3594,265.9812 C465.3594,265.7 465.2188,265.45 464.9844,265.2781 C464.7969,265.1531 464.6406,265.1062 464.1719,265.1062 L459.0313,265.1062 C458.5938,265.1062 458.4531,265.1218 458.2813,265.2312 C458.0156,265.4031 457.8438,265.6843 457.8438,265.9812 C457.8438,266.2625 457.9844,266.5437 458.2188,266.7 C458.4063,266.825 458.5938,266.8562 459.0313,266.8562 L460.6875,266.8562 L460.6875,272.95 L459.0313,272.95 C458.5938,272.95 458.4531,272.9656 458.2813,273.075 C458.0156,273.2312 457.8438,273.5281 457.8438,273.8093 C457.8438,274.4187 458.25,274.7 459.0313,274.7 L464.1719,274.7 C464.9531,274.7 465.3594,274.4187 465.3594,273.8093 C465.3594,273.5437 465.2188,273.2937 464.9844,273.1218 C464.7969,272.9812 464.625,272.95 464.1719,272.95 L462.5156,272.95 L462.5156,266.8562 Z "/><text fill="#000000" font-family="sans-serif" font-size="14" font-style="italic" font-weight="bold" lengthAdjust="spacingAndGlyphs" textLength="91" x="527.5" y="268.8999">CategoryImpl</text><text fill="#000000" font-family="sans-serif" font-size="10" font-style="italic" lengthAdjust="spacingAndGlyphs" textLength="195" x="475.5" y="283.3999">it.matlice.ingsw.model.data.impl.jdbc.types</text></a><!--class it.matlice.ingsw.model.data.NodeCategory--><a target="_parent" xlink:actuate="onRequest" xlink:href="../../../../../../../../it/matlice/ingsw/model/data/NodeCategory.html" xlink:show="new" xlink:title="it.matlice.ingsw.model.data.NodeCategory" xlink:type="simple"><rect fill="#FFFFFF" filter="url(#f9d6hew)" height="38.7999" style="stroke: #A80036; stroke-width: 1.5;" width="156" x="709" y="250"/><rect fill="#FFFFFF" height="38.7999" style="stroke: #A80036; stroke-width: 1.5;" width="156" x="709" y="250"/><ellipse cx="724" cy="269.4" fill="#ADD1B2" rx="11" ry="11" style="stroke: #A80036; stroke-width: 1.0;"/><path d="M719,270.5562 C719,273.0562 721.1406,274.8687 724.0625,274.8687 C725.2969,274.8687 726.4688,274.5718 727.2188,274.0562 C727.8281,273.6343 728.1563,273.2125 728.1563,272.8062 C728.1563,272.3375 727.7344,271.9312 727.2344,271.9312 C727,271.9312 726.7813,272.0093 726.5781,272.2125 C726.1406,272.65 726.1406,272.65 725.9688,272.7437 C725.5156,272.9781 724.875,273.1187 724.1094,273.1187 C722.1094,273.1187 720.8281,272.1031 720.8281,270.525 L720.8281,269.4781 C720.8281,267.775 722.0469,266.5718 723.75,266.5718 C724.3281,266.5718 724.9063,266.7125 725.375,266.9625 C725.8438,267.2281 726.0156,267.4156 726.0781,267.775 C726.2031,268.4468 726.4531,268.6968 726.9844,268.6968 C727.2656,268.6968 727.5469,268.5562 727.7344,268.3375 C727.8594,268.1656 727.9063,267.9937 727.9063,267.5562 L727.9063,266.1968 C727.9063,265.775 727.8906,265.6343 727.7656,265.4625 C727.5938,265.2125 727.3125,265.0562 726.9844,265.0562 C726.6719,265.0562 726.4688,265.1656 726.25,265.4312 C725.0781,264.9312 724.6406,264.8218 723.6875,264.8218 C721.0156,264.8218 719,266.8375 719,269.4625 L719,270.5562 Z "/><text fill="#000000" font-family="sans-serif" font-size="14" font-weight="bold" lengthAdjust="spacingAndGlyphs" textLength="98" x="751" y="268.0059">NodeCategory</text><text fill="#000000" font-family="sans-serif" font-size="10" lengthAdjust="spacingAndGlyphs" textLength="124" x="738" y="281.0899">it.matlice.ingsw.model.data</text></a><path d="M314.87,95 C221.68,95 113,95 113,95 C113,95 113,236.85 113,236.85 " fill="none" style="stroke: #A80036; stroke-width: 1.0;"/><polygon fill="#A80036" points="113,241.85,117,232.85,113,236.85,109,232.85,113,241.85" style="stroke: #A80036; stroke-width: 1.0;"/><text fill="#000000" font-family="sans-serif" font-size="13" lengthAdjust="spacingAndGlyphs" textLength="41" x="67.0031" y="230.4323">dbData</text><path d="M363,182.25 C363,182.25 363,229.82 363,229.82 " fill="none" style="stroke: #A80036; stroke-width: 1.0;"/><polygon fill="none" points="370,229.82,363,249.82,356,229.82,370,229.82" style="stroke: #A80036; stroke-width: 1.0;"/><path d="M511.75,182.25 C511.75,182.25 511.75,228.45 511.75,228.45 " fill="none" style="stroke: #A80036; stroke-width: 1.0; stroke-dasharray: 7.0,7.0;"/><polygon fill="none" points="518.75,228.45,511.75,248.45,504.75,228.45,518.75,228.45" style="stroke: #A80036; stroke-width: 1.0;"/><path d="M577.35,95 C673.41,95 787,95 787,95 C787,95 787,244.82 787,244.82 " fill="none" style="stroke: #A80036; stroke-width: 1.0; stroke-dasharray: 7.0,7.0;"/><polygon fill="#A80036" points="787,249.82,791,240.82,787,244.82,783,240.82,787,249.82" style="stroke: #A80036; stroke-width: 1.0;"/></g></svg>