<?xml version="1.0" encoding="UTF-8" standalone="no"?><svg xmlns="http://www.w3.org/2000/svg" xmlns:xlink="http://www.w3.org/1999/xlink" contentScriptType="application/ecmascript" contentStyleType="text/css" height="292px" preserveAspectRatio="none" style="width:611px;height:292px;" version="1.1" viewBox="0 0 611 292" width="611px" zoomAndPan="magnify"><defs><filter height="300%" id="fgln14j" width="300%" x="-1" y="-1"><feGaussianBlur result="blurOut" stdDeviation="2.0"/><feColorMatrix in="blurOut" result="blurOut2" type="matrix" values="0 0 0 0 0 0 0 0 0 0 0 0 0 0 0 0 0 0 .4 0"/><feOffset dx="4.0" dy="4.0" in="blurOut2" result="blurOut3"/><feBlend in="SourceGraphic" in2="blurOut3" mode="normal"/></filter></defs><g><!--class it.matlice.ingsw.model.data.impl.jdbc.types.MessageImpl--><a target="_parent" xlink:actuate="onRequest" xlink:href="../../../../../../../../it/matlice/ingsw/model/data/impl/jdbc/types/MessageImpl.html" xlink:show="new" xlink:title="it.matlice.ingsw.model.data.impl.jdbc.types.MessageImpl" xlink:type="simple"><rect fill="#FEFECE" filter="url(#fgln14j)" height="160.3991" style="stroke: #A80036; stroke-width: 1.5;" width="309" x="178.5" y="8"/><ellipse cx="231.25" cy="27.4" fill="#ADD1B2" rx="11" ry="11" style="stroke: #A80036; stroke-width: 1.0;"/><path d="M226.25,28.5562 C226.25,31.0562 228.3906,32.8687 231.3125,32.8687 C232.5469,32.8687 233.7188,32.5718 234.4688,32.0562 C235.0781,31.6343 235.4063,31.2125 235.4063,30.8062 C235.4063,30.3375 234.9844,29.9312 234.4844,29.9312 C234.25,29.9312 234.0313,30.0093 233.8281,30.2125 C233.3906,30.65 233.3906,30.65 233.2188,30.7437 C232.7656,30.9781 232.125,31.1187 231.3594,31.1187 C229.3594,31.1187 228.0781,30.1031 228.0781,28.525 L228.0781,27.4781 C228.0781,25.775 229.2969,24.5718 231,24.5718 C231.5781,24.5718 232.1563,24.7125 232.625,24.9625 C233.0938,25.2281 233.2656,25.4156 233.3281,25.775 C233.4531,26.4468 233.7031,26.6968 234.2344,26.6968 C234.5156,26.6968 234.7969,26.5562 234.9844,26.3375 C235.1094,26.1656 235.1563,25.9937 235.1563,25.5562 L235.1563,24.1968 C235.1563,23.775 235.1406,23.6343 235.0156,23.4625 C234.8438,23.2125 234.5625,23.0562 234.2344,23.0562 C233.9219,23.0562 233.7188,23.1656 233.5,23.4312 C232.3281,22.9312 231.8906,22.8218 230.9375,22.8218 C228.2656,22.8218 226.25,24.8375 226.25,27.4625 L226.25,28.5562 Z "/><text fill="#000000" font-family="sans-serif" font-size="14" font-weight="bold" lengthAdjust="spacingAndGlyphs" textLength="90" x="304.25" y="26.0059">MessageImpl</text><text fill="#000000" font-family="sans-serif" font-size="10" lengthAdjust="spacingAndGlyphs" textLength="195" x="251.75" y="39.0899">it.matlice.ingsw.model.data.impl.jdbc.types</text><line style="stroke: #A80036; stroke-width: 1.5;" x1="179.5" x2="486.5" y1="46.7999" y2="46.7999"/><rect fill="none" height="6" style="stroke: #C82930; stroke-width: 1.0;" width="6" x="186.5" y="55.8999"/><text fill="#000000" font-family="sans-serif" font-size="11" lengthAdjust="spacingAndGlyphs" textLength="98" x="198.5" y="61.0188">MessageDB dbData</text><rect fill="none" height="6" style="stroke: #C82930; stroke-width: 1.0;" width="6" x="186.5" y="69.0998"/><text fill="#000000" font-family="sans-serif" font-size="11" lengthAdjust="spacingAndGlyphs" textLength="109" x="198.5" y="74.2187">Offer referenced_offer</text><line style="stroke: #A80036; stroke-width: 1.5;" x1="179.5" x2="486.5" y1="81.1997" y2="81.1997"/><ellipse cx="189.5" cy="93.2997" fill="#84BE84" rx="3" ry="3" style="stroke: #038048; stroke-width: 1.0;"/><text fill="#000000" font-family="sans-serif" font-size="11" lengthAdjust="spacingAndGlyphs" textLength="283" x="198.5" y="95.4186">MessageImpl(MessageDB dbData,Offer referenced_offer)</text><ellipse cx="189.5" cy="106.4996" fill="#84BE84" rx="3" ry="3" style="stroke: #038048; stroke-width: 1.0;"/><text fill="#000000" font-family="sans-serif" font-size="11" lengthAdjust="spacingAndGlyphs" textLength="123" x="198.5" y="108.6185">MessageDB getDbData()</text><ellipse cx="189.5" cy="119.6995" fill="#84BE84" rx="3" ry="3" style="stroke: #038048; stroke-width: 1.0;"/><text fill="#000000" font-family="sans-serif" font-size="11" lengthAdjust="spacingAndGlyphs" textLength="133" x="198.5" y="121.8184">Offer getReferencedOffer()</text><ellipse cx="189.5" cy="132.8994" fill="#84BE84" rx="3" ry="3" style="stroke: #038048; stroke-width: 1.0;"/><text fill="#000000" font-family="sans-serif" font-size="11" lengthAdjust="spacingAndGlyphs" textLength="95" x="198.5" y="135.0183">String getLocation()</text><ellipse cx="189.5" cy="146.0993" fill="#84BE84" rx="3" ry="3" style="stroke: #038048; stroke-width: 1.0;"/><text fill="#000000" font-family="sans-serif" font-size="11" lengthAdjust="spacingAndGlyphs" textLength="74" x="198.5" y="148.2182">Long getTime()</text><ellipse cx="189.5" cy="159.2992" fill="#84BE84" rx="3" ry="3" style="stroke: #038048; stroke-width: 1.0;"/><text fill="#000000" font-family="sans-serif" font-size="11" lengthAdjust="spacingAndGlyphs" textLength="93" x="198.5" y="161.4182">Calendar getDate()</text></a><!--class it.matlice.ingsw.model.data.impl.jdbc.db.MessageDB--><a target="_parent" xlink:actuate="onRequest" xlink:href="../../../../../../../../it/matlice/ingsw/model/data/impl/jdbc/db/MessageDB.html" xlink:show="new" xlink:title="it.matlice.ingsw.model.data.impl.jdbc.db.MessageDB" xlink:type="simple"><rect fill="#FFFFFF" filter="url(#fgln14j)" height="55" style="stroke: #A80036; stroke-width: 1.5;" width="214" x="6" y="228"/><rect fill="#FFFFFF" height="55" style="stroke: #A80036; stroke-width: 1.5;" width="214" x="6" y="228"/><ellipse cx="21" cy="255.5" fill="#ADD1B2" rx="11" ry="11" style="stroke: #A80036; stroke-width: 1.0;"/><path d="M16,256.6563 C16,259.1563 18.1406,260.9688 21.0625,260.9688 C22.2969,260.9688 23.4688,260.6719 24.2188,260.1563 C24.8281,259.7344 25.1563,259.3125 25.1563,258.9063 C25.1563,258.4375 24.7344,258.0313 24.2344,258.0313 C24,258.0313 23.7813,258.1094 23.5781,258.3125 C23.1406,258.75 23.1406,258.75 22.9688,258.8438 C22.5156,259.0781 21.875,259.2188 21.1094,259.2188 C19.1094,259.2188 17.8281,258.2031 17.8281,256.625 L17.8281,255.5781 C17.8281,253.875 19.0469,252.6719 20.75,252.6719 C21.3281,252.6719 21.9063,252.8125 22.375,253.0625 C22.8438,253.3281 23.0156,253.5156 23.0781,253.875 C23.2031,254.5469 23.4531,254.7969 23.9844,254.7969 C24.2656,254.7969 24.5469,254.6563 24.7344,254.4375 C24.8594,254.2656 24.9063,254.0938 24.9063,253.6563 L24.9063,252.2969 C24.9063,251.875 24.8906,251.7344 24.7656,251.5625 C24.5938,251.3125 24.3125,251.1563 23.9844,251.1563 C23.6719,251.1563 23.4688,251.2656 23.25,251.5313 C22.0781,251.0313 21.6406,250.9219 20.6875,250.9219 C18.0156,250.9219 16,252.9375 16,255.5625 L16,256.6563 Z "/><text fill="#000000" font-family="sans-serif" font-size="12" font-style="italic" lengthAdjust="spacingAndGlyphs" textLength="98" x="77" y="246.2001">«DatabaseTable»</text><text fill="#000000" font-family="sans-serif" font-size="14" font-weight="bold" lengthAdjust="spacingAndGlyphs" textLength="81" x="85.5" y="262.2061">MessageDB</text><text fill="#000000" font-family="sans-serif" font-size="10" lengthAdjust="spacingAndGlyphs" textLength="182" x="35" y="275.29">it.matlice.ingsw.model.data.impl.jdbc.db</text></a><!--class it.matlice.ingsw.model.data.Offer--><a target="_parent" xlink:actuate="onRequest" xlink:href="../../../../../../../../it/matlice/ingsw/model/data/Offer.html" xlink:show="new" xlink:title="it.matlice.ingsw.model.data.Offer" xlink:type="simple"><rect fill="#FFFFFF" filter="url(#fgln14j)" height="38.7999" style="stroke: #A80036; stroke-width: 1.5;" width="156" x="255" y="236"/><rect fill="#FFFFFF" height="38.7999" style="stroke: #A80036; stroke-width: 1.5;" width="156" x="255" y="236"/><ellipse cx="270" cy="255.4" fill="#ADD1B2" rx="11" ry="11" style="stroke: #A80036; stroke-width: 1.0;"/><path d="M265,256.5562 C265,259.0562 267.1406,260.8687 270.0625,260.8687 C271.2969,260.8687 272.4688,260.5718 273.2188,260.0562 C273.8281,259.6343 274.1563,259.2125 274.1563,258.8062 C274.1563,258.3375 273.7344,257.9312 273.2344,257.9312 C273,257.9312 272.7813,258.0093 272.5781,258.2125 C272.1406,258.65 272.1406,258.65 271.9688,258.7437 C271.5156,258.9781 270.875,259.1187 270.1094,259.1187 C268.1094,259.1187 266.8281,258.1031 266.8281,256.525 L266.8281,255.4781 C266.8281,253.775 268.0469,252.5718 269.75,252.5718 C270.3281,252.5718 270.9063,252.7125 271.375,252.9625 C271.8438,253.2281 272.0156,253.4156 272.0781,253.775 C272.2031,254.4468 272.4531,254.6968 272.9844,254.6968 C273.2656,254.6968 273.5469,254.5562 273.7344,254.3375 C273.8594,254.1656 273.9063,253.9937 273.9063,253.5562 L273.9063,252.1968 C273.9063,251.775 273.8906,251.6343 273.7656,251.4625 C273.5938,251.2125 273.3125,251.0562 272.9844,251.0562 C272.6719,251.0562 272.4688,251.1656 272.25,251.4312 C271.0781,250.9312 270.6406,250.8218 269.6875,250.8218 C267.0156,250.8218 265,252.8375 265,255.4625 L265,256.5562 Z "/><text fill="#000000" font-family="sans-serif" font-size="14" font-weight="bold" lengthAdjust="spacingAndGlyphs" textLength="34" x="329" y="254.0059">Offer</text><text fill="#000000" font-family="sans-serif" font-size="10" lengthAdjust="spacingAndGlyphs" textLength="124" x="284" y="267.0899">it.matlice.ingsw.model.data</text></a><!--class it.matlice.ingsw.model.data.Message--><a target="_parent" xlink:actuate="onRequest" xlink:href="../../../../../../../../it/matlice/ingsw/model/data/Message.html" xlink:show="new" xlink:title="it.matlice.ingsw.model.data.Message" xlink:type="simple"><rect fill="#FFFFFF" filter="url(#fgln14j)" height="38.7999" style="stroke: #A80036; stroke-width: 1.5;" width="156" x="446" y="236"/><rect fill="#FFFFFF" height="38.7999" style="stroke: #A80036; stroke-width: 1.5;" width="156" x="446" y="236"/><ellipse cx="461" cy="255.4" fill="#ADD1B2" rx="11" ry="11" style="stroke: #A80036; stroke-width: 1.0;"/><path d="M456,256.5562 C456,259.0562 458.1406,260.8687 461.0625,260.8687 C462.2969,260.8687 463.4688,260.5718 464.2188,260.0562 C464.8281,259.6343 465.1563,259.2125 465.1563,258.8062 C465.1563,258.3375 464.7344,257.9312 464.2344,257.9312 C464,257.9312 463.7813,258.0093 463.5781,258.2125 C463.1406,258.65 463.1406,258.65 462.9688,258.7437 C462.5156,258.9781 461.875,259.1187 461.1094,259.1187 C459.1094,259.1187 457.8281,258.1031 457.8281,256.525 L457.8281,255.4781 C457.8281,253.775 459.0469,252.5718 460.75,252.5718 C461.3281,252.5718 461.9063,252.7125 462.375,252.9625 C462.8438,253.2281 463.0156,253.4156 463.0781,253.775 C463.2031,254.4468 463.4531,254.6968 463.9844,254.6968 C464.2656,254.6968 464.5469,254.5562 464.7344,254.3375 C464.8594,254.1656 464.9063,253.9937 464.9063,253.5562 L464.9063,252.1968 C464.9063,251.775 464.8906,251.6343 464.7656,251.4625 C464.5938,251.2125 464.3125,251.0562 463.9844,251.0562 C463.6719,251.0562 463.4688,251.1656 463.25,251.4312 C462.0781,250.9312 461.6406,250.8218 460.6875,250.8218 C458.0156,250.8218 456,252.8375 456,255.4625 L456,256.5562 Z "/><text fill="#000000" font-family="sans-serif" font-size="14" font-weight="bold" lengthAdjust="spacingAndGlyphs" textLength="61" x="506.5" y="254.0059">Message</text><text fill="#000000" font-family="sans-serif" font-size="10" lengthAdjust="spacingAndGlyphs" textLength="124" x="475" y="267.0899">it.matlice.ingsw.model.data</text></a><path d="M199.25,168.32 C199.25,168.32 199.25,222.64 199.25,222.64 " fill="none" style="stroke: #A80036; stroke-width: 1.0;"/><polygon fill="#A80036" points="199.25,227.64,203.25,218.64,199.25,222.64,195.25,218.64,199.25,227.64" style="stroke: #A80036; stroke-width: 1.0;"/><text fill="#000000" font-family="sans-serif" font-size="13" lengthAdjust="spacingAndGlyphs" textLength="41" x="173.4547" y="216.6094">dbData</text><path d="M333,168.32 C333,168.32 333,230.99 333,230.99 " fill="none" style="stroke: #A80036; stroke-width: 1.0;"/><polygon fill="#A80036" points="333,235.99,337,226.99,333,230.99,329,226.99,333,235.99" style="stroke: #A80036; stroke-width: 1.0;"/><text fill="#000000" font-family="sans-serif" font-size="13" lengthAdjust="spacingAndGlyphs" textLength="94" x="224.0187" y="224.5851">referenced_offer</text><path d="M466.75,168.32 C466.75,168.32 466.75,215.99 466.75,215.99 " fill="none" style="stroke: #A80036; stroke-width: 1.0;"/><polygon fill="none" points="473.75,215.99,466.75,235.99,459.75,215.99,473.75,215.99" style="stroke: #A80036; stroke-width: 1.0;"/></g></svg>