<?xml version="1.0" encoding="UTF-8" standalone="no"?><svg xmlns="http://www.w3.org/2000/svg" xmlns:xlink="http://www.w3.org/1999/xlink" contentScriptType="application/ecmascript" contentStyleType="text/css" height="332px" preserveAspectRatio="none" style="width:1065px;height:332px;" version="1.1" viewBox="0 0 1065 332" width="1065px" zoomAndPan="magnify"><defs><filter height="300%" id="fvwd08n" width="300%" x="-1" y="-1"><feGaussianBlur result="blurOut" stdDeviation="2.0"/><feColorMatrix in="blurOut" result="blurOut2" type="matrix" values="0 0 0 0 0 0 0 0 0 0 0 0 0 0 0 0 0 0 .4 0"/><feOffset dx="4.0" dy="4.0" in="blurOut2" result="blurOut3"/><feBlend in="SourceGraphic" in2="blurOut3" mode="normal"/></filter></defs><g><!--class it.matlice.ingsw.model.data.impl.jdbc.types.NodeCategoryImpl--><a target="_parent" xlink:actuate="onRequest" xlink:href="../../../../../../../../it/matlice/ingsw/model/data/impl/jdbc/types/NodeCategoryImpl.html" xlink:show="new" xlink:title="it.matlice.ingsw.model.data.impl.jdbc.types.NodeCategoryImpl" xlink:type="simple"><rect fill="#FEFECE" filter="url(#fvwd08n)" height="199.9988" style="stroke: #A80036; stroke-width: 1.5;" width="262" x="429" y="8"/><ellipse cx="459.75" cy="27.4" fill="#ADD1B2" rx="11" ry="11" style="stroke: #A80036; stroke-width: 1.0;"/><path d="M454.75,28.5562 C454.75,31.0562 456.8906,32.8687 459.8125,32.8687 C461.0469,32.8687 462.2188,32.5718 462.9688,32.0562 C463.5781,31.6343 463.9063,31.2125 463.9063,30.8062 C463.9063,30.3375 463.4844,29.9312 462.9844,29.9312 C462.75,29.9312 462.5313,30.0093 462.3281,30.2125 C461.8906,30.65 461.8906,30.65 461.7188,30.7437 C461.2656,30.9781 460.625,31.1187 459.8594,31.1187 C457.8594,31.1187 456.5781,30.1031 456.5781,28.525 L456.5781,27.4781 C456.5781,25.775 457.7969,24.5718 459.5,24.5718 C460.0781,24.5718 460.6563,24.7125 461.125,24.9625 C461.5938,25.2281 461.7656,25.4156 461.8281,25.775 C461.9531,26.4468 462.2031,26.6968 462.7344,26.6968 C463.0156,26.6968 463.2969,26.5562 463.4844,26.3375 C463.6094,26.1656 463.6563,25.9937 463.6563,25.5562 L463.6563,24.1968 C463.6563,23.775 463.6406,23.6343 463.5156,23.4625 C463.3438,23.2125 463.0625,23.0562 462.7344,23.0562 C462.4219,23.0562 462.2188,23.1656 462,23.4312 C460.8281,22.9312 460.3906,22.8218 459.4375,22.8218 C456.7656,22.8218 454.75,24.8375 454.75,27.4625 L454.75,28.5562 Z "/><text fill="#000000" font-family="sans-serif" font-size="14" font-weight="bold" lengthAdjust="spacingAndGlyphs" textLength="127" x="511.25" y="26.0059">NodeCategoryImpl</text><text fill="#000000" font-family="sans-serif" font-size="10" lengthAdjust="spacingAndGlyphs" textLength="195" x="477.25" y="39.0899">it.matlice.ingsw.model.data.impl.jdbc.types</text><line style="stroke: #A80036; stroke-width: 1.5;" x1="430" x2="690" y1="46.7999" y2="46.7999"/><rect fill="none" height="6" style="stroke: #C82930; stroke-width: 1.0;" width="6" x="437" y="55.8999"/><text fill="#000000" font-family="sans-serif" font-size="11" lengthAdjust="spacingAndGlyphs" textLength="98" x="449" y="61.0188">CategoryDB dbData</text><line style="stroke: #A80036; stroke-width: 1.5;" x1="430" x2="690" y1="67.9998" y2="67.9998"/><ellipse cx="440" cy="80.0998" fill="#84BE84" rx="3" ry="3" style="stroke: #038048; stroke-width: 1.0;"/><text fill="#000000" font-family="sans-serif" font-size="11" lengthAdjust="spacingAndGlyphs" textLength="184" x="449" y="82.2187">NodeCategoryImpl(CategoryDB from)</text><ellipse cx="440" cy="93.2997" fill="#84BE84" rx="3" ry="3" style="stroke: #038048; stroke-width: 1.0;"/><text fill="#000000" font-family="sans-serif" font-size="11" lengthAdjust="spacingAndGlyphs" textLength="123" x="449" y="95.4186">CategoryDB getDbData()</text><ellipse cx="440" cy="106.4996" fill="#84BE84" rx="3" ry="3" style="stroke: #038048; stroke-width: 1.0;"/><text fill="#000000" font-family="sans-serif" font-size="11" lengthAdjust="spacingAndGlyphs" textLength="83" x="449" y="108.6185">String getName()</text><ellipse cx="440" cy="119.6995" fill="#84BE84" rx="3" ry="3" style="stroke: #038048; stroke-width: 1.0;"/><text fill="#000000" font-family="sans-serif" font-size="11" lengthAdjust="spacingAndGlyphs" textLength="109" x="449" y="121.8184">String getDescription()</text><ellipse cx="440" cy="132.8994" fill="#84BE84" rx="3" ry="3" style="stroke: #038048; stroke-width: 1.0;"/><text fill="#000000" font-family="sans-serif" font-size="11" lengthAdjust="spacingAndGlyphs" textLength="172" x="449" y="135.0183">List&lt;LeafCategory&gt; getChildLeafs()</text><ellipse cx="440" cy="146.0993" fill="#84BE84" rx="3" ry="3" style="stroke: #038048; stroke-width: 1.0;"/><text fill="#000000" font-family="sans-serif" font-size="11" lengthAdjust="spacingAndGlyphs" textLength="236" x="449" y="148.2182">boolean isValidChildCategoryName(String name)</text><ellipse cx="440" cy="159.2992" fill="#84BE84" rx="3" ry="3" style="stroke: #038048; stroke-width: 1.0;"/><text fill="#000000" font-family="sans-serif" font-size="11" lengthAdjust="spacingAndGlyphs" textLength="168" x="449" y="161.4182">Category addChild(Category child)</text><ellipse cx="440" cy="172.4991" fill="#84BE84" rx="3" ry="3" style="stroke: #038048; stroke-width: 1.0;"/><text fill="#000000" font-family="sans-serif" font-size="11" lengthAdjust="spacingAndGlyphs" textLength="187" x="449" y="174.6181">Category removeChild(Category child)</text><ellipse cx="440" cy="185.699" fill="#84BE84" rx="3" ry="3" style="stroke: #038048; stroke-width: 1.0;"/><text fill="#000000" font-family="sans-serif" font-size="11" lengthAdjust="spacingAndGlyphs" textLength="130" x="449" y="187.818">boolean equals(Object obj)</text><ellipse cx="440" cy="198.8989" fill="#84BE84" rx="3" ry="3" style="stroke: #038048; stroke-width: 1.0;"/><text fill="#000000" font-family="sans-serif" font-size="11" lengthAdjust="spacingAndGlyphs" textLength="69" x="449" y="201.0179">Object clone()</text></a><!--class it.matlice.ingsw.model.data.impl.jdbc.db.CategoryDB--><a target="_parent" xlink:actuate="onRequest" xlink:href="../../../../../../../../it/matlice/ingsw/model/data/impl/jdbc/db/CategoryDB.html" xlink:show="new" xlink:title="it.matlice.ingsw.model.data.impl.jdbc.db.CategoryDB" xlink:type="simple"><rect fill="#FFFFFF" filter="url(#fvwd08n)" height="55" style="stroke: #A80036; stroke-width: 1.5;" width="214" x="6" y="268"/><rect fill="#FFFFFF" height="55" style="stroke: #A80036; stroke-width: 1.5;" width="214" x="6" y="268"/><ellipse cx="21" cy="295.5" fill="#ADD1B2" rx="11" ry="11" style="stroke: #A80036; stroke-width: 1.0;"/><path d="M16,296.6563 C16,299.1563 18.1406,300.9688 21.0625,300.9688 C22.2969,300.9688 23.4688,300.6719 24.2188,300.1563 C24.8281,299.7344 25.1563,299.3125 25.1563,298.9063 C25.1563,298.4375 24.7344,298.0313 24.2344,298.0313 C24,298.0313 23.7813,298.1094 23.5781,298.3125 C23.1406,298.75 23.1406,298.75 22.9688,298.8438 C22.5156,299.0781 21.875,299.2188 21.1094,299.2188 C19.1094,299.2188 17.8281,298.2031 17.8281,296.625 L17.8281,295.5781 C17.8281,293.875 19.0469,292.6719 20.75,292.6719 C21.3281,292.6719 21.9063,292.8125 22.375,293.0625 C22.8438,293.3281 23.0156,293.5156 23.0781,293.875 C23.2031,294.5469 23.4531,294.7969 23.9844,294.7969 C24.2656,294.7969 24.5469,294.6563 24.7344,294.4375 C24.8594,294.2656 24.9063,294.0938 24.9063,293.6563 L24.9063,292.2969 C24.9063,291.875 24.8906,291.7344 24.7656,291.5625 C24.5938,291.3125 24.3125,291.1563 23.9844,291.1563 C23.6719,291.1563 23.4688,291.2656 23.25,291.5313 C22.0781,291.0313 21.6406,290.9219 20.6875,290.9219 C18.0156,290.9219 16,292.9375 16,295.5625 L16,296.6563 Z "/><text fill="#000000" font-family="sans-serif" font-size="12" font-style="italic" lengthAdjust="spacingAndGlyphs" textLength="98" x="77" y="286.2001">«DatabaseTable»</text><text fill="#000000" font-family="sans-serif" font-size="14" font-weight="bold" lengthAdjust="spacingAndGlyphs" textLength="82" x="85" y="302.2061">CategoryDB</text><text fill="#000000" font-family="sans-serif" font-size="10" lengthAdjust="spacingAndGlyphs" textLength="182" x="35" y="315.29">it.matlice.ingsw.model.data.impl.jdbc.db</text></a><!--class it.matlice.ingsw.model.data.NodeCategory--><a target="_parent" xlink:actuate="onRequest" xlink:href="../../../../../../../../it/matlice/ingsw/model/data/NodeCategory.html" xlink:show="new" xlink:title="it.matlice.ingsw.model.data.NodeCategory" xlink:type="simple"><rect fill="#FFFFFF" filter="url(#fvwd08n)" height="38.7999" style="stroke: #A80036; stroke-width: 1.5;" width="156" x="255" y="276"/><rect fill="#FFFFFF" height="38.7999" style="stroke: #A80036; stroke-width: 1.5;" width="156" x="255" y="276"/><ellipse cx="270" cy="295.4" fill="#ADD1B2" rx="11" ry="11" style="stroke: #A80036; stroke-width: 1.0;"/><path d="M265,296.5562 C265,299.0562 267.1406,300.8687 270.0625,300.8687 C271.2969,300.8687 272.4688,300.5718 273.2188,300.0562 C273.8281,299.6343 274.1563,299.2125 274.1563,298.8062 C274.1563,298.3375 273.7344,297.9312 273.2344,297.9312 C273,297.9312 272.7813,298.0093 272.5781,298.2125 C272.1406,298.65 272.1406,298.65 271.9688,298.7437 C271.5156,298.9781 270.875,299.1187 270.1094,299.1187 C268.1094,299.1187 266.8281,298.1031 266.8281,296.525 L266.8281,295.4781 C266.8281,293.775 268.0469,292.5718 269.75,292.5718 C270.3281,292.5718 270.9063,292.7125 271.375,292.9625 C271.8438,293.2281 272.0156,293.4156 272.0781,293.775 C272.2031,294.4468 272.4531,294.6968 272.9844,294.6968 C273.2656,294.6968 273.5469,294.5562 273.7344,294.3375 C273.8594,294.1656 273.9063,293.9937 273.9063,293.5562 L273.9063,292.1968 C273.9063,291.775 273.8906,291.6343 273.7656,291.4625 C273.5938,291.2125 273.3125,291.0562 272.9844,291.0562 C272.6719,291.0562 272.4688,291.1656 272.25,291.4312 C271.0781,290.9312 270.6406,290.8218 269.6875,290.8218 C267.0156,290.8218 265,292.8375 265,295.4625 L265,296.5562 Z "/><text fill="#000000" font-family="sans-serif" font-size="14" font-weight="bold" lengthAdjust="spacingAndGlyphs" textLength="98" x="297" y="294.0059">NodeCategory</text><text fill="#000000" font-family="sans-serif" font-size="10" lengthAdjust="spacingAndGlyphs" textLength="124" x="284" y="307.0899">it.matlice.ingsw.model.data</text></a><!--class it.matlice.ingsw.model.data.impl.jdbc.types.CategoryImpl--><a target="_parent" xlink:actuate="onRequest" xlink:href="../../../../../../../../it/matlice/ingsw/model/data/impl/jdbc/types/CategoryImpl.html" xlink:show="new" xlink:title="it.matlice.ingsw.model.data.impl.jdbc.types.CategoryImpl" xlink:type="simple"><rect fill="#FEFECE" filter="url(#fvwd08n)" height="42.3999" style="stroke: #A80036; stroke-width: 1.5;" width="227" x="446.5" y="274.5"/><ellipse cx="461.5" cy="295.7" fill="#B4A7E5" rx="11" ry="11" style="stroke: #A80036; stroke-width: 1.0;"/><path d="M462.5156,292.8562 L464.1719,292.8562 C464.5625,292.8562 464.7656,292.825 464.9219,292.7468 C465.1875,292.575 465.3594,292.2781 465.3594,291.9812 C465.3594,291.7 465.2188,291.45 464.9844,291.2781 C464.7969,291.1531 464.6406,291.1062 464.1719,291.1062 L459.0313,291.1062 C458.5938,291.1062 458.4531,291.1218 458.2813,291.2312 C458.0156,291.4031 457.8438,291.6843 457.8438,291.9812 C457.8438,292.2625 457.9844,292.5437 458.2188,292.7 C458.4063,292.825 458.5938,292.8562 459.0313,292.8562 L460.6875,292.8562 L460.6875,298.95 L459.0313,298.95 C458.5938,298.95 458.4531,298.9656 458.2813,299.075 C458.0156,299.2312 457.8438,299.5281 457.8438,299.8093 C457.8438,300.4187 458.25,300.7 459.0313,300.7 L464.1719,300.7 C464.9531,300.7 465.3594,300.4187 465.3594,299.8093 C465.3594,299.5437 465.2188,299.2937 464.9844,299.1218 C464.7969,298.9812 464.625,298.95 464.1719,298.95 L462.5156,298.95 L462.5156,292.8562 Z "/><text fill="#000000" font-family="sans-serif" font-size="14" font-style="italic" font-weight="bold" lengthAdjust="spacingAndGlyphs" textLength="91" x="527.5" y="294.8999">CategoryImpl</text><text fill="#000000" font-family="sans-serif" font-size="10" font-style="italic" lengthAdjust="spacingAndGlyphs" textLength="195" x="475.5" y="309.3999">it.matlice.ingsw.model.data.impl.jdbc.types</text></a><!--class it.matlice.ingsw.model.data.LeafCategory--><a target="_parent" xlink:actuate="onRequest" xlink:href="../../../../../../../../it/matlice/ingsw/model/data/LeafCategory.html" xlink:show="new" xlink:title="it.matlice.ingsw.model.data.LeafCategory" xlink:type="simple"><rect fill="#FFFFFF" filter="url(#fvwd08n)" height="38.7999" style="stroke: #A80036; stroke-width: 1.5;" width="156" x="709" y="276"/><rect fill="#FFFFFF" height="38.7999" style="stroke: #A80036; stroke-width: 1.5;" width="156" x="709" y="276"/><ellipse cx="724" cy="295.4" fill="#ADD1B2" rx="11" ry="11" style="stroke: #A80036; stroke-width: 1.0;"/><path d="M719,296.5562 C719,299.0562 721.1406,300.8687 724.0625,300.8687 C725.2969,300.8687 726.4688,300.5718 727.2188,300.0562 C727.8281,299.6343 728.1563,299.2125 728.1563,298.8062 C728.1563,298.3375 727.7344,297.9312 727.2344,297.9312 C727,297.9312 726.7813,298.0093 726.5781,298.2125 C726.1406,298.65 726.1406,298.65 725.9688,298.7437 C725.5156,298.9781 724.875,299.1187 724.1094,299.1187 C722.1094,299.1187 720.8281,298.1031 720.8281,296.525 L720.8281,295.4781 C720.8281,293.775 722.0469,292.5718 723.75,292.5718 C724.3281,292.5718 724.9063,292.7125 725.375,292.9625 C725.8438,293.2281 726.0156,293.4156 726.0781,293.775 C726.2031,294.4468 726.4531,294.6968 726.9844,294.6968 C727.2656,294.6968 727.5469,294.5562 727.7344,294.3375 C727.8594,294.1656 727.9063,293.9937 727.9063,293.5562 L727.9063,292.1968 C727.9063,291.775 727.8906,291.6343 727.7656,291.4625 C727.5938,291.2125 727.3125,291.0562 726.9844,291.0562 C726.6719,291.0562 726.4688,291.1656 726.25,291.4312 C725.0781,290.9312 724.6406,290.8218 723.6875,290.8218 C721.0156,290.8218 719,292.8375 719,295.4625 L719,296.5562 Z "/><text fill="#000000" font-family="sans-serif" font-size="14" font-weight="bold" lengthAdjust="spacingAndGlyphs" textLength="92" x="754" y="294.0059">LeafCategory</text><text fill="#000000" font-family="sans-serif" font-size="10" lengthAdjust="spacingAndGlyphs" textLength="124" x="738" y="307.0899">it.matlice.ingsw.model.data</text></a><!--class it.matlice.ingsw.model.data.Category--><a target="_parent" xlink:actuate="onRequest" xlink:href="../../../../../../../../it/matlice/ingsw/model/data/Category.html" xlink:show="new" xlink:title="it.matlice.ingsw.model.data.Category" xlink:type="simple"><rect fill="#FFFFFF" filter="url(#fvwd08n)" height="38.7999" style="stroke: #A80036; stroke-width: 1.5;" width="156" x="900" y="276"/><rect fill="#FFFFFF" height="38.7999" style="stroke: #A80036; stroke-width: 1.5;" width="156" x="900" y="276"/><ellipse cx="915" cy="295.4" fill="#ADD1B2" rx="11" ry="11" style="stroke: #A80036; stroke-width: 1.0;"/><path d="M910,296.5562 C910,299.0562 912.1406,300.8687 915.0625,300.8687 C916.2969,300.8687 917.4688,300.5718 918.2188,300.0562 C918.8281,299.6343 919.1563,299.2125 919.1563,298.8062 C919.1563,298.3375 918.7344,297.9312 918.2344,297.9312 C918,297.9312 917.7813,298.0093 917.5781,298.2125 C917.1406,298.65 917.1406,298.65 916.9688,298.7437 C916.5156,298.9781 915.875,299.1187 915.1094,299.1187 C913.1094,299.1187 911.8281,298.1031 911.8281,296.525 L911.8281,295.4781 C911.8281,293.775 913.0469,292.5718 914.75,292.5718 C915.3281,292.5718 915.9063,292.7125 916.375,292.9625 C916.8438,293.2281 917.0156,293.4156 917.0781,293.775 C917.2031,294.4468 917.4531,294.6968 917.9844,294.6968 C918.2656,294.6968 918.5469,294.5562 918.7344,294.3375 C918.8594,294.1656 918.9063,293.9937 918.9063,293.5562 L918.9063,292.1968 C918.9063,291.775 918.8906,291.6343 918.7656,291.4625 C918.5938,291.2125 918.3125,291.0562 917.9844,291.0562 C917.6719,291.0562 917.4688,291.1656 917.25,291.4312 C916.0781,290.9312 915.6406,290.8218 914.6875,290.8218 C912.0156,290.8218 910,292.8375 910,295.4625 L910,296.5562 Z "/><text fill="#000000" font-family="sans-serif" font-size="14" font-weight="bold" lengthAdjust="spacingAndGlyphs" textLength="62" x="960" y="294.0059">Category</text><text fill="#000000" font-family="sans-serif" font-size="10" lengthAdjust="spacingAndGlyphs" textLength="124" x="929" y="307.0899">it.matlice.ingsw.model.data</text></a><path d="M428.91,108 C297.01,108 113,108 113,108 C113,108 113,262.83 113,262.83 " fill="none" style="stroke: #A80036; stroke-width: 1.0;"/><polygon fill="#A80036" points="113,267.83,117,258.83,113,262.83,109,258.83,113,267.83" style="stroke: #A80036; stroke-width: 1.0;"/><text fill="#000000" font-family="sans-serif" font-size="13" lengthAdjust="spacingAndGlyphs" textLength="41" x="67.0031" y="256.4074">dbData</text><path d="M437.75,208.05 C437.75,252.95 437.75,296 437.75,296 C437.75,296 431.05,296 431.05,296 " fill="none" style="stroke: #A80036; stroke-width: 1.0;"/><polygon fill="none" points="431.05,303,411.05,296,431.05,289,431.05,303" style="stroke: #A80036; stroke-width: 1.0;"/><path d="M560,208.06 C560,208.06 560,254.37 560,254.37 " fill="none" style="stroke: #A80036; stroke-width: 1.0; stroke-dasharray: 7.0,7.0;"/><polygon fill="none" points="567,254.37,560,274.37,553,254.37,567,254.37" style="stroke: #A80036; stroke-width: 1.0;"/><path d="M682.25,208.05 C682.25,252.95 682.25,296 682.25,296 C682.25,296 703.95,296 703.95,296 " fill="none" style="stroke: #A80036; stroke-width: 1.0; stroke-dasharray: 7.0,7.0;"/><polygon fill="#A80036" points="708.95,296,699.95,292,703.95,296,699.95,300,708.95,296" style="stroke: #A80036; stroke-width: 1.0;"/><path d="M691.11,108 C813.7,108 978,108 978,108 C978,108 978,270.79 978,270.79 " fill="none" style="stroke: #A80036; stroke-width: 1.0; stroke-dasharray: 7.0,7.0;"/><polygon fill="#A80036" points="978,275.79,982,266.79,978,270.79,974,266.79,978,275.79" style="stroke: #A80036; stroke-width: 1.0;"/></g></svg>