<?xml version="1.0" encoding="UTF-8" standalone="no"?><svg xmlns="http://www.w3.org/2000/svg" xmlns:xlink="http://www.w3.org/1999/xlink" contentScriptType="application/ecmascript" contentStyleType="text/css" height="358px" preserveAspectRatio="none" style="width:993px;height:358px;" version="1.1" viewBox="0 0 993 358" width="993px" zoomAndPan="magnify"><defs><filter height="300%" id="fbwwnsg" width="300%" x="-1" y="-1"><feGaussianBlur result="blurOut" stdDeviation="2.0"/><feColorMatrix in="blurOut" result="blurOut2" type="matrix" values="0 0 0 0 0 0 0 0 0 0 0 0 0 0 0 0 0 0 .4 0"/><feOffset dx="4.0" dy="4.0" in="blurOut2" result="blurOut3"/><feBlend in="SourceGraphic" in2="blurOut3" mode="normal"/></filter></defs><g><!--class it.matlice.ingsw.model.data.impl.jdbc.types.OfferImpl--><a target="_parent" xlink:actuate="onRequest" xlink:href="../../../../../../../../it/matlice/ingsw/model/data/impl/jdbc/types/OfferImpl.html" xlink:show="new" xlink:title="it.matlice.ingsw.model.data.impl.jdbc.types.OfferImpl" xlink:type="simple"><rect fill="#FEFECE" filter="url(#fbwwnsg)" height="226.3986" style="stroke: #A80036; stroke-width: 1.5;" width="419" x="409.5" y="8"/><ellipse cx="517.25" cy="27.4" fill="#ADD1B2" rx="11" ry="11" style="stroke: #A80036; stroke-width: 1.0;"/><path d="M512.25,28.5562 C512.25,31.0562 514.3906,32.8687 517.3125,32.8687 C518.5469,32.8687 519.7188,32.5718 520.4688,32.0562 C521.0781,31.6343 521.4063,31.2125 521.4063,30.8062 C521.4063,30.3375 520.9844,29.9312 520.4844,29.9312 C520.25,29.9312 520.0313,30.0093 519.8281,30.2125 C519.3906,30.65 519.3906,30.65 519.2188,30.7437 C518.7656,30.9781 518.125,31.1187 517.3594,31.1187 C515.3594,31.1187 514.0781,30.1031 514.0781,28.525 L514.0781,27.4781 C514.0781,25.775 515.2969,24.5718 517,24.5718 C517.5781,24.5718 518.1563,24.7125 518.625,24.9625 C519.0938,25.2281 519.2656,25.4156 519.3281,25.775 C519.4531,26.4468 519.7031,26.6968 520.2344,26.6968 C520.5156,26.6968 520.7969,26.5562 520.9844,26.3375 C521.1094,26.1656 521.1563,25.9937 521.1563,25.5562 L521.1563,24.1968 C521.1563,23.775 521.1406,23.6343 521.0156,23.4625 C520.8438,23.2125 520.5625,23.0562 520.2344,23.0562 C519.9219,23.0562 519.7188,23.1656 519.5,23.4312 C518.3281,22.9312 517.8906,22.8218 516.9375,22.8218 C514.2656,22.8218 512.25,24.8375 512.25,27.4625 L512.25,28.5562 Z "/><text fill="#000000" font-family="sans-serif" font-size="14" font-weight="bold" lengthAdjust="spacingAndGlyphs" textLength="63" x="603.75" y="26.0059">OfferImpl</text><text fill="#000000" font-family="sans-serif" font-size="10" lengthAdjust="spacingAndGlyphs" textLength="195" x="537.75" y="39.0899">it.matlice.ingsw.model.data.impl.jdbc.types</text><line style="stroke: #A80036; stroke-width: 1.5;" x1="410.5" x2="827.5" y1="46.7999" y2="46.7999"/><rect fill="none" height="6" style="stroke: #C82930; stroke-width: 1.0;" width="6" x="417.5" y="55.8999"/><text fill="#000000" font-family="sans-serif" font-size="11" lengthAdjust="spacingAndGlyphs" textLength="78" x="429.5" y="61.0188">OfferDB dbData</text><rect fill="none" height="6" style="stroke: #C82930; stroke-width: 1.0;" width="6" x="417.5" y="69.0998"/><text fill="#000000" font-family="sans-serif" font-size="11" lengthAdjust="spacingAndGlyphs" textLength="112" x="429.5" y="74.2187">LeafCategory category</text><rect fill="none" height="6" style="stroke: #C82930; stroke-width: 1.0;" width="6" x="417.5" y="82.2997"/><text fill="#000000" font-family="sans-serif" font-size="11" lengthAdjust="spacingAndGlyphs" textLength="57" x="429.5" y="87.4186">User owner</text><rect fill="none" height="6" style="stroke: #C82930; stroke-width: 1.0;" width="6" x="417.5" y="95.4996"/><text fill="#000000" font-family="sans-serif" font-size="11" lengthAdjust="spacingAndGlyphs" textLength="84" x="429.5" y="100.6185">Offer linked_offer</text><line style="stroke: #A80036; stroke-width: 1.5;" x1="410.5" x2="827.5" y1="107.5995" y2="107.5995"/><ellipse cx="420.5" cy="119.6995" fill="#84BE84" rx="3" ry="3" style="stroke: #038048; stroke-width: 1.0;"/><text fill="#000000" font-family="sans-serif" font-size="11" lengthAdjust="spacingAndGlyphs" textLength="393" x="429.5" y="121.8184">OfferImpl(OfferDB dbData,LeafCategory category,User owner,Offer linked_offer)</text><ellipse cx="420.5" cy="132.8994" fill="#84BE84" rx="3" ry="3" style="stroke: #038048; stroke-width: 1.0;"/><text fill="#000000" font-family="sans-serif" font-size="11" lengthAdjust="spacingAndGlyphs" textLength="103" x="429.5" y="135.0183">OfferDB getDbData()</text><ellipse cx="420.5" cy="146.0993" fill="#84BE84" rx="3" ry="3" style="stroke: #038048; stroke-width: 1.0;"/><text fill="#000000" font-family="sans-serif" font-size="11" lengthAdjust="spacingAndGlyphs" textLength="83" x="429.5" y="148.2182">String getName()</text><ellipse cx="420.5" cy="159.2992" fill="#84BE84" rx="3" ry="3" style="stroke: #038048; stroke-width: 1.0;"/><text fill="#000000" font-family="sans-serif" font-size="11" lengthAdjust="spacingAndGlyphs" textLength="83" x="429.5" y="161.4182">User getOwner()</text><ellipse cx="420.5" cy="172.4991" fill="#84BE84" rx="3" ry="3" style="stroke: #038048; stroke-width: 1.0;"/><text fill="#000000" font-family="sans-serif" font-size="11" lengthAdjust="spacingAndGlyphs" textLength="141" x="429.5" y="174.6181">Offer.OfferStatus getStatus()</text><ellipse cx="420.5" cy="185.699" fill="#84BE84" rx="3" ry="3" style="stroke: #038048; stroke-width: 1.0;"/><text fill="#000000" font-family="sans-serif" font-size="11" lengthAdjust="spacingAndGlyphs" textLength="137" x="429.5" y="187.818">LeafCategory getCategory()</text><ellipse cx="420.5" cy="198.8989" fill="#84BE84" rx="3" ry="3" style="stroke: #038048; stroke-width: 1.0;"/><text fill="#000000" font-family="sans-serif" font-size="11" lengthAdjust="spacingAndGlyphs" textLength="108" x="429.5" y="201.0179">Offer getLinkedOffer()</text><ellipse cx="420.5" cy="212.0988" fill="#84BE84" rx="3" ry="3" style="stroke: #038048; stroke-width: 1.0;"/><text fill="#000000" font-family="sans-serif" font-size="11" lengthAdjust="spacingAndGlyphs" textLength="121" x="429.5" y="214.2178">Long getProposedTime()</text><ellipse cx="420.5" cy="225.2987" fill="#84BE84" rx="3" ry="3" style="stroke: #038048; stroke-width: 1.0;"/><text fill="#000000" font-family="sans-serif" font-size="11" lengthAdjust="spacingAndGlyphs" textLength="179" x="429.5" y="227.4177">void setLinkedOffer(OfferImpl linked)</text></a><!--class it.matlice.ingsw.model.data.impl.jdbc.db.OfferDB--><a target="_parent" xlink:actuate="onRequest" xlink:href="../../../../../../../../it/matlice/ingsw/model/data/impl/jdbc/db/OfferDB.html" xlink:show="new" xlink:title="it.matlice.ingsw.model.data.impl.jdbc.db.OfferDB" xlink:type="simple"><rect fill="#FFFFFF" filter="url(#fbwwnsg)" height="55" style="stroke: #A80036; stroke-width: 1.5;" width="214" x="6" y="294"/><rect fill="#FFFFFF" height="55" style="stroke: #A80036; stroke-width: 1.5;" width="214" x="6" y="294"/><ellipse cx="21" cy="321.5" fill="#ADD1B2" rx="11" ry="11" style="stroke: #A80036; stroke-width: 1.0;"/><path d="M16,322.6563 C16,325.1563 18.1406,326.9688 21.0625,326.9688 C22.2969,326.9688 23.4688,326.6719 24.2188,326.1563 C24.8281,325.7344 25.1563,325.3125 25.1563,324.9063 C25.1563,324.4375 24.7344,324.0313 24.2344,324.0313 C24,324.0313 23.7813,324.1094 23.5781,324.3125 C23.1406,324.75 23.1406,324.75 22.9688,324.8438 C22.5156,325.0781 21.875,325.2188 21.1094,325.2188 C19.1094,325.2188 17.8281,324.2031 17.8281,322.625 L17.8281,321.5781 C17.8281,319.875 19.0469,318.6719 20.75,318.6719 C21.3281,318.6719 21.9063,318.8125 22.375,319.0625 C22.8438,319.3281 23.0156,319.5156 23.0781,319.875 C23.2031,320.5469 23.4531,320.7969 23.9844,320.7969 C24.2656,320.7969 24.5469,320.6563 24.7344,320.4375 C24.8594,320.2656 24.9063,320.0938 24.9063,319.6563 L24.9063,318.2969 C24.9063,317.875 24.8906,317.7344 24.7656,317.5625 C24.5938,317.3125 24.3125,317.1563 23.9844,317.1563 C23.6719,317.1563 23.4688,317.2656 23.25,317.5313 C22.0781,317.0313 21.6406,316.9219 20.6875,316.9219 C18.0156,316.9219 16,318.9375 16,321.5625 L16,322.6563 Z "/><text fill="#000000" font-family="sans-serif" font-size="12" font-style="italic" lengthAdjust="spacingAndGlyphs" textLength="98" x="77" y="312.2001">«DatabaseTable»</text><text fill="#000000" font-family="sans-serif" font-size="14" font-weight="bold" lengthAdjust="spacingAndGlyphs" textLength="54" x="99" y="328.2061">OfferDB</text><text fill="#000000" font-family="sans-serif" font-size="10" lengthAdjust="spacingAndGlyphs" textLength="182" x="35" y="341.29">it.matlice.ingsw.model.data.impl.jdbc.db</text></a><!--class it.matlice.ingsw.model.data.LeafCategory--><a target="_parent" xlink:actuate="onRequest" xlink:href="../../../../../../../../it/matlice/ingsw/model/data/LeafCategory.html" xlink:show="new" xlink:title="it.matlice.ingsw.model.data.LeafCategory" xlink:type="simple"><rect fill="#FFFFFF" filter="url(#fbwwnsg)" height="38.7999" style="stroke: #A80036; stroke-width: 1.5;" width="156" x="255" y="302"/><rect fill="#FFFFFF" height="38.7999" style="stroke: #A80036; stroke-width: 1.5;" width="156" x="255" y="302"/><ellipse cx="270" cy="321.4" fill="#ADD1B2" rx="11" ry="11" style="stroke: #A80036; stroke-width: 1.0;"/><path d="M265,322.5562 C265,325.0562 267.1406,326.8687 270.0625,326.8687 C271.2969,326.8687 272.4688,326.5718 273.2188,326.0562 C273.8281,325.6343 274.1563,325.2125 274.1563,324.8062 C274.1563,324.3375 273.7344,323.9312 273.2344,323.9312 C273,323.9312 272.7813,324.0093 272.5781,324.2125 C272.1406,324.65 272.1406,324.65 271.9688,324.7437 C271.5156,324.9781 270.875,325.1187 270.1094,325.1187 C268.1094,325.1187 266.8281,324.1031 266.8281,322.525 L266.8281,321.4781 C266.8281,319.775 268.0469,318.5718 269.75,318.5718 C270.3281,318.5718 270.9063,318.7125 271.375,318.9625 C271.8438,319.2281 272.0156,319.4156 272.0781,319.775 C272.2031,320.4468 272.4531,320.6968 272.9844,320.6968 C273.2656,320.6968 273.5469,320.5562 273.7344,320.3375 C273.8594,320.1656 273.9063,319.9937 273.9063,319.5562 L273.9063,318.1968 C273.9063,317.775 273.8906,317.6343 273.7656,317.4625 C273.5938,317.2125 273.3125,317.0562 272.9844,317.0562 C272.6719,317.0562 272.4688,317.1656 272.25,317.4312 C271.0781,316.9312 270.6406,316.8218 269.6875,316.8218 C267.0156,316.8218 265,318.8375 265,321.4625 L265,322.5562 Z "/><text fill="#000000" font-family="sans-serif" font-size="14" font-weight="bold" lengthAdjust="spacingAndGlyphs" textLength="92" x="300" y="320.0059">LeafCategory</text><text fill="#000000" font-family="sans-serif" font-size="10" lengthAdjust="spacingAndGlyphs" textLength="124" x="284" y="333.0899">it.matlice.ingsw.model.data</text></a><!--class it.matlice.ingsw.model.data.User--><a target="_parent" xlink:actuate="onRequest" xlink:href="../../../../../../../../it/matlice/ingsw/model/data/User.html" xlink:show="new" xlink:title="it.matlice.ingsw.model.data.User" xlink:type="simple"><rect fill="#FFFFFF" filter="url(#fbwwnsg)" height="38.7999" style="stroke: #A80036; stroke-width: 1.5;" width="156" x="446" y="302"/><rect fill="#FFFFFF" height="38.7999" style="stroke: #A80036; stroke-width: 1.5;" width="156" x="446" y="302"/><ellipse cx="461" cy="321.4" fill="#ADD1B2" rx="11" ry="11" style="stroke: #A80036; stroke-width: 1.0;"/><path d="M456,322.5562 C456,325.0562 458.1406,326.8687 461.0625,326.8687 C462.2969,326.8687 463.4688,326.5718 464.2188,326.0562 C464.8281,325.6343 465.1563,325.2125 465.1563,324.8062 C465.1563,324.3375 464.7344,323.9312 464.2344,323.9312 C464,323.9312 463.7813,324.0093 463.5781,324.2125 C463.1406,324.65 463.1406,324.65 462.9688,324.7437 C462.5156,324.9781 461.875,325.1187 461.1094,325.1187 C459.1094,325.1187 457.8281,324.1031 457.8281,322.525 L457.8281,321.4781 C457.8281,319.775 459.0469,318.5718 460.75,318.5718 C461.3281,318.5718 461.9063,318.7125 462.375,318.9625 C462.8438,319.2281 463.0156,319.4156 463.0781,319.775 C463.2031,320.4468 463.4531,320.6968 463.9844,320.6968 C464.2656,320.6968 464.5469,320.5562 464.7344,320.3375 C464.8594,320.1656 464.9063,319.9937 464.9063,319.5562 L464.9063,318.1968 C464.9063,317.775 464.8906,317.6343 464.7656,317.4625 C464.5938,317.2125 464.3125,317.0562 463.9844,317.0562 C463.6719,317.0562 463.4688,317.1656 463.25,317.4312 C462.0781,316.9312 461.6406,316.8218 460.6875,316.8218 C458.0156,316.8218 456,318.8375 456,321.4625 L456,322.5562 Z "/><text fill="#000000" font-family="sans-serif" font-size="14" font-weight="bold" lengthAdjust="spacingAndGlyphs" textLength="31" x="521.5" y="320.0059">User</text><text fill="#000000" font-family="sans-serif" font-size="10" lengthAdjust="spacingAndGlyphs" textLength="124" x="475" y="333.0899">it.matlice.ingsw.model.data</text></a><!--class it.matlice.ingsw.model.data.Offer--><a target="_parent" xlink:actuate="onRequest" xlink:href="../../../../../../../../it/matlice/ingsw/model/data/Offer.html" xlink:show="new" xlink:title="it.matlice.ingsw.model.data.Offer" xlink:type="simple"><rect fill="#FFFFFF" filter="url(#fbwwnsg)" height="38.7999" style="stroke: #A80036; stroke-width: 1.5;" width="156" x="637" y="302"/><rect fill="#FFFFFF" height="38.7999" style="stroke: #A80036; stroke-width: 1.5;" width="156" x="637" y="302"/><ellipse cx="652" cy="321.4" fill="#ADD1B2" rx="11" ry="11" style="stroke: #A80036; stroke-width: 1.0;"/><path d="M647,322.5562 C647,325.0562 649.1406,326.8687 652.0625,326.8687 C653.2969,326.8687 654.4688,326.5718 655.2188,326.0562 C655.8281,325.6343 656.1563,325.2125 656.1563,324.8062 C656.1563,324.3375 655.7344,323.9312 655.2344,323.9312 C655,323.9312 654.7813,324.0093 654.5781,324.2125 C654.1406,324.65 654.1406,324.65 653.9688,324.7437 C653.5156,324.9781 652.875,325.1187 652.1094,325.1187 C650.1094,325.1187 648.8281,324.1031 648.8281,322.525 L648.8281,321.4781 C648.8281,319.775 650.0469,318.5718 651.75,318.5718 C652.3281,318.5718 652.9063,318.7125 653.375,318.9625 C653.8438,319.2281 654.0156,319.4156 654.0781,319.775 C654.2031,320.4468 654.4531,320.6968 654.9844,320.6968 C655.2656,320.6968 655.5469,320.5562 655.7344,320.3375 C655.8594,320.1656 655.9063,319.9937 655.9063,319.5562 L655.9063,318.1968 C655.9063,317.775 655.8906,317.6343 655.7656,317.4625 C655.5938,317.2125 655.3125,317.0562 654.9844,317.0562 C654.6719,317.0562 654.4688,317.1656 654.25,317.4312 C653.0781,316.9312 652.6406,316.8218 651.6875,316.8218 C649.0156,316.8218 647,318.8375 647,321.4625 L647,322.5562 Z "/><text fill="#000000" font-family="sans-serif" font-size="14" font-weight="bold" lengthAdjust="spacingAndGlyphs" textLength="34" x="711" y="320.0059">Offer</text><text fill="#000000" font-family="sans-serif" font-size="10" lengthAdjust="spacingAndGlyphs" textLength="124" x="666" y="333.0899">it.matlice.ingsw.model.data</text></a><!--class it.matlice.ingsw.model.data.Offer.OfferStatus--><a target="_parent" xlink:actuate="onRequest" xlink:href="../../../../../../../../it/matlice/ingsw/model/data/Offer.OfferStatus.html" xlink:show="new" xlink:title="it.matlice.ingsw.model.data.Offer.OfferStatus" xlink:type="simple"><rect fill="#FFFFFF" filter="url(#fbwwnsg)" height="38.7999" style="stroke: #A80036; stroke-width: 1.5;" width="156" x="828" y="302"/><rect fill="#FFFFFF" height="38.7999" style="stroke: #A80036; stroke-width: 1.5;" width="156" x="828" y="302"/><ellipse cx="843" cy="321.4" fill="#EB937F" rx="11" ry="11" style="stroke: #A80036; stroke-width: 1.0;"/><path d="M841.8594,322.4625 L843.1719,322.4625 L843.1719,322.5093 C843.1719,322.9156 843.1875,323.0718 843.2969,323.2281 C843.4688,323.4781 843.7656,323.65 844.0781,323.65 C844.3594,323.65 844.6563,323.5093 844.8281,323.2906 C844.9531,323.1031 845,322.9625 845,322.5093 L845,320.6656 C845,320.3375 844.9844,320.2281 844.9219,320.0562 C844.8125,319.7593 844.4531,319.5093 844.0781,319.5093 C843.7813,319.5093 843.5156,319.65 843.3438,319.8687 C843.2031,320.0562 843.1719,320.2281 843.1719,320.6656 L843.1719,320.7281 L841.8594,320.7281 L841.8594,318.5562 L845.7031,318.5562 L845.7031,319.3062 C845.7031,319.6968 845.7344,319.8843 845.8438,320.0406 C846.0156,320.2906 846.3125,320.4625 846.625,320.4625 C846.9219,320.4625 847.1875,320.3375 847.375,320.1031 C847.5156,319.9156 847.5469,319.775 847.5469,319.3062 L847.5469,316.8062 L839.8438,316.8062 C839.3906,316.8062 839.2656,316.8218 839.0938,316.9312 C838.8281,317.1031 838.6563,317.3687 838.6563,317.6812 C838.6563,317.9625 838.7813,318.2281 839.0313,318.4 C839.2188,318.525 839.4063,318.5562 839.8438,318.5562 L840.0313,318.5562 L840.0313,324.65 L839.8438,324.65 C839.4219,324.65 839.2656,324.6812 839.0938,324.775 C838.8281,324.9312 838.6563,325.2125 838.6563,325.5093 C838.6563,326.0875 839.0625,326.4 839.8438,326.4 L847.9219,326.4 L847.9219,323.8687 C847.9219,323.4625 847.8906,323.2906 847.7813,323.1343 C847.6094,322.8687 847.3281,322.7125 847,322.7125 C846.7188,322.7125 846.4375,322.8531 846.25,323.0718 C846.1094,323.2593 846.0781,323.4156 846.0781,323.8687 L846.0781,324.65 L841.8594,324.65 L841.8594,322.4625 Z "/><text fill="#000000" font-family="sans-serif" font-size="14" font-weight="bold" lengthAdjust="spacingAndGlyphs" textLength="116" x="861" y="320.0059">Offer.OfferStatus</text><text fill="#000000" font-family="sans-serif" font-size="10" lengthAdjust="spacingAndGlyphs" textLength="124" x="857" y="333.0899">it.matlice.ingsw.model.data</text></a><path d="M422.67,234.1 C422.67,268.79 422.67,298 422.67,298 C422.67,298 225,298 225,298 " fill="none" style="stroke: #A80036; stroke-width: 1.0;"/><polygon fill="#A80036" points="220,298,229,302,225,298,229,294,220,298" style="stroke: #A80036; stroke-width: 1.0;"/><text fill="#000000" font-family="sans-serif" font-size="13" lengthAdjust="spacingAndGlyphs" textLength="41" x="221.4478" y="290.5151">dbData</text><path d="M434.33,234.13 C434.33,279.84 434.33,322 434.33,322 C434.33,322 416.09,322 416.09,322 " fill="none" style="stroke: #A80036; stroke-width: 1.0;"/><polygon fill="#A80036" points="411.09,322,420.09,326,416.09,322,420.09,318,411.09,322" style="stroke: #A80036; stroke-width: 1.0;"/><text fill="#000000" font-family="sans-serif" font-size="13" lengthAdjust="spacingAndGlyphs" textLength="50" x="388.2511" y="340.0919">category</text><path d="M524,234.14 C524,234.14 524,296.68 524,296.68 " fill="none" style="stroke: #A80036; stroke-width: 1.0;"/><polygon fill="#A80036" points="524,301.68,528,292.68,524,296.68,520,292.68,524,301.68" style="stroke: #A80036; stroke-width: 1.0;"/><text fill="#000000" font-family="sans-serif" font-size="13" lengthAdjust="spacingAndGlyphs" textLength="34" x="484.7938" y="290.5128">owner</text><path d="M689,234.14 C689,234.14 689,296.68 689,296.68 " fill="none" style="stroke: #A80036; stroke-width: 1.0;"/><polygon fill="#A80036" points="689,301.68,693,292.68,689,296.68,685,292.68,689,301.68" style="stroke: #A80036; stroke-width: 1.0;"/><text fill="#000000" font-family="sans-serif" font-size="13" lengthAdjust="spacingAndGlyphs" textLength="67" x="603.7781" y="290.5128">linked_offer</text><path d="M741,234.14 C741,234.14 741,281.68 741,281.68 " fill="none" style="stroke: #A80036; stroke-width: 1.0;"/><polygon fill="none" points="748,281.68,741,301.68,734,281.68,748,281.68" style="stroke: #A80036; stroke-width: 1.0;"/><path d="M810.5,234.13 C810.5,279.84 810.5,322 810.5,322 C810.5,322 822.57,322 822.57,322 " fill="none" style="stroke: #A80036; stroke-width: 1.0; stroke-dasharray: 7.0,7.0;"/><polygon fill="#A80036" points="827.57,322,818.57,318,822.57,322,818.57,326,827.57,322" style="stroke: #A80036; stroke-width: 1.0;"/></g></svg>