<?xml version="1.0" encoding="UTF-8" standalone="no"?><svg xmlns="http://www.w3.org/2000/svg" xmlns:xlink="http://www.w3.org/1999/xlink" contentScriptType="application/ecmascript" contentStyleType="text/css" height="206px" preserveAspectRatio="none" style="width:1101px;height:206px;" version="1.1" viewBox="0 0 1101 206" width="1101px" zoomAndPan="magnify"><defs><filter height="300%" id="fbdl2ua" width="300%" x="-1" y="-1"><feGaussianBlur result="blurOut" stdDeviation="2.0"/><feColorMatrix in="blurOut" result="blurOut2" type="matrix" values="0 0 0 0 0 0 0 0 0 0 0 0 0 0 0 0 0 0 .4 0"/><feOffset dx="4.0" dy="4.0" in="blurOut2" result="blurOut3"/><feBlend in="SourceGraphic" in2="blurOut3" mode="normal"/></filter></defs><g><!--cluster it.matlice.ingsw.model.data.impl.jdbc.types--><a target="_parent" xlink:actuate="onRequest" xlink:href="../../../../../../../../it/matlice/ingsw/model/data/impl/jdbc/types/package-summary.html" xlink:show="new" xlink:title="it.matlice.ingsw.model.data.impl.jdbc.types" xlink:type="simple"><polygon fill="#FFFFE0" filter="url(#fbdl2ua)" points="22,24,324,24,331,46.7999,1094,46.7999,1094,199,22,199,22,24" style="stroke: #000000; stroke-width: 2.0;"/><line style="stroke: #000000; stroke-width: 2.0;" x1="22" x2="331" y1="46.7999" y2="46.7999"/><text fill="#000000" font-family="sans-serif" font-size="14" font-weight="bold" lengthAdjust="spacingAndGlyphs" textLength="296" x="26" y="39.0059">it.matlice.ingsw.model.data.impl.jdbc.types</text></a><!--class it.matlice.ingsw.model.data.impl.jdbc.types.UserImpl--><a target="_parent" xlink:actuate="onRequest" xlink:href="../../../../../../../../it/matlice/ingsw/model/data/impl/jdbc/types/UserImpl.html" xlink:show="new" xlink:title="it.matlice.ingsw.model.data.impl.jdbc.types.UserImpl" xlink:type="simple"><rect fill="#FEFECE" filter="url(#fbdl2ua)" height="32" style="stroke: #A80036; stroke-width: 1.5;" width="92" x="184" y="151"/><ellipse cx="199" cy="167" fill="#B4A7E5" rx="11" ry="11" style="stroke: #A80036; stroke-width: 1.0;"/><path d="M200.0156,164.1563 L201.6719,164.1563 C202.0625,164.1563 202.2656,164.125 202.4219,164.0469 C202.6875,163.875 202.8594,163.5781 202.8594,163.2813 C202.8594,163 202.7188,162.75 202.4844,162.5781 C202.2969,162.4531 202.1406,162.4063 201.6719,162.4063 L196.5313,162.4063 C196.0938,162.4063 195.9531,162.4219 195.7813,162.5313 C195.5156,162.7031 195.3438,162.9844 195.3438,163.2813 C195.3438,163.5625 195.4844,163.8438 195.7188,164 C195.9063,164.125 196.0938,164.1563 196.5313,164.1563 L198.1875,164.1563 L198.1875,170.25 L196.5313,170.25 C196.0938,170.25 195.9531,170.2656 195.7813,170.375 C195.5156,170.5313 195.3438,170.8281 195.3438,171.1094 C195.3438,171.7188 195.75,172 196.5313,172 L201.6719,172 C202.4531,172 202.8594,171.7188 202.8594,171.1094 C202.8594,170.8438 202.7188,170.5938 202.4844,170.4219 C202.2969,170.2813 202.125,170.25 201.6719,170.25 L200.0156,170.25 L200.0156,164.1563 Z "/><text fill="#000000" font-family="sans-serif" font-size="14" font-style="italic" font-weight="bold" lengthAdjust="spacingAndGlyphs" textLength="60" x="213" y="172.95">UserImpl</text></a><!--class it.matlice.ingsw.model.data.impl.jdbc.types.SettingsImpl--><a target="_parent" xlink:actuate="onRequest" xlink:href="../../../../../../../../it/matlice/ingsw/model/data/impl/jdbc/types/SettingsImpl.html" xlink:show="new" xlink:title="it.matlice.ingsw.model.data.impl.jdbc.types.SettingsImpl" xlink:type="simple"><rect fill="#FEFECE" filter="url(#fbdl2ua)" height="32" style="stroke: #A80036; stroke-width: 1.5;" width="118" x="829" y="59"/><ellipse cx="844" cy="75" fill="#ADD1B2" rx="11" ry="11" style="stroke: #A80036; stroke-width: 1.0;"/><path d="M839,76.1563 C839,78.6563 841.1406,80.4688 844.0625,80.4688 C845.2969,80.4688 846.4688,80.1719 847.2188,79.6563 C847.8281,79.2344 848.1563,78.8125 848.1563,78.4063 C848.1563,77.9375 847.7344,77.5313 847.2344,77.5313 C847,77.5313 846.7813,77.6094 846.5781,77.8125 C846.1406,78.25 846.1406,78.25 845.9688,78.3438 C845.5156,78.5781 844.875,78.7188 844.1094,78.7188 C842.1094,78.7188 840.8281,77.7031 840.8281,76.125 L840.8281,75.0781 C840.8281,73.375 842.0469,72.1719 843.75,72.1719 C844.3281,72.1719 844.9063,72.3125 845.375,72.5625 C845.8438,72.8281 846.0156,73.0156 846.0781,73.375 C846.2031,74.0469 846.4531,74.2969 846.9844,74.2969 C847.2656,74.2969 847.5469,74.1563 847.7344,73.9375 C847.8594,73.7656 847.9063,73.5938 847.9063,73.1563 L847.9063,71.7969 C847.9063,71.375 847.8906,71.2344 847.7656,71.0625 C847.5938,70.8125 847.3125,70.6563 846.9844,70.6563 C846.6719,70.6563 846.4688,70.7656 846.25,71.0313 C845.0781,70.5313 844.6406,70.4219 843.6875,70.4219 C841.0156,70.4219 839,72.4375 839,75.0625 L839,76.1563 Z "/><text fill="#000000" font-family="sans-serif" font-size="14" font-weight="bold" lengthAdjust="spacingAndGlyphs" textLength="86" x="858" y="79.606">SettingsImpl</text></a><!--class it.matlice.ingsw.model.data.impl.jdbc.types.OfferImpl--><a target="_parent" xlink:actuate="onRequest" xlink:href="../../../../../../../../it/matlice/ingsw/model/data/impl/jdbc/types/OfferImpl.html" xlink:show="new" xlink:title="it.matlice.ingsw.model.data.impl.jdbc.types.OfferImpl" xlink:type="simple"><rect fill="#FEFECE" filter="url(#fbdl2ua)" height="32" style="stroke: #A80036; stroke-width: 1.5;" width="95" x="982.5" y="59"/><ellipse cx="997.5" cy="75" fill="#ADD1B2" rx="11" ry="11" style="stroke: #A80036; stroke-width: 1.0;"/><path d="M992.5,76.1563 C992.5,78.6563 994.6406,80.4688 997.5625,80.4688 C998.7969,80.4688 999.9688,80.1719 1000.7188,79.6563 C1001.3281,79.2344 1001.6563,78.8125 1001.6563,78.4063 C1001.6563,77.9375 1001.2344,77.5313 1000.7344,77.5313 C1000.5,77.5313 1000.2813,77.6094 1000.0781,77.8125 C999.6406,78.25 999.6406,78.25 999.4688,78.3438 C999.0156,78.5781 998.375,78.7188 997.6094,78.7188 C995.6094,78.7188 994.3281,77.7031 994.3281,76.125 L994.3281,75.0781 C994.3281,73.375 995.5469,72.1719 997.25,72.1719 C997.8281,72.1719 998.4063,72.3125 998.875,72.5625 C999.3438,72.8281 999.5156,73.0156 999.5781,73.375 C999.7031,74.0469 999.9531,74.2969 1000.4844,74.2969 C1000.7656,74.2969 1001.0469,74.1563 1001.2344,73.9375 C1001.3594,73.7656 1001.4063,73.5938 1001.4063,73.1563 L1001.4063,71.7969 C1001.4063,71.375 1001.3906,71.2344 1001.2656,71.0625 C1001.0938,70.8125 1000.8125,70.6563 1000.4844,70.6563 C1000.1719,70.6563 999.9688,70.7656 999.75,71.0313 C998.5781,70.5313 998.1406,70.4219 997.1875,70.4219 C994.5156,70.4219 992.5,72.4375 992.5,75.0625 L992.5,76.1563 Z "/><text fill="#000000" font-family="sans-serif" font-size="14" font-weight="bold" lengthAdjust="spacingAndGlyphs" textLength="63" x="1011.5" y="79.606">OfferImpl</text></a><!--class it.matlice.ingsw.model.data.impl.jdbc.types.NodeCategoryImpl--><a target="_parent" xlink:actuate="onRequest" xlink:href="../../../../../../../../it/matlice/ingsw/model/data/impl/jdbc/types/NodeCategoryImpl.html" xlink:show="new" xlink:title="it.matlice.ingsw.model.data.impl.jdbc.types.NodeCategoryImpl" xlink:type="simple"><rect fill="#FEFECE" filter="url(#fbdl2ua)" height="32" style="stroke: #A80036; stroke-width: 1.5;" width="159" x="634.5" y="59"/><ellipse cx="649.5" cy="75" fill="#ADD1B2" rx="11" ry="11" style="stroke: #A80036; stroke-width: 1.0;"/><path d="M644.5,76.1563 C644.5,78.6563 646.6406,80.4688 649.5625,80.4688 C650.7969,80.4688 651.9688,80.1719 652.7188,79.6563 C653.3281,79.2344 653.6563,78.8125 653.6563,78.4063 C653.6563,77.9375 653.2344,77.5313 652.7344,77.5313 C652.5,77.5313 652.2813,77.6094 652.0781,77.8125 C651.6406,78.25 651.6406,78.25 651.4688,78.3438 C651.0156,78.5781 650.375,78.7188 649.6094,78.7188 C647.6094,78.7188 646.3281,77.7031 646.3281,76.125 L646.3281,75.0781 C646.3281,73.375 647.5469,72.1719 649.25,72.1719 C649.8281,72.1719 650.4063,72.3125 650.875,72.5625 C651.3438,72.8281 651.5156,73.0156 651.5781,73.375 C651.7031,74.0469 651.9531,74.2969 652.4844,74.2969 C652.7656,74.2969 653.0469,74.1563 653.2344,73.9375 C653.3594,73.7656 653.4063,73.5938 653.4063,73.1563 L653.4063,71.7969 C653.4063,71.375 653.3906,71.2344 653.2656,71.0625 C653.0938,70.8125 652.8125,70.6563 652.4844,70.6563 C652.1719,70.6563 651.9688,70.7656 651.75,71.0313 C650.5781,70.5313 650.1406,70.4219 649.1875,70.4219 C646.5156,70.4219 644.5,72.4375 644.5,75.0625 L644.5,76.1563 Z "/><text fill="#000000" font-family="sans-serif" font-size="14" font-weight="bold" lengthAdjust="spacingAndGlyphs" textLength="127" x="663.5" y="79.606">NodeCategoryImpl</text></a><!--class it.matlice.ingsw.model.data.impl.jdbc.types.MessageImpl--><a target="_parent" xlink:actuate="onRequest" xlink:href="../../../../../../../../it/matlice/ingsw/model/data/impl/jdbc/types/MessageImpl.html" xlink:show="new" xlink:title="it.matlice.ingsw.model.data.impl.jdbc.types.MessageImpl" xlink:type="simple"><rect fill="#FEFECE" filter="url(#fbdl2ua)" height="32" style="stroke: #A80036; stroke-width: 1.5;" width="122" x="795" y="151"/><ellipse cx="810" cy="167" fill="#ADD1B2" rx="11" ry="11" style="stroke: #A80036; stroke-width: 1.0;"/><path d="M805,168.1563 C805,170.6563 807.1406,172.4688 810.0625,172.4688 C811.2969,172.4688 812.4688,172.1719 813.2188,171.6563 C813.8281,171.2344 814.1563,170.8125 814.1563,170.4063 C814.1563,169.9375 813.7344,169.5313 813.2344,169.5313 C813,169.5313 812.7813,169.6094 812.5781,169.8125 C812.1406,170.25 812.1406,170.25 811.9688,170.3438 C811.5156,170.5781 810.875,170.7188 810.1094,170.7188 C808.1094,170.7188 806.8281,169.7031 806.8281,168.125 L806.8281,167.0781 C806.8281,165.375 808.0469,164.1719 809.75,164.1719 C810.3281,164.1719 810.9063,164.3125 811.375,164.5625 C811.8438,164.8281 812.0156,165.0156 812.0781,165.375 C812.2031,166.0469 812.4531,166.2969 812.9844,166.2969 C813.2656,166.2969 813.5469,166.1563 813.7344,165.9375 C813.8594,165.7656 813.9063,165.5938 813.9063,165.1563 L813.9063,163.7969 C813.9063,163.375 813.8906,163.2344 813.7656,163.0625 C813.5938,162.8125 813.3125,162.6563 812.9844,162.6563 C812.6719,162.6563 812.4688,162.7656 812.25,163.0313 C811.0781,162.5313 810.6406,162.4219 809.6875,162.4219 C807.0156,162.4219 805,164.4375 805,167.0625 L805,168.1563 Z "/><text fill="#000000" font-family="sans-serif" font-size="14" font-weight="bold" lengthAdjust="spacingAndGlyphs" textLength="90" x="824" y="171.606">MessageImpl</text></a><!--class it.matlice.ingsw.model.data.impl.jdbc.types.LeafCategoryImpl--><a target="_parent" xlink:actuate="onRequest" xlink:href="../../../../../../../../it/matlice/ingsw/model/data/impl/jdbc/types/LeafCategoryImpl.html" xlink:show="new" xlink:title="it.matlice.ingsw.model.data.impl.jdbc.types.LeafCategoryImpl" xlink:type="simple"><rect fill="#FEFECE" filter="url(#fbdl2ua)" height="32" style="stroke: #A80036; stroke-width: 1.5;" width="153" x="446.5" y="59"/><ellipse cx="461.5" cy="75" fill="#ADD1B2" rx="11" ry="11" style="stroke: #A80036; stroke-width: 1.0;"/><path d="M456.5,76.1563 C456.5,78.6563 458.6406,80.4688 461.5625,80.4688 C462.7969,80.4688 463.9688,80.1719 464.7188,79.6563 C465.3281,79.2344 465.6563,78.8125 465.6563,78.4063 C465.6563,77.9375 465.2344,77.5313 464.7344,77.5313 C464.5,77.5313 464.2813,77.6094 464.0781,77.8125 C463.6406,78.25 463.6406,78.25 463.4688,78.3438 C463.0156,78.5781 462.375,78.7188 461.6094,78.7188 C459.6094,78.7188 458.3281,77.7031 458.3281,76.125 L458.3281,75.0781 C458.3281,73.375 459.5469,72.1719 461.25,72.1719 C461.8281,72.1719 462.4063,72.3125 462.875,72.5625 C463.3438,72.8281 463.5156,73.0156 463.5781,73.375 C463.7031,74.0469 463.9531,74.2969 464.4844,74.2969 C464.7656,74.2969 465.0469,74.1563 465.2344,73.9375 C465.3594,73.7656 465.4063,73.5938 465.4063,73.1563 L465.4063,71.7969 C465.4063,71.375 465.3906,71.2344 465.2656,71.0625 C465.0938,70.8125 464.8125,70.6563 464.4844,70.6563 C464.1719,70.6563 463.9688,70.7656 463.75,71.0313 C462.5781,70.5313 462.1406,70.4219 461.1875,70.4219 C458.5156,70.4219 456.5,72.4375 456.5,75.0625 L456.5,76.1563 Z "/><text fill="#000000" font-family="sans-serif" font-size="14" font-weight="bold" lengthAdjust="spacingAndGlyphs" textLength="121" x="475.5" y="79.606">LeafCategoryImpl</text></a><!--class it.matlice.ingsw.model.data.impl.jdbc.types.HierarchyImpl--><a target="_parent" xlink:actuate="onRequest" xlink:href="../../../../../../../../it/matlice/ingsw/model/data/impl/jdbc/types/HierarchyImpl.html" xlink:show="new" xlink:title="it.matlice.ingsw.model.data.impl.jdbc.types.HierarchyImpl" xlink:type="simple"><rect fill="#FEFECE" filter="url(#fbdl2ua)" height="32" style="stroke: #A80036; stroke-width: 1.5;" width="126" x="952" y="151"/><ellipse cx="967" cy="167" fill="#ADD1B2" rx="11" ry="11" style="stroke: #A80036; stroke-width: 1.0;"/><path d="M962,168.1563 C962,170.6563 964.1406,172.4688 967.0625,172.4688 C968.2969,172.4688 969.4688,172.1719 970.2188,171.6563 C970.8281,171.2344 971.1563,170.8125 971.1563,170.4063 C971.1563,169.9375 970.7344,169.5313 970.2344,169.5313 C970,169.5313 969.7813,169.6094 969.5781,169.8125 C969.1406,170.25 969.1406,170.25 968.9688,170.3438 C968.5156,170.5781 967.875,170.7188 967.1094,170.7188 C965.1094,170.7188 963.8281,169.7031 963.8281,168.125 L963.8281,167.0781 C963.8281,165.375 965.0469,164.1719 966.75,164.1719 C967.3281,164.1719 967.9063,164.3125 968.375,164.5625 C968.8438,164.8281 969.0156,165.0156 969.0781,165.375 C969.2031,166.0469 969.4531,166.2969 969.9844,166.2969 C970.2656,166.2969 970.5469,166.1563 970.7344,165.9375 C970.8594,165.7656 970.9063,165.5938 970.9063,165.1563 L970.9063,163.7969 C970.9063,163.375 970.8906,163.2344 970.7656,163.0625 C970.5938,162.8125 970.3125,162.6563 969.9844,162.6563 C969.6719,162.6563 969.4688,162.7656 969.25,163.0313 C968.0781,162.5313 967.6406,162.4219 966.6875,162.4219 C964.0156,162.4219 962,164.4375 962,167.0625 L962,168.1563 Z "/><text fill="#000000" font-family="sans-serif" font-size="14" font-weight="bold" lengthAdjust="spacingAndGlyphs" textLength="94" x="981" y="171.606">HierarchyImpl</text></a><!--class it.matlice.ingsw.model.data.impl.jdbc.types.CustomerUserImpl--><a target="_parent" xlink:actuate="onRequest" xlink:href="../../../../../../../../it/matlice/ingsw/model/data/impl/jdbc/types/CustomerUserImpl.html" xlink:show="new" xlink:title="it.matlice.ingsw.model.data.impl.jdbc.types.CustomerUserImpl" xlink:type="simple"><rect fill="#FEFECE" filter="url(#fbdl2ua)" height="32" style="stroke: #A80036; stroke-width: 1.5;" width="158" x="253" y="59"/><ellipse cx="268" cy="75" fill="#ADD1B2" rx="11" ry="11" style="stroke: #A80036; stroke-width: 1.0;"/><path d="M263,76.1563 C263,78.6563 265.1406,80.4688 268.0625,80.4688 C269.2969,80.4688 270.4688,80.1719 271.2188,79.6563 C271.8281,79.2344 272.1563,78.8125 272.1563,78.4063 C272.1563,77.9375 271.7344,77.5313 271.2344,77.5313 C271,77.5313 270.7813,77.6094 270.5781,77.8125 C270.1406,78.25 270.1406,78.25 269.9688,78.3438 C269.5156,78.5781 268.875,78.7188 268.1094,78.7188 C266.1094,78.7188 264.8281,77.7031 264.8281,76.125 L264.8281,75.0781 C264.8281,73.375 266.0469,72.1719 267.75,72.1719 C268.3281,72.1719 268.9063,72.3125 269.375,72.5625 C269.8438,72.8281 270.0156,73.0156 270.0781,73.375 C270.2031,74.0469 270.4531,74.2969 270.9844,74.2969 C271.2656,74.2969 271.5469,74.1563 271.7344,73.9375 C271.8594,73.7656 271.9063,73.5938 271.9063,73.1563 L271.9063,71.7969 C271.9063,71.375 271.8906,71.2344 271.7656,71.0625 C271.5938,70.8125 271.3125,70.6563 270.9844,70.6563 C270.6719,70.6563 270.4688,70.7656 270.25,71.0313 C269.0781,70.5313 268.6406,70.4219 267.6875,70.4219 C265.0156,70.4219 263,72.4375 263,75.0625 L263,76.1563 Z "/><text fill="#000000" font-family="sans-serif" font-size="14" font-weight="bold" lengthAdjust="spacingAndGlyphs" textLength="126" x="282" y="79.606">CustomerUserImpl</text></a><!--class it.matlice.ingsw.model.data.impl.jdbc.types.ConfiguratorUserImpl--><a target="_parent" xlink:actuate="onRequest" xlink:href="../../../../../../../../it/matlice/ingsw/model/data/impl/jdbc/types/ConfiguratorUserImpl.html" xlink:show="new" xlink:title="it.matlice.ingsw.model.data.impl.jdbc.types.ConfiguratorUserImpl" xlink:type="simple"><rect fill="#FEFECE" filter="url(#fbdl2ua)" height="32" style="stroke: #A80036; stroke-width: 1.5;" width="179" x="38.5" y="59"/><ellipse cx="53.5" cy="75" fill="#ADD1B2" rx="11" ry="11" style="stroke: #A80036; stroke-width: 1.0;"/><path d="M48.5,76.1563 C48.5,78.6563 50.6406,80.4688 53.5625,80.4688 C54.7969,80.4688 55.9688,80.1719 56.7188,79.6563 C57.3281,79.2344 57.6563,78.8125 57.6563,78.4063 C57.6563,77.9375 57.2344,77.5313 56.7344,77.5313 C56.5,77.5313 56.2813,77.6094 56.0781,77.8125 C55.6406,78.25 55.6406,78.25 55.4688,78.3438 C55.0156,78.5781 54.375,78.7188 53.6094,78.7188 C51.6094,78.7188 50.3281,77.7031 50.3281,76.125 L50.3281,75.0781 C50.3281,73.375 51.5469,72.1719 53.25,72.1719 C53.8281,72.1719 54.4063,72.3125 54.875,72.5625 C55.3438,72.8281 55.5156,73.0156 55.5781,73.375 C55.7031,74.0469 55.9531,74.2969 56.4844,74.2969 C56.7656,74.2969 57.0469,74.1563 57.2344,73.9375 C57.3594,73.7656 57.4063,73.5938 57.4063,73.1563 L57.4063,71.7969 C57.4063,71.375 57.3906,71.2344 57.2656,71.0625 C57.0938,70.8125 56.8125,70.6563 56.4844,70.6563 C56.1719,70.6563 55.9688,70.7656 55.75,71.0313 C54.5781,70.5313 54.1406,70.4219 53.1875,70.4219 C50.5156,70.4219 48.5,72.4375 48.5,75.0625 L48.5,76.1563 Z "/><text fill="#000000" font-family="sans-serif" font-size="14" font-weight="bold" lengthAdjust="spacingAndGlyphs" textLength="147" x="67.5" y="79.606">ConfiguratorUserImpl</text></a><!--class it.matlice.ingsw.model.data.impl.jdbc.types.CategoryImpl--><a target="_parent" xlink:actuate="onRequest" xlink:href="../../../../../../../../it/matlice/ingsw/model/data/impl/jdbc/types/CategoryImpl.html" xlink:show="new" xlink:title="it.matlice.ingsw.model.data.impl.jdbc.types.CategoryImpl" xlink:type="simple"><rect fill="#FEFECE" filter="url(#fbdl2ua)" height="32" style="stroke: #A80036; stroke-width: 1.5;" width="123" x="548.5" y="151"/><ellipse cx="563.5" cy="167" fill="#B4A7E5" rx="11" ry="11" style="stroke: #A80036; stroke-width: 1.0;"/><path d="M564.5156,164.1563 L566.1719,164.1563 C566.5625,164.1563 566.7656,164.125 566.9219,164.0469 C567.1875,163.875 567.3594,163.5781 567.3594,163.2813 C567.3594,163 567.2188,162.75 566.9844,162.5781 C566.7969,162.4531 566.6406,162.4063 566.1719,162.4063 L561.0313,162.4063 C560.5938,162.4063 560.4531,162.4219 560.2813,162.5313 C560.0156,162.7031 559.8438,162.9844 559.8438,163.2813 C559.8438,163.5625 559.9844,163.8438 560.2188,164 C560.4063,164.125 560.5938,164.1563 561.0313,164.1563 L562.6875,164.1563 L562.6875,170.25 L561.0313,170.25 C560.5938,170.25 560.4531,170.2656 560.2813,170.375 C560.0156,170.5313 559.8438,170.8281 559.8438,171.1094 C559.8438,171.7188 560.25,172 561.0313,172 L566.1719,172 C566.9531,172 567.3594,171.7188 567.3594,171.1094 C567.3594,170.8438 567.2188,170.5938 566.9844,170.4219 C566.7969,170.2813 566.625,170.25 566.1719,170.25 L564.5156,170.25 L564.5156,164.1563 Z "/><text fill="#000000" font-family="sans-serif" font-size="14" font-style="italic" font-weight="bold" lengthAdjust="spacingAndGlyphs" textLength="91" x="577.5" y="172.95">CategoryImpl</text></a><path d="M653,91.03 C653,91.03 653,130.85 653,130.85 " fill="none" style="stroke: #A80036; stroke-width: 1.0; stroke-dasharray: 7.0,7.0;"/><polygon fill="none" points="660,130.85,653,150.85,646,130.85,660,130.85" style="stroke: #A80036; stroke-width: 1.0;"/><path d="M574,91.03 C574,91.03 574,130.85 574,130.85 " fill="none" style="stroke: #A80036; stroke-width: 1.0; stroke-dasharray: 7.0,7.0;"/><polygon fill="none" points="581,130.85,574,150.85,567,130.85,581,130.85" style="stroke: #A80036; stroke-width: 1.0;"/><path d="M264.5,91.03 C264.5,91.03 264.5,130.85 264.5,130.85 " fill="none" style="stroke: #A80036; stroke-width: 1.0; stroke-dasharray: 7.0,7.0;"/><polygon fill="none" points="271.5,130.85,264.5,150.85,257.5,130.85,271.5,130.85" style="stroke: #A80036; stroke-width: 1.0;"/><path d="M200.75,91.03 C200.75,91.03 200.75,130.85 200.75,130.85 " fill="none" style="stroke: #A80036; stroke-width: 1.0; stroke-dasharray: 7.0,7.0;"/><polygon fill="none" points="207.75,130.85,200.75,150.85,193.75,130.85,207.75,130.85" style="stroke: #A80036; stroke-width: 1.0;"/></g></svg>