<?xml version="1.0" encoding="UTF-8" standalone="no"?><svg xmlns="http://www.w3.org/2000/svg" xmlns:xlink="http://www.w3.org/1999/xlink" contentScriptType="application/ecmascript" contentStyleType="text/css" height="332px" preserveAspectRatio="none" style="width:1549px;height:332px;" version="1.1" viewBox="0 0 1549 332" width="1549px" zoomAndPan="magnify"><defs><filter height="300%" id="fp0xcye" width="300%" x="-1" y="-1"><feGaussianBlur result="blurOut" stdDeviation="2.0"/><feColorMatrix in="blurOut" result="blurOut2" type="matrix" values="0 0 0 0 0 0 0 0 0 0 0 0 0 0 0 0 0 0 .4 0"/><feOffset dx="4.0" dy="4.0" in="blurOut2" result="blurOut3"/><feBlend in="SourceGraphic" in2="blurOut3" mode="normal"/></filter></defs><g><!--class it.matlice.ingsw.model.data.impl.jdbc.types.SettingsImpl--><a target="_parent" xlink:actuate="onRequest" xlink:href="../../../../../../../../it/matlice/ingsw/model/data/impl/jdbc/types/SettingsImpl.html" xlink:show="new" xlink:title="it.matlice.ingsw.model.data.impl.jdbc.types.SettingsImpl" xlink:type="simple"><rect fill="#FEFECE" filter="url(#fp0xcye)" height="199.9988" style="stroke: #A80036; stroke-width: 1.5;" width="601" x="559.5" y="8"/><ellipse cx="758.25" cy="27.4" fill="#ADD1B2" rx="11" ry="11" style="stroke: #A80036; stroke-width: 1.0;"/><path d="M753.25,28.5562 C753.25,31.0562 755.3906,32.8687 758.3125,32.8687 C759.5469,32.8687 760.7188,32.5718 761.4688,32.0562 C762.0781,31.6343 762.4063,31.2125 762.4063,30.8062 C762.4063,30.3375 761.9844,29.9312 761.4844,29.9312 C761.25,29.9312 761.0313,30.0093 760.8281,30.2125 C760.3906,30.65 760.3906,30.65 760.2188,30.7437 C759.7656,30.9781 759.125,31.1187 758.3594,31.1187 C756.3594,31.1187 755.0781,30.1031 755.0781,28.525 L755.0781,27.4781 C755.0781,25.775 756.2969,24.5718 758,24.5718 C758.5781,24.5718 759.1563,24.7125 759.625,24.9625 C760.0938,25.2281 760.2656,25.4156 760.3281,25.775 C760.4531,26.4468 760.7031,26.6968 761.2344,26.6968 C761.5156,26.6968 761.7969,26.5562 761.9844,26.3375 C762.1094,26.1656 762.1563,25.9937 762.1563,25.5562 L762.1563,24.1968 C762.1563,23.775 762.1406,23.6343 762.0156,23.4625 C761.8438,23.2125 761.5625,23.0562 761.2344,23.0562 C760.9219,23.0562 760.7188,23.1656 760.5,23.4312 C759.3281,22.9312 758.8906,22.8218 757.9375,22.8218 C755.2656,22.8218 753.25,24.8375 753.25,27.4625 L753.25,28.5562 Z "/><text fill="#000000" font-family="sans-serif" font-size="14" font-weight="bold" lengthAdjust="spacingAndGlyphs" textLength="86" x="833.25" y="26.0059">SettingsImpl</text><text fill="#000000" font-family="sans-serif" font-size="10" lengthAdjust="spacingAndGlyphs" textLength="195" x="778.75" y="39.0899">it.matlice.ingsw.model.data.impl.jdbc.types</text><line style="stroke: #A80036; stroke-width: 1.5;" x1="560.5" x2="1159.5" y1="46.7999" y2="46.7999"/><rect fill="none" height="6" style="stroke: #C82930; stroke-width: 1.0;" width="6" x="567.5" y="55.8999"/><text fill="#000000" font-family="sans-serif" font-size="11" lengthAdjust="spacingAndGlyphs" textLength="92" x="579.5" y="61.0188">SettingsDB dbData</text><rect fill="none" height="6" style="stroke: #C82930; stroke-width: 1.0;" width="6" x="567.5" y="69.0998"/><text fill="#000000" font-family="sans-serif" font-size="11" lengthAdjust="spacingAndGlyphs" textLength="153" x="579.5" y="74.2187">List&lt;LocationsDB&gt; dbLocations</text><rect fill="none" height="6" style="stroke: #C82930; stroke-width: 1.0;" width="6" x="567.5" y="82.2997"/><text fill="#000000" font-family="sans-serif" font-size="11" lengthAdjust="spacingAndGlyphs" textLength="143" x="579.5" y="87.4186">List&lt;IntervalsDB&gt; dbIntervals</text><rect fill="none" height="6" style="stroke: #C82930; stroke-width: 1.0;" width="6" x="567.5" y="95.4996"/><text fill="#000000" font-family="sans-serif" font-size="11" lengthAdjust="spacingAndGlyphs" textLength="111" x="579.5" y="100.6185">List&lt;DaysDB&gt; dbDays</text><line style="stroke: #A80036; stroke-width: 1.5;" x1="560.5" x2="1159.5" y1="107.5995" y2="107.5995"/><ellipse cx="570.5" cy="119.6995" fill="#84BE84" rx="3" ry="3" style="stroke: #038048; stroke-width: 1.0;"/><text fill="#000000" font-family="sans-serif" font-size="11" lengthAdjust="spacingAndGlyphs" textLength="575" x="579.5" y="121.8184">SettingsImpl(SettingsDB dbData,List&lt;LocationsDB&gt; dbLocations,List&lt;IntervalsDB&gt; dbIntervals,List&lt;DaysDB&gt; dbDays)</text><ellipse cx="570.5" cy="132.8994" fill="#84BE84" rx="3" ry="3" style="stroke: #038048; stroke-width: 1.0;"/><text fill="#000000" font-family="sans-serif" font-size="11" lengthAdjust="spacingAndGlyphs" textLength="73" x="579.5" y="135.0183">String getCity()</text><ellipse cx="570.5" cy="146.0993" fill="#84BE84" rx="3" ry="3" style="stroke: #038048; stroke-width: 1.0;"/><text fill="#000000" font-family="sans-serif" font-size="11" lengthAdjust="spacingAndGlyphs" textLength="117" x="579.5" y="148.2182">SettingsDB getDbData()</text><ellipse cx="570.5" cy="159.2992" fill="#84BE84" rx="3" ry="3" style="stroke: #038048; stroke-width: 1.0;"/><text fill="#000000" font-family="sans-serif" font-size="11" lengthAdjust="spacingAndGlyphs" textLength="57" x="579.5" y="161.4182">int getDue()</text><ellipse cx="570.5" cy="172.4991" fill="#84BE84" rx="3" ry="3" style="stroke: #038048; stroke-width: 1.0;"/><text fill="#000000" font-family="sans-serif" font-size="11" lengthAdjust="spacingAndGlyphs" textLength="130" x="579.5" y="174.6181">List&lt;String&gt; getLocations()</text><ellipse cx="570.5" cy="185.699" fill="#84BE84" rx="3" ry="3" style="stroke: #038048; stroke-width: 1.0;"/><text fill="#000000" font-family="sans-serif" font-size="11" lengthAdjust="spacingAndGlyphs" textLength="133" x="579.5" y="187.818">List&lt;Interval&gt; getIntervals()</text><ellipse cx="570.5" cy="198.8989" fill="#84BE84" rx="3" ry="3" style="stroke: #038048; stroke-width: 1.0;"/><text fill="#000000" font-family="sans-serif" font-size="11" lengthAdjust="spacingAndGlyphs" textLength="101" x="579.5" y="201.0179">List&lt;Day&gt; getDays()</text></a><!--class it.matlice.ingsw.model.data.impl.jdbc.db.SettingsDB--><a target="_parent" xlink:actuate="onRequest" xlink:href="../../../../../../../../it/matlice/ingsw/model/data/impl/jdbc/db/SettingsDB.html" xlink:show="new" xlink:title="it.matlice.ingsw.model.data.impl.jdbc.db.SettingsDB" xlink:type="simple"><rect fill="#FFFFFF" filter="url(#fp0xcye)" height="55" style="stroke: #A80036; stroke-width: 1.5;" width="214" x="6" y="268"/><rect fill="#FFFFFF" height="55" style="stroke: #A80036; stroke-width: 1.5;" width="214" x="6" y="268"/><ellipse cx="21" cy="295.5" fill="#ADD1B2" rx="11" ry="11" style="stroke: #A80036; stroke-width: 1.0;"/><path d="M16,296.6563 C16,299.1563 18.1406,300.9688 21.0625,300.9688 C22.2969,300.9688 23.4688,300.6719 24.2188,300.1563 C24.8281,299.7344 25.1563,299.3125 25.1563,298.9063 C25.1563,298.4375 24.7344,298.0313 24.2344,298.0313 C24,298.0313 23.7813,298.1094 23.5781,298.3125 C23.1406,298.75 23.1406,298.75 22.9688,298.8438 C22.5156,299.0781 21.875,299.2188 21.1094,299.2188 C19.1094,299.2188 17.8281,298.2031 17.8281,296.625 L17.8281,295.5781 C17.8281,293.875 19.0469,292.6719 20.75,292.6719 C21.3281,292.6719 21.9063,292.8125 22.375,293.0625 C22.8438,293.3281 23.0156,293.5156 23.0781,293.875 C23.2031,294.5469 23.4531,294.7969 23.9844,294.7969 C24.2656,294.7969 24.5469,294.6563 24.7344,294.4375 C24.8594,294.2656 24.9063,294.0938 24.9063,293.6563 L24.9063,292.2969 C24.9063,291.875 24.8906,291.7344 24.7656,291.5625 C24.5938,291.3125 24.3125,291.1563 23.9844,291.1563 C23.6719,291.1563 23.4688,291.2656 23.25,291.5313 C22.0781,291.0313 21.6406,290.9219 20.6875,290.9219 C18.0156,290.9219 16,292.9375 16,295.5625 L16,296.6563 Z "/><text fill="#000000" font-family="sans-serif" font-size="12" font-style="italic" lengthAdjust="spacingAndGlyphs" textLength="98" x="77" y="286.2001">«DatabaseTable»</text><text fill="#000000" font-family="sans-serif" font-size="14" font-weight="bold" lengthAdjust="spacingAndGlyphs" textLength="77" x="87.5" y="302.2061">SettingsDB</text><text fill="#000000" font-family="sans-serif" font-size="10" lengthAdjust="spacingAndGlyphs" textLength="182" x="35" y="315.29">it.matlice.ingsw.model.data.impl.jdbc.db</text></a><!--class it.matlice.ingsw.model.data.impl.jdbc.db.LocationsDB--><a target="_parent" xlink:actuate="onRequest" xlink:href="../../../../../../../../it/matlice/ingsw/model/data/impl/jdbc/db/LocationsDB.html" xlink:show="new" xlink:title="it.matlice.ingsw.model.data.impl.jdbc.db.LocationsDB" xlink:type="simple"><rect fill="#FFFFFF" filter="url(#fp0xcye)" height="55" style="stroke: #A80036; stroke-width: 1.5;" width="214" x="255" y="268"/><rect fill="#FFFFFF" height="55" style="stroke: #A80036; stroke-width: 1.5;" width="214" x="255" y="268"/><ellipse cx="270" cy="295.5" fill="#ADD1B2" rx="11" ry="11" style="stroke: #A80036; stroke-width: 1.0;"/><path d="M265,296.6563 C265,299.1563 267.1406,300.9688 270.0625,300.9688 C271.2969,300.9688 272.4688,300.6719 273.2188,300.1563 C273.8281,299.7344 274.1563,299.3125 274.1563,298.9063 C274.1563,298.4375 273.7344,298.0313 273.2344,298.0313 C273,298.0313 272.7813,298.1094 272.5781,298.3125 C272.1406,298.75 272.1406,298.75 271.9688,298.8438 C271.5156,299.0781 270.875,299.2188 270.1094,299.2188 C268.1094,299.2188 266.8281,298.2031 266.8281,296.625 L266.8281,295.5781 C266.8281,293.875 268.0469,292.6719 269.75,292.6719 C270.3281,292.6719 270.9063,292.8125 271.375,293.0625 C271.8438,293.3281 272.0156,293.5156 272.0781,293.875 C272.2031,294.5469 272.4531,294.7969 272.9844,294.7969 C273.2656,294.7969 273.5469,294.6563 273.7344,294.4375 C273.8594,294.2656 273.9063,294.0938 273.9063,293.6563 L273.9063,292.2969 C273.9063,291.875 273.8906,291.7344 273.7656,291.5625 C273.5938,291.3125 273.3125,291.1563 272.9844,291.1563 C272.6719,291.1563 272.4688,291.2656 272.25,291.5313 C271.0781,291.0313 270.6406,290.9219 269.6875,290.9219 C267.0156,290.9219 265,292.9375 265,295.5625 L265,296.6563 Z "/><text fill="#000000" font-family="sans-serif" font-size="12" font-style="italic" lengthAdjust="spacingAndGlyphs" textLength="98" x="326" y="286.2001">«DatabaseTable»</text><text fill="#000000" font-family="sans-serif" font-size="14" font-weight="bold" lengthAdjust="spacingAndGlyphs" textLength="89" x="330.5" y="302.2061">LocationsDB</text><text fill="#000000" font-family="sans-serif" font-size="10" lengthAdjust="spacingAndGlyphs" textLength="182" x="284" y="315.29">it.matlice.ingsw.model.data.impl.jdbc.db</text></a><!--class it.matlice.ingsw.model.data.impl.jdbc.db.IntervalsDB--><a target="_parent" xlink:actuate="onRequest" xlink:href="../../../../../../../../it/matlice/ingsw/model/data/impl/jdbc/db/IntervalsDB.html" xlink:show="new" xlink:title="it.matlice.ingsw.model.data.impl.jdbc.db.IntervalsDB" xlink:type="simple"><rect fill="#FFFFFF" filter="url(#fp0xcye)" height="55" style="stroke: #A80036; stroke-width: 1.5;" width="214" x="504" y="268"/><rect fill="#FFFFFF" height="55" style="stroke: #A80036; stroke-width: 1.5;" width="214" x="504" y="268"/><ellipse cx="519" cy="295.5" fill="#ADD1B2" rx="11" ry="11" style="stroke: #A80036; stroke-width: 1.0;"/><path d="M514,296.6563 C514,299.1563 516.1406,300.9688 519.0625,300.9688 C520.2969,300.9688 521.4688,300.6719 522.2188,300.1563 C522.8281,299.7344 523.1563,299.3125 523.1563,298.9063 C523.1563,298.4375 522.7344,298.0313 522.2344,298.0313 C522,298.0313 521.7813,298.1094 521.5781,298.3125 C521.1406,298.75 521.1406,298.75 520.9688,298.8438 C520.5156,299.0781 519.875,299.2188 519.1094,299.2188 C517.1094,299.2188 515.8281,298.2031 515.8281,296.625 L515.8281,295.5781 C515.8281,293.875 517.0469,292.6719 518.75,292.6719 C519.3281,292.6719 519.9063,292.8125 520.375,293.0625 C520.8438,293.3281 521.0156,293.5156 521.0781,293.875 C521.2031,294.5469 521.4531,294.7969 521.9844,294.7969 C522.2656,294.7969 522.5469,294.6563 522.7344,294.4375 C522.8594,294.2656 522.9063,294.0938 522.9063,293.6563 L522.9063,292.2969 C522.9063,291.875 522.8906,291.7344 522.7656,291.5625 C522.5938,291.3125 522.3125,291.1563 521.9844,291.1563 C521.6719,291.1563 521.4688,291.2656 521.25,291.5313 C520.0781,291.0313 519.6406,290.9219 518.6875,290.9219 C516.0156,290.9219 514,292.9375 514,295.5625 L514,296.6563 Z "/><text fill="#000000" font-family="sans-serif" font-size="12" font-style="italic" lengthAdjust="spacingAndGlyphs" textLength="98" x="575" y="286.2001">«DatabaseTable»</text><text fill="#000000" font-family="sans-serif" font-size="14" font-weight="bold" lengthAdjust="spacingAndGlyphs" textLength="79" x="584.5" y="302.2061">IntervalsDB</text><text fill="#000000" font-family="sans-serif" font-size="10" lengthAdjust="spacingAndGlyphs" textLength="182" x="533" y="315.29">it.matlice.ingsw.model.data.impl.jdbc.db</text></a><!--class it.matlice.ingsw.model.data.impl.jdbc.db.DaysDB--><a target="_parent" xlink:actuate="onRequest" xlink:href="../../../../../../../../it/matlice/ingsw/model/data/impl/jdbc/db/DaysDB.html" xlink:show="new" xlink:title="it.matlice.ingsw.model.data.impl.jdbc.db.DaysDB" xlink:type="simple"><rect fill="#FFFFFF" filter="url(#fp0xcye)" height="55" style="stroke: #A80036; stroke-width: 1.5;" width="214" x="753" y="268"/><rect fill="#FFFFFF" height="55" style="stroke: #A80036; stroke-width: 1.5;" width="214" x="753" y="268"/><ellipse cx="768" cy="295.5" fill="#ADD1B2" rx="11" ry="11" style="stroke: #A80036; stroke-width: 1.0;"/><path d="M763,296.6563 C763,299.1563 765.1406,300.9688 768.0625,300.9688 C769.2969,300.9688 770.4688,300.6719 771.2188,300.1563 C771.8281,299.7344 772.1563,299.3125 772.1563,298.9063 C772.1563,298.4375 771.7344,298.0313 771.2344,298.0313 C771,298.0313 770.7813,298.1094 770.5781,298.3125 C770.1406,298.75 770.1406,298.75 769.9688,298.8438 C769.5156,299.0781 768.875,299.2188 768.1094,299.2188 C766.1094,299.2188 764.8281,298.2031 764.8281,296.625 L764.8281,295.5781 C764.8281,293.875 766.0469,292.6719 767.75,292.6719 C768.3281,292.6719 768.9063,292.8125 769.375,293.0625 C769.8438,293.3281 770.0156,293.5156 770.0781,293.875 C770.2031,294.5469 770.4531,294.7969 770.9844,294.7969 C771.2656,294.7969 771.5469,294.6563 771.7344,294.4375 C771.8594,294.2656 771.9063,294.0938 771.9063,293.6563 L771.9063,292.2969 C771.9063,291.875 771.8906,291.7344 771.7656,291.5625 C771.5938,291.3125 771.3125,291.1563 770.9844,291.1563 C770.6719,291.1563 770.4688,291.2656 770.25,291.5313 C769.0781,291.0313 768.6406,290.9219 767.6875,290.9219 C765.0156,290.9219 763,292.9375 763,295.5625 L763,296.6563 Z "/><text fill="#000000" font-family="sans-serif" font-size="12" font-style="italic" lengthAdjust="spacingAndGlyphs" textLength="98" x="824" y="286.2001">«DatabaseTable»</text><text fill="#000000" font-family="sans-serif" font-size="14" font-weight="bold" lengthAdjust="spacingAndGlyphs" textLength="54" x="846" y="302.2061">DaysDB</text><text fill="#000000" font-family="sans-serif" font-size="10" lengthAdjust="spacingAndGlyphs" textLength="182" x="782" y="315.29">it.matlice.ingsw.model.data.impl.jdbc.db</text></a><!--class it.matlice.ingsw.model.data.Settings--><a target="_parent" xlink:actuate="onRequest" xlink:href="../../../../../../../../it/matlice/ingsw/model/data/Settings.html" xlink:show="new" xlink:title="it.matlice.ingsw.model.data.Settings" xlink:type="simple"><rect fill="#FFFFFF" filter="url(#fp0xcye)" height="38.7999" style="stroke: #A80036; stroke-width: 1.5;" width="156" x="1002" y="276"/><rect fill="#FFFFFF" height="38.7999" style="stroke: #A80036; stroke-width: 1.5;" width="156" x="1002" y="276"/><ellipse cx="1017" cy="295.4" fill="#ADD1B2" rx="11" ry="11" style="stroke: #A80036; stroke-width: 1.0;"/><path d="M1012,296.5562 C1012,299.0562 1014.1406,300.8687 1017.0625,300.8687 C1018.2969,300.8687 1019.4688,300.5718 1020.2188,300.0562 C1020.8281,299.6343 1021.1563,299.2125 1021.1563,298.8062 C1021.1563,298.3375 1020.7344,297.9312 1020.2344,297.9312 C1020,297.9312 1019.7813,298.0093 1019.5781,298.2125 C1019.1406,298.65 1019.1406,298.65 1018.9688,298.7437 C1018.5156,298.9781 1017.875,299.1187 1017.1094,299.1187 C1015.1094,299.1187 1013.8281,298.1031 1013.8281,296.525 L1013.8281,295.4781 C1013.8281,293.775 1015.0469,292.5718 1016.75,292.5718 C1017.3281,292.5718 1017.9063,292.7125 1018.375,292.9625 C1018.8438,293.2281 1019.0156,293.4156 1019.0781,293.775 C1019.2031,294.4468 1019.4531,294.6968 1019.9844,294.6968 C1020.2656,294.6968 1020.5469,294.5562 1020.7344,294.3375 C1020.8594,294.1656 1020.9063,293.9937 1020.9063,293.5562 L1020.9063,292.1968 C1020.9063,291.775 1020.8906,291.6343 1020.7656,291.4625 C1020.5938,291.2125 1020.3125,291.0562 1019.9844,291.0562 C1019.6719,291.0562 1019.4688,291.1656 1019.25,291.4312 C1018.0781,290.9312 1017.6406,290.8218 1016.6875,290.8218 C1014.0156,290.8218 1012,292.8375 1012,295.4625 L1012,296.5562 Z "/><text fill="#000000" font-family="sans-serif" font-size="14" font-weight="bold" lengthAdjust="spacingAndGlyphs" textLength="57" x="1064.5" y="294.0059">Settings</text><text fill="#000000" font-family="sans-serif" font-size="10" lengthAdjust="spacingAndGlyphs" textLength="124" x="1031" y="307.0899">it.matlice.ingsw.model.data</text></a><!--class it.matlice.ingsw.model.data.Interval--><a target="_parent" xlink:actuate="onRequest" xlink:href="../../../../../../../../it/matlice/ingsw/model/data/Interval.html" xlink:show="new" xlink:title="it.matlice.ingsw.model.data.Interval" xlink:type="simple"><rect fill="#FFFFFF" filter="url(#fp0xcye)" height="38.7999" style="stroke: #A80036; stroke-width: 1.5;" width="156" x="1193" y="276"/><rect fill="#FFFFFF" height="38.7999" style="stroke: #A80036; stroke-width: 1.5;" width="156" x="1193" y="276"/><ellipse cx="1208" cy="295.4" fill="#ADD1B2" rx="11" ry="11" style="stroke: #A80036; stroke-width: 1.0;"/><path d="M1203,296.5562 C1203,299.0562 1205.1406,300.8687 1208.0625,300.8687 C1209.2969,300.8687 1210.4688,300.5718 1211.2188,300.0562 C1211.8281,299.6343 1212.1563,299.2125 1212.1563,298.8062 C1212.1563,298.3375 1211.7344,297.9312 1211.2344,297.9312 C1211,297.9312 1210.7813,298.0093 1210.5781,298.2125 C1210.1406,298.65 1210.1406,298.65 1209.9688,298.7437 C1209.5156,298.9781 1208.875,299.1187 1208.1094,299.1187 C1206.1094,299.1187 1204.8281,298.1031 1204.8281,296.525 L1204.8281,295.4781 C1204.8281,293.775 1206.0469,292.5718 1207.75,292.5718 C1208.3281,292.5718 1208.9063,292.7125 1209.375,292.9625 C1209.8438,293.2281 1210.0156,293.4156 1210.0781,293.775 C1210.2031,294.4468 1210.4531,294.6968 1210.9844,294.6968 C1211.2656,294.6968 1211.5469,294.5562 1211.7344,294.3375 C1211.8594,294.1656 1211.9063,293.9937 1211.9063,293.5562 L1211.9063,292.1968 C1211.9063,291.775 1211.8906,291.6343 1211.7656,291.4625 C1211.5938,291.2125 1211.3125,291.0562 1210.9844,291.0562 C1210.6719,291.0562 1210.4688,291.1656 1210.25,291.4312 C1209.0781,290.9312 1208.6406,290.8218 1207.6875,290.8218 C1205.0156,290.8218 1203,292.8375 1203,295.4625 L1203,296.5562 Z "/><text fill="#000000" font-family="sans-serif" font-size="14" font-weight="bold" lengthAdjust="spacingAndGlyphs" textLength="51" x="1258.5" y="294.0059">Interval</text><text fill="#000000" font-family="sans-serif" font-size="10" lengthAdjust="spacingAndGlyphs" textLength="124" x="1222" y="307.0899">it.matlice.ingsw.model.data</text></a><!--class it.matlice.ingsw.model.data.Settings.Day--><a target="_parent" xlink:actuate="onRequest" xlink:href="../../../../../../../../it/matlice/ingsw/model/data/Settings.Day.html" xlink:show="new" xlink:title="it.matlice.ingsw.model.data.Settings.Day" xlink:type="simple"><rect fill="#FFFFFF" filter="url(#fp0xcye)" height="38.7999" style="stroke: #A80036; stroke-width: 1.5;" width="156" x="1384" y="276"/><rect fill="#FFFFFF" height="38.7999" style="stroke: #A80036; stroke-width: 1.5;" width="156" x="1384" y="276"/><ellipse cx="1399" cy="295.4" fill="#EB937F" rx="11" ry="11" style="stroke: #A80036; stroke-width: 1.0;"/><path d="M1397.8594,296.4625 L1399.1719,296.4625 L1399.1719,296.5093 C1399.1719,296.9156 1399.1875,297.0718 1399.2969,297.2281 C1399.4688,297.4781 1399.7656,297.65 1400.0781,297.65 C1400.3594,297.65 1400.6563,297.5093 1400.8281,297.2906 C1400.9531,297.1031 1401,296.9625 1401,296.5093 L1401,294.6656 C1401,294.3375 1400.9844,294.2281 1400.9219,294.0562 C1400.8125,293.7593 1400.4531,293.5093 1400.0781,293.5093 C1399.7813,293.5093 1399.5156,293.65 1399.3438,293.8687 C1399.2031,294.0562 1399.1719,294.2281 1399.1719,294.6656 L1399.1719,294.7281 L1397.8594,294.7281 L1397.8594,292.5562 L1401.7031,292.5562 L1401.7031,293.3062 C1401.7031,293.6968 1401.7344,293.8843 1401.8438,294.0406 C1402.0156,294.2906 1402.3125,294.4625 1402.625,294.4625 C1402.9219,294.4625 1403.1875,294.3375 1403.375,294.1031 C1403.5156,293.9156 1403.5469,293.775 1403.5469,293.3062 L1403.5469,290.8062 L1395.8438,290.8062 C1395.3906,290.8062 1395.2656,290.8218 1395.0938,290.9312 C1394.8281,291.1031 1394.6563,291.3687 1394.6563,291.6812 C1394.6563,291.9625 1394.7813,292.2281 1395.0313,292.4 C1395.2188,292.525 1395.4063,292.5562 1395.8438,292.5562 L1396.0313,292.5562 L1396.0313,298.65 L1395.8438,298.65 C1395.4219,298.65 1395.2656,298.6812 1395.0938,298.775 C1394.8281,298.9312 1394.6563,299.2125 1394.6563,299.5093 C1394.6563,300.0875 1395.0625,300.4 1395.8438,300.4 L1403.9219,300.4 L1403.9219,297.8687 C1403.9219,297.4625 1403.8906,297.2906 1403.7813,297.1343 C1403.6094,296.8687 1403.3281,296.7125 1403,296.7125 C1402.7188,296.7125 1402.4375,296.8531 1402.25,297.0718 C1402.1094,297.2593 1402.0781,297.4156 1402.0781,297.8687 L1402.0781,298.65 L1397.8594,298.65 L1397.8594,296.4625 Z "/><text fill="#000000" font-family="sans-serif" font-size="14" font-weight="bold" lengthAdjust="spacingAndGlyphs" textLength="87" x="1431.5" y="294.0059">Settings.Day</text><text fill="#000000" font-family="sans-serif" font-size="10" lengthAdjust="spacingAndGlyphs" textLength="124" x="1413" y="307.0899">it.matlice.ingsw.model.data</text></a><path d="M559.4,75 C351.82,75 113,75 113,75 C113,75 113,262.57 113,262.57 " fill="none" style="stroke: #A80036; stroke-width: 1.0;"/><polygon fill="#A80036" points="113,267.57,117,258.57,113,262.57,109,258.57,113,267.57" style="stroke: #A80036; stroke-width: 1.0;"/><text fill="#000000" font-family="sans-serif" font-size="13" lengthAdjust="spacingAndGlyphs" textLength="41" x="67.2594" y="256.5232">dbData</text><path d="M559.18,142 C454.16,142 362,142 362,142 C362,142 362,262.7 362,262.7 " fill="none" style="stroke: #A80036; stroke-width: 1.0;"/><polygon fill="#A80036" points="362,267.7,366,258.7,362,262.7,358,258.7,362,267.7" style="stroke: #A80036; stroke-width: 1.0;"/><text fill="#000000" font-family="sans-serif" font-size="13" lengthAdjust="spacingAndGlyphs" textLength="79" x="273.8656" y="256.6833">dbLocations *</text><path d="M638.75,208.06 C638.75,208.06 638.75,262.77 638.75,262.77 " fill="none" style="stroke: #A80036; stroke-width: 1.0;"/><polygon fill="#A80036" points="638.75,267.77,642.75,258.77,638.75,262.77,634.75,258.77,638.75,267.77" style="stroke: #A80036; stroke-width: 1.0;"/><text fill="#000000" font-family="sans-serif" font-size="13" lengthAdjust="spacingAndGlyphs" textLength="73" x="563.6172" y="256.3328">dbIntervals *</text><path d="M860,208.06 C860,208.06 860,262.77 860,262.77 " fill="none" style="stroke: #A80036; stroke-width: 1.0;"/><polygon fill="#A80036" points="860,267.77,864,258.77,860,262.77,856,258.77,860,267.77" style="stroke: #A80036; stroke-width: 1.0;"/><text fill="#000000" font-family="sans-serif" font-size="13" lengthAdjust="spacingAndGlyphs" textLength="53" x="800.5406" y="256.3328">dbDays *</text><path d="M1080,208.06 C1080,208.06 1080,255.74 1080,255.74 " fill="none" style="stroke: #A80036; stroke-width: 1.0;"/><polygon fill="none" points="1087,255.74,1080,275.74,1073,255.74,1087,255.74" style="stroke: #A80036; stroke-width: 1.0;"/><path d="M1160.59,142 C1223.4,142 1271,142 1271,142 C1271,142 1271,270.75 1271,270.75 " fill="none" style="stroke: #A80036; stroke-width: 1.0; stroke-dasharray: 7.0,7.0;"/><polygon fill="#A80036" points="1271,275.75,1275,266.75,1271,270.75,1267,266.75,1271,275.75" style="stroke: #A80036; stroke-width: 1.0;"/><path d="M1160.56,75 C1311.21,75 1462,75 1462,75 C1462,75 1462,270.93 1462,270.93 " fill="none" style="stroke: #A80036; stroke-width: 1.0; stroke-dasharray: 7.0,7.0;"/><polygon fill="#A80036" points="1462,275.93,1466,266.93,1462,270.93,1458,266.93,1462,275.93" style="stroke: #A80036; stroke-width: 1.0;"/></g></svg>