<?xml version="1.0" encoding="UTF-8" standalone="no"?><svg xmlns="http://www.w3.org/2000/svg" xmlns:xlink="http://www.w3.org/1999/xlink" contentScriptType="application/ecmascript" contentStyleType="text/css" height="347px" preserveAspectRatio="none" style="width:328px;height:347px;" version="1.1" viewBox="0 0 328 347" width="328px" zoomAndPan="magnify"><defs><filter height="300%" id="ferhdli" width="300%" x="-1" y="-1"><feGaussianBlur result="blurOut" stdDeviation="2.0"/><feColorMatrix in="blurOut" result="blurOut2" type="matrix" values="0 0 0 0 0 0 0 0 0 0 0 0 0 0 0 0 0 0 .4 0"/><feOffset dx="4.0" dy="4.0" in="blurOut2" result="blurOut3"/><feBlend in="SourceGraphic" in2="blurOut3" mode="normal"/></filter></defs><g><!--class it.matlice.ingsw.model.Authentication--><a target="_parent" xlink:actuate="onRequest" xlink:href="../../../../it/matlice/ingsw/model/Authentication.html" xlink:show="new" xlink:title="it.matlice.ingsw.model.Authentication" xlink:type="simple"><rect fill="#FEFECE" filter="url(#ferhdli)" height="132.6494" style="stroke: #A80036; stroke-width: 1.5;" width="144" x="94" y="107"/><ellipse cx="113.5" cy="128.2" fill="#B4A7E5" rx="11" ry="11" style="stroke: #A80036; stroke-width: 1.0;"/><path d="M114.5156,125.3562 L116.1719,125.3562 C116.5625,125.3562 116.7656,125.325 116.9219,125.2468 C117.1875,125.075 117.3594,124.7781 117.3594,124.4812 C117.3594,124.2 117.2188,123.95 116.9844,123.7781 C116.7969,123.6531 116.6406,123.6062 116.1719,123.6062 L111.0313,123.6062 C110.5938,123.6062 110.4531,123.6218 110.2813,123.7312 C110.0156,123.9031 109.8438,124.1843 109.8438,124.4812 C109.8438,124.7625 109.9844,125.0437 110.2188,125.2 C110.4063,125.325 110.5938,125.3562 111.0313,125.3562 L112.6875,125.3562 L112.6875,131.45 L111.0313,131.45 C110.5938,131.45 110.4531,131.4656 110.2813,131.575 C110.0156,131.7312 109.8438,132.0281 109.8438,132.3093 C109.8438,132.9187 110.25,133.2 111.0313,133.2 L116.1719,133.2 C116.9531,133.2 117.3594,132.9187 117.3594,132.3093 C117.3594,132.0437 117.2188,131.7937 116.9844,131.6218 C116.7969,131.4812 116.625,131.45 116.1719,131.45 L114.5156,131.45 L114.5156,125.3562 Z "/><text fill="#000000" font-family="sans-serif" font-size="14" font-style="italic" font-weight="bold" lengthAdjust="spacingAndGlyphs" textLength="102" x="128.5" y="127.3999">Authentication</text><text fill="#000000" font-family="sans-serif" font-size="10" font-style="italic" lengthAdjust="spacingAndGlyphs" textLength="100" x="129.5" y="141.8999">it.matlice.ingsw.model</text><line style="stroke: #A80036; stroke-width: 1.5;" x1="95" x2="237" y1="149.3999" y2="149.3999"/><line style="stroke: #A80036; stroke-width: 1.5;" x1="95" x2="237" y1="157.3999" y2="157.3999"/><ellipse cx="105" cy="170.3248" fill="#84BE84" rx="3" ry="3" style="stroke: #038048; stroke-width: 1.0;"/><text fill="#000000" font-family="sans-serif" font-size="11" font-style="italic" lengthAdjust="spacingAndGlyphs" textLength="74" x="114" y="173.4998">User getUser()</text><ellipse cx="105" cy="185.1747" fill="#84BE84" rx="3" ry="3" style="stroke: #038048; stroke-width: 1.0;"/><text fill="#000000" font-family="sans-serif" font-size="11" font-style="italic" lengthAdjust="spacingAndGlyphs" textLength="96" x="114" y="188.3497">long getLoginTime()</text><ellipse cx="105" cy="200.0246" fill="#84BE84" rx="3" ry="3" style="stroke: #038048; stroke-width: 1.0;"/><text fill="#000000" font-family="sans-serif" font-size="11" font-style="italic" lengthAdjust="spacingAndGlyphs" textLength="118" x="114" y="203.1996">long getExpirationTime()</text><ellipse cx="105" cy="214.8745" fill="#84BE84" rx="3" ry="3" style="stroke: #038048; stroke-width: 1.0;"/><text fill="#000000" font-family="sans-serif" font-size="11" font-style="italic" lengthAdjust="spacingAndGlyphs" textLength="80" x="114" y="218.0495">boolean isValid()</text><ellipse cx="105" cy="229.7244" fill="#84BE84" rx="3" ry="3" style="stroke: #038048; stroke-width: 1.0;"/><text fill="#000000" font-family="sans-serif" font-size="11" font-style="italic" lengthAdjust="spacingAndGlyphs" textLength="101" x="114" y="232.8994">String loginProblem()</text></a><!--class it.matlice.ingsw.controller.Controller--><a target="_parent" xlink:actuate="onRequest" xlink:href="../../../../it/matlice/ingsw/controller/Controller.html" xlink:show="new" xlink:title="it.matlice.ingsw.controller.Controller" xlink:type="simple"><rect fill="#FFFFFF" filter="url(#ferhdli)" height="38.7999" style="stroke: #A80036; stroke-width: 1.5;" width="146" x="6" y="8"/><rect fill="#FFFFFF" height="38.7999" style="stroke: #A80036; stroke-width: 1.5;" width="146" x="6" y="8"/><ellipse cx="21" cy="27.4" fill="#ADD1B2" rx="11" ry="11" style="stroke: #A80036; stroke-width: 1.0;"/><path d="M16,28.5562 C16,31.0562 18.1406,32.8687 21.0625,32.8687 C22.2969,32.8687 23.4688,32.5718 24.2188,32.0562 C24.8281,31.6343 25.1563,31.2125 25.1563,30.8062 C25.1563,30.3375 24.7344,29.9312 24.2344,29.9312 C24,29.9312 23.7813,30.0093 23.5781,30.2125 C23.1406,30.65 23.1406,30.65 22.9688,30.7437 C22.5156,30.9781 21.875,31.1187 21.1094,31.1187 C19.1094,31.1187 17.8281,30.1031 17.8281,28.525 L17.8281,27.4781 C17.8281,25.775 19.0469,24.5718 20.75,24.5718 C21.3281,24.5718 21.9063,24.7125 22.375,24.9625 C22.8438,25.2281 23.0156,25.4156 23.0781,25.775 C23.2031,26.4468 23.4531,26.6968 23.9844,26.6968 C24.2656,26.6968 24.5469,26.5562 24.7344,26.3375 C24.8594,26.1656 24.9063,25.9937 24.9063,25.5562 L24.9063,24.1968 C24.9063,23.775 24.8906,23.6343 24.7656,23.4625 C24.5938,23.2125 24.3125,23.0562 23.9844,23.0562 C23.6719,23.0562 23.4688,23.1656 23.25,23.4312 C22.0781,22.9312 21.6406,22.8218 20.6875,22.8218 C18.0156,22.8218 16,24.8375 16,27.4625 L16,28.5562 Z "/><text fill="#000000" font-family="sans-serif" font-size="14" font-weight="bold" lengthAdjust="spacingAndGlyphs" textLength="68" x="58" y="26.0059">Controller</text><text fill="#000000" font-family="sans-serif" font-size="10" lengthAdjust="spacingAndGlyphs" textLength="114" x="35" y="39.0899">it.matlice.ingsw.controller</text></a><!--class it.matlice.ingsw.model.Model--><a target="_parent" xlink:actuate="onRequest" xlink:href="../../../../it/matlice/ingsw/model/Model.html" xlink:show="new" xlink:title="it.matlice.ingsw.model.Model" xlink:type="simple"><rect fill="#FEFECE" filter="url(#ferhdli)" height="38.7999" style="stroke: #A80036; stroke-width: 1.5;" width="132" x="187" y="8"/><ellipse cx="202" cy="27.4" fill="#ADD1B2" rx="11" ry="11" style="stroke: #A80036; stroke-width: 1.0;"/><path d="M197,28.5562 C197,31.0562 199.1406,32.8687 202.0625,32.8687 C203.2969,32.8687 204.4688,32.5718 205.2188,32.0562 C205.8281,31.6343 206.1563,31.2125 206.1563,30.8062 C206.1563,30.3375 205.7344,29.9312 205.2344,29.9312 C205,29.9312 204.7813,30.0093 204.5781,30.2125 C204.1406,30.65 204.1406,30.65 203.9688,30.7437 C203.5156,30.9781 202.875,31.1187 202.1094,31.1187 C200.1094,31.1187 198.8281,30.1031 198.8281,28.525 L198.8281,27.4781 C198.8281,25.775 200.0469,24.5718 201.75,24.5718 C202.3281,24.5718 202.9063,24.7125 203.375,24.9625 C203.8438,25.2281 204.0156,25.4156 204.0781,25.775 C204.2031,26.4468 204.4531,26.6968 204.9844,26.6968 C205.2656,26.6968 205.5469,26.5562 205.7344,26.3375 C205.8594,26.1656 205.9063,25.9937 205.9063,25.5562 L205.9063,24.1968 C205.9063,23.775 205.8906,23.6343 205.7656,23.4625 C205.5938,23.2125 205.3125,23.0562 204.9844,23.0562 C204.6719,23.0562 204.4688,23.1656 204.25,23.4312 C203.0781,22.9312 202.6406,22.8218 201.6875,22.8218 C199.0156,22.8218 197,24.8375 197,27.4625 L197,28.5562 Z "/><text fill="#000000" font-family="sans-serif" font-size="14" font-weight="bold" lengthAdjust="spacingAndGlyphs" textLength="42" x="245" y="26.0059">Model</text><text fill="#000000" font-family="sans-serif" font-size="10" lengthAdjust="spacingAndGlyphs" textLength="100" x="216" y="39.0899">it.matlice.ingsw.model</text></a><!--class it.matlice.ingsw.model.data.User--><a target="_parent" xlink:actuate="onRequest" xlink:href="../../../../it/matlice/ingsw/model/data/User.html" xlink:show="new" xlink:title="it.matlice.ingsw.model.data.User" xlink:type="simple"><rect fill="#FFFFFF" filter="url(#ferhdli)" height="38.7999" style="stroke: #A80036; stroke-width: 1.5;" width="156" x="88" y="300"/><rect fill="#FFFFFF" height="38.7999" style="stroke: #A80036; stroke-width: 1.5;" width="156" x="88" y="300"/><ellipse cx="103" cy="319.4" fill="#ADD1B2" rx="11" ry="11" style="stroke: #A80036; stroke-width: 1.0;"/><path d="M98,320.5562 C98,323.0562 100.1406,324.8687 103.0625,324.8687 C104.2969,324.8687 105.4688,324.5718 106.2188,324.0562 C106.8281,323.6343 107.1563,323.2125 107.1563,322.8062 C107.1563,322.3375 106.7344,321.9312 106.2344,321.9312 C106,321.9312 105.7813,322.0093 105.5781,322.2125 C105.1406,322.65 105.1406,322.65 104.9688,322.7437 C104.5156,322.9781 103.875,323.1187 103.1094,323.1187 C101.1094,323.1187 99.8281,322.1031 99.8281,320.525 L99.8281,319.4781 C99.8281,317.775 101.0469,316.5718 102.75,316.5718 C103.3281,316.5718 103.9063,316.7125 104.375,316.9625 C104.8438,317.2281 105.0156,317.4156 105.0781,317.775 C105.2031,318.4468 105.4531,318.6968 105.9844,318.6968 C106.2656,318.6968 106.5469,318.5562 106.7344,318.3375 C106.8594,318.1656 106.9063,317.9937 106.9063,317.5562 L106.9063,316.1968 C106.9063,315.775 106.8906,315.6343 106.7656,315.4625 C106.5938,315.2125 106.3125,315.0562 105.9844,315.0562 C105.6719,315.0562 105.4688,315.1656 105.25,315.4312 C104.0781,314.9312 103.6406,314.8218 102.6875,314.8218 C100.0156,314.8218 98,316.8375 98,319.4625 L98,320.5562 Z "/><text fill="#000000" font-family="sans-serif" font-size="14" font-weight="bold" lengthAdjust="spacingAndGlyphs" textLength="31" x="163.5" y="318.0059">User</text><text fill="#000000" font-family="sans-serif" font-size="10" lengthAdjust="spacingAndGlyphs" textLength="124" x="117" y="331.0899">it.matlice.ingsw.model.data</text></a><path d="M123,47.19 C123,47.19 123,101.97 123,101.97 " fill="none" style="stroke: #A80036; stroke-width: 1.0;"/><polygon fill="#A80036" points="123,106.97,127,97.97,123,101.97,119,97.97,123,106.97" style="stroke: #A80036; stroke-width: 1.0;"/><text fill="#000000" font-family="sans-serif" font-size="13" lengthAdjust="spacingAndGlyphs" textLength="67" x="47.1547" y="95.5423">currentUser</text><path d="M212.5,47.19 C212.5,47.19 212.5,101.97 212.5,101.97 " fill="none" style="stroke: #A80036; stroke-width: 1.0; stroke-dasharray: 7.0,7.0;"/><polygon fill="#A80036" points="212.5,106.97,216.5,97.97,212.5,101.97,208.5,97.97,212.5,106.97" style="stroke: #A80036; stroke-width: 1.0;"/><path d="M166,240.09 C166,240.09 166,294.96 166,294.96 " fill="none" style="stroke: #A80036; stroke-width: 1.0; stroke-dasharray: 7.0,7.0;"/><polygon fill="#A80036" points="166,299.96,170,290.96,166,294.96,162,290.96,166,299.96" style="stroke: #A80036; stroke-width: 1.0;"/></g></svg>