<?xml version="1.0" encoding="UTF-8" standalone="no"?><svg xmlns="http://www.w3.org/2000/svg" xmlns:xlink="http://www.w3.org/1999/xlink" contentScriptType="application/ecmascript" contentStyleType="text/css" height="801px" preserveAspectRatio="none" style="width:3839px;height:801px;" version="1.1" viewBox="0 0 3839 801" width="3839px" zoomAndPan="magnify"><defs><filter height="300%" id="fai6ztc" width="300%" x="-1" y="-1"><feGaussianBlur result="blurOut" stdDeviation="2.0"/><feColorMatrix in="blurOut" result="blurOut2" type="matrix" values="0 0 0 0 0 0 0 0 0 0 0 0 0 0 0 0 0 0 .4 0"/><feOffset dx="4.0" dy="4.0" in="blurOut2" result="blurOut3"/><feBlend in="SourceGraphic" in2="blurOut3" mode="normal"/></filter></defs><g><!--class it.matlice.ingsw.model.Model--><a target="_parent" xlink:actuate="onRequest" xlink:href="../../../../it/matlice/ingsw/model/Model.html" xlink:show="new" xlink:title="it.matlice.ingsw.model.Model" xlink:type="simple"><rect fill="#FEFECE" filter="url(#fai6ztc)" height="582.796" style="stroke: #A80036; stroke-width: 1.5;" width="607" x="1729.5" y="107"/><ellipse cx="1978.75" cy="126.4" fill="#ADD1B2" rx="11" ry="11" style="stroke: #A80036; stroke-width: 1.0;"/><path d="M1973.75,127.5562 C1973.75,130.0562 1975.8906,131.8687 1978.8125,131.8687 C1980.0469,131.8687 1981.2188,131.5718 1981.9688,131.0562 C1982.5781,130.6343 1982.9063,130.2125 1982.9063,129.8062 C1982.9063,129.3375 1982.4844,128.9312 1981.9844,128.9312 C1981.75,128.9312 1981.5313,129.0093 1981.3281,129.2125 C1980.8906,129.65 1980.8906,129.65 1980.7188,129.7437 C1980.2656,129.9781 1979.625,130.1187 1978.8594,130.1187 C1976.8594,130.1187 1975.5781,129.1031 1975.5781,127.525 L1975.5781,126.4781 C1975.5781,124.775 1976.7969,123.5718 1978.5,123.5718 C1979.0781,123.5718 1979.6563,123.7125 1980.125,123.9625 C1980.5938,124.2281 1980.7656,124.4156 1980.8281,124.775 C1980.9531,125.4468 1981.2031,125.6968 1981.7344,125.6968 C1982.0156,125.6968 1982.2969,125.5562 1982.4844,125.3375 C1982.6094,125.1656 1982.6563,124.9937 1982.6563,124.5562 L1982.6563,123.1968 C1982.6563,122.775 1982.6406,122.6343 1982.5156,122.4625 C1982.3438,122.2125 1982.0625,122.0562 1981.7344,122.0562 C1981.4219,122.0562 1981.2188,122.1656 1981,122.4312 C1979.8281,121.9312 1979.3906,121.8218 1978.4375,121.8218 C1975.7656,121.8218 1973.75,123.8375 1973.75,126.4625 L1973.75,127.5562 Z "/><text fill="#000000" font-family="sans-serif" font-size="14" font-weight="bold" lengthAdjust="spacingAndGlyphs" textLength="42" x="2028.25" y="125.0059">Model</text><text fill="#000000" font-family="sans-serif" font-size="10" lengthAdjust="spacingAndGlyphs" textLength="100" x="1999.25" y="138.0899">it.matlice.ingsw.model</text><line style="stroke: #A80036; stroke-width: 1.5;" x1="1730.5" x2="2335.5" y1="145.7999" y2="145.7999"/><rect fill="none" height="6" style="stroke: #C82930; stroke-width: 1.0;" width="6" x="1737.5" y="154.8999"/><text fill="#000000" font-family="sans-serif" font-size="11" lengthAdjust="spacingAndGlyphs" textLength="98" x="1749.5" y="160.0188">HierarchyFactory hf</text><rect fill="none" height="6" style="stroke: #C82930; stroke-width: 1.0;" width="6" x="1737.5" y="168.0998"/><text fill="#000000" font-family="sans-serif" font-size="11" lengthAdjust="spacingAndGlyphs" textLength="95" x="1749.5" y="173.2187">CategoryFactory cf</text><rect fill="none" height="6" style="stroke: #C82930; stroke-width: 1.0;" width="6" x="1737.5" y="181.2997"/><text fill="#000000" font-family="sans-serif" font-size="11" lengthAdjust="spacingAndGlyphs" textLength="74" x="1749.5" y="186.4186">UserFactory uf</text><rect fill="none" height="6" style="stroke: #C82930; stroke-width: 1.0;" width="6" x="1737.5" y="194.4996"/><text fill="#000000" font-family="sans-serif" font-size="11" lengthAdjust="spacingAndGlyphs" textLength="89" x="1749.5" y="199.6185">SettingsFactory sf</text><rect fill="none" height="6" style="stroke: #C82930; stroke-width: 1.0;" width="6" x="1737.5" y="207.6995"/><text fill="#000000" font-family="sans-serif" font-size="11" lengthAdjust="spacingAndGlyphs" textLength="75" x="1749.5" y="212.8184">OfferFactory of</text><rect fill="none" height="6" style="stroke: #C82930; stroke-width: 1.0;" width="6" x="1737.5" y="220.8994"/><text fill="#000000" font-family="sans-serif" font-size="11" lengthAdjust="spacingAndGlyphs" textLength="98" x="1749.5" y="226.0183">MessageFactory mf</text><rect fill="none" height="6" style="stroke: #C82930; stroke-width: 1.0;" width="6" x="1737.5" y="234.0993"/><text fill="#000000" font-family="sans-serif" font-size="11" lengthAdjust="spacingAndGlyphs" textLength="80" x="1749.5" y="239.2182">Settings settings</text><line style="stroke: #A80036; stroke-width: 1.5;" x1="1730.5" x2="2335.5" y1="246.1992" y2="246.1992"/><ellipse cx="1740.5" cy="258.2992" fill="#84BE84" rx="3" ry="3" style="stroke: #038048; stroke-width: 1.0;"/><text fill="#000000" font-family="sans-serif" font-size="11" lengthAdjust="spacingAndGlyphs" textLength="581" x="1749.5" y="260.4182">Model(HierarchyFactory hf,CategoryFactory cf,UserFactory uf,SettingsFactory sf,OfferFactory af,MessageFactory mf)</text><ellipse cx="1740.5" cy="271.4991" fill="#84BE84" rx="3" ry="3" style="stroke: #038048; stroke-width: 1.0;"/><text fill="#000000" font-family="sans-serif" font-size="11" lengthAdjust="spacingAndGlyphs" textLength="311" x="1749.5" y="273.6181">void changePassword(Authentication auth,String newPassword)</text><ellipse cx="1740.5" cy="284.699" fill="#84BE84" rx="3" ry="3" style="stroke: #038048; stroke-width: 1.0;"/><text fill="#000000" font-family="sans-serif" font-size="11" lengthAdjust="spacingAndGlyphs" textLength="270" x="1749.5" y="286.818">List&lt;AuthMethod&gt; authenticationType(String username)</text><ellipse cx="1740.5" cy="297.8989" fill="#84BE84" rx="3" ry="3" style="stroke: #038048; stroke-width: 1.0;"/><text fill="#000000" font-family="sans-serif" font-size="11" lengthAdjust="spacingAndGlyphs" textLength="307" x="1749.5" y="300.0179">Authentication authenticate(AuthMethod method,AuthData data)</text><ellipse cx="1740.5" cy="311.0988" fill="#84BE84" rx="3" ry="3" style="stroke: #038048; stroke-width: 1.0;"/><text fill="#000000" font-family="sans-serif" font-size="11" lengthAdjust="spacingAndGlyphs" textLength="182" x="1749.5" y="313.2178">void finalizeLogin(Authentication auth)</text><ellipse cx="1740.5" cy="324.2987" fill="#84BE84" rx="3" ry="3" style="stroke: #038048; stroke-width: 1.0;"/><text fill="#000000" font-family="sans-serif" font-size="11" lengthAdjust="spacingAndGlyphs" textLength="346" x="1749.5" y="326.4177">String addConfiguratorUser(String username,boolean defaultPassword)</text><ellipse cx="1740.5" cy="337.4986" fill="#84BE84" rx="3" ry="3" style="stroke: #038048; stroke-width: 1.0;"/><text fill="#000000" font-family="sans-serif" font-size="11" lengthAdjust="spacingAndGlyphs" textLength="254" x="1749.5" y="339.6176">void registerUser(String username,String password)</text><ellipse cx="1740.5" cy="350.6985" fill="#84BE84" rx="3" ry="3" style="stroke: #038048; stroke-width: 1.0;"/><text fill="#000000" font-family="sans-serif" font-size="11" lengthAdjust="spacingAndGlyphs" textLength="356" x="1749.5" y="352.8175">Category createCategory(String name,String description,Category father)</text><ellipse cx="1740.5" cy="363.8984" fill="#84BE84" rx="3" ry="3" style="stroke: #038048; stroke-width: 1.0;"/><text fill="#000000" font-family="sans-serif" font-size="11" lengthAdjust="spacingAndGlyphs" textLength="235" x="1749.5" y="366.0174">boolean isValidRootCategoryName(String name)</text><ellipse cx="1740.5" cy="377.0983" fill="#84BE84" rx="3" ry="3" style="stroke: #038048; stroke-width: 1.0;"/><text fill="#000000" font-family="sans-serif" font-size="11" lengthAdjust="spacingAndGlyphs" textLength="177" x="1749.5" y="379.2173">void createHierarchy(Category root)</text><ellipse cx="1740.5" cy="390.2982" fill="#84BE84" rx="3" ry="3" style="stroke: #038048; stroke-width: 1.0;"/><text fill="#000000" font-family="sans-serif" font-size="11" lengthAdjust="spacingAndGlyphs" textLength="159" x="1749.5" y="392.4172">List&lt;Hierarchy&gt; getHierarchies()</text><ellipse cx="1740.5" cy="403.4981" fill="#84BE84" rx="3" ry="3" style="stroke: #038048; stroke-width: 1.0;"/><text fill="#000000" font-family="sans-serif" font-size="11" lengthAdjust="spacingAndGlyphs" textLength="195" x="1749.5" y="405.6171">List&lt;LeafCategory&gt; getLeafCategories()</text><ellipse cx="1740.5" cy="416.698" fill="#84BE84" rx="3" ry="3" style="stroke: #038048; stroke-width: 1.0;"/><text fill="#000000" font-family="sans-serif" font-size="11" lengthAdjust="spacingAndGlyphs" textLength="159" x="1749.5" y="418.817">boolean hasConfiguredSettings()</text><ellipse cx="1740.5" cy="429.8979" fill="#84BE84" rx="3" ry="3" style="stroke: #038048; stroke-width: 1.0;"/><text fill="#000000" font-family="sans-serif" font-size="11" lengthAdjust="spacingAndGlyphs" textLength="111" x="1749.5" y="432.0169">Settings readSettings()</text><ellipse cx="1740.5" cy="443.0978" fill="#84BE84" rx="3" ry="3" style="stroke: #038048; stroke-width: 1.0;"/><text fill="#000000" font-family="sans-serif" font-size="11" lengthAdjust="spacingAndGlyphs" textLength="539" x="1749.5" y="445.2168">boolean configureSettings(String city,int daysDue,List&lt;String&gt; locations,List&lt;Day&gt; days,List&lt;Interval&gt; intervals)</text><ellipse cx="1740.5" cy="456.2977" fill="#84BE84" rx="3" ry="3" style="stroke: #038048; stroke-width: 1.0;"/><text fill="#000000" font-family="sans-serif" font-size="11" lengthAdjust="spacingAndGlyphs" textLength="394" x="1749.5" y="458.4167">Offer createOffer(User u,String name,LeafCategory e,Map&lt;String, Object&gt; fields)</text><ellipse cx="1740.5" cy="469.4976" fill="#84BE84" rx="3" ry="3" style="stroke: #038048; stroke-width: 1.0;"/><text fill="#000000" font-family="sans-serif" font-size="11" lengthAdjust="spacingAndGlyphs" textLength="197" x="1749.5" y="471.6166">List&lt;Offer&gt; getOffersByUser(User user)</text><ellipse cx="1740.5" cy="482.6975" fill="#84BE84" rx="3" ry="3" style="stroke: #038048; stroke-width: 1.0;"/><text fill="#000000" font-family="sans-serif" font-size="11" lengthAdjust="spacingAndGlyphs" textLength="253" x="1749.5" y="484.8165">List&lt;Offer&gt; getOffersByCategory(LeafCategory cat)</text><ellipse cx="1740.5" cy="495.8974" fill="#84BE84" rx="3" ry="3" style="stroke: #038048; stroke-width: 1.0;"/><text fill="#000000" font-family="sans-serif" font-size="11" lengthAdjust="spacingAndGlyphs" textLength="216" x="1749.5" y="498.0164">List&lt;Offer&gt; getRetractableOffers(User user)</text><ellipse cx="1740.5" cy="509.0973" fill="#84BE84" rx="3" ry="3" style="stroke: #038048; stroke-width: 1.0;"/><text fill="#000000" font-family="sans-serif" font-size="11" lengthAdjust="spacingAndGlyphs" textLength="187" x="1749.5" y="511.2163">void retractOffer(Offer offerToRetract)</text><ellipse cx="1740.5" cy="522.2972" fill="#84BE84" rx="3" ry="3" style="stroke: #038048; stroke-width: 1.0;"/><text fill="#000000" font-family="sans-serif" font-size="11" lengthAdjust="spacingAndGlyphs" textLength="211" x="1749.5" y="524.4162">List&lt;Offer&gt; getTradableOffers(User owner)</text><ellipse cx="1740.5" cy="535.4971" fill="#84BE84" rx="3" ry="3" style="stroke: #038048; stroke-width: 1.0;"/><text fill="#000000" font-family="sans-serif" font-size="11" lengthAdjust="spacingAndGlyphs" textLength="246" x="1749.5" y="537.6161">List&lt;Offer&gt; getTradableOffers(Offer offerToTrade)</text><ellipse cx="1740.5" cy="548.697" fill="#84BE84" rx="3" ry="3" style="stroke: #038048; stroke-width: 1.0;"/><text fill="#000000" font-family="sans-serif" font-size="11" lengthAdjust="spacingAndGlyphs" textLength="308" x="1749.5" y="550.816">void createTradeOffer(Offer offerToTrade,Offer offerToAccept)</text><ellipse cx="1740.5" cy="561.8969" fill="#84BE84" rx="3" ry="3" style="stroke: #038048; stroke-width: 1.0;"/><text fill="#000000" font-family="sans-serif" font-size="11" lengthAdjust="spacingAndGlyphs" textLength="90" x="1749.5" y="564.0159">void timeIteration()</text><ellipse cx="1740.5" cy="575.0968" fill="#84BE84" rx="3" ry="3" style="stroke: #038048; stroke-width: 1.0;"/><text fill="#000000" font-family="sans-serif" font-size="11" lengthAdjust="spacingAndGlyphs" textLength="245" x="1749.5" y="577.2158">List&lt;Offer&gt; getSelectedOffers(Authentication auth)</text><ellipse cx="1740.5" cy="588.2967" fill="#84BE84" rx="3" ry="3" style="stroke: #038048; stroke-width: 1.0;"/><text fill="#000000" font-family="sans-serif" font-size="11" lengthAdjust="spacingAndGlyphs" textLength="267" x="1749.5" y="590.4157">List&lt;Message&gt; getUserMessages(Authentication auth)</text><ellipse cx="1740.5" cy="601.4966" fill="#84BE84" rx="3" ry="3" style="stroke: #038048; stroke-width: 1.0;"/><text fill="#000000" font-family="sans-serif" font-size="11" lengthAdjust="spacingAndGlyphs" textLength="413" x="1749.5" y="603.6156">Calendar acceptTrade(Offer offer,String location,Settings.Day day,Interval.Time time)</text><ellipse cx="1740.5" cy="614.6965" fill="#84BE84" rx="3" ry="3" style="stroke: #038048; stroke-width: 1.0;"/><text fill="#000000" font-family="sans-serif" font-size="11" lengthAdjust="spacingAndGlyphs" textLength="453" x="1749.5" y="616.8155">Calendar replyToMessage(Message replyto,String place,Settings.Day day,Interval.Time time)</text><ellipse cx="1740.5" cy="627.8964" fill="#84BE84" rx="3" ry="3" style="stroke: #038048; stroke-width: 1.0;"/><text fill="#000000" font-family="sans-serif" font-size="11" lengthAdjust="spacingAndGlyphs" textLength="195" x="1749.5" y="630.0154">void acceptTradeMessage(Message m)</text><rect fill="#F24D5C" height="6" style="stroke: #C82930; stroke-width: 1.0;" width="6" x="1737.5" y="638.0963"/><text fill="#000000" font-family="sans-serif" font-size="11" lengthAdjust="spacingAndGlyphs" textLength="147" x="1749.5" y="643.2153">String genRandomPassword()</text><rect fill="#F24D5C" height="6" style="stroke: #C82930; stroke-width: 1.0;" width="6" x="1737.5" y="651.2962"/><text fill="#000000" font-family="sans-serif" font-size="11" lengthAdjust="spacingAndGlyphs" textLength="279" x="1749.5" y="656.4152">User createUser(String username,User.UserTypes type)</text><rect fill="#F24D5C" height="6" style="stroke: #C82930; stroke-width: 1.0;" width="6" x="1737.5" y="664.4961"/><text fill="#000000" font-family="sans-serif" font-size="11" lengthAdjust="spacingAndGlyphs" text-decoration="underline" textLength="300" x="1749.5" y="669.6151">Calendar convertToDate(Settings.Day day,Interval.Time time)</text><line style="stroke: #000000; stroke-width: 1.0;" x1="1749.5" x2="2049.5" y1="671.6151" y2="671.6151"/><rect fill="#F24D5C" height="6" style="stroke: #C82930; stroke-width: 1.0;" width="6" x="1737.5" y="677.696"/><text fill="#000000" font-family="sans-serif" font-size="11" lengthAdjust="spacingAndGlyphs" text-decoration="underline" textLength="170" x="1749.5" y="682.815">Calendar nextDayOfWeek(int dow)</text><line style="stroke: #000000; stroke-width: 1.0;" x1="1749.5" x2="1919.5" y1="684.815" y2="684.815"/></a><!--class it.matlice.ingsw.controller.Controller--><a target="_parent" xlink:actuate="onRequest" xlink:href="../../../../it/matlice/ingsw/controller/Controller.html" xlink:show="new" xlink:title="it.matlice.ingsw.controller.Controller" xlink:type="simple"><rect fill="#FFFFFF" filter="url(#fai6ztc)" height="38.7999" style="stroke: #A80036; stroke-width: 1.5;" width="146" x="1960" y="8"/><rect fill="#FFFFFF" height="38.7999" style="stroke: #A80036; stroke-width: 1.5;" width="146" x="1960" y="8"/><ellipse cx="1975" cy="27.4" fill="#ADD1B2" rx="11" ry="11" style="stroke: #A80036; stroke-width: 1.0;"/><path d="M1970,28.5562 C1970,31.0562 1972.1406,32.8687 1975.0625,32.8687 C1976.2969,32.8687 1977.4688,32.5718 1978.2188,32.0562 C1978.8281,31.6343 1979.1563,31.2125 1979.1563,30.8062 C1979.1563,30.3375 1978.7344,29.9312 1978.2344,29.9312 C1978,29.9312 1977.7813,30.0093 1977.5781,30.2125 C1977.1406,30.65 1977.1406,30.65 1976.9688,30.7437 C1976.5156,30.9781 1975.875,31.1187 1975.1094,31.1187 C1973.1094,31.1187 1971.8281,30.1031 1971.8281,28.525 L1971.8281,27.4781 C1971.8281,25.775 1973.0469,24.5718 1974.75,24.5718 C1975.3281,24.5718 1975.9063,24.7125 1976.375,24.9625 C1976.8438,25.2281 1977.0156,25.4156 1977.0781,25.775 C1977.2031,26.4468 1977.4531,26.6968 1977.9844,26.6968 C1978.2656,26.6968 1978.5469,26.5562 1978.7344,26.3375 C1978.8594,26.1656 1978.9063,25.9937 1978.9063,25.5562 L1978.9063,24.1968 C1978.9063,23.775 1978.8906,23.6343 1978.7656,23.4625 C1978.5938,23.2125 1978.3125,23.0562 1977.9844,23.0562 C1977.6719,23.0562 1977.4688,23.1656 1977.25,23.4312 C1976.0781,22.9312 1975.6406,22.8218 1974.6875,22.8218 C1972.0156,22.8218 1970,24.8375 1970,27.4625 L1970,28.5562 Z "/><text fill="#000000" font-family="sans-serif" font-size="14" font-weight="bold" lengthAdjust="spacingAndGlyphs" textLength="68" x="2012" y="26.0059">Controller</text><text fill="#000000" font-family="sans-serif" font-size="10" lengthAdjust="spacingAndGlyphs" textLength="114" x="1989" y="39.0899">it.matlice.ingsw.controller</text></a><!--class it.matlice.ingsw.model.data.factories.HierarchyFactory--><a target="_parent" xlink:actuate="onRequest" xlink:href="../../../../it/matlice/ingsw/model/data/factories/HierarchyFactory.html" xlink:show="new" xlink:title="it.matlice.ingsw.model.data.factories.HierarchyFactory" xlink:type="simple"><rect fill="#FFFFFF" filter="url(#fai6ztc)" height="42.3999" style="stroke: #A80036; stroke-width: 1.5;" width="198" x="6" y="750"/><rect fill="#FFFFFF" height="42.3999" style="stroke: #A80036; stroke-width: 1.5;" width="198" x="6" y="750"/><ellipse cx="21" cy="771.2" fill="#B4A7E5" rx="11" ry="11" style="stroke: #A80036; stroke-width: 1.0;"/><path d="M22.0156,768.3562 L23.6719,768.3562 C24.0625,768.3562 24.2656,768.325 24.4219,768.2468 C24.6875,768.075 24.8594,767.7781 24.8594,767.4812 C24.8594,767.2 24.7188,766.95 24.4844,766.7781 C24.2969,766.6531 24.1406,766.6062 23.6719,766.6062 L18.5313,766.6062 C18.0938,766.6062 17.9531,766.6218 17.7813,766.7312 C17.5156,766.9031 17.3438,767.1843 17.3438,767.4812 C17.3438,767.7625 17.4844,768.0437 17.7188,768.2 C17.9063,768.325 18.0938,768.3562 18.5313,768.3562 L20.1875,768.3562 L20.1875,774.45 L18.5313,774.45 C18.0938,774.45 17.9531,774.4656 17.7813,774.575 C17.5156,774.7312 17.3438,775.0281 17.3438,775.3093 C17.3438,775.9187 17.75,776.2 18.5313,776.2 L23.6719,776.2 C24.4531,776.2 24.8594,775.9187 24.8594,775.3093 C24.8594,775.0437 24.7188,774.7937 24.4844,774.6218 C24.2969,774.4812 24.125,774.45 23.6719,774.45 L22.0156,774.45 L22.0156,768.3562 Z "/><text fill="#000000" font-family="sans-serif" font-size="14" font-style="italic" font-weight="bold" lengthAdjust="spacingAndGlyphs" textLength="117" x="59.5" y="770.3999">HierarchyFactory</text><text fill="#000000" font-family="sans-serif" font-size="10" font-style="italic" lengthAdjust="spacingAndGlyphs" textLength="166" x="35" y="784.8999">it.matlice.ingsw.model.data.factories</text></a><!--class it.matlice.ingsw.model.data.factories.CategoryFactory--><a target="_parent" xlink:actuate="onRequest" xlink:href="../../../../it/matlice/ingsw/model/data/factories/CategoryFactory.html" xlink:show="new" xlink:title="it.matlice.ingsw.model.data.factories.CategoryFactory" xlink:type="simple"><rect fill="#FFFFFF" filter="url(#fai6ztc)" height="42.3999" style="stroke: #A80036; stroke-width: 1.5;" width="198" x="239" y="750"/><rect fill="#FFFFFF" height="42.3999" style="stroke: #A80036; stroke-width: 1.5;" width="198" x="239" y="750"/><ellipse cx="254" cy="771.2" fill="#B4A7E5" rx="11" ry="11" style="stroke: #A80036; stroke-width: 1.0;"/><path d="M255.0156,768.3562 L256.6719,768.3562 C257.0625,768.3562 257.2656,768.325 257.4219,768.2468 C257.6875,768.075 257.8594,767.7781 257.8594,767.4812 C257.8594,767.2 257.7188,766.95 257.4844,766.7781 C257.2969,766.6531 257.1406,766.6062 256.6719,766.6062 L251.5313,766.6062 C251.0938,766.6062 250.9531,766.6218 250.7813,766.7312 C250.5156,766.9031 250.3438,767.1843 250.3438,767.4812 C250.3438,767.7625 250.4844,768.0437 250.7188,768.2 C250.9063,768.325 251.0938,768.3562 251.5313,768.3562 L253.1875,768.3562 L253.1875,774.45 L251.5313,774.45 C251.0938,774.45 250.9531,774.4656 250.7813,774.575 C250.5156,774.7312 250.3438,775.0281 250.3438,775.3093 C250.3438,775.9187 250.75,776.2 251.5313,776.2 L256.6719,776.2 C257.4531,776.2 257.8594,775.9187 257.8594,775.3093 C257.8594,775.0437 257.7188,774.7937 257.4844,774.6218 C257.2969,774.4812 257.125,774.45 256.6719,774.45 L255.0156,774.45 L255.0156,768.3562 Z "/><text fill="#000000" font-family="sans-serif" font-size="14" font-style="italic" font-weight="bold" lengthAdjust="spacingAndGlyphs" textLength="114" x="294" y="770.3999">CategoryFactory</text><text fill="#000000" font-family="sans-serif" font-size="10" font-style="italic" lengthAdjust="spacingAndGlyphs" textLength="166" x="268" y="784.8999">it.matlice.ingsw.model.data.factories</text></a><!--class it.matlice.ingsw.model.data.factories.UserFactory--><a target="_parent" xlink:actuate="onRequest" xlink:href="../../../../it/matlice/ingsw/model/data/factories/UserFactory.html" xlink:show="new" xlink:title="it.matlice.ingsw.model.data.factories.UserFactory" xlink:type="simple"><rect fill="#FFFFFF" filter="url(#fai6ztc)" height="42.3999" style="stroke: #A80036; stroke-width: 1.5;" width="198" x="472" y="750"/><rect fill="#FFFFFF" height="42.3999" style="stroke: #A80036; stroke-width: 1.5;" width="198" x="472" y="750"/><ellipse cx="487" cy="771.2" fill="#B4A7E5" rx="11" ry="11" style="stroke: #A80036; stroke-width: 1.0;"/><path d="M488.0156,768.3562 L489.6719,768.3562 C490.0625,768.3562 490.2656,768.325 490.4219,768.2468 C490.6875,768.075 490.8594,767.7781 490.8594,767.4812 C490.8594,767.2 490.7188,766.95 490.4844,766.7781 C490.2969,766.6531 490.1406,766.6062 489.6719,766.6062 L484.5313,766.6062 C484.0938,766.6062 483.9531,766.6218 483.7813,766.7312 C483.5156,766.9031 483.3438,767.1843 483.3438,767.4812 C483.3438,767.7625 483.4844,768.0437 483.7188,768.2 C483.9063,768.325 484.0938,768.3562 484.5313,768.3562 L486.1875,768.3562 L486.1875,774.45 L484.5313,774.45 C484.0938,774.45 483.9531,774.4656 483.7813,774.575 C483.5156,774.7312 483.3438,775.0281 483.3438,775.3093 C483.3438,775.9187 483.75,776.2 484.5313,776.2 L489.6719,776.2 C490.4531,776.2 490.8594,775.9187 490.8594,775.3093 C490.8594,775.0437 490.7188,774.7937 490.4844,774.6218 C490.2969,774.4812 490.125,774.45 489.6719,774.45 L488.0156,774.45 L488.0156,768.3562 Z "/><text fill="#000000" font-family="sans-serif" font-size="14" font-style="italic" font-weight="bold" lengthAdjust="spacingAndGlyphs" textLength="83" x="542.5" y="770.3999">UserFactory</text><text fill="#000000" font-family="sans-serif" font-size="10" font-style="italic" lengthAdjust="spacingAndGlyphs" textLength="166" x="501" y="784.8999">it.matlice.ingsw.model.data.factories</text></a><!--class it.matlice.ingsw.model.data.factories.SettingsFactory--><a target="_parent" xlink:actuate="onRequest" xlink:href="../../../../it/matlice/ingsw/model/data/factories/SettingsFactory.html" xlink:show="new" xlink:title="it.matlice.ingsw.model.data.factories.SettingsFactory" xlink:type="simple"><rect fill="#FFFFFF" filter="url(#fai6ztc)" height="42.3999" style="stroke: #A80036; stroke-width: 1.5;" width="198" x="705" y="750"/><rect fill="#FFFFFF" height="42.3999" style="stroke: #A80036; stroke-width: 1.5;" width="198" x="705" y="750"/><ellipse cx="720" cy="771.2" fill="#B4A7E5" rx="11" ry="11" style="stroke: #A80036; stroke-width: 1.0;"/><path d="M721.0156,768.3562 L722.6719,768.3562 C723.0625,768.3562 723.2656,768.325 723.4219,768.2468 C723.6875,768.075 723.8594,767.7781 723.8594,767.4812 C723.8594,767.2 723.7188,766.95 723.4844,766.7781 C723.2969,766.6531 723.1406,766.6062 722.6719,766.6062 L717.5313,766.6062 C717.0938,766.6062 716.9531,766.6218 716.7813,766.7312 C716.5156,766.9031 716.3438,767.1843 716.3438,767.4812 C716.3438,767.7625 716.4844,768.0437 716.7188,768.2 C716.9063,768.325 717.0938,768.3562 717.5313,768.3562 L719.1875,768.3562 L719.1875,774.45 L717.5313,774.45 C717.0938,774.45 716.9531,774.4656 716.7813,774.575 C716.5156,774.7312 716.3438,775.0281 716.3438,775.3093 C716.3438,775.9187 716.75,776.2 717.5313,776.2 L722.6719,776.2 C723.4531,776.2 723.8594,775.9187 723.8594,775.3093 C723.8594,775.0437 723.7188,774.7937 723.4844,774.6218 C723.2969,774.4812 723.125,774.45 722.6719,774.45 L721.0156,774.45 L721.0156,768.3562 Z "/><text fill="#000000" font-family="sans-serif" font-size="14" font-style="italic" font-weight="bold" lengthAdjust="spacingAndGlyphs" textLength="109" x="762.5" y="770.3999">SettingsFactory</text><text fill="#000000" font-family="sans-serif" font-size="10" font-style="italic" lengthAdjust="spacingAndGlyphs" textLength="166" x="734" y="784.8999">it.matlice.ingsw.model.data.factories</text></a><!--class it.matlice.ingsw.model.data.factories.OfferFactory--><a target="_parent" xlink:actuate="onRequest" xlink:href="../../../../it/matlice/ingsw/model/data/factories/OfferFactory.html" xlink:show="new" xlink:title="it.matlice.ingsw.model.data.factories.OfferFactory" xlink:type="simple"><rect fill="#FFFFFF" filter="url(#fai6ztc)" height="42.3999" style="stroke: #A80036; stroke-width: 1.5;" width="198" x="938" y="750"/><rect fill="#FFFFFF" height="42.3999" style="stroke: #A80036; stroke-width: 1.5;" width="198" x="938" y="750"/><ellipse cx="953" cy="771.2" fill="#B4A7E5" rx="11" ry="11" style="stroke: #A80036; stroke-width: 1.0;"/><path d="M954.0156,768.3562 L955.6719,768.3562 C956.0625,768.3562 956.2656,768.325 956.4219,768.2468 C956.6875,768.075 956.8594,767.7781 956.8594,767.4812 C956.8594,767.2 956.7188,766.95 956.4844,766.7781 C956.2969,766.6531 956.1406,766.6062 955.6719,766.6062 L950.5313,766.6062 C950.0938,766.6062 949.9531,766.6218 949.7813,766.7312 C949.5156,766.9031 949.3438,767.1843 949.3438,767.4812 C949.3438,767.7625 949.4844,768.0437 949.7188,768.2 C949.9063,768.325 950.0938,768.3562 950.5313,768.3562 L952.1875,768.3562 L952.1875,774.45 L950.5313,774.45 C950.0938,774.45 949.9531,774.4656 949.7813,774.575 C949.5156,774.7312 949.3438,775.0281 949.3438,775.3093 C949.3438,775.9187 949.75,776.2 950.5313,776.2 L955.6719,776.2 C956.4531,776.2 956.8594,775.9187 956.8594,775.3093 C956.8594,775.0437 956.7188,774.7937 956.4844,774.6218 C956.2969,774.4812 956.125,774.45 955.6719,774.45 L954.0156,774.45 L954.0156,768.3562 Z "/><text fill="#000000" font-family="sans-serif" font-size="14" font-style="italic" font-weight="bold" lengthAdjust="spacingAndGlyphs" textLength="86" x="1007" y="770.3999">OfferFactory</text><text fill="#000000" font-family="sans-serif" font-size="10" font-style="italic" lengthAdjust="spacingAndGlyphs" textLength="166" x="967" y="784.8999">it.matlice.ingsw.model.data.factories</text></a><!--class it.matlice.ingsw.model.data.factories.MessageFactory--><a target="_parent" xlink:actuate="onRequest" xlink:href="../../../../it/matlice/ingsw/model/data/factories/MessageFactory.html" xlink:show="new" xlink:title="it.matlice.ingsw.model.data.factories.MessageFactory" xlink:type="simple"><rect fill="#FFFFFF" filter="url(#fai6ztc)" height="42.3999" style="stroke: #A80036; stroke-width: 1.5;" width="198" x="1171" y="750"/><rect fill="#FFFFFF" height="42.3999" style="stroke: #A80036; stroke-width: 1.5;" width="198" x="1171" y="750"/><ellipse cx="1186" cy="771.2" fill="#B4A7E5" rx="11" ry="11" style="stroke: #A80036; stroke-width: 1.0;"/><path d="M1187.0156,768.3562 L1188.6719,768.3562 C1189.0625,768.3562 1189.2656,768.325 1189.4219,768.2468 C1189.6875,768.075 1189.8594,767.7781 1189.8594,767.4812 C1189.8594,767.2 1189.7188,766.95 1189.4844,766.7781 C1189.2969,766.6531 1189.1406,766.6062 1188.6719,766.6062 L1183.5313,766.6062 C1183.0938,766.6062 1182.9531,766.6218 1182.7813,766.7312 C1182.5156,766.9031 1182.3438,767.1843 1182.3438,767.4812 C1182.3438,767.7625 1182.4844,768.0437 1182.7188,768.2 C1182.9063,768.325 1183.0938,768.3562 1183.5313,768.3562 L1185.1875,768.3562 L1185.1875,774.45 L1183.5313,774.45 C1183.0938,774.45 1182.9531,774.4656 1182.7813,774.575 C1182.5156,774.7312 1182.3438,775.0281 1182.3438,775.3093 C1182.3438,775.9187 1182.75,776.2 1183.5313,776.2 L1188.6719,776.2 C1189.4531,776.2 1189.8594,775.9187 1189.8594,775.3093 C1189.8594,775.0437 1189.7188,774.7937 1189.4844,774.6218 C1189.2969,774.4812 1189.125,774.45 1188.6719,774.45 L1187.0156,774.45 L1187.0156,768.3562 Z "/><text fill="#000000" font-family="sans-serif" font-size="14" font-style="italic" font-weight="bold" lengthAdjust="spacingAndGlyphs" textLength="113" x="1226.5" y="770.3999">MessageFactory</text><text fill="#000000" font-family="sans-serif" font-size="10" font-style="italic" lengthAdjust="spacingAndGlyphs" textLength="166" x="1200" y="784.8999">it.matlice.ingsw.model.data.factories</text></a><!--class it.matlice.ingsw.model.data.Settings--><a target="_parent" xlink:actuate="onRequest" xlink:href="../../../../it/matlice/ingsw/model/data/Settings.html" xlink:show="new" xlink:title="it.matlice.ingsw.model.data.Settings" xlink:type="simple"><rect fill="#FFFFFF" filter="url(#fai6ztc)" height="38.7999" style="stroke: #A80036; stroke-width: 1.5;" width="156" x="1404" y="751.5"/><rect fill="#FFFFFF" height="38.7999" style="stroke: #A80036; stroke-width: 1.5;" width="156" x="1404" y="751.5"/><ellipse cx="1419" cy="770.9" fill="#ADD1B2" rx="11" ry="11" style="stroke: #A80036; stroke-width: 1.0;"/><path d="M1414,772.0562 C1414,774.5562 1416.1406,776.3687 1419.0625,776.3687 C1420.2969,776.3687 1421.4688,776.0718 1422.2188,775.5562 C1422.8281,775.1343 1423.1563,774.7125 1423.1563,774.3062 C1423.1563,773.8375 1422.7344,773.4312 1422.2344,773.4312 C1422,773.4312 1421.7813,773.5093 1421.5781,773.7125 C1421.1406,774.15 1421.1406,774.15 1420.9688,774.2437 C1420.5156,774.4781 1419.875,774.6187 1419.1094,774.6187 C1417.1094,774.6187 1415.8281,773.6031 1415.8281,772.025 L1415.8281,770.9781 C1415.8281,769.275 1417.0469,768.0718 1418.75,768.0718 C1419.3281,768.0718 1419.9063,768.2125 1420.375,768.4625 C1420.8438,768.7281 1421.0156,768.9156 1421.0781,769.275 C1421.2031,769.9468 1421.4531,770.1968 1421.9844,770.1968 C1422.2656,770.1968 1422.5469,770.0562 1422.7344,769.8375 C1422.8594,769.6656 1422.9063,769.4937 1422.9063,769.0562 L1422.9063,767.6968 C1422.9063,767.275 1422.8906,767.1343 1422.7656,766.9625 C1422.5938,766.7125 1422.3125,766.5562 1421.9844,766.5562 C1421.6719,766.5562 1421.4688,766.6656 1421.25,766.9312 C1420.0781,766.4312 1419.6406,766.3218 1418.6875,766.3218 C1416.0156,766.3218 1414,768.3375 1414,770.9625 L1414,772.0562 Z "/><text fill="#000000" font-family="sans-serif" font-size="14" font-weight="bold" lengthAdjust="spacingAndGlyphs" textLength="57" x="1466.5" y="769.5059">Settings</text><text fill="#000000" font-family="sans-serif" font-size="10" lengthAdjust="spacingAndGlyphs" textLength="124" x="1433" y="782.5899">it.matlice.ingsw.model.data</text></a><!--class it.matlice.ingsw.model.Authentication--><a target="_parent" xlink:actuate="onRequest" xlink:href="../../../../it/matlice/ingsw/model/Authentication.html" xlink:show="new" xlink:title="it.matlice.ingsw.model.Authentication" xlink:type="simple"><rect fill="#FEFECE" filter="url(#fai6ztc)" height="42.3999" style="stroke: #A80036; stroke-width: 1.5;" width="134" x="1595" y="750"/><ellipse cx="1610" cy="771.2" fill="#B4A7E5" rx="11" ry="11" style="stroke: #A80036; stroke-width: 1.0;"/><path d="M1611.0156,768.3562 L1612.6719,768.3562 C1613.0625,768.3562 1613.2656,768.325 1613.4219,768.2468 C1613.6875,768.075 1613.8594,767.7781 1613.8594,767.4812 C1613.8594,767.2 1613.7188,766.95 1613.4844,766.7781 C1613.2969,766.6531 1613.1406,766.6062 1612.6719,766.6062 L1607.5313,766.6062 C1607.0938,766.6062 1606.9531,766.6218 1606.7813,766.7312 C1606.5156,766.9031 1606.3438,767.1843 1606.3438,767.4812 C1606.3438,767.7625 1606.4844,768.0437 1606.7188,768.2 C1606.9063,768.325 1607.0938,768.3562 1607.5313,768.3562 L1609.1875,768.3562 L1609.1875,774.45 L1607.5313,774.45 C1607.0938,774.45 1606.9531,774.4656 1606.7813,774.575 C1606.5156,774.7312 1606.3438,775.0281 1606.3438,775.3093 C1606.3438,775.9187 1606.75,776.2 1607.5313,776.2 L1612.6719,776.2 C1613.4531,776.2 1613.8594,775.9187 1613.8594,775.3093 C1613.8594,775.0437 1613.7188,774.7937 1613.4844,774.6218 C1613.2969,774.4812 1613.125,774.45 1612.6719,774.45 L1611.0156,774.45 L1611.0156,768.3562 Z "/><text fill="#000000" font-family="sans-serif" font-size="14" font-style="italic" font-weight="bold" lengthAdjust="spacingAndGlyphs" textLength="102" x="1624" y="770.3999">Authentication</text><text fill="#000000" font-family="sans-serif" font-size="10" font-style="italic" lengthAdjust="spacingAndGlyphs" textLength="100" x="1625" y="784.8999">it.matlice.ingsw.model</text></a><!--class it.matlice.ingsw.model.auth.AuthMethod--><a target="_parent" xlink:actuate="onRequest" xlink:href="../../../../it/matlice/ingsw/model/auth/AuthMethod.html" xlink:show="new" xlink:title="it.matlice.ingsw.model.auth.AuthMethod" xlink:type="simple"><rect fill="#FFFFFF" filter="url(#fai6ztc)" height="42.3999" style="stroke: #A80036; stroke-width: 1.5;" width="156" x="1764" y="750"/><rect fill="#FFFFFF" height="42.3999" style="stroke: #A80036; stroke-width: 1.5;" width="156" x="1764" y="750"/><ellipse cx="1779" cy="771.2" fill="#B4A7E5" rx="11" ry="11" style="stroke: #A80036; stroke-width: 1.0;"/><path d="M1780.0156,768.3562 L1781.6719,768.3562 C1782.0625,768.3562 1782.2656,768.325 1782.4219,768.2468 C1782.6875,768.075 1782.8594,767.7781 1782.8594,767.4812 C1782.8594,767.2 1782.7188,766.95 1782.4844,766.7781 C1782.2969,766.6531 1782.1406,766.6062 1781.6719,766.6062 L1776.5313,766.6062 C1776.0938,766.6062 1775.9531,766.6218 1775.7813,766.7312 C1775.5156,766.9031 1775.3438,767.1843 1775.3438,767.4812 C1775.3438,767.7625 1775.4844,768.0437 1775.7188,768.2 C1775.9063,768.325 1776.0938,768.3562 1776.5313,768.3562 L1778.1875,768.3562 L1778.1875,774.45 L1776.5313,774.45 C1776.0938,774.45 1775.9531,774.4656 1775.7813,774.575 C1775.5156,774.7312 1775.3438,775.0281 1775.3438,775.3093 C1775.3438,775.9187 1775.75,776.2 1776.5313,776.2 L1781.6719,776.2 C1782.4531,776.2 1782.8594,775.9187 1782.8594,775.3093 C1782.8594,775.0437 1782.7188,774.7937 1782.4844,774.6218 C1782.2969,774.4812 1782.125,774.45 1781.6719,774.45 L1780.0156,774.45 L1780.0156,768.3562 Z "/><text fill="#000000" font-family="sans-serif" font-size="14" font-style="italic" font-weight="bold" lengthAdjust="spacingAndGlyphs" textLength="85" x="1812.5" y="770.3999">AuthMethod</text><text fill="#000000" font-family="sans-serif" font-size="10" font-style="italic" lengthAdjust="spacingAndGlyphs" textLength="124" x="1793" y="784.8999">it.matlice.ingsw.model.auth</text></a><!--class it.matlice.ingsw.model.auth.AuthData--><a target="_parent" xlink:actuate="onRequest" xlink:href="../../../../it/matlice/ingsw/model/auth/AuthData.html" xlink:show="new" xlink:title="it.matlice.ingsw.model.auth.AuthData" xlink:type="simple"><rect fill="#FFFFFF" filter="url(#fai6ztc)" height="42.3999" style="stroke: #A80036; stroke-width: 1.5;" width="156" x="1955" y="750"/><rect fill="#FFFFFF" height="42.3999" style="stroke: #A80036; stroke-width: 1.5;" width="156" x="1955" y="750"/><ellipse cx="1970" cy="771.2" fill="#B4A7E5" rx="11" ry="11" style="stroke: #A80036; stroke-width: 1.0;"/><path d="M1971.0156,768.3562 L1972.6719,768.3562 C1973.0625,768.3562 1973.2656,768.325 1973.4219,768.2468 C1973.6875,768.075 1973.8594,767.7781 1973.8594,767.4812 C1973.8594,767.2 1973.7188,766.95 1973.4844,766.7781 C1973.2969,766.6531 1973.1406,766.6062 1972.6719,766.6062 L1967.5313,766.6062 C1967.0938,766.6062 1966.9531,766.6218 1966.7813,766.7312 C1966.5156,766.9031 1966.3438,767.1843 1966.3438,767.4812 C1966.3438,767.7625 1966.4844,768.0437 1966.7188,768.2 C1966.9063,768.325 1967.0938,768.3562 1967.5313,768.3562 L1969.1875,768.3562 L1969.1875,774.45 L1967.5313,774.45 C1967.0938,774.45 1966.9531,774.4656 1966.7813,774.575 C1966.5156,774.7312 1966.3438,775.0281 1966.3438,775.3093 C1966.3438,775.9187 1966.75,776.2 1967.5313,776.2 L1972.6719,776.2 C1973.4531,776.2 1973.8594,775.9187 1973.8594,775.3093 C1973.8594,775.0437 1973.7188,774.7937 1973.4844,774.6218 C1973.2969,774.4812 1973.125,774.45 1972.6719,774.45 L1971.0156,774.45 L1971.0156,768.3562 Z "/><text fill="#000000" font-family="sans-serif" font-size="14" font-style="italic" font-weight="bold" lengthAdjust="spacingAndGlyphs" textLength="64" x="2014" y="770.3999">AuthData</text><text fill="#000000" font-family="sans-serif" font-size="10" font-style="italic" lengthAdjust="spacingAndGlyphs" textLength="124" x="1984" y="784.8999">it.matlice.ingsw.model.auth</text></a><!--class it.matlice.ingsw.model.data.User--><a target="_parent" xlink:actuate="onRequest" xlink:href="../../../../it/matlice/ingsw/model/data/User.html" xlink:show="new" xlink:title="it.matlice.ingsw.model.data.User" xlink:type="simple"><rect fill="#FFFFFF" filter="url(#fai6ztc)" height="38.7999" style="stroke: #A80036; stroke-width: 1.5;" width="156" x="2146" y="751.5"/><rect fill="#FFFFFF" height="38.7999" style="stroke: #A80036; stroke-width: 1.5;" width="156" x="2146" y="751.5"/><ellipse cx="2161" cy="770.9" fill="#ADD1B2" rx="11" ry="11" style="stroke: #A80036; stroke-width: 1.0;"/><path d="M2156,772.0562 C2156,774.5562 2158.1406,776.3687 2161.0625,776.3687 C2162.2969,776.3687 2163.4688,776.0718 2164.2188,775.5562 C2164.8281,775.1343 2165.1563,774.7125 2165.1563,774.3062 C2165.1563,773.8375 2164.7344,773.4312 2164.2344,773.4312 C2164,773.4312 2163.7813,773.5093 2163.5781,773.7125 C2163.1406,774.15 2163.1406,774.15 2162.9688,774.2437 C2162.5156,774.4781 2161.875,774.6187 2161.1094,774.6187 C2159.1094,774.6187 2157.8281,773.6031 2157.8281,772.025 L2157.8281,770.9781 C2157.8281,769.275 2159.0469,768.0718 2160.75,768.0718 C2161.3281,768.0718 2161.9063,768.2125 2162.375,768.4625 C2162.8438,768.7281 2163.0156,768.9156 2163.0781,769.275 C2163.2031,769.9468 2163.4531,770.1968 2163.9844,770.1968 C2164.2656,770.1968 2164.5469,770.0562 2164.7344,769.8375 C2164.8594,769.6656 2164.9063,769.4937 2164.9063,769.0562 L2164.9063,767.6968 C2164.9063,767.275 2164.8906,767.1343 2164.7656,766.9625 C2164.5938,766.7125 2164.3125,766.5562 2163.9844,766.5562 C2163.6719,766.5562 2163.4688,766.6656 2163.25,766.9312 C2162.0781,766.4312 2161.6406,766.3218 2160.6875,766.3218 C2158.0156,766.3218 2156,768.3375 2156,770.9625 L2156,772.0562 Z "/><text fill="#000000" font-family="sans-serif" font-size="14" font-weight="bold" lengthAdjust="spacingAndGlyphs" textLength="31" x="2221.5" y="769.5059">User</text><text fill="#000000" font-family="sans-serif" font-size="10" lengthAdjust="spacingAndGlyphs" textLength="124" x="2175" y="782.5899">it.matlice.ingsw.model.data</text></a><!--class it.matlice.ingsw.model.data.Category--><a target="_parent" xlink:actuate="onRequest" xlink:href="../../../../it/matlice/ingsw/model/data/Category.html" xlink:show="new" xlink:title="it.matlice.ingsw.model.data.Category" xlink:type="simple"><rect fill="#FFFFFF" filter="url(#fai6ztc)" height="38.7999" style="stroke: #A80036; stroke-width: 1.5;" width="156" x="2337" y="751.5"/><rect fill="#FFFFFF" height="38.7999" style="stroke: #A80036; stroke-width: 1.5;" width="156" x="2337" y="751.5"/><ellipse cx="2352" cy="770.9" fill="#ADD1B2" rx="11" ry="11" style="stroke: #A80036; stroke-width: 1.0;"/><path d="M2347,772.0562 C2347,774.5562 2349.1406,776.3687 2352.0625,776.3687 C2353.2969,776.3687 2354.4688,776.0718 2355.2188,775.5562 C2355.8281,775.1343 2356.1563,774.7125 2356.1563,774.3062 C2356.1563,773.8375 2355.7344,773.4312 2355.2344,773.4312 C2355,773.4312 2354.7813,773.5093 2354.5781,773.7125 C2354.1406,774.15 2354.1406,774.15 2353.9688,774.2437 C2353.5156,774.4781 2352.875,774.6187 2352.1094,774.6187 C2350.1094,774.6187 2348.8281,773.6031 2348.8281,772.025 L2348.8281,770.9781 C2348.8281,769.275 2350.0469,768.0718 2351.75,768.0718 C2352.3281,768.0718 2352.9063,768.2125 2353.375,768.4625 C2353.8438,768.7281 2354.0156,768.9156 2354.0781,769.275 C2354.2031,769.9468 2354.4531,770.1968 2354.9844,770.1968 C2355.2656,770.1968 2355.5469,770.0562 2355.7344,769.8375 C2355.8594,769.6656 2355.9063,769.4937 2355.9063,769.0562 L2355.9063,767.6968 C2355.9063,767.275 2355.8906,767.1343 2355.7656,766.9625 C2355.5938,766.7125 2355.3125,766.5562 2354.9844,766.5562 C2354.6719,766.5562 2354.4688,766.6656 2354.25,766.9312 C2353.0781,766.4312 2352.6406,766.3218 2351.6875,766.3218 C2349.0156,766.3218 2347,768.3375 2347,770.9625 L2347,772.0562 Z "/><text fill="#000000" font-family="sans-serif" font-size="14" font-weight="bold" lengthAdjust="spacingAndGlyphs" textLength="62" x="2397" y="769.5059">Category</text><text fill="#000000" font-family="sans-serif" font-size="10" lengthAdjust="spacingAndGlyphs" textLength="124" x="2366" y="782.5899">it.matlice.ingsw.model.data</text></a><!--class it.matlice.ingsw.model.data.Hierarchy--><a target="_parent" xlink:actuate="onRequest" xlink:href="../../../../it/matlice/ingsw/model/data/Hierarchy.html" xlink:show="new" xlink:title="it.matlice.ingsw.model.data.Hierarchy" xlink:type="simple"><rect fill="#FFFFFF" filter="url(#fai6ztc)" height="38.7999" style="stroke: #A80036; stroke-width: 1.5;" width="156" x="2528" y="751.5"/><rect fill="#FFFFFF" height="38.7999" style="stroke: #A80036; stroke-width: 1.5;" width="156" x="2528" y="751.5"/><ellipse cx="2543" cy="770.9" fill="#ADD1B2" rx="11" ry="11" style="stroke: #A80036; stroke-width: 1.0;"/><path d="M2538,772.0562 C2538,774.5562 2540.1406,776.3687 2543.0625,776.3687 C2544.2969,776.3687 2545.4688,776.0718 2546.2188,775.5562 C2546.8281,775.1343 2547.1563,774.7125 2547.1563,774.3062 C2547.1563,773.8375 2546.7344,773.4312 2546.2344,773.4312 C2546,773.4312 2545.7813,773.5093 2545.5781,773.7125 C2545.1406,774.15 2545.1406,774.15 2544.9688,774.2437 C2544.5156,774.4781 2543.875,774.6187 2543.1094,774.6187 C2541.1094,774.6187 2539.8281,773.6031 2539.8281,772.025 L2539.8281,770.9781 C2539.8281,769.275 2541.0469,768.0718 2542.75,768.0718 C2543.3281,768.0718 2543.9063,768.2125 2544.375,768.4625 C2544.8438,768.7281 2545.0156,768.9156 2545.0781,769.275 C2545.2031,769.9468 2545.4531,770.1968 2545.9844,770.1968 C2546.2656,770.1968 2546.5469,770.0562 2546.7344,769.8375 C2546.8594,769.6656 2546.9063,769.4937 2546.9063,769.0562 L2546.9063,767.6968 C2546.9063,767.275 2546.8906,767.1343 2546.7656,766.9625 C2546.5938,766.7125 2546.3125,766.5562 2545.9844,766.5562 C2545.6719,766.5562 2545.4688,766.6656 2545.25,766.9312 C2544.0781,766.4312 2543.6406,766.3218 2542.6875,766.3218 C2540.0156,766.3218 2538,768.3375 2538,770.9625 L2538,772.0562 Z "/><text fill="#000000" font-family="sans-serif" font-size="14" font-weight="bold" lengthAdjust="spacingAndGlyphs" textLength="65" x="2586.5" y="769.5059">Hierarchy</text><text fill="#000000" font-family="sans-serif" font-size="10" lengthAdjust="spacingAndGlyphs" textLength="124" x="2557" y="782.5899">it.matlice.ingsw.model.data</text></a><!--class it.matlice.ingsw.model.data.LeafCategory--><a target="_parent" xlink:actuate="onRequest" xlink:href="../../../../it/matlice/ingsw/model/data/LeafCategory.html" xlink:show="new" xlink:title="it.matlice.ingsw.model.data.LeafCategory" xlink:type="simple"><rect fill="#FFFFFF" filter="url(#fai6ztc)" height="38.7999" style="stroke: #A80036; stroke-width: 1.5;" width="156" x="2719" y="751.5"/><rect fill="#FFFFFF" height="38.7999" style="stroke: #A80036; stroke-width: 1.5;" width="156" x="2719" y="751.5"/><ellipse cx="2734" cy="770.9" fill="#ADD1B2" rx="11" ry="11" style="stroke: #A80036; stroke-width: 1.0;"/><path d="M2729,772.0562 C2729,774.5562 2731.1406,776.3687 2734.0625,776.3687 C2735.2969,776.3687 2736.4688,776.0718 2737.2188,775.5562 C2737.8281,775.1343 2738.1563,774.7125 2738.1563,774.3062 C2738.1563,773.8375 2737.7344,773.4312 2737.2344,773.4312 C2737,773.4312 2736.7813,773.5093 2736.5781,773.7125 C2736.1406,774.15 2736.1406,774.15 2735.9688,774.2437 C2735.5156,774.4781 2734.875,774.6187 2734.1094,774.6187 C2732.1094,774.6187 2730.8281,773.6031 2730.8281,772.025 L2730.8281,770.9781 C2730.8281,769.275 2732.0469,768.0718 2733.75,768.0718 C2734.3281,768.0718 2734.9063,768.2125 2735.375,768.4625 C2735.8438,768.7281 2736.0156,768.9156 2736.0781,769.275 C2736.2031,769.9468 2736.4531,770.1968 2736.9844,770.1968 C2737.2656,770.1968 2737.5469,770.0562 2737.7344,769.8375 C2737.8594,769.6656 2737.9063,769.4937 2737.9063,769.0562 L2737.9063,767.6968 C2737.9063,767.275 2737.8906,767.1343 2737.7656,766.9625 C2737.5938,766.7125 2737.3125,766.5562 2736.9844,766.5562 C2736.6719,766.5562 2736.4688,766.6656 2736.25,766.9312 C2735.0781,766.4312 2734.6406,766.3218 2733.6875,766.3218 C2731.0156,766.3218 2729,768.3375 2729,770.9625 L2729,772.0562 Z "/><text fill="#000000" font-family="sans-serif" font-size="14" font-weight="bold" lengthAdjust="spacingAndGlyphs" textLength="92" x="2764" y="769.5059">LeafCategory</text><text fill="#000000" font-family="sans-serif" font-size="10" lengthAdjust="spacingAndGlyphs" textLength="124" x="2748" y="782.5899">it.matlice.ingsw.model.data</text></a><!--class it.matlice.ingsw.model.data.Settings.Day--><a target="_parent" xlink:actuate="onRequest" xlink:href="../../../../it/matlice/ingsw/model/data/Settings.Day.html" xlink:show="new" xlink:title="it.matlice.ingsw.model.data.Settings.Day" xlink:type="simple"><rect fill="#FFFFFF" filter="url(#fai6ztc)" height="38.7999" style="stroke: #A80036; stroke-width: 1.5;" width="156" x="2910" y="751.5"/><rect fill="#FFFFFF" height="38.7999" style="stroke: #A80036; stroke-width: 1.5;" width="156" x="2910" y="751.5"/><ellipse cx="2925" cy="770.9" fill="#EB937F" rx="11" ry="11" style="stroke: #A80036; stroke-width: 1.0;"/><path d="M2923.8594,771.9625 L2925.1719,771.9625 L2925.1719,772.0093 C2925.1719,772.4156 2925.1875,772.5718 2925.2969,772.7281 C2925.4688,772.9781 2925.7656,773.15 2926.0781,773.15 C2926.3594,773.15 2926.6563,773.0093 2926.8281,772.7906 C2926.9531,772.6031 2927,772.4625 2927,772.0093 L2927,770.1656 C2927,769.8375 2926.9844,769.7281 2926.9219,769.5562 C2926.8125,769.2593 2926.4531,769.0093 2926.0781,769.0093 C2925.7813,769.0093 2925.5156,769.15 2925.3438,769.3687 C2925.2031,769.5562 2925.1719,769.7281 2925.1719,770.1656 L2925.1719,770.2281 L2923.8594,770.2281 L2923.8594,768.0562 L2927.7031,768.0562 L2927.7031,768.8062 C2927.7031,769.1968 2927.7344,769.3843 2927.8438,769.5406 C2928.0156,769.7906 2928.3125,769.9625 2928.625,769.9625 C2928.9219,769.9625 2929.1875,769.8375 2929.375,769.6031 C2929.5156,769.4156 2929.5469,769.275 2929.5469,768.8062 L2929.5469,766.3062 L2921.8438,766.3062 C2921.3906,766.3062 2921.2656,766.3218 2921.0938,766.4312 C2920.8281,766.6031 2920.6563,766.8687 2920.6563,767.1812 C2920.6563,767.4625 2920.7813,767.7281 2921.0313,767.9 C2921.2188,768.025 2921.4063,768.0562 2921.8438,768.0562 L2922.0313,768.0562 L2922.0313,774.15 L2921.8438,774.15 C2921.4219,774.15 2921.2656,774.1812 2921.0938,774.275 C2920.8281,774.4312 2920.6563,774.7125 2920.6563,775.0093 C2920.6563,775.5875 2921.0625,775.9 2921.8438,775.9 L2929.9219,775.9 L2929.9219,773.3687 C2929.9219,772.9625 2929.8906,772.7906 2929.7813,772.6343 C2929.6094,772.3687 2929.3281,772.2125 2929,772.2125 C2928.7188,772.2125 2928.4375,772.3531 2928.25,772.5718 C2928.1094,772.7593 2928.0781,772.9156 2928.0781,773.3687 L2928.0781,774.15 L2923.8594,774.15 L2923.8594,771.9625 Z "/><text fill="#000000" font-family="sans-serif" font-size="14" font-weight="bold" lengthAdjust="spacingAndGlyphs" textLength="87" x="2957.5" y="769.5059">Settings.Day</text><text fill="#000000" font-family="sans-serif" font-size="10" lengthAdjust="spacingAndGlyphs" textLength="124" x="2939" y="782.5899">it.matlice.ingsw.model.data</text></a><!--class it.matlice.ingsw.model.data.Interval--><a target="_parent" xlink:actuate="onRequest" xlink:href="../../../../it/matlice/ingsw/model/data/Interval.html" xlink:show="new" xlink:title="it.matlice.ingsw.model.data.Interval" xlink:type="simple"><rect fill="#FFFFFF" filter="url(#fai6ztc)" height="38.7999" style="stroke: #A80036; stroke-width: 1.5;" width="156" x="3101" y="751.5"/><rect fill="#FFFFFF" height="38.7999" style="stroke: #A80036; stroke-width: 1.5;" width="156" x="3101" y="751.5"/><ellipse cx="3116" cy="770.9" fill="#ADD1B2" rx="11" ry="11" style="stroke: #A80036; stroke-width: 1.0;"/><path d="M3111,772.0562 C3111,774.5562 3113.1406,776.3687 3116.0625,776.3687 C3117.2969,776.3687 3118.4688,776.0718 3119.2188,775.5562 C3119.8281,775.1343 3120.1563,774.7125 3120.1563,774.3062 C3120.1563,773.8375 3119.7344,773.4312 3119.2344,773.4312 C3119,773.4312 3118.7813,773.5093 3118.5781,773.7125 C3118.1406,774.15 3118.1406,774.15 3117.9688,774.2437 C3117.5156,774.4781 3116.875,774.6187 3116.1094,774.6187 C3114.1094,774.6187 3112.8281,773.6031 3112.8281,772.025 L3112.8281,770.9781 C3112.8281,769.275 3114.0469,768.0718 3115.75,768.0718 C3116.3281,768.0718 3116.9063,768.2125 3117.375,768.4625 C3117.8438,768.7281 3118.0156,768.9156 3118.0781,769.275 C3118.2031,769.9468 3118.4531,770.1968 3118.9844,770.1968 C3119.2656,770.1968 3119.5469,770.0562 3119.7344,769.8375 C3119.8594,769.6656 3119.9063,769.4937 3119.9063,769.0562 L3119.9063,767.6968 C3119.9063,767.275 3119.8906,767.1343 3119.7656,766.9625 C3119.5938,766.7125 3119.3125,766.5562 3118.9844,766.5562 C3118.6719,766.5562 3118.4688,766.6656 3118.25,766.9312 C3117.0781,766.4312 3116.6406,766.3218 3115.6875,766.3218 C3113.0156,766.3218 3111,768.3375 3111,770.9625 L3111,772.0562 Z "/><text fill="#000000" font-family="sans-serif" font-size="14" font-weight="bold" lengthAdjust="spacingAndGlyphs" textLength="51" x="3166.5" y="769.5059">Interval</text><text fill="#000000" font-family="sans-serif" font-size="10" lengthAdjust="spacingAndGlyphs" textLength="124" x="3130" y="782.5899">it.matlice.ingsw.model.data</text></a><!--class it.matlice.ingsw.model.data.Offer--><a target="_parent" xlink:actuate="onRequest" xlink:href="../../../../it/matlice/ingsw/model/data/Offer.html" xlink:show="new" xlink:title="it.matlice.ingsw.model.data.Offer" xlink:type="simple"><rect fill="#FFFFFF" filter="url(#fai6ztc)" height="38.7999" style="stroke: #A80036; stroke-width: 1.5;" width="156" x="3292" y="751.5"/><rect fill="#FFFFFF" height="38.7999" style="stroke: #A80036; stroke-width: 1.5;" width="156" x="3292" y="751.5"/><ellipse cx="3307" cy="770.9" fill="#ADD1B2" rx="11" ry="11" style="stroke: #A80036; stroke-width: 1.0;"/><path d="M3302,772.0562 C3302,774.5562 3304.1406,776.3687 3307.0625,776.3687 C3308.2969,776.3687 3309.4688,776.0718 3310.2188,775.5562 C3310.8281,775.1343 3311.1563,774.7125 3311.1563,774.3062 C3311.1563,773.8375 3310.7344,773.4312 3310.2344,773.4312 C3310,773.4312 3309.7813,773.5093 3309.5781,773.7125 C3309.1406,774.15 3309.1406,774.15 3308.9688,774.2437 C3308.5156,774.4781 3307.875,774.6187 3307.1094,774.6187 C3305.1094,774.6187 3303.8281,773.6031 3303.8281,772.025 L3303.8281,770.9781 C3303.8281,769.275 3305.0469,768.0718 3306.75,768.0718 C3307.3281,768.0718 3307.9063,768.2125 3308.375,768.4625 C3308.8438,768.7281 3309.0156,768.9156 3309.0781,769.275 C3309.2031,769.9468 3309.4531,770.1968 3309.9844,770.1968 C3310.2656,770.1968 3310.5469,770.0562 3310.7344,769.8375 C3310.8594,769.6656 3310.9063,769.4937 3310.9063,769.0562 L3310.9063,767.6968 C3310.9063,767.275 3310.8906,767.1343 3310.7656,766.9625 C3310.5938,766.7125 3310.3125,766.5562 3309.9844,766.5562 C3309.6719,766.5562 3309.4688,766.6656 3309.25,766.9312 C3308.0781,766.4312 3307.6406,766.3218 3306.6875,766.3218 C3304.0156,766.3218 3302,768.3375 3302,770.9625 L3302,772.0562 Z "/><text fill="#000000" font-family="sans-serif" font-size="14" font-weight="bold" lengthAdjust="spacingAndGlyphs" textLength="34" x="3366" y="769.5059">Offer</text><text fill="#000000" font-family="sans-serif" font-size="10" lengthAdjust="spacingAndGlyphs" textLength="124" x="3321" y="782.5899">it.matlice.ingsw.model.data</text></a><!--class it.matlice.ingsw.model.data.Message--><a target="_parent" xlink:actuate="onRequest" xlink:href="../../../../it/matlice/ingsw/model/data/Message.html" xlink:show="new" xlink:title="it.matlice.ingsw.model.data.Message" xlink:type="simple"><rect fill="#FFFFFF" filter="url(#fai6ztc)" height="38.7999" style="stroke: #A80036; stroke-width: 1.5;" width="156" x="3483" y="751.5"/><rect fill="#FFFFFF" height="38.7999" style="stroke: #A80036; stroke-width: 1.5;" width="156" x="3483" y="751.5"/><ellipse cx="3498" cy="770.9" fill="#ADD1B2" rx="11" ry="11" style="stroke: #A80036; stroke-width: 1.0;"/><path d="M3493,772.0562 C3493,774.5562 3495.1406,776.3687 3498.0625,776.3687 C3499.2969,776.3687 3500.4688,776.0718 3501.2188,775.5562 C3501.8281,775.1343 3502.1563,774.7125 3502.1563,774.3062 C3502.1563,773.8375 3501.7344,773.4312 3501.2344,773.4312 C3501,773.4312 3500.7813,773.5093 3500.5781,773.7125 C3500.1406,774.15 3500.1406,774.15 3499.9688,774.2437 C3499.5156,774.4781 3498.875,774.6187 3498.1094,774.6187 C3496.1094,774.6187 3494.8281,773.6031 3494.8281,772.025 L3494.8281,770.9781 C3494.8281,769.275 3496.0469,768.0718 3497.75,768.0718 C3498.3281,768.0718 3498.9063,768.2125 3499.375,768.4625 C3499.8438,768.7281 3500.0156,768.9156 3500.0781,769.275 C3500.2031,769.9468 3500.4531,770.1968 3500.9844,770.1968 C3501.2656,770.1968 3501.5469,770.0562 3501.7344,769.8375 C3501.8594,769.6656 3501.9063,769.4937 3501.9063,769.0562 L3501.9063,767.6968 C3501.9063,767.275 3501.8906,767.1343 3501.7656,766.9625 C3501.5938,766.7125 3501.3125,766.5562 3500.9844,766.5562 C3500.6719,766.5562 3500.4688,766.6656 3500.25,766.9312 C3499.0781,766.4312 3498.6406,766.3218 3497.6875,766.3218 C3495.0156,766.3218 3493,768.3375 3493,770.9625 L3493,772.0562 Z "/><text fill="#000000" font-family="sans-serif" font-size="14" font-weight="bold" lengthAdjust="spacingAndGlyphs" textLength="61" x="3543.5" y="769.5059">Message</text><text fill="#000000" font-family="sans-serif" font-size="10" lengthAdjust="spacingAndGlyphs" textLength="124" x="3512" y="782.5899">it.matlice.ingsw.model.data</text></a><!--class it.matlice.ingsw.model.data.Interval.Time--><a target="_parent" xlink:actuate="onRequest" xlink:href="../../../../it/matlice/ingsw/model/data/Interval.Time.html" xlink:show="new" xlink:title="it.matlice.ingsw.model.data.Interval.Time" xlink:type="simple"><rect fill="#FFFFFF" filter="url(#fai6ztc)" height="38.7999" style="stroke: #A80036; stroke-width: 1.5;" width="156" x="3674" y="751.5"/><rect fill="#FFFFFF" height="38.7999" style="stroke: #A80036; stroke-width: 1.5;" width="156" x="3674" y="751.5"/><ellipse cx="3689" cy="770.9" fill="#ADD1B2" rx="11" ry="11" style="stroke: #A80036; stroke-width: 1.0;"/><path d="M3684,772.0562 C3684,774.5562 3686.1406,776.3687 3689.0625,776.3687 C3690.2969,776.3687 3691.4688,776.0718 3692.2188,775.5562 C3692.8281,775.1343 3693.1563,774.7125 3693.1563,774.3062 C3693.1563,773.8375 3692.7344,773.4312 3692.2344,773.4312 C3692,773.4312 3691.7813,773.5093 3691.5781,773.7125 C3691.1406,774.15 3691.1406,774.15 3690.9688,774.2437 C3690.5156,774.4781 3689.875,774.6187 3689.1094,774.6187 C3687.1094,774.6187 3685.8281,773.6031 3685.8281,772.025 L3685.8281,770.9781 C3685.8281,769.275 3687.0469,768.0718 3688.75,768.0718 C3689.3281,768.0718 3689.9063,768.2125 3690.375,768.4625 C3690.8438,768.7281 3691.0156,768.9156 3691.0781,769.275 C3691.2031,769.9468 3691.4531,770.1968 3691.9844,770.1968 C3692.2656,770.1968 3692.5469,770.0562 3692.7344,769.8375 C3692.8594,769.6656 3692.9063,769.4937 3692.9063,769.0562 L3692.9063,767.6968 C3692.9063,767.275 3692.8906,767.1343 3692.7656,766.9625 C3692.5938,766.7125 3692.3125,766.5562 3691.9844,766.5562 C3691.6719,766.5562 3691.4688,766.6656 3691.25,766.9312 C3690.0781,766.4312 3689.6406,766.3218 3688.6875,766.3218 C3686.0156,766.3218 3684,768.3375 3684,770.9625 L3684,772.0562 Z "/><text fill="#000000" font-family="sans-serif" font-size="14" font-weight="bold" lengthAdjust="spacingAndGlyphs" textLength="88" x="3721" y="769.5059">Interval.Time</text><text fill="#000000" font-family="sans-serif" font-size="10" lengthAdjust="spacingAndGlyphs" textLength="124" x="3703" y="782.5899">it.matlice.ingsw.model.data</text></a><path d="M2033,47.18 C2033,47.18 2033,101.91 2033,101.91 " fill="none" style="stroke: #A80036; stroke-width: 1.0;"/><polygon fill="#A80036" points="2033,106.91,2037,97.91,2033,101.91,2029,97.91,2033,106.91" style="stroke: #A80036; stroke-width: 1.0;"/><text fill="#000000" font-family="sans-serif" font-size="13" lengthAdjust="spacingAndGlyphs" textLength="35" x="1997.4805" y="95.1197">model</text><path d="M1729.36,180 C1186.33,180 105,180 105,180 C105,180 105,744.97 105,744.97 " fill="none" style="stroke: #A80036; stroke-width: 1.0;"/><polygon fill="#A80036" points="105,749.97,109,740.97,105,744.97,101,740.97,105,749.97" style="stroke: #A80036; stroke-width: 1.0;"/><text fill="#000000" font-family="sans-serif" font-size="13" lengthAdjust="spacingAndGlyphs" textLength="11" x="92.3156" y="738.3403">hf</text><path d="M1729.48,253 C1241.82,253 338,253 338,253 C338,253 338,744.73 338,744.73 " fill="none" style="stroke: #A80036; stroke-width: 1.0;"/><polygon fill="#A80036" points="338,749.73,342,740.73,338,744.73,334,740.73,338,749.73" style="stroke: #A80036; stroke-width: 1.0;"/><text fill="#000000" font-family="sans-serif" font-size="13" lengthAdjust="spacingAndGlyphs" textLength="11" x="325.3844" y="738.3852">cf</text><path d="M1729.19,326 C1300.83,326 571,326 571,326 C571,326 571,744.84 571,744.84 " fill="none" style="stroke: #A80036; stroke-width: 1.0;"/><polygon fill="#A80036" points="571,749.84,575,740.84,571,744.84,567,740.84,571,749.84" style="stroke: #A80036; stroke-width: 1.0;"/><text fill="#000000" font-family="sans-serif" font-size="13" lengthAdjust="spacingAndGlyphs" textLength="11" x="558.3844" y="738.5275">uf</text><path d="M1729.2,399 C1365.26,399 804,399 804,399 C804,399 804,744.93 804,744.93 " fill="none" style="stroke: #A80036; stroke-width: 1.0;"/><polygon fill="#A80036" points="804,749.93,808,740.93,804,744.93,800,740.93,804,749.93" style="stroke: #A80036; stroke-width: 1.0;"/><text fill="#000000" font-family="sans-serif" font-size="13" lengthAdjust="spacingAndGlyphs" textLength="11" x="791.3844" y="738.644">sf</text><path d="M1729.43,472 C1436.47,472 1037,472 1037,472 C1037,472 1037,744.97 1037,744.97 " fill="none" style="stroke: #A80036; stroke-width: 1.0;"/><polygon fill="#A80036" points="1037,749.97,1041,740.97,1037,744.97,1033,740.97,1037,749.97" style="stroke: #A80036; stroke-width: 1.0;"/><text fill="#000000" font-family="sans-serif" font-size="13" lengthAdjust="spacingAndGlyphs" textLength="11" x="1024.3156" y="738.3403">of</text><path d="M1729.25,545 C1516.47,545 1270,545 1270,545 C1270,545 1270,744.74 1270,744.74 " fill="none" style="stroke: #A80036; stroke-width: 1.0;"/><polygon fill="#A80036" points="1270,749.74,1274,740.74,1270,744.74,1266,740.74,1270,749.74" style="stroke: #A80036; stroke-width: 1.0;"/><text fill="#000000" font-family="sans-serif" font-size="13" lengthAdjust="spacingAndGlyphs" textLength="15" x="1252.7969" y="738.3982">mf</text><path d="M1729.29,618 C1601.56,618 1482,618 1482,618 C1482,618 1482,746.31 1482,746.31 " fill="none" style="stroke: #A80036; stroke-width: 1.0;"/><polygon fill="#A80036" points="1482,751.31,1486,742.31,1482,746.31,1478,742.31,1482,751.31" style="stroke: #A80036; stroke-width: 1.0;"/><text fill="#000000" font-family="sans-serif" font-size="13" lengthAdjust="spacingAndGlyphs" textLength="46" x="1428.6688" y="739.8477">settings</text><path d="M1746.75,690.03 C1746.75,737.77 1746.75,772 1746.75,772 C1746.75,772 1734.19,772 1734.19,772 " fill="none" style="stroke: #A80036; stroke-width: 1.0; stroke-dasharray: 7.0,7.0;"/><polygon fill="#A80036" points="1729.19,772,1738.19,776,1734.19,772,1738.19,768,1729.19,772" style="stroke: #A80036; stroke-width: 1.0;"/><path d="M1842,690.17 C1842,690.17 1842,744.91 1842,744.91 " fill="none" style="stroke: #A80036; stroke-width: 1.0; stroke-dasharray: 7.0,7.0;"/><polygon fill="#A80036" points="1842,749.91,1846,740.91,1842,744.91,1838,740.91,1842,749.91" style="stroke: #A80036; stroke-width: 1.0;"/><path d="M2033,690.17 C2033,690.17 2033,744.91 2033,744.91 " fill="none" style="stroke: #A80036; stroke-width: 1.0; stroke-dasharray: 7.0,7.0;"/><polygon fill="#A80036" points="2033,749.91,2037,740.91,2033,744.91,2029,740.91,2033,749.91" style="stroke: #A80036; stroke-width: 1.0;"/><path d="M2224,690.17 C2224,690.17 2224,746.19 2224,746.19 " fill="none" style="stroke: #A80036; stroke-width: 1.0; stroke-dasharray: 7.0,7.0;"/><polygon fill="#A80036" points="2224,751.19,2228,742.19,2224,746.19,2220,742.19,2224,751.19" style="stroke: #A80036; stroke-width: 1.0;"/><path d="M2319.25,690.03 C2319.25,737.77 2319.25,772 2319.25,772 C2319.25,772 2331.81,772 2331.81,772 " fill="none" style="stroke: #A80036; stroke-width: 1.0; stroke-dasharray: 7.0,7.0;"/><polygon fill="#A80036" points="2336.81,772,2327.81,768,2331.81,772,2327.81,776,2336.81,772" style="stroke: #A80036; stroke-width: 1.0;"/><path d="M2336.7,618 C2473.99,618 2606,618 2606,618 C2606,618 2606,746.31 2606,746.31 " fill="none" style="stroke: #A80036; stroke-width: 1.0; stroke-dasharray: 7.0,7.0;"/><polygon fill="#A80036" points="2606,751.31,2610,742.31,2606,746.31,2602,742.31,2606,751.31" style="stroke: #A80036; stroke-width: 1.0;"/><path d="M2336.6,545 C2549.78,545 2797,545 2797,545 C2797,545 2797,746.34 2797,746.34 " fill="none" style="stroke: #A80036; stroke-width: 1.0; stroke-dasharray: 7.0,7.0;"/><polygon fill="#A80036" points="2797,751.34,2801,742.34,2797,746.34,2793,742.34,2797,751.34" style="stroke: #A80036; stroke-width: 1.0;"/><path d="M2336.81,472 C2616.41,472 2988,472 2988,472 C2988,472 2988,746.38 2988,746.38 " fill="none" style="stroke: #A80036; stroke-width: 1.0; stroke-dasharray: 7.0,7.0;"/><polygon fill="#A80036" points="2988,751.38,2992,742.38,2988,746.38,2984,742.38,2988,751.38" style="stroke: #A80036; stroke-width: 1.0;"/><path d="M2336.72,399 C2676.24,399 3179,399 3179,399 C3179,399 3179,746.26 3179,746.26 " fill="none" style="stroke: #A80036; stroke-width: 1.0; stroke-dasharray: 7.0,7.0;"/><polygon fill="#A80036" points="3179,751.26,3183,742.26,3179,746.26,3175,742.26,3179,751.26" style="stroke: #A80036; stroke-width: 1.0;"/><path d="M2336.8,326 C2731.31,326 3370,326 3370,326 C3370,326 3370,746.3 3370,746.3 " fill="none" style="stroke: #A80036; stroke-width: 1.0; stroke-dasharray: 7.0,7.0;"/><polygon fill="#A80036" points="3370,751.3,3374,742.3,3370,746.3,3366,742.3,3370,751.3" style="stroke: #A80036; stroke-width: 1.0;"/><path d="M2336.71,253 C2782.32,253 3561,253 3561,253 C3561,253 3561,746.33 3561,746.33 " fill="none" style="stroke: #A80036; stroke-width: 1.0; stroke-dasharray: 7.0,7.0;"/><polygon fill="#A80036" points="3561,751.33,3565,742.33,3561,746.33,3557,742.33,3561,751.33" style="stroke: #A80036; stroke-width: 1.0;"/><path d="M2336.86,180 C2830.47,180 3752,180 3752,180 C3752,180 3752,746.34 3752,746.34 " fill="none" style="stroke: #A80036; stroke-width: 1.0; stroke-dasharray: 7.0,7.0;"/><polygon fill="#A80036" points="3752,751.34,3756,742.34,3752,746.34,3748,742.34,3752,751.34" style="stroke: #A80036; stroke-width: 1.0;"/></g></svg>