<?xml version="1.0" encoding="UTF-8" standalone="no"?><svg xmlns="http://www.w3.org/2000/svg" xmlns:xlink="http://www.w3.org/1999/xlink" contentScriptType="application/ecmascript" contentStyleType="text/css" height="589px" preserveAspectRatio="none" style="width:2137px;height:589px;" version="1.1" viewBox="0 0 2137 589" width="2137px" zoomAndPan="magnify"><defs><filter height="300%" id="f810xj8" width="300%" x="-1" y="-1"><feGaussianBlur result="blurOut" stdDeviation="2.0"/><feColorMatrix in="blurOut" result="blurOut2" type="matrix" values="0 0 0 0 0 0 0 0 0 0 0 0 0 0 0 0 0 0 .4 0"/><feOffset dx="4.0" dy="4.0" in="blurOut2" result="blurOut3"/><feBlend in="SourceGraphic" in2="blurOut3" mode="normal"/></filter></defs><g><!--cluster it.matlice.ingsw.model--><a target="_parent" xlink:actuate="onRequest" xlink:href="../../../../it/matlice/ingsw/model/package-summary.html" xlink:show="new" xlink:title="it.matlice.ingsw.model" xlink:type="simple"><polygon fill="#FFFFE0" filter="url(#f810xj8)" points="1900,24,2059,24,2066,46.7999,2130,46.7999,2130,199,1900,199,1900,24" style="stroke: #000000; stroke-width: 2.0;"/><line style="stroke: #000000; stroke-width: 2.0;" x1="1900" x2="2066" y1="46.7999" y2="46.7999"/><text fill="#000000" font-family="sans-serif" font-size="14" font-weight="bold" lengthAdjust="spacingAndGlyphs" textLength="153" x="1904" y="39.0059">it.matlice.ingsw.model</text></a><!--cluster it.matlice.ingsw.model.auth--><a target="_parent" xlink:actuate="onRequest" xlink:href="../../../../it/matlice/ingsw/model/auth/package-summary.html" xlink:show="new" xlink:title="it.matlice.ingsw.model.auth" xlink:type="simple"><polygon fill="#FFFFFF" filter="url(#f810xj8)" points="688,24,882,24,889,46.7999,1001,46.7999,1001,199,688,199,688,24" style="stroke: #000000; stroke-width: 2.0;"/><line style="stroke: #000000; stroke-width: 2.0;" x1="688" x2="889" y1="46.7999" y2="46.7999"/><text fill="#000000" font-family="sans-serif" font-size="14" font-weight="bold" lengthAdjust="spacingAndGlyphs" textLength="188" x="692" y="39.0059">it.matlice.ingsw.model.auth</text></a><!--cluster it.matlice.ingsw.model.data--><a target="_parent" xlink:actuate="onRequest" xlink:href="../../../../it/matlice/ingsw/model/data/package-summary.html" xlink:show="new" xlink:title="it.matlice.ingsw.model.data" xlink:type="simple"><polygon fill="#FFFFFF" filter="url(#f810xj8)" points="1025,24,1218,24,1225,46.7999,1876,46.7999,1876,398,1025,398,1025,24" style="stroke: #000000; stroke-width: 2.0;"/><line style="stroke: #000000; stroke-width: 2.0;" x1="1025" x2="1225" y1="46.7999" y2="46.7999"/><text fill="#000000" font-family="sans-serif" font-size="14" font-weight="bold" lengthAdjust="spacingAndGlyphs" textLength="187" x="1029" y="39.0059">it.matlice.ingsw.model.data</text></a><!--cluster it.matlice.ingsw.model.exceptions--><a target="_parent" xlink:actuate="onRequest" xlink:href="../../../../it/matlice/ingsw/model/exceptions/package-summary.html" xlink:show="new" xlink:title="it.matlice.ingsw.model.exceptions" xlink:type="simple"><polygon fill="#FFFFFF" filter="url(#f810xj8)" points="22,223,261,223,268,245.7999,1001,245.7999,1001,582,22,582,22,223" style="stroke: #000000; stroke-width: 2.0;"/><line style="stroke: #000000; stroke-width: 2.0;" x1="22" x2="268" y1="245.7999" y2="245.7999"/><text fill="#000000" font-family="sans-serif" font-size="14" font-weight="bold" lengthAdjust="spacingAndGlyphs" textLength="233" x="26" y="238.0059">it.matlice.ingsw.model.exceptions</text></a><!--class it.matlice.ingsw.model.Settings--><a target="_parent" xlink:actuate="onRequest" xlink:href="../../../../it/matlice/ingsw/model/Settings.html" xlink:show="new" xlink:title="it.matlice.ingsw.model.Settings" xlink:type="simple"><rect fill="#FEFECE" filter="url(#f810xj8)" height="32" style="stroke: #A80036; stroke-width: 1.5;" width="89" x="2025.5" y="59"/><ellipse cx="2040.5" cy="75" fill="#ADD1B2" rx="11" ry="11" style="stroke: #A80036; stroke-width: 1.0;"/><path d="M2035.5,76.1563 C2035.5,78.6563 2037.6406,80.4688 2040.5625,80.4688 C2041.7969,80.4688 2042.9688,80.1719 2043.7188,79.6563 C2044.3281,79.2344 2044.6563,78.8125 2044.6563,78.4063 C2044.6563,77.9375 2044.2344,77.5313 2043.7344,77.5313 C2043.5,77.5313 2043.2813,77.6094 2043.0781,77.8125 C2042.6406,78.25 2042.6406,78.25 2042.4688,78.3438 C2042.0156,78.5781 2041.375,78.7188 2040.6094,78.7188 C2038.6094,78.7188 2037.3281,77.7031 2037.3281,76.125 L2037.3281,75.0781 C2037.3281,73.375 2038.5469,72.1719 2040.25,72.1719 C2040.8281,72.1719 2041.4063,72.3125 2041.875,72.5625 C2042.3438,72.8281 2042.5156,73.0156 2042.5781,73.375 C2042.7031,74.0469 2042.9531,74.2969 2043.4844,74.2969 C2043.7656,74.2969 2044.0469,74.1563 2044.2344,73.9375 C2044.3594,73.7656 2044.4063,73.5938 2044.4063,73.1563 L2044.4063,71.7969 C2044.4063,71.375 2044.3906,71.2344 2044.2656,71.0625 C2044.0938,70.8125 2043.8125,70.6563 2043.4844,70.6563 C2043.1719,70.6563 2042.9688,70.7656 2042.75,71.0313 C2041.5781,70.5313 2041.1406,70.4219 2040.1875,70.4219 C2037.5156,70.4219 2035.5,72.4375 2035.5,75.0625 L2035.5,76.1563 Z "/><text fill="#000000" font-family="sans-serif" font-size="14" font-weight="bold" lengthAdjust="spacingAndGlyphs" textLength="57" x="2054.5" y="79.606">Settings</text></a><!--class it.matlice.ingsw.model.Model--><a target="_parent" xlink:actuate="onRequest" xlink:href="../../../../it/matlice/ingsw/model/Model.html" xlink:show="new" xlink:title="it.matlice.ingsw.model.Model" xlink:type="simple"><rect fill="#FEFECE" filter="url(#f810xj8)" height="32" style="stroke: #A80036; stroke-width: 1.5;" width="74" x="1916" y="59"/><ellipse cx="1931" cy="75" fill="#ADD1B2" rx="11" ry="11" style="stroke: #A80036; stroke-width: 1.0;"/><path d="M1926,76.1563 C1926,78.6563 1928.1406,80.4688 1931.0625,80.4688 C1932.2969,80.4688 1933.4688,80.1719 1934.2188,79.6563 C1934.8281,79.2344 1935.1563,78.8125 1935.1563,78.4063 C1935.1563,77.9375 1934.7344,77.5313 1934.2344,77.5313 C1934,77.5313 1933.7813,77.6094 1933.5781,77.8125 C1933.1406,78.25 1933.1406,78.25 1932.9688,78.3438 C1932.5156,78.5781 1931.875,78.7188 1931.1094,78.7188 C1929.1094,78.7188 1927.8281,77.7031 1927.8281,76.125 L1927.8281,75.0781 C1927.8281,73.375 1929.0469,72.1719 1930.75,72.1719 C1931.3281,72.1719 1931.9063,72.3125 1932.375,72.5625 C1932.8438,72.8281 1933.0156,73.0156 1933.0781,73.375 C1933.2031,74.0469 1933.4531,74.2969 1933.9844,74.2969 C1934.2656,74.2969 1934.5469,74.1563 1934.7344,73.9375 C1934.8594,73.7656 1934.9063,73.5938 1934.9063,73.1563 L1934.9063,71.7969 C1934.9063,71.375 1934.8906,71.2344 1934.7656,71.0625 C1934.5938,70.8125 1934.3125,70.6563 1933.9844,70.6563 C1933.6719,70.6563 1933.4688,70.7656 1933.25,71.0313 C1932.0781,70.5313 1931.6406,70.4219 1930.6875,70.4219 C1928.0156,70.4219 1926,72.4375 1926,75.0625 L1926,76.1563 Z "/><text fill="#000000" font-family="sans-serif" font-size="14" font-weight="bold" lengthAdjust="spacingAndGlyphs" textLength="42" x="1945" y="79.606">Model</text></a><!--class it.matlice.ingsw.model.Authentication--><a target="_parent" xlink:actuate="onRequest" xlink:href="../../../../it/matlice/ingsw/model/Authentication.html" xlink:show="new" xlink:title="it.matlice.ingsw.model.Authentication" xlink:type="simple"><rect fill="#FEFECE" filter="url(#f810xj8)" height="32" style="stroke: #A80036; stroke-width: 1.5;" width="134" x="1916" y="151"/><ellipse cx="1931" cy="167" fill="#B4A7E5" rx="11" ry="11" style="stroke: #A80036; stroke-width: 1.0;"/><path d="M1932.0156,164.1563 L1933.6719,164.1563 C1934.0625,164.1563 1934.2656,164.125 1934.4219,164.0469 C1934.6875,163.875 1934.8594,163.5781 1934.8594,163.2813 C1934.8594,163 1934.7188,162.75 1934.4844,162.5781 C1934.2969,162.4531 1934.1406,162.4063 1933.6719,162.4063 L1928.5313,162.4063 C1928.0938,162.4063 1927.9531,162.4219 1927.7813,162.5313 C1927.5156,162.7031 1927.3438,162.9844 1927.3438,163.2813 C1927.3438,163.5625 1927.4844,163.8438 1927.7188,164 C1927.9063,164.125 1928.0938,164.1563 1928.5313,164.1563 L1930.1875,164.1563 L1930.1875,170.25 L1928.5313,170.25 C1928.0938,170.25 1927.9531,170.2656 1927.7813,170.375 C1927.5156,170.5313 1927.3438,170.8281 1927.3438,171.1094 C1927.3438,171.7188 1927.75,172 1928.5313,172 L1933.6719,172 C1934.4531,172 1934.8594,171.7188 1934.8594,171.1094 C1934.8594,170.8438 1934.7188,170.5938 1934.4844,170.4219 C1934.2969,170.2813 1934.125,170.25 1933.6719,170.25 L1932.0156,170.25 L1932.0156,164.1563 Z "/><text fill="#000000" font-family="sans-serif" font-size="14" font-style="italic" font-weight="bold" lengthAdjust="spacingAndGlyphs" textLength="102" x="1945" y="172.95">Authentication</text></a><!--class it.matlice.ingsw.model.auth.Authenticable--><a target="_parent" xlink:actuate="onRequest" xlink:href="../../../../it/matlice/ingsw/model/auth/Authenticable.html" xlink:show="new" xlink:title="it.matlice.ingsw.model.auth.Authenticable" xlink:type="simple"><rect fill="#FEFECE" filter="url(#f810xj8)" height="32" style="stroke: #A80036; stroke-width: 1.5;" width="128" x="704" y="59"/><ellipse cx="719" cy="75" fill="#B4A7E5" rx="11" ry="11" style="stroke: #A80036; stroke-width: 1.0;"/><path d="M720.0156,72.1563 L721.6719,72.1563 C722.0625,72.1563 722.2656,72.125 722.4219,72.0469 C722.6875,71.875 722.8594,71.5781 722.8594,71.2813 C722.8594,71 722.7188,70.75 722.4844,70.5781 C722.2969,70.4531 722.1406,70.4063 721.6719,70.4063 L716.5313,70.4063 C716.0938,70.4063 715.9531,70.4219 715.7813,70.5313 C715.5156,70.7031 715.3438,70.9844 715.3438,71.2813 C715.3438,71.5625 715.4844,71.8438 715.7188,72 C715.9063,72.125 716.0938,72.1563 716.5313,72.1563 L718.1875,72.1563 L718.1875,78.25 L716.5313,78.25 C716.0938,78.25 715.9531,78.2656 715.7813,78.375 C715.5156,78.5313 715.3438,78.8281 715.3438,79.1094 C715.3438,79.7188 715.75,80 716.5313,80 L721.6719,80 C722.4531,80 722.8594,79.7188 722.8594,79.1094 C722.8594,78.8438 722.7188,78.5938 722.4844,78.4219 C722.2969,78.2813 722.125,78.25 721.6719,78.25 L720.0156,78.25 L720.0156,72.1563 Z "/><text fill="#000000" font-family="sans-serif" font-size="14" font-style="italic" font-weight="bold" lengthAdjust="spacingAndGlyphs" textLength="96" x="733" y="80.95">Authenticable</text></a><!--class it.matlice.ingsw.model.auth.AuthMethod--><a target="_parent" xlink:actuate="onRequest" xlink:href="../../../../it/matlice/ingsw/model/auth/AuthMethod.html" xlink:show="new" xlink:title="it.matlice.ingsw.model.auth.AuthMethod" xlink:type="simple"><rect fill="#FEFECE" filter="url(#f810xj8)" height="32" style="stroke: #A80036; stroke-width: 1.5;" width="117" x="867.5" y="59"/><ellipse cx="882.5" cy="75" fill="#B4A7E5" rx="11" ry="11" style="stroke: #A80036; stroke-width: 1.0;"/><path d="M883.5156,72.1563 L885.1719,72.1563 C885.5625,72.1563 885.7656,72.125 885.9219,72.0469 C886.1875,71.875 886.3594,71.5781 886.3594,71.2813 C886.3594,71 886.2188,70.75 885.9844,70.5781 C885.7969,70.4531 885.6406,70.4063 885.1719,70.4063 L880.0313,70.4063 C879.5938,70.4063 879.4531,70.4219 879.2813,70.5313 C879.0156,70.7031 878.8438,70.9844 878.8438,71.2813 C878.8438,71.5625 878.9844,71.8438 879.2188,72 C879.4063,72.125 879.5938,72.1563 880.0313,72.1563 L881.6875,72.1563 L881.6875,78.25 L880.0313,78.25 C879.5938,78.25 879.4531,78.2656 879.2813,78.375 C879.0156,78.5313 878.8438,78.8281 878.8438,79.1094 C878.8438,79.7188 879.25,80 880.0313,80 L885.1719,80 C885.9531,80 886.3594,79.7188 886.3594,79.1094 C886.3594,78.8438 886.2188,78.5938 885.9844,78.4219 C885.7969,78.2813 885.625,78.25 885.1719,78.25 L883.5156,78.25 L883.5156,72.1563 Z "/><text fill="#000000" font-family="sans-serif" font-size="14" font-style="italic" font-weight="bold" lengthAdjust="spacingAndGlyphs" textLength="85" x="896.5" y="80.95">AuthMethod</text></a><!--class it.matlice.ingsw.model.auth.AuthData--><a target="_parent" xlink:actuate="onRequest" xlink:href="../../../../it/matlice/ingsw/model/auth/AuthData.html" xlink:show="new" xlink:title="it.matlice.ingsw.model.auth.AuthData" xlink:type="simple"><rect fill="#FEFECE" filter="url(#f810xj8)" height="32" style="stroke: #A80036; stroke-width: 1.5;" width="96" x="712" y="151"/><ellipse cx="727" cy="167" fill="#B4A7E5" rx="11" ry="11" style="stroke: #A80036; stroke-width: 1.0;"/><path d="M728.0156,164.1563 L729.6719,164.1563 C730.0625,164.1563 730.2656,164.125 730.4219,164.0469 C730.6875,163.875 730.8594,163.5781 730.8594,163.2813 C730.8594,163 730.7188,162.75 730.4844,162.5781 C730.2969,162.4531 730.1406,162.4063 729.6719,162.4063 L724.5313,162.4063 C724.0938,162.4063 723.9531,162.4219 723.7813,162.5313 C723.5156,162.7031 723.3438,162.9844 723.3438,163.2813 C723.3438,163.5625 723.4844,163.8438 723.7188,164 C723.9063,164.125 724.0938,164.1563 724.5313,164.1563 L726.1875,164.1563 L726.1875,170.25 L724.5313,170.25 C724.0938,170.25 723.9531,170.2656 723.7813,170.375 C723.5156,170.5313 723.3438,170.8281 723.3438,171.1094 C723.3438,171.7188 723.75,172 724.5313,172 L729.6719,172 C730.4531,172 730.8594,171.7188 730.8594,171.1094 C730.8594,170.8438 730.7188,170.5938 730.4844,170.4219 C730.2969,170.2813 730.125,170.25 729.6719,170.25 L728.0156,170.25 L728.0156,164.1563 Z "/><text fill="#000000" font-family="sans-serif" font-size="14" font-style="italic" font-weight="bold" lengthAdjust="spacingAndGlyphs" textLength="64" x="741" y="172.95">AuthData</text></a><!--class it.matlice.ingsw.model.data.User--><a target="_parent" xlink:actuate="onRequest" xlink:href="../../../../it/matlice/ingsw/model/data/User.html" xlink:show="new" xlink:title="it.matlice.ingsw.model.data.User" xlink:type="simple"><rect fill="#FEFECE" filter="url(#f810xj8)" height="32" style="stroke: #A80036; stroke-width: 1.5;" width="63" x="1041.5" y="59"/><ellipse cx="1056.5" cy="75" fill="#ADD1B2" rx="11" ry="11" style="stroke: #A80036; stroke-width: 1.0;"/><path d="M1051.5,76.1563 C1051.5,78.6563 1053.6406,80.4688 1056.5625,80.4688 C1057.7969,80.4688 1058.9688,80.1719 1059.7188,79.6563 C1060.3281,79.2344 1060.6563,78.8125 1060.6563,78.4063 C1060.6563,77.9375 1060.2344,77.5313 1059.7344,77.5313 C1059.5,77.5313 1059.2813,77.6094 1059.0781,77.8125 C1058.6406,78.25 1058.6406,78.25 1058.4688,78.3438 C1058.0156,78.5781 1057.375,78.7188 1056.6094,78.7188 C1054.6094,78.7188 1053.3281,77.7031 1053.3281,76.125 L1053.3281,75.0781 C1053.3281,73.375 1054.5469,72.1719 1056.25,72.1719 C1056.8281,72.1719 1057.4063,72.3125 1057.875,72.5625 C1058.3438,72.8281 1058.5156,73.0156 1058.5781,73.375 C1058.7031,74.0469 1058.9531,74.2969 1059.4844,74.2969 C1059.7656,74.2969 1060.0469,74.1563 1060.2344,73.9375 C1060.3594,73.7656 1060.4063,73.5938 1060.4063,73.1563 L1060.4063,71.7969 C1060.4063,71.375 1060.3906,71.2344 1060.2656,71.0625 C1060.0938,70.8125 1059.8125,70.6563 1059.4844,70.6563 C1059.1719,70.6563 1058.9688,70.7656 1058.75,71.0313 C1057.5781,70.5313 1057.1406,70.4219 1056.1875,70.4219 C1053.5156,70.4219 1051.5,72.4375 1051.5,75.0625 L1051.5,76.1563 Z "/><text fill="#000000" font-family="sans-serif" font-size="14" font-weight="bold" lengthAdjust="spacingAndGlyphs" textLength="31" x="1070.5" y="79.606">User</text></a><!--class it.matlice.ingsw.model.data.User.UserTypes--><a target="_parent" xlink:actuate="onRequest" xlink:href="../../../../it/matlice/ingsw/model/data/User.UserTypes.html" xlink:show="new" xlink:title="it.matlice.ingsw.model.data.User.UserTypes" xlink:type="simple"><rect fill="#FEFECE" filter="url(#f810xj8)" height="32" style="stroke: #A80036; stroke-width: 1.5;" width="140" x="1140" y="59"/><ellipse cx="1155" cy="75" fill="#EB937F" rx="11" ry="11" style="stroke: #A80036; stroke-width: 1.0;"/><path d="M1153.8594,76.0625 L1155.1719,76.0625 L1155.1719,76.1094 C1155.1719,76.5156 1155.1875,76.6719 1155.2969,76.8281 C1155.4688,77.0781 1155.7656,77.25 1156.0781,77.25 C1156.3594,77.25 1156.6563,77.1094 1156.8281,76.8906 C1156.9531,76.7031 1157,76.5625 1157,76.1094 L1157,74.2656 C1157,73.9375 1156.9844,73.8281 1156.9219,73.6563 C1156.8125,73.3594 1156.4531,73.1094 1156.0781,73.1094 C1155.7813,73.1094 1155.5156,73.25 1155.3438,73.4688 C1155.2031,73.6563 1155.1719,73.8281 1155.1719,74.2656 L1155.1719,74.3281 L1153.8594,74.3281 L1153.8594,72.1563 L1157.7031,72.1563 L1157.7031,72.9063 C1157.7031,73.2969 1157.7344,73.4844 1157.8438,73.6406 C1158.0156,73.8906 1158.3125,74.0625 1158.625,74.0625 C1158.9219,74.0625 1159.1875,73.9375 1159.375,73.7031 C1159.5156,73.5156 1159.5469,73.375 1159.5469,72.9063 L1159.5469,70.4063 L1151.8438,70.4063 C1151.3906,70.4063 1151.2656,70.4219 1151.0938,70.5313 C1150.8281,70.7031 1150.6563,70.9688 1150.6563,71.2813 C1150.6563,71.5625 1150.7813,71.8281 1151.0313,72 C1151.2188,72.125 1151.4063,72.1563 1151.8438,72.1563 L1152.0313,72.1563 L1152.0313,78.25 L1151.8438,78.25 C1151.4219,78.25 1151.2656,78.2813 1151.0938,78.375 C1150.8281,78.5313 1150.6563,78.8125 1150.6563,79.1094 C1150.6563,79.6875 1151.0625,80 1151.8438,80 L1159.9219,80 L1159.9219,77.4688 C1159.9219,77.0625 1159.8906,76.8906 1159.7813,76.7344 C1159.6094,76.4688 1159.3281,76.3125 1159,76.3125 C1158.7188,76.3125 1158.4375,76.4531 1158.25,76.6719 C1158.1094,76.8594 1158.0781,77.0156 1158.0781,77.4688 L1158.0781,78.25 L1153.8594,78.25 L1153.8594,76.0625 Z "/><text fill="#000000" font-family="sans-serif" font-size="14" font-weight="bold" lengthAdjust="spacingAndGlyphs" textLength="108" x="1169" y="79.606">User.UserTypes</text></a><!--class it.matlice.ingsw.model.data.TypeDefinition--><a target="_parent" xlink:actuate="onRequest" xlink:href="../../../../it/matlice/ingsw/model/data/TypeDefinition.html" xlink:show="new" xlink:title="it.matlice.ingsw.model.data.TypeDefinition" xlink:type="simple"><rect fill="#FEFECE" filter="url(#f810xj8)" height="32" style="stroke: #A80036; stroke-width: 1.5;" width="133" x="1315.5" y="59"/><ellipse cx="1330.5" cy="75" fill="#ADD1B2" rx="11" ry="11" style="stroke: #A80036; stroke-width: 1.0;"/><path d="M1325.5,76.1563 C1325.5,78.6563 1327.6406,80.4688 1330.5625,80.4688 C1331.7969,80.4688 1332.9688,80.1719 1333.7188,79.6563 C1334.3281,79.2344 1334.6563,78.8125 1334.6563,78.4063 C1334.6563,77.9375 1334.2344,77.5313 1333.7344,77.5313 C1333.5,77.5313 1333.2813,77.6094 1333.0781,77.8125 C1332.6406,78.25 1332.6406,78.25 1332.4688,78.3438 C1332.0156,78.5781 1331.375,78.7188 1330.6094,78.7188 C1328.6094,78.7188 1327.3281,77.7031 1327.3281,76.125 L1327.3281,75.0781 C1327.3281,73.375 1328.5469,72.1719 1330.25,72.1719 C1330.8281,72.1719 1331.4063,72.3125 1331.875,72.5625 C1332.3438,72.8281 1332.5156,73.0156 1332.5781,73.375 C1332.7031,74.0469 1332.9531,74.2969 1333.4844,74.2969 C1333.7656,74.2969 1334.0469,74.1563 1334.2344,73.9375 C1334.3594,73.7656 1334.4063,73.5938 1334.4063,73.1563 L1334.4063,71.7969 C1334.4063,71.375 1334.3906,71.2344 1334.2656,71.0625 C1334.0938,70.8125 1333.8125,70.6563 1333.4844,70.6563 C1333.1719,70.6563 1332.9688,70.7656 1332.75,71.0313 C1331.5781,70.5313 1331.1406,70.4219 1330.1875,70.4219 C1327.5156,70.4219 1325.5,72.4375 1325.5,75.0625 L1325.5,76.1563 Z "/><text fill="#000000" font-family="sans-serif" font-size="14" font-weight="bold" lengthAdjust="spacingAndGlyphs" textLength="101" x="1344.5" y="79.606">TypeDefinition</text></a><!--class it.matlice.ingsw.model.data.TypeDefinition.TypeAssociation--><a target="_parent" xlink:actuate="onRequest" xlink:href="../../../../it/matlice/ingsw/model/data/TypeDefinition.TypeAssociation.html" xlink:show="new" xlink:title="it.matlice.ingsw.model.data.TypeDefinition.TypeAssociation" xlink:type="simple"><rect fill="#FEFECE" filter="url(#f810xj8)" height="32" style="stroke: #A80036; stroke-width: 1.5;" width="253" x="1483.5" y="59"/><ellipse cx="1498.5" cy="75" fill="#EB937F" rx="11" ry="11" style="stroke: #A80036; stroke-width: 1.0;"/><path d="M1497.3594,76.0625 L1498.6719,76.0625 L1498.6719,76.1094 C1498.6719,76.5156 1498.6875,76.6719 1498.7969,76.8281 C1498.9688,77.0781 1499.2656,77.25 1499.5781,77.25 C1499.8594,77.25 1500.1563,77.1094 1500.3281,76.8906 C1500.4531,76.7031 1500.5,76.5625 1500.5,76.1094 L1500.5,74.2656 C1500.5,73.9375 1500.4844,73.8281 1500.4219,73.6563 C1500.3125,73.3594 1499.9531,73.1094 1499.5781,73.1094 C1499.2813,73.1094 1499.0156,73.25 1498.8438,73.4688 C1498.7031,73.6563 1498.6719,73.8281 1498.6719,74.2656 L1498.6719,74.3281 L1497.3594,74.3281 L1497.3594,72.1563 L1501.2031,72.1563 L1501.2031,72.9063 C1501.2031,73.2969 1501.2344,73.4844 1501.3438,73.6406 C1501.5156,73.8906 1501.8125,74.0625 1502.125,74.0625 C1502.4219,74.0625 1502.6875,73.9375 1502.875,73.7031 C1503.0156,73.5156 1503.0469,73.375 1503.0469,72.9063 L1503.0469,70.4063 L1495.3438,70.4063 C1494.8906,70.4063 1494.7656,70.4219 1494.5938,70.5313 C1494.3281,70.7031 1494.1563,70.9688 1494.1563,71.2813 C1494.1563,71.5625 1494.2813,71.8281 1494.5313,72 C1494.7188,72.125 1494.9063,72.1563 1495.3438,72.1563 L1495.5313,72.1563 L1495.5313,78.25 L1495.3438,78.25 C1494.9219,78.25 1494.7656,78.2813 1494.5938,78.375 C1494.3281,78.5313 1494.1563,78.8125 1494.1563,79.1094 C1494.1563,79.6875 1494.5625,80 1495.3438,80 L1503.4219,80 L1503.4219,77.4688 C1503.4219,77.0625 1503.3906,76.8906 1503.2813,76.7344 C1503.1094,76.4688 1502.8281,76.3125 1502.5,76.3125 C1502.2188,76.3125 1501.9375,76.4531 1501.75,76.6719 C1501.6094,76.8594 1501.5781,77.0156 1501.5781,77.4688 L1501.5781,78.25 L1497.3594,78.25 L1497.3594,76.0625 Z "/><text fill="#000000" font-family="sans-serif" font-size="14" font-weight="bold" lengthAdjust="spacingAndGlyphs" textLength="221" x="1512.5" y="79.606">TypeDefinition.TypeAssociation</text></a><!--class it.matlice.ingsw.model.data.Settings--><a target="_parent" xlink:actuate="onRequest" xlink:href="../../../../it/matlice/ingsw/model/data/Settings.html" xlink:show="new" xlink:title="it.matlice.ingsw.model.data.Settings" xlink:type="simple"><rect fill="#FEFECE" filter="url(#f810xj8)" height="32" style="stroke: #A80036; stroke-width: 1.5;" width="89" x="1771.5" y="59"/><ellipse cx="1786.5" cy="75" fill="#ADD1B2" rx="11" ry="11" style="stroke: #A80036; stroke-width: 1.0;"/><path d="M1781.5,76.1563 C1781.5,78.6563 1783.6406,80.4688 1786.5625,80.4688 C1787.7969,80.4688 1788.9688,80.1719 1789.7188,79.6563 C1790.3281,79.2344 1790.6563,78.8125 1790.6563,78.4063 C1790.6563,77.9375 1790.2344,77.5313 1789.7344,77.5313 C1789.5,77.5313 1789.2813,77.6094 1789.0781,77.8125 C1788.6406,78.25 1788.6406,78.25 1788.4688,78.3438 C1788.0156,78.5781 1787.375,78.7188 1786.6094,78.7188 C1784.6094,78.7188 1783.3281,77.7031 1783.3281,76.125 L1783.3281,75.0781 C1783.3281,73.375 1784.5469,72.1719 1786.25,72.1719 C1786.8281,72.1719 1787.4063,72.3125 1787.875,72.5625 C1788.3438,72.8281 1788.5156,73.0156 1788.5781,73.375 C1788.7031,74.0469 1788.9531,74.2969 1789.4844,74.2969 C1789.7656,74.2969 1790.0469,74.1563 1790.2344,73.9375 C1790.3594,73.7656 1790.4063,73.5938 1790.4063,73.1563 L1790.4063,71.7969 C1790.4063,71.375 1790.3906,71.2344 1790.2656,71.0625 C1790.0938,70.8125 1789.8125,70.6563 1789.4844,70.6563 C1789.1719,70.6563 1788.9688,70.7656 1788.75,71.0313 C1787.5781,70.5313 1787.1406,70.4219 1786.1875,70.4219 C1783.5156,70.4219 1781.5,72.4375 1781.5,75.0625 L1781.5,76.1563 Z "/><text fill="#000000" font-family="sans-serif" font-size="14" font-weight="bold" lengthAdjust="spacingAndGlyphs" textLength="57" x="1800.5" y="79.606">Settings</text></a><!--class it.matlice.ingsw.model.data.Settings.Day--><a target="_parent" xlink:actuate="onRequest" xlink:href="../../../../it/matlice/ingsw/model/data/Settings.Day.html" xlink:show="new" xlink:title="it.matlice.ingsw.model.data.Settings.Day" xlink:type="simple"><rect fill="#FEFECE" filter="url(#f810xj8)" height="32" style="stroke: #A80036; stroke-width: 1.5;" width="119" x="1042.5" y="151"/><ellipse cx="1057.5" cy="167" fill="#EB937F" rx="11" ry="11" style="stroke: #A80036; stroke-width: 1.0;"/><path d="M1056.3594,168.0625 L1057.6719,168.0625 L1057.6719,168.1094 C1057.6719,168.5156 1057.6875,168.6719 1057.7969,168.8281 C1057.9688,169.0781 1058.2656,169.25 1058.5781,169.25 C1058.8594,169.25 1059.1563,169.1094 1059.3281,168.8906 C1059.4531,168.7031 1059.5,168.5625 1059.5,168.1094 L1059.5,166.2656 C1059.5,165.9375 1059.4844,165.8281 1059.4219,165.6563 C1059.3125,165.3594 1058.9531,165.1094 1058.5781,165.1094 C1058.2813,165.1094 1058.0156,165.25 1057.8438,165.4688 C1057.7031,165.6563 1057.6719,165.8281 1057.6719,166.2656 L1057.6719,166.3281 L1056.3594,166.3281 L1056.3594,164.1563 L1060.2031,164.1563 L1060.2031,164.9063 C1060.2031,165.2969 1060.2344,165.4844 1060.3438,165.6406 C1060.5156,165.8906 1060.8125,166.0625 1061.125,166.0625 C1061.4219,166.0625 1061.6875,165.9375 1061.875,165.7031 C1062.0156,165.5156 1062.0469,165.375 1062.0469,164.9063 L1062.0469,162.4063 L1054.3438,162.4063 C1053.8906,162.4063 1053.7656,162.4219 1053.5938,162.5313 C1053.3281,162.7031 1053.1563,162.9688 1053.1563,163.2813 C1053.1563,163.5625 1053.2813,163.8281 1053.5313,164 C1053.7188,164.125 1053.9063,164.1563 1054.3438,164.1563 L1054.5313,164.1563 L1054.5313,170.25 L1054.3438,170.25 C1053.9219,170.25 1053.7656,170.2813 1053.5938,170.375 C1053.3281,170.5313 1053.1563,170.8125 1053.1563,171.1094 C1053.1563,171.6875 1053.5625,172 1054.3438,172 L1062.4219,172 L1062.4219,169.4688 C1062.4219,169.0625 1062.3906,168.8906 1062.2813,168.7344 C1062.1094,168.4688 1061.8281,168.3125 1061.5,168.3125 C1061.2188,168.3125 1060.9375,168.4531 1060.75,168.6719 C1060.6094,168.8594 1060.5781,169.0156 1060.5781,169.4688 L1060.5781,170.25 L1056.3594,170.25 L1056.3594,168.0625 Z "/><text fill="#000000" font-family="sans-serif" font-size="14" font-weight="bold" lengthAdjust="spacingAndGlyphs" textLength="87" x="1071.5" y="171.606">Settings.Day</text></a><!--class it.matlice.ingsw.model.data.Offer--><a target="_parent" xlink:actuate="onRequest" xlink:href="../../../../it/matlice/ingsw/model/data/Offer.html" xlink:show="new" xlink:title="it.matlice.ingsw.model.data.Offer" xlink:type="simple"><rect fill="#FEFECE" filter="url(#f810xj8)" height="32" style="stroke: #A80036; stroke-width: 1.5;" width="66" x="1197" y="151"/><ellipse cx="1212" cy="167" fill="#ADD1B2" rx="11" ry="11" style="stroke: #A80036; stroke-width: 1.0;"/><path d="M1207,168.1563 C1207,170.6563 1209.1406,172.4688 1212.0625,172.4688 C1213.2969,172.4688 1214.4688,172.1719 1215.2188,171.6563 C1215.8281,171.2344 1216.1563,170.8125 1216.1563,170.4063 C1216.1563,169.9375 1215.7344,169.5313 1215.2344,169.5313 C1215,169.5313 1214.7813,169.6094 1214.5781,169.8125 C1214.1406,170.25 1214.1406,170.25 1213.9688,170.3438 C1213.5156,170.5781 1212.875,170.7188 1212.1094,170.7188 C1210.1094,170.7188 1208.8281,169.7031 1208.8281,168.125 L1208.8281,167.0781 C1208.8281,165.375 1210.0469,164.1719 1211.75,164.1719 C1212.3281,164.1719 1212.9063,164.3125 1213.375,164.5625 C1213.8438,164.8281 1214.0156,165.0156 1214.0781,165.375 C1214.2031,166.0469 1214.4531,166.2969 1214.9844,166.2969 C1215.2656,166.2969 1215.5469,166.1563 1215.7344,165.9375 C1215.8594,165.7656 1215.9063,165.5938 1215.9063,165.1563 L1215.9063,163.7969 C1215.9063,163.375 1215.8906,163.2344 1215.7656,163.0625 C1215.5938,162.8125 1215.3125,162.6563 1214.9844,162.6563 C1214.6719,162.6563 1214.4688,162.7656 1214.25,163.0313 C1213.0781,162.5313 1212.6406,162.4219 1211.6875,162.4219 C1209.0156,162.4219 1207,164.4375 1207,167.0625 L1207,168.1563 Z "/><text fill="#000000" font-family="sans-serif" font-size="14" font-weight="bold" lengthAdjust="spacingAndGlyphs" textLength="34" x="1226" y="171.606">Offer</text></a><!--class it.matlice.ingsw.model.data.Offer.OfferStatus--><a target="_parent" xlink:actuate="onRequest" xlink:href="../../../../it/matlice/ingsw/model/data/Offer.OfferStatus.html" xlink:show="new" xlink:title="it.matlice.ingsw.model.data.Offer.OfferStatus" xlink:type="simple"><rect fill="#FEFECE" filter="url(#f810xj8)" height="32" style="stroke: #A80036; stroke-width: 1.5;" width="148" x="1298" y="151"/><ellipse cx="1313" cy="167" fill="#EB937F" rx="11" ry="11" style="stroke: #A80036; stroke-width: 1.0;"/><path d="M1311.8594,168.0625 L1313.1719,168.0625 L1313.1719,168.1094 C1313.1719,168.5156 1313.1875,168.6719 1313.2969,168.8281 C1313.4688,169.0781 1313.7656,169.25 1314.0781,169.25 C1314.3594,169.25 1314.6563,169.1094 1314.8281,168.8906 C1314.9531,168.7031 1315,168.5625 1315,168.1094 L1315,166.2656 C1315,165.9375 1314.9844,165.8281 1314.9219,165.6563 C1314.8125,165.3594 1314.4531,165.1094 1314.0781,165.1094 C1313.7813,165.1094 1313.5156,165.25 1313.3438,165.4688 C1313.2031,165.6563 1313.1719,165.8281 1313.1719,166.2656 L1313.1719,166.3281 L1311.8594,166.3281 L1311.8594,164.1563 L1315.7031,164.1563 L1315.7031,164.9063 C1315.7031,165.2969 1315.7344,165.4844 1315.8438,165.6406 C1316.0156,165.8906 1316.3125,166.0625 1316.625,166.0625 C1316.9219,166.0625 1317.1875,165.9375 1317.375,165.7031 C1317.5156,165.5156 1317.5469,165.375 1317.5469,164.9063 L1317.5469,162.4063 L1309.8438,162.4063 C1309.3906,162.4063 1309.2656,162.4219 1309.0938,162.5313 C1308.8281,162.7031 1308.6563,162.9688 1308.6563,163.2813 C1308.6563,163.5625 1308.7813,163.8281 1309.0313,164 C1309.2188,164.125 1309.4063,164.1563 1309.8438,164.1563 L1310.0313,164.1563 L1310.0313,170.25 L1309.8438,170.25 C1309.4219,170.25 1309.2656,170.2813 1309.0938,170.375 C1308.8281,170.5313 1308.6563,170.8125 1308.6563,171.1094 C1308.6563,171.6875 1309.0625,172 1309.8438,172 L1317.9219,172 L1317.9219,169.4688 C1317.9219,169.0625 1317.8906,168.8906 1317.7813,168.7344 C1317.6094,168.4688 1317.3281,168.3125 1317,168.3125 C1316.7188,168.3125 1316.4375,168.4531 1316.25,168.6719 C1316.1094,168.8594 1316.0781,169.0156 1316.0781,169.4688 L1316.0781,170.25 L1311.8594,170.25 L1311.8594,168.0625 Z "/><text fill="#000000" font-family="sans-serif" font-size="14" font-weight="bold" lengthAdjust="spacingAndGlyphs" textLength="116" x="1327" y="171.606">Offer.OfferStatus</text></a><!--class it.matlice.ingsw.model.data.NodeCategory--><a target="_parent" xlink:actuate="onRequest" xlink:href="../../../../it/matlice/ingsw/model/data/NodeCategory.html" xlink:show="new" xlink:title="it.matlice.ingsw.model.data.NodeCategory" xlink:type="simple"><rect fill="#FEFECE" filter="url(#f810xj8)" height="32" style="stroke: #A80036; stroke-width: 1.5;" width="130" x="1481" y="151"/><ellipse cx="1496" cy="167" fill="#ADD1B2" rx="11" ry="11" style="stroke: #A80036; stroke-width: 1.0;"/><path d="M1491,168.1563 C1491,170.6563 1493.1406,172.4688 1496.0625,172.4688 C1497.2969,172.4688 1498.4688,172.1719 1499.2188,171.6563 C1499.8281,171.2344 1500.1563,170.8125 1500.1563,170.4063 C1500.1563,169.9375 1499.7344,169.5313 1499.2344,169.5313 C1499,169.5313 1498.7813,169.6094 1498.5781,169.8125 C1498.1406,170.25 1498.1406,170.25 1497.9688,170.3438 C1497.5156,170.5781 1496.875,170.7188 1496.1094,170.7188 C1494.1094,170.7188 1492.8281,169.7031 1492.8281,168.125 L1492.8281,167.0781 C1492.8281,165.375 1494.0469,164.1719 1495.75,164.1719 C1496.3281,164.1719 1496.9063,164.3125 1497.375,164.5625 C1497.8438,164.8281 1498.0156,165.0156 1498.0781,165.375 C1498.2031,166.0469 1498.4531,166.2969 1498.9844,166.2969 C1499.2656,166.2969 1499.5469,166.1563 1499.7344,165.9375 C1499.8594,165.7656 1499.9063,165.5938 1499.9063,165.1563 L1499.9063,163.7969 C1499.9063,163.375 1499.8906,163.2344 1499.7656,163.0625 C1499.5938,162.8125 1499.3125,162.6563 1498.9844,162.6563 C1498.6719,162.6563 1498.4688,162.7656 1498.25,163.0313 C1497.0781,162.5313 1496.6406,162.4219 1495.6875,162.4219 C1493.0156,162.4219 1491,164.4375 1491,167.0625 L1491,168.1563 Z "/><text fill="#000000" font-family="sans-serif" font-size="14" font-weight="bold" lengthAdjust="spacingAndGlyphs" textLength="98" x="1510" y="171.606">NodeCategory</text></a><!--class it.matlice.ingsw.model.data.Message--><a target="_parent" xlink:actuate="onRequest" xlink:href="../../../../it/matlice/ingsw/model/data/Message.html" xlink:show="new" xlink:title="it.matlice.ingsw.model.data.Message" xlink:type="simple"><rect fill="#FEFECE" filter="url(#f810xj8)" height="32" style="stroke: #A80036; stroke-width: 1.5;" width="93" x="1646.5" y="151"/><ellipse cx="1661.5" cy="167" fill="#ADD1B2" rx="11" ry="11" style="stroke: #A80036; stroke-width: 1.0;"/><path d="M1656.5,168.1563 C1656.5,170.6563 1658.6406,172.4688 1661.5625,172.4688 C1662.7969,172.4688 1663.9688,172.1719 1664.7188,171.6563 C1665.3281,171.2344 1665.6563,170.8125 1665.6563,170.4063 C1665.6563,169.9375 1665.2344,169.5313 1664.7344,169.5313 C1664.5,169.5313 1664.2813,169.6094 1664.0781,169.8125 C1663.6406,170.25 1663.6406,170.25 1663.4688,170.3438 C1663.0156,170.5781 1662.375,170.7188 1661.6094,170.7188 C1659.6094,170.7188 1658.3281,169.7031 1658.3281,168.125 L1658.3281,167.0781 C1658.3281,165.375 1659.5469,164.1719 1661.25,164.1719 C1661.8281,164.1719 1662.4063,164.3125 1662.875,164.5625 C1663.3438,164.8281 1663.5156,165.0156 1663.5781,165.375 C1663.7031,166.0469 1663.9531,166.2969 1664.4844,166.2969 C1664.7656,166.2969 1665.0469,166.1563 1665.2344,165.9375 C1665.3594,165.7656 1665.4063,165.5938 1665.4063,165.1563 L1665.4063,163.7969 C1665.4063,163.375 1665.3906,163.2344 1665.2656,163.0625 C1665.0938,162.8125 1664.8125,162.6563 1664.4844,162.6563 C1664.1719,162.6563 1663.9688,162.7656 1663.75,163.0313 C1662.5781,162.5313 1662.1406,162.4219 1661.1875,162.4219 C1658.5156,162.4219 1656.5,164.4375 1656.5,167.0625 L1656.5,168.1563 Z "/><text fill="#000000" font-family="sans-serif" font-size="14" font-weight="bold" lengthAdjust="spacingAndGlyphs" textLength="61" x="1675.5" y="171.606">Message</text></a><!--class it.matlice.ingsw.model.data.LeafCategory--><a target="_parent" xlink:actuate="onRequest" xlink:href="../../../../it/matlice/ingsw/model/data/LeafCategory.html" xlink:show="new" xlink:title="it.matlice.ingsw.model.data.LeafCategory" xlink:type="simple"><rect fill="#FEFECE" filter="url(#f810xj8)" height="32" style="stroke: #A80036; stroke-width: 1.5;" width="124" x="1047" y="258"/><ellipse cx="1062" cy="274" fill="#ADD1B2" rx="11" ry="11" style="stroke: #A80036; stroke-width: 1.0;"/><path d="M1057,275.1563 C1057,277.6563 1059.1406,279.4688 1062.0625,279.4688 C1063.2969,279.4688 1064.4688,279.1719 1065.2188,278.6563 C1065.8281,278.2344 1066.1563,277.8125 1066.1563,277.4063 C1066.1563,276.9375 1065.7344,276.5313 1065.2344,276.5313 C1065,276.5313 1064.7813,276.6094 1064.5781,276.8125 C1064.1406,277.25 1064.1406,277.25 1063.9688,277.3438 C1063.5156,277.5781 1062.875,277.7188 1062.1094,277.7188 C1060.1094,277.7188 1058.8281,276.7031 1058.8281,275.125 L1058.8281,274.0781 C1058.8281,272.375 1060.0469,271.1719 1061.75,271.1719 C1062.3281,271.1719 1062.9063,271.3125 1063.375,271.5625 C1063.8438,271.8281 1064.0156,272.0156 1064.0781,272.375 C1064.2031,273.0469 1064.4531,273.2969 1064.9844,273.2969 C1065.2656,273.2969 1065.5469,273.1563 1065.7344,272.9375 C1065.8594,272.7656 1065.9063,272.5938 1065.9063,272.1563 L1065.9063,270.7969 C1065.9063,270.375 1065.8906,270.2344 1065.7656,270.0625 C1065.5938,269.8125 1065.3125,269.6563 1064.9844,269.6563 C1064.6719,269.6563 1064.4688,269.7656 1064.25,270.0313 C1063.0781,269.5313 1062.6406,269.4219 1061.6875,269.4219 C1059.0156,269.4219 1057,271.4375 1057,274.0625 L1057,275.1563 Z "/><text fill="#000000" font-family="sans-serif" font-size="14" font-weight="bold" lengthAdjust="spacingAndGlyphs" textLength="92" x="1076" y="278.606">LeafCategory</text></a><!--class it.matlice.ingsw.model.data.Interval--><a target="_parent" xlink:actuate="onRequest" xlink:href="../../../../it/matlice/ingsw/model/data/Interval.html" xlink:show="new" xlink:title="it.matlice.ingsw.model.data.Interval" xlink:type="simple"><rect fill="#FEFECE" filter="url(#f810xj8)" height="32" style="stroke: #A80036; stroke-width: 1.5;" width="83" x="1206.5" y="258"/><ellipse cx="1221.5" cy="274" fill="#ADD1B2" rx="11" ry="11" style="stroke: #A80036; stroke-width: 1.0;"/><path d="M1216.5,275.1563 C1216.5,277.6563 1218.6406,279.4688 1221.5625,279.4688 C1222.7969,279.4688 1223.9688,279.1719 1224.7188,278.6563 C1225.3281,278.2344 1225.6563,277.8125 1225.6563,277.4063 C1225.6563,276.9375 1225.2344,276.5313 1224.7344,276.5313 C1224.5,276.5313 1224.2813,276.6094 1224.0781,276.8125 C1223.6406,277.25 1223.6406,277.25 1223.4688,277.3438 C1223.0156,277.5781 1222.375,277.7188 1221.6094,277.7188 C1219.6094,277.7188 1218.3281,276.7031 1218.3281,275.125 L1218.3281,274.0781 C1218.3281,272.375 1219.5469,271.1719 1221.25,271.1719 C1221.8281,271.1719 1222.4063,271.3125 1222.875,271.5625 C1223.3438,271.8281 1223.5156,272.0156 1223.5781,272.375 C1223.7031,273.0469 1223.9531,273.2969 1224.4844,273.2969 C1224.7656,273.2969 1225.0469,273.1563 1225.2344,272.9375 C1225.3594,272.7656 1225.4063,272.5938 1225.4063,272.1563 L1225.4063,270.7969 C1225.4063,270.375 1225.3906,270.2344 1225.2656,270.0625 C1225.0938,269.8125 1224.8125,269.6563 1224.4844,269.6563 C1224.1719,269.6563 1223.9688,269.7656 1223.75,270.0313 C1222.5781,269.5313 1222.1406,269.4219 1221.1875,269.4219 C1218.5156,269.4219 1216.5,271.4375 1216.5,274.0625 L1216.5,275.1563 Z "/><text fill="#000000" font-family="sans-serif" font-size="14" font-weight="bold" lengthAdjust="spacingAndGlyphs" textLength="51" x="1235.5" y="278.606">Interval</text></a><!--class it.matlice.ingsw.model.data.Interval.Time--><a target="_parent" xlink:actuate="onRequest" xlink:href="../../../../it/matlice/ingsw/model/data/Interval.Time.html" xlink:show="new" xlink:title="it.matlice.ingsw.model.data.Interval.Time" xlink:type="simple"><rect fill="#FEFECE" filter="url(#f810xj8)" height="32" style="stroke: #A80036; stroke-width: 1.5;" width="120" x="1325" y="258"/><ellipse cx="1340" cy="274" fill="#ADD1B2" rx="11" ry="11" style="stroke: #A80036; stroke-width: 1.0;"/><path d="M1335,275.1563 C1335,277.6563 1337.1406,279.4688 1340.0625,279.4688 C1341.2969,279.4688 1342.4688,279.1719 1343.2188,278.6563 C1343.8281,278.2344 1344.1563,277.8125 1344.1563,277.4063 C1344.1563,276.9375 1343.7344,276.5313 1343.2344,276.5313 C1343,276.5313 1342.7813,276.6094 1342.5781,276.8125 C1342.1406,277.25 1342.1406,277.25 1341.9688,277.3438 C1341.5156,277.5781 1340.875,277.7188 1340.1094,277.7188 C1338.1094,277.7188 1336.8281,276.7031 1336.8281,275.125 L1336.8281,274.0781 C1336.8281,272.375 1338.0469,271.1719 1339.75,271.1719 C1340.3281,271.1719 1340.9063,271.3125 1341.375,271.5625 C1341.8438,271.8281 1342.0156,272.0156 1342.0781,272.375 C1342.2031,273.0469 1342.4531,273.2969 1342.9844,273.2969 C1343.2656,273.2969 1343.5469,273.1563 1343.7344,272.9375 C1343.8594,272.7656 1343.9063,272.5938 1343.9063,272.1563 L1343.9063,270.7969 C1343.9063,270.375 1343.8906,270.2344 1343.7656,270.0625 C1343.5938,269.8125 1343.3125,269.6563 1342.9844,269.6563 C1342.6719,269.6563 1342.4688,269.7656 1342.25,270.0313 C1341.0781,269.5313 1340.6406,269.4219 1339.6875,269.4219 C1337.0156,269.4219 1335,271.4375 1335,274.0625 L1335,275.1563 Z "/><text fill="#000000" font-family="sans-serif" font-size="14" font-weight="bold" lengthAdjust="spacingAndGlyphs" textLength="88" x="1354" y="278.606">Interval.Time</text></a><!--class it.matlice.ingsw.model.data.Hierarchy--><a target="_parent" xlink:actuate="onRequest" xlink:href="../../../../it/matlice/ingsw/model/data/Hierarchy.html" xlink:show="new" xlink:title="it.matlice.ingsw.model.data.Hierarchy" xlink:type="simple"><rect fill="#FEFECE" filter="url(#f810xj8)" height="32" style="stroke: #A80036; stroke-width: 1.5;" width="97" x="1480.5" y="258"/><ellipse cx="1495.5" cy="274" fill="#ADD1B2" rx="11" ry="11" style="stroke: #A80036; stroke-width: 1.0;"/><path d="M1490.5,275.1563 C1490.5,277.6563 1492.6406,279.4688 1495.5625,279.4688 C1496.7969,279.4688 1497.9688,279.1719 1498.7188,278.6563 C1499.3281,278.2344 1499.6563,277.8125 1499.6563,277.4063 C1499.6563,276.9375 1499.2344,276.5313 1498.7344,276.5313 C1498.5,276.5313 1498.2813,276.6094 1498.0781,276.8125 C1497.6406,277.25 1497.6406,277.25 1497.4688,277.3438 C1497.0156,277.5781 1496.375,277.7188 1495.6094,277.7188 C1493.6094,277.7188 1492.3281,276.7031 1492.3281,275.125 L1492.3281,274.0781 C1492.3281,272.375 1493.5469,271.1719 1495.25,271.1719 C1495.8281,271.1719 1496.4063,271.3125 1496.875,271.5625 C1497.3438,271.8281 1497.5156,272.0156 1497.5781,272.375 C1497.7031,273.0469 1497.9531,273.2969 1498.4844,273.2969 C1498.7656,273.2969 1499.0469,273.1563 1499.2344,272.9375 C1499.3594,272.7656 1499.4063,272.5938 1499.4063,272.1563 L1499.4063,270.7969 C1499.4063,270.375 1499.3906,270.2344 1499.2656,270.0625 C1499.0938,269.8125 1498.8125,269.6563 1498.4844,269.6563 C1498.1719,269.6563 1497.9688,269.7656 1497.75,270.0313 C1496.5781,269.5313 1496.1406,269.4219 1495.1875,269.4219 C1492.5156,269.4219 1490.5,271.4375 1490.5,274.0625 L1490.5,275.1563 Z "/><text fill="#000000" font-family="sans-serif" font-size="14" font-weight="bold" lengthAdjust="spacingAndGlyphs" textLength="65" x="1509.5" y="278.606">Hierarchy</text></a><!--class it.matlice.ingsw.model.data.CustomerUser--><a target="_parent" xlink:actuate="onRequest" xlink:href="../../../../it/matlice/ingsw/model/data/CustomerUser.html" xlink:show="new" xlink:title="it.matlice.ingsw.model.data.CustomerUser" xlink:type="simple"><rect fill="#FEFECE" filter="url(#f810xj8)" height="32" style="stroke: #A80036; stroke-width: 1.5;" width="129" x="1612.5" y="258"/><ellipse cx="1627.5" cy="274" fill="#ADD1B2" rx="11" ry="11" style="stroke: #A80036; stroke-width: 1.0;"/><path d="M1622.5,275.1563 C1622.5,277.6563 1624.6406,279.4688 1627.5625,279.4688 C1628.7969,279.4688 1629.9688,279.1719 1630.7188,278.6563 C1631.3281,278.2344 1631.6563,277.8125 1631.6563,277.4063 C1631.6563,276.9375 1631.2344,276.5313 1630.7344,276.5313 C1630.5,276.5313 1630.2813,276.6094 1630.0781,276.8125 C1629.6406,277.25 1629.6406,277.25 1629.4688,277.3438 C1629.0156,277.5781 1628.375,277.7188 1627.6094,277.7188 C1625.6094,277.7188 1624.3281,276.7031 1624.3281,275.125 L1624.3281,274.0781 C1624.3281,272.375 1625.5469,271.1719 1627.25,271.1719 C1627.8281,271.1719 1628.4063,271.3125 1628.875,271.5625 C1629.3438,271.8281 1629.5156,272.0156 1629.5781,272.375 C1629.7031,273.0469 1629.9531,273.2969 1630.4844,273.2969 C1630.7656,273.2969 1631.0469,273.1563 1631.2344,272.9375 C1631.3594,272.7656 1631.4063,272.5938 1631.4063,272.1563 L1631.4063,270.7969 C1631.4063,270.375 1631.3906,270.2344 1631.2656,270.0625 C1631.0938,269.8125 1630.8125,269.6563 1630.4844,269.6563 C1630.1719,269.6563 1629.9688,269.7656 1629.75,270.0313 C1628.5781,269.5313 1628.1406,269.4219 1627.1875,269.4219 C1624.5156,269.4219 1622.5,271.4375 1622.5,274.0625 L1622.5,275.1563 Z "/><text fill="#000000" font-family="sans-serif" font-size="14" font-weight="bold" lengthAdjust="spacingAndGlyphs" textLength="97" x="1641.5" y="278.606">CustomerUser</text></a><!--class it.matlice.ingsw.model.data.ConfiguratorUser--><a target="_parent" xlink:actuate="onRequest" xlink:href="../../../../it/matlice/ingsw/model/data/ConfiguratorUser.html" xlink:show="new" xlink:title="it.matlice.ingsw.model.data.ConfiguratorUser" xlink:type="simple"><rect fill="#FEFECE" filter="url(#f810xj8)" height="32" style="stroke: #A80036; stroke-width: 1.5;" width="150" x="1041" y="350"/><ellipse cx="1056" cy="366" fill="#ADD1B2" rx="11" ry="11" style="stroke: #A80036; stroke-width: 1.0;"/><path d="M1051,367.1563 C1051,369.6563 1053.1406,371.4688 1056.0625,371.4688 C1057.2969,371.4688 1058.4688,371.1719 1059.2188,370.6563 C1059.8281,370.2344 1060.1563,369.8125 1060.1563,369.4063 C1060.1563,368.9375 1059.7344,368.5313 1059.2344,368.5313 C1059,368.5313 1058.7813,368.6094 1058.5781,368.8125 C1058.1406,369.25 1058.1406,369.25 1057.9688,369.3438 C1057.5156,369.5781 1056.875,369.7188 1056.1094,369.7188 C1054.1094,369.7188 1052.8281,368.7031 1052.8281,367.125 L1052.8281,366.0781 C1052.8281,364.375 1054.0469,363.1719 1055.75,363.1719 C1056.3281,363.1719 1056.9063,363.3125 1057.375,363.5625 C1057.8438,363.8281 1058.0156,364.0156 1058.0781,364.375 C1058.2031,365.0469 1058.4531,365.2969 1058.9844,365.2969 C1059.2656,365.2969 1059.5469,365.1563 1059.7344,364.9375 C1059.8594,364.7656 1059.9063,364.5938 1059.9063,364.1563 L1059.9063,362.7969 C1059.9063,362.375 1059.8906,362.2344 1059.7656,362.0625 C1059.5938,361.8125 1059.3125,361.6563 1058.9844,361.6563 C1058.6719,361.6563 1058.4688,361.7656 1058.25,362.0313 C1057.0781,361.5313 1056.6406,361.4219 1055.6875,361.4219 C1053.0156,361.4219 1051,363.4375 1051,366.0625 L1051,367.1563 Z "/><text fill="#000000" font-family="sans-serif" font-size="14" font-weight="bold" lengthAdjust="spacingAndGlyphs" textLength="118" x="1070" y="370.606">ConfiguratorUser</text></a><!--class it.matlice.ingsw.model.data.Category--><a target="_parent" xlink:actuate="onRequest" xlink:href="../../../../it/matlice/ingsw/model/data/Category.html" xlink:show="new" xlink:title="it.matlice.ingsw.model.data.Category" xlink:type="simple"><rect fill="#FEFECE" filter="url(#f810xj8)" height="32" style="stroke: #A80036; stroke-width: 1.5;" width="94" x="1226" y="350"/><ellipse cx="1241" cy="366" fill="#ADD1B2" rx="11" ry="11" style="stroke: #A80036; stroke-width: 1.0;"/><path d="M1236,367.1563 C1236,369.6563 1238.1406,371.4688 1241.0625,371.4688 C1242.2969,371.4688 1243.4688,371.1719 1244.2188,370.6563 C1244.8281,370.2344 1245.1563,369.8125 1245.1563,369.4063 C1245.1563,368.9375 1244.7344,368.5313 1244.2344,368.5313 C1244,368.5313 1243.7813,368.6094 1243.5781,368.8125 C1243.1406,369.25 1243.1406,369.25 1242.9688,369.3438 C1242.5156,369.5781 1241.875,369.7188 1241.1094,369.7188 C1239.1094,369.7188 1237.8281,368.7031 1237.8281,367.125 L1237.8281,366.0781 C1237.8281,364.375 1239.0469,363.1719 1240.75,363.1719 C1241.3281,363.1719 1241.9063,363.3125 1242.375,363.5625 C1242.8438,363.8281 1243.0156,364.0156 1243.0781,364.375 C1243.2031,365.0469 1243.4531,365.2969 1243.9844,365.2969 C1244.2656,365.2969 1244.5469,365.1563 1244.7344,364.9375 C1244.8594,364.7656 1244.9063,364.5938 1244.9063,364.1563 L1244.9063,362.7969 C1244.9063,362.375 1244.8906,362.2344 1244.7656,362.0625 C1244.5938,361.8125 1244.3125,361.6563 1243.9844,361.6563 C1243.6719,361.6563 1243.4688,361.7656 1243.25,362.0313 C1242.0781,361.5313 1241.6406,361.4219 1240.6875,361.4219 C1238.0156,361.4219 1236,363.4375 1236,366.0625 L1236,367.1563 Z "/><text fill="#000000" font-family="sans-serif" font-size="14" font-weight="bold" lengthAdjust="spacingAndGlyphs" textLength="62" x="1255" y="370.606">Category</text></a><!--class it.matlice.ingsw.model.exceptions.RequiredFieldConstrainException--><a target="_parent" xlink:actuate="onRequest" xlink:href="../../../../it/matlice/ingsw/model/exceptions/RequiredFieldConstrainException.html" xlink:show="new" xlink:title="it.matlice.ingsw.model.exceptions.RequiredFieldConstrainException" xlink:type="simple"><rect fill="#FEFECE" filter="url(#f810xj8)" height="32" style="stroke: #A80036; stroke-width: 1.5;" width="264" x="38" y="258"/><ellipse cx="53" cy="274" fill="#ADD1B2" rx="11" ry="11" style="stroke: #A80036; stroke-width: 1.0;"/><path d="M48,275.1563 C48,277.6563 50.1406,279.4688 53.0625,279.4688 C54.2969,279.4688 55.4688,279.1719 56.2188,278.6563 C56.8281,278.2344 57.1563,277.8125 57.1563,277.4063 C57.1563,276.9375 56.7344,276.5313 56.2344,276.5313 C56,276.5313 55.7813,276.6094 55.5781,276.8125 C55.1406,277.25 55.1406,277.25 54.9688,277.3438 C54.5156,277.5781 53.875,277.7188 53.1094,277.7188 C51.1094,277.7188 49.8281,276.7031 49.8281,275.125 L49.8281,274.0781 C49.8281,272.375 51.0469,271.1719 52.75,271.1719 C53.3281,271.1719 53.9063,271.3125 54.375,271.5625 C54.8438,271.8281 55.0156,272.0156 55.0781,272.375 C55.2031,273.0469 55.4531,273.2969 55.9844,273.2969 C56.2656,273.2969 56.5469,273.1563 56.7344,272.9375 C56.8594,272.7656 56.9063,272.5938 56.9063,272.1563 L56.9063,270.7969 C56.9063,270.375 56.8906,270.2344 56.7656,270.0625 C56.5938,269.8125 56.3125,269.6563 55.9844,269.6563 C55.6719,269.6563 55.4688,269.7656 55.25,270.0313 C54.0781,269.5313 53.6406,269.4219 52.6875,269.4219 C50.0156,269.4219 48,271.4375 48,274.0625 L48,275.1563 Z "/><text fill="#000000" font-family="sans-serif" font-size="14" font-weight="bold" lengthAdjust="spacingAndGlyphs" textLength="232" x="67" y="278.606">RequiredFieldConstrainException</text></a><!--class it.matlice.ingsw.model.exceptions.LoginInvalidException--><a target="_parent" xlink:actuate="onRequest" xlink:href="../../../../it/matlice/ingsw/model/exceptions/LoginInvalidException.html" xlink:show="new" xlink:title="it.matlice.ingsw.model.exceptions.LoginInvalidException" xlink:type="simple"><rect fill="#FEFECE" filter="url(#f810xj8)" height="32" style="stroke: #A80036; stroke-width: 1.5;" width="187" x="337.5" y="258"/><ellipse cx="352.5" cy="274" fill="#ADD1B2" rx="11" ry="11" style="stroke: #A80036; stroke-width: 1.0;"/><path d="M347.5,275.1563 C347.5,277.6563 349.6406,279.4688 352.5625,279.4688 C353.7969,279.4688 354.9688,279.1719 355.7188,278.6563 C356.3281,278.2344 356.6563,277.8125 356.6563,277.4063 C356.6563,276.9375 356.2344,276.5313 355.7344,276.5313 C355.5,276.5313 355.2813,276.6094 355.0781,276.8125 C354.6406,277.25 354.6406,277.25 354.4688,277.3438 C354.0156,277.5781 353.375,277.7188 352.6094,277.7188 C350.6094,277.7188 349.3281,276.7031 349.3281,275.125 L349.3281,274.0781 C349.3281,272.375 350.5469,271.1719 352.25,271.1719 C352.8281,271.1719 353.4063,271.3125 353.875,271.5625 C354.3438,271.8281 354.5156,272.0156 354.5781,272.375 C354.7031,273.0469 354.9531,273.2969 355.4844,273.2969 C355.7656,273.2969 356.0469,273.1563 356.2344,272.9375 C356.3594,272.7656 356.4063,272.5938 356.4063,272.1563 L356.4063,270.7969 C356.4063,270.375 356.3906,270.2344 356.2656,270.0625 C356.0938,269.8125 355.8125,269.6563 355.4844,269.6563 C355.1719,269.6563 354.9688,269.7656 354.75,270.0313 C353.5781,269.5313 353.1406,269.4219 352.1875,269.4219 C349.5156,269.4219 347.5,271.4375 347.5,274.0625 L347.5,275.1563 Z "/><text fill="#000000" font-family="sans-serif" font-size="14" font-weight="bold" lengthAdjust="spacingAndGlyphs" textLength="155" x="366.5" y="278.606">LoginInvalidException</text></a><!--class it.matlice.ingsw.model.exceptions.InvalidUserTypeException--><a target="_parent" xlink:actuate="onRequest" xlink:href="../../../../it/matlice/ingsw/model/exceptions/InvalidUserTypeException.html" xlink:show="new" xlink:title="it.matlice.ingsw.model.exceptions.InvalidUserTypeException" xlink:type="simple"><rect fill="#FEFECE" filter="url(#f810xj8)" height="32" style="stroke: #A80036; stroke-width: 1.5;" width="212" x="560" y="258"/><ellipse cx="575" cy="274" fill="#ADD1B2" rx="11" ry="11" style="stroke: #A80036; stroke-width: 1.0;"/><path d="M570,275.1563 C570,277.6563 572.1406,279.4688 575.0625,279.4688 C576.2969,279.4688 577.4688,279.1719 578.2188,278.6563 C578.8281,278.2344 579.1563,277.8125 579.1563,277.4063 C579.1563,276.9375 578.7344,276.5313 578.2344,276.5313 C578,276.5313 577.7813,276.6094 577.5781,276.8125 C577.1406,277.25 577.1406,277.25 576.9688,277.3438 C576.5156,277.5781 575.875,277.7188 575.1094,277.7188 C573.1094,277.7188 571.8281,276.7031 571.8281,275.125 L571.8281,274.0781 C571.8281,272.375 573.0469,271.1719 574.75,271.1719 C575.3281,271.1719 575.9063,271.3125 576.375,271.5625 C576.8438,271.8281 577.0156,272.0156 577.0781,272.375 C577.2031,273.0469 577.4531,273.2969 577.9844,273.2969 C578.2656,273.2969 578.5469,273.1563 578.7344,272.9375 C578.8594,272.7656 578.9063,272.5938 578.9063,272.1563 L578.9063,270.7969 C578.9063,270.375 578.8906,270.2344 578.7656,270.0625 C578.5938,269.8125 578.3125,269.6563 577.9844,269.6563 C577.6719,269.6563 577.4688,269.7656 577.25,270.0313 C576.0781,269.5313 575.6406,269.4219 574.6875,269.4219 C572.0156,269.4219 570,271.4375 570,274.0625 L570,275.1563 Z "/><text fill="#000000" font-family="sans-serif" font-size="14" font-weight="bold" lengthAdjust="spacingAndGlyphs" textLength="180" x="589" y="278.606">InvalidUserTypeException</text></a><!--class it.matlice.ingsw.model.exceptions.InvalidUserException--><a target="_parent" xlink:actuate="onRequest" xlink:href="../../../../it/matlice/ingsw/model/exceptions/InvalidUserException.html" xlink:show="new" xlink:title="it.matlice.ingsw.model.exceptions.InvalidUserException" xlink:type="simple"><rect fill="#FEFECE" filter="url(#f810xj8)" height="32" style="stroke: #A80036; stroke-width: 1.5;" width="178" x="807" y="258"/><ellipse cx="822" cy="274" fill="#ADD1B2" rx="11" ry="11" style="stroke: #A80036; stroke-width: 1.0;"/><path d="M817,275.1563 C817,277.6563 819.1406,279.4688 822.0625,279.4688 C823.2969,279.4688 824.4688,279.1719 825.2188,278.6563 C825.8281,278.2344 826.1563,277.8125 826.1563,277.4063 C826.1563,276.9375 825.7344,276.5313 825.2344,276.5313 C825,276.5313 824.7813,276.6094 824.5781,276.8125 C824.1406,277.25 824.1406,277.25 823.9688,277.3438 C823.5156,277.5781 822.875,277.7188 822.1094,277.7188 C820.1094,277.7188 818.8281,276.7031 818.8281,275.125 L818.8281,274.0781 C818.8281,272.375 820.0469,271.1719 821.75,271.1719 C822.3281,271.1719 822.9063,271.3125 823.375,271.5625 C823.8438,271.8281 824.0156,272.0156 824.0781,272.375 C824.2031,273.0469 824.4531,273.2969 824.9844,273.2969 C825.2656,273.2969 825.5469,273.1563 825.7344,272.9375 C825.8594,272.7656 825.9063,272.5938 825.9063,272.1563 L825.9063,270.7969 C825.9063,270.375 825.8906,270.2344 825.7656,270.0625 C825.5938,269.8125 825.3125,269.6563 824.9844,269.6563 C824.6719,269.6563 824.4688,269.7656 824.25,270.0313 C823.0781,269.5313 822.6406,269.4219 821.6875,269.4219 C819.0156,269.4219 817,271.4375 817,274.0625 L817,275.1563 Z "/><text fill="#000000" font-family="sans-serif" font-size="14" font-weight="bold" lengthAdjust="spacingAndGlyphs" textLength="146" x="836" y="278.606">InvalidUserException</text></a><!--class it.matlice.ingsw.model.exceptions.InvalidTradeOfferException--><a target="_parent" xlink:actuate="onRequest" xlink:href="../../../../it/matlice/ingsw/model/exceptions/InvalidTradeOfferException.html" xlink:show="new" xlink:title="it.matlice.ingsw.model.exceptions.InvalidTradeOfferException" xlink:type="simple"><rect fill="#FEFECE" filter="url(#f810xj8)" height="32" style="stroke: #A80036; stroke-width: 1.5;" width="220" x="50" y="350"/><ellipse cx="65" cy="366" fill="#ADD1B2" rx="11" ry="11" style="stroke: #A80036; stroke-width: 1.0;"/><path d="M60,367.1563 C60,369.6563 62.1406,371.4688 65.0625,371.4688 C66.2969,371.4688 67.4688,371.1719 68.2188,370.6563 C68.8281,370.2344 69.1563,369.8125 69.1563,369.4063 C69.1563,368.9375 68.7344,368.5313 68.2344,368.5313 C68,368.5313 67.7813,368.6094 67.5781,368.8125 C67.1406,369.25 67.1406,369.25 66.9688,369.3438 C66.5156,369.5781 65.875,369.7188 65.1094,369.7188 C63.1094,369.7188 61.8281,368.7031 61.8281,367.125 L61.8281,366.0781 C61.8281,364.375 63.0469,363.1719 64.75,363.1719 C65.3281,363.1719 65.9063,363.3125 66.375,363.5625 C66.8438,363.8281 67.0156,364.0156 67.0781,364.375 C67.2031,365.0469 67.4531,365.2969 67.9844,365.2969 C68.2656,365.2969 68.5469,365.1563 68.7344,364.9375 C68.8594,364.7656 68.9063,364.5938 68.9063,364.1563 L68.9063,362.7969 C68.9063,362.375 68.8906,362.2344 68.7656,362.0625 C68.5938,361.8125 68.3125,361.6563 67.9844,361.6563 C67.6719,361.6563 67.4688,361.7656 67.25,362.0313 C66.0781,361.5313 65.6406,361.4219 64.6875,361.4219 C62.0156,361.4219 60,363.4375 60,366.0625 L60,367.1563 Z "/><text fill="#000000" font-family="sans-serif" font-size="14" font-weight="bold" lengthAdjust="spacingAndGlyphs" textLength="188" x="79" y="370.606">InvalidTradeOfferException</text></a><!--class it.matlice.ingsw.model.exceptions.InvalidTimeException--><a target="_parent" xlink:actuate="onRequest" xlink:href="../../../../it/matlice/ingsw/model/exceptions/InvalidTimeException.html" xlink:show="new" xlink:title="it.matlice.ingsw.model.exceptions.InvalidTimeException" xlink:type="simple"><rect fill="#FEFECE" filter="url(#f810xj8)" height="32" style="stroke: #A80036; stroke-width: 1.5;" width="180" x="305" y="350"/><ellipse cx="320" cy="366" fill="#ADD1B2" rx="11" ry="11" style="stroke: #A80036; stroke-width: 1.0;"/><path d="M315,367.1563 C315,369.6563 317.1406,371.4688 320.0625,371.4688 C321.2969,371.4688 322.4688,371.1719 323.2188,370.6563 C323.8281,370.2344 324.1563,369.8125 324.1563,369.4063 C324.1563,368.9375 323.7344,368.5313 323.2344,368.5313 C323,368.5313 322.7813,368.6094 322.5781,368.8125 C322.1406,369.25 322.1406,369.25 321.9688,369.3438 C321.5156,369.5781 320.875,369.7188 320.1094,369.7188 C318.1094,369.7188 316.8281,368.7031 316.8281,367.125 L316.8281,366.0781 C316.8281,364.375 318.0469,363.1719 319.75,363.1719 C320.3281,363.1719 320.9063,363.3125 321.375,363.5625 C321.8438,363.8281 322.0156,364.0156 322.0781,364.375 C322.2031,365.0469 322.4531,365.2969 322.9844,365.2969 C323.2656,365.2969 323.5469,365.1563 323.7344,364.9375 C323.8594,364.7656 323.9063,364.5938 323.9063,364.1563 L323.9063,362.7969 C323.9063,362.375 323.8906,362.2344 323.7656,362.0625 C323.5938,361.8125 323.3125,361.6563 322.9844,361.6563 C322.6719,361.6563 322.4688,361.7656 322.25,362.0313 C321.0781,361.5313 320.6406,361.4219 319.6875,361.4219 C317.0156,361.4219 315,363.4375 315,366.0625 L315,367.1563 Z "/><text fill="#000000" font-family="sans-serif" font-size="14" font-weight="bold" lengthAdjust="spacingAndGlyphs" textLength="148" x="334" y="370.606">InvalidTimeException</text></a><!--class it.matlice.ingsw.model.exceptions.InvalidIntervalException--><a target="_parent" xlink:actuate="onRequest" xlink:href="../../../../it/matlice/ingsw/model/exceptions/InvalidIntervalException.html" xlink:show="new" xlink:title="it.matlice.ingsw.model.exceptions.InvalidIntervalException" xlink:type="simple"><rect fill="#FEFECE" filter="url(#f810xj8)" height="32" style="stroke: #A80036; stroke-width: 1.5;" width="198" x="520" y="350"/><ellipse cx="535" cy="366" fill="#ADD1B2" rx="11" ry="11" style="stroke: #A80036; stroke-width: 1.0;"/><path d="M530,367.1563 C530,369.6563 532.1406,371.4688 535.0625,371.4688 C536.2969,371.4688 537.4688,371.1719 538.2188,370.6563 C538.8281,370.2344 539.1563,369.8125 539.1563,369.4063 C539.1563,368.9375 538.7344,368.5313 538.2344,368.5313 C538,368.5313 537.7813,368.6094 537.5781,368.8125 C537.1406,369.25 537.1406,369.25 536.9688,369.3438 C536.5156,369.5781 535.875,369.7188 535.1094,369.7188 C533.1094,369.7188 531.8281,368.7031 531.8281,367.125 L531.8281,366.0781 C531.8281,364.375 533.0469,363.1719 534.75,363.1719 C535.3281,363.1719 535.9063,363.3125 536.375,363.5625 C536.8438,363.8281 537.0156,364.0156 537.0781,364.375 C537.2031,365.0469 537.4531,365.2969 537.9844,365.2969 C538.2656,365.2969 538.5469,365.1563 538.7344,364.9375 C538.8594,364.7656 538.9063,364.5938 538.9063,364.1563 L538.9063,362.7969 C538.9063,362.375 538.8906,362.2344 538.7656,362.0625 C538.5938,361.8125 538.3125,361.6563 537.9844,361.6563 C537.6719,361.6563 537.4688,361.7656 537.25,362.0313 C536.0781,361.5313 535.6406,361.4219 534.6875,361.4219 C532.0156,361.4219 530,363.4375 530,366.0625 L530,367.1563 Z "/><text fill="#000000" font-family="sans-serif" font-size="14" font-weight="bold" lengthAdjust="spacingAndGlyphs" textLength="166" x="549" y="370.606">InvalidIntervalException</text></a><!--class it.matlice.ingsw.model.exceptions.InvalidFieldException--><a target="_parent" xlink:actuate="onRequest" xlink:href="../../../../it/matlice/ingsw/model/exceptions/InvalidFieldException.html" xlink:show="new" xlink:title="it.matlice.ingsw.model.exceptions.InvalidFieldException" xlink:type="simple"><rect fill="#FEFECE" filter="url(#f810xj8)" height="32" style="stroke: #A80036; stroke-width: 1.5;" width="181" x="753.5" y="350"/><ellipse cx="768.5" cy="366" fill="#ADD1B2" rx="11" ry="11" style="stroke: #A80036; stroke-width: 1.0;"/><path d="M763.5,367.1563 C763.5,369.6563 765.6406,371.4688 768.5625,371.4688 C769.7969,371.4688 770.9688,371.1719 771.7188,370.6563 C772.3281,370.2344 772.6563,369.8125 772.6563,369.4063 C772.6563,368.9375 772.2344,368.5313 771.7344,368.5313 C771.5,368.5313 771.2813,368.6094 771.0781,368.8125 C770.6406,369.25 770.6406,369.25 770.4688,369.3438 C770.0156,369.5781 769.375,369.7188 768.6094,369.7188 C766.6094,369.7188 765.3281,368.7031 765.3281,367.125 L765.3281,366.0781 C765.3281,364.375 766.5469,363.1719 768.25,363.1719 C768.8281,363.1719 769.4063,363.3125 769.875,363.5625 C770.3438,363.8281 770.5156,364.0156 770.5781,364.375 C770.7031,365.0469 770.9531,365.2969 771.4844,365.2969 C771.7656,365.2969 772.0469,365.1563 772.2344,364.9375 C772.3594,364.7656 772.4063,364.5938 772.4063,364.1563 L772.4063,362.7969 C772.4063,362.375 772.3906,362.2344 772.2656,362.0625 C772.0938,361.8125 771.8125,361.6563 771.4844,361.6563 C771.1719,361.6563 770.9688,361.7656 770.75,362.0313 C769.5781,361.5313 769.1406,361.4219 768.1875,361.4219 C765.5156,361.4219 763.5,363.4375 763.5,366.0625 L763.5,367.1563 Z "/><text fill="#000000" font-family="sans-serif" font-size="14" font-weight="bold" lengthAdjust="spacingAndGlyphs" textLength="149" x="782.5" y="370.606">InvalidFieldException</text></a><!--class it.matlice.ingsw.model.exceptions.InvalidCategoryException--><a target="_parent" xlink:actuate="onRequest" xlink:href="../../../../it/matlice/ingsw/model/exceptions/InvalidCategoryException.html" xlink:show="new" xlink:title="it.matlice.ingsw.model.exceptions.InvalidCategoryException" xlink:type="simple"><rect fill="#FEFECE" filter="url(#f810xj8)" height="32" style="stroke: #A80036; stroke-width: 1.5;" width="209" x="45.5" y="442"/><ellipse cx="60.5" cy="458" fill="#ADD1B2" rx="11" ry="11" style="stroke: #A80036; stroke-width: 1.0;"/><path d="M55.5,459.1563 C55.5,461.6563 57.6406,463.4688 60.5625,463.4688 C61.7969,463.4688 62.9688,463.1719 63.7188,462.6563 C64.3281,462.2344 64.6563,461.8125 64.6563,461.4063 C64.6563,460.9375 64.2344,460.5313 63.7344,460.5313 C63.5,460.5313 63.2813,460.6094 63.0781,460.8125 C62.6406,461.25 62.6406,461.25 62.4688,461.3438 C62.0156,461.5781 61.375,461.7188 60.6094,461.7188 C58.6094,461.7188 57.3281,460.7031 57.3281,459.125 L57.3281,458.0781 C57.3281,456.375 58.5469,455.1719 60.25,455.1719 C60.8281,455.1719 61.4063,455.3125 61.875,455.5625 C62.3438,455.8281 62.5156,456.0156 62.5781,456.375 C62.7031,457.0469 62.9531,457.2969 63.4844,457.2969 C63.7656,457.2969 64.0469,457.1563 64.2344,456.9375 C64.3594,456.7656 64.4063,456.5938 64.4063,456.1563 L64.4063,454.7969 C64.4063,454.375 64.3906,454.2344 64.2656,454.0625 C64.0938,453.8125 63.8125,453.6563 63.4844,453.6563 C63.1719,453.6563 62.9688,453.7656 62.75,454.0313 C61.5781,453.5313 61.1406,453.4219 60.1875,453.4219 C57.5156,453.4219 55.5,455.4375 55.5,458.0625 L55.5,459.1563 Z "/><text fill="#000000" font-family="sans-serif" font-size="14" font-weight="bold" lengthAdjust="spacingAndGlyphs" textLength="177" x="74.5" y="462.606">InvalidCategoryException</text></a><!--class it.matlice.ingsw.model.exceptions.DuplicateUserException--><a target="_parent" xlink:actuate="onRequest" xlink:href="../../../../it/matlice/ingsw/model/exceptions/DuplicateUserException.html" xlink:show="new" xlink:title="it.matlice.ingsw.model.exceptions.DuplicateUserException" xlink:type="simple"><rect fill="#FEFECE" filter="url(#f810xj8)" height="32" style="stroke: #A80036; stroke-width: 1.5;" width="197" x="289.5" y="442"/><ellipse cx="304.5" cy="458" fill="#ADD1B2" rx="11" ry="11" style="stroke: #A80036; stroke-width: 1.0;"/><path d="M299.5,459.1563 C299.5,461.6563 301.6406,463.4688 304.5625,463.4688 C305.7969,463.4688 306.9688,463.1719 307.7188,462.6563 C308.3281,462.2344 308.6563,461.8125 308.6563,461.4063 C308.6563,460.9375 308.2344,460.5313 307.7344,460.5313 C307.5,460.5313 307.2813,460.6094 307.0781,460.8125 C306.6406,461.25 306.6406,461.25 306.4688,461.3438 C306.0156,461.5781 305.375,461.7188 304.6094,461.7188 C302.6094,461.7188 301.3281,460.7031 301.3281,459.125 L301.3281,458.0781 C301.3281,456.375 302.5469,455.1719 304.25,455.1719 C304.8281,455.1719 305.4063,455.3125 305.875,455.5625 C306.3438,455.8281 306.5156,456.0156 306.5781,456.375 C306.7031,457.0469 306.9531,457.2969 307.4844,457.2969 C307.7656,457.2969 308.0469,457.1563 308.2344,456.9375 C308.3594,456.7656 308.4063,456.5938 308.4063,456.1563 L308.4063,454.7969 C308.4063,454.375 308.3906,454.2344 308.2656,454.0625 C308.0938,453.8125 307.8125,453.6563 307.4844,453.6563 C307.1719,453.6563 306.9688,453.7656 306.75,454.0313 C305.5781,453.5313 305.1406,453.4219 304.1875,453.4219 C301.5156,453.4219 299.5,455.4375 299.5,458.0625 L299.5,459.1563 Z "/><text fill="#000000" font-family="sans-serif" font-size="14" font-weight="bold" lengthAdjust="spacingAndGlyphs" textLength="165" x="318.5" y="462.606">DuplicateUserException</text></a><!--class it.matlice.ingsw.model.exceptions.DuplicateFieldException--><a target="_parent" xlink:actuate="onRequest" xlink:href="../../../../it/matlice/ingsw/model/exceptions/DuplicateFieldException.html" xlink:show="new" xlink:title="it.matlice.ingsw.model.exceptions.DuplicateFieldException" xlink:type="simple"><rect fill="#FEFECE" filter="url(#f810xj8)" height="32" style="stroke: #A80036; stroke-width: 1.5;" width="200" x="522" y="442"/><ellipse cx="537" cy="458" fill="#ADD1B2" rx="11" ry="11" style="stroke: #A80036; stroke-width: 1.0;"/><path d="M532,459.1563 C532,461.6563 534.1406,463.4688 537.0625,463.4688 C538.2969,463.4688 539.4688,463.1719 540.2188,462.6563 C540.8281,462.2344 541.1563,461.8125 541.1563,461.4063 C541.1563,460.9375 540.7344,460.5313 540.2344,460.5313 C540,460.5313 539.7813,460.6094 539.5781,460.8125 C539.1406,461.25 539.1406,461.25 538.9688,461.3438 C538.5156,461.5781 537.875,461.7188 537.1094,461.7188 C535.1094,461.7188 533.8281,460.7031 533.8281,459.125 L533.8281,458.0781 C533.8281,456.375 535.0469,455.1719 536.75,455.1719 C537.3281,455.1719 537.9063,455.3125 538.375,455.5625 C538.8438,455.8281 539.0156,456.0156 539.0781,456.375 C539.2031,457.0469 539.4531,457.2969 539.9844,457.2969 C540.2656,457.2969 540.5469,457.1563 540.7344,456.9375 C540.8594,456.7656 540.9063,456.5938 540.9063,456.1563 L540.9063,454.7969 C540.9063,454.375 540.8906,454.2344 540.7656,454.0625 C540.5938,453.8125 540.3125,453.6563 539.9844,453.6563 C539.6719,453.6563 539.4688,453.7656 539.25,454.0313 C538.0781,453.5313 537.6406,453.4219 536.6875,453.4219 C534.0156,453.4219 532,455.4375 532,458.0625 L532,459.1563 Z "/><text fill="#000000" font-family="sans-serif" font-size="14" font-weight="bold" lengthAdjust="spacingAndGlyphs" textLength="168" x="551" y="462.606">DuplicateFieldException</text></a><!--class it.matlice.ingsw.model.exceptions.DuplicateCategoryException--><a target="_parent" xlink:actuate="onRequest" xlink:href="../../../../it/matlice/ingsw/model/exceptions/DuplicateCategoryException.html" xlink:show="new" xlink:title="it.matlice.ingsw.model.exceptions.DuplicateCategoryException" xlink:type="simple"><rect fill="#FEFECE" filter="url(#f810xj8)" height="32" style="stroke: #A80036; stroke-width: 1.5;" width="228" x="757" y="442"/><ellipse cx="772" cy="458" fill="#ADD1B2" rx="11" ry="11" style="stroke: #A80036; stroke-width: 1.0;"/><path d="M767,459.1563 C767,461.6563 769.1406,463.4688 772.0625,463.4688 C773.2969,463.4688 774.4688,463.1719 775.2188,462.6563 C775.8281,462.2344 776.1563,461.8125 776.1563,461.4063 C776.1563,460.9375 775.7344,460.5313 775.2344,460.5313 C775,460.5313 774.7813,460.6094 774.5781,460.8125 C774.1406,461.25 774.1406,461.25 773.9688,461.3438 C773.5156,461.5781 772.875,461.7188 772.1094,461.7188 C770.1094,461.7188 768.8281,460.7031 768.8281,459.125 L768.8281,458.0781 C768.8281,456.375 770.0469,455.1719 771.75,455.1719 C772.3281,455.1719 772.9063,455.3125 773.375,455.5625 C773.8438,455.8281 774.0156,456.0156 774.0781,456.375 C774.2031,457.0469 774.4531,457.2969 774.9844,457.2969 C775.2656,457.2969 775.5469,457.1563 775.7344,456.9375 C775.8594,456.7656 775.9063,456.5938 775.9063,456.1563 L775.9063,454.7969 C775.9063,454.375 775.8906,454.2344 775.7656,454.0625 C775.5938,453.8125 775.3125,453.6563 774.9844,453.6563 C774.6719,453.6563 774.4688,453.7656 774.25,454.0313 C773.0781,453.5313 772.6406,453.4219 771.6875,453.4219 C769.0156,453.4219 767,455.4375 767,458.0625 L767,459.1563 Z "/><text fill="#000000" font-family="sans-serif" font-size="14" font-weight="bold" lengthAdjust="spacingAndGlyphs" textLength="196" x="786" y="462.606">DuplicateCategoryException</text></a><!--class it.matlice.ingsw.model.exceptions.CannotParseTimeException--><a target="_parent" xlink:actuate="onRequest" xlink:href="../../../../it/matlice/ingsw/model/exceptions/CannotParseTimeException.html" xlink:show="new" xlink:title="it.matlice.ingsw.model.exceptions.CannotParseTimeException" xlink:type="simple"><rect fill="#FEFECE" filter="url(#f810xj8)" height="32" style="stroke: #A80036; stroke-width: 1.5;" width="222" x="39" y="534"/><ellipse cx="54" cy="550" fill="#ADD1B2" rx="11" ry="11" style="stroke: #A80036; stroke-width: 1.0;"/><path d="M49,551.1563 C49,553.6563 51.1406,555.4688 54.0625,555.4688 C55.2969,555.4688 56.4688,555.1719 57.2188,554.6563 C57.8281,554.2344 58.1563,553.8125 58.1563,553.4063 C58.1563,552.9375 57.7344,552.5313 57.2344,552.5313 C57,552.5313 56.7813,552.6094 56.5781,552.8125 C56.1406,553.25 56.1406,553.25 55.9688,553.3438 C55.5156,553.5781 54.875,553.7188 54.1094,553.7188 C52.1094,553.7188 50.8281,552.7031 50.8281,551.125 L50.8281,550.0781 C50.8281,548.375 52.0469,547.1719 53.75,547.1719 C54.3281,547.1719 54.9063,547.3125 55.375,547.5625 C55.8438,547.8281 56.0156,548.0156 56.0781,548.375 C56.2031,549.0469 56.4531,549.2969 56.9844,549.2969 C57.2656,549.2969 57.5469,549.1563 57.7344,548.9375 C57.8594,548.7656 57.9063,548.5938 57.9063,548.1563 L57.9063,546.7969 C57.9063,546.375 57.8906,546.2344 57.7656,546.0625 C57.5938,545.8125 57.3125,545.6563 56.9844,545.6563 C56.6719,545.6563 56.4688,545.7656 56.25,546.0313 C55.0781,545.5313 54.6406,545.4219 53.6875,545.4219 C51.0156,545.4219 49,547.4375 49,550.0625 L49,551.1563 Z "/><text fill="#000000" font-family="sans-serif" font-size="14" font-weight="bold" lengthAdjust="spacingAndGlyphs" textLength="190" x="68" y="554.606">CannotParseTimeException</text></a><!--class it.matlice.ingsw.model.exceptions.CannotParseIntervalException--><a target="_parent" xlink:actuate="onRequest" xlink:href="../../../../it/matlice/ingsw/model/exceptions/CannotParseIntervalException.html" xlink:show="new" xlink:title="it.matlice.ingsw.model.exceptions.CannotParseIntervalException" xlink:type="simple"><rect fill="#FEFECE" filter="url(#f810xj8)" height="32" style="stroke: #A80036; stroke-width: 1.5;" width="240" x="296" y="534"/><ellipse cx="311" cy="550" fill="#ADD1B2" rx="11" ry="11" style="stroke: #A80036; stroke-width: 1.0;"/><path d="M306,551.1563 C306,553.6563 308.1406,555.4688 311.0625,555.4688 C312.2969,555.4688 313.4688,555.1719 314.2188,554.6563 C314.8281,554.2344 315.1563,553.8125 315.1563,553.4063 C315.1563,552.9375 314.7344,552.5313 314.2344,552.5313 C314,552.5313 313.7813,552.6094 313.5781,552.8125 C313.1406,553.25 313.1406,553.25 312.9688,553.3438 C312.5156,553.5781 311.875,553.7188 311.1094,553.7188 C309.1094,553.7188 307.8281,552.7031 307.8281,551.125 L307.8281,550.0781 C307.8281,548.375 309.0469,547.1719 310.75,547.1719 C311.3281,547.1719 311.9063,547.3125 312.375,547.5625 C312.8438,547.8281 313.0156,548.0156 313.0781,548.375 C313.2031,549.0469 313.4531,549.2969 313.9844,549.2969 C314.2656,549.2969 314.5469,549.1563 314.7344,548.9375 C314.8594,548.7656 314.9063,548.5938 314.9063,548.1563 L314.9063,546.7969 C314.9063,546.375 314.8906,546.2344 314.7656,546.0625 C314.5938,545.8125 314.3125,545.6563 313.9844,545.6563 C313.6719,545.6563 313.4688,545.7656 313.25,546.0313 C312.0781,545.5313 311.6406,545.4219 310.6875,545.4219 C308.0156,545.4219 306,547.4375 306,550.0625 L306,551.1563 Z "/><text fill="#000000" font-family="sans-serif" font-size="14" font-weight="bold" lengthAdjust="spacingAndGlyphs" textLength="208" x="325" y="554.606">CannotParseIntervalException</text></a><!--class it.matlice.ingsw.model.exceptions.CannotParseDayException--><a target="_parent" xlink:actuate="onRequest" xlink:href="../../../../it/matlice/ingsw/model/exceptions/CannotParseDayException.html" xlink:show="new" xlink:title="it.matlice.ingsw.model.exceptions.CannotParseDayException" xlink:type="simple"><rect fill="#FEFECE" filter="url(#f810xj8)" height="32" style="stroke: #A80036; stroke-width: 1.5;" width="215" x="571.5" y="534"/><ellipse cx="586.5" cy="550" fill="#ADD1B2" rx="11" ry="11" style="stroke: #A80036; stroke-width: 1.0;"/><path d="M581.5,551.1563 C581.5,553.6563 583.6406,555.4688 586.5625,555.4688 C587.7969,555.4688 588.9688,555.1719 589.7188,554.6563 C590.3281,554.2344 590.6563,553.8125 590.6563,553.4063 C590.6563,552.9375 590.2344,552.5313 589.7344,552.5313 C589.5,552.5313 589.2813,552.6094 589.0781,552.8125 C588.6406,553.25 588.6406,553.25 588.4688,553.3438 C588.0156,553.5781 587.375,553.7188 586.6094,553.7188 C584.6094,553.7188 583.3281,552.7031 583.3281,551.125 L583.3281,550.0781 C583.3281,548.375 584.5469,547.1719 586.25,547.1719 C586.8281,547.1719 587.4063,547.3125 587.875,547.5625 C588.3438,547.8281 588.5156,548.0156 588.5781,548.375 C588.7031,549.0469 588.9531,549.2969 589.4844,549.2969 C589.7656,549.2969 590.0469,549.1563 590.2344,548.9375 C590.3594,548.7656 590.4063,548.5938 590.4063,548.1563 L590.4063,546.7969 C590.4063,546.375 590.3906,546.2344 590.2656,546.0625 C590.0938,545.8125 589.8125,545.6563 589.4844,545.6563 C589.1719,545.6563 588.9688,545.7656 588.75,546.0313 C587.5781,545.5313 587.1406,545.4219 586.1875,545.4219 C583.5156,545.4219 581.5,547.4375 581.5,550.0625 L581.5,551.1563 Z "/><text fill="#000000" font-family="sans-serif" font-size="14" font-weight="bold" lengthAdjust="spacingAndGlyphs" textLength="183" x="600.5" y="554.606">CannotParseDayException</text></a><path d="M1953,91.03 C1953,91.03 1953,145.85 1953,145.85 " fill="none" style="stroke: #A80036; stroke-width: 1.0; stroke-dasharray: 7.0,7.0;"/><polygon fill="#A80036" points="1953,150.85,1957,141.85,1953,145.85,1949,141.85,1953,150.85" style="stroke: #A80036; stroke-width: 1.0;"/></g></svg>