<?xml version="1.0" encoding="UTF-8" standalone="no"?><svg xmlns="http://www.w3.org/2000/svg" xmlns:xlink="http://www.w3.org/1999/xlink" contentScriptType="application/ecmascript" contentStyleType="text/css" height="98px" preserveAspectRatio="none" style="width:203px;height:98px;" version="1.1" viewBox="0 0 203 98" width="203px" zoomAndPan="magnify"><defs><filter height="300%" id="fgicylv" width="300%" x="-1" y="-1"><feGaussianBlur result="blurOut" stdDeviation="2.0"/><feColorMatrix in="blurOut" result="blurOut2" type="matrix" values="0 0 0 0 0 0 0 0 0 0 0 0 0 0 0 0 0 0 .4 0"/><feOffset dx="4.0" dy="4.0" in="blurOut2" result="blurOut3"/><feBlend in="SourceGraphic" in2="blurOut3" mode="normal"/></filter></defs><g><!--class it.matlice.ingsw.model.Settings--><a target="_parent" xlink:actuate="onRequest" xlink:href="../../../../it/matlice/ingsw/model/Settings.html" xlink:show="new" xlink:title="it.matlice.ingsw.model.Settings" xlink:type="simple"><rect fill="#FEFECE" filter="url(#fgicylv)" height="81.1997" style="stroke: #A80036; stroke-width: 1.5;" width="188" x="6" y="8"/><ellipse cx="46.2" cy="27.4" fill="#ADD1B2" rx="11" ry="11" style="stroke: #A80036; stroke-width: 1.0;"/><path d="M41.2,28.5562 C41.2,31.0562 43.3406,32.8687 46.2625,32.8687 C47.4969,32.8687 48.6688,32.5718 49.4188,32.0562 C50.0281,31.6343 50.3563,31.2125 50.3563,30.8062 C50.3563,30.3375 49.9344,29.9312 49.4344,29.9312 C49.2,29.9312 48.9813,30.0093 48.7781,30.2125 C48.3406,30.65 48.3406,30.65 48.1688,30.7437 C47.7156,30.9781 47.075,31.1187 46.3094,31.1187 C44.3094,31.1187 43.0281,30.1031 43.0281,28.525 L43.0281,27.4781 C43.0281,25.775 44.2469,24.5718 45.95,24.5718 C46.5281,24.5718 47.1063,24.7125 47.575,24.9625 C48.0438,25.2281 48.2156,25.4156 48.2781,25.775 C48.4031,26.4468 48.6531,26.6968 49.1844,26.6968 C49.4656,26.6968 49.7469,26.5562 49.9344,26.3375 C50.0594,26.1656 50.1063,25.9937 50.1063,25.5562 L50.1063,24.1968 C50.1063,23.775 50.0906,23.6343 49.9656,23.4625 C49.7938,23.2125 49.5125,23.0562 49.1844,23.0562 C48.8719,23.0562 48.6688,23.1656 48.45,23.4312 C47.2781,22.9312 46.8406,22.8218 45.8875,22.8218 C43.2156,22.8218 41.2,24.8375 41.2,27.4625 L41.2,28.5562 Z "/><text fill="#000000" font-family="sans-serif" font-size="14" font-weight="bold" lengthAdjust="spacingAndGlyphs" textLength="57" x="87.3" y="26.0059">Settings</text><text fill="#000000" font-family="sans-serif" font-size="10" lengthAdjust="spacingAndGlyphs" textLength="100" x="65.8" y="39.0899">it.matlice.ingsw.model</text><line style="stroke: #A80036; stroke-width: 1.5;" x1="7" x2="193" y1="46.7999" y2="46.7999"/><ellipse cx="17" cy="58.8999" fill="none" rx="3" ry="3" style="stroke: #038048; stroke-width: 1.0;"/><text fill="#000000" font-family="sans-serif" font-size="11" lengthAdjust="spacingAndGlyphs" text-decoration="underline" textLength="162" x="26" y="61.0188">long LOGIN_EXPIRATION_TIME</text><line style="stroke: #000000; stroke-width: 1.0;" x1="26" x2="188" y1="63.0188" y2="63.0188"/><line style="stroke: #A80036; stroke-width: 1.5;" x1="7" x2="193" y1="67.9998" y2="67.9998"/><ellipse cx="17" cy="80.0998" fill="#84BE84" rx="3" ry="3" style="stroke: #038048; stroke-width: 1.0;"/><text fill="#000000" font-family="sans-serif" font-size="11" lengthAdjust="spacingAndGlyphs" textLength="47" x="26" y="82.2187">Settings()</text></a></g></svg>