<?xml version="1.0" encoding="UTF-8" standalone="no"?><svg xmlns="http://www.w3.org/2000/svg" xmlns:xlink="http://www.w3.org/1999/xlink" contentScriptType="application/ecmascript" contentStyleType="text/css" height="595px" preserveAspectRatio="none" style="width:1796px;height:595px;" version="1.1" viewBox="0 0 1796 595" width="1796px" zoomAndPan="magnify"><defs><filter height="300%" id="ftd23a6" width="300%" x="-1" y="-1"><feGaussianBlur result="blurOut" stdDeviation="2.0"/><feColorMatrix in="blurOut" result="blurOut2" type="matrix" values="0 0 0 0 0 0 0 0 0 0 0 0 0 0 0 0 0 0 .4 0"/><feOffset dx="4.0" dy="4.0" in="blurOut2" result="blurOut3"/><feBlend in="SourceGraphic" in2="blurOut3" mode="normal"/></filter></defs><g><!--class it.matlice.ingsw.model.data.Category--><a target="_parent" xlink:actuate="onRequest" xlink:href="../../../../../it/matlice/ingsw/model/data/Category.html" xlink:show="new" xlink:title="it.matlice.ingsw.model.data.Category" xlink:type="simple"><rect fill="#FEFECE" filter="url(#ftd23a6)" height="378.1975" style="stroke: #A80036; stroke-width: 1.5;" width="317" x="654.5" y="110"/><ellipse cx="746.75" cy="129.4" fill="#ADD1B2" rx="11" ry="11" style="stroke: #A80036; stroke-width: 1.0;"/><path d="M741.75,130.5562 C741.75,133.0562 743.8906,134.8687 746.8125,134.8687 C748.0469,134.8687 749.2188,134.5718 749.9688,134.0562 C750.5781,133.6343 750.9063,133.2125 750.9063,132.8062 C750.9063,132.3375 750.4844,131.9312 749.9844,131.9312 C749.75,131.9312 749.5313,132.0093 749.3281,132.2125 C748.8906,132.65 748.8906,132.65 748.7188,132.7437 C748.2656,132.9781 747.625,133.1187 746.8594,133.1187 C744.8594,133.1187 743.5781,132.1031 743.5781,130.525 L743.5781,129.4781 C743.5781,127.775 744.7969,126.5718 746.5,126.5718 C747.0781,126.5718 747.6563,126.7125 748.125,126.9625 C748.5938,127.2281 748.7656,127.4156 748.8281,127.775 C748.9531,128.4468 749.2031,128.6968 749.7344,128.6968 C750.0156,128.6968 750.2969,128.5562 750.4844,128.3375 C750.6094,128.1656 750.6563,127.9937 750.6563,127.5562 L750.6563,126.1968 C750.6563,125.775 750.6406,125.6343 750.5156,125.4625 C750.3438,125.2125 750.0625,125.0562 749.7344,125.0562 C749.4219,125.0562 749.2188,125.1656 749,125.4312 C747.8281,124.9312 747.3906,124.8218 746.4375,124.8218 C743.7656,124.8218 741.75,126.8375 741.75,129.4625 L741.75,130.5562 Z "/><text fill="#000000" font-family="sans-serif" font-size="14" font-weight="bold" lengthAdjust="spacingAndGlyphs" textLength="62" x="798.25" y="128.0059">Category</text><text fill="#000000" font-family="sans-serif" font-size="10" lengthAdjust="spacingAndGlyphs" textLength="124" x="767.25" y="141.0899">it.matlice.ingsw.model.data</text><line style="stroke: #A80036; stroke-width: 1.5;" x1="655.5" x2="970.5" y1="148.7999" y2="148.7999"/><rect fill="none" height="6" style="stroke: #C82930; stroke-width: 1.0;" width="6" x="662.5" y="157.8999"/><text fill="#000000" font-family="sans-serif" font-size="11" lengthAdjust="spacingAndGlyphs" textLength="102" x="674.5" y="163.0188">NodeCategory father</text><line style="stroke: #A80036; stroke-width: 1.5;" x1="655.5" x2="970.5" y1="169.9998" y2="169.9998"/><ellipse cx="665.5" cy="182.0998" fill="#84BE84" rx="3" ry="3" style="stroke: #038048; stroke-width: 1.0;"/><text fill="#000000" font-family="sans-serif" font-size="11" lengthAdjust="spacingAndGlyphs" textLength="53" x="674.5" y="184.2187">Category()</text><ellipse cx="665.5" cy="195.2997" fill="#84BE84" rx="3" ry="3" style="stroke: #038048; stroke-width: 1.0;"/><text fill="#000000" font-family="sans-serif" font-size="11" lengthAdjust="spacingAndGlyphs" textLength="159" x="674.5" y="197.4186">boolean isRequired(String name)</text><ellipse cx="665.5" cy="208.4996" fill="#84BE84" rx="3" ry="3" style="stroke: #038048; stroke-width: 1.0;"/><text fill="#000000" font-family="sans-serif" font-size="11" lengthAdjust="spacingAndGlyphs" textLength="42" x="674.5" y="210.6185">int size()</text><ellipse cx="665.5" cy="221.6995" fill="#84BE84" rx="3" ry="3" style="stroke: #038048; stroke-width: 1.0;"/><text fill="#000000" font-family="sans-serif" font-size="11" lengthAdjust="spacingAndGlyphs" textLength="88" x="674.5" y="223.8184">boolean isEmpty()</text><ellipse cx="665.5" cy="234.8994" fill="#84BE84" rx="3" ry="3" style="stroke: #038048; stroke-width: 1.0;"/><text fill="#000000" font-family="sans-serif" font-size="11" lengthAdjust="spacingAndGlyphs" textLength="148" x="674.5" y="237.0183">TypeDefinition get(Object key)</text><ellipse cx="665.5" cy="248.0993" fill="#84BE84" rx="3" ry="3" style="stroke: #038048; stroke-width: 1.0;"/><text fill="#000000" font-family="sans-serif" font-size="11" lengthAdjust="spacingAndGlyphs" textLength="162" x="674.5" y="250.2182">boolean containsKey(Object key)</text><ellipse cx="665.5" cy="261.2992" fill="#84BE84" rx="3" ry="3" style="stroke: #038048; stroke-width: 1.0;"/><text fill="#000000" font-family="sans-serif" font-size="11" lengthAdjust="spacingAndGlyphs" textLength="245" x="674.5" y="263.4182">TypeDefinition put(String key,TypeDefinition value)</text><ellipse cx="665.5" cy="274.4991" fill="#84BE84" rx="3" ry="3" style="stroke: #038048; stroke-width: 1.0;"/><text fill="#000000" font-family="sans-serif" font-size="11" lengthAdjust="spacingAndGlyphs" textLength="170" x="674.5" y="276.6181">TypeDefinition remove(Object key)</text><ellipse cx="665.5" cy="287.699" fill="#84BE84" rx="3" ry="3" style="stroke: #038048; stroke-width: 1.0;"/><text fill="#000000" font-family="sans-serif" font-size="11" lengthAdjust="spacingAndGlyphs" textLength="120" x="674.5" y="289.818">Set&lt;Entry&gt; fullEntrySet()</text><ellipse cx="665.5" cy="300.8989" fill="#84BE84" rx="3" ry="3" style="stroke: #038048; stroke-width: 1.0;"/><text fill="#000000" font-family="sans-serif" font-size="11" lengthAdjust="spacingAndGlyphs" textLength="55" x="674.5" y="303.0179">void clear()</text><ellipse cx="665.5" cy="314.0988" fill="#84BE84" rx="3" ry="3" style="stroke: #038048; stroke-width: 1.0;"/><text fill="#000000" font-family="sans-serif" font-size="11" lengthAdjust="spacingAndGlyphs" textLength="178" x="674.5" y="316.2178">boolean containsValue(Object value)</text><ellipse cx="665.5" cy="327.2987" fill="#84BE84" rx="3" ry="3" style="stroke: #038048; stroke-width: 1.0;"/><text fill="#000000" font-family="sans-serif" font-size="11" lengthAdjust="spacingAndGlyphs" textLength="125" x="674.5" y="329.4177">boolean isCategoryValid()</text><ellipse cx="665.5" cy="340.4986" fill="#84BE84" rx="3" ry="3" style="stroke: #038048; stroke-width: 1.0;"/><text fill="#000000" font-family="sans-serif" font-size="11" lengthAdjust="spacingAndGlyphs" textLength="129" x="674.5" y="342.6176">NodeCategory getFather()</text><ellipse cx="665.5" cy="353.6985" fill="#84BE84" rx="3" ry="3" style="stroke: #038048; stroke-width: 1.0;"/><text fill="#000000" font-family="sans-serif" font-size="11" lengthAdjust="spacingAndGlyphs" textLength="180" x="674.5" y="355.8175">void setFather(NodeCategory father)</text><ellipse cx="665.5" cy="366.8984" fill="#84BE84" rx="3" ry="3" style="stroke: #038048; stroke-width: 1.0;"/><text fill="#000000" font-family="sans-serif" font-size="11" lengthAdjust="spacingAndGlyphs" textLength="80" x="674.5" y="369.0174">boolean isRoot()</text><ellipse cx="665.5" cy="380.9233" fill="#84BE84" rx="3" ry="3" style="stroke: #038048; stroke-width: 1.0;"/><text fill="#000000" font-family="sans-serif" font-size="11" font-style="italic" lengthAdjust="spacingAndGlyphs" textLength="83" x="674.5" y="384.0983">String getName()</text><ellipse cx="665.5" cy="395.7732" fill="#84BE84" rx="3" ry="3" style="stroke: #038048; stroke-width: 1.0;"/><text fill="#000000" font-family="sans-serif" font-size="11" font-style="italic" lengthAdjust="spacingAndGlyphs" textLength="109" x="674.5" y="398.9481">String getDescription()</text><ellipse cx="665.5" cy="410.6231" fill="#84BE84" rx="3" ry="3" style="stroke: #038048; stroke-width: 1.0;"/><text fill="#000000" font-family="sans-serif" font-size="11" font-style="italic" lengthAdjust="spacingAndGlyphs" textLength="172" x="674.5" y="413.798">List&lt;LeafCategory&gt; getChildLeafs()</text><ellipse cx="665.5" cy="424.648" fill="#84BE84" rx="3" ry="3" style="stroke: #038048; stroke-width: 1.0;"/><text fill="#000000" font-family="sans-serif" font-size="11" lengthAdjust="spacingAndGlyphs" textLength="93" x="674.5" y="426.7669">String fullToString()</text><ellipse cx="665.5" cy="437.8479" fill="#84BE84" rx="3" ry="3" style="stroke: #038048; stroke-width: 1.0;"/><text fill="#000000" font-family="sans-serif" font-size="11" lengthAdjust="spacingAndGlyphs" textLength="76" x="674.5" y="439.9668">String toString()</text><ellipse cx="665.5" cy="451.8728" fill="#84BE84" rx="3" ry="3" style="stroke: #038048; stroke-width: 1.0;"/><text fill="#000000" font-family="sans-serif" font-size="11" font-style="italic" lengthAdjust="spacingAndGlyphs" textLength="236" x="674.5" y="455.0477">boolean isValidChildCategoryName(String name)</text><polygon fill="#4177AF" points="665.5,461.8977,661.5,467.8977,669.5,467.8977" style="stroke: #1963A0; stroke-width: 1.0;"/><text fill="#000000" font-family="sans-serif" font-size="11" lengthAdjust="spacingAndGlyphs" textLength="207" x="674.5" y="468.0166">String fullToString(boolean addDescription)</text><rect fill="#F24D5C" height="6" style="stroke: #C82930; stroke-width: 1.0;" width="6" x="662.5" y="476.0976"/><text fill="#000000" font-family="sans-serif" font-size="11" lengthAdjust="spacingAndGlyphs" textLength="291" x="674.5" y="481.2165">void categoryToString(StringBuilder sb,int level,String prefix)</text></a><!--class it.matlice.ingsw.model.Model--><a target="_parent" xlink:actuate="onRequest" xlink:href="../../../../../it/matlice/ingsw/model/Model.html" xlink:show="new" xlink:title="it.matlice.ingsw.model.Model" xlink:type="simple"><rect fill="#FFFFFF" filter="url(#ftd23a6)" height="38.7999" style="stroke: #A80036; stroke-width: 1.5;" width="132" x="6" y="9.5"/><rect fill="#FFFFFF" height="38.7999" style="stroke: #A80036; stroke-width: 1.5;" width="132" x="6" y="9.5"/><ellipse cx="21" cy="28.9" fill="#ADD1B2" rx="11" ry="11" style="stroke: #A80036; stroke-width: 1.0;"/><path d="M16,30.0562 C16,32.5562 18.1406,34.3687 21.0625,34.3687 C22.2969,34.3687 23.4688,34.0718 24.2188,33.5562 C24.8281,33.1343 25.1563,32.7125 25.1563,32.3062 C25.1563,31.8375 24.7344,31.4312 24.2344,31.4312 C24,31.4312 23.7813,31.5093 23.5781,31.7125 C23.1406,32.15 23.1406,32.15 22.9688,32.2437 C22.5156,32.4781 21.875,32.6187 21.1094,32.6187 C19.1094,32.6187 17.8281,31.6031 17.8281,30.025 L17.8281,28.9781 C17.8281,27.275 19.0469,26.0718 20.75,26.0718 C21.3281,26.0718 21.9063,26.2125 22.375,26.4625 C22.8438,26.7281 23.0156,26.9156 23.0781,27.275 C23.2031,27.9468 23.4531,28.1968 23.9844,28.1968 C24.2656,28.1968 24.5469,28.0562 24.7344,27.8375 C24.8594,27.6656 24.9063,27.4937 24.9063,27.0562 L24.9063,25.6968 C24.9063,25.275 24.8906,25.1343 24.7656,24.9625 C24.5938,24.7125 24.3125,24.5562 23.9844,24.5562 C23.6719,24.5562 23.4688,24.6656 23.25,24.9312 C22.0781,24.4312 21.6406,24.3218 20.6875,24.3218 C18.0156,24.3218 16,26.3375 16,28.9625 L16,30.0562 Z "/><text fill="#000000" font-family="sans-serif" font-size="14" font-weight="bold" lengthAdjust="spacingAndGlyphs" textLength="42" x="64" y="27.5059">Model</text><text fill="#000000" font-family="sans-serif" font-size="10" lengthAdjust="spacingAndGlyphs" textLength="100" x="35" y="40.5899">it.matlice.ingsw.model</text></a><!--class it.matlice.ingsw.model.data.NodeCategory--><a target="_parent" xlink:actuate="onRequest" xlink:href="../../../../../it/matlice/ingsw/model/data/NodeCategory.html" xlink:show="new" xlink:title="it.matlice.ingsw.model.data.NodeCategory" xlink:type="simple"><rect fill="#FEFECE" filter="url(#ftd23a6)" height="38.7999" style="stroke: #A80036; stroke-width: 1.5;" width="156" x="640" y="548"/><ellipse cx="655" cy="567.4" fill="#ADD1B2" rx="11" ry="11" style="stroke: #A80036; stroke-width: 1.0;"/><path d="M650,568.5562 C650,571.0562 652.1406,572.8687 655.0625,572.8687 C656.2969,572.8687 657.4688,572.5718 658.2188,572.0562 C658.8281,571.6343 659.1563,571.2125 659.1563,570.8062 C659.1563,570.3375 658.7344,569.9312 658.2344,569.9312 C658,569.9312 657.7813,570.0093 657.5781,570.2125 C657.1406,570.65 657.1406,570.65 656.9688,570.7437 C656.5156,570.9781 655.875,571.1187 655.1094,571.1187 C653.1094,571.1187 651.8281,570.1031 651.8281,568.525 L651.8281,567.4781 C651.8281,565.775 653.0469,564.5718 654.75,564.5718 C655.3281,564.5718 655.9063,564.7125 656.375,564.9625 C656.8438,565.2281 657.0156,565.4156 657.0781,565.775 C657.2031,566.4468 657.4531,566.6968 657.9844,566.6968 C658.2656,566.6968 658.5469,566.5562 658.7344,566.3375 C658.8594,566.1656 658.9063,565.9937 658.9063,565.5562 L658.9063,564.1968 C658.9063,563.775 658.8906,563.6343 658.7656,563.4625 C658.5938,563.2125 658.3125,563.0562 657.9844,563.0562 C657.6719,563.0562 657.4688,563.1656 657.25,563.4312 C656.0781,562.9312 655.6406,562.8218 654.6875,562.8218 C652.0156,562.8218 650,564.8375 650,567.4625 L650,568.5562 Z "/><text fill="#000000" font-family="sans-serif" font-size="14" font-weight="bold" lengthAdjust="spacingAndGlyphs" textLength="98" x="682" y="566.0059">NodeCategory</text><text fill="#000000" font-family="sans-serif" font-size="10" lengthAdjust="spacingAndGlyphs" textLength="124" x="669" y="579.0899">it.matlice.ingsw.model.data</text></a><!--class it.matlice.ingsw.model.data.LeafCategory--><a target="_parent" xlink:actuate="onRequest" xlink:href="../../../../../it/matlice/ingsw/model/data/LeafCategory.html" xlink:show="new" xlink:title="it.matlice.ingsw.model.data.LeafCategory" xlink:type="simple"><rect fill="#FEFECE" filter="url(#ftd23a6)" height="38.7999" style="stroke: #A80036; stroke-width: 1.5;" width="156" x="831" y="548"/><ellipse cx="846" cy="567.4" fill="#ADD1B2" rx="11" ry="11" style="stroke: #A80036; stroke-width: 1.0;"/><path d="M841,568.5562 C841,571.0562 843.1406,572.8687 846.0625,572.8687 C847.2969,572.8687 848.4688,572.5718 849.2188,572.0562 C849.8281,571.6343 850.1563,571.2125 850.1563,570.8062 C850.1563,570.3375 849.7344,569.9312 849.2344,569.9312 C849,569.9312 848.7813,570.0093 848.5781,570.2125 C848.1406,570.65 848.1406,570.65 847.9688,570.7437 C847.5156,570.9781 846.875,571.1187 846.1094,571.1187 C844.1094,571.1187 842.8281,570.1031 842.8281,568.525 L842.8281,567.4781 C842.8281,565.775 844.0469,564.5718 845.75,564.5718 C846.3281,564.5718 846.9063,564.7125 847.375,564.9625 C847.8438,565.2281 848.0156,565.4156 848.0781,565.775 C848.2031,566.4468 848.4531,566.6968 848.9844,566.6968 C849.2656,566.6968 849.5469,566.5562 849.7344,566.3375 C849.8594,566.1656 849.9063,565.9937 849.9063,565.5562 L849.9063,564.1968 C849.9063,563.775 849.8906,563.6343 849.7656,563.4625 C849.5938,563.2125 849.3125,563.0562 848.9844,563.0562 C848.6719,563.0562 848.4688,563.1656 848.25,563.4312 C847.0781,562.9312 846.6406,562.8218 845.6875,562.8218 C843.0156,562.8218 841,564.8375 841,567.4625 L841,568.5562 Z "/><text fill="#000000" font-family="sans-serif" font-size="14" font-weight="bold" lengthAdjust="spacingAndGlyphs" textLength="92" x="876" y="566.0059">LeafCategory</text><text fill="#000000" font-family="sans-serif" font-size="10" lengthAdjust="spacingAndGlyphs" textLength="124" x="860" y="579.0899">it.matlice.ingsw.model.data</text></a><!--class it.matlice.ingsw.model.data.Hierarchy--><a target="_parent" xlink:actuate="onRequest" xlink:href="../../../../../it/matlice/ingsw/model/data/Hierarchy.html" xlink:show="new" xlink:title="it.matlice.ingsw.model.data.Hierarchy" xlink:type="simple"><rect fill="#FEFECE" filter="url(#ftd23a6)" height="38.7999" style="stroke: #A80036; stroke-width: 1.5;" width="156" x="173" y="9.5"/><ellipse cx="188" cy="28.9" fill="#ADD1B2" rx="11" ry="11" style="stroke: #A80036; stroke-width: 1.0;"/><path d="M183,30.0562 C183,32.5562 185.1406,34.3687 188.0625,34.3687 C189.2969,34.3687 190.4688,34.0718 191.2188,33.5562 C191.8281,33.1343 192.1563,32.7125 192.1563,32.3062 C192.1563,31.8375 191.7344,31.4312 191.2344,31.4312 C191,31.4312 190.7813,31.5093 190.5781,31.7125 C190.1406,32.15 190.1406,32.15 189.9688,32.2437 C189.5156,32.4781 188.875,32.6187 188.1094,32.6187 C186.1094,32.6187 184.8281,31.6031 184.8281,30.025 L184.8281,28.9781 C184.8281,27.275 186.0469,26.0718 187.75,26.0718 C188.3281,26.0718 188.9063,26.2125 189.375,26.4625 C189.8438,26.7281 190.0156,26.9156 190.0781,27.275 C190.2031,27.9468 190.4531,28.1968 190.9844,28.1968 C191.2656,28.1968 191.5469,28.0562 191.7344,27.8375 C191.8594,27.6656 191.9063,27.4937 191.9063,27.0562 L191.9063,25.6968 C191.9063,25.275 191.8906,25.1343 191.7656,24.9625 C191.5938,24.7125 191.3125,24.5562 190.9844,24.5562 C190.6719,24.5562 190.4688,24.6656 190.25,24.9312 C189.0781,24.4312 188.6406,24.3218 187.6875,24.3218 C185.0156,24.3218 183,26.3375 183,28.9625 L183,30.0562 Z "/><text fill="#000000" font-family="sans-serif" font-size="14" font-weight="bold" lengthAdjust="spacingAndGlyphs" textLength="65" x="231.5" y="27.5059">Hierarchy</text><text fill="#000000" font-family="sans-serif" font-size="10" lengthAdjust="spacingAndGlyphs" textLength="124" x="202" y="40.5899">it.matlice.ingsw.model.data</text></a><!--class it.matlice.ingsw.model.data.TypeDefinition--><a target="_parent" xlink:actuate="onRequest" xlink:href="../../../../../it/matlice/ingsw/model/data/TypeDefinition.html" xlink:show="new" xlink:title="it.matlice.ingsw.model.data.TypeDefinition" xlink:type="simple"><rect fill="#FEFECE" filter="url(#ftd23a6)" height="38.7999" style="stroke: #A80036; stroke-width: 1.5;" width="156" x="1022" y="548"/><ellipse cx="1037" cy="567.4" fill="#ADD1B2" rx="11" ry="11" style="stroke: #A80036; stroke-width: 1.0;"/><path d="M1032,568.5562 C1032,571.0562 1034.1406,572.8687 1037.0625,572.8687 C1038.2969,572.8687 1039.4688,572.5718 1040.2188,572.0562 C1040.8281,571.6343 1041.1563,571.2125 1041.1563,570.8062 C1041.1563,570.3375 1040.7344,569.9312 1040.2344,569.9312 C1040,569.9312 1039.7813,570.0093 1039.5781,570.2125 C1039.1406,570.65 1039.1406,570.65 1038.9688,570.7437 C1038.5156,570.9781 1037.875,571.1187 1037.1094,571.1187 C1035.1094,571.1187 1033.8281,570.1031 1033.8281,568.525 L1033.8281,567.4781 C1033.8281,565.775 1035.0469,564.5718 1036.75,564.5718 C1037.3281,564.5718 1037.9063,564.7125 1038.375,564.9625 C1038.8438,565.2281 1039.0156,565.4156 1039.0781,565.775 C1039.2031,566.4468 1039.4531,566.6968 1039.9844,566.6968 C1040.2656,566.6968 1040.5469,566.5562 1040.7344,566.3375 C1040.8594,566.1656 1040.9063,565.9937 1040.9063,565.5562 L1040.9063,564.1968 C1040.9063,563.775 1040.8906,563.6343 1040.7656,563.4625 C1040.5938,563.2125 1040.3125,563.0562 1039.9844,563.0562 C1039.6719,563.0562 1039.4688,563.1656 1039.25,563.4312 C1038.0781,562.9312 1037.6406,562.8218 1036.6875,562.8218 C1034.0156,562.8218 1032,564.8375 1032,567.4625 L1032,568.5562 Z "/><text fill="#000000" font-family="sans-serif" font-size="14" font-weight="bold" lengthAdjust="spacingAndGlyphs" textLength="101" x="1062.5" y="566.0059">TypeDefinition</text><text fill="#000000" font-family="sans-serif" font-size="10" lengthAdjust="spacingAndGlyphs" textLength="124" x="1051" y="579.0899">it.matlice.ingsw.model.data</text></a><!--class it.matlice.ingsw.model.data.factories.HierarchyFactory--><a target="_parent" xlink:actuate="onRequest" xlink:href="../../../../../it/matlice/ingsw/model/data/factories/HierarchyFactory.html" xlink:show="new" xlink:title="it.matlice.ingsw.model.data.factories.HierarchyFactory" xlink:type="simple"><rect fill="#FFFFFF" filter="url(#ftd23a6)" height="42.3999" style="stroke: #A80036; stroke-width: 1.5;" width="198" x="364" y="8"/><rect fill="#FFFFFF" height="42.3999" style="stroke: #A80036; stroke-width: 1.5;" width="198" x="364" y="8"/><ellipse cx="379" cy="29.2" fill="#B4A7E5" rx="11" ry="11" style="stroke: #A80036; stroke-width: 1.0;"/><path d="M380.0156,26.3562 L381.6719,26.3562 C382.0625,26.3562 382.2656,26.325 382.4219,26.2468 C382.6875,26.075 382.8594,25.7781 382.8594,25.4812 C382.8594,25.2 382.7188,24.95 382.4844,24.7781 C382.2969,24.6531 382.1406,24.6062 381.6719,24.6062 L376.5313,24.6062 C376.0938,24.6062 375.9531,24.6218 375.7813,24.7312 C375.5156,24.9031 375.3438,25.1843 375.3438,25.4812 C375.3438,25.7625 375.4844,26.0437 375.7188,26.2 C375.9063,26.325 376.0938,26.3562 376.5313,26.3562 L378.1875,26.3562 L378.1875,32.45 L376.5313,32.45 C376.0938,32.45 375.9531,32.4656 375.7813,32.575 C375.5156,32.7312 375.3438,33.0281 375.3438,33.3093 C375.3438,33.9187 375.75,34.2 376.5313,34.2 L381.6719,34.2 C382.4531,34.2 382.8594,33.9187 382.8594,33.3093 C382.8594,33.0437 382.7188,32.7937 382.4844,32.6218 C382.2969,32.4812 382.125,32.45 381.6719,32.45 L380.0156,32.45 L380.0156,26.3562 Z "/><text fill="#000000" font-family="sans-serif" font-size="14" font-style="italic" font-weight="bold" lengthAdjust="spacingAndGlyphs" textLength="117" x="417.5" y="28.3999">HierarchyFactory</text><text fill="#000000" font-family="sans-serif" font-size="10" font-style="italic" lengthAdjust="spacingAndGlyphs" textLength="166" x="393" y="42.8999">it.matlice.ingsw.model.data.factories</text></a><!--class it.matlice.ingsw.model.data.factories.CategoryFactory--><a target="_parent" xlink:actuate="onRequest" xlink:href="../../../../../it/matlice/ingsw/model/data/factories/CategoryFactory.html" xlink:show="new" xlink:title="it.matlice.ingsw.model.data.factories.CategoryFactory" xlink:type="simple"><rect fill="#FFFFFF" filter="url(#ftd23a6)" height="42.3999" style="stroke: #A80036; stroke-width: 1.5;" width="198" x="597" y="8"/><rect fill="#FFFFFF" height="42.3999" style="stroke: #A80036; stroke-width: 1.5;" width="198" x="597" y="8"/><ellipse cx="612" cy="29.2" fill="#B4A7E5" rx="11" ry="11" style="stroke: #A80036; stroke-width: 1.0;"/><path d="M613.0156,26.3562 L614.6719,26.3562 C615.0625,26.3562 615.2656,26.325 615.4219,26.2468 C615.6875,26.075 615.8594,25.7781 615.8594,25.4812 C615.8594,25.2 615.7188,24.95 615.4844,24.7781 C615.2969,24.6531 615.1406,24.6062 614.6719,24.6062 L609.5313,24.6062 C609.0938,24.6062 608.9531,24.6218 608.7813,24.7312 C608.5156,24.9031 608.3438,25.1843 608.3438,25.4812 C608.3438,25.7625 608.4844,26.0437 608.7188,26.2 C608.9063,26.325 609.0938,26.3562 609.5313,26.3562 L611.1875,26.3562 L611.1875,32.45 L609.5313,32.45 C609.0938,32.45 608.9531,32.4656 608.7813,32.575 C608.5156,32.7312 608.3438,33.0281 608.3438,33.3093 C608.3438,33.9187 608.75,34.2 609.5313,34.2 L614.6719,34.2 C615.4531,34.2 615.8594,33.9187 615.8594,33.3093 C615.8594,33.0437 615.7188,32.7937 615.4844,32.6218 C615.2969,32.4812 615.125,32.45 614.6719,32.45 L613.0156,32.45 L613.0156,26.3562 Z "/><text fill="#000000" font-family="sans-serif" font-size="14" font-style="italic" font-weight="bold" lengthAdjust="spacingAndGlyphs" textLength="114" x="652" y="28.3999">CategoryFactory</text><text fill="#000000" font-family="sans-serif" font-size="10" font-style="italic" lengthAdjust="spacingAndGlyphs" textLength="166" x="626" y="42.8999">it.matlice.ingsw.model.data.factories</text></a><!--class it.matlice.ingsw.model.data.impl.jdbc.HierarchyFactoryImpl--><a target="_parent" xlink:actuate="onRequest" xlink:href="../../../../../it/matlice/ingsw/model/data/impl/jdbc/HierarchyFactoryImpl.html" xlink:show="new" xlink:title="it.matlice.ingsw.model.data.impl.jdbc.HierarchyFactoryImpl" xlink:type="simple"><rect fill="#FFFFFF" filter="url(#ftd23a6)" height="38.7999" style="stroke: #A80036; stroke-width: 1.5;" width="199" x="830.5" y="9.5"/><rect fill="#FFFFFF" height="38.7999" style="stroke: #A80036; stroke-width: 1.5;" width="199" x="830.5" y="9.5"/><ellipse cx="845.5" cy="28.9" fill="#ADD1B2" rx="11" ry="11" style="stroke: #A80036; stroke-width: 1.0;"/><path d="M840.5,30.0562 C840.5,32.5562 842.6406,34.3687 845.5625,34.3687 C846.7969,34.3687 847.9688,34.0718 848.7188,33.5562 C849.3281,33.1343 849.6563,32.7125 849.6563,32.3062 C849.6563,31.8375 849.2344,31.4312 848.7344,31.4312 C848.5,31.4312 848.2813,31.5093 848.0781,31.7125 C847.6406,32.15 847.6406,32.15 847.4688,32.2437 C847.0156,32.4781 846.375,32.6187 845.6094,32.6187 C843.6094,32.6187 842.3281,31.6031 842.3281,30.025 L842.3281,28.9781 C842.3281,27.275 843.5469,26.0718 845.25,26.0718 C845.8281,26.0718 846.4063,26.2125 846.875,26.4625 C847.3438,26.7281 847.5156,26.9156 847.5781,27.275 C847.7031,27.9468 847.9531,28.1968 848.4844,28.1968 C848.7656,28.1968 849.0469,28.0562 849.2344,27.8375 C849.3594,27.6656 849.4063,27.4937 849.4063,27.0562 L849.4063,25.6968 C849.4063,25.275 849.3906,25.1343 849.2656,24.9625 C849.0938,24.7125 848.8125,24.5562 848.4844,24.5562 C848.1719,24.5562 847.9688,24.6656 847.75,24.9312 C846.5781,24.4312 846.1406,24.3218 845.1875,24.3218 C842.5156,24.3218 840.5,26.3375 840.5,28.9625 L840.5,30.0562 Z "/><text fill="#000000" font-family="sans-serif" font-size="14" font-weight="bold" lengthAdjust="spacingAndGlyphs" textLength="146" x="870" y="27.5059">HierarchyFactoryImpl</text><text fill="#000000" font-family="sans-serif" font-size="10" lengthAdjust="spacingAndGlyphs" textLength="167" x="859.5" y="40.5899">it.matlice.ingsw.model.data.impl.jdbc</text></a><!--class it.matlice.ingsw.model.data.impl.jdbc.CategoryFactoryImpl--><a target="_parent" xlink:actuate="onRequest" xlink:href="../../../../../it/matlice/ingsw/model/data/impl/jdbc/CategoryFactoryImpl.html" xlink:show="new" xlink:title="it.matlice.ingsw.model.data.impl.jdbc.CategoryFactoryImpl" xlink:type="simple"><rect fill="#FFFFFF" filter="url(#ftd23a6)" height="38.7999" style="stroke: #A80036; stroke-width: 1.5;" width="199" x="1064.5" y="9.5"/><rect fill="#FFFFFF" height="38.7999" style="stroke: #A80036; stroke-width: 1.5;" width="199" x="1064.5" y="9.5"/><ellipse cx="1079.5" cy="28.9" fill="#ADD1B2" rx="11" ry="11" style="stroke: #A80036; stroke-width: 1.0;"/><path d="M1074.5,30.0562 C1074.5,32.5562 1076.6406,34.3687 1079.5625,34.3687 C1080.7969,34.3687 1081.9688,34.0718 1082.7188,33.5562 C1083.3281,33.1343 1083.6563,32.7125 1083.6563,32.3062 C1083.6563,31.8375 1083.2344,31.4312 1082.7344,31.4312 C1082.5,31.4312 1082.2813,31.5093 1082.0781,31.7125 C1081.6406,32.15 1081.6406,32.15 1081.4688,32.2437 C1081.0156,32.4781 1080.375,32.6187 1079.6094,32.6187 C1077.6094,32.6187 1076.3281,31.6031 1076.3281,30.025 L1076.3281,28.9781 C1076.3281,27.275 1077.5469,26.0718 1079.25,26.0718 C1079.8281,26.0718 1080.4063,26.2125 1080.875,26.4625 C1081.3438,26.7281 1081.5156,26.9156 1081.5781,27.275 C1081.7031,27.9468 1081.9531,28.1968 1082.4844,28.1968 C1082.7656,28.1968 1083.0469,28.0562 1083.2344,27.8375 C1083.3594,27.6656 1083.4063,27.4937 1083.4063,27.0562 L1083.4063,25.6968 C1083.4063,25.275 1083.3906,25.1343 1083.2656,24.9625 C1083.0938,24.7125 1082.8125,24.5562 1082.4844,24.5562 C1082.1719,24.5562 1081.9688,24.6656 1081.75,24.9312 C1080.5781,24.4312 1080.1406,24.3218 1079.1875,24.3218 C1076.5156,24.3218 1074.5,26.3375 1074.5,28.9625 L1074.5,30.0562 Z "/><text fill="#000000" font-family="sans-serif" font-size="14" font-weight="bold" lengthAdjust="spacingAndGlyphs" textLength="143" x="1105.5" y="27.5059">CategoryFactoryImpl</text><text fill="#000000" font-family="sans-serif" font-size="10" lengthAdjust="spacingAndGlyphs" textLength="167" x="1093.5" y="40.5899">it.matlice.ingsw.model.data.impl.jdbc</text></a><!--class it.matlice.ingsw.model.data.impl.jdbc.types.NodeCategoryImpl--><a target="_parent" xlink:actuate="onRequest" xlink:href="../../../../../it/matlice/ingsw/model/data/impl/jdbc/types/NodeCategoryImpl.html" xlink:show="new" xlink:title="it.matlice.ingsw.model.data.impl.jdbc.types.NodeCategoryImpl" xlink:type="simple"><rect fill="#FFFFFF" filter="url(#ftd23a6)" height="38.7999" style="stroke: #A80036; stroke-width: 1.5;" width="227" x="1298.5" y="9.5"/><rect fill="#FFFFFF" height="38.7999" style="stroke: #A80036; stroke-width: 1.5;" width="227" x="1298.5" y="9.5"/><ellipse cx="1313.5" cy="28.9" fill="#ADD1B2" rx="11" ry="11" style="stroke: #A80036; stroke-width: 1.0;"/><path d="M1308.5,30.0562 C1308.5,32.5562 1310.6406,34.3687 1313.5625,34.3687 C1314.7969,34.3687 1315.9688,34.0718 1316.7188,33.5562 C1317.3281,33.1343 1317.6563,32.7125 1317.6563,32.3062 C1317.6563,31.8375 1317.2344,31.4312 1316.7344,31.4312 C1316.5,31.4312 1316.2813,31.5093 1316.0781,31.7125 C1315.6406,32.15 1315.6406,32.15 1315.4688,32.2437 C1315.0156,32.4781 1314.375,32.6187 1313.6094,32.6187 C1311.6094,32.6187 1310.3281,31.6031 1310.3281,30.025 L1310.3281,28.9781 C1310.3281,27.275 1311.5469,26.0718 1313.25,26.0718 C1313.8281,26.0718 1314.4063,26.2125 1314.875,26.4625 C1315.3438,26.7281 1315.5156,26.9156 1315.5781,27.275 C1315.7031,27.9468 1315.9531,28.1968 1316.4844,28.1968 C1316.7656,28.1968 1317.0469,28.0562 1317.2344,27.8375 C1317.3594,27.6656 1317.4063,27.4937 1317.4063,27.0562 L1317.4063,25.6968 C1317.4063,25.275 1317.3906,25.1343 1317.2656,24.9625 C1317.0938,24.7125 1316.8125,24.5562 1316.4844,24.5562 C1316.1719,24.5562 1315.9688,24.6656 1315.75,24.9312 C1314.5781,24.4312 1314.1406,24.3218 1313.1875,24.3218 C1310.5156,24.3218 1308.5,26.3375 1308.5,28.9625 L1308.5,30.0562 Z "/><text fill="#000000" font-family="sans-serif" font-size="14" font-weight="bold" lengthAdjust="spacingAndGlyphs" textLength="127" x="1361.5" y="27.5059">NodeCategoryImpl</text><text fill="#000000" font-family="sans-serif" font-size="10" lengthAdjust="spacingAndGlyphs" textLength="195" x="1327.5" y="40.5899">it.matlice.ingsw.model.data.impl.jdbc.types</text></a><!--class it.matlice.ingsw.model.data.impl.jdbc.types.HierarchyImpl--><a target="_parent" xlink:actuate="onRequest" xlink:href="../../../../../it/matlice/ingsw/model/data/impl/jdbc/types/HierarchyImpl.html" xlink:show="new" xlink:title="it.matlice.ingsw.model.data.impl.jdbc.types.HierarchyImpl" xlink:type="simple"><rect fill="#FFFFFF" filter="url(#ftd23a6)" height="38.7999" style="stroke: #A80036; stroke-width: 1.5;" width="227" x="1560.5" y="9.5"/><rect fill="#FFFFFF" height="38.7999" style="stroke: #A80036; stroke-width: 1.5;" width="227" x="1560.5" y="9.5"/><ellipse cx="1575.5" cy="28.9" fill="#ADD1B2" rx="11" ry="11" style="stroke: #A80036; stroke-width: 1.0;"/><path d="M1570.5,30.0562 C1570.5,32.5562 1572.6406,34.3687 1575.5625,34.3687 C1576.7969,34.3687 1577.9688,34.0718 1578.7188,33.5562 C1579.3281,33.1343 1579.6563,32.7125 1579.6563,32.3062 C1579.6563,31.8375 1579.2344,31.4312 1578.7344,31.4312 C1578.5,31.4312 1578.2813,31.5093 1578.0781,31.7125 C1577.6406,32.15 1577.6406,32.15 1577.4688,32.2437 C1577.0156,32.4781 1576.375,32.6187 1575.6094,32.6187 C1573.6094,32.6187 1572.3281,31.6031 1572.3281,30.025 L1572.3281,28.9781 C1572.3281,27.275 1573.5469,26.0718 1575.25,26.0718 C1575.8281,26.0718 1576.4063,26.2125 1576.875,26.4625 C1577.3438,26.7281 1577.5156,26.9156 1577.5781,27.275 C1577.7031,27.9468 1577.9531,28.1968 1578.4844,28.1968 C1578.7656,28.1968 1579.0469,28.0562 1579.2344,27.8375 C1579.3594,27.6656 1579.4063,27.4937 1579.4063,27.0562 L1579.4063,25.6968 C1579.4063,25.275 1579.3906,25.1343 1579.2656,24.9625 C1579.0938,24.7125 1578.8125,24.5562 1578.4844,24.5562 C1578.1719,24.5562 1577.9688,24.6656 1577.75,24.9312 C1576.5781,24.4312 1576.1406,24.3218 1575.1875,24.3218 C1572.5156,24.3218 1570.5,26.3375 1570.5,28.9625 L1570.5,30.0562 Z "/><text fill="#000000" font-family="sans-serif" font-size="14" font-weight="bold" lengthAdjust="spacingAndGlyphs" textLength="94" x="1640" y="27.5059">HierarchyImpl</text><text fill="#000000" font-family="sans-serif" font-size="10" lengthAdjust="spacingAndGlyphs" textLength="195" x="1589.5" y="40.5899">it.matlice.ingsw.model.data.impl.jdbc.types</text></a><path d="M72,48.62 C72,124.44 72,394 72,394 C72,394 649.49,394 649.49,394 " fill="none" style="stroke: #A80036; stroke-width: 1.0; stroke-dasharray: 7.0,7.0;"/><polygon fill="#A80036" points="654.49,394,645.49,390,649.49,394,645.49,398,654.49,394" style="stroke: #A80036; stroke-width: 1.0;"/><path d="M725.25,547.76 C725.25,547.76 725.25,493.22 725.25,493.22 " fill="none" style="stroke: #A80036; stroke-width: 1.0;"/><polygon fill="#A80036" points="725.25,488.22,721.25,497.22,725.25,493.22,729.25,497.22,725.25,488.22" style="stroke: #A80036; stroke-width: 1.0;"/><text fill="#000000" font-family="sans-serif" font-size="13" lengthAdjust="spacingAndGlyphs" textLength="54" x="666.7676" y="507.9892">children *</text><path d="M760.62,547.76 C760.62,547.76 760.62,508.22 760.62,508.22 " fill="none" style="stroke: #A80036; stroke-width: 1.0;"/><polygon fill="none" points="753.63,508.22,760.62,488.22,767.63,508.22,753.63,508.22" style="stroke: #A80036; stroke-width: 1.0;"/><path d="M689.88,488.03 C689.88,488.03 689.88,542.74 689.88,542.74 " fill="none" style="stroke: #A80036; stroke-width: 1.0;"/><polygon fill="#A80036" points="689.88,547.74,693.88,538.74,689.88,542.74,685.88,538.74,689.88,547.74" style="stroke: #A80036; stroke-width: 1.0;"/><text fill="#000000" font-family="sans-serif" font-size="13" lengthAdjust="spacingAndGlyphs" textLength="33" x="643.2151" y="536.5912">father</text><path d="M924.67,547.76 C924.67,547.76 924.67,508.22 924.67,508.22 " fill="none" style="stroke: #A80036; stroke-width: 1.0;"/><polygon fill="none" points="917.67,508.22,924.67,488.22,931.67,508.22,917.67,508.22" style="stroke: #A80036; stroke-width: 1.0;"/><path d="M877.83,488.03 C877.83,488.03 877.83,542.74 877.83,542.74 " fill="none" style="stroke: #A80036; stroke-width: 1.0; stroke-dasharray: 7.0,7.0;"/><polygon fill="#A80036" points="877.83,547.74,881.83,538.74,877.83,542.74,873.83,538.74,877.83,547.74" style="stroke: #A80036; stroke-width: 1.0;"/><path d="M251,48.85 C251,111.21 251,299 251,299 C251,299 649.21,299 649.21,299 " fill="none" style="stroke: #A80036; stroke-width: 1.0;"/><polygon fill="#A80036" points="654.21,299,645.21,295,649.21,299,645.21,303,654.21,299" style="stroke: #A80036; stroke-width: 1.0;"/><text fill="#000000" font-family="sans-serif" font-size="13" lengthAdjust="spacingAndGlyphs" textLength="74" x="572.562" y="295.7919">rootCategory</text><path d="M971.51,413 C1002.57,413 1025.75,413 1025.75,413 C1025.75,413 1025.75,542.93 1025.75,542.93 " fill="none" style="stroke: #A80036; stroke-width: 1.0; stroke-dasharray: 7.0,7.0;"/><polygon fill="#A80036" points="1025.75,547.93,1029.75,538.93,1025.75,542.93,1021.75,538.93,1025.75,547.93" style="stroke: #A80036; stroke-width: 1.0;"/><path d="M463,50.23 C463,97.04 463,205 463,205 C463,205 649.38,205 649.38,205 " fill="none" style="stroke: #A80036; stroke-width: 1.0; stroke-dasharray: 7.0,7.0;"/><polygon fill="#A80036" points="654.38,205,645.38,201,649.38,205,645.38,209,654.38,205" style="stroke: #A80036; stroke-width: 1.0;"/><path d="M724.75,50.19 C724.75,50.19 724.75,104.8 724.75,104.8 " fill="none" style="stroke: #A80036; stroke-width: 1.0; stroke-dasharray: 7.0,7.0;"/><polygon fill="#A80036" points="724.75,109.8,728.75,100.8,724.75,104.8,720.75,100.8,724.75,109.8" style="stroke: #A80036; stroke-width: 1.0;"/><path d="M901,48.85 C901,48.85 901,104.94 901,104.94 " fill="none" style="stroke: #A80036; stroke-width: 1.0; stroke-dasharray: 7.0,7.0;"/><polygon fill="#A80036" points="901,109.94,905,100.94,901,104.94,897,100.94,901,109.94" style="stroke: #A80036; stroke-width: 1.0;"/><path d="M1121.25,48.57 C1121.25,90.65 1121.25,186 1121.25,186 C1121.25,186 976.64,186 976.64,186 " fill="none" style="stroke: #A80036; stroke-width: 1.0; stroke-dasharray: 7.0,7.0;"/><polygon fill="#A80036" points="971.64,186,980.64,190,976.64,186,980.64,182,971.64,186" style="stroke: #A80036; stroke-width: 1.0;"/><path d="M1412,48.87 C1412,105.21 1412,262 1412,262 C1412,262 976.56,262 976.56,262 " fill="none" style="stroke: #A80036; stroke-width: 1.0; stroke-dasharray: 7.0,7.0;"/><polygon fill="#A80036" points="971.56,262,980.56,266,976.56,262,980.56,258,971.56,262" style="stroke: #A80036; stroke-width: 1.0;"/><path d="M1674,48.74 C1674,116.71 1674,337 1674,337 C1674,337 976.67,337 976.67,337 " fill="none" style="stroke: #A80036; stroke-width: 1.0; stroke-dasharray: 7.0,7.0;"/><polygon fill="#A80036" points="971.67,337,980.67,341,976.67,337,980.67,333,971.67,337" style="stroke: #A80036; stroke-width: 1.0;"/></g></svg>