<?xml version="1.0" encoding="UTF-8" standalone="no"?><svg xmlns="http://www.w3.org/2000/svg" xmlns:xlink="http://www.w3.org/1999/xlink" contentScriptType="application/ecmascript" contentStyleType="text/css" height="282px" preserveAspectRatio="none" style="width:242px;height:282px;" version="1.1" viewBox="0 0 242 282" width="242px" zoomAndPan="magnify"><defs><filter height="300%" id="f4jb8zb" width="300%" x="-1" y="-1"><feGaussianBlur result="blurOut" stdDeviation="2.0"/><feColorMatrix in="blurOut" result="blurOut2" type="matrix" values="0 0 0 0 0 0 0 0 0 0 0 0 0 0 0 0 0 0 .4 0"/><feOffset dx="4.0" dy="4.0" in="blurOut2" result="blurOut3"/><feBlend in="SourceGraphic" in2="blurOut3" mode="normal"/></filter></defs><g><!--class it.matlice.ingsw.model.data.ConfiguratorUser--><a target="_parent" xlink:actuate="onRequest" xlink:href="../../../../../it/matlice/ingsw/model/data/ConfiguratorUser.html" xlink:show="new" xlink:title="it.matlice.ingsw.model.data.ConfiguratorUser" xlink:type="simple"><rect fill="#FEFECE" filter="url(#f4jb8zb)" height="67.9998" style="stroke: #A80036; stroke-width: 1.5;" width="156" x="41.5" y="107"/><ellipse cx="56.5" cy="126.4" fill="#ADD1B2" rx="11" ry="11" style="stroke: #A80036; stroke-width: 1.0;"/><path d="M51.5,127.5562 C51.5,130.0562 53.6406,131.8687 56.5625,131.8687 C57.7969,131.8687 58.9688,131.5718 59.7188,131.0562 C60.3281,130.6343 60.6563,130.2125 60.6563,129.8062 C60.6563,129.3375 60.2344,128.9312 59.7344,128.9312 C59.5,128.9312 59.2813,129.0093 59.0781,129.2125 C58.6406,129.65 58.6406,129.65 58.4688,129.7437 C58.0156,129.9781 57.375,130.1187 56.6094,130.1187 C54.6094,130.1187 53.3281,129.1031 53.3281,127.525 L53.3281,126.4781 C53.3281,124.775 54.5469,123.5718 56.25,123.5718 C56.8281,123.5718 57.4063,123.7125 57.875,123.9625 C58.3438,124.2281 58.5156,124.4156 58.5781,124.775 C58.7031,125.4468 58.9531,125.6968 59.4844,125.6968 C59.7656,125.6968 60.0469,125.5562 60.2344,125.3375 C60.3594,125.1656 60.4063,124.9937 60.4063,124.5562 L60.4063,123.1968 C60.4063,122.775 60.3906,122.6343 60.2656,122.4625 C60.0938,122.2125 59.8125,122.0562 59.4844,122.0562 C59.1719,122.0562 58.9688,122.1656 58.75,122.4312 C57.5781,121.9312 57.1406,121.8218 56.1875,121.8218 C53.5156,121.8218 51.5,123.8375 51.5,126.4625 L51.5,127.5562 Z "/><text fill="#000000" font-family="sans-serif" font-size="14" font-weight="bold" lengthAdjust="spacingAndGlyphs" textLength="118" x="73.5" y="125.0059">ConfiguratorUser</text><text fill="#000000" font-family="sans-serif" font-size="10" lengthAdjust="spacingAndGlyphs" textLength="124" x="70.5" y="138.0899">it.matlice.ingsw.model.data</text><line style="stroke: #A80036; stroke-width: 1.5;" x1="42.5" x2="196.5" y1="145.7999" y2="145.7999"/><line style="stroke: #A80036; stroke-width: 1.5;" x1="42.5" x2="196.5" y1="153.7999" y2="153.7999"/><ellipse cx="52.5" cy="165.8999" fill="#84BE84" rx="3" ry="3" style="stroke: #038048; stroke-width: 1.0;"/><text fill="#000000" font-family="sans-serif" font-size="11" lengthAdjust="spacingAndGlyphs" textLength="92" x="61.5" y="168.0188">ConfiguratorUser()</text></a><!--class it.matlice.ingsw.model.data.User--><a target="_parent" xlink:actuate="onRequest" xlink:href="../../../../../it/matlice/ingsw/model/data/User.html" xlink:show="new" xlink:title="it.matlice.ingsw.model.data.User" xlink:type="simple"><rect fill="#FEFECE" filter="url(#f4jb8zb)" height="38.7999" style="stroke: #A80036; stroke-width: 1.5;" width="156" x="41.5" y="235"/><ellipse cx="56.5" cy="254.4" fill="#ADD1B2" rx="11" ry="11" style="stroke: #A80036; stroke-width: 1.0;"/><path d="M51.5,255.5562 C51.5,258.0562 53.6406,259.8687 56.5625,259.8687 C57.7969,259.8687 58.9688,259.5718 59.7188,259.0562 C60.3281,258.6343 60.6563,258.2125 60.6563,257.8062 C60.6563,257.3375 60.2344,256.9312 59.7344,256.9312 C59.5,256.9312 59.2813,257.0093 59.0781,257.2125 C58.6406,257.65 58.6406,257.65 58.4688,257.7437 C58.0156,257.9781 57.375,258.1187 56.6094,258.1187 C54.6094,258.1187 53.3281,257.1031 53.3281,255.525 L53.3281,254.4781 C53.3281,252.775 54.5469,251.5718 56.25,251.5718 C56.8281,251.5718 57.4063,251.7125 57.875,251.9625 C58.3438,252.2281 58.5156,252.4156 58.5781,252.775 C58.7031,253.4468 58.9531,253.6968 59.4844,253.6968 C59.7656,253.6968 60.0469,253.5562 60.2344,253.3375 C60.3594,253.1656 60.4063,252.9937 60.4063,252.5562 L60.4063,251.1968 C60.4063,250.775 60.3906,250.6343 60.2656,250.4625 C60.0938,250.2125 59.8125,250.0562 59.4844,250.0562 C59.1719,250.0562 58.9688,250.1656 58.75,250.4312 C57.5781,249.9312 57.1406,249.8218 56.1875,249.8218 C53.5156,249.8218 51.5,251.8375 51.5,254.4625 L51.5,255.5562 Z "/><text fill="#000000" font-family="sans-serif" font-size="14" font-weight="bold" lengthAdjust="spacingAndGlyphs" textLength="31" x="117" y="253.0059">User</text><text fill="#000000" font-family="sans-serif" font-size="10" lengthAdjust="spacingAndGlyphs" textLength="124" x="70.5" y="266.0899">it.matlice.ingsw.model.data</text></a><!--class it.matlice.ingsw.model.data.impl.jdbc.types.ConfiguratorUserImpl--><a target="_parent" xlink:actuate="onRequest" xlink:href="../../../../../it/matlice/ingsw/model/data/impl/jdbc/types/ConfiguratorUserImpl.html" xlink:show="new" xlink:title="it.matlice.ingsw.model.data.impl.jdbc.types.ConfiguratorUserImpl" xlink:type="simple"><rect fill="#FFFFFF" filter="url(#f4jb8zb)" height="38.7999" style="stroke: #A80036; stroke-width: 1.5;" width="227" x="6" y="8"/><rect fill="#FFFFFF" height="38.7999" style="stroke: #A80036; stroke-width: 1.5;" width="227" x="6" y="8"/><ellipse cx="21" cy="27.4" fill="#ADD1B2" rx="11" ry="11" style="stroke: #A80036; stroke-width: 1.0;"/><path d="M16,28.5562 C16,31.0562 18.1406,32.8687 21.0625,32.8687 C22.2969,32.8687 23.4688,32.5718 24.2188,32.0562 C24.8281,31.6343 25.1563,31.2125 25.1563,30.8062 C25.1563,30.3375 24.7344,29.9312 24.2344,29.9312 C24,29.9312 23.7813,30.0093 23.5781,30.2125 C23.1406,30.65 23.1406,30.65 22.9688,30.7437 C22.5156,30.9781 21.875,31.1187 21.1094,31.1187 C19.1094,31.1187 17.8281,30.1031 17.8281,28.525 L17.8281,27.4781 C17.8281,25.775 19.0469,24.5718 20.75,24.5718 C21.3281,24.5718 21.9063,24.7125 22.375,24.9625 C22.8438,25.2281 23.0156,25.4156 23.0781,25.775 C23.2031,26.4468 23.4531,26.6968 23.9844,26.6968 C24.2656,26.6968 24.5469,26.5562 24.7344,26.3375 C24.8594,26.1656 24.9063,25.9937 24.9063,25.5562 L24.9063,24.1968 C24.9063,23.775 24.8906,23.6343 24.7656,23.4625 C24.5938,23.2125 24.3125,23.0562 23.9844,23.0562 C23.6719,23.0562 23.4688,23.1656 23.25,23.4312 C22.0781,22.9312 21.6406,22.8218 20.6875,22.8218 C18.0156,22.8218 16,24.8375 16,27.4625 L16,28.5562 Z "/><text fill="#000000" font-family="sans-serif" font-size="14" font-weight="bold" lengthAdjust="spacingAndGlyphs" textLength="147" x="59" y="26.0059">ConfiguratorUserImpl</text><text fill="#000000" font-family="sans-serif" font-size="10" lengthAdjust="spacingAndGlyphs" textLength="195" x="35" y="39.0899">it.matlice.ingsw.model.data.impl.jdbc.types</text></a><path d="M119.5,175.05 C119.5,175.05 119.5,214.99 119.5,214.99 " fill="none" style="stroke: #A80036; stroke-width: 1.0;"/><polygon fill="none" points="126.5,214.99,119.5,234.99,112.5,214.99,126.5,214.99" style="stroke: #A80036; stroke-width: 1.0;"/><path d="M119.5,47.01 C119.5,47.01 119.5,86.63 119.5,86.63 " fill="none" style="stroke: #A80036; stroke-width: 1.0;"/><polygon fill="none" points="126.5,86.63,119.5,106.63,112.5,86.63,126.5,86.63" style="stroke: #A80036; stroke-width: 1.0;"/></g></svg>