<?xml version="1.0" encoding="UTF-8" standalone="no"?><svg xmlns="http://www.w3.org/2000/svg" xmlns:xlink="http://www.w3.org/1999/xlink" contentScriptType="application/ecmascript" contentStyleType="text/css" height="311px" preserveAspectRatio="none" style="width:1110px;height:311px;" version="1.1" viewBox="0 0 1110 311" width="1110px" zoomAndPan="magnify"><defs><filter height="300%" id="f09vhz0" width="300%" x="-1" y="-1"><feGaussianBlur result="blurOut" stdDeviation="2.0"/><feColorMatrix in="blurOut" result="blurOut2" type="matrix" values="0 0 0 0 0 0 0 0 0 0 0 0 0 0 0 0 0 0 .4 0"/><feOffset dx="4.0" dy="4.0" in="blurOut2" result="blurOut3"/><feBlend in="SourceGraphic" in2="blurOut3" mode="normal"/></filter></defs><g><!--class it.matlice.ingsw.model.data.Hierarchy--><a target="_parent" xlink:actuate="onRequest" xlink:href="../../../../../it/matlice/ingsw/model/data/Hierarchy.html" xlink:show="new" xlink:title="it.matlice.ingsw.model.data.Hierarchy" xlink:type="simple"><rect fill="#FEFECE" filter="url(#f09vhz0)" height="94.3996" style="stroke: #A80036; stroke-width: 1.5;" width="194" x="409" y="110"/><ellipse cx="441.1" cy="129.4" fill="#ADD1B2" rx="11" ry="11" style="stroke: #A80036; stroke-width: 1.0;"/><path d="M436.1,130.5562 C436.1,133.0562 438.2406,134.8687 441.1625,134.8687 C442.3969,134.8687 443.5688,134.5718 444.3188,134.0562 C444.9281,133.6343 445.2563,133.2125 445.2563,132.8062 C445.2563,132.3375 444.8344,131.9312 444.3344,131.9312 C444.1,131.9312 443.8813,132.0093 443.6781,132.2125 C443.2406,132.65 443.2406,132.65 443.0688,132.7437 C442.6156,132.9781 441.975,133.1187 441.2094,133.1187 C439.2094,133.1187 437.9281,132.1031 437.9281,130.525 L437.9281,129.4781 C437.9281,127.775 439.1469,126.5718 440.85,126.5718 C441.4281,126.5718 442.0063,126.7125 442.475,126.9625 C442.9438,127.2281 443.1156,127.4156 443.1781,127.775 C443.3031,128.4468 443.5531,128.6968 444.0844,128.6968 C444.3656,128.6968 444.6469,128.5562 444.8344,128.3375 C444.9594,128.1656 445.0063,127.9937 445.0063,127.5562 L445.0063,126.1968 C445.0063,125.775 444.9906,125.6343 444.8656,125.4625 C444.6938,125.2125 444.4125,125.0562 444.0844,125.0562 C443.7719,125.0562 443.5688,125.1656 443.35,125.4312 C442.1781,124.9312 441.7406,124.8218 440.7875,124.8218 C438.1156,124.8218 436.1,126.8375 436.1,129.4625 L436.1,130.5562 Z "/><text fill="#000000" font-family="sans-serif" font-size="14" font-weight="bold" lengthAdjust="spacingAndGlyphs" textLength="65" x="488.4" y="128.0059">Hierarchy</text><text fill="#000000" font-family="sans-serif" font-size="10" lengthAdjust="spacingAndGlyphs" textLength="124" x="458.9" y="141.0899">it.matlice.ingsw.model.data</text><line style="stroke: #A80036; stroke-width: 1.5;" x1="410" x2="602" y1="148.7999" y2="148.7999"/><rect fill="none" height="6" style="stroke: #C82930; stroke-width: 1.0;" width="6" x="417" y="157.8999"/><text fill="#000000" font-family="sans-serif" font-size="11" lengthAdjust="spacingAndGlyphs" textLength="112" x="429" y="163.0188">Category rootCategory</text><line style="stroke: #A80036; stroke-width: 1.5;" x1="410" x2="602" y1="169.9998" y2="169.9998"/><ellipse cx="420" cy="182.0998" fill="#84BE84" rx="3" ry="3" style="stroke: #038048; stroke-width: 1.0;"/><text fill="#000000" font-family="sans-serif" font-size="11" lengthAdjust="spacingAndGlyphs" textLength="168" x="429" y="184.2187">Hierarchy(Category rootCategory)</text><ellipse cx="420" cy="195.2997" fill="#84BE84" rx="3" ry="3" style="stroke: #038048; stroke-width: 1.0;"/><text fill="#000000" font-family="sans-serif" font-size="11" lengthAdjust="spacingAndGlyphs" textLength="139" x="429" y="197.4186">Category getRootCategory()</text></a><!--class it.matlice.ingsw.model.Model--><a target="_parent" xlink:actuate="onRequest" xlink:href="../../../../../it/matlice/ingsw/model/Model.html" xlink:show="new" xlink:title="it.matlice.ingsw.model.Model" xlink:type="simple"><rect fill="#FFFFFF" filter="url(#f09vhz0)" height="38.7999" style="stroke: #A80036; stroke-width: 1.5;" width="132" x="6" y="9.5"/><rect fill="#FFFFFF" height="38.7999" style="stroke: #A80036; stroke-width: 1.5;" width="132" x="6" y="9.5"/><ellipse cx="21" cy="28.9" fill="#ADD1B2" rx="11" ry="11" style="stroke: #A80036; stroke-width: 1.0;"/><path d="M16,30.0562 C16,32.5562 18.1406,34.3687 21.0625,34.3687 C22.2969,34.3687 23.4688,34.0718 24.2188,33.5562 C24.8281,33.1343 25.1563,32.7125 25.1563,32.3062 C25.1563,31.8375 24.7344,31.4312 24.2344,31.4312 C24,31.4312 23.7813,31.5093 23.5781,31.7125 C23.1406,32.15 23.1406,32.15 22.9688,32.2437 C22.5156,32.4781 21.875,32.6187 21.1094,32.6187 C19.1094,32.6187 17.8281,31.6031 17.8281,30.025 L17.8281,28.9781 C17.8281,27.275 19.0469,26.0718 20.75,26.0718 C21.3281,26.0718 21.9063,26.2125 22.375,26.4625 C22.8438,26.7281 23.0156,26.9156 23.0781,27.275 C23.2031,27.9468 23.4531,28.1968 23.9844,28.1968 C24.2656,28.1968 24.5469,28.0562 24.7344,27.8375 C24.8594,27.6656 24.9063,27.4937 24.9063,27.0562 L24.9063,25.6968 C24.9063,25.275 24.8906,25.1343 24.7656,24.9625 C24.5938,24.7125 24.3125,24.5562 23.9844,24.5562 C23.6719,24.5562 23.4688,24.6656 23.25,24.9312 C22.0781,24.4312 21.6406,24.3218 20.6875,24.3218 C18.0156,24.3218 16,26.3375 16,28.9625 L16,30.0562 Z "/><text fill="#000000" font-family="sans-serif" font-size="14" font-weight="bold" lengthAdjust="spacingAndGlyphs" textLength="42" x="64" y="27.5059">Model</text><text fill="#000000" font-family="sans-serif" font-size="10" lengthAdjust="spacingAndGlyphs" textLength="100" x="35" y="40.5899">it.matlice.ingsw.model</text></a><!--class it.matlice.ingsw.model.data.Category--><a target="_parent" xlink:actuate="onRequest" xlink:href="../../../../../it/matlice/ingsw/model/data/Category.html" xlink:show="new" xlink:title="it.matlice.ingsw.model.data.Category" xlink:type="simple"><rect fill="#FEFECE" filter="url(#f09vhz0)" height="38.7999" style="stroke: #A80036; stroke-width: 1.5;" width="156" x="428" y="264"/><ellipse cx="443" cy="283.4" fill="#ADD1B2" rx="11" ry="11" style="stroke: #A80036; stroke-width: 1.0;"/><path d="M438,284.5562 C438,287.0562 440.1406,288.8687 443.0625,288.8687 C444.2969,288.8687 445.4688,288.5718 446.2188,288.0562 C446.8281,287.6343 447.1563,287.2125 447.1563,286.8062 C447.1563,286.3375 446.7344,285.9312 446.2344,285.9312 C446,285.9312 445.7813,286.0093 445.5781,286.2125 C445.1406,286.65 445.1406,286.65 444.9688,286.7437 C444.5156,286.9781 443.875,287.1187 443.1094,287.1187 C441.1094,287.1187 439.8281,286.1031 439.8281,284.525 L439.8281,283.4781 C439.8281,281.775 441.0469,280.5718 442.75,280.5718 C443.3281,280.5718 443.9063,280.7125 444.375,280.9625 C444.8438,281.2281 445.0156,281.4156 445.0781,281.775 C445.2031,282.4468 445.4531,282.6968 445.9844,282.6968 C446.2656,282.6968 446.5469,282.5562 446.7344,282.3375 C446.8594,282.1656 446.9063,281.9937 446.9063,281.5562 L446.9063,280.1968 C446.9063,279.775 446.8906,279.6343 446.7656,279.4625 C446.5938,279.2125 446.3125,279.0562 445.9844,279.0562 C445.6719,279.0562 445.4688,279.1656 445.25,279.4312 C444.0781,278.9312 443.6406,278.8218 442.6875,278.8218 C440.0156,278.8218 438,280.8375 438,283.4625 L438,284.5562 Z "/><text fill="#000000" font-family="sans-serif" font-size="14" font-weight="bold" lengthAdjust="spacingAndGlyphs" textLength="62" x="488" y="282.0059">Category</text><text fill="#000000" font-family="sans-serif" font-size="10" lengthAdjust="spacingAndGlyphs" textLength="124" x="457" y="295.0899">it.matlice.ingsw.model.data</text></a><!--class it.matlice.ingsw.model.data.factories.HierarchyFactory--><a target="_parent" xlink:actuate="onRequest" xlink:href="../../../../../it/matlice/ingsw/model/data/factories/HierarchyFactory.html" xlink:show="new" xlink:title="it.matlice.ingsw.model.data.factories.HierarchyFactory" xlink:type="simple"><rect fill="#FFFFFF" filter="url(#f09vhz0)" height="42.3999" style="stroke: #A80036; stroke-width: 1.5;" width="198" x="173" y="8"/><rect fill="#FFFFFF" height="42.3999" style="stroke: #A80036; stroke-width: 1.5;" width="198" x="173" y="8"/><ellipse cx="188" cy="29.2" fill="#B4A7E5" rx="11" ry="11" style="stroke: #A80036; stroke-width: 1.0;"/><path d="M189.0156,26.3562 L190.6719,26.3562 C191.0625,26.3562 191.2656,26.325 191.4219,26.2468 C191.6875,26.075 191.8594,25.7781 191.8594,25.4812 C191.8594,25.2 191.7188,24.95 191.4844,24.7781 C191.2969,24.6531 191.1406,24.6062 190.6719,24.6062 L185.5313,24.6062 C185.0938,24.6062 184.9531,24.6218 184.7813,24.7312 C184.5156,24.9031 184.3438,25.1843 184.3438,25.4812 C184.3438,25.7625 184.4844,26.0437 184.7188,26.2 C184.9063,26.325 185.0938,26.3562 185.5313,26.3562 L187.1875,26.3562 L187.1875,32.45 L185.5313,32.45 C185.0938,32.45 184.9531,32.4656 184.7813,32.575 C184.5156,32.7312 184.3438,33.0281 184.3438,33.3093 C184.3438,33.9187 184.75,34.2 185.5313,34.2 L190.6719,34.2 C191.4531,34.2 191.8594,33.9187 191.8594,33.3093 C191.8594,33.0437 191.7188,32.7937 191.4844,32.6218 C191.2969,32.4812 191.125,32.45 190.6719,32.45 L189.0156,32.45 L189.0156,26.3562 Z "/><text fill="#000000" font-family="sans-serif" font-size="14" font-style="italic" font-weight="bold" lengthAdjust="spacingAndGlyphs" textLength="117" x="226.5" y="28.3999">HierarchyFactory</text><text fill="#000000" font-family="sans-serif" font-size="10" font-style="italic" lengthAdjust="spacingAndGlyphs" textLength="166" x="202" y="42.8999">it.matlice.ingsw.model.data.factories</text></a><!--class it.matlice.ingsw.model.data.impl.jdbc.OfferFactoryImpl--><a target="_parent" xlink:actuate="onRequest" xlink:href="../../../../../it/matlice/ingsw/model/data/impl/jdbc/OfferFactoryImpl.html" xlink:show="new" xlink:title="it.matlice.ingsw.model.data.impl.jdbc.OfferFactoryImpl" xlink:type="simple"><rect fill="#FFFFFF" filter="url(#f09vhz0)" height="38.7999" style="stroke: #A80036; stroke-width: 1.5;" width="199" x="406.5" y="9.5"/><rect fill="#FFFFFF" height="38.7999" style="stroke: #A80036; stroke-width: 1.5;" width="199" x="406.5" y="9.5"/><ellipse cx="421.5" cy="28.9" fill="#ADD1B2" rx="11" ry="11" style="stroke: #A80036; stroke-width: 1.0;"/><path d="M416.5,30.0562 C416.5,32.5562 418.6406,34.3687 421.5625,34.3687 C422.7969,34.3687 423.9688,34.0718 424.7188,33.5562 C425.3281,33.1343 425.6563,32.7125 425.6563,32.3062 C425.6563,31.8375 425.2344,31.4312 424.7344,31.4312 C424.5,31.4312 424.2813,31.5093 424.0781,31.7125 C423.6406,32.15 423.6406,32.15 423.4688,32.2437 C423.0156,32.4781 422.375,32.6187 421.6094,32.6187 C419.6094,32.6187 418.3281,31.6031 418.3281,30.025 L418.3281,28.9781 C418.3281,27.275 419.5469,26.0718 421.25,26.0718 C421.8281,26.0718 422.4063,26.2125 422.875,26.4625 C423.3438,26.7281 423.5156,26.9156 423.5781,27.275 C423.7031,27.9468 423.9531,28.1968 424.4844,28.1968 C424.7656,28.1968 425.0469,28.0562 425.2344,27.8375 C425.3594,27.6656 425.4063,27.4937 425.4063,27.0562 L425.4063,25.6968 C425.4063,25.275 425.3906,25.1343 425.2656,24.9625 C425.0938,24.7125 424.8125,24.5562 424.4844,24.5562 C424.1719,24.5562 423.9688,24.6656 423.75,24.9312 C422.5781,24.4312 422.1406,24.3218 421.1875,24.3218 C418.5156,24.3218 416.5,26.3375 416.5,28.9625 L416.5,30.0562 Z "/><text fill="#000000" font-family="sans-serif" font-size="14" font-weight="bold" lengthAdjust="spacingAndGlyphs" textLength="115" x="461.5" y="27.5059">OfferFactoryImpl</text><text fill="#000000" font-family="sans-serif" font-size="10" lengthAdjust="spacingAndGlyphs" textLength="167" x="435.5" y="40.5899">it.matlice.ingsw.model.data.impl.jdbc</text></a><!--class it.matlice.ingsw.model.data.impl.jdbc.HierarchyFactoryImpl--><a target="_parent" xlink:actuate="onRequest" xlink:href="../../../../../it/matlice/ingsw/model/data/impl/jdbc/HierarchyFactoryImpl.html" xlink:show="new" xlink:title="it.matlice.ingsw.model.data.impl.jdbc.HierarchyFactoryImpl" xlink:type="simple"><rect fill="#FFFFFF" filter="url(#f09vhz0)" height="38.7999" style="stroke: #A80036; stroke-width: 1.5;" width="199" x="640.5" y="9.5"/><rect fill="#FFFFFF" height="38.7999" style="stroke: #A80036; stroke-width: 1.5;" width="199" x="640.5" y="9.5"/><ellipse cx="655.5" cy="28.9" fill="#ADD1B2" rx="11" ry="11" style="stroke: #A80036; stroke-width: 1.0;"/><path d="M650.5,30.0562 C650.5,32.5562 652.6406,34.3687 655.5625,34.3687 C656.7969,34.3687 657.9688,34.0718 658.7188,33.5562 C659.3281,33.1343 659.6563,32.7125 659.6563,32.3062 C659.6563,31.8375 659.2344,31.4312 658.7344,31.4312 C658.5,31.4312 658.2813,31.5093 658.0781,31.7125 C657.6406,32.15 657.6406,32.15 657.4688,32.2437 C657.0156,32.4781 656.375,32.6187 655.6094,32.6187 C653.6094,32.6187 652.3281,31.6031 652.3281,30.025 L652.3281,28.9781 C652.3281,27.275 653.5469,26.0718 655.25,26.0718 C655.8281,26.0718 656.4063,26.2125 656.875,26.4625 C657.3438,26.7281 657.5156,26.9156 657.5781,27.275 C657.7031,27.9468 657.9531,28.1968 658.4844,28.1968 C658.7656,28.1968 659.0469,28.0562 659.2344,27.8375 C659.3594,27.6656 659.4063,27.4937 659.4063,27.0562 L659.4063,25.6968 C659.4063,25.275 659.3906,25.1343 659.2656,24.9625 C659.0938,24.7125 658.8125,24.5562 658.4844,24.5562 C658.1719,24.5562 657.9688,24.6656 657.75,24.9312 C656.5781,24.4312 656.1406,24.3218 655.1875,24.3218 C652.5156,24.3218 650.5,26.3375 650.5,28.9625 L650.5,30.0562 Z "/><text fill="#000000" font-family="sans-serif" font-size="14" font-weight="bold" lengthAdjust="spacingAndGlyphs" textLength="146" x="680" y="27.5059">HierarchyFactoryImpl</text><text fill="#000000" font-family="sans-serif" font-size="10" lengthAdjust="spacingAndGlyphs" textLength="167" x="669.5" y="40.5899">it.matlice.ingsw.model.data.impl.jdbc</text></a><!--class it.matlice.ingsw.model.data.impl.jdbc.types.HierarchyImpl--><a target="_parent" xlink:actuate="onRequest" xlink:href="../../../../../it/matlice/ingsw/model/data/impl/jdbc/types/HierarchyImpl.html" xlink:show="new" xlink:title="it.matlice.ingsw.model.data.impl.jdbc.types.HierarchyImpl" xlink:type="simple"><rect fill="#FFFFFF" filter="url(#f09vhz0)" height="38.7999" style="stroke: #A80036; stroke-width: 1.5;" width="227" x="874.5" y="9.5"/><rect fill="#FFFFFF" height="38.7999" style="stroke: #A80036; stroke-width: 1.5;" width="227" x="874.5" y="9.5"/><ellipse cx="889.5" cy="28.9" fill="#ADD1B2" rx="11" ry="11" style="stroke: #A80036; stroke-width: 1.0;"/><path d="M884.5,30.0562 C884.5,32.5562 886.6406,34.3687 889.5625,34.3687 C890.7969,34.3687 891.9688,34.0718 892.7188,33.5562 C893.3281,33.1343 893.6563,32.7125 893.6563,32.3062 C893.6563,31.8375 893.2344,31.4312 892.7344,31.4312 C892.5,31.4312 892.2813,31.5093 892.0781,31.7125 C891.6406,32.15 891.6406,32.15 891.4688,32.2437 C891.0156,32.4781 890.375,32.6187 889.6094,32.6187 C887.6094,32.6187 886.3281,31.6031 886.3281,30.025 L886.3281,28.9781 C886.3281,27.275 887.5469,26.0718 889.25,26.0718 C889.8281,26.0718 890.4063,26.2125 890.875,26.4625 C891.3438,26.7281 891.5156,26.9156 891.5781,27.275 C891.7031,27.9468 891.9531,28.1968 892.4844,28.1968 C892.7656,28.1968 893.0469,28.0562 893.2344,27.8375 C893.3594,27.6656 893.4063,27.4937 893.4063,27.0562 L893.4063,25.6968 C893.4063,25.275 893.3906,25.1343 893.2656,24.9625 C893.0938,24.7125 892.8125,24.5562 892.4844,24.5562 C892.1719,24.5562 891.9688,24.6656 891.75,24.9312 C890.5781,24.4312 890.1406,24.3218 889.1875,24.3218 C886.5156,24.3218 884.5,26.3375 884.5,28.9625 L884.5,30.0562 Z "/><text fill="#000000" font-family="sans-serif" font-size="14" font-weight="bold" lengthAdjust="spacingAndGlyphs" textLength="94" x="954" y="27.5059">HierarchyImpl</text><text fill="#000000" font-family="sans-serif" font-size="10" lengthAdjust="spacingAndGlyphs" textLength="195" x="903.5" y="40.5899">it.matlice.ingsw.model.data.impl.jdbc.types</text></a><path d="M72,48.72 C72,88.16 72,173 72,173 C72,173 403.87,173 403.87,173 " fill="none" style="stroke: #A80036; stroke-width: 1.0; stroke-dasharray: 7.0,7.0;"/><polygon fill="#A80036" points="408.87,173,399.87,169,403.87,173,399.87,177,408.87,173" style="stroke: #A80036; stroke-width: 1.0;"/><path d="M506,204.1 C506,204.1 506,258.81 506,258.81 " fill="none" style="stroke: #A80036; stroke-width: 1.0;"/><polygon fill="#A80036" points="506,263.81,510,254.81,506,258.81,502,254.81,506,263.81" style="stroke: #A80036; stroke-width: 1.0;"/><text fill="#000000" font-family="sans-serif" font-size="13" lengthAdjust="spacingAndGlyphs" textLength="74" x="420.2063" y="252.3477">rootCategory</text><path d="M272,50.25 C272,82.99 272,142 272,142 C272,142 403.8,142 403.8,142 " fill="none" style="stroke: #A80036; stroke-width: 1.0; stroke-dasharray: 7.0,7.0;"/><polygon fill="#A80036" points="408.8,142,399.8,138,403.8,142,399.8,146,408.8,142" style="stroke: #A80036; stroke-width: 1.0;"/><path d="M506,48.72 C506,48.72 506,104.87 506,104.87 " fill="none" style="stroke: #A80036; stroke-width: 1.0; stroke-dasharray: 7.0,7.0;"/><polygon fill="#A80036" points="506,109.87,510,100.87,506,104.87,502,100.87,506,109.87" style="stroke: #A80036; stroke-width: 1.0;"/><path d="M740,48.68 C740,81.06 740,142 740,142 C740,142 608.2,142 608.2,142 " fill="none" style="stroke: #A80036; stroke-width: 1.0; stroke-dasharray: 7.0,7.0;"/><polygon fill="#A80036" points="603.2,142,612.2,146,608.2,142,612.2,138,603.2,142" style="stroke: #A80036; stroke-width: 1.0;"/><path d="M988,48.72 C988,88.16 988,173 988,173 C988,173 623.25,173 623.25,173 " fill="none" style="stroke: #A80036; stroke-width: 1.0;"/><polygon fill="none" points="623.25,180,603.25,173,623.25,166,623.25,180" style="stroke: #A80036; stroke-width: 1.0;"/></g></svg>