<?xml version="1.0" encoding="UTF-8" standalone="no"?><svg xmlns="http://www.w3.org/2000/svg" xmlns:xlink="http://www.w3.org/1999/xlink" contentScriptType="application/ecmascript" contentStyleType="text/css" height="447px" preserveAspectRatio="none" style="width:1551px;height:447px;" version="1.1" viewBox="0 0 1551 447" width="1551px" zoomAndPan="magnify"><defs><filter height="300%" id="f1po5rl" width="300%" x="-1" y="-1"><feGaussianBlur result="blurOut" stdDeviation="2.0"/><feColorMatrix in="blurOut" result="blurOut2" type="matrix" values="0 0 0 0 0 0 0 0 0 0 0 0 0 0 0 0 0 0 .4 0"/><feOffset dx="4.0" dy="4.0" in="blurOut2" result="blurOut3"/><feBlend in="SourceGraphic" in2="blurOut3" mode="normal"/></filter></defs><g><!--class it.matlice.ingsw.model.data.Interval--><a target="_parent" xlink:actuate="onRequest" xlink:href="../../../../../it/matlice/ingsw/model/data/Interval.html" xlink:show="new" xlink:title="it.matlice.ingsw.model.data.Interval" xlink:type="simple"><rect fill="#FEFECE" filter="url(#f1po5rl)" height="213.1987" style="stroke: #A80036; stroke-width: 1.5;" width="284" x="555" y="123"/><ellipse cx="630.75" cy="142.4" fill="#ADD1B2" rx="11" ry="11" style="stroke: #A80036; stroke-width: 1.0;"/><path d="M625.75,143.5562 C625.75,146.0562 627.8906,147.8687 630.8125,147.8687 C632.0469,147.8687 633.2188,147.5718 633.9688,147.0562 C634.5781,146.6343 634.9063,146.2125 634.9063,145.8062 C634.9063,145.3375 634.4844,144.9312 633.9844,144.9312 C633.75,144.9312 633.5313,145.0093 633.3281,145.2125 C632.8906,145.65 632.8906,145.65 632.7188,145.7437 C632.2656,145.9781 631.625,146.1187 630.8594,146.1187 C628.8594,146.1187 627.5781,145.1031 627.5781,143.525 L627.5781,142.4781 C627.5781,140.775 628.7969,139.5718 630.5,139.5718 C631.0781,139.5718 631.6563,139.7125 632.125,139.9625 C632.5938,140.2281 632.7656,140.4156 632.8281,140.775 C632.9531,141.4468 633.2031,141.6968 633.7344,141.6968 C634.0156,141.6968 634.2969,141.5562 634.4844,141.3375 C634.6094,141.1656 634.6563,140.9937 634.6563,140.5562 L634.6563,139.1968 C634.6563,138.775 634.6406,138.6343 634.5156,138.4625 C634.3438,138.2125 634.0625,138.0562 633.7344,138.0562 C633.4219,138.0562 633.2188,138.1656 633,138.4312 C631.8281,137.9312 631.3906,137.8218 630.4375,137.8218 C627.7656,137.8218 625.75,139.8375 625.75,142.4625 L625.75,143.5562 Z "/><text fill="#000000" font-family="sans-serif" font-size="14" font-weight="bold" lengthAdjust="spacingAndGlyphs" textLength="51" x="687.75" y="141.0059">Interval</text><text fill="#000000" font-family="sans-serif" font-size="10" lengthAdjust="spacingAndGlyphs" textLength="124" x="651.25" y="154.0899">it.matlice.ingsw.model.data</text><line style="stroke: #A80036; stroke-width: 1.5;" x1="556" x2="838" y1="161.7999" y2="161.7999"/><rect fill="none" height="6" style="stroke: #C82930; stroke-width: 1.0;" width="6" x="563" y="170.8999"/><text fill="#000000" font-family="sans-serif" font-size="11" lengthAdjust="spacingAndGlyphs" textLength="88" x="575" y="176.0188">Interval.Time start</text><rect fill="none" height="6" style="stroke: #C82930; stroke-width: 1.0;" width="6" x="563" y="184.0998"/><text fill="#000000" font-family="sans-serif" font-size="11" lengthAdjust="spacingAndGlyphs" textLength="84" x="575" y="189.2187">Interval.Time end</text><line style="stroke: #A80036; stroke-width: 1.5;" x1="556" x2="838" y1="196.1997" y2="196.1997"/><ellipse cx="566" cy="208.2997" fill="#84BE84" rx="3" ry="3" style="stroke: #038048; stroke-width: 1.0;"/><text fill="#000000" font-family="sans-serif" font-size="11" lengthAdjust="spacingAndGlyphs" textLength="115" x="575" y="210.4186">Interval(int start,int end)</text><ellipse cx="566" cy="221.4996" fill="#84BE84" rx="3" ry="3" style="stroke: #038048; stroke-width: 1.0;"/><text fill="#000000" font-family="sans-serif" font-size="11" lengthAdjust="spacingAndGlyphs" textLength="106" x="575" y="223.6185">int getStartingMinute()</text><ellipse cx="566" cy="234.6995" fill="#84BE84" rx="3" ry="3" style="stroke: #038048; stroke-width: 1.0;"/><text fill="#000000" font-family="sans-serif" font-size="11" lengthAdjust="spacingAndGlyphs" textLength="102" x="575" y="236.8184">int getEndingMinute()</text><ellipse cx="566" cy="247.8994" fill="#84BE84" rx="3" ry="3" style="stroke: #038048; stroke-width: 1.0;"/><text fill="#000000" font-family="sans-serif" font-size="11" lengthAdjust="spacingAndGlyphs" textLength="76" x="575" y="250.0183">String toString()</text><ellipse cx="566" cy="261.0993" fill="#84BE84" rx="3" ry="3" style="stroke: #038048; stroke-width: 1.0;"/><text fill="#000000" font-family="sans-serif" font-size="11" lengthAdjust="spacingAndGlyphs" text-decoration="underline" textLength="191" x="575" y="263.2182">Interval fromString(String intervalString)</text><line style="stroke: #000000; stroke-width: 1.0;" x1="575" x2="766" y1="265.2182" y2="265.2182"/><ellipse cx="566" cy="274.2992" fill="#84BE84" rx="3" ry="3" style="stroke: #038048; stroke-width: 1.0;"/><text fill="#000000" font-family="sans-serif" font-size="11" lengthAdjust="spacingAndGlyphs" text-decoration="underline" textLength="258" x="575" y="276.4182">List&lt;Interval&gt; mergeIntervals(List&lt;Interval&gt; intervals)</text><line style="stroke: #000000; stroke-width: 1.0;" x1="575" x2="833" y1="278.4182" y2="278.4182"/><ellipse cx="566" cy="287.4991" fill="#84BE84" rx="3" ry="3" style="stroke: #038048; stroke-width: 1.0;"/><text fill="#000000" font-family="sans-serif" font-size="11" lengthAdjust="spacingAndGlyphs" textLength="123" x="575" y="289.6181">int compareTo(Interval o)</text><ellipse cx="566" cy="300.699" fill="#84BE84" rx="3" ry="3" style="stroke: #038048; stroke-width: 1.0;"/><text fill="#000000" font-family="sans-serif" font-size="11" lengthAdjust="spacingAndGlyphs" textLength="158" x="575" y="302.818">boolean includes(Interval.Time t)</text><rect fill="#F24D5C" height="6" style="stroke: #C82930; stroke-width: 1.0;" width="6" x="563" y="310.8989"/><text fill="#000000" font-family="sans-serif" font-size="11" lengthAdjust="spacingAndGlyphs" textLength="155" x="575" y="316.0179">boolean overlaps(Interval other)</text><rect fill="#F24D5C" height="6" style="stroke: #C82930; stroke-width: 1.0;" width="6" x="563" y="324.0988"/><text fill="#000000" font-family="sans-serif" font-size="11" lengthAdjust="spacingAndGlyphs" textLength="153" x="575" y="329.2178">Interval mergeWith(Interval oth)</text></a><!--class it.matlice.ingsw.model.Model--><a target="_parent" xlink:actuate="onRequest" xlink:href="../../../../../it/matlice/ingsw/model/Model.html" xlink:show="new" xlink:title="it.matlice.ingsw.model.Model" xlink:type="simple"><rect fill="#FFFFFF" filter="url(#f1po5rl)" height="38.7999" style="stroke: #A80036; stroke-width: 1.5;" width="132" x="6" y="16"/><rect fill="#FFFFFF" height="38.7999" style="stroke: #A80036; stroke-width: 1.5;" width="132" x="6" y="16"/><ellipse cx="21" cy="35.4" fill="#ADD1B2" rx="11" ry="11" style="stroke: #A80036; stroke-width: 1.0;"/><path d="M16,36.5562 C16,39.0562 18.1406,40.8687 21.0625,40.8687 C22.2969,40.8687 23.4688,40.5718 24.2188,40.0562 C24.8281,39.6343 25.1563,39.2125 25.1563,38.8062 C25.1563,38.3375 24.7344,37.9312 24.2344,37.9312 C24,37.9312 23.7813,38.0093 23.5781,38.2125 C23.1406,38.65 23.1406,38.65 22.9688,38.7437 C22.5156,38.9781 21.875,39.1187 21.1094,39.1187 C19.1094,39.1187 17.8281,38.1031 17.8281,36.525 L17.8281,35.4781 C17.8281,33.775 19.0469,32.5718 20.75,32.5718 C21.3281,32.5718 21.9063,32.7125 22.375,32.9625 C22.8438,33.2281 23.0156,33.4156 23.0781,33.775 C23.2031,34.4468 23.4531,34.6968 23.9844,34.6968 C24.2656,34.6968 24.5469,34.5562 24.7344,34.3375 C24.8594,34.1656 24.9063,33.9937 24.9063,33.5562 L24.9063,32.1968 C24.9063,31.775 24.8906,31.6343 24.7656,31.4625 C24.5938,31.2125 24.3125,31.0562 23.9844,31.0562 C23.6719,31.0562 23.4688,31.1656 23.25,31.4312 C22.0781,30.9312 21.6406,30.8218 20.6875,30.8218 C18.0156,30.8218 16,32.8375 16,35.4625 L16,36.5562 Z "/><text fill="#000000" font-family="sans-serif" font-size="14" font-weight="bold" lengthAdjust="spacingAndGlyphs" textLength="42" x="64" y="34.0059">Model</text><text fill="#000000" font-family="sans-serif" font-size="10" lengthAdjust="spacingAndGlyphs" textLength="100" x="35" y="47.0899">it.matlice.ingsw.model</text></a><!--class it.matlice.ingsw.model.data.Settings--><a target="_parent" xlink:actuate="onRequest" xlink:href="../../../../../it/matlice/ingsw/model/data/Settings.html" xlink:show="new" xlink:title="it.matlice.ingsw.model.data.Settings" xlink:type="simple"><rect fill="#FEFECE" filter="url(#f1po5rl)" height="38.7999" style="stroke: #A80036; stroke-width: 1.5;" width="156" x="173" y="16"/><ellipse cx="188" cy="35.4" fill="#ADD1B2" rx="11" ry="11" style="stroke: #A80036; stroke-width: 1.0;"/><path d="M183,36.5562 C183,39.0562 185.1406,40.8687 188.0625,40.8687 C189.2969,40.8687 190.4688,40.5718 191.2188,40.0562 C191.8281,39.6343 192.1563,39.2125 192.1563,38.8062 C192.1563,38.3375 191.7344,37.9312 191.2344,37.9312 C191,37.9312 190.7813,38.0093 190.5781,38.2125 C190.1406,38.65 190.1406,38.65 189.9688,38.7437 C189.5156,38.9781 188.875,39.1187 188.1094,39.1187 C186.1094,39.1187 184.8281,38.1031 184.8281,36.525 L184.8281,35.4781 C184.8281,33.775 186.0469,32.5718 187.75,32.5718 C188.3281,32.5718 188.9063,32.7125 189.375,32.9625 C189.8438,33.2281 190.0156,33.4156 190.0781,33.775 C190.2031,34.4468 190.4531,34.6968 190.9844,34.6968 C191.2656,34.6968 191.5469,34.5562 191.7344,34.3375 C191.8594,34.1656 191.9063,33.9937 191.9063,33.5562 L191.9063,32.1968 C191.9063,31.775 191.8906,31.6343 191.7656,31.4625 C191.5938,31.2125 191.3125,31.0562 190.9844,31.0562 C190.6719,31.0562 190.4688,31.1656 190.25,31.4312 C189.0781,30.9312 188.6406,30.8218 187.6875,30.8218 C185.0156,30.8218 183,32.8375 183,35.4625 L183,36.5562 Z "/><text fill="#000000" font-family="sans-serif" font-size="14" font-weight="bold" lengthAdjust="spacingAndGlyphs" textLength="57" x="235.5" y="34.0059">Settings</text><text fill="#000000" font-family="sans-serif" font-size="10" lengthAdjust="spacingAndGlyphs" textLength="124" x="202" y="47.0899">it.matlice.ingsw.model.data</text></a><!--class it.matlice.ingsw.model.data.Interval.Time--><a target="_parent" xlink:actuate="onRequest" xlink:href="../../../../../it/matlice/ingsw/model/data/Interval.Time.html" xlink:show="new" xlink:title="it.matlice.ingsw.model.data.Interval.Time" xlink:type="simple"><rect fill="#FEFECE" filter="url(#f1po5rl)" height="38.7999" style="stroke: #A80036; stroke-width: 1.5;" width="156" x="619" y="397.5"/><ellipse cx="634" cy="416.9" fill="#ADD1B2" rx="11" ry="11" style="stroke: #A80036; stroke-width: 1.0;"/><path d="M629,418.0562 C629,420.5562 631.1406,422.3687 634.0625,422.3687 C635.2969,422.3687 636.4688,422.0718 637.2188,421.5562 C637.8281,421.1343 638.1563,420.7125 638.1563,420.3062 C638.1563,419.8375 637.7344,419.4312 637.2344,419.4312 C637,419.4312 636.7813,419.5093 636.5781,419.7125 C636.1406,420.15 636.1406,420.15 635.9688,420.2437 C635.5156,420.4781 634.875,420.6187 634.1094,420.6187 C632.1094,420.6187 630.8281,419.6031 630.8281,418.025 L630.8281,416.9781 C630.8281,415.275 632.0469,414.0718 633.75,414.0718 C634.3281,414.0718 634.9063,414.2125 635.375,414.4625 C635.8438,414.7281 636.0156,414.9156 636.0781,415.275 C636.2031,415.9468 636.4531,416.1968 636.9844,416.1968 C637.2656,416.1968 637.5469,416.0562 637.7344,415.8375 C637.8594,415.6656 637.9063,415.4937 637.9063,415.0562 L637.9063,413.6968 C637.9063,413.275 637.8906,413.1343 637.7656,412.9625 C637.5938,412.7125 637.3125,412.5562 636.9844,412.5562 C636.6719,412.5562 636.4688,412.6656 636.25,412.9312 C635.0781,412.4312 634.6406,412.3218 633.6875,412.3218 C631.0156,412.3218 629,414.3375 629,416.9625 L629,418.0562 Z "/><text fill="#000000" font-family="sans-serif" font-size="14" font-weight="bold" lengthAdjust="spacingAndGlyphs" textLength="88" x="666" y="415.5059">Interval.Time</text><text fill="#000000" font-family="sans-serif" font-size="10" lengthAdjust="spacingAndGlyphs" textLength="124" x="648" y="428.5899">it.matlice.ingsw.model.data</text></a><!--class java.lang.ComparableInterval--><rect fill="#D3D3D3" filter="url(#f1po5rl)" height="42.3999" style="stroke: #A80036; stroke-width: 1.5;" width="181" x="810.5" y="396"/><rect fill="#D3D3D3" height="42.3999" style="stroke: #A80036; stroke-width: 1.5;" width="181" x="810.5" y="396"/><ellipse cx="825.5" cy="417.2" fill="#B4A7E5" rx="11" ry="11" style="stroke: #A80036; stroke-width: 1.0;"/><path d="M826.5156,414.3562 L828.1719,414.3562 C828.5625,414.3562 828.7656,414.325 828.9219,414.2468 C829.1875,414.075 829.3594,413.7781 829.3594,413.4812 C829.3594,413.2 829.2188,412.95 828.9844,412.7781 C828.7969,412.6531 828.6406,412.6062 828.1719,412.6062 L823.0313,412.6062 C822.5938,412.6062 822.4531,412.6218 822.2813,412.7312 C822.0156,412.9031 821.8438,413.1843 821.8438,413.4812 C821.8438,413.7625 821.9844,414.0437 822.2188,414.2 C822.4063,414.325 822.5938,414.3562 823.0313,414.3562 L824.6875,414.3562 L824.6875,420.45 L823.0313,420.45 C822.5938,420.45 822.4531,420.4656 822.2813,420.575 C822.0156,420.7312 821.8438,421.0281 821.8438,421.3093 C821.8438,421.9187 822.25,422.2 823.0313,422.2 L828.1719,422.2 C828.9531,422.2 829.3594,421.9187 829.3594,421.3093 C829.3594,421.0437 829.2188,420.7937 828.9844,420.6218 C828.7969,420.4812 828.625,420.45 828.1719,420.45 L826.5156,420.45 L826.5156,414.3562 Z "/><text fill="#000000" font-family="sans-serif" font-size="14" font-style="italic" font-weight="bold" lengthAdjust="spacingAndGlyphs" textLength="149" x="839.5" y="416.3999">Comparable&lt;Interval&gt;</text><text fill="#000000" font-family="sans-serif" font-size="10" font-style="italic" lengthAdjust="spacingAndGlyphs" textLength="42" x="893" y="430.8999">java.lang</text><!--class it.matlice.ingsw.model.data.factories.SettingsFactory--><a target="_parent" xlink:actuate="onRequest" xlink:href="../../../../../it/matlice/ingsw/model/data/factories/SettingsFactory.html" xlink:show="new" xlink:title="it.matlice.ingsw.model.data.factories.SettingsFactory" xlink:type="simple"><rect fill="#FFFFFF" filter="url(#f1po5rl)" height="42.3999" style="stroke: #A80036; stroke-width: 1.5;" width="198" x="364" y="14.5"/><rect fill="#FFFFFF" height="42.3999" style="stroke: #A80036; stroke-width: 1.5;" width="198" x="364" y="14.5"/><ellipse cx="379" cy="35.7" fill="#B4A7E5" rx="11" ry="11" style="stroke: #A80036; stroke-width: 1.0;"/><path d="M380.0156,32.8562 L381.6719,32.8562 C382.0625,32.8562 382.2656,32.825 382.4219,32.7468 C382.6875,32.575 382.8594,32.2781 382.8594,31.9812 C382.8594,31.7 382.7188,31.45 382.4844,31.2781 C382.2969,31.1531 382.1406,31.1062 381.6719,31.1062 L376.5313,31.1062 C376.0938,31.1062 375.9531,31.1218 375.7813,31.2312 C375.5156,31.4031 375.3438,31.6843 375.3438,31.9812 C375.3438,32.2625 375.4844,32.5437 375.7188,32.7 C375.9063,32.825 376.0938,32.8562 376.5313,32.8562 L378.1875,32.8562 L378.1875,38.95 L376.5313,38.95 C376.0938,38.95 375.9531,38.9656 375.7813,39.075 C375.5156,39.2312 375.3438,39.5281 375.3438,39.8093 C375.3438,40.4187 375.75,40.7 376.5313,40.7 L381.6719,40.7 C382.4531,40.7 382.8594,40.4187 382.8594,39.8093 C382.8594,39.5437 382.7188,39.2937 382.4844,39.1218 C382.2969,38.9812 382.125,38.95 381.6719,38.95 L380.0156,38.95 L380.0156,32.8562 Z "/><text fill="#000000" font-family="sans-serif" font-size="14" font-style="italic" font-weight="bold" lengthAdjust="spacingAndGlyphs" textLength="109" x="421.5" y="34.8999">SettingsFactory</text><text fill="#000000" font-family="sans-serif" font-size="10" font-style="italic" lengthAdjust="spacingAndGlyphs" textLength="166" x="393" y="49.3999">it.matlice.ingsw.model.data.factories</text></a><!--class it.matlice.ingsw.model.data.impl.jdbc.XMLImport.SettingsXML--><a target="_parent" xlink:actuate="onRequest" xlink:href="../../../../../it/matlice/ingsw/model/data/impl/jdbc/XMLImport.SettingsXML.html" xlink:show="new" xlink:title="it.matlice.ingsw.model.data.impl.jdbc.XMLImport.SettingsXML" xlink:type="simple"><rect fill="#FFFFFF" filter="url(#f1po5rl)" height="38.7999" style="stroke: #A80036; stroke-width: 1.5;" width="199" x="597.5" y="16"/><rect fill="#FFFFFF" height="38.7999" style="stroke: #A80036; stroke-width: 1.5;" width="199" x="597.5" y="16"/><ellipse cx="612.5" cy="35.4" fill="#ADD1B2" rx="11" ry="11" style="stroke: #A80036; stroke-width: 1.0;"/><path d="M607.5,36.5562 C607.5,39.0562 609.6406,40.8687 612.5625,40.8687 C613.7969,40.8687 614.9688,40.5718 615.7188,40.0562 C616.3281,39.6343 616.6563,39.2125 616.6563,38.8062 C616.6563,38.3375 616.2344,37.9312 615.7344,37.9312 C615.5,37.9312 615.2813,38.0093 615.0781,38.2125 C614.6406,38.65 614.6406,38.65 614.4688,38.7437 C614.0156,38.9781 613.375,39.1187 612.6094,39.1187 C610.6094,39.1187 609.3281,38.1031 609.3281,36.525 L609.3281,35.4781 C609.3281,33.775 610.5469,32.5718 612.25,32.5718 C612.8281,32.5718 613.4063,32.7125 613.875,32.9625 C614.3438,33.2281 614.5156,33.4156 614.5781,33.775 C614.7031,34.4468 614.9531,34.6968 615.4844,34.6968 C615.7656,34.6968 616.0469,34.5562 616.2344,34.3375 C616.3594,34.1656 616.4063,33.9937 616.4063,33.5562 L616.4063,32.1968 C616.4063,31.775 616.3906,31.6343 616.2656,31.4625 C616.0938,31.2125 615.8125,31.0562 615.4844,31.0562 C615.1719,31.0562 614.9688,31.1656 614.75,31.4312 C613.5781,30.9312 613.1406,30.8218 612.1875,30.8218 C609.5156,30.8218 607.5,32.8375 607.5,35.4625 L607.5,36.5562 Z "/><text fill="#000000" font-family="sans-serif" font-size="14" font-weight="bold" lengthAdjust="spacingAndGlyphs" textLength="165" x="627.5" y="34.0059">XMLImport.SettingsXML</text><text fill="#000000" font-family="sans-serif" font-size="10" lengthAdjust="spacingAndGlyphs" textLength="167" x="626.5" y="47.0899">it.matlice.ingsw.model.data.impl.jdbc</text></a><!--class it.matlice.ingsw.model.data.impl.jdbc.SettingsFactoryImpl--><a target="_parent" xlink:actuate="onRequest" xlink:href="../../../../../it/matlice/ingsw/model/data/impl/jdbc/SettingsFactoryImpl.html" xlink:show="new" xlink:title="it.matlice.ingsw.model.data.impl.jdbc.SettingsFactoryImpl" xlink:type="simple"><rect fill="#FFFFFF" filter="url(#f1po5rl)" height="38.7999" style="stroke: #A80036; stroke-width: 1.5;" width="199" x="831.5" y="16"/><rect fill="#FFFFFF" height="38.7999" style="stroke: #A80036; stroke-width: 1.5;" width="199" x="831.5" y="16"/><ellipse cx="846.5" cy="35.4" fill="#ADD1B2" rx="11" ry="11" style="stroke: #A80036; stroke-width: 1.0;"/><path d="M841.5,36.5562 C841.5,39.0562 843.6406,40.8687 846.5625,40.8687 C847.7969,40.8687 848.9688,40.5718 849.7188,40.0562 C850.3281,39.6343 850.6563,39.2125 850.6563,38.8062 C850.6563,38.3375 850.2344,37.9312 849.7344,37.9312 C849.5,37.9312 849.2813,38.0093 849.0781,38.2125 C848.6406,38.65 848.6406,38.65 848.4688,38.7437 C848.0156,38.9781 847.375,39.1187 846.6094,39.1187 C844.6094,39.1187 843.3281,38.1031 843.3281,36.525 L843.3281,35.4781 C843.3281,33.775 844.5469,32.5718 846.25,32.5718 C846.8281,32.5718 847.4063,32.7125 847.875,32.9625 C848.3438,33.2281 848.5156,33.4156 848.5781,33.775 C848.7031,34.4468 848.9531,34.6968 849.4844,34.6968 C849.7656,34.6968 850.0469,34.5562 850.2344,34.3375 C850.3594,34.1656 850.4063,33.9937 850.4063,33.5562 L850.4063,32.1968 C850.4063,31.775 850.3906,31.6343 850.2656,31.4625 C850.0938,31.2125 849.8125,31.0562 849.4844,31.0562 C849.1719,31.0562 848.9688,31.1656 848.75,31.4312 C847.5781,30.9312 847.1406,30.8218 846.1875,30.8218 C843.5156,30.8218 841.5,32.8375 841.5,35.4625 L841.5,36.5562 Z "/><text fill="#000000" font-family="sans-serif" font-size="14" font-weight="bold" lengthAdjust="spacingAndGlyphs" textLength="138" x="875" y="34.0059">SettingsFactoryImpl</text><text fill="#000000" font-family="sans-serif" font-size="10" lengthAdjust="spacingAndGlyphs" textLength="167" x="860.5" y="47.0899">it.matlice.ingsw.model.data.impl.jdbc</text></a><!--class it.matlice.ingsw.model.data.impl.jdbc.db.IntervalsDB--><a target="_parent" xlink:actuate="onRequest" xlink:href="../../../../../it/matlice/ingsw/model/data/impl/jdbc/db/IntervalsDB.html" xlink:show="new" xlink:title="it.matlice.ingsw.model.data.impl.jdbc.db.IntervalsDB" xlink:type="simple"><rect fill="#FFFFFF" filter="url(#f1po5rl)" height="55" style="stroke: #A80036; stroke-width: 1.5;" width="214" x="1066" y="8"/><rect fill="#FFFFFF" height="55" style="stroke: #A80036; stroke-width: 1.5;" width="214" x="1066" y="8"/><ellipse cx="1081" cy="35.5" fill="#ADD1B2" rx="11" ry="11" style="stroke: #A80036; stroke-width: 1.0;"/><path d="M1076,36.6563 C1076,39.1563 1078.1406,40.9688 1081.0625,40.9688 C1082.2969,40.9688 1083.4688,40.6719 1084.2188,40.1563 C1084.8281,39.7344 1085.1563,39.3125 1085.1563,38.9063 C1085.1563,38.4375 1084.7344,38.0313 1084.2344,38.0313 C1084,38.0313 1083.7813,38.1094 1083.5781,38.3125 C1083.1406,38.75 1083.1406,38.75 1082.9688,38.8438 C1082.5156,39.0781 1081.875,39.2188 1081.1094,39.2188 C1079.1094,39.2188 1077.8281,38.2031 1077.8281,36.625 L1077.8281,35.5781 C1077.8281,33.875 1079.0469,32.6719 1080.75,32.6719 C1081.3281,32.6719 1081.9063,32.8125 1082.375,33.0625 C1082.8438,33.3281 1083.0156,33.5156 1083.0781,33.875 C1083.2031,34.5469 1083.4531,34.7969 1083.9844,34.7969 C1084.2656,34.7969 1084.5469,34.6563 1084.7344,34.4375 C1084.8594,34.2656 1084.9063,34.0938 1084.9063,33.6563 L1084.9063,32.2969 C1084.9063,31.875 1084.8906,31.7344 1084.7656,31.5625 C1084.5938,31.3125 1084.3125,31.1563 1083.9844,31.1563 C1083.6719,31.1563 1083.4688,31.2656 1083.25,31.5313 C1082.0781,31.0313 1081.6406,30.9219 1080.6875,30.9219 C1078.0156,30.9219 1076,32.9375 1076,35.5625 L1076,36.6563 Z "/><text fill="#000000" font-family="sans-serif" font-size="12" font-style="italic" lengthAdjust="spacingAndGlyphs" textLength="98" x="1137" y="26.2001">«DatabaseTable»</text><text fill="#000000" font-family="sans-serif" font-size="14" font-weight="bold" lengthAdjust="spacingAndGlyphs" textLength="79" x="1146.5" y="42.2061">IntervalsDB</text><text fill="#000000" font-family="sans-serif" font-size="10" lengthAdjust="spacingAndGlyphs" textLength="182" x="1095" y="55.29">it.matlice.ingsw.model.data.impl.jdbc.db</text></a><!--class it.matlice.ingsw.model.data.impl.jdbc.types.SettingsImpl--><a target="_parent" xlink:actuate="onRequest" xlink:href="../../../../../it/matlice/ingsw/model/data/impl/jdbc/types/SettingsImpl.html" xlink:show="new" xlink:title="it.matlice.ingsw.model.data.impl.jdbc.types.SettingsImpl" xlink:type="simple"><rect fill="#FFFFFF" filter="url(#f1po5rl)" height="38.7999" style="stroke: #A80036; stroke-width: 1.5;" width="227" x="1315.5" y="16"/><rect fill="#FFFFFF" height="38.7999" style="stroke: #A80036; stroke-width: 1.5;" width="227" x="1315.5" y="16"/><ellipse cx="1330.5" cy="35.4" fill="#ADD1B2" rx="11" ry="11" style="stroke: #A80036; stroke-width: 1.0;"/><path d="M1325.5,36.5562 C1325.5,39.0562 1327.6406,40.8687 1330.5625,40.8687 C1331.7969,40.8687 1332.9688,40.5718 1333.7188,40.0562 C1334.3281,39.6343 1334.6563,39.2125 1334.6563,38.8062 C1334.6563,38.3375 1334.2344,37.9312 1333.7344,37.9312 C1333.5,37.9312 1333.2813,38.0093 1333.0781,38.2125 C1332.6406,38.65 1332.6406,38.65 1332.4688,38.7437 C1332.0156,38.9781 1331.375,39.1187 1330.6094,39.1187 C1328.6094,39.1187 1327.3281,38.1031 1327.3281,36.525 L1327.3281,35.4781 C1327.3281,33.775 1328.5469,32.5718 1330.25,32.5718 C1330.8281,32.5718 1331.4063,32.7125 1331.875,32.9625 C1332.3438,33.2281 1332.5156,33.4156 1332.5781,33.775 C1332.7031,34.4468 1332.9531,34.6968 1333.4844,34.6968 C1333.7656,34.6968 1334.0469,34.5562 1334.2344,34.3375 C1334.3594,34.1656 1334.4063,33.9937 1334.4063,33.5562 L1334.4063,32.1968 C1334.4063,31.775 1334.3906,31.6343 1334.2656,31.4625 C1334.0938,31.2125 1333.8125,31.0562 1333.4844,31.0562 C1333.1719,31.0562 1332.9688,31.1656 1332.75,31.4312 C1331.5781,30.9312 1331.1406,30.8218 1330.1875,30.8218 C1327.5156,30.8218 1325.5,32.8375 1325.5,35.4625 L1325.5,36.5562 Z "/><text fill="#000000" font-family="sans-serif" font-size="14" font-weight="bold" lengthAdjust="spacingAndGlyphs" textLength="86" x="1399" y="34.0059">SettingsImpl</text><text fill="#000000" font-family="sans-serif" font-size="10" lengthAdjust="spacingAndGlyphs" textLength="195" x="1344.5" y="47.0899">it.matlice.ingsw.model.data.impl.jdbc.types</text></a><path d="M72,55.07 C72,110.57 72,265 72,265 C72,265 549.79,265 549.79,265 " fill="none" style="stroke: #A80036; stroke-width: 1.0; stroke-dasharray: 7.0,7.0;"/><polygon fill="#A80036" points="554.79,265,545.79,261,549.79,265,545.79,269,554.79,265" style="stroke: #A80036; stroke-width: 1.0;"/><path d="M251,55.25 C251,97.74 251,194 251,194 C251,194 549.96,194 549.96,194 " fill="none" style="stroke: #A80036; stroke-width: 1.0; stroke-dasharray: 7.0,7.0;"/><polygon fill="#A80036" points="554.96,194,545.96,190,549.96,194,545.96,198,554.96,194" style="stroke: #A80036; stroke-width: 1.0;"/><path d="M671,336.12 C671,336.12 671,392.42 671,392.42 " fill="none" style="stroke: #A80036; stroke-width: 1.0;"/><polygon fill="#A80036" points="671,397.42,675,388.42,671,392.42,667,388.42,671,397.42" style="stroke: #A80036; stroke-width: 1.0;"/><text fill="#000000" font-family="sans-serif" font-size="13" lengthAdjust="spacingAndGlyphs" textLength="26" x="632.5688" y="385.9928">start</text><path d="M723,336.12 C723,336.12 723,392.42 723,392.42 " fill="none" style="stroke: #A80036; stroke-width: 1.0;"/><polygon fill="#A80036" points="723,397.42,727,388.42,723,392.42,719,388.42,723,397.42" style="stroke: #A80036; stroke-width: 1.0;"/><text fill="#000000" font-family="sans-serif" font-size="13" lengthAdjust="spacingAndGlyphs" textLength="21" x="706.9406" y="385.9928">end</text><path d="M820,336.12 C820,336.12 820,375.79 820,375.79 " fill="none" style="stroke: #A80036; stroke-width: 1.0; stroke-dasharray: 7.0,7.0;"/><polygon fill="none" points="827,375.79,820,395.79,813,375.79,827,375.79" style="stroke: #A80036; stroke-width: 1.0;"/><path d="M836.5,122.96 C836.5,105.51 836.5,93 836.5,93 C836.5,93 915.25,93 915.25,93 C915.25,93 915.25,366 915.25,366 C915.25,366 829.5,366 829.5,366 C829.5,366 829.5,341.04 829.5,341.04 " fill="none" style="stroke: #A80036; stroke-width: 1.0; stroke-dasharray: 7.0,7.0;"/><polygon fill="#A80036" points="829.5,336.04,825.5,345.04,829.5,341.04,833.5,345.04,829.5,336.04" style="stroke: #A80036; stroke-width: 1.0;"/><path d="M558.5,56.63 C558.5,56.63 558.5,117.6 558.5,117.6 " fill="none" style="stroke: #A80036; stroke-width: 1.0; stroke-dasharray: 7.0,7.0;"/><polygon fill="#A80036" points="558.5,122.6,562.5,113.6,558.5,117.6,554.5,113.6,558.5,122.6" style="stroke: #A80036; stroke-width: 1.0;"/><path d="M697,55.17 C697,55.17 697,117.89 697,117.89 " fill="none" style="stroke: #A80036; stroke-width: 1.0;"/><polygon fill="#A80036" points="697,122.89,701,113.89,697,117.89,693,113.89,697,122.89" style="stroke: #A80036; stroke-width: 1.0;"/><text fill="#000000" font-family="sans-serif" font-size="13" lengthAdjust="spacingAndGlyphs" textLength="58" x="636.8703" y="111.6018">intervals *</text><path d="M834,55.17 C834,55.17 834,117.89 834,117.89 " fill="none" style="stroke: #A80036; stroke-width: 1.0; stroke-dasharray: 7.0,7.0;"/><polygon fill="#A80036" points="834,122.89,838,113.89,834,117.89,830,113.89,834,122.89" style="stroke: #A80036; stroke-width: 1.0;"/><path d="M1173,63.11 C1173,108.52 1173,194 1173,194 C1173,194 844.17,194 844.17,194 " fill="none" style="stroke: #A80036; stroke-width: 1.0; stroke-dasharray: 7.0,7.0;"/><polygon fill="#A80036" points="839.17,194,848.17,198,844.17,194,848.17,190,839.17,194" style="stroke: #A80036; stroke-width: 1.0;"/><path d="M1429,55.07 C1429,110.57 1429,265 1429,265 C1429,265 844,265 844,265 " fill="none" style="stroke: #A80036; stroke-width: 1.0; stroke-dasharray: 7.0,7.0;"/><polygon fill="#A80036" points="839,265,848,269,844,265,848,261,839,265" style="stroke: #A80036; stroke-width: 1.0;"/></g></svg>