<?xml version="1.0" encoding="UTF-8" standalone="no"?><svg xmlns="http://www.w3.org/2000/svg" xmlns:xlink="http://www.w3.org/1999/xlink" contentScriptType="application/ecmascript" contentStyleType="text/css" height="392px" preserveAspectRatio="none" style="width:384px;height:392px;" version="1.1" viewBox="0 0 384 392" width="384px" zoomAndPan="magnify"><defs><filter height="300%" id="fv94hnb" width="300%" x="-1" y="-1"><feGaussianBlur result="blurOut" stdDeviation="2.0"/><feColorMatrix in="blurOut" result="blurOut2" type="matrix" values="0 0 0 0 0 0 0 0 0 0 0 0 0 0 0 0 0 0 .4 0"/><feOffset dx="4.0" dy="4.0" in="blurOut2" result="blurOut3"/><feBlend in="SourceGraphic" in2="blurOut3" mode="normal"/></filter></defs><g><!--class it.matlice.ingsw.model.data.Interval.Time--><a target="_parent" xlink:actuate="onRequest" xlink:href="../../../../../it/matlice/ingsw/model/data/Interval.Time.html" xlink:show="new" xlink:title="it.matlice.ingsw.model.data.Interval.Time" xlink:type="simple"><rect fill="#FEFECE" filter="url(#fv94hnb)" height="173.599" style="stroke: #A80036; stroke-width: 1.5;" width="229" x="136.5" y="107"/><ellipse cx="184.75" cy="126.4" fill="#ADD1B2" rx="11" ry="11" style="stroke: #A80036; stroke-width: 1.0;"/><path d="M179.75,127.5562 C179.75,130.0562 181.8906,131.8687 184.8125,131.8687 C186.0469,131.8687 187.2188,131.5718 187.9688,131.0562 C188.5781,130.6343 188.9063,130.2125 188.9063,129.8062 C188.9063,129.3375 188.4844,128.9312 187.9844,128.9312 C187.75,128.9312 187.5313,129.0093 187.3281,129.2125 C186.8906,129.65 186.8906,129.65 186.7188,129.7437 C186.2656,129.9781 185.625,130.1187 184.8594,130.1187 C182.8594,130.1187 181.5781,129.1031 181.5781,127.525 L181.5781,126.4781 C181.5781,124.775 182.7969,123.5718 184.5,123.5718 C185.0781,123.5718 185.6563,123.7125 186.125,123.9625 C186.5938,124.2281 186.7656,124.4156 186.8281,124.775 C186.9531,125.4468 187.2031,125.6968 187.7344,125.6968 C188.0156,125.6968 188.2969,125.5562 188.4844,125.3375 C188.6094,125.1656 188.6563,124.9937 188.6563,124.5562 L188.6563,123.1968 C188.6563,122.775 188.6406,122.6343 188.5156,122.4625 C188.3438,122.2125 188.0625,122.0562 187.7344,122.0562 C187.4219,122.0562 187.2188,122.1656 187,122.4312 C185.8281,121.9312 185.3906,121.8218 184.4375,121.8218 C181.7656,121.8218 179.75,123.8375 179.75,126.4625 L179.75,127.5562 Z "/><text fill="#000000" font-family="sans-serif" font-size="14" font-weight="bold" lengthAdjust="spacingAndGlyphs" textLength="88" x="223.25" y="125.0059">Interval.Time</text><text fill="#000000" font-family="sans-serif" font-size="10" lengthAdjust="spacingAndGlyphs" textLength="124" x="205.25" y="138.0899">it.matlice.ingsw.model.data</text><line style="stroke: #A80036; stroke-width: 1.5;" x1="137.5" x2="364.5" y1="145.7999" y2="145.7999"/><rect fill="none" height="6" style="stroke: #C82930; stroke-width: 1.0;" width="6" x="144.5" y="154.8999"/><text fill="#000000" font-family="sans-serif" font-size="11" lengthAdjust="spacingAndGlyphs" textLength="34" x="156.5" y="160.0188">int time</text><line style="stroke: #A80036; stroke-width: 1.5;" x1="137.5" x2="364.5" y1="166.9998" y2="166.9998"/><ellipse cx="147.5" cy="179.0998" fill="#84BE84" rx="3" ry="3" style="stroke: #038048; stroke-width: 1.0;"/><text fill="#000000" font-family="sans-serif" font-size="11" lengthAdjust="spacingAndGlyphs" textLength="66" x="156.5" y="181.2187">Time(int time)</text><ellipse cx="147.5" cy="192.2997" fill="#84BE84" rx="3" ry="3" style="stroke: #038048; stroke-width: 1.0;"/><text fill="#000000" font-family="sans-serif" font-size="11" lengthAdjust="spacingAndGlyphs" textLength="61" x="156.5" y="194.4186">int getTime()</text><ellipse cx="147.5" cy="205.4996" fill="#84BE84" rx="3" ry="3" style="stroke: #038048; stroke-width: 1.0;"/><text fill="#000000" font-family="sans-serif" font-size="11" lengthAdjust="spacingAndGlyphs" textLength="61" x="156.5" y="207.6185">int getHour()</text><ellipse cx="147.5" cy="218.6995" fill="#84BE84" rx="3" ry="3" style="stroke: #038048; stroke-width: 1.0;"/><text fill="#000000" font-family="sans-serif" font-size="11" lengthAdjust="spacingAndGlyphs" textLength="69" x="156.5" y="220.8184">int getMinute()</text><ellipse cx="147.5" cy="231.8994" fill="#84BE84" rx="3" ry="3" style="stroke: #038048; stroke-width: 1.0;"/><text fill="#000000" font-family="sans-serif" font-size="11" lengthAdjust="spacingAndGlyphs" text-decoration="underline" textLength="203" x="156.5" y="234.0183">Interval.Time fromString(String timeString)</text><line style="stroke: #000000; stroke-width: 1.0;" x1="156.5" x2="359.5" y1="236.0183" y2="236.0183"/><ellipse cx="147.5" cy="245.0993" fill="#84BE84" rx="3" ry="3" style="stroke: #038048; stroke-width: 1.0;"/><text fill="#000000" font-family="sans-serif" font-size="11" lengthAdjust="spacingAndGlyphs" textLength="76" x="156.5" y="247.2182">String toString()</text><ellipse cx="147.5" cy="258.2992" fill="#84BE84" rx="3" ry="3" style="stroke: #038048; stroke-width: 1.0;"/><text fill="#000000" font-family="sans-serif" font-size="11" lengthAdjust="spacingAndGlyphs" textLength="150" x="156.5" y="260.4182">int compareTo(Interval.Time o)</text><rect fill="#F24D5C" height="6" style="stroke: #C82930; stroke-width: 1.0;" width="6" x="144.5" y="268.4991"/><text fill="#000000" font-family="sans-serif" font-size="11" lengthAdjust="spacingAndGlyphs" text-decoration="underline" textLength="144" x="156.5" y="273.6181">int timeToMinutes(String time)</text><line style="stroke: #000000; stroke-width: 1.0;" x1="156.5" x2="300.5" y1="275.6181" y2="275.6181"/></a><!--class it.matlice.ingsw.model.Model--><a target="_parent" xlink:actuate="onRequest" xlink:href="../../../../../it/matlice/ingsw/model/Model.html" xlink:show="new" xlink:title="it.matlice.ingsw.model.Model" xlink:type="simple"><rect fill="#FFFFFF" filter="url(#fv94hnb)" height="38.7999" style="stroke: #A80036; stroke-width: 1.5;" width="132" x="6" y="8"/><rect fill="#FFFFFF" height="38.7999" style="stroke: #A80036; stroke-width: 1.5;" width="132" x="6" y="8"/><ellipse cx="21" cy="27.4" fill="#ADD1B2" rx="11" ry="11" style="stroke: #A80036; stroke-width: 1.0;"/><path d="M16,28.5562 C16,31.0562 18.1406,32.8687 21.0625,32.8687 C22.2969,32.8687 23.4688,32.5718 24.2188,32.0562 C24.8281,31.6343 25.1563,31.2125 25.1563,30.8062 C25.1563,30.3375 24.7344,29.9312 24.2344,29.9312 C24,29.9312 23.7813,30.0093 23.5781,30.2125 C23.1406,30.65 23.1406,30.65 22.9688,30.7437 C22.5156,30.9781 21.875,31.1187 21.1094,31.1187 C19.1094,31.1187 17.8281,30.1031 17.8281,28.525 L17.8281,27.4781 C17.8281,25.775 19.0469,24.5718 20.75,24.5718 C21.3281,24.5718 21.9063,24.7125 22.375,24.9625 C22.8438,25.2281 23.0156,25.4156 23.0781,25.775 C23.2031,26.4468 23.4531,26.6968 23.9844,26.6968 C24.2656,26.6968 24.5469,26.5562 24.7344,26.3375 C24.8594,26.1656 24.9063,25.9937 24.9063,25.5562 L24.9063,24.1968 C24.9063,23.775 24.8906,23.6343 24.7656,23.4625 C24.5938,23.2125 24.3125,23.0562 23.9844,23.0562 C23.6719,23.0562 23.4688,23.1656 23.25,23.4312 C22.0781,22.9312 21.6406,22.8218 20.6875,22.8218 C18.0156,22.8218 16,24.8375 16,27.4625 L16,28.5562 Z "/><text fill="#000000" font-family="sans-serif" font-size="14" font-weight="bold" lengthAdjust="spacingAndGlyphs" textLength="42" x="64" y="26.0059">Model</text><text fill="#000000" font-family="sans-serif" font-size="10" lengthAdjust="spacingAndGlyphs" textLength="100" x="35" y="39.0899">it.matlice.ingsw.model</text></a><!--class it.matlice.ingsw.model.data.Interval--><a target="_parent" xlink:actuate="onRequest" xlink:href="../../../../../it/matlice/ingsw/model/data/Interval.html" xlink:show="new" xlink:title="it.matlice.ingsw.model.data.Interval" xlink:type="simple"><rect fill="#FEFECE" filter="url(#fv94hnb)" height="38.7999" style="stroke: #A80036; stroke-width: 1.5;" width="156" x="173" y="8"/><ellipse cx="188" cy="27.4" fill="#ADD1B2" rx="11" ry="11" style="stroke: #A80036; stroke-width: 1.0;"/><path d="M183,28.5562 C183,31.0562 185.1406,32.8687 188.0625,32.8687 C189.2969,32.8687 190.4688,32.5718 191.2188,32.0562 C191.8281,31.6343 192.1563,31.2125 192.1563,30.8062 C192.1563,30.3375 191.7344,29.9312 191.2344,29.9312 C191,29.9312 190.7813,30.0093 190.5781,30.2125 C190.1406,30.65 190.1406,30.65 189.9688,30.7437 C189.5156,30.9781 188.875,31.1187 188.1094,31.1187 C186.1094,31.1187 184.8281,30.1031 184.8281,28.525 L184.8281,27.4781 C184.8281,25.775 186.0469,24.5718 187.75,24.5718 C188.3281,24.5718 188.9063,24.7125 189.375,24.9625 C189.8438,25.2281 190.0156,25.4156 190.0781,25.775 C190.2031,26.4468 190.4531,26.6968 190.9844,26.6968 C191.2656,26.6968 191.5469,26.5562 191.7344,26.3375 C191.8594,26.1656 191.9063,25.9937 191.9063,25.5562 L191.9063,24.1968 C191.9063,23.775 191.8906,23.6343 191.7656,23.4625 C191.5938,23.2125 191.3125,23.0562 190.9844,23.0562 C190.6719,23.0562 190.4688,23.1656 190.25,23.4312 C189.0781,22.9312 188.6406,22.8218 187.6875,22.8218 C185.0156,22.8218 183,24.8375 183,27.4625 L183,28.5562 Z "/><text fill="#000000" font-family="sans-serif" font-size="14" font-weight="bold" lengthAdjust="spacingAndGlyphs" textLength="51" x="238.5" y="26.0059">Interval</text><text fill="#000000" font-family="sans-serif" font-size="10" lengthAdjust="spacingAndGlyphs" textLength="124" x="202" y="39.0899">it.matlice.ingsw.model.data</text></a><!--class java.lang.ComparableInterval.Time--><rect fill="#D3D3D3" filter="url(#fv94hnb)" height="42.3999" style="stroke: #A80036; stroke-width: 1.5;" width="163" x="169.5" y="341"/><rect fill="#D3D3D3" height="42.3999" style="stroke: #A80036; stroke-width: 1.5;" width="163" x="169.5" y="341"/><ellipse cx="184.5" cy="362.2" fill="#B4A7E5" rx="11" ry="11" style="stroke: #A80036; stroke-width: 1.0;"/><path d="M185.5156,359.3562 L187.1719,359.3562 C187.5625,359.3562 187.7656,359.325 187.9219,359.2468 C188.1875,359.075 188.3594,358.7781 188.3594,358.4812 C188.3594,358.2 188.2188,357.95 187.9844,357.7781 C187.7969,357.6531 187.6406,357.6062 187.1719,357.6062 L182.0313,357.6062 C181.5938,357.6062 181.4531,357.6218 181.2813,357.7312 C181.0156,357.9031 180.8438,358.1843 180.8438,358.4812 C180.8438,358.7625 180.9844,359.0437 181.2188,359.2 C181.4063,359.325 181.5938,359.3562 182.0313,359.3562 L183.6875,359.3562 L183.6875,365.45 L182.0313,365.45 C181.5938,365.45 181.4531,365.4656 181.2813,365.575 C181.0156,365.7312 180.8438,366.0281 180.8438,366.3093 C180.8438,366.9187 181.25,367.2 182.0313,367.2 L187.1719,367.2 C187.9531,367.2 188.3594,366.9187 188.3594,366.3093 C188.3594,366.0437 188.2188,365.7937 187.9844,365.6218 C187.7969,365.4812 187.625,365.45 187.1719,365.45 L185.5156,365.45 L185.5156,359.3562 Z "/><text fill="#000000" font-family="sans-serif" font-size="14" font-style="italic" font-weight="bold" lengthAdjust="spacingAndGlyphs" textLength="131" x="198.5" y="361.3999">Comparable&lt;Time&gt;</text><text fill="#000000" font-family="sans-serif" font-size="10" font-style="italic" lengthAdjust="spacingAndGlyphs" textLength="42" x="243" y="375.8999">java.lang</text><path d="M138.2,28 C148.33,28 155.5,28 155.5,28 C155.5,28 155.5,101.62 155.5,101.62 " fill="none" style="stroke: #A80036; stroke-width: 1.0; stroke-dasharray: 7.0,7.0;"/><polygon fill="#A80036" points="155.5,106.62,159.5,97.62,155.5,101.62,151.5,97.62,155.5,106.62" style="stroke: #A80036; stroke-width: 1.0;"/><path d="M225,47.25 C225,47.25 225,101.94 225,101.94 " fill="none" style="stroke: #A80036; stroke-width: 1.0;"/><polygon fill="#A80036" points="225,106.94,229,97.94,225,101.94,221,97.94,225,106.94" style="stroke: #A80036; stroke-width: 1.0;"/><text fill="#000000" font-family="sans-serif" font-size="13" lengthAdjust="spacingAndGlyphs" textLength="26" x="195.4047" y="95.3459">start</text><path d="M277,47.25 C277,47.25 277,101.94 277,101.94 " fill="none" style="stroke: #A80036; stroke-width: 1.0;"/><polygon fill="#A80036" points="277,106.94,281,97.94,277,101.94,273,97.94,277,106.94" style="stroke: #A80036; stroke-width: 1.0;"/><text fill="#000000" font-family="sans-serif" font-size="13" lengthAdjust="spacingAndGlyphs" textLength="21" x="257.4289" y="95.3459">end</text><path d="M251,281.44 C251,281.44 251,320.79 251,320.79 " fill="none" style="stroke: #A80036; stroke-width: 1.0; stroke-dasharray: 7.0,7.0;"/><polygon fill="none" points="258,320.79,251,340.79,244,320.79,258,320.79" style="stroke: #A80036; stroke-width: 1.0;"/><path d="M347.25,106.83 C347.25,89.75 347.25,77 347.25,77 C347.25,77 383.5,77 383.5,77 C383.5,77 383.5,311 383.5,311 C383.5,311 349,311 349,311 C349,311 349,286.17 349,286.17 " fill="none" style="stroke: #A80036; stroke-width: 1.0; stroke-dasharray: 7.0,7.0;"/><polygon fill="#A80036" points="349,281.17,345,290.17,349,286.17,353,290.17,349,281.17" style="stroke: #A80036; stroke-width: 1.0;"/></g></svg>