<?xml version="1.0" encoding="UTF-8" standalone="no"?><svg xmlns="http://www.w3.org/2000/svg" xmlns:xlink="http://www.w3.org/1999/xlink" contentScriptType="application/ecmascript" contentStyleType="text/css" height="300px" preserveAspectRatio="none" style="width:1891px;height:300px;" version="1.1" viewBox="0 0 1891 300" width="1891px" zoomAndPan="magnify"><defs><filter height="300%" id="fmh2nuy" width="300%" x="-1" y="-1"><feGaussianBlur result="blurOut" stdDeviation="2.0"/><feColorMatrix in="blurOut" result="blurOut2" type="matrix" values="0 0 0 0 0 0 0 0 0 0 0 0 0 0 0 0 0 0 .4 0"/><feOffset dx="4.0" dy="4.0" in="blurOut2" result="blurOut3"/><feBlend in="SourceGraphic" in2="blurOut3" mode="normal"/></filter></defs><g><!--class it.matlice.ingsw.model.data.LeafCategory--><a target="_parent" xlink:actuate="onRequest" xlink:href="../../../../../it/matlice/ingsw/model/data/LeafCategory.html" xlink:show="new" xlink:title="it.matlice.ingsw.model.data.LeafCategory" xlink:type="simple"><rect fill="#FEFECE" filter="url(#fmh2nuy)" height="82.8497" style="stroke: #A80036; stroke-width: 1.5;" width="184" x="729" y="110"/><ellipse cx="756.6" cy="129.4" fill="#ADD1B2" rx="11" ry="11" style="stroke: #A80036; stroke-width: 1.0;"/><path d="M751.6,130.5562 C751.6,133.0562 753.7406,134.8687 756.6625,134.8687 C757.8969,134.8687 759.0688,134.5718 759.8188,134.0562 C760.4281,133.6343 760.7563,133.2125 760.7563,132.8062 C760.7563,132.3375 760.3344,131.9312 759.8344,131.9312 C759.6,131.9312 759.3813,132.0093 759.1781,132.2125 C758.7406,132.65 758.7406,132.65 758.5688,132.7437 C758.1156,132.9781 757.475,133.1187 756.7094,133.1187 C754.7094,133.1187 753.4281,132.1031 753.4281,130.525 L753.4281,129.4781 C753.4281,127.775 754.6469,126.5718 756.35,126.5718 C756.9281,126.5718 757.5063,126.7125 757.975,126.9625 C758.4438,127.2281 758.6156,127.4156 758.6781,127.775 C758.8031,128.4468 759.0531,128.6968 759.5844,128.6968 C759.8656,128.6968 760.1469,128.5562 760.3344,128.3375 C760.4594,128.1656 760.5063,127.9937 760.5063,127.5562 L760.5063,126.1968 C760.5063,125.775 760.4906,125.6343 760.3656,125.4625 C760.1938,125.2125 759.9125,125.0562 759.5844,125.0562 C759.2719,125.0562 759.0688,125.1656 758.85,125.4312 C757.6781,124.9312 757.2406,124.8218 756.2875,124.8218 C753.6156,124.8218 751.6,126.8375 751.6,129.4625 L751.6,130.5562 Z "/><text fill="#000000" font-family="sans-serif" font-size="14" font-weight="bold" lengthAdjust="spacingAndGlyphs" textLength="92" x="789.4" y="128.0059">LeafCategory</text><text fill="#000000" font-family="sans-serif" font-size="10" lengthAdjust="spacingAndGlyphs" textLength="124" x="773.4" y="141.0899">it.matlice.ingsw.model.data</text><line style="stroke: #A80036; stroke-width: 1.5;" x1="730" x2="912" y1="148.7999" y2="148.7999"/><line style="stroke: #A80036; stroke-width: 1.5;" x1="730" x2="912" y1="156.7999" y2="156.7999"/><ellipse cx="740" cy="168.8999" fill="#84BE84" rx="3" ry="3" style="stroke: #038048; stroke-width: 1.0;"/><text fill="#000000" font-family="sans-serif" font-size="11" lengthAdjust="spacingAndGlyphs" textLength="74" x="749" y="171.0188">LeafCategory()</text><ellipse cx="740" cy="182.9248" fill="#84BE84" rx="3" ry="3" style="stroke: #038048; stroke-width: 1.0;"/><text fill="#000000" font-family="sans-serif" font-size="11" font-style="italic" lengthAdjust="spacingAndGlyphs" textLength="158" x="749" y="186.0997">NodeCategory convertToNode()</text></a><!--class it.matlice.ingsw.model.Model--><a target="_parent" xlink:actuate="onRequest" xlink:href="../../../../../it/matlice/ingsw/model/Model.html" xlink:show="new" xlink:title="it.matlice.ingsw.model.Model" xlink:type="simple"><rect fill="#FFFFFF" filter="url(#fmh2nuy)" height="38.7999" style="stroke: #A80036; stroke-width: 1.5;" width="132" x="6" y="9.5"/><rect fill="#FFFFFF" height="38.7999" style="stroke: #A80036; stroke-width: 1.5;" width="132" x="6" y="9.5"/><ellipse cx="21" cy="28.9" fill="#ADD1B2" rx="11" ry="11" style="stroke: #A80036; stroke-width: 1.0;"/><path d="M16,30.0562 C16,32.5562 18.1406,34.3687 21.0625,34.3687 C22.2969,34.3687 23.4688,34.0718 24.2188,33.5562 C24.8281,33.1343 25.1563,32.7125 25.1563,32.3062 C25.1563,31.8375 24.7344,31.4312 24.2344,31.4312 C24,31.4312 23.7813,31.5093 23.5781,31.7125 C23.1406,32.15 23.1406,32.15 22.9688,32.2437 C22.5156,32.4781 21.875,32.6187 21.1094,32.6187 C19.1094,32.6187 17.8281,31.6031 17.8281,30.025 L17.8281,28.9781 C17.8281,27.275 19.0469,26.0718 20.75,26.0718 C21.3281,26.0718 21.9063,26.2125 22.375,26.4625 C22.8438,26.7281 23.0156,26.9156 23.0781,27.275 C23.2031,27.9468 23.4531,28.1968 23.9844,28.1968 C24.2656,28.1968 24.5469,28.0562 24.7344,27.8375 C24.8594,27.6656 24.9063,27.4937 24.9063,27.0562 L24.9063,25.6968 C24.9063,25.275 24.8906,25.1343 24.7656,24.9625 C24.5938,24.7125 24.3125,24.5562 23.9844,24.5562 C23.6719,24.5562 23.4688,24.6656 23.25,24.9312 C22.0781,24.4312 21.6406,24.3218 20.6875,24.3218 C18.0156,24.3218 16,26.3375 16,28.9625 L16,30.0562 Z "/><text fill="#000000" font-family="sans-serif" font-size="14" font-weight="bold" lengthAdjust="spacingAndGlyphs" textLength="42" x="64" y="27.5059">Model</text><text fill="#000000" font-family="sans-serif" font-size="10" lengthAdjust="spacingAndGlyphs" textLength="100" x="35" y="40.5899">it.matlice.ingsw.model</text></a><!--class it.matlice.ingsw.model.data.Offer--><a target="_parent" xlink:actuate="onRequest" xlink:href="../../../../../it/matlice/ingsw/model/data/Offer.html" xlink:show="new" xlink:title="it.matlice.ingsw.model.data.Offer" xlink:type="simple"><rect fill="#FEFECE" filter="url(#fmh2nuy)" height="38.7999" style="stroke: #A80036; stroke-width: 1.5;" width="156" x="173" y="9.5"/><ellipse cx="188" cy="28.9" fill="#ADD1B2" rx="11" ry="11" style="stroke: #A80036; stroke-width: 1.0;"/><path d="M183,30.0562 C183,32.5562 185.1406,34.3687 188.0625,34.3687 C189.2969,34.3687 190.4688,34.0718 191.2188,33.5562 C191.8281,33.1343 192.1563,32.7125 192.1563,32.3062 C192.1563,31.8375 191.7344,31.4312 191.2344,31.4312 C191,31.4312 190.7813,31.5093 190.5781,31.7125 C190.1406,32.15 190.1406,32.15 189.9688,32.2437 C189.5156,32.4781 188.875,32.6187 188.1094,32.6187 C186.1094,32.6187 184.8281,31.6031 184.8281,30.025 L184.8281,28.9781 C184.8281,27.275 186.0469,26.0718 187.75,26.0718 C188.3281,26.0718 188.9063,26.2125 189.375,26.4625 C189.8438,26.7281 190.0156,26.9156 190.0781,27.275 C190.2031,27.9468 190.4531,28.1968 190.9844,28.1968 C191.2656,28.1968 191.5469,28.0562 191.7344,27.8375 C191.8594,27.6656 191.9063,27.4937 191.9063,27.0562 L191.9063,25.6968 C191.9063,25.275 191.8906,25.1343 191.7656,24.9625 C191.5938,24.7125 191.3125,24.5562 190.9844,24.5562 C190.6719,24.5562 190.4688,24.6656 190.25,24.9312 C189.0781,24.4312 188.6406,24.3218 187.6875,24.3218 C185.0156,24.3218 183,26.3375 183,28.9625 L183,30.0562 Z "/><text fill="#000000" font-family="sans-serif" font-size="14" font-weight="bold" lengthAdjust="spacingAndGlyphs" textLength="34" x="247" y="27.5059">Offer</text><text fill="#000000" font-family="sans-serif" font-size="10" lengthAdjust="spacingAndGlyphs" textLength="124" x="202" y="40.5899">it.matlice.ingsw.model.data</text></a><!--class it.matlice.ingsw.model.data.Category--><a target="_parent" xlink:actuate="onRequest" xlink:href="../../../../../it/matlice/ingsw/model/data/Category.html" xlink:show="new" xlink:title="it.matlice.ingsw.model.data.Category" xlink:type="simple"><rect fill="#FEFECE" filter="url(#fmh2nuy)" height="38.7999" style="stroke: #A80036; stroke-width: 1.5;" width="156" x="743" y="253"/><ellipse cx="758" cy="272.4" fill="#ADD1B2" rx="11" ry="11" style="stroke: #A80036; stroke-width: 1.0;"/><path d="M753,273.5562 C753,276.0562 755.1406,277.8687 758.0625,277.8687 C759.2969,277.8687 760.4688,277.5718 761.2188,277.0562 C761.8281,276.6343 762.1563,276.2125 762.1563,275.8062 C762.1563,275.3375 761.7344,274.9312 761.2344,274.9312 C761,274.9312 760.7813,275.0093 760.5781,275.2125 C760.1406,275.65 760.1406,275.65 759.9688,275.7437 C759.5156,275.9781 758.875,276.1187 758.1094,276.1187 C756.1094,276.1187 754.8281,275.1031 754.8281,273.525 L754.8281,272.4781 C754.8281,270.775 756.0469,269.5718 757.75,269.5718 C758.3281,269.5718 758.9063,269.7125 759.375,269.9625 C759.8438,270.2281 760.0156,270.4156 760.0781,270.775 C760.2031,271.4468 760.4531,271.6968 760.9844,271.6968 C761.2656,271.6968 761.5469,271.5562 761.7344,271.3375 C761.8594,271.1656 761.9063,270.9937 761.9063,270.5562 L761.9063,269.1968 C761.9063,268.775 761.8906,268.6343 761.7656,268.4625 C761.5938,268.2125 761.3125,268.0562 760.9844,268.0562 C760.6719,268.0562 760.4688,268.1656 760.25,268.4312 C759.0781,267.9312 758.6406,267.8218 757.6875,267.8218 C755.0156,267.8218 753,269.8375 753,272.4625 L753,273.5562 Z "/><text fill="#000000" font-family="sans-serif" font-size="14" font-weight="bold" lengthAdjust="spacingAndGlyphs" textLength="62" x="803" y="271.0059">Category</text><text fill="#000000" font-family="sans-serif" font-size="10" lengthAdjust="spacingAndGlyphs" textLength="124" x="772" y="284.0899">it.matlice.ingsw.model.data</text></a><!--class it.matlice.ingsw.model.data.NodeCategory--><a target="_parent" xlink:actuate="onRequest" xlink:href="../../../../../it/matlice/ingsw/model/data/NodeCategory.html" xlink:show="new" xlink:title="it.matlice.ingsw.model.data.NodeCategory" xlink:type="simple"><rect fill="#FEFECE" filter="url(#fmh2nuy)" height="38.7999" style="stroke: #A80036; stroke-width: 1.5;" width="156" x="934" y="253"/><ellipse cx="949" cy="272.4" fill="#ADD1B2" rx="11" ry="11" style="stroke: #A80036; stroke-width: 1.0;"/><path d="M944,273.5562 C944,276.0562 946.1406,277.8687 949.0625,277.8687 C950.2969,277.8687 951.4688,277.5718 952.2188,277.0562 C952.8281,276.6343 953.1563,276.2125 953.1563,275.8062 C953.1563,275.3375 952.7344,274.9312 952.2344,274.9312 C952,274.9312 951.7813,275.0093 951.5781,275.2125 C951.1406,275.65 951.1406,275.65 950.9688,275.7437 C950.5156,275.9781 949.875,276.1187 949.1094,276.1187 C947.1094,276.1187 945.8281,275.1031 945.8281,273.525 L945.8281,272.4781 C945.8281,270.775 947.0469,269.5718 948.75,269.5718 C949.3281,269.5718 949.9063,269.7125 950.375,269.9625 C950.8438,270.2281 951.0156,270.4156 951.0781,270.775 C951.2031,271.4468 951.4531,271.6968 951.9844,271.6968 C952.2656,271.6968 952.5469,271.5562 952.7344,271.3375 C952.8594,271.1656 952.9063,270.9937 952.9063,270.5562 L952.9063,269.1968 C952.9063,268.775 952.8906,268.6343 952.7656,268.4625 C952.5938,268.2125 952.3125,268.0562 951.9844,268.0562 C951.6719,268.0562 951.4688,268.1656 951.25,268.4312 C950.0781,267.9312 949.6406,267.8218 948.6875,267.8218 C946.0156,267.8218 944,269.8375 944,272.4625 L944,273.5562 Z "/><text fill="#000000" font-family="sans-serif" font-size="14" font-weight="bold" lengthAdjust="spacingAndGlyphs" textLength="98" x="976" y="271.0059">NodeCategory</text><text fill="#000000" font-family="sans-serif" font-size="10" lengthAdjust="spacingAndGlyphs" textLength="124" x="963" y="284.0899">it.matlice.ingsw.model.data</text></a><!--class it.matlice.ingsw.model.data.factories.OfferFactory--><a target="_parent" xlink:actuate="onRequest" xlink:href="../../../../../it/matlice/ingsw/model/data/factories/OfferFactory.html" xlink:show="new" xlink:title="it.matlice.ingsw.model.data.factories.OfferFactory" xlink:type="simple"><rect fill="#FFFFFF" filter="url(#fmh2nuy)" height="42.3999" style="stroke: #A80036; stroke-width: 1.5;" width="198" x="364" y="8"/><rect fill="#FFFFFF" height="42.3999" style="stroke: #A80036; stroke-width: 1.5;" width="198" x="364" y="8"/><ellipse cx="379" cy="29.2" fill="#B4A7E5" rx="11" ry="11" style="stroke: #A80036; stroke-width: 1.0;"/><path d="M380.0156,26.3562 L381.6719,26.3562 C382.0625,26.3562 382.2656,26.325 382.4219,26.2468 C382.6875,26.075 382.8594,25.7781 382.8594,25.4812 C382.8594,25.2 382.7188,24.95 382.4844,24.7781 C382.2969,24.6531 382.1406,24.6062 381.6719,24.6062 L376.5313,24.6062 C376.0938,24.6062 375.9531,24.6218 375.7813,24.7312 C375.5156,24.9031 375.3438,25.1843 375.3438,25.4812 C375.3438,25.7625 375.4844,26.0437 375.7188,26.2 C375.9063,26.325 376.0938,26.3562 376.5313,26.3562 L378.1875,26.3562 L378.1875,32.45 L376.5313,32.45 C376.0938,32.45 375.9531,32.4656 375.7813,32.575 C375.5156,32.7312 375.3438,33.0281 375.3438,33.3093 C375.3438,33.9187 375.75,34.2 376.5313,34.2 L381.6719,34.2 C382.4531,34.2 382.8594,33.9187 382.8594,33.3093 C382.8594,33.0437 382.7188,32.7937 382.4844,32.6218 C382.2969,32.4812 382.125,32.45 381.6719,32.45 L380.0156,32.45 L380.0156,26.3562 Z "/><text fill="#000000" font-family="sans-serif" font-size="14" font-style="italic" font-weight="bold" lengthAdjust="spacingAndGlyphs" textLength="86" x="433" y="28.3999">OfferFactory</text><text fill="#000000" font-family="sans-serif" font-size="10" font-style="italic" lengthAdjust="spacingAndGlyphs" textLength="166" x="393" y="42.8999">it.matlice.ingsw.model.data.factories</text></a><!--class it.matlice.ingsw.model.data.impl.jdbc.OfferFactoryImpl--><a target="_parent" xlink:actuate="onRequest" xlink:href="../../../../../it/matlice/ingsw/model/data/impl/jdbc/OfferFactoryImpl.html" xlink:show="new" xlink:title="it.matlice.ingsw.model.data.impl.jdbc.OfferFactoryImpl" xlink:type="simple"><rect fill="#FFFFFF" filter="url(#fmh2nuy)" height="38.7999" style="stroke: #A80036; stroke-width: 1.5;" width="199" x="597.5" y="9.5"/><rect fill="#FFFFFF" height="38.7999" style="stroke: #A80036; stroke-width: 1.5;" width="199" x="597.5" y="9.5"/><ellipse cx="612.5" cy="28.9" fill="#ADD1B2" rx="11" ry="11" style="stroke: #A80036; stroke-width: 1.0;"/><path d="M607.5,30.0562 C607.5,32.5562 609.6406,34.3687 612.5625,34.3687 C613.7969,34.3687 614.9688,34.0718 615.7188,33.5562 C616.3281,33.1343 616.6563,32.7125 616.6563,32.3062 C616.6563,31.8375 616.2344,31.4312 615.7344,31.4312 C615.5,31.4312 615.2813,31.5093 615.0781,31.7125 C614.6406,32.15 614.6406,32.15 614.4688,32.2437 C614.0156,32.4781 613.375,32.6187 612.6094,32.6187 C610.6094,32.6187 609.3281,31.6031 609.3281,30.025 L609.3281,28.9781 C609.3281,27.275 610.5469,26.0718 612.25,26.0718 C612.8281,26.0718 613.4063,26.2125 613.875,26.4625 C614.3438,26.7281 614.5156,26.9156 614.5781,27.275 C614.7031,27.9468 614.9531,28.1968 615.4844,28.1968 C615.7656,28.1968 616.0469,28.0562 616.2344,27.8375 C616.3594,27.6656 616.4063,27.4937 616.4063,27.0562 L616.4063,25.6968 C616.4063,25.275 616.3906,25.1343 616.2656,24.9625 C616.0938,24.7125 615.8125,24.5562 615.4844,24.5562 C615.1719,24.5562 614.9688,24.6656 614.75,24.9312 C613.5781,24.4312 613.1406,24.3218 612.1875,24.3218 C609.5156,24.3218 607.5,26.3375 607.5,28.9625 L607.5,30.0562 Z "/><text fill="#000000" font-family="sans-serif" font-size="14" font-weight="bold" lengthAdjust="spacingAndGlyphs" textLength="115" x="652.5" y="27.5059">OfferFactoryImpl</text><text fill="#000000" font-family="sans-serif" font-size="10" lengthAdjust="spacingAndGlyphs" textLength="167" x="626.5" y="40.5899">it.matlice.ingsw.model.data.impl.jdbc</text></a><!--class it.matlice.ingsw.model.data.impl.jdbc.types.OfferImpl--><a target="_parent" xlink:actuate="onRequest" xlink:href="../../../../../it/matlice/ingsw/model/data/impl/jdbc/types/OfferImpl.html" xlink:show="new" xlink:title="it.matlice.ingsw.model.data.impl.jdbc.types.OfferImpl" xlink:type="simple"><rect fill="#FFFFFF" filter="url(#fmh2nuy)" height="38.7999" style="stroke: #A80036; stroke-width: 1.5;" width="227" x="831.5" y="9.5"/><rect fill="#FFFFFF" height="38.7999" style="stroke: #A80036; stroke-width: 1.5;" width="227" x="831.5" y="9.5"/><ellipse cx="846.5" cy="28.9" fill="#ADD1B2" rx="11" ry="11" style="stroke: #A80036; stroke-width: 1.0;"/><path d="M841.5,30.0562 C841.5,32.5562 843.6406,34.3687 846.5625,34.3687 C847.7969,34.3687 848.9688,34.0718 849.7188,33.5562 C850.3281,33.1343 850.6563,32.7125 850.6563,32.3062 C850.6563,31.8375 850.2344,31.4312 849.7344,31.4312 C849.5,31.4312 849.2813,31.5093 849.0781,31.7125 C848.6406,32.15 848.6406,32.15 848.4688,32.2437 C848.0156,32.4781 847.375,32.6187 846.6094,32.6187 C844.6094,32.6187 843.3281,31.6031 843.3281,30.025 L843.3281,28.9781 C843.3281,27.275 844.5469,26.0718 846.25,26.0718 C846.8281,26.0718 847.4063,26.2125 847.875,26.4625 C848.3438,26.7281 848.5156,26.9156 848.5781,27.275 C848.7031,27.9468 848.9531,28.1968 849.4844,28.1968 C849.7656,28.1968 850.0469,28.0562 850.2344,27.8375 C850.3594,27.6656 850.4063,27.4937 850.4063,27.0562 L850.4063,25.6968 C850.4063,25.275 850.3906,25.1343 850.2656,24.9625 C850.0938,24.7125 849.8125,24.5562 849.4844,24.5562 C849.1719,24.5562 848.9688,24.6656 848.75,24.9312 C847.5781,24.4312 847.1406,24.3218 846.1875,24.3218 C843.5156,24.3218 841.5,26.3375 841.5,28.9625 L841.5,30.0562 Z "/><text fill="#000000" font-family="sans-serif" font-size="14" font-weight="bold" lengthAdjust="spacingAndGlyphs" textLength="63" x="926.5" y="27.5059">OfferImpl</text><text fill="#000000" font-family="sans-serif" font-size="10" lengthAdjust="spacingAndGlyphs" textLength="195" x="860.5" y="40.5899">it.matlice.ingsw.model.data.impl.jdbc.types</text></a><!--class it.matlice.ingsw.model.data.impl.jdbc.types.NodeCategoryImpl--><a target="_parent" xlink:actuate="onRequest" xlink:href="../../../../../it/matlice/ingsw/model/data/impl/jdbc/types/NodeCategoryImpl.html" xlink:show="new" xlink:title="it.matlice.ingsw.model.data.impl.jdbc.types.NodeCategoryImpl" xlink:type="simple"><rect fill="#FFFFFF" filter="url(#fmh2nuy)" height="38.7999" style="stroke: #A80036; stroke-width: 1.5;" width="227" x="1093.5" y="9.5"/><rect fill="#FFFFFF" height="38.7999" style="stroke: #A80036; stroke-width: 1.5;" width="227" x="1093.5" y="9.5"/><ellipse cx="1108.5" cy="28.9" fill="#ADD1B2" rx="11" ry="11" style="stroke: #A80036; stroke-width: 1.0;"/><path d="M1103.5,30.0562 C1103.5,32.5562 1105.6406,34.3687 1108.5625,34.3687 C1109.7969,34.3687 1110.9688,34.0718 1111.7188,33.5562 C1112.3281,33.1343 1112.6563,32.7125 1112.6563,32.3062 C1112.6563,31.8375 1112.2344,31.4312 1111.7344,31.4312 C1111.5,31.4312 1111.2813,31.5093 1111.0781,31.7125 C1110.6406,32.15 1110.6406,32.15 1110.4688,32.2437 C1110.0156,32.4781 1109.375,32.6187 1108.6094,32.6187 C1106.6094,32.6187 1105.3281,31.6031 1105.3281,30.025 L1105.3281,28.9781 C1105.3281,27.275 1106.5469,26.0718 1108.25,26.0718 C1108.8281,26.0718 1109.4063,26.2125 1109.875,26.4625 C1110.3438,26.7281 1110.5156,26.9156 1110.5781,27.275 C1110.7031,27.9468 1110.9531,28.1968 1111.4844,28.1968 C1111.7656,28.1968 1112.0469,28.0562 1112.2344,27.8375 C1112.3594,27.6656 1112.4063,27.4937 1112.4063,27.0562 L1112.4063,25.6968 C1112.4063,25.275 1112.3906,25.1343 1112.2656,24.9625 C1112.0938,24.7125 1111.8125,24.5562 1111.4844,24.5562 C1111.1719,24.5562 1110.9688,24.6656 1110.75,24.9312 C1109.5781,24.4312 1109.1406,24.3218 1108.1875,24.3218 C1105.5156,24.3218 1103.5,26.3375 1103.5,28.9625 L1103.5,30.0562 Z "/><text fill="#000000" font-family="sans-serif" font-size="14" font-weight="bold" lengthAdjust="spacingAndGlyphs" textLength="127" x="1156.5" y="27.5059">NodeCategoryImpl</text><text fill="#000000" font-family="sans-serif" font-size="10" lengthAdjust="spacingAndGlyphs" textLength="195" x="1122.5" y="40.5899">it.matlice.ingsw.model.data.impl.jdbc.types</text></a><!--class it.matlice.ingsw.model.data.impl.jdbc.types.LeafCategoryImpl--><a target="_parent" xlink:actuate="onRequest" xlink:href="../../../../../it/matlice/ingsw/model/data/impl/jdbc/types/LeafCategoryImpl.html" xlink:show="new" xlink:title="it.matlice.ingsw.model.data.impl.jdbc.types.LeafCategoryImpl" xlink:type="simple"><rect fill="#FFFFFF" filter="url(#fmh2nuy)" height="38.7999" style="stroke: #A80036; stroke-width: 1.5;" width="227" x="1355.5" y="9.5"/><rect fill="#FFFFFF" height="38.7999" style="stroke: #A80036; stroke-width: 1.5;" width="227" x="1355.5" y="9.5"/><ellipse cx="1370.5" cy="28.9" fill="#ADD1B2" rx="11" ry="11" style="stroke: #A80036; stroke-width: 1.0;"/><path d="M1365.5,30.0562 C1365.5,32.5562 1367.6406,34.3687 1370.5625,34.3687 C1371.7969,34.3687 1372.9688,34.0718 1373.7188,33.5562 C1374.3281,33.1343 1374.6563,32.7125 1374.6563,32.3062 C1374.6563,31.8375 1374.2344,31.4312 1373.7344,31.4312 C1373.5,31.4312 1373.2813,31.5093 1373.0781,31.7125 C1372.6406,32.15 1372.6406,32.15 1372.4688,32.2437 C1372.0156,32.4781 1371.375,32.6187 1370.6094,32.6187 C1368.6094,32.6187 1367.3281,31.6031 1367.3281,30.025 L1367.3281,28.9781 C1367.3281,27.275 1368.5469,26.0718 1370.25,26.0718 C1370.8281,26.0718 1371.4063,26.2125 1371.875,26.4625 C1372.3438,26.7281 1372.5156,26.9156 1372.5781,27.275 C1372.7031,27.9468 1372.9531,28.1968 1373.4844,28.1968 C1373.7656,28.1968 1374.0469,28.0562 1374.2344,27.8375 C1374.3594,27.6656 1374.4063,27.4937 1374.4063,27.0562 L1374.4063,25.6968 C1374.4063,25.275 1374.3906,25.1343 1374.2656,24.9625 C1374.0938,24.7125 1373.8125,24.5562 1373.4844,24.5562 C1373.1719,24.5562 1372.9688,24.6656 1372.75,24.9312 C1371.5781,24.4312 1371.1406,24.3218 1370.1875,24.3218 C1367.5156,24.3218 1365.5,26.3375 1365.5,28.9625 L1365.5,30.0562 Z "/><text fill="#000000" font-family="sans-serif" font-size="14" font-weight="bold" lengthAdjust="spacingAndGlyphs" textLength="121" x="1421.5" y="27.5059">LeafCategoryImpl</text><text fill="#000000" font-family="sans-serif" font-size="10" lengthAdjust="spacingAndGlyphs" textLength="195" x="1384.5" y="40.5899">it.matlice.ingsw.model.data.impl.jdbc.types</text></a><!--class it.matlice.ingsw.model.exceptions.RequiredFieldConstrainException--><a target="_parent" xlink:actuate="onRequest" xlink:href="../../../../../it/matlice/ingsw/model/exceptions/RequiredFieldConstrainException.html" xlink:show="new" xlink:title="it.matlice.ingsw.model.exceptions.RequiredFieldConstrainException" xlink:type="simple"><rect fill="#FFFFFF" filter="url(#fmh2nuy)" height="38.7999" style="stroke: #A80036; stroke-width: 1.5;" width="264" x="1618" y="9.5"/><rect fill="#FFFFFF" height="38.7999" style="stroke: #A80036; stroke-width: 1.5;" width="264" x="1618" y="9.5"/><ellipse cx="1633" cy="28.9" fill="#ADD1B2" rx="11" ry="11" style="stroke: #A80036; stroke-width: 1.0;"/><path d="M1628,30.0562 C1628,32.5562 1630.1406,34.3687 1633.0625,34.3687 C1634.2969,34.3687 1635.4688,34.0718 1636.2188,33.5562 C1636.8281,33.1343 1637.1563,32.7125 1637.1563,32.3062 C1637.1563,31.8375 1636.7344,31.4312 1636.2344,31.4312 C1636,31.4312 1635.7813,31.5093 1635.5781,31.7125 C1635.1406,32.15 1635.1406,32.15 1634.9688,32.2437 C1634.5156,32.4781 1633.875,32.6187 1633.1094,32.6187 C1631.1094,32.6187 1629.8281,31.6031 1629.8281,30.025 L1629.8281,28.9781 C1629.8281,27.275 1631.0469,26.0718 1632.75,26.0718 C1633.3281,26.0718 1633.9063,26.2125 1634.375,26.4625 C1634.8438,26.7281 1635.0156,26.9156 1635.0781,27.275 C1635.2031,27.9468 1635.4531,28.1968 1635.9844,28.1968 C1636.2656,28.1968 1636.5469,28.0562 1636.7344,27.8375 C1636.8594,27.6656 1636.9063,27.4937 1636.9063,27.0562 L1636.9063,25.6968 C1636.9063,25.275 1636.8906,25.1343 1636.7656,24.9625 C1636.5938,24.7125 1636.3125,24.5562 1635.9844,24.5562 C1635.6719,24.5562 1635.4688,24.6656 1635.25,24.9312 C1634.0781,24.4312 1633.6406,24.3218 1632.6875,24.3218 C1630.0156,24.3218 1628,26.3375 1628,28.9625 L1628,30.0562 Z "/><text fill="#000000" font-family="sans-serif" font-size="14" font-weight="bold" lengthAdjust="spacingAndGlyphs" textLength="232" x="1647" y="27.5059">RequiredFieldConstrainException</text><text fill="#000000" font-family="sans-serif" font-size="10" lengthAdjust="spacingAndGlyphs" textLength="153" x="1686.5" y="40.5899">it.matlice.ingsw.model.exceptions</text></a><path d="M72,48.72 C72,88.16 72,173 72,173 C72,173 723.78,173 723.78,173 " fill="none" style="stroke: #A80036; stroke-width: 1.0; stroke-dasharray: 7.0,7.0;"/><polygon fill="#A80036" points="728.78,173,719.78,169,723.78,173,719.78,177,728.78,173" style="stroke: #A80036; stroke-width: 1.0;"/><path d="M251,48.76 C251,83.53 251,152 251,152 C251,152 723.79,152 723.79,152 " fill="none" style="stroke: #A80036; stroke-width: 1.0; stroke-dasharray: 7.0,7.0;"/><polygon fill="#A80036" points="728.79,152,719.79,148,723.79,152,719.79,156,728.79,152" style="stroke: #A80036; stroke-width: 1.0;"/><path d="M795,193.14 C795,193.14 795,232.85 795,232.85 " fill="none" style="stroke: #A80036; stroke-width: 1.0;"/><polygon fill="none" points="802,232.85,795,252.85,788,232.85,802,232.85" style="stroke: #A80036; stroke-width: 1.0;"/><path d="M847,252.79 C847,252.79 847,198.03 847,198.03 " fill="none" style="stroke: #A80036; stroke-width: 1.0; stroke-dasharray: 7.0,7.0;"/><polygon fill="#A80036" points="847,193.03,843,202.03,847,198.03,851,202.03,847,193.03" style="stroke: #A80036; stroke-width: 1.0;"/><path d="M906,193.31 C906,228.46 906,273 906,273 C906,273 928.85,273 928.85,273 " fill="none" style="stroke: #A80036; stroke-width: 1.0; stroke-dasharray: 7.0,7.0;"/><polygon fill="#A80036" points="933.85,273,924.85,269,928.85,273,924.85,277,933.85,273" style="stroke: #A80036; stroke-width: 1.0;"/><path d="M463,50.13 C463,80.01 463,131 463,131 C463,131 723.81,131 723.81,131 " fill="none" style="stroke: #A80036; stroke-width: 1.0; stroke-dasharray: 7.0,7.0;"/><polygon fill="#A80036" points="728.81,131,719.81,127,723.81,131,719.81,135,728.81,131" style="stroke: #A80036; stroke-width: 1.0;"/><path d="M762.75,48.68 C762.75,48.68 762.75,104.79 762.75,104.79 " fill="none" style="stroke: #A80036; stroke-width: 1.0; stroke-dasharray: 7.0,7.0;"/><polygon fill="#A80036" points="762.75,109.79,766.75,100.79,762.75,104.79,758.75,100.79,762.75,109.79" style="stroke: #A80036; stroke-width: 1.0;"/><path d="M872.25,48.68 C872.25,48.68 872.25,104.79 872.25,104.79 " fill="none" style="stroke: #A80036; stroke-width: 1.0;"/><polygon fill="#A80036" points="872.25,109.79,876.25,100.79,872.25,104.79,868.25,100.79,872.25,109.79" style="stroke: #A80036; stroke-width: 1.0;"/><text fill="#000000" font-family="sans-serif" font-size="13" lengthAdjust="spacingAndGlyphs" textLength="50" x="826.7617" y="98.4735">category</text><path d="M1207,48.67 C1207,78.31 1207,131 1207,131 C1207,131 918.46,131 918.46,131 " fill="none" style="stroke: #A80036; stroke-width: 1.0; stroke-dasharray: 7.0,7.0;"/><polygon fill="#A80036" points="913.46,131,922.46,135,918.46,131,922.46,127,913.46,131" style="stroke: #A80036; stroke-width: 1.0;"/><path d="M1469,48.76 C1469,83.53 1469,152 1469,152 C1469,152 933.15,152 933.15,152 " fill="none" style="stroke: #A80036; stroke-width: 1.0;"/><polygon fill="none" points="933.15,159,913.15,152,933.15,145,933.15,159" style="stroke: #A80036; stroke-width: 1.0;"/><path d="M1750,48.72 C1750,88.16 1750,173 1750,173 C1750,173 918.05,173 918.05,173 " fill="none" style="stroke: #A80036; stroke-width: 1.0;"/><polygon fill="#A80036" points="913.05,173,922.05,177,918.05,173,922.05,169,913.05,173" style="stroke: #A80036; stroke-width: 1.0;"/><text fill="#000000" font-family="sans-serif" font-size="13" lengthAdjust="spacingAndGlyphs" textLength="50" x="920.9143" y="171.0428">category</text></g></svg>