<?xml version="1.0" encoding="UTF-8" standalone="no"?><svg xmlns="http://www.w3.org/2000/svg" xmlns:xlink="http://www.w3.org/1999/xlink" contentScriptType="application/ecmascript" contentStyleType="text/css" height="358px" preserveAspectRatio="none" style="width:1343px;height:358px;" version="1.1" viewBox="0 0 1343 358" width="1343px" zoomAndPan="magnify"><defs><filter height="300%" id="fungh0r" width="300%" x="-1" y="-1"><feGaussianBlur result="blurOut" stdDeviation="2.0"/><feColorMatrix in="blurOut" result="blurOut2" type="matrix" values="0 0 0 0 0 0 0 0 0 0 0 0 0 0 0 0 0 0 .4 0"/><feOffset dx="4.0" dy="4.0" in="blurOut2" result="blurOut3"/><feBlend in="SourceGraphic" in2="blurOut3" mode="normal"/></filter></defs><g><!--class it.matlice.ingsw.model.data.Message--><a target="_parent" xlink:actuate="onRequest" xlink:href="../../../../../it/matlice/ingsw/model/data/Message.html" xlink:show="new" xlink:title="it.matlice.ingsw.model.data.Message" xlink:type="simple"><rect fill="#FEFECE" filter="url(#fungh0r)" height="140.5993" style="stroke: #A80036; stroke-width: 1.5;" width="159" x="542.5" y="110"/><ellipse cx="558.85" cy="129.4" fill="#ADD1B2" rx="11" ry="11" style="stroke: #A80036; stroke-width: 1.0;"/><path d="M553.85,130.5562 C553.85,133.0562 555.9906,134.8687 558.9125,134.8687 C560.1469,134.8687 561.3188,134.5718 562.0688,134.0562 C562.6781,133.6343 563.0063,133.2125 563.0063,132.8062 C563.0063,132.3375 562.5844,131.9312 562.0844,131.9312 C561.85,131.9312 561.6313,132.0093 561.4281,132.2125 C560.9906,132.65 560.9906,132.65 560.8188,132.7437 C560.3656,132.9781 559.725,133.1187 558.9594,133.1187 C556.9594,133.1187 555.6781,132.1031 555.6781,130.525 L555.6781,129.4781 C555.6781,127.775 556.8969,126.5718 558.6,126.5718 C559.1781,126.5718 559.7563,126.7125 560.225,126.9625 C560.6938,127.2281 560.8656,127.4156 560.9281,127.775 C561.0531,128.4468 561.3031,128.6968 561.8344,128.6968 C562.1156,128.6968 562.3969,128.5562 562.5844,128.3375 C562.7094,128.1656 562.7563,127.9937 562.7563,127.5562 L562.7563,126.1968 C562.7563,125.775 562.7406,125.6343 562.6156,125.4625 C562.4438,125.2125 562.1625,125.0562 561.8344,125.0562 C561.5219,125.0562 561.3188,125.1656 561.1,125.4312 C559.9281,124.9312 559.4906,124.8218 558.5375,124.8218 C555.8656,124.8218 553.85,126.8375 553.85,129.4625 L553.85,130.5562 Z "/><text fill="#000000" font-family="sans-serif" font-size="14" font-weight="bold" lengthAdjust="spacingAndGlyphs" textLength="61" x="604.65" y="128.0059">Message</text><text fill="#000000" font-family="sans-serif" font-size="10" lengthAdjust="spacingAndGlyphs" textLength="124" x="573.15" y="141.0899">it.matlice.ingsw.model.data</text><line style="stroke: #A80036; stroke-width: 1.5;" x1="543.5" x2="700.5" y1="148.7999" y2="148.7999"/><line style="stroke: #A80036; stroke-width: 1.5;" x1="543.5" x2="700.5" y1="156.7999" y2="156.7999"/><ellipse cx="553.5" cy="168.8999" fill="#84BE84" rx="3" ry="3" style="stroke: #038048; stroke-width: 1.0;"/><text fill="#000000" font-family="sans-serif" font-size="11" lengthAdjust="spacingAndGlyphs" textLength="53" x="562.5" y="171.0188">Message()</text><ellipse cx="553.5" cy="182.9248" fill="#84BE84" rx="3" ry="3" style="stroke: #038048; stroke-width: 1.0;"/><text fill="#000000" font-family="sans-serif" font-size="11" font-style="italic" lengthAdjust="spacingAndGlyphs" textLength="133" x="562.5" y="186.0997">Offer getReferencedOffer()</text><ellipse cx="553.5" cy="197.7747" fill="#84BE84" rx="3" ry="3" style="stroke: #038048; stroke-width: 1.0;"/><text fill="#000000" font-family="sans-serif" font-size="11" font-style="italic" lengthAdjust="spacingAndGlyphs" textLength="95" x="562.5" y="200.9496">String getLocation()</text><ellipse cx="553.5" cy="212.6245" fill="#84BE84" rx="3" ry="3" style="stroke: #038048; stroke-width: 1.0;"/><text fill="#000000" font-family="sans-serif" font-size="11" font-style="italic" lengthAdjust="spacingAndGlyphs" textLength="74" x="562.5" y="215.7995">Long getTime()</text><ellipse cx="553.5" cy="227.4744" fill="#84BE84" rx="3" ry="3" style="stroke: #038048; stroke-width: 1.0;"/><text fill="#000000" font-family="sans-serif" font-size="11" font-style="italic" lengthAdjust="spacingAndGlyphs" textLength="93" x="562.5" y="230.6494">Calendar getDate()</text><ellipse cx="553.5" cy="241.4993" fill="#84BE84" rx="3" ry="3" style="stroke: #038048; stroke-width: 1.0;"/><text fill="#000000" font-family="sans-serif" font-size="11" lengthAdjust="spacingAndGlyphs" textLength="76" x="562.5" y="243.6183">String toString()</text></a><!--class it.matlice.ingsw.model.Model--><a target="_parent" xlink:actuate="onRequest" xlink:href="../../../../../it/matlice/ingsw/model/Model.html" xlink:show="new" xlink:title="it.matlice.ingsw.model.Model" xlink:type="simple"><rect fill="#FFFFFF" filter="url(#fungh0r)" height="38.7999" style="stroke: #A80036; stroke-width: 1.5;" width="132" x="6" y="9.5"/><rect fill="#FFFFFF" height="38.7999" style="stroke: #A80036; stroke-width: 1.5;" width="132" x="6" y="9.5"/><ellipse cx="21" cy="28.9" fill="#ADD1B2" rx="11" ry="11" style="stroke: #A80036; stroke-width: 1.0;"/><path d="M16,30.0562 C16,32.5562 18.1406,34.3687 21.0625,34.3687 C22.2969,34.3687 23.4688,34.0718 24.2188,33.5562 C24.8281,33.1343 25.1563,32.7125 25.1563,32.3062 C25.1563,31.8375 24.7344,31.4312 24.2344,31.4312 C24,31.4312 23.7813,31.5093 23.5781,31.7125 C23.1406,32.15 23.1406,32.15 22.9688,32.2437 C22.5156,32.4781 21.875,32.6187 21.1094,32.6187 C19.1094,32.6187 17.8281,31.6031 17.8281,30.025 L17.8281,28.9781 C17.8281,27.275 19.0469,26.0718 20.75,26.0718 C21.3281,26.0718 21.9063,26.2125 22.375,26.4625 C22.8438,26.7281 23.0156,26.9156 23.0781,27.275 C23.2031,27.9468 23.4531,28.1968 23.9844,28.1968 C24.2656,28.1968 24.5469,28.0562 24.7344,27.8375 C24.8594,27.6656 24.9063,27.4937 24.9063,27.0562 L24.9063,25.6968 C24.9063,25.275 24.8906,25.1343 24.7656,24.9625 C24.5938,24.7125 24.3125,24.5562 23.9844,24.5562 C23.6719,24.5562 23.4688,24.6656 23.25,24.9312 C22.0781,24.4312 21.6406,24.3218 20.6875,24.3218 C18.0156,24.3218 16,26.3375 16,28.9625 L16,30.0562 Z "/><text fill="#000000" font-family="sans-serif" font-size="14" font-weight="bold" lengthAdjust="spacingAndGlyphs" textLength="42" x="64" y="27.5059">Model</text><text fill="#000000" font-family="sans-serif" font-size="10" lengthAdjust="spacingAndGlyphs" textLength="100" x="35" y="40.5899">it.matlice.ingsw.model</text></a><!--class it.matlice.ingsw.model.data.Offer--><a target="_parent" xlink:actuate="onRequest" xlink:href="../../../../../it/matlice/ingsw/model/data/Offer.html" xlink:show="new" xlink:title="it.matlice.ingsw.model.data.Offer" xlink:type="simple"><rect fill="#FEFECE" filter="url(#fungh0r)" height="38.7999" style="stroke: #A80036; stroke-width: 1.5;" width="156" x="544" y="311"/><ellipse cx="559" cy="330.4" fill="#ADD1B2" rx="11" ry="11" style="stroke: #A80036; stroke-width: 1.0;"/><path d="M554,331.5562 C554,334.0562 556.1406,335.8687 559.0625,335.8687 C560.2969,335.8687 561.4688,335.5718 562.2188,335.0562 C562.8281,334.6343 563.1563,334.2125 563.1563,333.8062 C563.1563,333.3375 562.7344,332.9312 562.2344,332.9312 C562,332.9312 561.7813,333.0093 561.5781,333.2125 C561.1406,333.65 561.1406,333.65 560.9688,333.7437 C560.5156,333.9781 559.875,334.1187 559.1094,334.1187 C557.1094,334.1187 555.8281,333.1031 555.8281,331.525 L555.8281,330.4781 C555.8281,328.775 557.0469,327.5718 558.75,327.5718 C559.3281,327.5718 559.9063,327.7125 560.375,327.9625 C560.8438,328.2281 561.0156,328.4156 561.0781,328.775 C561.2031,329.4468 561.4531,329.6968 561.9844,329.6968 C562.2656,329.6968 562.5469,329.5562 562.7344,329.3375 C562.8594,329.1656 562.9063,328.9937 562.9063,328.5562 L562.9063,327.1968 C562.9063,326.775 562.8906,326.6343 562.7656,326.4625 C562.5938,326.2125 562.3125,326.0562 561.9844,326.0562 C561.6719,326.0562 561.4688,326.1656 561.25,326.4312 C560.0781,325.9312 559.6406,325.8218 558.6875,325.8218 C556.0156,325.8218 554,327.8375 554,330.4625 L554,331.5562 Z "/><text fill="#000000" font-family="sans-serif" font-size="14" font-weight="bold" lengthAdjust="spacingAndGlyphs" textLength="34" x="618" y="329.0059">Offer</text><text fill="#000000" font-family="sans-serif" font-size="10" lengthAdjust="spacingAndGlyphs" textLength="124" x="573" y="342.0899">it.matlice.ingsw.model.data</text></a><!--class it.matlice.ingsw.model.data.factories.OfferFactory--><a target="_parent" xlink:actuate="onRequest" xlink:href="../../../../../it/matlice/ingsw/model/data/factories/OfferFactory.html" xlink:show="new" xlink:title="it.matlice.ingsw.model.data.factories.OfferFactory" xlink:type="simple"><rect fill="#FFFFFF" filter="url(#fungh0r)" height="42.3999" style="stroke: #A80036; stroke-width: 1.5;" width="198" x="173" y="8"/><rect fill="#FFFFFF" height="42.3999" style="stroke: #A80036; stroke-width: 1.5;" width="198" x="173" y="8"/><ellipse cx="188" cy="29.2" fill="#B4A7E5" rx="11" ry="11" style="stroke: #A80036; stroke-width: 1.0;"/><path d="M189.0156,26.3562 L190.6719,26.3562 C191.0625,26.3562 191.2656,26.325 191.4219,26.2468 C191.6875,26.075 191.8594,25.7781 191.8594,25.4812 C191.8594,25.2 191.7188,24.95 191.4844,24.7781 C191.2969,24.6531 191.1406,24.6062 190.6719,24.6062 L185.5313,24.6062 C185.0938,24.6062 184.9531,24.6218 184.7813,24.7312 C184.5156,24.9031 184.3438,25.1843 184.3438,25.4812 C184.3438,25.7625 184.4844,26.0437 184.7188,26.2 C184.9063,26.325 185.0938,26.3562 185.5313,26.3562 L187.1875,26.3562 L187.1875,32.45 L185.5313,32.45 C185.0938,32.45 184.9531,32.4656 184.7813,32.575 C184.5156,32.7312 184.3438,33.0281 184.3438,33.3093 C184.3438,33.9187 184.75,34.2 185.5313,34.2 L190.6719,34.2 C191.4531,34.2 191.8594,33.9187 191.8594,33.3093 C191.8594,33.0437 191.7188,32.7937 191.4844,32.6218 C191.2969,32.4812 191.125,32.45 190.6719,32.45 L189.0156,32.45 L189.0156,26.3562 Z "/><text fill="#000000" font-family="sans-serif" font-size="14" font-style="italic" font-weight="bold" lengthAdjust="spacingAndGlyphs" textLength="86" x="242" y="28.3999">OfferFactory</text><text fill="#000000" font-family="sans-serif" font-size="10" font-style="italic" lengthAdjust="spacingAndGlyphs" textLength="166" x="202" y="42.8999">it.matlice.ingsw.model.data.factories</text></a><!--class it.matlice.ingsw.model.data.factories.MessageFactory--><a target="_parent" xlink:actuate="onRequest" xlink:href="../../../../../it/matlice/ingsw/model/data/factories/MessageFactory.html" xlink:show="new" xlink:title="it.matlice.ingsw.model.data.factories.MessageFactory" xlink:type="simple"><rect fill="#FFFFFF" filter="url(#fungh0r)" height="42.3999" style="stroke: #A80036; stroke-width: 1.5;" width="198" x="406" y="8"/><rect fill="#FFFFFF" height="42.3999" style="stroke: #A80036; stroke-width: 1.5;" width="198" x="406" y="8"/><ellipse cx="421" cy="29.2" fill="#B4A7E5" rx="11" ry="11" style="stroke: #A80036; stroke-width: 1.0;"/><path d="M422.0156,26.3562 L423.6719,26.3562 C424.0625,26.3562 424.2656,26.325 424.4219,26.2468 C424.6875,26.075 424.8594,25.7781 424.8594,25.4812 C424.8594,25.2 424.7188,24.95 424.4844,24.7781 C424.2969,24.6531 424.1406,24.6062 423.6719,24.6062 L418.5313,24.6062 C418.0938,24.6062 417.9531,24.6218 417.7813,24.7312 C417.5156,24.9031 417.3438,25.1843 417.3438,25.4812 C417.3438,25.7625 417.4844,26.0437 417.7188,26.2 C417.9063,26.325 418.0938,26.3562 418.5313,26.3562 L420.1875,26.3562 L420.1875,32.45 L418.5313,32.45 C418.0938,32.45 417.9531,32.4656 417.7813,32.575 C417.5156,32.7312 417.3438,33.0281 417.3438,33.3093 C417.3438,33.9187 417.75,34.2 418.5313,34.2 L423.6719,34.2 C424.4531,34.2 424.8594,33.9187 424.8594,33.3093 C424.8594,33.0437 424.7188,32.7937 424.4844,32.6218 C424.2969,32.4812 424.125,32.45 423.6719,32.45 L422.0156,32.45 L422.0156,26.3562 Z "/><text fill="#000000" font-family="sans-serif" font-size="14" font-style="italic" font-weight="bold" lengthAdjust="spacingAndGlyphs" textLength="113" x="461.5" y="28.3999">MessageFactory</text><text fill="#000000" font-family="sans-serif" font-size="10" font-style="italic" lengthAdjust="spacingAndGlyphs" textLength="166" x="435" y="42.8999">it.matlice.ingsw.model.data.factories</text></a><!--class it.matlice.ingsw.model.data.impl.jdbc.OfferFactoryImpl--><a target="_parent" xlink:actuate="onRequest" xlink:href="../../../../../it/matlice/ingsw/model/data/impl/jdbc/OfferFactoryImpl.html" xlink:show="new" xlink:title="it.matlice.ingsw.model.data.impl.jdbc.OfferFactoryImpl" xlink:type="simple"><rect fill="#FFFFFF" filter="url(#fungh0r)" height="38.7999" style="stroke: #A80036; stroke-width: 1.5;" width="199" x="639.5" y="9.5"/><rect fill="#FFFFFF" height="38.7999" style="stroke: #A80036; stroke-width: 1.5;" width="199" x="639.5" y="9.5"/><ellipse cx="654.5" cy="28.9" fill="#ADD1B2" rx="11" ry="11" style="stroke: #A80036; stroke-width: 1.0;"/><path d="M649.5,30.0562 C649.5,32.5562 651.6406,34.3687 654.5625,34.3687 C655.7969,34.3687 656.9688,34.0718 657.7188,33.5562 C658.3281,33.1343 658.6563,32.7125 658.6563,32.3062 C658.6563,31.8375 658.2344,31.4312 657.7344,31.4312 C657.5,31.4312 657.2813,31.5093 657.0781,31.7125 C656.6406,32.15 656.6406,32.15 656.4688,32.2437 C656.0156,32.4781 655.375,32.6187 654.6094,32.6187 C652.6094,32.6187 651.3281,31.6031 651.3281,30.025 L651.3281,28.9781 C651.3281,27.275 652.5469,26.0718 654.25,26.0718 C654.8281,26.0718 655.4063,26.2125 655.875,26.4625 C656.3438,26.7281 656.5156,26.9156 656.5781,27.275 C656.7031,27.9468 656.9531,28.1968 657.4844,28.1968 C657.7656,28.1968 658.0469,28.0562 658.2344,27.8375 C658.3594,27.6656 658.4063,27.4937 658.4063,27.0562 L658.4063,25.6968 C658.4063,25.275 658.3906,25.1343 658.2656,24.9625 C658.0938,24.7125 657.8125,24.5562 657.4844,24.5562 C657.1719,24.5562 656.9688,24.6656 656.75,24.9312 C655.5781,24.4312 655.1406,24.3218 654.1875,24.3218 C651.5156,24.3218 649.5,26.3375 649.5,28.9625 L649.5,30.0562 Z "/><text fill="#000000" font-family="sans-serif" font-size="14" font-weight="bold" lengthAdjust="spacingAndGlyphs" textLength="115" x="694.5" y="27.5059">OfferFactoryImpl</text><text fill="#000000" font-family="sans-serif" font-size="10" lengthAdjust="spacingAndGlyphs" textLength="167" x="668.5" y="40.5899">it.matlice.ingsw.model.data.impl.jdbc</text></a><!--class it.matlice.ingsw.model.data.impl.jdbc.MessageFactoryImpl--><a target="_parent" xlink:actuate="onRequest" xlink:href="../../../../../it/matlice/ingsw/model/data/impl/jdbc/MessageFactoryImpl.html" xlink:show="new" xlink:title="it.matlice.ingsw.model.data.impl.jdbc.MessageFactoryImpl" xlink:type="simple"><rect fill="#FFFFFF" filter="url(#fungh0r)" height="38.7999" style="stroke: #A80036; stroke-width: 1.5;" width="199" x="873.5" y="9.5"/><rect fill="#FFFFFF" height="38.7999" style="stroke: #A80036; stroke-width: 1.5;" width="199" x="873.5" y="9.5"/><ellipse cx="888.5" cy="28.9" fill="#ADD1B2" rx="11" ry="11" style="stroke: #A80036; stroke-width: 1.0;"/><path d="M883.5,30.0562 C883.5,32.5562 885.6406,34.3687 888.5625,34.3687 C889.7969,34.3687 890.9688,34.0718 891.7188,33.5562 C892.3281,33.1343 892.6563,32.7125 892.6563,32.3062 C892.6563,31.8375 892.2344,31.4312 891.7344,31.4312 C891.5,31.4312 891.2813,31.5093 891.0781,31.7125 C890.6406,32.15 890.6406,32.15 890.4688,32.2437 C890.0156,32.4781 889.375,32.6187 888.6094,32.6187 C886.6094,32.6187 885.3281,31.6031 885.3281,30.025 L885.3281,28.9781 C885.3281,27.275 886.5469,26.0718 888.25,26.0718 C888.8281,26.0718 889.4063,26.2125 889.875,26.4625 C890.3438,26.7281 890.5156,26.9156 890.5781,27.275 C890.7031,27.9468 890.9531,28.1968 891.4844,28.1968 C891.7656,28.1968 892.0469,28.0562 892.2344,27.8375 C892.3594,27.6656 892.4063,27.4937 892.4063,27.0562 L892.4063,25.6968 C892.4063,25.275 892.3906,25.1343 892.2656,24.9625 C892.0938,24.7125 891.8125,24.5562 891.4844,24.5562 C891.1719,24.5562 890.9688,24.6656 890.75,24.9312 C889.5781,24.4312 889.1406,24.3218 888.1875,24.3218 C885.5156,24.3218 883.5,26.3375 883.5,28.9625 L883.5,30.0562 Z "/><text fill="#000000" font-family="sans-serif" font-size="14" font-weight="bold" lengthAdjust="spacingAndGlyphs" textLength="142" x="915" y="27.5059">MessageFactoryImpl</text><text fill="#000000" font-family="sans-serif" font-size="10" lengthAdjust="spacingAndGlyphs" textLength="167" x="902.5" y="40.5899">it.matlice.ingsw.model.data.impl.jdbc</text></a><!--class it.matlice.ingsw.model.data.impl.jdbc.types.MessageImpl--><a target="_parent" xlink:actuate="onRequest" xlink:href="../../../../../it/matlice/ingsw/model/data/impl/jdbc/types/MessageImpl.html" xlink:show="new" xlink:title="it.matlice.ingsw.model.data.impl.jdbc.types.MessageImpl" xlink:type="simple"><rect fill="#FFFFFF" filter="url(#fungh0r)" height="38.7999" style="stroke: #A80036; stroke-width: 1.5;" width="227" x="1107.5" y="9.5"/><rect fill="#FFFFFF" height="38.7999" style="stroke: #A80036; stroke-width: 1.5;" width="227" x="1107.5" y="9.5"/><ellipse cx="1122.5" cy="28.9" fill="#ADD1B2" rx="11" ry="11" style="stroke: #A80036; stroke-width: 1.0;"/><path d="M1117.5,30.0562 C1117.5,32.5562 1119.6406,34.3687 1122.5625,34.3687 C1123.7969,34.3687 1124.9688,34.0718 1125.7188,33.5562 C1126.3281,33.1343 1126.6563,32.7125 1126.6563,32.3062 C1126.6563,31.8375 1126.2344,31.4312 1125.7344,31.4312 C1125.5,31.4312 1125.2813,31.5093 1125.0781,31.7125 C1124.6406,32.15 1124.6406,32.15 1124.4688,32.2437 C1124.0156,32.4781 1123.375,32.6187 1122.6094,32.6187 C1120.6094,32.6187 1119.3281,31.6031 1119.3281,30.025 L1119.3281,28.9781 C1119.3281,27.275 1120.5469,26.0718 1122.25,26.0718 C1122.8281,26.0718 1123.4063,26.2125 1123.875,26.4625 C1124.3438,26.7281 1124.5156,26.9156 1124.5781,27.275 C1124.7031,27.9468 1124.9531,28.1968 1125.4844,28.1968 C1125.7656,28.1968 1126.0469,28.0562 1126.2344,27.8375 C1126.3594,27.6656 1126.4063,27.4937 1126.4063,27.0562 L1126.4063,25.6968 C1126.4063,25.275 1126.3906,25.1343 1126.2656,24.9625 C1126.0938,24.7125 1125.8125,24.5562 1125.4844,24.5562 C1125.1719,24.5562 1124.9688,24.6656 1124.75,24.9312 C1123.5781,24.4312 1123.1406,24.3218 1122.1875,24.3218 C1119.5156,24.3218 1117.5,26.3375 1117.5,28.9625 L1117.5,30.0562 Z "/><text fill="#000000" font-family="sans-serif" font-size="14" font-weight="bold" lengthAdjust="spacingAndGlyphs" textLength="90" x="1189" y="27.5059">MessageImpl</text><text fill="#000000" font-family="sans-serif" font-size="10" lengthAdjust="spacingAndGlyphs" textLength="195" x="1136.5" y="40.5899">it.matlice.ingsw.model.data.impl.jdbc.types</text></a><path d="M72,48.73 C72,94.5 72,204 72,204 C72,204 537.32,204 537.32,204 " fill="none" style="stroke: #A80036; stroke-width: 1.0; stroke-dasharray: 7.0,7.0;"/><polygon fill="#A80036" points="542.32,204,533.32,200,537.32,204,533.32,208,542.32,204" style="stroke: #A80036; stroke-width: 1.0;"/><path d="M622,251.11 C622,251.11 622,305.77 622,305.77 " fill="none" style="stroke: #A80036; stroke-width: 1.0; stroke-dasharray: 7.0,7.0;"/><polygon fill="#A80036" points="622,310.77,626,301.77,622,305.77,618,301.77,622,310.77" style="stroke: #A80036; stroke-width: 1.0;"/><path d="M272,50.14 C272,86.49 272,157 272,157 C272,157 537.14,157 537.14,157 " fill="none" style="stroke: #A80036; stroke-width: 1.0; stroke-dasharray: 7.0,7.0;"/><polygon fill="#A80036" points="542.14,157,533.14,153,537.14,157,533.14,161,542.14,157" style="stroke: #A80036; stroke-width: 1.0;"/><path d="M573.25,50.07 C573.25,50.07 573.25,104.97 573.25,104.97 " fill="none" style="stroke: #A80036; stroke-width: 1.0; stroke-dasharray: 7.0,7.0;"/><polygon fill="#A80036" points="573.25,109.97,577.25,100.97,573.25,104.97,569.25,100.97,573.25,109.97" style="stroke: #A80036; stroke-width: 1.0;"/><path d="M670.5,48.81 C670.5,48.81 670.5,104.89 670.5,104.89 " fill="none" style="stroke: #A80036; stroke-width: 1.0; stroke-dasharray: 7.0,7.0;"/><polygon fill="#A80036" points="670.5,109.89,674.5,100.89,670.5,104.89,666.5,100.89,670.5,109.89" style="stroke: #A80036; stroke-width: 1.0;"/><path d="M973,48.72 C973,84.62 973,157 973,157 C973,157 706.65,157 706.65,157 " fill="none" style="stroke: #A80036; stroke-width: 1.0; stroke-dasharray: 7.0,7.0;"/><polygon fill="#A80036" points="701.65,157,710.65,161,706.65,157,710.65,153,701.65,157" style="stroke: #A80036; stroke-width: 1.0;"/><path d="M1221,48.73 C1221,94.5 1221,204 1221,204 C1221,204 721.54,204 721.54,204 " fill="none" style="stroke: #A80036; stroke-width: 1.0;"/><polygon fill="none" points="721.54,211,701.54,204,721.54,197,721.54,211" style="stroke: #A80036; stroke-width: 1.0;"/></g></svg>