<?xml version="1.0" encoding="UTF-8" standalone="no"?><svg xmlns="http://www.w3.org/2000/svg" xmlns:xlink="http://www.w3.org/1999/xlink" contentScriptType="application/ecmascript" contentStyleType="text/css" height="350px" preserveAspectRatio="none" style="width:695px;height:350px;" version="1.1" viewBox="0 0 695 350" width="695px" zoomAndPan="magnify"><defs><filter height="300%" id="fbjkrce" width="300%" x="-1" y="-1"><feGaussianBlur result="blurOut" stdDeviation="2.0"/><feColorMatrix in="blurOut" result="blurOut2" type="matrix" values="0 0 0 0 0 0 0 0 0 0 0 0 0 0 0 0 0 0 .4 0"/><feOffset dx="4.0" dy="4.0" in="blurOut2" result="blurOut3"/><feBlend in="SourceGraphic" in2="blurOut3" mode="normal"/></filter></defs><g><!--class it.matlice.ingsw.model.data.NodeCategory--><a target="_parent" xlink:actuate="onRequest" xlink:href="../../../../../it/matlice/ingsw/model/data/NodeCategory.html" xlink:show="new" xlink:title="it.matlice.ingsw.model.data.NodeCategory" xlink:type="simple"><rect fill="#FEFECE" filter="url(#fbjkrce)" height="135.6493" style="stroke: #A80036; stroke-width: 1.5;" width="213" x="204.5" y="107"/><ellipse cx="245.15" cy="126.4" fill="#ADD1B2" rx="11" ry="11" style="stroke: #A80036; stroke-width: 1.0;"/><path d="M240.15,127.5562 C240.15,130.0562 242.2906,131.8687 245.2125,131.8687 C246.4469,131.8687 247.6188,131.5718 248.3688,131.0562 C248.9781,130.6343 249.3063,130.2125 249.3063,129.8062 C249.3063,129.3375 248.8844,128.9312 248.3844,128.9312 C248.15,128.9312 247.9313,129.0093 247.7281,129.2125 C247.2906,129.65 247.2906,129.65 247.1188,129.7437 C246.6656,129.9781 246.025,130.1187 245.2594,130.1187 C243.2594,130.1187 241.9781,129.1031 241.9781,127.525 L241.9781,126.4781 C241.9781,124.775 243.1969,123.5718 244.9,123.5718 C245.4781,123.5718 246.0563,123.7125 246.525,123.9625 C246.9938,124.2281 247.1656,124.4156 247.2281,124.775 C247.3531,125.4468 247.6031,125.6968 248.1344,125.6968 C248.4156,125.6968 248.6969,125.5562 248.8844,125.3375 C249.0094,125.1656 249.0563,124.9937 249.0563,124.5562 L249.0563,123.1968 C249.0563,122.775 249.0406,122.6343 248.9156,122.4625 C248.7438,122.2125 248.4625,122.0562 248.1344,122.0562 C247.8219,122.0562 247.6188,122.1656 247.4,122.4312 C246.2281,121.9312 245.7906,121.8218 244.8375,121.8218 C242.1656,121.8218 240.15,123.8375 240.15,126.4625 L240.15,127.5562 Z "/><text fill="#000000" font-family="sans-serif" font-size="14" font-weight="bold" lengthAdjust="spacingAndGlyphs" textLength="98" x="277.85" y="125.0059">NodeCategory</text><text fill="#000000" font-family="sans-serif" font-size="10" lengthAdjust="spacingAndGlyphs" textLength="124" x="264.85" y="138.0899">it.matlice.ingsw.model.data</text><line style="stroke: #A80036; stroke-width: 1.5;" x1="205.5" x2="416.5" y1="145.7999" y2="145.7999"/><rect fill="none" height="6" style="stroke: #C82930; stroke-width: 1.0;" width="6" x="212.5" y="154.8999"/><text fill="#000000" font-family="sans-serif" font-size="11" lengthAdjust="spacingAndGlyphs" textLength="115" x="224.5" y="160.0188">List&lt;Category&gt; children</text><line style="stroke: #A80036; stroke-width: 1.5;" x1="205.5" x2="416.5" y1="166.9998" y2="166.9998"/><ellipse cx="215.5" cy="179.0998" fill="#84BE84" rx="3" ry="3" style="stroke: #038048; stroke-width: 1.0;"/><text fill="#000000" font-family="sans-serif" font-size="11" lengthAdjust="spacingAndGlyphs" textLength="79" x="224.5" y="181.2187">NodeCategory()</text><ellipse cx="215.5" cy="192.2997" fill="#84BE84" rx="3" ry="3" style="stroke: #038048; stroke-width: 1.0;"/><text fill="#000000" font-family="sans-serif" font-size="11" lengthAdjust="spacingAndGlyphs" textLength="168" x="224.5" y="194.4186">Category addChild(Category child)</text><ellipse cx="215.5" cy="205.4996" fill="#84BE84" rx="3" ry="3" style="stroke: #038048; stroke-width: 1.0;"/><text fill="#000000" font-family="sans-serif" font-size="11" lengthAdjust="spacingAndGlyphs" textLength="187" x="224.5" y="207.6185">Category removeChild(Category child)</text><ellipse cx="215.5" cy="218.6995" fill="#84BE84" rx="3" ry="3" style="stroke: #038048; stroke-width: 1.0;"/><text fill="#000000" font-family="sans-serif" font-size="11" lengthAdjust="spacingAndGlyphs" textLength="111" x="224.5" y="220.8184">Category getChildren()</text><ellipse cx="215.5" cy="232.7244" fill="#84BE84" rx="3" ry="3" style="stroke: #038048; stroke-width: 1.0;"/><text fill="#000000" font-family="sans-serif" font-size="11" font-style="italic" lengthAdjust="spacingAndGlyphs" textLength="69" x="224.5" y="235.8993">Object clone()</text></a><!--class it.matlice.ingsw.model.data.Category--><a target="_parent" xlink:actuate="onRequest" xlink:href="../../../../../it/matlice/ingsw/model/data/Category.html" xlink:show="new" xlink:title="it.matlice.ingsw.model.data.Category" xlink:type="simple"><rect fill="#FEFECE" filter="url(#fbjkrce)" height="38.7999" style="stroke: #A80036; stroke-width: 1.5;" width="156" x="233" y="303"/><ellipse cx="248" cy="322.4" fill="#ADD1B2" rx="11" ry="11" style="stroke: #A80036; stroke-width: 1.0;"/><path d="M243,323.5562 C243,326.0562 245.1406,327.8687 248.0625,327.8687 C249.2969,327.8687 250.4688,327.5718 251.2188,327.0562 C251.8281,326.6343 252.1563,326.2125 252.1563,325.8062 C252.1563,325.3375 251.7344,324.9312 251.2344,324.9312 C251,324.9312 250.7813,325.0093 250.5781,325.2125 C250.1406,325.65 250.1406,325.65 249.9688,325.7437 C249.5156,325.9781 248.875,326.1187 248.1094,326.1187 C246.1094,326.1187 244.8281,325.1031 244.8281,323.525 L244.8281,322.4781 C244.8281,320.775 246.0469,319.5718 247.75,319.5718 C248.3281,319.5718 248.9063,319.7125 249.375,319.9625 C249.8438,320.2281 250.0156,320.4156 250.0781,320.775 C250.2031,321.4468 250.4531,321.6968 250.9844,321.6968 C251.2656,321.6968 251.5469,321.5562 251.7344,321.3375 C251.8594,321.1656 251.9063,320.9937 251.9063,320.5562 L251.9063,319.1968 C251.9063,318.775 251.8906,318.6343 251.7656,318.4625 C251.5938,318.2125 251.3125,318.0562 250.9844,318.0562 C250.6719,318.0562 250.4688,318.1656 250.25,318.4312 C249.0781,317.9312 248.6406,317.8218 247.6875,317.8218 C245.0156,317.8218 243,319.8375 243,322.4625 L243,323.5562 Z "/><text fill="#000000" font-family="sans-serif" font-size="14" font-weight="bold" lengthAdjust="spacingAndGlyphs" textLength="62" x="293" y="321.0059">Category</text><text fill="#000000" font-family="sans-serif" font-size="10" lengthAdjust="spacingAndGlyphs" textLength="124" x="262" y="334.0899">it.matlice.ingsw.model.data</text></a><!--class it.matlice.ingsw.model.data.LeafCategory--><a target="_parent" xlink:actuate="onRequest" xlink:href="../../../../../it/matlice/ingsw/model/data/LeafCategory.html" xlink:show="new" xlink:title="it.matlice.ingsw.model.data.LeafCategory" xlink:type="simple"><rect fill="#FEFECE" filter="url(#fbjkrce)" height="38.7999" style="stroke: #A80036; stroke-width: 1.5;" width="156" x="6" y="8"/><ellipse cx="21" cy="27.4" fill="#ADD1B2" rx="11" ry="11" style="stroke: #A80036; stroke-width: 1.0;"/><path d="M16,28.5562 C16,31.0562 18.1406,32.8687 21.0625,32.8687 C22.2969,32.8687 23.4688,32.5718 24.2188,32.0562 C24.8281,31.6343 25.1563,31.2125 25.1563,30.8062 C25.1563,30.3375 24.7344,29.9312 24.2344,29.9312 C24,29.9312 23.7813,30.0093 23.5781,30.2125 C23.1406,30.65 23.1406,30.65 22.9688,30.7437 C22.5156,30.9781 21.875,31.1187 21.1094,31.1187 C19.1094,31.1187 17.8281,30.1031 17.8281,28.525 L17.8281,27.4781 C17.8281,25.775 19.0469,24.5718 20.75,24.5718 C21.3281,24.5718 21.9063,24.7125 22.375,24.9625 C22.8438,25.2281 23.0156,25.4156 23.0781,25.775 C23.2031,26.4468 23.4531,26.6968 23.9844,26.6968 C24.2656,26.6968 24.5469,26.5562 24.7344,26.3375 C24.8594,26.1656 24.9063,25.9937 24.9063,25.5562 L24.9063,24.1968 C24.9063,23.775 24.8906,23.6343 24.7656,23.4625 C24.5938,23.2125 24.3125,23.0562 23.9844,23.0562 C23.6719,23.0562 23.4688,23.1656 23.25,23.4312 C22.0781,22.9312 21.6406,22.8218 20.6875,22.8218 C18.0156,22.8218 16,24.8375 16,27.4625 L16,28.5562 Z "/><text fill="#000000" font-family="sans-serif" font-size="14" font-weight="bold" lengthAdjust="spacingAndGlyphs" textLength="92" x="51" y="26.0059">LeafCategory</text><text fill="#000000" font-family="sans-serif" font-size="10" lengthAdjust="spacingAndGlyphs" textLength="124" x="35" y="39.0899">it.matlice.ingsw.model.data</text></a><!--class it.matlice.ingsw.model.data.impl.jdbc.types.NodeCategoryImpl--><a target="_parent" xlink:actuate="onRequest" xlink:href="../../../../../it/matlice/ingsw/model/data/impl/jdbc/types/NodeCategoryImpl.html" xlink:show="new" xlink:title="it.matlice.ingsw.model.data.impl.jdbc.types.NodeCategoryImpl" xlink:type="simple"><rect fill="#FFFFFF" filter="url(#fbjkrce)" height="38.7999" style="stroke: #A80036; stroke-width: 1.5;" width="227" x="197.5" y="8"/><rect fill="#FFFFFF" height="38.7999" style="stroke: #A80036; stroke-width: 1.5;" width="227" x="197.5" y="8"/><ellipse cx="212.5" cy="27.4" fill="#ADD1B2" rx="11" ry="11" style="stroke: #A80036; stroke-width: 1.0;"/><path d="M207.5,28.5562 C207.5,31.0562 209.6406,32.8687 212.5625,32.8687 C213.7969,32.8687 214.9688,32.5718 215.7188,32.0562 C216.3281,31.6343 216.6563,31.2125 216.6563,30.8062 C216.6563,30.3375 216.2344,29.9312 215.7344,29.9312 C215.5,29.9312 215.2813,30.0093 215.0781,30.2125 C214.6406,30.65 214.6406,30.65 214.4688,30.7437 C214.0156,30.9781 213.375,31.1187 212.6094,31.1187 C210.6094,31.1187 209.3281,30.1031 209.3281,28.525 L209.3281,27.4781 C209.3281,25.775 210.5469,24.5718 212.25,24.5718 C212.8281,24.5718 213.4063,24.7125 213.875,24.9625 C214.3438,25.2281 214.5156,25.4156 214.5781,25.775 C214.7031,26.4468 214.9531,26.6968 215.4844,26.6968 C215.7656,26.6968 216.0469,26.5562 216.2344,26.3375 C216.3594,26.1656 216.4063,25.9937 216.4063,25.5562 L216.4063,24.1968 C216.4063,23.775 216.3906,23.6343 216.2656,23.4625 C216.0938,23.2125 215.8125,23.0562 215.4844,23.0562 C215.1719,23.0562 214.9688,23.1656 214.75,23.4312 C213.5781,22.9312 213.1406,22.8218 212.1875,22.8218 C209.5156,22.8218 207.5,24.8375 207.5,27.4625 L207.5,28.5562 Z "/><text fill="#000000" font-family="sans-serif" font-size="14" font-weight="bold" lengthAdjust="spacingAndGlyphs" textLength="127" x="260.5" y="26.0059">NodeCategoryImpl</text><text fill="#000000" font-family="sans-serif" font-size="10" lengthAdjust="spacingAndGlyphs" textLength="195" x="226.5" y="39.0899">it.matlice.ingsw.model.data.impl.jdbc.types</text></a><!--class it.matlice.ingsw.model.data.impl.jdbc.types.LeafCategoryImpl--><a target="_parent" xlink:actuate="onRequest" xlink:href="../../../../../it/matlice/ingsw/model/data/impl/jdbc/types/LeafCategoryImpl.html" xlink:show="new" xlink:title="it.matlice.ingsw.model.data.impl.jdbc.types.LeafCategoryImpl" xlink:type="simple"><rect fill="#FFFFFF" filter="url(#fbjkrce)" height="38.7999" style="stroke: #A80036; stroke-width: 1.5;" width="227" x="459.5" y="8"/><rect fill="#FFFFFF" height="38.7999" style="stroke: #A80036; stroke-width: 1.5;" width="227" x="459.5" y="8"/><ellipse cx="474.5" cy="27.4" fill="#ADD1B2" rx="11" ry="11" style="stroke: #A80036; stroke-width: 1.0;"/><path d="M469.5,28.5562 C469.5,31.0562 471.6406,32.8687 474.5625,32.8687 C475.7969,32.8687 476.9688,32.5718 477.7188,32.0562 C478.3281,31.6343 478.6563,31.2125 478.6563,30.8062 C478.6563,30.3375 478.2344,29.9312 477.7344,29.9312 C477.5,29.9312 477.2813,30.0093 477.0781,30.2125 C476.6406,30.65 476.6406,30.65 476.4688,30.7437 C476.0156,30.9781 475.375,31.1187 474.6094,31.1187 C472.6094,31.1187 471.3281,30.1031 471.3281,28.525 L471.3281,27.4781 C471.3281,25.775 472.5469,24.5718 474.25,24.5718 C474.8281,24.5718 475.4063,24.7125 475.875,24.9625 C476.3438,25.2281 476.5156,25.4156 476.5781,25.775 C476.7031,26.4468 476.9531,26.6968 477.4844,26.6968 C477.7656,26.6968 478.0469,26.5562 478.2344,26.3375 C478.3594,26.1656 478.4063,25.9937 478.4063,25.5562 L478.4063,24.1968 C478.4063,23.775 478.3906,23.6343 478.2656,23.4625 C478.0938,23.2125 477.8125,23.0562 477.4844,23.0562 C477.1719,23.0562 476.9688,23.1656 476.75,23.4312 C475.5781,22.9312 475.1406,22.8218 474.1875,22.8218 C471.5156,22.8218 469.5,24.8375 469.5,27.4625 L469.5,28.5562 Z "/><text fill="#000000" font-family="sans-serif" font-size="14" font-weight="bold" lengthAdjust="spacingAndGlyphs" textLength="121" x="525.5" y="26.0059">LeafCategoryImpl</text><text fill="#000000" font-family="sans-serif" font-size="10" lengthAdjust="spacingAndGlyphs" textLength="195" x="488.5" y="39.0899">it.matlice.ingsw.model.data.impl.jdbc.types</text></a><path d="M272,243.14 C272,243.14 272,297.7 272,297.7 " fill="none" style="stroke: #A80036; stroke-width: 1.0;"/><polygon fill="#A80036" points="272,302.7,276,293.7,272,297.7,268,293.7,272,302.7" style="stroke: #A80036; stroke-width: 1.0;"/><text fill="#000000" font-family="sans-serif" font-size="13" lengthAdjust="spacingAndGlyphs" textLength="54" x="197.7875" y="291.5389">children *</text><path d="M311,243.14 C311,243.14 311,282.7 311,282.7 " fill="none" style="stroke: #A80036; stroke-width: 1.0;"/><polygon fill="none" points="318,282.7,311,302.7,304,282.7,318,282.7" style="stroke: #A80036; stroke-width: 1.0;"/><path d="M350,302.91 C350,302.91 350,248.14 350,248.14 " fill="none" style="stroke: #A80036; stroke-width: 1.0;"/><polygon fill="#A80036" points="350,243.14,346,252.14,350,248.14,354,252.14,350,243.14" style="stroke: #A80036; stroke-width: 1.0;"/><text fill="#000000" font-family="sans-serif" font-size="13" lengthAdjust="spacingAndGlyphs" textLength="33" x="319.2148" y="262.7096">father</text><path d="M84,47.09 C84,87.21 84,175 84,175 C84,175 199.48,175 199.48,175 " fill="none" style="stroke: #A80036; stroke-width: 1.0; stroke-dasharray: 7.0,7.0;"/><polygon fill="#A80036" points="204.48,175,195.48,171,199.48,175,195.48,179,204.48,175" style="stroke: #A80036; stroke-width: 1.0;"/><path d="M311,47.09 C311,47.09 311,86.86 311,86.86 " fill="none" style="stroke: #A80036; stroke-width: 1.0;"/><polygon fill="none" points="318,86.86,311,106.86,304,86.86,318,86.86" style="stroke: #A80036; stroke-width: 1.0;"/><path d="M573,47.09 C573,87.21 573,175 573,175 C573,175 422.57,175 422.57,175 " fill="none" style="stroke: #A80036; stroke-width: 1.0; stroke-dasharray: 7.0,7.0;"/><polygon fill="#A80036" points="417.57,175,426.57,179,422.57,175,426.57,171,417.57,175" style="stroke: #A80036; stroke-width: 1.0;"/></g></svg>