<?xml version="1.0" encoding="UTF-8" standalone="no"?><svg xmlns="http://www.w3.org/2000/svg" xmlns:xlink="http://www.w3.org/1999/xlink" contentScriptType="application/ecmascript" contentStyleType="text/css" height="387px" preserveAspectRatio="none" style="width:1977px;height:387px;" version="1.1" viewBox="0 0 1977 387" width="1977px" zoomAndPan="magnify"><defs><filter height="300%" id="f4gbakz" width="300%" x="-1" y="-1"><feGaussianBlur result="blurOut" stdDeviation="2.0"/><feColorMatrix in="blurOut" result="blurOut2" type="matrix" values="0 0 0 0 0 0 0 0 0 0 0 0 0 0 0 0 0 0 .4 0"/><feOffset dx="4.0" dy="4.0" in="blurOut2" result="blurOut3"/><feBlend in="SourceGraphic" in2="blurOut3" mode="normal"/></filter></defs><g><!--class it.matlice.ingsw.model.data.Offer--><a target="_parent" xlink:actuate="onRequest" xlink:href="../../../../../it/matlice/ingsw/model/data/Offer.html" xlink:show="new" xlink:title="it.matlice.ingsw.model.data.Offer" xlink:type="simple"><rect fill="#FEFECE" filter="url(#f4gbakz)" height="170.2991" style="stroke: #A80036; stroke-width: 1.5;" width="167" x="910.5" y="110"/><ellipse cx="930.45" cy="129.4" fill="#ADD1B2" rx="11" ry="11" style="stroke: #A80036; stroke-width: 1.0;"/><path d="M925.45,130.5562 C925.45,133.0562 927.5906,134.8687 930.5125,134.8687 C931.7469,134.8687 932.9188,134.5718 933.6688,134.0562 C934.2781,133.6343 934.6063,133.2125 934.6063,132.8062 C934.6063,132.3375 934.1844,131.9312 933.6844,131.9312 C933.45,131.9312 933.2313,132.0093 933.0281,132.2125 C932.5906,132.65 932.5906,132.65 932.4188,132.7437 C931.9656,132.9781 931.325,133.1187 930.5594,133.1187 C928.5594,133.1187 927.2781,132.1031 927.2781,130.525 L927.2781,129.4781 C927.2781,127.775 928.4969,126.5718 930.2,126.5718 C930.7781,126.5718 931.3563,126.7125 931.825,126.9625 C932.2938,127.2281 932.4656,127.4156 932.5281,127.775 C932.6531,128.4468 932.9031,128.6968 933.4344,128.6968 C933.7156,128.6968 933.9969,128.5562 934.1844,128.3375 C934.3094,128.1656 934.3563,127.9937 934.3563,127.5562 L934.3563,126.1968 C934.3563,125.775 934.3406,125.6343 934.2156,125.4625 C934.0438,125.2125 933.7625,125.0562 933.4344,125.0562 C933.1219,125.0562 932.9188,125.1656 932.7,125.4312 C931.5281,124.9312 931.0906,124.8218 930.1375,124.8218 C927.4656,124.8218 925.45,126.8375 925.45,129.4625 L925.45,130.5562 Z "/><text fill="#000000" font-family="sans-serif" font-size="14" font-weight="bold" lengthAdjust="spacingAndGlyphs" textLength="34" x="990.55" y="128.0059">Offer</text><text fill="#000000" font-family="sans-serif" font-size="10" lengthAdjust="spacingAndGlyphs" textLength="124" x="945.55" y="141.0899">it.matlice.ingsw.model.data</text><line style="stroke: #A80036; stroke-width: 1.5;" x1="911.5" x2="1076.5" y1="148.7999" y2="148.7999"/><line style="stroke: #A80036; stroke-width: 1.5;" x1="911.5" x2="1076.5" y1="156.7999" y2="156.7999"/><ellipse cx="921.5" cy="168.8999" fill="#84BE84" rx="3" ry="3" style="stroke: #038048; stroke-width: 1.0;"/><text fill="#000000" font-family="sans-serif" font-size="11" lengthAdjust="spacingAndGlyphs" textLength="33" x="930.5" y="171.0188">Offer()</text><ellipse cx="921.5" cy="182.9248" fill="#84BE84" rx="3" ry="3" style="stroke: #038048; stroke-width: 1.0;"/><text fill="#000000" font-family="sans-serif" font-size="11" font-style="italic" lengthAdjust="spacingAndGlyphs" textLength="83" x="930.5" y="186.0997">String getName()</text><ellipse cx="921.5" cy="197.7747" fill="#84BE84" rx="3" ry="3" style="stroke: #038048; stroke-width: 1.0;"/><text fill="#000000" font-family="sans-serif" font-size="11" font-style="italic" lengthAdjust="spacingAndGlyphs" textLength="83" x="930.5" y="200.9496">User getOwner()</text><ellipse cx="921.5" cy="212.6245" fill="#84BE84" rx="3" ry="3" style="stroke: #038048; stroke-width: 1.0;"/><text fill="#000000" font-family="sans-serif" font-size="11" font-style="italic" lengthAdjust="spacingAndGlyphs" textLength="141" x="930.5" y="215.7995">Offer.OfferStatus getStatus()</text><ellipse cx="921.5" cy="227.4744" fill="#84BE84" rx="3" ry="3" style="stroke: #038048; stroke-width: 1.0;"/><text fill="#000000" font-family="sans-serif" font-size="11" font-style="italic" lengthAdjust="spacingAndGlyphs" textLength="137" x="930.5" y="230.6494">LeafCategory getCategory()</text><ellipse cx="921.5" cy="242.3243" fill="#84BE84" rx="3" ry="3" style="stroke: #038048; stroke-width: 1.0;"/><text fill="#000000" font-family="sans-serif" font-size="11" font-style="italic" lengthAdjust="spacingAndGlyphs" textLength="108" x="930.5" y="245.4993">Offer getLinkedOffer()</text><ellipse cx="921.5" cy="257.1742" fill="#84BE84" rx="3" ry="3" style="stroke: #038048; stroke-width: 1.0;"/><text fill="#000000" font-family="sans-serif" font-size="11" font-style="italic" lengthAdjust="spacingAndGlyphs" textLength="121" x="930.5" y="260.3492">Long getProposedTime()</text><ellipse cx="921.5" cy="271.1991" fill="#84BE84" rx="3" ry="3" style="stroke: #038048; stroke-width: 1.0;"/><text fill="#000000" font-family="sans-serif" font-size="11" lengthAdjust="spacingAndGlyphs" textLength="76" x="930.5" y="273.3181">String toString()</text></a><!--class it.matlice.ingsw.controller.Controller--><a target="_parent" xlink:actuate="onRequest" xlink:href="../../../../../it/matlice/ingsw/controller/Controller.html" xlink:show="new" xlink:title="it.matlice.ingsw.controller.Controller" xlink:type="simple"><rect fill="#FFFFFF" filter="url(#f4gbakz)" height="38.7999" style="stroke: #A80036; stroke-width: 1.5;" width="146" x="6" y="9.5"/><rect fill="#FFFFFF" height="38.7999" style="stroke: #A80036; stroke-width: 1.5;" width="146" x="6" y="9.5"/><ellipse cx="21" cy="28.9" fill="#ADD1B2" rx="11" ry="11" style="stroke: #A80036; stroke-width: 1.0;"/><path d="M16,30.0562 C16,32.5562 18.1406,34.3687 21.0625,34.3687 C22.2969,34.3687 23.4688,34.0718 24.2188,33.5562 C24.8281,33.1343 25.1563,32.7125 25.1563,32.3062 C25.1563,31.8375 24.7344,31.4312 24.2344,31.4312 C24,31.4312 23.7813,31.5093 23.5781,31.7125 C23.1406,32.15 23.1406,32.15 22.9688,32.2437 C22.5156,32.4781 21.875,32.6187 21.1094,32.6187 C19.1094,32.6187 17.8281,31.6031 17.8281,30.025 L17.8281,28.9781 C17.8281,27.275 19.0469,26.0718 20.75,26.0718 C21.3281,26.0718 21.9063,26.2125 22.375,26.4625 C22.8438,26.7281 23.0156,26.9156 23.0781,27.275 C23.2031,27.9468 23.4531,28.1968 23.9844,28.1968 C24.2656,28.1968 24.5469,28.0562 24.7344,27.8375 C24.8594,27.6656 24.9063,27.4937 24.9063,27.0562 L24.9063,25.6968 C24.9063,25.275 24.8906,25.1343 24.7656,24.9625 C24.5938,24.7125 24.3125,24.5562 23.9844,24.5562 C23.6719,24.5562 23.4688,24.6656 23.25,24.9312 C22.0781,24.4312 21.6406,24.3218 20.6875,24.3218 C18.0156,24.3218 16,26.3375 16,28.9625 L16,30.0562 Z "/><text fill="#000000" font-family="sans-serif" font-size="14" font-weight="bold" lengthAdjust="spacingAndGlyphs" textLength="68" x="58" y="27.5059">Controller</text><text fill="#000000" font-family="sans-serif" font-size="10" lengthAdjust="spacingAndGlyphs" textLength="114" x="35" y="40.5899">it.matlice.ingsw.controller</text></a><!--class it.matlice.ingsw.model.Model--><a target="_parent" xlink:actuate="onRequest" xlink:href="../../../../../it/matlice/ingsw/model/Model.html" xlink:show="new" xlink:title="it.matlice.ingsw.model.Model" xlink:type="simple"><rect fill="#FFFFFF" filter="url(#f4gbakz)" height="38.7999" style="stroke: #A80036; stroke-width: 1.5;" width="132" x="187" y="9.5"/><rect fill="#FFFFFF" height="38.7999" style="stroke: #A80036; stroke-width: 1.5;" width="132" x="187" y="9.5"/><ellipse cx="202" cy="28.9" fill="#ADD1B2" rx="11" ry="11" style="stroke: #A80036; stroke-width: 1.0;"/><path d="M197,30.0562 C197,32.5562 199.1406,34.3687 202.0625,34.3687 C203.2969,34.3687 204.4688,34.0718 205.2188,33.5562 C205.8281,33.1343 206.1563,32.7125 206.1563,32.3062 C206.1563,31.8375 205.7344,31.4312 205.2344,31.4312 C205,31.4312 204.7813,31.5093 204.5781,31.7125 C204.1406,32.15 204.1406,32.15 203.9688,32.2437 C203.5156,32.4781 202.875,32.6187 202.1094,32.6187 C200.1094,32.6187 198.8281,31.6031 198.8281,30.025 L198.8281,28.9781 C198.8281,27.275 200.0469,26.0718 201.75,26.0718 C202.3281,26.0718 202.9063,26.2125 203.375,26.4625 C203.8438,26.7281 204.0156,26.9156 204.0781,27.275 C204.2031,27.9468 204.4531,28.1968 204.9844,28.1968 C205.2656,28.1968 205.5469,28.0562 205.7344,27.8375 C205.8594,27.6656 205.9063,27.4937 205.9063,27.0562 L205.9063,25.6968 C205.9063,25.275 205.8906,25.1343 205.7656,24.9625 C205.5938,24.7125 205.3125,24.5562 204.9844,24.5562 C204.6719,24.5562 204.4688,24.6656 204.25,24.9312 C203.0781,24.4312 202.6406,24.3218 201.6875,24.3218 C199.0156,24.3218 197,26.3375 197,28.9625 L197,30.0562 Z "/><text fill="#000000" font-family="sans-serif" font-size="14" font-weight="bold" lengthAdjust="spacingAndGlyphs" textLength="42" x="245" y="27.5059">Model</text><text fill="#000000" font-family="sans-serif" font-size="10" lengthAdjust="spacingAndGlyphs" textLength="100" x="216" y="40.5899">it.matlice.ingsw.model</text></a><!--class it.matlice.ingsw.model.data.User--><a target="_parent" xlink:actuate="onRequest" xlink:href="../../../../../it/matlice/ingsw/model/data/User.html" xlink:show="new" xlink:title="it.matlice.ingsw.model.data.User" xlink:type="simple"><rect fill="#FEFECE" filter="url(#f4gbakz)" height="38.7999" style="stroke: #A80036; stroke-width: 1.5;" width="156" x="725" y="340"/><ellipse cx="740" cy="359.4" fill="#ADD1B2" rx="11" ry="11" style="stroke: #A80036; stroke-width: 1.0;"/><path d="M735,360.5562 C735,363.0562 737.1406,364.8687 740.0625,364.8687 C741.2969,364.8687 742.4688,364.5718 743.2188,364.0562 C743.8281,363.6343 744.1563,363.2125 744.1563,362.8062 C744.1563,362.3375 743.7344,361.9312 743.2344,361.9312 C743,361.9312 742.7813,362.0093 742.5781,362.2125 C742.1406,362.65 742.1406,362.65 741.9688,362.7437 C741.5156,362.9781 740.875,363.1187 740.1094,363.1187 C738.1094,363.1187 736.8281,362.1031 736.8281,360.525 L736.8281,359.4781 C736.8281,357.775 738.0469,356.5718 739.75,356.5718 C740.3281,356.5718 740.9063,356.7125 741.375,356.9625 C741.8438,357.2281 742.0156,357.4156 742.0781,357.775 C742.2031,358.4468 742.4531,358.6968 742.9844,358.6968 C743.2656,358.6968 743.5469,358.5562 743.7344,358.3375 C743.8594,358.1656 743.9063,357.9937 743.9063,357.5562 L743.9063,356.1968 C743.9063,355.775 743.8906,355.6343 743.7656,355.4625 C743.5938,355.2125 743.3125,355.0562 742.9844,355.0562 C742.6719,355.0562 742.4688,355.1656 742.25,355.4312 C741.0781,354.9312 740.6406,354.8218 739.6875,354.8218 C737.0156,354.8218 735,356.8375 735,359.4625 L735,360.5562 Z "/><text fill="#000000" font-family="sans-serif" font-size="14" font-weight="bold" lengthAdjust="spacingAndGlyphs" textLength="31" x="800.5" y="358.0059">User</text><text fill="#000000" font-family="sans-serif" font-size="10" lengthAdjust="spacingAndGlyphs" textLength="124" x="754" y="371.0899">it.matlice.ingsw.model.data</text></a><!--class it.matlice.ingsw.model.data.Offer.OfferStatus--><a target="_parent" xlink:actuate="onRequest" xlink:href="../../../../../it/matlice/ingsw/model/data/Offer.OfferStatus.html" xlink:show="new" xlink:title="it.matlice.ingsw.model.data.Offer.OfferStatus" xlink:type="simple"><rect fill="#FEFECE" filter="url(#f4gbakz)" height="38.7999" style="stroke: #A80036; stroke-width: 1.5;" width="156" x="916" y="340"/><ellipse cx="931" cy="359.4" fill="#EB937F" rx="11" ry="11" style="stroke: #A80036; stroke-width: 1.0;"/><path d="M929.8594,360.4625 L931.1719,360.4625 L931.1719,360.5093 C931.1719,360.9156 931.1875,361.0718 931.2969,361.2281 C931.4688,361.4781 931.7656,361.65 932.0781,361.65 C932.3594,361.65 932.6563,361.5093 932.8281,361.2906 C932.9531,361.1031 933,360.9625 933,360.5093 L933,358.6656 C933,358.3375 932.9844,358.2281 932.9219,358.0562 C932.8125,357.7593 932.4531,357.5093 932.0781,357.5093 C931.7813,357.5093 931.5156,357.65 931.3438,357.8687 C931.2031,358.0562 931.1719,358.2281 931.1719,358.6656 L931.1719,358.7281 L929.8594,358.7281 L929.8594,356.5562 L933.7031,356.5562 L933.7031,357.3062 C933.7031,357.6968 933.7344,357.8843 933.8438,358.0406 C934.0156,358.2906 934.3125,358.4625 934.625,358.4625 C934.9219,358.4625 935.1875,358.3375 935.375,358.1031 C935.5156,357.9156 935.5469,357.775 935.5469,357.3062 L935.5469,354.8062 L927.8438,354.8062 C927.3906,354.8062 927.2656,354.8218 927.0938,354.9312 C926.8281,355.1031 926.6563,355.3687 926.6563,355.6812 C926.6563,355.9625 926.7813,356.2281 927.0313,356.4 C927.2188,356.525 927.4063,356.5562 927.8438,356.5562 L928.0313,356.5562 L928.0313,362.65 L927.8438,362.65 C927.4219,362.65 927.2656,362.6812 927.0938,362.775 C926.8281,362.9312 926.6563,363.2125 926.6563,363.5093 C926.6563,364.0875 927.0625,364.4 927.8438,364.4 L935.9219,364.4 L935.9219,361.8687 C935.9219,361.4625 935.8906,361.2906 935.7813,361.1343 C935.6094,360.8687 935.3281,360.7125 935,360.7125 C934.7188,360.7125 934.4375,360.8531 934.25,361.0718 C934.1094,361.2593 934.0781,361.4156 934.0781,361.8687 L934.0781,362.65 L929.8594,362.65 L929.8594,360.4625 Z "/><text fill="#000000" font-family="sans-serif" font-size="14" font-weight="bold" lengthAdjust="spacingAndGlyphs" textLength="116" x="949" y="358.0059">Offer.OfferStatus</text><text fill="#000000" font-family="sans-serif" font-size="10" lengthAdjust="spacingAndGlyphs" textLength="124" x="945" y="371.0899">it.matlice.ingsw.model.data</text></a><!--class it.matlice.ingsw.model.data.LeafCategory--><a target="_parent" xlink:actuate="onRequest" xlink:href="../../../../../it/matlice/ingsw/model/data/LeafCategory.html" xlink:show="new" xlink:title="it.matlice.ingsw.model.data.LeafCategory" xlink:type="simple"><rect fill="#FEFECE" filter="url(#f4gbakz)" height="38.7999" style="stroke: #A80036; stroke-width: 1.5;" width="156" x="1107" y="340"/><ellipse cx="1122" cy="359.4" fill="#ADD1B2" rx="11" ry="11" style="stroke: #A80036; stroke-width: 1.0;"/><path d="M1117,360.5562 C1117,363.0562 1119.1406,364.8687 1122.0625,364.8687 C1123.2969,364.8687 1124.4688,364.5718 1125.2188,364.0562 C1125.8281,363.6343 1126.1563,363.2125 1126.1563,362.8062 C1126.1563,362.3375 1125.7344,361.9312 1125.2344,361.9312 C1125,361.9312 1124.7813,362.0093 1124.5781,362.2125 C1124.1406,362.65 1124.1406,362.65 1123.9688,362.7437 C1123.5156,362.9781 1122.875,363.1187 1122.1094,363.1187 C1120.1094,363.1187 1118.8281,362.1031 1118.8281,360.525 L1118.8281,359.4781 C1118.8281,357.775 1120.0469,356.5718 1121.75,356.5718 C1122.3281,356.5718 1122.9063,356.7125 1123.375,356.9625 C1123.8438,357.2281 1124.0156,357.4156 1124.0781,357.775 C1124.2031,358.4468 1124.4531,358.6968 1124.9844,358.6968 C1125.2656,358.6968 1125.5469,358.5562 1125.7344,358.3375 C1125.8594,358.1656 1125.9063,357.9937 1125.9063,357.5562 L1125.9063,356.1968 C1125.9063,355.775 1125.8906,355.6343 1125.7656,355.4625 C1125.5938,355.2125 1125.3125,355.0562 1124.9844,355.0562 C1124.6719,355.0562 1124.4688,355.1656 1124.25,355.4312 C1123.0781,354.9312 1122.6406,354.8218 1121.6875,354.8218 C1119.0156,354.8218 1117,356.8375 1117,359.4625 L1117,360.5562 Z "/><text fill="#000000" font-family="sans-serif" font-size="14" font-weight="bold" lengthAdjust="spacingAndGlyphs" textLength="92" x="1152" y="358.0059">LeafCategory</text><text fill="#000000" font-family="sans-serif" font-size="10" lengthAdjust="spacingAndGlyphs" textLength="124" x="1136" y="371.0899">it.matlice.ingsw.model.data</text></a><!--class it.matlice.ingsw.model.data.Message--><a target="_parent" xlink:actuate="onRequest" xlink:href="../../../../../it/matlice/ingsw/model/data/Message.html" xlink:show="new" xlink:title="it.matlice.ingsw.model.data.Message" xlink:type="simple"><rect fill="#FEFECE" filter="url(#f4gbakz)" height="38.7999" style="stroke: #A80036; stroke-width: 1.5;" width="156" x="354" y="9.5"/><ellipse cx="369" cy="28.9" fill="#ADD1B2" rx="11" ry="11" style="stroke: #A80036; stroke-width: 1.0;"/><path d="M364,30.0562 C364,32.5562 366.1406,34.3687 369.0625,34.3687 C370.2969,34.3687 371.4688,34.0718 372.2188,33.5562 C372.8281,33.1343 373.1563,32.7125 373.1563,32.3062 C373.1563,31.8375 372.7344,31.4312 372.2344,31.4312 C372,31.4312 371.7813,31.5093 371.5781,31.7125 C371.1406,32.15 371.1406,32.15 370.9688,32.2437 C370.5156,32.4781 369.875,32.6187 369.1094,32.6187 C367.1094,32.6187 365.8281,31.6031 365.8281,30.025 L365.8281,28.9781 C365.8281,27.275 367.0469,26.0718 368.75,26.0718 C369.3281,26.0718 369.9063,26.2125 370.375,26.4625 C370.8438,26.7281 371.0156,26.9156 371.0781,27.275 C371.2031,27.9468 371.4531,28.1968 371.9844,28.1968 C372.2656,28.1968 372.5469,28.0562 372.7344,27.8375 C372.8594,27.6656 372.9063,27.4937 372.9063,27.0562 L372.9063,25.6968 C372.9063,25.275 372.8906,25.1343 372.7656,24.9625 C372.5938,24.7125 372.3125,24.5562 371.9844,24.5562 C371.6719,24.5562 371.4688,24.6656 371.25,24.9312 C370.0781,24.4312 369.6406,24.3218 368.6875,24.3218 C366.0156,24.3218 364,26.3375 364,28.9625 L364,30.0562 Z "/><text fill="#000000" font-family="sans-serif" font-size="14" font-weight="bold" lengthAdjust="spacingAndGlyphs" textLength="61" x="414.5" y="27.5059">Message</text><text fill="#000000" font-family="sans-serif" font-size="10" lengthAdjust="spacingAndGlyphs" textLength="124" x="383" y="40.5899">it.matlice.ingsw.model.data</text></a><!--class it.matlice.ingsw.model.data.factories.OfferFactory--><a target="_parent" xlink:actuate="onRequest" xlink:href="../../../../../it/matlice/ingsw/model/data/factories/OfferFactory.html" xlink:show="new" xlink:title="it.matlice.ingsw.model.data.factories.OfferFactory" xlink:type="simple"><rect fill="#FFFFFF" filter="url(#f4gbakz)" height="42.3999" style="stroke: #A80036; stroke-width: 1.5;" width="198" x="545" y="8"/><rect fill="#FFFFFF" height="42.3999" style="stroke: #A80036; stroke-width: 1.5;" width="198" x="545" y="8"/><ellipse cx="560" cy="29.2" fill="#B4A7E5" rx="11" ry="11" style="stroke: #A80036; stroke-width: 1.0;"/><path d="M561.0156,26.3562 L562.6719,26.3562 C563.0625,26.3562 563.2656,26.325 563.4219,26.2468 C563.6875,26.075 563.8594,25.7781 563.8594,25.4812 C563.8594,25.2 563.7188,24.95 563.4844,24.7781 C563.2969,24.6531 563.1406,24.6062 562.6719,24.6062 L557.5313,24.6062 C557.0938,24.6062 556.9531,24.6218 556.7813,24.7312 C556.5156,24.9031 556.3438,25.1843 556.3438,25.4812 C556.3438,25.7625 556.4844,26.0437 556.7188,26.2 C556.9063,26.325 557.0938,26.3562 557.5313,26.3562 L559.1875,26.3562 L559.1875,32.45 L557.5313,32.45 C557.0938,32.45 556.9531,32.4656 556.7813,32.575 C556.5156,32.7312 556.3438,33.0281 556.3438,33.3093 C556.3438,33.9187 556.75,34.2 557.5313,34.2 L562.6719,34.2 C563.4531,34.2 563.8594,33.9187 563.8594,33.3093 C563.8594,33.0437 563.7188,32.7937 563.4844,32.6218 C563.2969,32.4812 563.125,32.45 562.6719,32.45 L561.0156,32.45 L561.0156,26.3562 Z "/><text fill="#000000" font-family="sans-serif" font-size="14" font-style="italic" font-weight="bold" lengthAdjust="spacingAndGlyphs" textLength="86" x="614" y="28.3999">OfferFactory</text><text fill="#000000" font-family="sans-serif" font-size="10" font-style="italic" lengthAdjust="spacingAndGlyphs" textLength="166" x="574" y="42.8999">it.matlice.ingsw.model.data.factories</text></a><!--class it.matlice.ingsw.model.data.factories.MessageFactory--><a target="_parent" xlink:actuate="onRequest" xlink:href="../../../../../it/matlice/ingsw/model/data/factories/MessageFactory.html" xlink:show="new" xlink:title="it.matlice.ingsw.model.data.factories.MessageFactory" xlink:type="simple"><rect fill="#FFFFFF" filter="url(#f4gbakz)" height="42.3999" style="stroke: #A80036; stroke-width: 1.5;" width="198" x="778" y="8"/><rect fill="#FFFFFF" height="42.3999" style="stroke: #A80036; stroke-width: 1.5;" width="198" x="778" y="8"/><ellipse cx="793" cy="29.2" fill="#B4A7E5" rx="11" ry="11" style="stroke: #A80036; stroke-width: 1.0;"/><path d="M794.0156,26.3562 L795.6719,26.3562 C796.0625,26.3562 796.2656,26.325 796.4219,26.2468 C796.6875,26.075 796.8594,25.7781 796.8594,25.4812 C796.8594,25.2 796.7188,24.95 796.4844,24.7781 C796.2969,24.6531 796.1406,24.6062 795.6719,24.6062 L790.5313,24.6062 C790.0938,24.6062 789.9531,24.6218 789.7813,24.7312 C789.5156,24.9031 789.3438,25.1843 789.3438,25.4812 C789.3438,25.7625 789.4844,26.0437 789.7188,26.2 C789.9063,26.325 790.0938,26.3562 790.5313,26.3562 L792.1875,26.3562 L792.1875,32.45 L790.5313,32.45 C790.0938,32.45 789.9531,32.4656 789.7813,32.575 C789.5156,32.7312 789.3438,33.0281 789.3438,33.3093 C789.3438,33.9187 789.75,34.2 790.5313,34.2 L795.6719,34.2 C796.4531,34.2 796.8594,33.9187 796.8594,33.3093 C796.8594,33.0437 796.7188,32.7937 796.4844,32.6218 C796.2969,32.4812 796.125,32.45 795.6719,32.45 L794.0156,32.45 L794.0156,26.3562 Z "/><text fill="#000000" font-family="sans-serif" font-size="14" font-style="italic" font-weight="bold" lengthAdjust="spacingAndGlyphs" textLength="113" x="833.5" y="28.3999">MessageFactory</text><text fill="#000000" font-family="sans-serif" font-size="10" font-style="italic" lengthAdjust="spacingAndGlyphs" textLength="166" x="807" y="42.8999">it.matlice.ingsw.model.data.factories</text></a><!--class it.matlice.ingsw.model.data.impl.jdbc.OfferFactoryImpl--><a target="_parent" xlink:actuate="onRequest" xlink:href="../../../../../it/matlice/ingsw/model/data/impl/jdbc/OfferFactoryImpl.html" xlink:show="new" xlink:title="it.matlice.ingsw.model.data.impl.jdbc.OfferFactoryImpl" xlink:type="simple"><rect fill="#FFFFFF" filter="url(#f4gbakz)" height="38.7999" style="stroke: #A80036; stroke-width: 1.5;" width="199" x="1011.5" y="9.5"/><rect fill="#FFFFFF" height="38.7999" style="stroke: #A80036; stroke-width: 1.5;" width="199" x="1011.5" y="9.5"/><ellipse cx="1026.5" cy="28.9" fill="#ADD1B2" rx="11" ry="11" style="stroke: #A80036; stroke-width: 1.0;"/><path d="M1021.5,30.0562 C1021.5,32.5562 1023.6406,34.3687 1026.5625,34.3687 C1027.7969,34.3687 1028.9688,34.0718 1029.7188,33.5562 C1030.3281,33.1343 1030.6563,32.7125 1030.6563,32.3062 C1030.6563,31.8375 1030.2344,31.4312 1029.7344,31.4312 C1029.5,31.4312 1029.2813,31.5093 1029.0781,31.7125 C1028.6406,32.15 1028.6406,32.15 1028.4688,32.2437 C1028.0156,32.4781 1027.375,32.6187 1026.6094,32.6187 C1024.6094,32.6187 1023.3281,31.6031 1023.3281,30.025 L1023.3281,28.9781 C1023.3281,27.275 1024.5469,26.0718 1026.25,26.0718 C1026.8281,26.0718 1027.4063,26.2125 1027.875,26.4625 C1028.3438,26.7281 1028.5156,26.9156 1028.5781,27.275 C1028.7031,27.9468 1028.9531,28.1968 1029.4844,28.1968 C1029.7656,28.1968 1030.0469,28.0562 1030.2344,27.8375 C1030.3594,27.6656 1030.4063,27.4937 1030.4063,27.0562 L1030.4063,25.6968 C1030.4063,25.275 1030.3906,25.1343 1030.2656,24.9625 C1030.0938,24.7125 1029.8125,24.5562 1029.4844,24.5562 C1029.1719,24.5562 1028.9688,24.6656 1028.75,24.9312 C1027.5781,24.4312 1027.1406,24.3218 1026.1875,24.3218 C1023.5156,24.3218 1021.5,26.3375 1021.5,28.9625 L1021.5,30.0562 Z "/><text fill="#000000" font-family="sans-serif" font-size="14" font-weight="bold" lengthAdjust="spacingAndGlyphs" textLength="115" x="1066.5" y="27.5059">OfferFactoryImpl</text><text fill="#000000" font-family="sans-serif" font-size="10" lengthAdjust="spacingAndGlyphs" textLength="167" x="1040.5" y="40.5899">it.matlice.ingsw.model.data.impl.jdbc</text></a><!--class it.matlice.ingsw.model.data.impl.jdbc.MessageFactoryImpl--><a target="_parent" xlink:actuate="onRequest" xlink:href="../../../../../it/matlice/ingsw/model/data/impl/jdbc/MessageFactoryImpl.html" xlink:show="new" xlink:title="it.matlice.ingsw.model.data.impl.jdbc.MessageFactoryImpl" xlink:type="simple"><rect fill="#FFFFFF" filter="url(#f4gbakz)" height="38.7999" style="stroke: #A80036; stroke-width: 1.5;" width="199" x="1245.5" y="9.5"/><rect fill="#FFFFFF" height="38.7999" style="stroke: #A80036; stroke-width: 1.5;" width="199" x="1245.5" y="9.5"/><ellipse cx="1260.5" cy="28.9" fill="#ADD1B2" rx="11" ry="11" style="stroke: #A80036; stroke-width: 1.0;"/><path d="M1255.5,30.0562 C1255.5,32.5562 1257.6406,34.3687 1260.5625,34.3687 C1261.7969,34.3687 1262.9688,34.0718 1263.7188,33.5562 C1264.3281,33.1343 1264.6563,32.7125 1264.6563,32.3062 C1264.6563,31.8375 1264.2344,31.4312 1263.7344,31.4312 C1263.5,31.4312 1263.2813,31.5093 1263.0781,31.7125 C1262.6406,32.15 1262.6406,32.15 1262.4688,32.2437 C1262.0156,32.4781 1261.375,32.6187 1260.6094,32.6187 C1258.6094,32.6187 1257.3281,31.6031 1257.3281,30.025 L1257.3281,28.9781 C1257.3281,27.275 1258.5469,26.0718 1260.25,26.0718 C1260.8281,26.0718 1261.4063,26.2125 1261.875,26.4625 C1262.3438,26.7281 1262.5156,26.9156 1262.5781,27.275 C1262.7031,27.9468 1262.9531,28.1968 1263.4844,28.1968 C1263.7656,28.1968 1264.0469,28.0562 1264.2344,27.8375 C1264.3594,27.6656 1264.4063,27.4937 1264.4063,27.0562 L1264.4063,25.6968 C1264.4063,25.275 1264.3906,25.1343 1264.2656,24.9625 C1264.0938,24.7125 1263.8125,24.5562 1263.4844,24.5562 C1263.1719,24.5562 1262.9688,24.6656 1262.75,24.9312 C1261.5781,24.4312 1261.1406,24.3218 1260.1875,24.3218 C1257.5156,24.3218 1255.5,26.3375 1255.5,28.9625 L1255.5,30.0562 Z "/><text fill="#000000" font-family="sans-serif" font-size="14" font-weight="bold" lengthAdjust="spacingAndGlyphs" textLength="142" x="1287" y="27.5059">MessageFactoryImpl</text><text fill="#000000" font-family="sans-serif" font-size="10" lengthAdjust="spacingAndGlyphs" textLength="167" x="1274.5" y="40.5899">it.matlice.ingsw.model.data.impl.jdbc</text></a><!--class it.matlice.ingsw.model.data.impl.jdbc.types.OfferImpl--><a target="_parent" xlink:actuate="onRequest" xlink:href="../../../../../it/matlice/ingsw/model/data/impl/jdbc/types/OfferImpl.html" xlink:show="new" xlink:title="it.matlice.ingsw.model.data.impl.jdbc.types.OfferImpl" xlink:type="simple"><rect fill="#FFFFFF" filter="url(#f4gbakz)" height="38.7999" style="stroke: #A80036; stroke-width: 1.5;" width="227" x="1479.5" y="9.5"/><rect fill="#FFFFFF" height="38.7999" style="stroke: #A80036; stroke-width: 1.5;" width="227" x="1479.5" y="9.5"/><ellipse cx="1494.5" cy="28.9" fill="#ADD1B2" rx="11" ry="11" style="stroke: #A80036; stroke-width: 1.0;"/><path d="M1489.5,30.0562 C1489.5,32.5562 1491.6406,34.3687 1494.5625,34.3687 C1495.7969,34.3687 1496.9688,34.0718 1497.7188,33.5562 C1498.3281,33.1343 1498.6563,32.7125 1498.6563,32.3062 C1498.6563,31.8375 1498.2344,31.4312 1497.7344,31.4312 C1497.5,31.4312 1497.2813,31.5093 1497.0781,31.7125 C1496.6406,32.15 1496.6406,32.15 1496.4688,32.2437 C1496.0156,32.4781 1495.375,32.6187 1494.6094,32.6187 C1492.6094,32.6187 1491.3281,31.6031 1491.3281,30.025 L1491.3281,28.9781 C1491.3281,27.275 1492.5469,26.0718 1494.25,26.0718 C1494.8281,26.0718 1495.4063,26.2125 1495.875,26.4625 C1496.3438,26.7281 1496.5156,26.9156 1496.5781,27.275 C1496.7031,27.9468 1496.9531,28.1968 1497.4844,28.1968 C1497.7656,28.1968 1498.0469,28.0562 1498.2344,27.8375 C1498.3594,27.6656 1498.4063,27.4937 1498.4063,27.0562 L1498.4063,25.6968 C1498.4063,25.275 1498.3906,25.1343 1498.2656,24.9625 C1498.0938,24.7125 1497.8125,24.5562 1497.4844,24.5562 C1497.1719,24.5562 1496.9688,24.6656 1496.75,24.9312 C1495.5781,24.4312 1495.1406,24.3218 1494.1875,24.3218 C1491.5156,24.3218 1489.5,26.3375 1489.5,28.9625 L1489.5,30.0562 Z "/><text fill="#000000" font-family="sans-serif" font-size="14" font-weight="bold" lengthAdjust="spacingAndGlyphs" textLength="63" x="1574.5" y="27.5059">OfferImpl</text><text fill="#000000" font-family="sans-serif" font-size="10" lengthAdjust="spacingAndGlyphs" textLength="195" x="1508.5" y="40.5899">it.matlice.ingsw.model.data.impl.jdbc.types</text></a><!--class it.matlice.ingsw.model.data.impl.jdbc.types.MessageImpl--><a target="_parent" xlink:actuate="onRequest" xlink:href="../../../../../it/matlice/ingsw/model/data/impl/jdbc/types/MessageImpl.html" xlink:show="new" xlink:title="it.matlice.ingsw.model.data.impl.jdbc.types.MessageImpl" xlink:type="simple"><rect fill="#FFFFFF" filter="url(#f4gbakz)" height="38.7999" style="stroke: #A80036; stroke-width: 1.5;" width="227" x="1741.5" y="9.5"/><rect fill="#FFFFFF" height="38.7999" style="stroke: #A80036; stroke-width: 1.5;" width="227" x="1741.5" y="9.5"/><ellipse cx="1756.5" cy="28.9" fill="#ADD1B2" rx="11" ry="11" style="stroke: #A80036; stroke-width: 1.0;"/><path d="M1751.5,30.0562 C1751.5,32.5562 1753.6406,34.3687 1756.5625,34.3687 C1757.7969,34.3687 1758.9688,34.0718 1759.7188,33.5562 C1760.3281,33.1343 1760.6563,32.7125 1760.6563,32.3062 C1760.6563,31.8375 1760.2344,31.4312 1759.7344,31.4312 C1759.5,31.4312 1759.2813,31.5093 1759.0781,31.7125 C1758.6406,32.15 1758.6406,32.15 1758.4688,32.2437 C1758.0156,32.4781 1757.375,32.6187 1756.6094,32.6187 C1754.6094,32.6187 1753.3281,31.6031 1753.3281,30.025 L1753.3281,28.9781 C1753.3281,27.275 1754.5469,26.0718 1756.25,26.0718 C1756.8281,26.0718 1757.4063,26.2125 1757.875,26.4625 C1758.3438,26.7281 1758.5156,26.9156 1758.5781,27.275 C1758.7031,27.9468 1758.9531,28.1968 1759.4844,28.1968 C1759.7656,28.1968 1760.0469,28.0562 1760.2344,27.8375 C1760.3594,27.6656 1760.4063,27.4937 1760.4063,27.0562 L1760.4063,25.6968 C1760.4063,25.275 1760.3906,25.1343 1760.2656,24.9625 C1760.0938,24.7125 1759.8125,24.5562 1759.4844,24.5562 C1759.1719,24.5562 1758.9688,24.6656 1758.75,24.9312 C1757.5781,24.4312 1757.1406,24.3218 1756.1875,24.3218 C1753.5156,24.3218 1751.5,26.3375 1751.5,28.9625 L1751.5,30.0562 Z "/><text fill="#000000" font-family="sans-serif" font-size="14" font-weight="bold" lengthAdjust="spacingAndGlyphs" textLength="90" x="1823" y="27.5059">MessageImpl</text><text fill="#000000" font-family="sans-serif" font-size="10" lengthAdjust="spacingAndGlyphs" textLength="195" x="1770.5" y="40.5899">it.matlice.ingsw.model.data.impl.jdbc.types</text></a><path d="M79,48.77 C79,98.35 79,224 79,224 C79,224 905.37,224 905.37,224 " fill="none" style="stroke: #A80036; stroke-width: 1.0; stroke-dasharray: 7.0,7.0;"/><polygon fill="#A80036" points="910.37,224,901.37,220,905.37,224,901.37,228,910.37,224" style="stroke: #A80036; stroke-width: 1.0;"/><path d="M253,48.69 C253,92.67 253,195 253,195 C253,195 905.44,195 905.44,195 " fill="none" style="stroke: #A80036; stroke-width: 1.0; stroke-dasharray: 7.0,7.0;"/><polygon fill="#A80036" points="910.44,195,901.44,191,905.44,195,901.44,199,910.44,195" style="stroke: #A80036; stroke-width: 1.0;"/><path d="M910.3,252 C869.67,252 829.5,252 829.5,252 C829.5,252 829.5,334.78 829.5,334.78 " fill="none" style="stroke: #A80036; stroke-width: 1.0; stroke-dasharray: 7.0,7.0;"/><polygon fill="#A80036" points="829.5,339.78,833.5,330.78,829.5,334.78,825.5,330.78,829.5,339.78" style="stroke: #A80036; stroke-width: 1.0;"/><path d="M994,280.14 C994,280.14 994,334.87 994,334.87 " fill="none" style="stroke: #A80036; stroke-width: 1.0; stroke-dasharray: 7.0,7.0;"/><polygon fill="#A80036" points="994,339.87,998,330.87,994,334.87,990,330.87,994,339.87" style="stroke: #A80036; stroke-width: 1.0;"/><path d="M1077.82,252 C1118.52,252 1158.75,252 1158.75,252 C1158.75,252 1158.75,334.78 1158.75,334.78 " fill="none" style="stroke: #A80036; stroke-width: 1.0; stroke-dasharray: 7.0,7.0;"/><polygon fill="#A80036" points="1158.75,339.78,1162.75,330.78,1158.75,334.78,1154.75,330.78,1158.75,339.78" style="stroke: #A80036; stroke-width: 1.0;"/><path d="M432,48.77 C432,86.93 432,167 432,167 C432,167 905.47,167 905.47,167 " fill="none" style="stroke: #A80036; stroke-width: 1.0; stroke-dasharray: 7.0,7.0;"/><polygon fill="#A80036" points="910.47,167,901.47,163,905.47,167,901.47,171,910.47,167" style="stroke: #A80036; stroke-width: 1.0;"/><path d="M734,50.21 C734,82.17 734,139 734,139 C734,139 905.3,139 905.3,139 " fill="none" style="stroke: #A80036; stroke-width: 1.0; stroke-dasharray: 7.0,7.0;"/><polygon fill="#A80036" points="910.3,139,901.3,135,905.3,139,901.3,143,910.3,139" style="stroke: #A80036; stroke-width: 1.0;"/><path d="M943.25,50.02 C943.25,50.02 943.25,104.86 943.25,104.86 " fill="none" style="stroke: #A80036; stroke-width: 1.0; stroke-dasharray: 7.0,7.0;"/><polygon fill="#A80036" points="943.25,109.86,947.25,100.86,943.25,104.86,939.25,100.86,943.25,109.86" style="stroke: #A80036; stroke-width: 1.0;"/><path d="M1044.5,48.69 C1044.5,48.69 1044.5,104.73 1044.5,104.73 " fill="none" style="stroke: #A80036; stroke-width: 1.0; stroke-dasharray: 7.0,7.0;"/><polygon fill="#A80036" points="1044.5,109.73,1048.5,100.73,1044.5,104.73,1040.5,100.73,1044.5,109.73" style="stroke: #A80036; stroke-width: 1.0;"/><path d="M1254.25,48.67 C1254.25,80.31 1254.25,139 1254.25,139 C1254.25,139 1082.78,139 1082.78,139 " fill="none" style="stroke: #A80036; stroke-width: 1.0; stroke-dasharray: 7.0,7.0;"/><polygon fill="#A80036" points="1077.78,139,1086.78,143,1082.78,139,1086.78,135,1077.78,139" style="stroke: #A80036; stroke-width: 1.0;"/><path d="M1555.17,48.77 C1555.17,86.93 1555.17,167 1555.17,167 C1555.17,167 1082.71,167 1082.71,167 " fill="none" style="stroke: #A80036; stroke-width: 1.0;"/><polygon fill="#A80036" points="1077.71,167,1086.71,171,1082.71,167,1086.71,163,1077.71,167" style="stroke: #A80036; stroke-width: 1.0;"/><text fill="#000000" font-family="sans-serif" font-size="13" lengthAdjust="spacingAndGlyphs" textLength="67" x="1085.585" y="161.702">linked_offer</text><path d="M1630.83,48.69 C1630.83,92.67 1630.83,195 1630.83,195 C1630.83,195 1097.58,195 1097.58,195 " fill="none" style="stroke: #A80036; stroke-width: 1.0;"/><polygon fill="none" points="1097.58,202,1077.58,195,1097.58,188,1097.58,202" style="stroke: #A80036; stroke-width: 1.0;"/><path d="M1855,48.77 C1855,98.35 1855,224 1855,224 C1855,224 1082.73,224 1082.73,224 " fill="none" style="stroke: #A80036; stroke-width: 1.0;"/><polygon fill="#A80036" points="1077.73,224,1086.73,228,1082.73,224,1086.73,220,1077.73,224" style="stroke: #A80036; stroke-width: 1.0;"/><text fill="#000000" font-family="sans-serif" font-size="13" lengthAdjust="spacingAndGlyphs" textLength="94" x="1085.6964" y="222.3963">referenced_offer</text></g></svg>