<?xml version="1.0" encoding="UTF-8" standalone="no"?><svg xmlns="http://www.w3.org/2000/svg" xmlns:xlink="http://www.w3.org/1999/xlink" contentScriptType="application/ecmascript" contentStyleType="text/css" height="252px" preserveAspectRatio="none" style="width:1150px;height:252px;" version="1.1" viewBox="0 0 1150 252" width="1150px" zoomAndPan="magnify"><defs><filter height="300%" id="fpyuqau" width="300%" x="-1" y="-1"><feGaussianBlur result="blurOut" stdDeviation="2.0"/><feColorMatrix in="blurOut" result="blurOut2" type="matrix" values="0 0 0 0 0 0 0 0 0 0 0 0 0 0 0 0 0 0 .4 0"/><feOffset dx="4.0" dy="4.0" in="blurOut2" result="blurOut3"/><feBlend in="SourceGraphic" in2="blurOut3" mode="normal"/></filter></defs><g><!--class it.matlice.ingsw.model.data.Offer.OfferStatus--><a target="_parent" xlink:actuate="onRequest" xlink:href="../../../../../it/matlice/ingsw/model/data/Offer.OfferStatus.html" xlink:show="new" xlink:title="it.matlice.ingsw.model.data.Offer.OfferStatus" xlink:type="simple"><rect fill="#FEFECE" filter="url(#fpyuqau)" height="120.7994" style="stroke: #A80036; stroke-width: 1.5;" width="217" x="421.5" y="123"/><ellipse cx="463.95" cy="142.4" fill="#EB937F" rx="11" ry="11" style="stroke: #A80036; stroke-width: 1.0;"/><path d="M462.8094,143.4625 L464.1219,143.4625 L464.1219,143.5093 C464.1219,143.9156 464.1375,144.0718 464.2469,144.2281 C464.4188,144.4781 464.7156,144.65 465.0281,144.65 C465.3094,144.65 465.6063,144.5093 465.7781,144.2906 C465.9031,144.1031 465.95,143.9625 465.95,143.5093 L465.95,141.6656 C465.95,141.3375 465.9344,141.2281 465.8719,141.0562 C465.7625,140.7593 465.4031,140.5093 465.0281,140.5093 C464.7313,140.5093 464.4656,140.65 464.2938,140.8687 C464.1531,141.0562 464.1219,141.2281 464.1219,141.6656 L464.1219,141.7281 L462.8094,141.7281 L462.8094,139.5562 L466.6531,139.5562 L466.6531,140.3062 C466.6531,140.6968 466.6844,140.8843 466.7938,141.0406 C466.9656,141.2906 467.2625,141.4625 467.575,141.4625 C467.8719,141.4625 468.1375,141.3375 468.325,141.1031 C468.4656,140.9156 468.4969,140.775 468.4969,140.3062 L468.4969,137.8062 L460.7938,137.8062 C460.3406,137.8062 460.2156,137.8218 460.0438,137.9312 C459.7781,138.1031 459.6063,138.3687 459.6063,138.6812 C459.6063,138.9625 459.7313,139.2281 459.9813,139.4 C460.1688,139.525 460.3563,139.5562 460.7938,139.5562 L460.9813,139.5562 L460.9813,145.65 L460.7938,145.65 C460.3719,145.65 460.2156,145.6812 460.0438,145.775 C459.7781,145.9312 459.6063,146.2125 459.6063,146.5093 C459.6063,147.0875 460.0125,147.4 460.7938,147.4 L468.8719,147.4 L468.8719,144.8687 C468.8719,144.4625 468.8406,144.2906 468.7313,144.1343 C468.5594,143.8687 468.2781,143.7125 467.95,143.7125 C467.6688,143.7125 467.3875,143.8531 467.2,144.0718 C467.0594,144.2593 467.0281,144.4156 467.0281,144.8687 L467.0281,145.65 L462.8094,145.65 L462.8094,143.4625 Z "/><text fill="#000000" font-family="sans-serif" font-size="14" font-weight="bold" lengthAdjust="spacingAndGlyphs" textLength="116" x="488.05" y="141.0059">Offer.OfferStatus</text><text fill="#000000" font-family="sans-serif" font-size="10" lengthAdjust="spacingAndGlyphs" textLength="124" x="484.05" y="154.0899">it.matlice.ingsw.model.data</text><line style="stroke: #A80036; stroke-width: 1.5;" x1="422.5" x2="637.5" y1="161.7999" y2="161.7999"/><ellipse cx="432.5" cy="173.8999" fill="none" rx="3" ry="3" style="stroke: #038048; stroke-width: 1.0;"/><text fill="#000000" font-family="sans-serif" font-size="11" lengthAdjust="spacingAndGlyphs" textLength="58" x="441.5" y="176.0188">String name</text><line style="stroke: #A80036; stroke-width: 1.5;" x1="422.5" x2="637.5" y1="182.9998" y2="182.9998"/><rect fill="#F24D5C" height="6" style="stroke: #C82930; stroke-width: 1.0;" width="6" x="429.5" y="192.0998"/><text fill="#000000" font-family="sans-serif" font-size="11" lengthAdjust="spacingAndGlyphs" textLength="122" x="441.5" y="197.2187">OfferStatus(String name)</text><ellipse cx="432.5" cy="208.2997" fill="#84BE84" rx="3" ry="3" style="stroke: #038048; stroke-width: 1.0;"/><text fill="#000000" font-family="sans-serif" font-size="11" lengthAdjust="spacingAndGlyphs" text-decoration="underline" textLength="127" x="441.5" y="210.4186">Offer.OfferStatus values()</text><line style="stroke: #000000; stroke-width: 1.0;" x1="441.5" x2="568.5" y1="212.4186" y2="212.4186"/><ellipse cx="432.5" cy="221.4996" fill="#84BE84" rx="3" ry="3" style="stroke: #038048; stroke-width: 1.0;"/><text fill="#000000" font-family="sans-serif" font-size="11" lengthAdjust="spacingAndGlyphs" text-decoration="underline" textLength="191" x="441.5" y="223.6185">Offer.OfferStatus valueOf(String name)</text><line style="stroke: #000000; stroke-width: 1.0;" x1="441.5" x2="632.5" y1="225.6185" y2="225.6185"/><ellipse cx="432.5" cy="234.6995" fill="#84BE84" rx="3" ry="3" style="stroke: #038048; stroke-width: 1.0;"/><text fill="#000000" font-family="sans-serif" font-size="11" lengthAdjust="spacingAndGlyphs" textLength="83" x="441.5" y="236.8184">String getName()</text></a><!--class it.matlice.ingsw.model.data.Offer--><a target="_parent" xlink:actuate="onRequest" xlink:href="../../../../../it/matlice/ingsw/model/data/Offer.html" xlink:show="new" xlink:title="it.matlice.ingsw.model.data.Offer" xlink:type="simple"><rect fill="#FEFECE" filter="url(#fpyuqau)" height="38.7999" style="stroke: #A80036; stroke-width: 1.5;" width="156" x="6" y="16"/><ellipse cx="21" cy="35.4" fill="#ADD1B2" rx="11" ry="11" style="stroke: #A80036; stroke-width: 1.0;"/><path d="M16,36.5562 C16,39.0562 18.1406,40.8687 21.0625,40.8687 C22.2969,40.8687 23.4688,40.5718 24.2188,40.0562 C24.8281,39.6343 25.1563,39.2125 25.1563,38.8062 C25.1563,38.3375 24.7344,37.9312 24.2344,37.9312 C24,37.9312 23.7813,38.0093 23.5781,38.2125 C23.1406,38.65 23.1406,38.65 22.9688,38.7437 C22.5156,38.9781 21.875,39.1187 21.1094,39.1187 C19.1094,39.1187 17.8281,38.1031 17.8281,36.525 L17.8281,35.4781 C17.8281,33.775 19.0469,32.5718 20.75,32.5718 C21.3281,32.5718 21.9063,32.7125 22.375,32.9625 C22.8438,33.2281 23.0156,33.4156 23.0781,33.775 C23.2031,34.4468 23.4531,34.6968 23.9844,34.6968 C24.2656,34.6968 24.5469,34.5562 24.7344,34.3375 C24.8594,34.1656 24.9063,33.9937 24.9063,33.5562 L24.9063,32.1968 C24.9063,31.775 24.8906,31.6343 24.7656,31.4625 C24.5938,31.2125 24.3125,31.0562 23.9844,31.0562 C23.6719,31.0562 23.4688,31.1656 23.25,31.4312 C22.0781,30.9312 21.6406,30.8218 20.6875,30.8218 C18.0156,30.8218 16,32.8375 16,35.4625 L16,36.5562 Z "/><text fill="#000000" font-family="sans-serif" font-size="14" font-weight="bold" lengthAdjust="spacingAndGlyphs" textLength="34" x="80" y="34.0059">Offer</text><text fill="#000000" font-family="sans-serif" font-size="10" lengthAdjust="spacingAndGlyphs" textLength="124" x="35" y="47.0899">it.matlice.ingsw.model.data</text></a><!--class it.matlice.ingsw.model.data.factories.OfferFactory--><a target="_parent" xlink:actuate="onRequest" xlink:href="../../../../../it/matlice/ingsw/model/data/factories/OfferFactory.html" xlink:show="new" xlink:title="it.matlice.ingsw.model.data.factories.OfferFactory" xlink:type="simple"><rect fill="#FFFFFF" filter="url(#fpyuqau)" height="42.3999" style="stroke: #A80036; stroke-width: 1.5;" width="198" x="197" y="14.5"/><rect fill="#FFFFFF" height="42.3999" style="stroke: #A80036; stroke-width: 1.5;" width="198" x="197" y="14.5"/><ellipse cx="212" cy="35.7" fill="#B4A7E5" rx="11" ry="11" style="stroke: #A80036; stroke-width: 1.0;"/><path d="M213.0156,32.8562 L214.6719,32.8562 C215.0625,32.8562 215.2656,32.825 215.4219,32.7468 C215.6875,32.575 215.8594,32.2781 215.8594,31.9812 C215.8594,31.7 215.7188,31.45 215.4844,31.2781 C215.2969,31.1531 215.1406,31.1062 214.6719,31.1062 L209.5313,31.1062 C209.0938,31.1062 208.9531,31.1218 208.7813,31.2312 C208.5156,31.4031 208.3438,31.6843 208.3438,31.9812 C208.3438,32.2625 208.4844,32.5437 208.7188,32.7 C208.9063,32.825 209.0938,32.8562 209.5313,32.8562 L211.1875,32.8562 L211.1875,38.95 L209.5313,38.95 C209.0938,38.95 208.9531,38.9656 208.7813,39.075 C208.5156,39.2312 208.3438,39.5281 208.3438,39.8093 C208.3438,40.4187 208.75,40.7 209.5313,40.7 L214.6719,40.7 C215.4531,40.7 215.8594,40.4187 215.8594,39.8093 C215.8594,39.5437 215.7188,39.2937 215.4844,39.1218 C215.2969,38.9812 215.125,38.95 214.6719,38.95 L213.0156,38.95 L213.0156,32.8562 Z "/><text fill="#000000" font-family="sans-serif" font-size="14" font-style="italic" font-weight="bold" lengthAdjust="spacingAndGlyphs" textLength="86" x="266" y="34.8999">OfferFactory</text><text fill="#000000" font-family="sans-serif" font-size="10" font-style="italic" lengthAdjust="spacingAndGlyphs" textLength="166" x="226" y="49.3999">it.matlice.ingsw.model.data.factories</text></a><!--class it.matlice.ingsw.model.data.impl.jdbc.OfferFactoryImpl--><a target="_parent" xlink:actuate="onRequest" xlink:href="../../../../../it/matlice/ingsw/model/data/impl/jdbc/OfferFactoryImpl.html" xlink:show="new" xlink:title="it.matlice.ingsw.model.data.impl.jdbc.OfferFactoryImpl" xlink:type="simple"><rect fill="#FFFFFF" filter="url(#fpyuqau)" height="38.7999" style="stroke: #A80036; stroke-width: 1.5;" width="199" x="430.5" y="16"/><rect fill="#FFFFFF" height="38.7999" style="stroke: #A80036; stroke-width: 1.5;" width="199" x="430.5" y="16"/><ellipse cx="445.5" cy="35.4" fill="#ADD1B2" rx="11" ry="11" style="stroke: #A80036; stroke-width: 1.0;"/><path d="M440.5,36.5562 C440.5,39.0562 442.6406,40.8687 445.5625,40.8687 C446.7969,40.8687 447.9688,40.5718 448.7188,40.0562 C449.3281,39.6343 449.6563,39.2125 449.6563,38.8062 C449.6563,38.3375 449.2344,37.9312 448.7344,37.9312 C448.5,37.9312 448.2813,38.0093 448.0781,38.2125 C447.6406,38.65 447.6406,38.65 447.4688,38.7437 C447.0156,38.9781 446.375,39.1187 445.6094,39.1187 C443.6094,39.1187 442.3281,38.1031 442.3281,36.525 L442.3281,35.4781 C442.3281,33.775 443.5469,32.5718 445.25,32.5718 C445.8281,32.5718 446.4063,32.7125 446.875,32.9625 C447.3438,33.2281 447.5156,33.4156 447.5781,33.775 C447.7031,34.4468 447.9531,34.6968 448.4844,34.6968 C448.7656,34.6968 449.0469,34.5562 449.2344,34.3375 C449.3594,34.1656 449.4063,33.9937 449.4063,33.5562 L449.4063,32.1968 C449.4063,31.775 449.3906,31.6343 449.2656,31.4625 C449.0938,31.2125 448.8125,31.0562 448.4844,31.0562 C448.1719,31.0562 447.9688,31.1656 447.75,31.4312 C446.5781,30.9312 446.1406,30.8218 445.1875,30.8218 C442.5156,30.8218 440.5,32.8375 440.5,35.4625 L440.5,36.5562 Z "/><text fill="#000000" font-family="sans-serif" font-size="14" font-weight="bold" lengthAdjust="spacingAndGlyphs" textLength="115" x="485.5" y="34.0059">OfferFactoryImpl</text><text fill="#000000" font-family="sans-serif" font-size="10" lengthAdjust="spacingAndGlyphs" textLength="167" x="459.5" y="47.0899">it.matlice.ingsw.model.data.impl.jdbc</text></a><!--class it.matlice.ingsw.model.data.impl.jdbc.db.OfferDB--><a target="_parent" xlink:actuate="onRequest" xlink:href="../../../../../it/matlice/ingsw/model/data/impl/jdbc/db/OfferDB.html" xlink:show="new" xlink:title="it.matlice.ingsw.model.data.impl.jdbc.db.OfferDB" xlink:type="simple"><rect fill="#FFFFFF" filter="url(#fpyuqau)" height="55" style="stroke: #A80036; stroke-width: 1.5;" width="214" x="665" y="8"/><rect fill="#FFFFFF" height="55" style="stroke: #A80036; stroke-width: 1.5;" width="214" x="665" y="8"/><ellipse cx="680" cy="35.5" fill="#ADD1B2" rx="11" ry="11" style="stroke: #A80036; stroke-width: 1.0;"/><path d="M675,36.6563 C675,39.1563 677.1406,40.9688 680.0625,40.9688 C681.2969,40.9688 682.4688,40.6719 683.2188,40.1563 C683.8281,39.7344 684.1563,39.3125 684.1563,38.9063 C684.1563,38.4375 683.7344,38.0313 683.2344,38.0313 C683,38.0313 682.7813,38.1094 682.5781,38.3125 C682.1406,38.75 682.1406,38.75 681.9688,38.8438 C681.5156,39.0781 680.875,39.2188 680.1094,39.2188 C678.1094,39.2188 676.8281,38.2031 676.8281,36.625 L676.8281,35.5781 C676.8281,33.875 678.0469,32.6719 679.75,32.6719 C680.3281,32.6719 680.9063,32.8125 681.375,33.0625 C681.8438,33.3281 682.0156,33.5156 682.0781,33.875 C682.2031,34.5469 682.4531,34.7969 682.9844,34.7969 C683.2656,34.7969 683.5469,34.6563 683.7344,34.4375 C683.8594,34.2656 683.9063,34.0938 683.9063,33.6563 L683.9063,32.2969 C683.9063,31.875 683.8906,31.7344 683.7656,31.5625 C683.5938,31.3125 683.3125,31.1563 682.9844,31.1563 C682.6719,31.1563 682.4688,31.2656 682.25,31.5313 C681.0781,31.0313 680.6406,30.9219 679.6875,30.9219 C677.0156,30.9219 675,32.9375 675,35.5625 L675,36.6563 Z "/><text fill="#000000" font-family="sans-serif" font-size="12" font-style="italic" lengthAdjust="spacingAndGlyphs" textLength="98" x="736" y="26.2001">«DatabaseTable»</text><text fill="#000000" font-family="sans-serif" font-size="14" font-weight="bold" lengthAdjust="spacingAndGlyphs" textLength="54" x="758" y="42.2061">OfferDB</text><text fill="#000000" font-family="sans-serif" font-size="10" lengthAdjust="spacingAndGlyphs" textLength="182" x="694" y="55.29">it.matlice.ingsw.model.data.impl.jdbc.db</text></a><!--class it.matlice.ingsw.model.data.impl.jdbc.types.OfferImpl--><a target="_parent" xlink:actuate="onRequest" xlink:href="../../../../../it/matlice/ingsw/model/data/impl/jdbc/types/OfferImpl.html" xlink:show="new" xlink:title="it.matlice.ingsw.model.data.impl.jdbc.types.OfferImpl" xlink:type="simple"><rect fill="#FFFFFF" filter="url(#fpyuqau)" height="38.7999" style="stroke: #A80036; stroke-width: 1.5;" width="227" x="914.5" y="16"/><rect fill="#FFFFFF" height="38.7999" style="stroke: #A80036; stroke-width: 1.5;" width="227" x="914.5" y="16"/><ellipse cx="929.5" cy="35.4" fill="#ADD1B2" rx="11" ry="11" style="stroke: #A80036; stroke-width: 1.0;"/><path d="M924.5,36.5562 C924.5,39.0562 926.6406,40.8687 929.5625,40.8687 C930.7969,40.8687 931.9688,40.5718 932.7188,40.0562 C933.3281,39.6343 933.6563,39.2125 933.6563,38.8062 C933.6563,38.3375 933.2344,37.9312 932.7344,37.9312 C932.5,37.9312 932.2813,38.0093 932.0781,38.2125 C931.6406,38.65 931.6406,38.65 931.4688,38.7437 C931.0156,38.9781 930.375,39.1187 929.6094,39.1187 C927.6094,39.1187 926.3281,38.1031 926.3281,36.525 L926.3281,35.4781 C926.3281,33.775 927.5469,32.5718 929.25,32.5718 C929.8281,32.5718 930.4063,32.7125 930.875,32.9625 C931.3438,33.2281 931.5156,33.4156 931.5781,33.775 C931.7031,34.4468 931.9531,34.6968 932.4844,34.6968 C932.7656,34.6968 933.0469,34.5562 933.2344,34.3375 C933.3594,34.1656 933.4063,33.9937 933.4063,33.5562 L933.4063,32.1968 C933.4063,31.775 933.3906,31.6343 933.2656,31.4625 C933.0938,31.2125 932.8125,31.0562 932.4844,31.0562 C932.1719,31.0562 931.9688,31.1656 931.75,31.4312 C930.5781,30.9312 930.1406,30.8218 929.1875,30.8218 C926.5156,30.8218 924.5,32.8375 924.5,35.4625 L924.5,36.5562 Z "/><text fill="#000000" font-family="sans-serif" font-size="14" font-weight="bold" lengthAdjust="spacingAndGlyphs" textLength="63" x="1009.5" y="34.0059">OfferImpl</text><text fill="#000000" font-family="sans-serif" font-size="10" lengthAdjust="spacingAndGlyphs" textLength="195" x="943.5" y="47.0899">it.matlice.ingsw.model.data.impl.jdbc.types</text></a><path d="M84,55.22 C84,95.61 84,184 84,184 C84,184 416.47,184 416.47,184 " fill="none" style="stroke: #A80036; stroke-width: 1.0; stroke-dasharray: 7.0,7.0;"/><polygon fill="#A80036" points="421.47,184,412.47,180,416.47,184,412.47,188,421.47,184" style="stroke: #A80036; stroke-width: 1.0;"/><path d="M395.19,36 C412.99,36 426,36 426,36 C426,36 426,117.65 426,117.65 " fill="none" style="stroke: #A80036; stroke-width: 1.0; stroke-dasharray: 7.0,7.0;"/><polygon fill="#A80036" points="426,122.65,430,113.65,426,117.65,422,113.65,426,122.65" style="stroke: #A80036; stroke-width: 1.0;"/><path d="M530,55.15 C530,55.15 530,117.76 530,117.76 " fill="none" style="stroke: #A80036; stroke-width: 1.0; stroke-dasharray: 7.0,7.0;"/><polygon fill="#A80036" points="530,122.76,534,113.76,530,117.76,526,113.76,530,122.76" style="stroke: #A80036; stroke-width: 1.0;"/><path d="M664.97,36 C646.98,36 634,36 634,36 C634,36 634,117.65 634,117.65 " fill="none" style="stroke: #A80036; stroke-width: 1.0; stroke-dasharray: 7.0,7.0;"/><polygon fill="#A80036" points="634,122.65,638,113.65,634,117.65,630,113.65,634,122.65" style="stroke: #A80036; stroke-width: 1.0;"/><path d="M1028,55.22 C1028,95.61 1028,184 1028,184 C1028,184 643.67,184 643.67,184 " fill="none" style="stroke: #A80036; stroke-width: 1.0; stroke-dasharray: 7.0,7.0;"/><polygon fill="#A80036" points="638.67,184,647.67,188,643.67,184,647.67,180,638.67,184" style="stroke: #A80036; stroke-width: 1.0;"/></g></svg>