<?xml version="1.0" encoding="UTF-8" standalone="no"?><svg xmlns="http://www.w3.org/2000/svg" xmlns:xlink="http://www.w3.org/1999/xlink" contentScriptType="application/ecmascript" contentStyleType="text/css" height="666px" preserveAspectRatio="none" style="width:1353px;height:666px;" version="1.1" viewBox="0 0 1353 666" width="1353px" zoomAndPan="magnify"><defs><filter height="300%" id="f61u9vr" width="300%" x="-1" y="-1"><feGaussianBlur result="blurOut" stdDeviation="2.0"/><feColorMatrix in="blurOut" result="blurOut2" type="matrix" values="0 0 0 0 0 0 0 0 0 0 0 0 0 0 0 0 0 0 .4 0"/><feOffset dx="4.0" dy="4.0" in="blurOut2" result="blurOut3"/><feBlend in="SourceGraphic" in2="blurOut3" mode="normal"/></filter></defs><g><!--cluster it.matlice.ingsw.model.data--><a target="_parent" xlink:actuate="onRequest" xlink:href="../../../../../it/matlice/ingsw/model/data/package-summary.html" xlink:show="new" xlink:title="it.matlice.ingsw.model.data" xlink:type="simple"><polygon fill="#FFFFE0" filter="url(#f61u9vr)" points="589,24,782,24,789,46.7999,1346,46.7999,1346,659,589,659,589,24" style="stroke: #000000; stroke-width: 2.0;"/><line style="stroke: #000000; stroke-width: 2.0;" x1="589" x2="789" y1="46.7999" y2="46.7999"/><text fill="#000000" font-family="sans-serif" font-size="14" font-weight="bold" lengthAdjust="spacingAndGlyphs" textLength="187" x="593" y="39.0059">it.matlice.ingsw.model.data</text></a><!--cluster it.matlice.ingsw.model.data.factories--><a target="_parent" xlink:actuate="onRequest" xlink:href="../../../../../it/matlice/ingsw/model/data/factories/package-summary.html" xlink:show="new" xlink:title="it.matlice.ingsw.model.data.factories" xlink:type="simple"><polygon fill="#FFFFFF" filter="url(#f61u9vr)" points="22,24,279,24,286,46.7999,565,46.7999,565,199,22,199,22,24" style="stroke: #000000; stroke-width: 2.0;"/><line style="stroke: #000000; stroke-width: 2.0;" x1="22" x2="286" y1="46.7999" y2="46.7999"/><text fill="#000000" font-family="sans-serif" font-size="14" font-weight="bold" lengthAdjust="spacingAndGlyphs" textLength="251" x="26" y="39.0059">it.matlice.ingsw.model.data.factories</text></a><!--class it.matlice.ingsw.model.data.User--><a target="_parent" xlink:actuate="onRequest" xlink:href="../../../../../it/matlice/ingsw/model/data/User.html" xlink:show="new" xlink:title="it.matlice.ingsw.model.data.User" xlink:type="simple"><rect fill="#FEFECE" filter="url(#f61u9vr)" height="32" style="stroke: #A80036; stroke-width: 1.5;" width="63" x="751.5" y="243"/><ellipse cx="766.5" cy="259" fill="#ADD1B2" rx="11" ry="11" style="stroke: #A80036; stroke-width: 1.0;"/><path d="M761.5,260.1563 C761.5,262.6563 763.6406,264.4688 766.5625,264.4688 C767.7969,264.4688 768.9688,264.1719 769.7188,263.6563 C770.3281,263.2344 770.6563,262.8125 770.6563,262.4063 C770.6563,261.9375 770.2344,261.5313 769.7344,261.5313 C769.5,261.5313 769.2813,261.6094 769.0781,261.8125 C768.6406,262.25 768.6406,262.25 768.4688,262.3438 C768.0156,262.5781 767.375,262.7188 766.6094,262.7188 C764.6094,262.7188 763.3281,261.7031 763.3281,260.125 L763.3281,259.0781 C763.3281,257.375 764.5469,256.1719 766.25,256.1719 C766.8281,256.1719 767.4063,256.3125 767.875,256.5625 C768.3438,256.8281 768.5156,257.0156 768.5781,257.375 C768.7031,258.0469 768.9531,258.2969 769.4844,258.2969 C769.7656,258.2969 770.0469,258.1563 770.2344,257.9375 C770.3594,257.7656 770.4063,257.5938 770.4063,257.1563 L770.4063,255.7969 C770.4063,255.375 770.3906,255.2344 770.2656,255.0625 C770.0938,254.8125 769.8125,254.6563 769.4844,254.6563 C769.1719,254.6563 768.9688,254.7656 768.75,255.0313 C767.5781,254.5313 767.1406,254.4219 766.1875,254.4219 C763.5156,254.4219 761.5,256.4375 761.5,259.0625 L761.5,260.1563 Z "/><text fill="#000000" font-family="sans-serif" font-size="14" font-weight="bold" lengthAdjust="spacingAndGlyphs" textLength="31" x="780.5" y="263.606">User</text></a><!--class it.matlice.ingsw.model.data.User.UserTypes--><a target="_parent" xlink:actuate="onRequest" xlink:href="../../../../../it/matlice/ingsw/model/data/User.UserTypes.html" xlink:show="new" xlink:title="it.matlice.ingsw.model.data.User.UserTypes" xlink:type="simple"><rect fill="#FEFECE" filter="url(#f61u9vr)" height="32" style="stroke: #A80036; stroke-width: 1.5;" width="140" x="1190" y="59"/><ellipse cx="1205" cy="75" fill="#EB937F" rx="11" ry="11" style="stroke: #A80036; stroke-width: 1.0;"/><path d="M1203.8594,76.0625 L1205.1719,76.0625 L1205.1719,76.1094 C1205.1719,76.5156 1205.1875,76.6719 1205.2969,76.8281 C1205.4688,77.0781 1205.7656,77.25 1206.0781,77.25 C1206.3594,77.25 1206.6563,77.1094 1206.8281,76.8906 C1206.9531,76.7031 1207,76.5625 1207,76.1094 L1207,74.2656 C1207,73.9375 1206.9844,73.8281 1206.9219,73.6563 C1206.8125,73.3594 1206.4531,73.1094 1206.0781,73.1094 C1205.7813,73.1094 1205.5156,73.25 1205.3438,73.4688 C1205.2031,73.6563 1205.1719,73.8281 1205.1719,74.2656 L1205.1719,74.3281 L1203.8594,74.3281 L1203.8594,72.1563 L1207.7031,72.1563 L1207.7031,72.9063 C1207.7031,73.2969 1207.7344,73.4844 1207.8438,73.6406 C1208.0156,73.8906 1208.3125,74.0625 1208.625,74.0625 C1208.9219,74.0625 1209.1875,73.9375 1209.375,73.7031 C1209.5156,73.5156 1209.5469,73.375 1209.5469,72.9063 L1209.5469,70.4063 L1201.8438,70.4063 C1201.3906,70.4063 1201.2656,70.4219 1201.0938,70.5313 C1200.8281,70.7031 1200.6563,70.9688 1200.6563,71.2813 C1200.6563,71.5625 1200.7813,71.8281 1201.0313,72 C1201.2188,72.125 1201.4063,72.1563 1201.8438,72.1563 L1202.0313,72.1563 L1202.0313,78.25 L1201.8438,78.25 C1201.4219,78.25 1201.2656,78.2813 1201.0938,78.375 C1200.8281,78.5313 1200.6563,78.8125 1200.6563,79.1094 C1200.6563,79.6875 1201.0625,80 1201.8438,80 L1209.9219,80 L1209.9219,77.4688 C1209.9219,77.0625 1209.8906,76.8906 1209.7813,76.7344 C1209.6094,76.4688 1209.3281,76.3125 1209,76.3125 C1208.7188,76.3125 1208.4375,76.4531 1208.25,76.6719 C1208.1094,76.8594 1208.0781,77.0156 1208.0781,77.4688 L1208.0781,78.25 L1203.8594,78.25 L1203.8594,76.0625 Z "/><text fill="#000000" font-family="sans-serif" font-size="14" font-weight="bold" lengthAdjust="spacingAndGlyphs" textLength="108" x="1219" y="79.606">User.UserTypes</text></a><!--class it.matlice.ingsw.model.data.TypeDefinition--><a target="_parent" xlink:actuate="onRequest" xlink:href="../../../../../it/matlice/ingsw/model/data/TypeDefinition.html" xlink:show="new" xlink:title="it.matlice.ingsw.model.data.TypeDefinition" xlink:type="simple"><rect fill="#FEFECE" filter="url(#f61u9vr)" height="32" style="stroke: #A80036; stroke-width: 1.5;" width="133" x="927.5" y="519"/><ellipse cx="942.5" cy="535" fill="#ADD1B2" rx="11" ry="11" style="stroke: #A80036; stroke-width: 1.0;"/><path d="M937.5,536.1563 C937.5,538.6563 939.6406,540.4688 942.5625,540.4688 C943.7969,540.4688 944.9688,540.1719 945.7188,539.6563 C946.3281,539.2344 946.6563,538.8125 946.6563,538.4063 C946.6563,537.9375 946.2344,537.5313 945.7344,537.5313 C945.5,537.5313 945.2813,537.6094 945.0781,537.8125 C944.6406,538.25 944.6406,538.25 944.4688,538.3438 C944.0156,538.5781 943.375,538.7188 942.6094,538.7188 C940.6094,538.7188 939.3281,537.7031 939.3281,536.125 L939.3281,535.0781 C939.3281,533.375 940.5469,532.1719 942.25,532.1719 C942.8281,532.1719 943.4063,532.3125 943.875,532.5625 C944.3438,532.8281 944.5156,533.0156 944.5781,533.375 C944.7031,534.0469 944.9531,534.2969 945.4844,534.2969 C945.7656,534.2969 946.0469,534.1563 946.2344,533.9375 C946.3594,533.7656 946.4063,533.5938 946.4063,533.1563 L946.4063,531.7969 C946.4063,531.375 946.3906,531.2344 946.2656,531.0625 C946.0938,530.8125 945.8125,530.6563 945.4844,530.6563 C945.1719,530.6563 944.9688,530.7656 944.75,531.0313 C943.5781,530.5313 943.1406,530.4219 942.1875,530.4219 C939.5156,530.4219 937.5,532.4375 937.5,535.0625 L937.5,536.1563 Z "/><text fill="#000000" font-family="sans-serif" font-size="14" font-weight="bold" lengthAdjust="spacingAndGlyphs" textLength="101" x="956.5" y="539.606">TypeDefinition</text></a><!--class it.matlice.ingsw.model.data.TypeDefinition.TypeAssociation--><a target="_parent" xlink:actuate="onRequest" xlink:href="../../../../../it/matlice/ingsw/model/data/TypeDefinition.TypeAssociation.html" xlink:show="new" xlink:title="it.matlice.ingsw.model.data.TypeDefinition.TypeAssociation" xlink:type="simple"><rect fill="#FEFECE" filter="url(#f61u9vr)" height="32" style="stroke: #A80036; stroke-width: 1.5;" width="253" x="867.5" y="611"/><ellipse cx="882.5" cy="627" fill="#EB937F" rx="11" ry="11" style="stroke: #A80036; stroke-width: 1.0;"/><path d="M881.3594,628.0625 L882.6719,628.0625 L882.6719,628.1094 C882.6719,628.5156 882.6875,628.6719 882.7969,628.8281 C882.9688,629.0781 883.2656,629.25 883.5781,629.25 C883.8594,629.25 884.1563,629.1094 884.3281,628.8906 C884.4531,628.7031 884.5,628.5625 884.5,628.1094 L884.5,626.2656 C884.5,625.9375 884.4844,625.8281 884.4219,625.6563 C884.3125,625.3594 883.9531,625.1094 883.5781,625.1094 C883.2813,625.1094 883.0156,625.25 882.8438,625.4688 C882.7031,625.6563 882.6719,625.8281 882.6719,626.2656 L882.6719,626.3281 L881.3594,626.3281 L881.3594,624.1563 L885.2031,624.1563 L885.2031,624.9063 C885.2031,625.2969 885.2344,625.4844 885.3438,625.6406 C885.5156,625.8906 885.8125,626.0625 886.125,626.0625 C886.4219,626.0625 886.6875,625.9375 886.875,625.7031 C887.0156,625.5156 887.0469,625.375 887.0469,624.9063 L887.0469,622.4063 L879.3438,622.4063 C878.8906,622.4063 878.7656,622.4219 878.5938,622.5313 C878.3281,622.7031 878.1563,622.9688 878.1563,623.2813 C878.1563,623.5625 878.2813,623.8281 878.5313,624 C878.7188,624.125 878.9063,624.1563 879.3438,624.1563 L879.5313,624.1563 L879.5313,630.25 L879.3438,630.25 C878.9219,630.25 878.7656,630.2813 878.5938,630.375 C878.3281,630.5313 878.1563,630.8125 878.1563,631.1094 C878.1563,631.6875 878.5625,632 879.3438,632 L887.4219,632 L887.4219,629.4688 C887.4219,629.0625 887.3906,628.8906 887.2813,628.7344 C887.1094,628.4688 886.8281,628.3125 886.5,628.3125 C886.2188,628.3125 885.9375,628.4531 885.75,628.6719 C885.6094,628.8594 885.5781,629.0156 885.5781,629.4688 L885.5781,630.25 L881.3594,630.25 L881.3594,628.0625 Z "/><text fill="#000000" font-family="sans-serif" font-size="14" font-weight="bold" lengthAdjust="spacingAndGlyphs" textLength="221" x="896.5" y="631.606">TypeDefinition.TypeAssociation</text></a><!--class it.matlice.ingsw.model.data.Settings--><a target="_parent" xlink:actuate="onRequest" xlink:href="../../../../../it/matlice/ingsw/model/data/Settings.html" xlink:show="new" xlink:title="it.matlice.ingsw.model.data.Settings" xlink:type="simple"><rect fill="#FEFECE" filter="url(#f61u9vr)" height="32" style="stroke: #A80036; stroke-width: 1.5;" width="89" x="1065.5" y="59"/><ellipse cx="1080.5" cy="75" fill="#ADD1B2" rx="11" ry="11" style="stroke: #A80036; stroke-width: 1.0;"/><path d="M1075.5,76.1563 C1075.5,78.6563 1077.6406,80.4688 1080.5625,80.4688 C1081.7969,80.4688 1082.9688,80.1719 1083.7188,79.6563 C1084.3281,79.2344 1084.6563,78.8125 1084.6563,78.4063 C1084.6563,77.9375 1084.2344,77.5313 1083.7344,77.5313 C1083.5,77.5313 1083.2813,77.6094 1083.0781,77.8125 C1082.6406,78.25 1082.6406,78.25 1082.4688,78.3438 C1082.0156,78.5781 1081.375,78.7188 1080.6094,78.7188 C1078.6094,78.7188 1077.3281,77.7031 1077.3281,76.125 L1077.3281,75.0781 C1077.3281,73.375 1078.5469,72.1719 1080.25,72.1719 C1080.8281,72.1719 1081.4063,72.3125 1081.875,72.5625 C1082.3438,72.8281 1082.5156,73.0156 1082.5781,73.375 C1082.7031,74.0469 1082.9531,74.2969 1083.4844,74.2969 C1083.7656,74.2969 1084.0469,74.1563 1084.2344,73.9375 C1084.3594,73.7656 1084.4063,73.5938 1084.4063,73.1563 L1084.4063,71.7969 C1084.4063,71.375 1084.3906,71.2344 1084.2656,71.0625 C1084.0938,70.8125 1083.8125,70.6563 1083.4844,70.6563 C1083.1719,70.6563 1082.9688,70.7656 1082.75,71.0313 C1081.5781,70.5313 1081.1406,70.4219 1080.1875,70.4219 C1077.5156,70.4219 1075.5,72.4375 1075.5,75.0625 L1075.5,76.1563 Z "/><text fill="#000000" font-family="sans-serif" font-size="14" font-weight="bold" lengthAdjust="spacingAndGlyphs" textLength="57" x="1094.5" y="79.606">Settings</text></a><!--class it.matlice.ingsw.model.data.Settings.Day--><a target="_parent" xlink:actuate="onRequest" xlink:href="../../../../../it/matlice/ingsw/model/data/Settings.Day.html" xlink:show="new" xlink:title="it.matlice.ingsw.model.data.Settings.Day" xlink:type="simple"><rect fill="#FEFECE" filter="url(#f61u9vr)" height="32" style="stroke: #A80036; stroke-width: 1.5;" width="119" x="1056.5" y="151"/><ellipse cx="1071.5" cy="167" fill="#EB937F" rx="11" ry="11" style="stroke: #A80036; stroke-width: 1.0;"/><path d="M1070.3594,168.0625 L1071.6719,168.0625 L1071.6719,168.1094 C1071.6719,168.5156 1071.6875,168.6719 1071.7969,168.8281 C1071.9688,169.0781 1072.2656,169.25 1072.5781,169.25 C1072.8594,169.25 1073.1563,169.1094 1073.3281,168.8906 C1073.4531,168.7031 1073.5,168.5625 1073.5,168.1094 L1073.5,166.2656 C1073.5,165.9375 1073.4844,165.8281 1073.4219,165.6563 C1073.3125,165.3594 1072.9531,165.1094 1072.5781,165.1094 C1072.2813,165.1094 1072.0156,165.25 1071.8438,165.4688 C1071.7031,165.6563 1071.6719,165.8281 1071.6719,166.2656 L1071.6719,166.3281 L1070.3594,166.3281 L1070.3594,164.1563 L1074.2031,164.1563 L1074.2031,164.9063 C1074.2031,165.2969 1074.2344,165.4844 1074.3438,165.6406 C1074.5156,165.8906 1074.8125,166.0625 1075.125,166.0625 C1075.4219,166.0625 1075.6875,165.9375 1075.875,165.7031 C1076.0156,165.5156 1076.0469,165.375 1076.0469,164.9063 L1076.0469,162.4063 L1068.3438,162.4063 C1067.8906,162.4063 1067.7656,162.4219 1067.5938,162.5313 C1067.3281,162.7031 1067.1563,162.9688 1067.1563,163.2813 C1067.1563,163.5625 1067.2813,163.8281 1067.5313,164 C1067.7188,164.125 1067.9063,164.1563 1068.3438,164.1563 L1068.5313,164.1563 L1068.5313,170.25 L1068.3438,170.25 C1067.9219,170.25 1067.7656,170.2813 1067.5938,170.375 C1067.3281,170.5313 1067.1563,170.8125 1067.1563,171.1094 C1067.1563,171.6875 1067.5625,172 1068.3438,172 L1076.4219,172 L1076.4219,169.4688 C1076.4219,169.0625 1076.3906,168.8906 1076.2813,168.7344 C1076.1094,168.4688 1075.8281,168.3125 1075.5,168.3125 C1075.2188,168.3125 1074.9375,168.4531 1074.75,168.6719 C1074.6094,168.8594 1074.5781,169.0156 1074.5781,169.4688 L1074.5781,170.25 L1070.3594,170.25 L1070.3594,168.0625 Z "/><text fill="#000000" font-family="sans-serif" font-size="14" font-weight="bold" lengthAdjust="spacingAndGlyphs" textLength="87" x="1085.5" y="171.606">Settings.Day</text></a><!--class it.matlice.ingsw.model.data.Offer--><a target="_parent" xlink:actuate="onRequest" xlink:href="../../../../../it/matlice/ingsw/model/data/Offer.html" xlink:show="new" xlink:title="it.matlice.ingsw.model.data.Offer" xlink:type="simple"><rect fill="#FEFECE" filter="url(#f61u9vr)" height="32" style="stroke: #A80036; stroke-width: 1.5;" width="66" x="955" y="151"/><ellipse cx="970" cy="167" fill="#ADD1B2" rx="11" ry="11" style="stroke: #A80036; stroke-width: 1.0;"/><path d="M965,168.1563 C965,170.6563 967.1406,172.4688 970.0625,172.4688 C971.2969,172.4688 972.4688,172.1719 973.2188,171.6563 C973.8281,171.2344 974.1563,170.8125 974.1563,170.4063 C974.1563,169.9375 973.7344,169.5313 973.2344,169.5313 C973,169.5313 972.7813,169.6094 972.5781,169.8125 C972.1406,170.25 972.1406,170.25 971.9688,170.3438 C971.5156,170.5781 970.875,170.7188 970.1094,170.7188 C968.1094,170.7188 966.8281,169.7031 966.8281,168.125 L966.8281,167.0781 C966.8281,165.375 968.0469,164.1719 969.75,164.1719 C970.3281,164.1719 970.9063,164.3125 971.375,164.5625 C971.8438,164.8281 972.0156,165.0156 972.0781,165.375 C972.2031,166.0469 972.4531,166.2969 972.9844,166.2969 C973.2656,166.2969 973.5469,166.1563 973.7344,165.9375 C973.8594,165.7656 973.9063,165.5938 973.9063,165.1563 L973.9063,163.7969 C973.9063,163.375 973.8906,163.2344 973.7656,163.0625 C973.5938,162.8125 973.3125,162.6563 972.9844,162.6563 C972.6719,162.6563 972.4688,162.7656 972.25,163.0313 C971.0781,162.5313 970.6406,162.4219 969.6875,162.4219 C967.0156,162.4219 965,164.4375 965,167.0625 L965,168.1563 Z "/><text fill="#000000" font-family="sans-serif" font-size="14" font-weight="bold" lengthAdjust="spacingAndGlyphs" textLength="34" x="984" y="171.606">Offer</text></a><!--class it.matlice.ingsw.model.data.Offer.OfferStatus--><a target="_parent" xlink:actuate="onRequest" xlink:href="../../../../../it/matlice/ingsw/model/data/Offer.OfferStatus.html" xlink:show="new" xlink:title="it.matlice.ingsw.model.data.Offer.OfferStatus" xlink:type="simple"><rect fill="#FEFECE" filter="url(#f61u9vr)" height="32" style="stroke: #A80036; stroke-width: 1.5;" width="148" x="850" y="243"/><ellipse cx="865" cy="259" fill="#EB937F" rx="11" ry="11" style="stroke: #A80036; stroke-width: 1.0;"/><path d="M863.8594,260.0625 L865.1719,260.0625 L865.1719,260.1094 C865.1719,260.5156 865.1875,260.6719 865.2969,260.8281 C865.4688,261.0781 865.7656,261.25 866.0781,261.25 C866.3594,261.25 866.6563,261.1094 866.8281,260.8906 C866.9531,260.7031 867,260.5625 867,260.1094 L867,258.2656 C867,257.9375 866.9844,257.8281 866.9219,257.6563 C866.8125,257.3594 866.4531,257.1094 866.0781,257.1094 C865.7813,257.1094 865.5156,257.25 865.3438,257.4688 C865.2031,257.6563 865.1719,257.8281 865.1719,258.2656 L865.1719,258.3281 L863.8594,258.3281 L863.8594,256.1563 L867.7031,256.1563 L867.7031,256.9063 C867.7031,257.2969 867.7344,257.4844 867.8438,257.6406 C868.0156,257.8906 868.3125,258.0625 868.625,258.0625 C868.9219,258.0625 869.1875,257.9375 869.375,257.7031 C869.5156,257.5156 869.5469,257.375 869.5469,256.9063 L869.5469,254.4063 L861.8438,254.4063 C861.3906,254.4063 861.2656,254.4219 861.0938,254.5313 C860.8281,254.7031 860.6563,254.9688 860.6563,255.2813 C860.6563,255.5625 860.7813,255.8281 861.0313,256 C861.2188,256.125 861.4063,256.1563 861.8438,256.1563 L862.0313,256.1563 L862.0313,262.25 L861.8438,262.25 C861.4219,262.25 861.2656,262.2813 861.0938,262.375 C860.8281,262.5313 860.6563,262.8125 860.6563,263.1094 C860.6563,263.6875 861.0625,264 861.8438,264 L869.9219,264 L869.9219,261.4688 C869.9219,261.0625 869.8906,260.8906 869.7813,260.7344 C869.6094,260.4688 869.3281,260.3125 869,260.3125 C868.7188,260.3125 868.4375,260.4531 868.25,260.6719 C868.1094,260.8594 868.0781,261.0156 868.0781,261.4688 L868.0781,262.25 L863.8594,262.25 L863.8594,260.0625 Z "/><text fill="#000000" font-family="sans-serif" font-size="14" font-weight="bold" lengthAdjust="spacingAndGlyphs" textLength="116" x="879" y="263.606">Offer.OfferStatus</text></a><!--class it.matlice.ingsw.model.data.NodeCategory--><a target="_parent" xlink:actuate="onRequest" xlink:href="../../../../../it/matlice/ingsw/model/data/NodeCategory.html" xlink:show="new" xlink:title="it.matlice.ingsw.model.data.NodeCategory" xlink:type="simple"><rect fill="#FEFECE" filter="url(#f61u9vr)" height="32" style="stroke: #A80036; stroke-width: 1.5;" width="130" x="929" y="335"/><ellipse cx="944" cy="351" fill="#ADD1B2" rx="11" ry="11" style="stroke: #A80036; stroke-width: 1.0;"/><path d="M939,352.1563 C939,354.6563 941.1406,356.4688 944.0625,356.4688 C945.2969,356.4688 946.4688,356.1719 947.2188,355.6563 C947.8281,355.2344 948.1563,354.8125 948.1563,354.4063 C948.1563,353.9375 947.7344,353.5313 947.2344,353.5313 C947,353.5313 946.7813,353.6094 946.5781,353.8125 C946.1406,354.25 946.1406,354.25 945.9688,354.3438 C945.5156,354.5781 944.875,354.7188 944.1094,354.7188 C942.1094,354.7188 940.8281,353.7031 940.8281,352.125 L940.8281,351.0781 C940.8281,349.375 942.0469,348.1719 943.75,348.1719 C944.3281,348.1719 944.9063,348.3125 945.375,348.5625 C945.8438,348.8281 946.0156,349.0156 946.0781,349.375 C946.2031,350.0469 946.4531,350.2969 946.9844,350.2969 C947.2656,350.2969 947.5469,350.1563 947.7344,349.9375 C947.8594,349.7656 947.9063,349.5938 947.9063,349.1563 L947.9063,347.7969 C947.9063,347.375 947.8906,347.2344 947.7656,347.0625 C947.5938,346.8125 947.3125,346.6563 946.9844,346.6563 C946.6719,346.6563 946.4688,346.7656 946.25,347.0313 C945.0781,346.5313 944.6406,346.4219 943.6875,346.4219 C941.0156,346.4219 939,348.4375 939,351.0625 L939,352.1563 Z "/><text fill="#000000" font-family="sans-serif" font-size="14" font-weight="bold" lengthAdjust="spacingAndGlyphs" textLength="98" x="958" y="355.606">NodeCategory</text></a><!--class it.matlice.ingsw.model.data.Message--><a target="_parent" xlink:actuate="onRequest" xlink:href="../../../../../it/matlice/ingsw/model/data/Message.html" xlink:show="new" xlink:title="it.matlice.ingsw.model.data.Message" xlink:type="simple"><rect fill="#FEFECE" filter="url(#f61u9vr)" height="32" style="stroke: #A80036; stroke-width: 1.5;" width="93" x="937.5" y="59"/><ellipse cx="952.5" cy="75" fill="#ADD1B2" rx="11" ry="11" style="stroke: #A80036; stroke-width: 1.0;"/><path d="M947.5,76.1563 C947.5,78.6563 949.6406,80.4688 952.5625,80.4688 C953.7969,80.4688 954.9688,80.1719 955.7188,79.6563 C956.3281,79.2344 956.6563,78.8125 956.6563,78.4063 C956.6563,77.9375 956.2344,77.5313 955.7344,77.5313 C955.5,77.5313 955.2813,77.6094 955.0781,77.8125 C954.6406,78.25 954.6406,78.25 954.4688,78.3438 C954.0156,78.5781 953.375,78.7188 952.6094,78.7188 C950.6094,78.7188 949.3281,77.7031 949.3281,76.125 L949.3281,75.0781 C949.3281,73.375 950.5469,72.1719 952.25,72.1719 C952.8281,72.1719 953.4063,72.3125 953.875,72.5625 C954.3438,72.8281 954.5156,73.0156 954.5781,73.375 C954.7031,74.0469 954.9531,74.2969 955.4844,74.2969 C955.7656,74.2969 956.0469,74.1563 956.2344,73.9375 C956.3594,73.7656 956.4063,73.5938 956.4063,73.1563 L956.4063,71.7969 C956.4063,71.375 956.3906,71.2344 956.2656,71.0625 C956.0938,70.8125 955.8125,70.6563 955.4844,70.6563 C955.1719,70.6563 954.9688,70.7656 954.75,71.0313 C953.5781,70.5313 953.1406,70.4219 952.1875,70.4219 C949.5156,70.4219 947.5,72.4375 947.5,75.0625 L947.5,76.1563 Z "/><text fill="#000000" font-family="sans-serif" font-size="14" font-weight="bold" lengthAdjust="spacingAndGlyphs" textLength="61" x="966.5" y="79.606">Message</text></a><!--class it.matlice.ingsw.model.data.LeafCategory--><a target="_parent" xlink:actuate="onRequest" xlink:href="../../../../../it/matlice/ingsw/model/data/LeafCategory.html" xlink:show="new" xlink:title="it.matlice.ingsw.model.data.LeafCategory" xlink:type="simple"><rect fill="#FEFECE" filter="url(#f61u9vr)" height="32" style="stroke: #A80036; stroke-width: 1.5;" width="124" x="1033" y="243"/><ellipse cx="1048" cy="259" fill="#ADD1B2" rx="11" ry="11" style="stroke: #A80036; stroke-width: 1.0;"/><path d="M1043,260.1563 C1043,262.6563 1045.1406,264.4688 1048.0625,264.4688 C1049.2969,264.4688 1050.4688,264.1719 1051.2188,263.6563 C1051.8281,263.2344 1052.1563,262.8125 1052.1563,262.4063 C1052.1563,261.9375 1051.7344,261.5313 1051.2344,261.5313 C1051,261.5313 1050.7813,261.6094 1050.5781,261.8125 C1050.1406,262.25 1050.1406,262.25 1049.9688,262.3438 C1049.5156,262.5781 1048.875,262.7188 1048.1094,262.7188 C1046.1094,262.7188 1044.8281,261.7031 1044.8281,260.125 L1044.8281,259.0781 C1044.8281,257.375 1046.0469,256.1719 1047.75,256.1719 C1048.3281,256.1719 1048.9063,256.3125 1049.375,256.5625 C1049.8438,256.8281 1050.0156,257.0156 1050.0781,257.375 C1050.2031,258.0469 1050.4531,258.2969 1050.9844,258.2969 C1051.2656,258.2969 1051.5469,258.1563 1051.7344,257.9375 C1051.8594,257.7656 1051.9063,257.5938 1051.9063,257.1563 L1051.9063,255.7969 C1051.9063,255.375 1051.8906,255.2344 1051.7656,255.0625 C1051.5938,254.8125 1051.3125,254.6563 1050.9844,254.6563 C1050.6719,254.6563 1050.4688,254.7656 1050.25,255.0313 C1049.0781,254.5313 1048.6406,254.4219 1047.6875,254.4219 C1045.0156,254.4219 1043,256.4375 1043,259.0625 L1043,260.1563 Z "/><text fill="#000000" font-family="sans-serif" font-size="14" font-weight="bold" lengthAdjust="spacingAndGlyphs" textLength="92" x="1062" y="263.606">LeafCategory</text></a><!--class it.matlice.ingsw.model.data.Interval--><a target="_parent" xlink:actuate="onRequest" xlink:href="../../../../../it/matlice/ingsw/model/data/Interval.html" xlink:show="new" xlink:title="it.matlice.ingsw.model.data.Interval" xlink:type="simple"><rect fill="#FEFECE" filter="url(#f61u9vr)" height="32" style="stroke: #A80036; stroke-width: 1.5;" width="83" x="1228.5" y="151"/><ellipse cx="1243.5" cy="167" fill="#ADD1B2" rx="11" ry="11" style="stroke: #A80036; stroke-width: 1.0;"/><path d="M1238.5,168.1563 C1238.5,170.6563 1240.6406,172.4688 1243.5625,172.4688 C1244.7969,172.4688 1245.9688,172.1719 1246.7188,171.6563 C1247.3281,171.2344 1247.6563,170.8125 1247.6563,170.4063 C1247.6563,169.9375 1247.2344,169.5313 1246.7344,169.5313 C1246.5,169.5313 1246.2813,169.6094 1246.0781,169.8125 C1245.6406,170.25 1245.6406,170.25 1245.4688,170.3438 C1245.0156,170.5781 1244.375,170.7188 1243.6094,170.7188 C1241.6094,170.7188 1240.3281,169.7031 1240.3281,168.125 L1240.3281,167.0781 C1240.3281,165.375 1241.5469,164.1719 1243.25,164.1719 C1243.8281,164.1719 1244.4063,164.3125 1244.875,164.5625 C1245.3438,164.8281 1245.5156,165.0156 1245.5781,165.375 C1245.7031,166.0469 1245.9531,166.2969 1246.4844,166.2969 C1246.7656,166.2969 1247.0469,166.1563 1247.2344,165.9375 C1247.3594,165.7656 1247.4063,165.5938 1247.4063,165.1563 L1247.4063,163.7969 C1247.4063,163.375 1247.3906,163.2344 1247.2656,163.0625 C1247.0938,162.8125 1246.8125,162.6563 1246.4844,162.6563 C1246.1719,162.6563 1245.9688,162.7656 1245.75,163.0313 C1244.5781,162.5313 1244.1406,162.4219 1243.1875,162.4219 C1240.5156,162.4219 1238.5,164.4375 1238.5,167.0625 L1238.5,168.1563 Z "/><text fill="#000000" font-family="sans-serif" font-size="14" font-weight="bold" lengthAdjust="spacingAndGlyphs" textLength="51" x="1257.5" y="171.606">Interval</text></a><!--class it.matlice.ingsw.model.data.Interval.Time--><a target="_parent" xlink:actuate="onRequest" xlink:href="../../../../../it/matlice/ingsw/model/data/Interval.Time.html" xlink:show="new" xlink:title="it.matlice.ingsw.model.data.Interval.Time" xlink:type="simple"><rect fill="#FEFECE" filter="url(#f61u9vr)" height="32" style="stroke: #A80036; stroke-width: 1.5;" width="120" x="1192" y="243"/><ellipse cx="1207" cy="259" fill="#ADD1B2" rx="11" ry="11" style="stroke: #A80036; stroke-width: 1.0;"/><path d="M1202,260.1563 C1202,262.6563 1204.1406,264.4688 1207.0625,264.4688 C1208.2969,264.4688 1209.4688,264.1719 1210.2188,263.6563 C1210.8281,263.2344 1211.1563,262.8125 1211.1563,262.4063 C1211.1563,261.9375 1210.7344,261.5313 1210.2344,261.5313 C1210,261.5313 1209.7813,261.6094 1209.5781,261.8125 C1209.1406,262.25 1209.1406,262.25 1208.9688,262.3438 C1208.5156,262.5781 1207.875,262.7188 1207.1094,262.7188 C1205.1094,262.7188 1203.8281,261.7031 1203.8281,260.125 L1203.8281,259.0781 C1203.8281,257.375 1205.0469,256.1719 1206.75,256.1719 C1207.3281,256.1719 1207.9063,256.3125 1208.375,256.5625 C1208.8438,256.8281 1209.0156,257.0156 1209.0781,257.375 C1209.2031,258.0469 1209.4531,258.2969 1209.9844,258.2969 C1210.2656,258.2969 1210.5469,258.1563 1210.7344,257.9375 C1210.8594,257.7656 1210.9063,257.5938 1210.9063,257.1563 L1210.9063,255.7969 C1210.9063,255.375 1210.8906,255.2344 1210.7656,255.0625 C1210.5938,254.8125 1210.3125,254.6563 1209.9844,254.6563 C1209.6719,254.6563 1209.4688,254.7656 1209.25,255.0313 C1208.0781,254.5313 1207.6406,254.4219 1206.6875,254.4219 C1204.0156,254.4219 1202,256.4375 1202,259.0625 L1202,260.1563 Z "/><text fill="#000000" font-family="sans-serif" font-size="14" font-weight="bold" lengthAdjust="spacingAndGlyphs" textLength="88" x="1221" y="263.606">Interval.Time</text></a><!--class it.matlice.ingsw.model.data.Hierarchy--><a target="_parent" xlink:actuate="onRequest" xlink:href="../../../../../it/matlice/ingsw/model/data/Hierarchy.html" xlink:show="new" xlink:title="it.matlice.ingsw.model.data.Hierarchy" xlink:type="simple"><rect fill="#FEFECE" filter="url(#f61u9vr)" height="32" style="stroke: #A80036; stroke-width: 1.5;" width="97" x="796.5" y="335"/><ellipse cx="811.5" cy="351" fill="#ADD1B2" rx="11" ry="11" style="stroke: #A80036; stroke-width: 1.0;"/><path d="M806.5,352.1563 C806.5,354.6563 808.6406,356.4688 811.5625,356.4688 C812.7969,356.4688 813.9688,356.1719 814.7188,355.6563 C815.3281,355.2344 815.6563,354.8125 815.6563,354.4063 C815.6563,353.9375 815.2344,353.5313 814.7344,353.5313 C814.5,353.5313 814.2813,353.6094 814.0781,353.8125 C813.6406,354.25 813.6406,354.25 813.4688,354.3438 C813.0156,354.5781 812.375,354.7188 811.6094,354.7188 C809.6094,354.7188 808.3281,353.7031 808.3281,352.125 L808.3281,351.0781 C808.3281,349.375 809.5469,348.1719 811.25,348.1719 C811.8281,348.1719 812.4063,348.3125 812.875,348.5625 C813.3438,348.8281 813.5156,349.0156 813.5781,349.375 C813.7031,350.0469 813.9531,350.2969 814.4844,350.2969 C814.7656,350.2969 815.0469,350.1563 815.2344,349.9375 C815.3594,349.7656 815.4063,349.5938 815.4063,349.1563 L815.4063,347.7969 C815.4063,347.375 815.3906,347.2344 815.2656,347.0625 C815.0938,346.8125 814.8125,346.6563 814.4844,346.6563 C814.1719,346.6563 813.9688,346.7656 813.75,347.0313 C812.5781,346.5313 812.1406,346.4219 811.1875,346.4219 C808.5156,346.4219 806.5,348.4375 806.5,351.0625 L806.5,352.1563 Z "/><text fill="#000000" font-family="sans-serif" font-size="14" font-weight="bold" lengthAdjust="spacingAndGlyphs" textLength="65" x="825.5" y="355.606">Hierarchy</text></a><!--class it.matlice.ingsw.model.data.CustomerUser--><a target="_parent" xlink:actuate="onRequest" xlink:href="../../../../../it/matlice/ingsw/model/data/CustomerUser.html" xlink:show="new" xlink:title="it.matlice.ingsw.model.data.CustomerUser" xlink:type="simple"><rect fill="#FEFECE" filter="url(#f61u9vr)" height="32" style="stroke: #A80036; stroke-width: 1.5;" width="129" x="790.5" y="151"/><ellipse cx="805.5" cy="167" fill="#ADD1B2" rx="11" ry="11" style="stroke: #A80036; stroke-width: 1.0;"/><path d="M800.5,168.1563 C800.5,170.6563 802.6406,172.4688 805.5625,172.4688 C806.7969,172.4688 807.9688,172.1719 808.7188,171.6563 C809.3281,171.2344 809.6563,170.8125 809.6563,170.4063 C809.6563,169.9375 809.2344,169.5313 808.7344,169.5313 C808.5,169.5313 808.2813,169.6094 808.0781,169.8125 C807.6406,170.25 807.6406,170.25 807.4688,170.3438 C807.0156,170.5781 806.375,170.7188 805.6094,170.7188 C803.6094,170.7188 802.3281,169.7031 802.3281,168.125 L802.3281,167.0781 C802.3281,165.375 803.5469,164.1719 805.25,164.1719 C805.8281,164.1719 806.4063,164.3125 806.875,164.5625 C807.3438,164.8281 807.5156,165.0156 807.5781,165.375 C807.7031,166.0469 807.9531,166.2969 808.4844,166.2969 C808.7656,166.2969 809.0469,166.1563 809.2344,165.9375 C809.3594,165.7656 809.4063,165.5938 809.4063,165.1563 L809.4063,163.7969 C809.4063,163.375 809.3906,163.2344 809.2656,163.0625 C809.0938,162.8125 808.8125,162.6563 808.4844,162.6563 C808.1719,162.6563 807.9688,162.7656 807.75,163.0313 C806.5781,162.5313 806.1406,162.4219 805.1875,162.4219 C802.5156,162.4219 800.5,164.4375 800.5,167.0625 L800.5,168.1563 Z "/><text fill="#000000" font-family="sans-serif" font-size="14" font-weight="bold" lengthAdjust="spacingAndGlyphs" textLength="97" x="819.5" y="171.606">CustomerUser</text></a><!--class it.matlice.ingsw.model.data.ConfiguratorUser--><a target="_parent" xlink:actuate="onRequest" xlink:href="../../../../../it/matlice/ingsw/model/data/ConfiguratorUser.html" xlink:show="new" xlink:title="it.matlice.ingsw.model.data.ConfiguratorUser" xlink:type="simple"><rect fill="#FEFECE" filter="url(#f61u9vr)" height="32" style="stroke: #A80036; stroke-width: 1.5;" width="150" x="605" y="151"/><ellipse cx="620" cy="167" fill="#ADD1B2" rx="11" ry="11" style="stroke: #A80036; stroke-width: 1.0;"/><path d="M615,168.1563 C615,170.6563 617.1406,172.4688 620.0625,172.4688 C621.2969,172.4688 622.4688,172.1719 623.2188,171.6563 C623.8281,171.2344 624.1563,170.8125 624.1563,170.4063 C624.1563,169.9375 623.7344,169.5313 623.2344,169.5313 C623,169.5313 622.7813,169.6094 622.5781,169.8125 C622.1406,170.25 622.1406,170.25 621.9688,170.3438 C621.5156,170.5781 620.875,170.7188 620.1094,170.7188 C618.1094,170.7188 616.8281,169.7031 616.8281,168.125 L616.8281,167.0781 C616.8281,165.375 618.0469,164.1719 619.75,164.1719 C620.3281,164.1719 620.9063,164.3125 621.375,164.5625 C621.8438,164.8281 622.0156,165.0156 622.0781,165.375 C622.2031,166.0469 622.4531,166.2969 622.9844,166.2969 C623.2656,166.2969 623.5469,166.1563 623.7344,165.9375 C623.8594,165.7656 623.9063,165.5938 623.9063,165.1563 L623.9063,163.7969 C623.9063,163.375 623.8906,163.2344 623.7656,163.0625 C623.5938,162.8125 623.3125,162.6563 622.9844,162.6563 C622.6719,162.6563 622.4688,162.7656 622.25,163.0313 C621.0781,162.5313 620.6406,162.4219 619.6875,162.4219 C617.0156,162.4219 615,164.4375 615,167.0625 L615,168.1563 Z "/><text fill="#000000" font-family="sans-serif" font-size="14" font-weight="bold" lengthAdjust="spacingAndGlyphs" textLength="118" x="634" y="171.606">ConfiguratorUser</text></a><!--class it.matlice.ingsw.model.data.Category--><a target="_parent" xlink:actuate="onRequest" xlink:href="../../../../../it/matlice/ingsw/model/data/Category.html" xlink:show="new" xlink:title="it.matlice.ingsw.model.data.Category" xlink:type="simple"><rect fill="#FEFECE" filter="url(#f61u9vr)" height="32" style="stroke: #A80036; stroke-width: 1.5;" width="94" x="947" y="427"/><ellipse cx="962" cy="443" fill="#ADD1B2" rx="11" ry="11" style="stroke: #A80036; stroke-width: 1.0;"/><path d="M957,444.1563 C957,446.6563 959.1406,448.4688 962.0625,448.4688 C963.2969,448.4688 964.4688,448.1719 965.2188,447.6563 C965.8281,447.2344 966.1563,446.8125 966.1563,446.4063 C966.1563,445.9375 965.7344,445.5313 965.2344,445.5313 C965,445.5313 964.7813,445.6094 964.5781,445.8125 C964.1406,446.25 964.1406,446.25 963.9688,446.3438 C963.5156,446.5781 962.875,446.7188 962.1094,446.7188 C960.1094,446.7188 958.8281,445.7031 958.8281,444.125 L958.8281,443.0781 C958.8281,441.375 960.0469,440.1719 961.75,440.1719 C962.3281,440.1719 962.9063,440.3125 963.375,440.5625 C963.8438,440.8281 964.0156,441.0156 964.0781,441.375 C964.2031,442.0469 964.4531,442.2969 964.9844,442.2969 C965.2656,442.2969 965.5469,442.1563 965.7344,441.9375 C965.8594,441.7656 965.9063,441.5938 965.9063,441.1563 L965.9063,439.7969 C965.9063,439.375 965.8906,439.2344 965.7656,439.0625 C965.5938,438.8125 965.3125,438.6563 964.9844,438.6563 C964.6719,438.6563 964.4688,438.7656 964.25,439.0313 C963.0781,438.5313 962.6406,438.4219 961.6875,438.4219 C959.0156,438.4219 957,440.4375 957,443.0625 L957,444.1563 Z "/><text fill="#000000" font-family="sans-serif" font-size="14" font-weight="bold" lengthAdjust="spacingAndGlyphs" textLength="62" x="976" y="447.606">Category</text></a><!--class it.matlice.ingsw.model.data.factories.UserFactory--><a target="_parent" xlink:actuate="onRequest" xlink:href="../../../../../it/matlice/ingsw/model/data/factories/UserFactory.html" xlink:show="new" xlink:title="it.matlice.ingsw.model.data.factories.UserFactory" xlink:type="simple"><rect fill="#FEFECE" filter="url(#f61u9vr)" height="32" style="stroke: #A80036; stroke-width: 1.5;" width="115" x="53.5" y="59"/><ellipse cx="68.5" cy="75" fill="#B4A7E5" rx="11" ry="11" style="stroke: #A80036; stroke-width: 1.0;"/><path d="M69.5156,72.1563 L71.1719,72.1563 C71.5625,72.1563 71.7656,72.125 71.9219,72.0469 C72.1875,71.875 72.3594,71.5781 72.3594,71.2813 C72.3594,71 72.2188,70.75 71.9844,70.5781 C71.7969,70.4531 71.6406,70.4063 71.1719,70.4063 L66.0313,70.4063 C65.5938,70.4063 65.4531,70.4219 65.2813,70.5313 C65.0156,70.7031 64.8438,70.9844 64.8438,71.2813 C64.8438,71.5625 64.9844,71.8438 65.2188,72 C65.4063,72.125 65.5938,72.1563 66.0313,72.1563 L67.6875,72.1563 L67.6875,78.25 L66.0313,78.25 C65.5938,78.25 65.4531,78.2656 65.2813,78.375 C65.0156,78.5313 64.8438,78.8281 64.8438,79.1094 C64.8438,79.7188 65.25,80 66.0313,80 L71.1719,80 C71.9531,80 72.3594,79.7188 72.3594,79.1094 C72.3594,78.8438 72.2188,78.5938 71.9844,78.4219 C71.7969,78.2813 71.625,78.25 71.1719,78.25 L69.5156,78.25 L69.5156,72.1563 Z "/><text fill="#000000" font-family="sans-serif" font-size="14" font-style="italic" font-weight="bold" lengthAdjust="spacingAndGlyphs" textLength="83" x="82.5" y="80.95">UserFactory</text></a><!--class it.matlice.ingsw.model.data.factories.SettingsFactory--><a target="_parent" xlink:actuate="onRequest" xlink:href="../../../../../it/matlice/ingsw/model/data/factories/SettingsFactory.html" xlink:show="new" xlink:title="it.matlice.ingsw.model.data.factories.SettingsFactory" xlink:type="simple"><rect fill="#FEFECE" filter="url(#f61u9vr)" height="32" style="stroke: #A80036; stroke-width: 1.5;" width="141" x="203.5" y="59"/><ellipse cx="218.5" cy="75" fill="#B4A7E5" rx="11" ry="11" style="stroke: #A80036; stroke-width: 1.0;"/><path d="M219.5156,72.1563 L221.1719,72.1563 C221.5625,72.1563 221.7656,72.125 221.9219,72.0469 C222.1875,71.875 222.3594,71.5781 222.3594,71.2813 C222.3594,71 222.2188,70.75 221.9844,70.5781 C221.7969,70.4531 221.6406,70.4063 221.1719,70.4063 L216.0313,70.4063 C215.5938,70.4063 215.4531,70.4219 215.2813,70.5313 C215.0156,70.7031 214.8438,70.9844 214.8438,71.2813 C214.8438,71.5625 214.9844,71.8438 215.2188,72 C215.4063,72.125 215.5938,72.1563 216.0313,72.1563 L217.6875,72.1563 L217.6875,78.25 L216.0313,78.25 C215.5938,78.25 215.4531,78.2656 215.2813,78.375 C215.0156,78.5313 214.8438,78.8281 214.8438,79.1094 C214.8438,79.7188 215.25,80 216.0313,80 L221.1719,80 C221.9531,80 222.3594,79.7188 222.3594,79.1094 C222.3594,78.8438 222.2188,78.5938 221.9844,78.4219 C221.7969,78.2813 221.625,78.25 221.1719,78.25 L219.5156,78.25 L219.5156,72.1563 Z "/><text fill="#000000" font-family="sans-serif" font-size="14" font-style="italic" font-weight="bold" lengthAdjust="spacingAndGlyphs" textLength="109" x="232.5" y="80.95">SettingsFactory</text></a><!--class it.matlice.ingsw.model.data.factories.OfferFactory--><a target="_parent" xlink:actuate="onRequest" xlink:href="../../../../../it/matlice/ingsw/model/data/factories/OfferFactory.html" xlink:show="new" xlink:title="it.matlice.ingsw.model.data.factories.OfferFactory" xlink:type="simple"><rect fill="#FEFECE" filter="url(#f61u9vr)" height="32" style="stroke: #A80036; stroke-width: 1.5;" width="118" x="380" y="59"/><ellipse cx="395" cy="75" fill="#B4A7E5" rx="11" ry="11" style="stroke: #A80036; stroke-width: 1.0;"/><path d="M396.0156,72.1563 L397.6719,72.1563 C398.0625,72.1563 398.2656,72.125 398.4219,72.0469 C398.6875,71.875 398.8594,71.5781 398.8594,71.2813 C398.8594,71 398.7188,70.75 398.4844,70.5781 C398.2969,70.4531 398.1406,70.4063 397.6719,70.4063 L392.5313,70.4063 C392.0938,70.4063 391.9531,70.4219 391.7813,70.5313 C391.5156,70.7031 391.3438,70.9844 391.3438,71.2813 C391.3438,71.5625 391.4844,71.8438 391.7188,72 C391.9063,72.125 392.0938,72.1563 392.5313,72.1563 L394.1875,72.1563 L394.1875,78.25 L392.5313,78.25 C392.0938,78.25 391.9531,78.2656 391.7813,78.375 C391.5156,78.5313 391.3438,78.8281 391.3438,79.1094 C391.3438,79.7188 391.75,80 392.5313,80 L397.6719,80 C398.4531,80 398.8594,79.7188 398.8594,79.1094 C398.8594,78.8438 398.7188,78.5938 398.4844,78.4219 C398.2969,78.2813 398.125,78.25 397.6719,78.25 L396.0156,78.25 L396.0156,72.1563 Z "/><text fill="#000000" font-family="sans-serif" font-size="14" font-style="italic" font-weight="bold" lengthAdjust="spacingAndGlyphs" textLength="86" x="409" y="80.95">OfferFactory</text></a><!--class it.matlice.ingsw.model.data.factories.MessageFactory--><a target="_parent" xlink:actuate="onRequest" xlink:href="../../../../../it/matlice/ingsw/model/data/factories/MessageFactory.html" xlink:show="new" xlink:title="it.matlice.ingsw.model.data.factories.MessageFactory" xlink:type="simple"><rect fill="#FEFECE" filter="url(#f61u9vr)" height="32" style="stroke: #A80036; stroke-width: 1.5;" width="145" x="38.5" y="151"/><ellipse cx="53.5" cy="167" fill="#B4A7E5" rx="11" ry="11" style="stroke: #A80036; stroke-width: 1.0;"/><path d="M54.5156,164.1563 L56.1719,164.1563 C56.5625,164.1563 56.7656,164.125 56.9219,164.0469 C57.1875,163.875 57.3594,163.5781 57.3594,163.2813 C57.3594,163 57.2188,162.75 56.9844,162.5781 C56.7969,162.4531 56.6406,162.4063 56.1719,162.4063 L51.0313,162.4063 C50.5938,162.4063 50.4531,162.4219 50.2813,162.5313 C50.0156,162.7031 49.8438,162.9844 49.8438,163.2813 C49.8438,163.5625 49.9844,163.8438 50.2188,164 C50.4063,164.125 50.5938,164.1563 51.0313,164.1563 L52.6875,164.1563 L52.6875,170.25 L51.0313,170.25 C50.5938,170.25 50.4531,170.2656 50.2813,170.375 C50.0156,170.5313 49.8438,170.8281 49.8438,171.1094 C49.8438,171.7188 50.25,172 51.0313,172 L56.1719,172 C56.9531,172 57.3594,171.7188 57.3594,171.1094 C57.3594,170.8438 57.2188,170.5938 56.9844,170.4219 C56.7969,170.2813 56.625,170.25 56.1719,170.25 L54.5156,170.25 L54.5156,164.1563 Z "/><text fill="#000000" font-family="sans-serif" font-size="14" font-style="italic" font-weight="bold" lengthAdjust="spacingAndGlyphs" textLength="113" x="67.5" y="172.95">MessageFactory</text></a><!--class it.matlice.ingsw.model.data.factories.HierarchyFactory--><a target="_parent" xlink:actuate="onRequest" xlink:href="../../../../../it/matlice/ingsw/model/data/factories/HierarchyFactory.html" xlink:show="new" xlink:title="it.matlice.ingsw.model.data.factories.HierarchyFactory" xlink:type="simple"><rect fill="#FEFECE" filter="url(#f61u9vr)" height="32" style="stroke: #A80036; stroke-width: 1.5;" width="149" x="218.5" y="151"/><ellipse cx="233.5" cy="167" fill="#B4A7E5" rx="11" ry="11" style="stroke: #A80036; stroke-width: 1.0;"/><path d="M234.5156,164.1563 L236.1719,164.1563 C236.5625,164.1563 236.7656,164.125 236.9219,164.0469 C237.1875,163.875 237.3594,163.5781 237.3594,163.2813 C237.3594,163 237.2188,162.75 236.9844,162.5781 C236.7969,162.4531 236.6406,162.4063 236.1719,162.4063 L231.0313,162.4063 C230.5938,162.4063 230.4531,162.4219 230.2813,162.5313 C230.0156,162.7031 229.8438,162.9844 229.8438,163.2813 C229.8438,163.5625 229.9844,163.8438 230.2188,164 C230.4063,164.125 230.5938,164.1563 231.0313,164.1563 L232.6875,164.1563 L232.6875,170.25 L231.0313,170.25 C230.5938,170.25 230.4531,170.2656 230.2813,170.375 C230.0156,170.5313 229.8438,170.8281 229.8438,171.1094 C229.8438,171.7188 230.25,172 231.0313,172 L236.1719,172 C236.9531,172 237.3594,171.7188 237.3594,171.1094 C237.3594,170.8438 237.2188,170.5938 236.9844,170.4219 C236.7969,170.2813 236.625,170.25 236.1719,170.25 L234.5156,170.25 L234.5156,164.1563 Z "/><text fill="#000000" font-family="sans-serif" font-size="14" font-style="italic" font-weight="bold" lengthAdjust="spacingAndGlyphs" textLength="117" x="247.5" y="172.95">HierarchyFactory</text></a><!--class it.matlice.ingsw.model.data.factories.CategoryFactory--><a target="_parent" xlink:actuate="onRequest" xlink:href="../../../../../it/matlice/ingsw/model/data/factories/CategoryFactory.html" xlink:show="new" xlink:title="it.matlice.ingsw.model.data.factories.CategoryFactory" xlink:type="simple"><rect fill="#FEFECE" filter="url(#f61u9vr)" height="32" style="stroke: #A80036; stroke-width: 1.5;" width="146" x="403" y="151"/><ellipse cx="418" cy="167" fill="#B4A7E5" rx="11" ry="11" style="stroke: #A80036; stroke-width: 1.0;"/><path d="M419.0156,164.1563 L420.6719,164.1563 C421.0625,164.1563 421.2656,164.125 421.4219,164.0469 C421.6875,163.875 421.8594,163.5781 421.8594,163.2813 C421.8594,163 421.7188,162.75 421.4844,162.5781 C421.2969,162.4531 421.1406,162.4063 420.6719,162.4063 L415.5313,162.4063 C415.0938,162.4063 414.9531,162.4219 414.7813,162.5313 C414.5156,162.7031 414.3438,162.9844 414.3438,163.2813 C414.3438,163.5625 414.4844,163.8438 414.7188,164 C414.9063,164.125 415.0938,164.1563 415.5313,164.1563 L417.1875,164.1563 L417.1875,170.25 L415.5313,170.25 C415.0938,170.25 414.9531,170.2656 414.7813,170.375 C414.5156,170.5313 414.3438,170.8281 414.3438,171.1094 C414.3438,171.7188 414.75,172 415.5313,172 L420.6719,172 C421.4531,172 421.8594,171.7188 421.8594,171.1094 C421.8594,170.8438 421.7188,170.5938 421.4844,170.4219 C421.2969,170.2813 421.125,170.25 420.6719,170.25 L419.0156,170.25 L419.0156,164.1563 Z "/><text fill="#000000" font-family="sans-serif" font-size="14" font-style="italic" font-weight="bold" lengthAdjust="spacingAndGlyphs" textLength="114" x="432" y="172.95">CategoryFactory</text></a><path d="M994,551.03 C994,551.03 994,605.85 994,605.85 " fill="none" style="stroke: #A80036; stroke-width: 1.0;"/><polygon fill="#A80036" points="994,610.85,998,601.85,994,605.85,990,601.85,994,610.85" style="stroke: #A80036; stroke-width: 1.0;"/><text fill="#000000" font-family="sans-serif" font-size="13" lengthAdjust="spacingAndGlyphs" textLength="25" x="964.5469" y="599.6086">type</text><path d="M1154.83,75 C1169.8,75 1182.75,75 1182.75,75 C1182.75,75 1182.75,167 1182.75,167 C1182.75,167 1223.42,167 1223.42,167 " fill="none" style="stroke: #A80036; stroke-width: 1.0; stroke-dasharray: 7.0,7.0;"/><polygon fill="#A80036" points="1228.42,167,1219.42,163,1223.42,167,1219.42,171,1228.42,167" style="stroke: #A80036; stroke-width: 1.0;"/><path d="M1110,91.03 C1110,91.03 1110,145.85 1110,145.85 " fill="none" style="stroke: #A80036; stroke-width: 1.0; stroke-dasharray: 7.0,7.0;"/><polygon fill="#A80036" points="1110,150.85,1114,141.85,1110,145.85,1106,141.85,1110,150.85" style="stroke: #A80036; stroke-width: 1.0;"/><path d="M1165,150.69 C1165,141.16 1165,131 1165,131 C1165,131 1179.12,131 1179.12,131 C1179.12,131 1179.12,219 1179.12,219 C1179.12,219 1166.25,219 1166.25,219 C1166.25,219 1166.25,188.17 1166.25,188.17 " fill="none" style="stroke: #A80036; stroke-width: 1.0;"/><polygon fill="#A80036" points="1166.25,183.17,1162.25,192.17,1166.25,188.17,1170.25,192.17,1166.25,183.17" style="stroke: #A80036; stroke-width: 1.0;"/><text fill="#000000" font-family="sans-serif" font-size="13" lengthAdjust="spacingAndGlyphs" textLength="55" x="1118.7859" y="203.1871">dayMap *</text><path d="M969.33,183.29 C969.33,189.45 969.33,195 969.33,195 C969.33,195 806.5,195 806.5,195 C806.5,195 806.5,237.85 806.5,237.85 " fill="none" style="stroke: #A80036; stroke-width: 1.0; stroke-dasharray: 7.0,7.0;"/><polygon fill="#A80036" points="806.5,242.85,810.5,233.85,806.5,237.85,802.5,233.85,806.5,242.85" style="stroke: #A80036; stroke-width: 1.0;"/><path d="M983.67,183.03 C983.67,183.03 983.67,237.85 983.67,237.85 " fill="none" style="stroke: #A80036; stroke-width: 1.0; stroke-dasharray: 7.0,7.0;"/><polygon fill="#A80036" points="983.67,242.85,987.67,233.85,983.67,237.85,979.67,233.85,983.67,242.85" style="stroke: #A80036; stroke-width: 1.0;"/><path d="M1009.5,183.03 C1009.5,209.38 1009.5,259 1009.5,259 C1009.5,259 1027.86,259 1027.86,259 " fill="none" style="stroke: #A80036; stroke-width: 1.0; stroke-dasharray: 7.0,7.0;"/><polygon fill="#A80036" points="1032.86,259,1023.86,255,1027.86,259,1023.86,263,1032.86,259" style="stroke: #A80036; stroke-width: 1.0;"/><path d="M970.5,367.03 C970.5,367.03 970.5,421.85 970.5,421.85 " fill="none" style="stroke: #A80036; stroke-width: 1.0;"/><polygon fill="#A80036" points="970.5,426.85,974.5,417.85,970.5,421.85,966.5,417.85,970.5,426.85" style="stroke: #A80036; stroke-width: 1.0;"/><text fill="#000000" font-family="sans-serif" font-size="13" lengthAdjust="spacingAndGlyphs" textLength="54" x="898.5094" y="415.6086">children *</text><path d="M994,367.03 C994,367.03 994,406.85 994,406.85 " fill="none" style="stroke: #A80036; stroke-width: 1.0;"/><polygon fill="none" points="1001,406.85,994,426.85,987,406.85,1001,406.85" style="stroke: #A80036; stroke-width: 1.0;"/><path d="M1017.5,426.97 C1017.5,426.97 1017.5,372.15 1017.5,372.15 " fill="none" style="stroke: #A80036; stroke-width: 1.0;"/><polygon fill="#A80036" points="1017.5,367.15,1013.5,376.15,1017.5,372.15,1021.5,376.15,1017.5,367.15" style="stroke: #A80036; stroke-width: 1.0;"/><text fill="#000000" font-family="sans-serif" font-size="13" lengthAdjust="spacingAndGlyphs" textLength="33" x="986.8188" y="387.1605">father</text><path d="M988,91.03 C988,91.03 988,145.85 988,145.85 " fill="none" style="stroke: #A80036; stroke-width: 1.0; stroke-dasharray: 7.0,7.0;"/><polygon fill="#A80036" points="988,150.85,992,141.85,988,145.85,984,141.85,988,150.85" style="stroke: #A80036; stroke-width: 1.0;"/><path d="M1080.5,275.2 C1080.5,319.26 1080.5,438 1080.5,438 C1080.5,438 1061.05,438 1061.05,438 " fill="none" style="stroke: #A80036; stroke-width: 1.0;"/><polygon fill="none" points="1061.05,445,1041.05,438,1061.05,431,1061.05,445" style="stroke: #A80036; stroke-width: 1.0;"/><path d="M1041.02,449 C1069.55,449 1100.5,449 1100.5,449 C1100.5,449 1100.5,280.2 1100.5,280.2 " fill="none" style="stroke: #A80036; stroke-width: 1.0; stroke-dasharray: 7.0,7.0;"/><polygon fill="#A80036" points="1100.5,275.2,1096.5,284.2,1100.5,280.2,1104.5,284.2,1100.5,275.2" style="stroke: #A80036; stroke-width: 1.0;"/><path d="M1046,275.03 C1046,275.03 1046,329.85 1046,329.85 " fill="none" style="stroke: #A80036; stroke-width: 1.0; stroke-dasharray: 7.0,7.0;"/><polygon fill="#A80036" points="1046,334.85,1050,325.85,1046,329.85,1042,325.85,1046,334.85" style="stroke: #A80036; stroke-width: 1.0;"/><path d="M1249.25,183.03 C1249.25,183.03 1249.25,237.85 1249.25,237.85 " fill="none" style="stroke: #A80036; stroke-width: 1.0;"/><polygon fill="#A80036" points="1249.25,242.85,1253.25,233.85,1249.25,237.85,1245.25,233.85,1249.25,242.85" style="stroke: #A80036; stroke-width: 1.0;"/><text fill="#000000" font-family="sans-serif" font-size="13" lengthAdjust="spacingAndGlyphs" textLength="26" x="1217.6391" y="231.6086">start</text><path d="M1270,183.03 C1270,183.03 1270,237.85 1270,237.85 " fill="none" style="stroke: #A80036; stroke-width: 1.0;"/><polygon fill="#A80036" points="1270,242.85,1274,233.85,1270,237.85,1266,233.85,1270,242.85" style="stroke: #A80036; stroke-width: 1.0;"/><text fill="#000000" font-family="sans-serif" font-size="13" lengthAdjust="spacingAndGlyphs" textLength="21" x="1251.6719" y="231.6086">end</text><path d="M1270,150.8 C1270,134.26 1270,111 1270,111 C1270,111 1321,111 1321,111 C1321,111 1321,207 1321,207 C1321,207 1290.75,207 1290.75,207 C1290.75,207 1290.75,188.27 1290.75,188.27 " fill="none" style="stroke: #A80036; stroke-width: 1.0; stroke-dasharray: 7.0,7.0;"/><polygon fill="#A80036" points="1290.75,183.27,1286.75,192.27,1290.75,188.27,1294.75,192.27,1290.75,183.27" style="stroke: #A80036; stroke-width: 1.0;"/><path d="M1210.25,242.71 C1210.25,236.55 1210.25,231 1210.25,231 C1210.25,231 1186.38,231 1186.38,231 C1186.38,231 1186.38,305 1186.38,305 C1186.38,305 1252,305 1252,305 C1252,305 1252,280.09 1252,280.09 " fill="none" style="stroke: #A80036; stroke-width: 1.0; stroke-dasharray: 7.0,7.0;"/><polygon fill="#A80036" points="1252,275.09,1248,284.09,1252,280.09,1256,284.09,1252,275.09" style="stroke: #A80036; stroke-width: 1.0;"/><path d="M880.5,367.03 C880.5,393.38 880.5,443 880.5,443 C880.5,443 941.85,443 941.85,443 " fill="none" style="stroke: #A80036; stroke-width: 1.0;"/><polygon fill="#A80036" points="946.85,443,937.85,439,941.85,443,937.85,447,946.85,443" style="stroke: #A80036; stroke-width: 1.0;"/><text fill="#000000" font-family="sans-serif" font-size="13" lengthAdjust="spacingAndGlyphs" textLength="74" x="865.0924" y="439.4133">rootCategory</text><path d="M798.5,183.03 C798.5,183.03 798.5,222.85 798.5,222.85 " fill="none" style="stroke: #A80036; stroke-width: 1.0;"/><polygon fill="none" points="805.5,222.85,798.5,242.85,791.5,222.85,805.5,222.85" style="stroke: #A80036; stroke-width: 1.0;"/><path d="M755.3,167 C765.62,167 772.75,167 772.75,167 C772.75,167 772.75,222.97 772.75,222.97 " fill="none" style="stroke: #A80036; stroke-width: 1.0;"/><polygon fill="none" points="779.75,222.97,772.75,242.97,765.75,222.97,779.75,222.97" style="stroke: #A80036; stroke-width: 1.0;"/><path d="M994,459.03 C994,459.03 994,513.85 994,513.85 " fill="none" style="stroke: #A80036; stroke-width: 1.0; stroke-dasharray: 7.0,7.0;"/><polygon fill="#A80036" points="994,518.85,998,509.85,994,513.85,990,509.85,994,518.85" style="stroke: #A80036; stroke-width: 1.0;"/></g></svg>