<?xml version="1.0" encoding="UTF-8" standalone="no"?><svg xmlns="http://www.w3.org/2000/svg" xmlns:xlink="http://www.w3.org/1999/xlink" contentScriptType="application/ecmascript" contentStyleType="text/css" height="359px" preserveAspectRatio="none" style="width:876px;height:359px;" version="1.1" viewBox="0 0 876 359" width="876px" zoomAndPan="magnify"><defs><filter height="300%" id="fcfd48f" width="300%" x="-1" y="-1"><feGaussianBlur result="blurOut" stdDeviation="2.0"/><feColorMatrix in="blurOut" result="blurOut2" type="matrix" values="0 0 0 0 0 0 0 0 0 0 0 0 0 0 0 0 0 0 .4 0"/><feOffset dx="4.0" dy="4.0" in="blurOut2" result="blurOut3"/><feBlend in="SourceGraphic" in2="blurOut3" mode="normal"/></filter></defs><g><!--class it.matlice.ingsw.model.data.Settings--><a target="_parent" xlink:actuate="onRequest" xlink:href="../../../../../it/matlice/ingsw/model/data/Settings.html" xlink:show="new" xlink:title="it.matlice.ingsw.model.data.Settings" xlink:type="simple"><rect fill="#FEFECE" filter="url(#fcfd48f)" height="142.2493" style="stroke: #A80036; stroke-width: 1.5;" width="159" x="309.5" y="110"/><ellipse cx="325.85" cy="129.4" fill="#ADD1B2" rx="11" ry="11" style="stroke: #A80036; stroke-width: 1.0;"/><path d="M320.85,130.5562 C320.85,133.0562 322.9906,134.8687 325.9125,134.8687 C327.1469,134.8687 328.3188,134.5718 329.0688,134.0562 C329.6781,133.6343 330.0063,133.2125 330.0063,132.8062 C330.0063,132.3375 329.5844,131.9312 329.0844,131.9312 C328.85,131.9312 328.6313,132.0093 328.4281,132.2125 C327.9906,132.65 327.9906,132.65 327.8188,132.7437 C327.3656,132.9781 326.725,133.1187 325.9594,133.1187 C323.9594,133.1187 322.6781,132.1031 322.6781,130.525 L322.6781,129.4781 C322.6781,127.775 323.8969,126.5718 325.6,126.5718 C326.1781,126.5718 326.7563,126.7125 327.225,126.9625 C327.6938,127.2281 327.8656,127.4156 327.9281,127.775 C328.0531,128.4468 328.3031,128.6968 328.8344,128.6968 C329.1156,128.6968 329.3969,128.5562 329.5844,128.3375 C329.7094,128.1656 329.7563,127.9937 329.7563,127.5562 L329.7563,126.1968 C329.7563,125.775 329.7406,125.6343 329.6156,125.4625 C329.4438,125.2125 329.1625,125.0562 328.8344,125.0562 C328.5219,125.0562 328.3188,125.1656 328.1,125.4312 C326.9281,124.9312 326.4906,124.8218 325.5375,124.8218 C322.8656,124.8218 320.85,126.8375 320.85,129.4625 L320.85,130.5562 Z "/><text fill="#000000" font-family="sans-serif" font-size="14" font-weight="bold" lengthAdjust="spacingAndGlyphs" textLength="57" x="373.65" y="128.0059">Settings</text><text fill="#000000" font-family="sans-serif" font-size="10" lengthAdjust="spacingAndGlyphs" textLength="124" x="340.15" y="141.0899">it.matlice.ingsw.model.data</text><line style="stroke: #A80036; stroke-width: 1.5;" x1="310.5" x2="467.5" y1="148.7999" y2="148.7999"/><line style="stroke: #A80036; stroke-width: 1.5;" x1="310.5" x2="467.5" y1="156.7999" y2="156.7999"/><ellipse cx="320.5" cy="168.8999" fill="#84BE84" rx="3" ry="3" style="stroke: #038048; stroke-width: 1.0;"/><text fill="#000000" font-family="sans-serif" font-size="11" lengthAdjust="spacingAndGlyphs" textLength="47" x="329.5" y="171.0188">Settings()</text><ellipse cx="320.5" cy="182.9248" fill="#84BE84" rx="3" ry="3" style="stroke: #038048; stroke-width: 1.0;"/><text fill="#000000" font-family="sans-serif" font-size="11" font-style="italic" lengthAdjust="spacingAndGlyphs" textLength="73" x="329.5" y="186.0997">String getCity()</text><ellipse cx="320.5" cy="197.7747" fill="#84BE84" rx="3" ry="3" style="stroke: #038048; stroke-width: 1.0;"/><text fill="#000000" font-family="sans-serif" font-size="11" font-style="italic" lengthAdjust="spacingAndGlyphs" textLength="57" x="329.5" y="200.9496">int getDue()</text><ellipse cx="320.5" cy="212.6245" fill="#84BE84" rx="3" ry="3" style="stroke: #038048; stroke-width: 1.0;"/><text fill="#000000" font-family="sans-serif" font-size="11" font-style="italic" lengthAdjust="spacingAndGlyphs" textLength="130" x="329.5" y="215.7995">List&lt;String&gt; getLocations()</text><ellipse cx="320.5" cy="227.4744" fill="#84BE84" rx="3" ry="3" style="stroke: #038048; stroke-width: 1.0;"/><text fill="#000000" font-family="sans-serif" font-size="11" font-style="italic" lengthAdjust="spacingAndGlyphs" textLength="133" x="329.5" y="230.6494">List&lt;Interval&gt; getIntervals()</text><ellipse cx="320.5" cy="242.3243" fill="#84BE84" rx="3" ry="3" style="stroke: #038048; stroke-width: 1.0;"/><text fill="#000000" font-family="sans-serif" font-size="11" font-style="italic" lengthAdjust="spacingAndGlyphs" textLength="101" x="329.5" y="245.4993">List&lt;Day&gt; getDays()</text></a><!--class it.matlice.ingsw.model.Model--><a target="_parent" xlink:actuate="onRequest" xlink:href="../../../../../it/matlice/ingsw/model/Model.html" xlink:show="new" xlink:title="it.matlice.ingsw.model.Model" xlink:type="simple"><rect fill="#FFFFFF" filter="url(#fcfd48f)" height="38.7999" style="stroke: #A80036; stroke-width: 1.5;" width="132" x="6" y="9.5"/><rect fill="#FFFFFF" height="38.7999" style="stroke: #A80036; stroke-width: 1.5;" width="132" x="6" y="9.5"/><ellipse cx="21" cy="28.9" fill="#ADD1B2" rx="11" ry="11" style="stroke: #A80036; stroke-width: 1.0;"/><path d="M16,30.0562 C16,32.5562 18.1406,34.3687 21.0625,34.3687 C22.2969,34.3687 23.4688,34.0718 24.2188,33.5562 C24.8281,33.1343 25.1563,32.7125 25.1563,32.3062 C25.1563,31.8375 24.7344,31.4312 24.2344,31.4312 C24,31.4312 23.7813,31.5093 23.5781,31.7125 C23.1406,32.15 23.1406,32.15 22.9688,32.2437 C22.5156,32.4781 21.875,32.6187 21.1094,32.6187 C19.1094,32.6187 17.8281,31.6031 17.8281,30.025 L17.8281,28.9781 C17.8281,27.275 19.0469,26.0718 20.75,26.0718 C21.3281,26.0718 21.9063,26.2125 22.375,26.4625 C22.8438,26.7281 23.0156,26.9156 23.0781,27.275 C23.2031,27.9468 23.4531,28.1968 23.9844,28.1968 C24.2656,28.1968 24.5469,28.0562 24.7344,27.8375 C24.8594,27.6656 24.9063,27.4937 24.9063,27.0562 L24.9063,25.6968 C24.9063,25.275 24.8906,25.1343 24.7656,24.9625 C24.5938,24.7125 24.3125,24.5562 23.9844,24.5562 C23.6719,24.5562 23.4688,24.6656 23.25,24.9312 C22.0781,24.4312 21.6406,24.3218 20.6875,24.3218 C18.0156,24.3218 16,26.3375 16,28.9625 L16,30.0562 Z "/><text fill="#000000" font-family="sans-serif" font-size="14" font-weight="bold" lengthAdjust="spacingAndGlyphs" textLength="42" x="64" y="27.5059">Model</text><text fill="#000000" font-family="sans-serif" font-size="10" lengthAdjust="spacingAndGlyphs" textLength="100" x="35" y="40.5899">it.matlice.ingsw.model</text></a><!--class it.matlice.ingsw.model.data.Interval--><a target="_parent" xlink:actuate="onRequest" xlink:href="../../../../../it/matlice/ingsw/model/data/Interval.html" xlink:show="new" xlink:title="it.matlice.ingsw.model.data.Interval" xlink:type="simple"><rect fill="#FEFECE" filter="url(#fcfd48f)" height="38.7999" style="stroke: #A80036; stroke-width: 1.5;" width="156" x="216" y="312"/><ellipse cx="231" cy="331.4" fill="#ADD1B2" rx="11" ry="11" style="stroke: #A80036; stroke-width: 1.0;"/><path d="M226,332.5562 C226,335.0562 228.1406,336.8687 231.0625,336.8687 C232.2969,336.8687 233.4688,336.5718 234.2188,336.0562 C234.8281,335.6343 235.1563,335.2125 235.1563,334.8062 C235.1563,334.3375 234.7344,333.9312 234.2344,333.9312 C234,333.9312 233.7813,334.0093 233.5781,334.2125 C233.1406,334.65 233.1406,334.65 232.9688,334.7437 C232.5156,334.9781 231.875,335.1187 231.1094,335.1187 C229.1094,335.1187 227.8281,334.1031 227.8281,332.525 L227.8281,331.4781 C227.8281,329.775 229.0469,328.5718 230.75,328.5718 C231.3281,328.5718 231.9063,328.7125 232.375,328.9625 C232.8438,329.2281 233.0156,329.4156 233.0781,329.775 C233.2031,330.4468 233.4531,330.6968 233.9844,330.6968 C234.2656,330.6968 234.5469,330.5562 234.7344,330.3375 C234.8594,330.1656 234.9063,329.9937 234.9063,329.5562 L234.9063,328.1968 C234.9063,327.775 234.8906,327.6343 234.7656,327.4625 C234.5938,327.2125 234.3125,327.0562 233.9844,327.0562 C233.6719,327.0562 233.4688,327.1656 233.25,327.4312 C232.0781,326.9312 231.6406,326.8218 230.6875,326.8218 C228.0156,326.8218 226,328.8375 226,331.4625 L226,332.5562 Z "/><text fill="#000000" font-family="sans-serif" font-size="14" font-weight="bold" lengthAdjust="spacingAndGlyphs" textLength="51" x="281.5" y="330.0059">Interval</text><text fill="#000000" font-family="sans-serif" font-size="10" lengthAdjust="spacingAndGlyphs" textLength="124" x="245" y="343.0899">it.matlice.ingsw.model.data</text></a><!--class it.matlice.ingsw.model.data.Settings.Day--><a target="_parent" xlink:actuate="onRequest" xlink:href="../../../../../it/matlice/ingsw/model/data/Settings.Day.html" xlink:show="new" xlink:title="it.matlice.ingsw.model.data.Settings.Day" xlink:type="simple"><rect fill="#FEFECE" filter="url(#fcfd48f)" height="38.7999" style="stroke: #A80036; stroke-width: 1.5;" width="156" x="407" y="312"/><ellipse cx="422" cy="331.4" fill="#EB937F" rx="11" ry="11" style="stroke: #A80036; stroke-width: 1.0;"/><path d="M420.8594,332.4625 L422.1719,332.4625 L422.1719,332.5093 C422.1719,332.9156 422.1875,333.0718 422.2969,333.2281 C422.4688,333.4781 422.7656,333.65 423.0781,333.65 C423.3594,333.65 423.6563,333.5093 423.8281,333.2906 C423.9531,333.1031 424,332.9625 424,332.5093 L424,330.6656 C424,330.3375 423.9844,330.2281 423.9219,330.0562 C423.8125,329.7593 423.4531,329.5093 423.0781,329.5093 C422.7813,329.5093 422.5156,329.65 422.3438,329.8687 C422.2031,330.0562 422.1719,330.2281 422.1719,330.6656 L422.1719,330.7281 L420.8594,330.7281 L420.8594,328.5562 L424.7031,328.5562 L424.7031,329.3062 C424.7031,329.6968 424.7344,329.8843 424.8438,330.0406 C425.0156,330.2906 425.3125,330.4625 425.625,330.4625 C425.9219,330.4625 426.1875,330.3375 426.375,330.1031 C426.5156,329.9156 426.5469,329.775 426.5469,329.3062 L426.5469,326.8062 L418.8438,326.8062 C418.3906,326.8062 418.2656,326.8218 418.0938,326.9312 C417.8281,327.1031 417.6563,327.3687 417.6563,327.6812 C417.6563,327.9625 417.7813,328.2281 418.0313,328.4 C418.2188,328.525 418.4063,328.5562 418.8438,328.5562 L419.0313,328.5562 L419.0313,334.65 L418.8438,334.65 C418.4219,334.65 418.2656,334.6812 418.0938,334.775 C417.8281,334.9312 417.6563,335.2125 417.6563,335.5093 C417.6563,336.0875 418.0625,336.4 418.8438,336.4 L426.9219,336.4 L426.9219,333.8687 C426.9219,333.4625 426.8906,333.2906 426.7813,333.1343 C426.6094,332.8687 426.3281,332.7125 426,332.7125 C425.7188,332.7125 425.4375,332.8531 425.25,333.0718 C425.1094,333.2593 425.0781,333.4156 425.0781,333.8687 L425.0781,334.65 L420.8594,334.65 L420.8594,332.4625 Z "/><text fill="#000000" font-family="sans-serif" font-size="14" font-weight="bold" lengthAdjust="spacingAndGlyphs" textLength="87" x="454.5" y="330.0059">Settings.Day</text><text fill="#000000" font-family="sans-serif" font-size="10" lengthAdjust="spacingAndGlyphs" textLength="124" x="436" y="343.0899">it.matlice.ingsw.model.data</text></a><!--class it.matlice.ingsw.model.data.factories.SettingsFactory--><a target="_parent" xlink:actuate="onRequest" xlink:href="../../../../../it/matlice/ingsw/model/data/factories/SettingsFactory.html" xlink:show="new" xlink:title="it.matlice.ingsw.model.data.factories.SettingsFactory" xlink:type="simple"><rect fill="#FFFFFF" filter="url(#fcfd48f)" height="42.3999" style="stroke: #A80036; stroke-width: 1.5;" width="198" x="173" y="8"/><rect fill="#FFFFFF" height="42.3999" style="stroke: #A80036; stroke-width: 1.5;" width="198" x="173" y="8"/><ellipse cx="188" cy="29.2" fill="#B4A7E5" rx="11" ry="11" style="stroke: #A80036; stroke-width: 1.0;"/><path d="M189.0156,26.3562 L190.6719,26.3562 C191.0625,26.3562 191.2656,26.325 191.4219,26.2468 C191.6875,26.075 191.8594,25.7781 191.8594,25.4812 C191.8594,25.2 191.7188,24.95 191.4844,24.7781 C191.2969,24.6531 191.1406,24.6062 190.6719,24.6062 L185.5313,24.6062 C185.0938,24.6062 184.9531,24.6218 184.7813,24.7312 C184.5156,24.9031 184.3438,25.1843 184.3438,25.4812 C184.3438,25.7625 184.4844,26.0437 184.7188,26.2 C184.9063,26.325 185.0938,26.3562 185.5313,26.3562 L187.1875,26.3562 L187.1875,32.45 L185.5313,32.45 C185.0938,32.45 184.9531,32.4656 184.7813,32.575 C184.5156,32.7312 184.3438,33.0281 184.3438,33.3093 C184.3438,33.9187 184.75,34.2 185.5313,34.2 L190.6719,34.2 C191.4531,34.2 191.8594,33.9187 191.8594,33.3093 C191.8594,33.0437 191.7188,32.7937 191.4844,32.6218 C191.2969,32.4812 191.125,32.45 190.6719,32.45 L189.0156,32.45 L189.0156,26.3562 Z "/><text fill="#000000" font-family="sans-serif" font-size="14" font-style="italic" font-weight="bold" lengthAdjust="spacingAndGlyphs" textLength="109" x="230.5" y="28.3999">SettingsFactory</text><text fill="#000000" font-family="sans-serif" font-size="10" font-style="italic" lengthAdjust="spacingAndGlyphs" textLength="166" x="202" y="42.8999">it.matlice.ingsw.model.data.factories</text></a><!--class it.matlice.ingsw.model.data.impl.jdbc.SettingsFactoryImpl--><a target="_parent" xlink:actuate="onRequest" xlink:href="../../../../../it/matlice/ingsw/model/data/impl/jdbc/SettingsFactoryImpl.html" xlink:show="new" xlink:title="it.matlice.ingsw.model.data.impl.jdbc.SettingsFactoryImpl" xlink:type="simple"><rect fill="#FFFFFF" filter="url(#fcfd48f)" height="38.7999" style="stroke: #A80036; stroke-width: 1.5;" width="199" x="406.5" y="9.5"/><rect fill="#FFFFFF" height="38.7999" style="stroke: #A80036; stroke-width: 1.5;" width="199" x="406.5" y="9.5"/><ellipse cx="421.5" cy="28.9" fill="#ADD1B2" rx="11" ry="11" style="stroke: #A80036; stroke-width: 1.0;"/><path d="M416.5,30.0562 C416.5,32.5562 418.6406,34.3687 421.5625,34.3687 C422.7969,34.3687 423.9688,34.0718 424.7188,33.5562 C425.3281,33.1343 425.6563,32.7125 425.6563,32.3062 C425.6563,31.8375 425.2344,31.4312 424.7344,31.4312 C424.5,31.4312 424.2813,31.5093 424.0781,31.7125 C423.6406,32.15 423.6406,32.15 423.4688,32.2437 C423.0156,32.4781 422.375,32.6187 421.6094,32.6187 C419.6094,32.6187 418.3281,31.6031 418.3281,30.025 L418.3281,28.9781 C418.3281,27.275 419.5469,26.0718 421.25,26.0718 C421.8281,26.0718 422.4063,26.2125 422.875,26.4625 C423.3438,26.7281 423.5156,26.9156 423.5781,27.275 C423.7031,27.9468 423.9531,28.1968 424.4844,28.1968 C424.7656,28.1968 425.0469,28.0562 425.2344,27.8375 C425.3594,27.6656 425.4063,27.4937 425.4063,27.0562 L425.4063,25.6968 C425.4063,25.275 425.3906,25.1343 425.2656,24.9625 C425.0938,24.7125 424.8125,24.5562 424.4844,24.5562 C424.1719,24.5562 423.9688,24.6656 423.75,24.9312 C422.5781,24.4312 422.1406,24.3218 421.1875,24.3218 C418.5156,24.3218 416.5,26.3375 416.5,28.9625 L416.5,30.0562 Z "/><text fill="#000000" font-family="sans-serif" font-size="14" font-weight="bold" lengthAdjust="spacingAndGlyphs" textLength="138" x="450" y="27.5059">SettingsFactoryImpl</text><text fill="#000000" font-family="sans-serif" font-size="10" lengthAdjust="spacingAndGlyphs" textLength="167" x="435.5" y="40.5899">it.matlice.ingsw.model.data.impl.jdbc</text></a><!--class it.matlice.ingsw.model.data.impl.jdbc.types.SettingsImpl--><a target="_parent" xlink:actuate="onRequest" xlink:href="../../../../../it/matlice/ingsw/model/data/impl/jdbc/types/SettingsImpl.html" xlink:show="new" xlink:title="it.matlice.ingsw.model.data.impl.jdbc.types.SettingsImpl" xlink:type="simple"><rect fill="#FFFFFF" filter="url(#fcfd48f)" height="38.7999" style="stroke: #A80036; stroke-width: 1.5;" width="227" x="640.5" y="9.5"/><rect fill="#FFFFFF" height="38.7999" style="stroke: #A80036; stroke-width: 1.5;" width="227" x="640.5" y="9.5"/><ellipse cx="655.5" cy="28.9" fill="#ADD1B2" rx="11" ry="11" style="stroke: #A80036; stroke-width: 1.0;"/><path d="M650.5,30.0562 C650.5,32.5562 652.6406,34.3687 655.5625,34.3687 C656.7969,34.3687 657.9688,34.0718 658.7188,33.5562 C659.3281,33.1343 659.6563,32.7125 659.6563,32.3062 C659.6563,31.8375 659.2344,31.4312 658.7344,31.4312 C658.5,31.4312 658.2813,31.5093 658.0781,31.7125 C657.6406,32.15 657.6406,32.15 657.4688,32.2437 C657.0156,32.4781 656.375,32.6187 655.6094,32.6187 C653.6094,32.6187 652.3281,31.6031 652.3281,30.025 L652.3281,28.9781 C652.3281,27.275 653.5469,26.0718 655.25,26.0718 C655.8281,26.0718 656.4063,26.2125 656.875,26.4625 C657.3438,26.7281 657.5156,26.9156 657.5781,27.275 C657.7031,27.9468 657.9531,28.1968 658.4844,28.1968 C658.7656,28.1968 659.0469,28.0562 659.2344,27.8375 C659.3594,27.6656 659.4063,27.4937 659.4063,27.0562 L659.4063,25.6968 C659.4063,25.275 659.3906,25.1343 659.2656,24.9625 C659.0938,24.7125 658.8125,24.5562 658.4844,24.5562 C658.1719,24.5562 657.9688,24.6656 657.75,24.9312 C656.5781,24.4312 656.1406,24.3218 655.1875,24.3218 C652.5156,24.3218 650.5,26.3375 650.5,28.9625 L650.5,30.0562 Z "/><text fill="#000000" font-family="sans-serif" font-size="14" font-weight="bold" lengthAdjust="spacingAndGlyphs" textLength="86" x="724" y="27.5059">SettingsImpl</text><text fill="#000000" font-family="sans-serif" font-size="10" lengthAdjust="spacingAndGlyphs" textLength="195" x="669.5" y="40.5899">it.matlice.ingsw.model.data.impl.jdbc.types</text></a><path d="M72,48.56 C72,89.61 72,181 72,181 C72,181 304.42,181 304.42,181 " fill="none" style="stroke: #A80036; stroke-width: 1.0;"/><polygon fill="#A80036" points="309.42,181,300.42,177,304.42,181,300.42,185,309.42,181" style="stroke: #A80036; stroke-width: 1.0;"/><text fill="#000000" font-family="sans-serif" font-size="13" lengthAdjust="spacingAndGlyphs" textLength="46" x="255.5662" y="177.5162">settings</text><path d="M340.75,252.28 C340.75,252.28 340.75,306.84 340.75,306.84 " fill="none" style="stroke: #A80036; stroke-width: 1.0; stroke-dasharray: 7.0,7.0;"/><polygon fill="#A80036" points="340.75,311.84,344.75,302.84,340.75,306.84,336.75,302.84,340.75,311.84" style="stroke: #A80036; stroke-width: 1.0;"/><path d="M437.75,252.28 C437.75,252.28 437.75,306.84 437.75,306.84 " fill="none" style="stroke: #A80036; stroke-width: 1.0; stroke-dasharray: 7.0,7.0;"/><polygon fill="#A80036" points="437.75,311.84,441.75,302.84,437.75,306.84,433.75,302.84,437.75,311.84" style="stroke: #A80036; stroke-width: 1.0;"/><path d="M340.25,50.13 C340.25,50.13 340.25,104.9 340.25,104.9 " fill="none" style="stroke: #A80036; stroke-width: 1.0; stroke-dasharray: 7.0,7.0;"/><polygon fill="#A80036" points="340.25,109.9,344.25,100.9,340.25,104.9,336.25,100.9,340.25,109.9" style="stroke: #A80036; stroke-width: 1.0;"/><path d="M437.5,48.56 C437.5,48.56 437.5,104.89 437.5,104.89 " fill="none" style="stroke: #A80036; stroke-width: 1.0; stroke-dasharray: 7.0,7.0;"/><polygon fill="#A80036" points="437.5,109.89,441.5257,100.9015,437.5143,104.89,433.5257,100.8786,437.5,109.89" style="stroke: #A80036; stroke-width: 1.0;"/><path d="M754,48.56 C754,89.61 754,181 754,181 C754,181 488.65,181 488.65,181 " fill="none" style="stroke: #A80036; stroke-width: 1.0;"/><polygon fill="none" points="488.65,188,468.65,181,488.65,174,488.65,188" style="stroke: #A80036; stroke-width: 1.0;"/></g></svg>