<?xml version="1.0" encoding="UTF-8" standalone="no"?><svg xmlns="http://www.w3.org/2000/svg" xmlns:xlink="http://www.w3.org/1999/xlink" contentScriptType="application/ecmascript" contentStyleType="text/css" height="317px" preserveAspectRatio="none" style="width:1551px;height:317px;" version="1.1" viewBox="0 0 1551 317" width="1551px" zoomAndPan="magnify"><defs><filter height="300%" id="f4o50ar" width="300%" x="-1" y="-1"><feGaussianBlur result="blurOut" stdDeviation="2.0"/><feColorMatrix in="blurOut" result="blurOut2" type="matrix" values="0 0 0 0 0 0 0 0 0 0 0 0 0 0 0 0 0 0 .4 0"/><feOffset dx="4.0" dy="4.0" in="blurOut2" result="blurOut3"/><feBlend in="SourceGraphic" in2="blurOut3" mode="normal"/></filter></defs><g><!--class it.matlice.ingsw.model.data.Settings.Day--><a target="_parent" xlink:actuate="onRequest" xlink:href="../../../../../it/matlice/ingsw/model/data/Settings.Day.html" xlink:show="new" xlink:title="it.matlice.ingsw.model.data.Settings.Day" xlink:type="simple"><rect fill="#FEFECE" filter="url(#f4o50ar)" height="173.599" style="stroke: #A80036; stroke-width: 1.5;" width="198" x="598" y="123"/><ellipse cx="631.9" cy="142.4" fill="#EB937F" rx="11" ry="11" style="stroke: #A80036; stroke-width: 1.0;"/><path d="M630.7594,143.4625 L632.0719,143.4625 L632.0719,143.5093 C632.0719,143.9156 632.0875,144.0718 632.1969,144.2281 C632.3688,144.4781 632.6656,144.65 632.9781,144.65 C633.2594,144.65 633.5563,144.5093 633.7281,144.2906 C633.8531,144.1031 633.9,143.9625 633.9,143.5093 L633.9,141.6656 C633.9,141.3375 633.8844,141.2281 633.8219,141.0562 C633.7125,140.7593 633.3531,140.5093 632.9781,140.5093 C632.6813,140.5093 632.4156,140.65 632.2438,140.8687 C632.1031,141.0562 632.0719,141.2281 632.0719,141.6656 L632.0719,141.7281 L630.7594,141.7281 L630.7594,139.5562 L634.6031,139.5562 L634.6031,140.3062 C634.6031,140.6968 634.6344,140.8843 634.7438,141.0406 C634.9156,141.2906 635.2125,141.4625 635.525,141.4625 C635.8219,141.4625 636.0875,141.3375 636.275,141.1031 C636.4156,140.9156 636.4469,140.775 636.4469,140.3062 L636.4469,137.8062 L628.7438,137.8062 C628.2906,137.8062 628.1656,137.8218 627.9938,137.9312 C627.7281,138.1031 627.5563,138.3687 627.5563,138.6812 C627.5563,138.9625 627.6813,139.2281 627.9313,139.4 C628.1188,139.525 628.3063,139.5562 628.7438,139.5562 L628.9313,139.5562 L628.9313,145.65 L628.7438,145.65 C628.3219,145.65 628.1656,145.6812 627.9938,145.775 C627.7281,145.9312 627.5563,146.2125 627.5563,146.5093 C627.5563,147.0875 627.9625,147.4 628.7438,147.4 L636.8219,147.4 L636.8219,144.8687 C636.8219,144.4625 636.7906,144.2906 636.6813,144.1343 C636.5094,143.8687 636.2281,143.7125 635.9,143.7125 C635.6188,143.7125 635.3375,143.8531 635.15,144.0718 C635.0094,144.2593 634.9781,144.4156 634.9781,144.8687 L634.9781,145.65 L630.7594,145.65 L630.7594,143.4625 Z "/><text fill="#000000" font-family="sans-serif" font-size="14" font-weight="bold" lengthAdjust="spacingAndGlyphs" textLength="87" x="668.6" y="141.0059">Settings.Day</text><text fill="#000000" font-family="sans-serif" font-size="10" lengthAdjust="spacingAndGlyphs" textLength="124" x="650.1" y="154.0899">it.matlice.ingsw.model.data</text><line style="stroke: #A80036; stroke-width: 1.5;" x1="599" x2="795" y1="161.7999" y2="161.7999"/><ellipse cx="609" cy="173.8999" fill="none" rx="3" ry="3" style="stroke: #038048; stroke-width: 1.0;"/><text fill="#000000" font-family="sans-serif" font-size="11" lengthAdjust="spacingAndGlyphs" text-decoration="underline" textLength="129" x="618" y="176.0188">Map&lt;String, Day&gt; dayMap</text><line style="stroke: #000000; stroke-width: 1.0;" x1="618" x2="747" y1="178.0188" y2="178.0188"/><rect fill="none" height="6" style="stroke: #C82930; stroke-width: 1.0;" width="6" x="606" y="184.0998"/><text fill="#000000" font-family="sans-serif" font-size="11" lengthAdjust="spacingAndGlyphs" textLength="44" x="618" y="189.2187">String str</text><rect fill="none" height="6" style="stroke: #C82930; stroke-width: 1.0;" width="6" x="606" y="197.2997"/><text fill="#000000" font-family="sans-serif" font-size="11" lengthAdjust="spacingAndGlyphs" textLength="80" x="618" y="202.4186">int calendar_day</text><line style="stroke: #A80036; stroke-width: 1.5;" x1="599" x2="795" y1="209.3996" y2="209.3996"/><rect fill="#F24D5C" height="6" style="stroke: #C82930; stroke-width: 1.0;" width="6" x="606" y="218.4996"/><text fill="#000000" font-family="sans-serif" font-size="11" lengthAdjust="spacingAndGlyphs" textLength="148" x="618" y="223.6185">Day(String s,int calendar_day)</text><ellipse cx="609" cy="234.6995" fill="#84BE84" rx="3" ry="3" style="stroke: #038048; stroke-width: 1.0;"/><text fill="#000000" font-family="sans-serif" font-size="11" lengthAdjust="spacingAndGlyphs" text-decoration="underline" textLength="105" x="618" y="236.8184">Settings.Day values()</text><line style="stroke: #000000; stroke-width: 1.0;" x1="618" x2="723" y1="238.8184" y2="238.8184"/><ellipse cx="609" cy="247.8994" fill="#84BE84" rx="3" ry="3" style="stroke: #038048; stroke-width: 1.0;"/><text fill="#000000" font-family="sans-serif" font-size="11" lengthAdjust="spacingAndGlyphs" text-decoration="underline" textLength="169" x="618" y="250.0183">Settings.Day valueOf(String name)</text><line style="stroke: #000000; stroke-width: 1.0;" x1="618" x2="787" y1="252.0183" y2="252.0183"/><ellipse cx="609" cy="261.0993" fill="#84BE84" rx="3" ry="3" style="stroke: #038048; stroke-width: 1.0;"/><text fill="#000000" font-family="sans-serif" font-size="11" lengthAdjust="spacingAndGlyphs" text-decoration="underline" textLength="172" x="618" y="263.2182">Settings.Day fromString(String day)</text><line style="stroke: #000000; stroke-width: 1.0;" x1="618" x2="790" y1="265.2182" y2="265.2182"/><ellipse cx="609" cy="274.2992" fill="#84BE84" rx="3" ry="3" style="stroke: #038048; stroke-width: 1.0;"/><text fill="#000000" font-family="sans-serif" font-size="11" lengthAdjust="spacingAndGlyphs" textLength="83" x="618" y="276.4182">String getName()</text><ellipse cx="609" cy="287.4991" fill="#84BE84" rx="3" ry="3" style="stroke: #038048; stroke-width: 1.0;"/><text fill="#000000" font-family="sans-serif" font-size="11" lengthAdjust="spacingAndGlyphs" textLength="101" x="618" y="289.6181">int getCalendarDay()</text></a><!--class it.matlice.ingsw.model.Model--><a target="_parent" xlink:actuate="onRequest" xlink:href="../../../../../it/matlice/ingsw/model/Model.html" xlink:show="new" xlink:title="it.matlice.ingsw.model.Model" xlink:type="simple"><rect fill="#FFFFFF" filter="url(#f4o50ar)" height="38.7999" style="stroke: #A80036; stroke-width: 1.5;" width="132" x="6" y="16"/><rect fill="#FFFFFF" height="38.7999" style="stroke: #A80036; stroke-width: 1.5;" width="132" x="6" y="16"/><ellipse cx="21" cy="35.4" fill="#ADD1B2" rx="11" ry="11" style="stroke: #A80036; stroke-width: 1.0;"/><path d="M16,36.5562 C16,39.0562 18.1406,40.8687 21.0625,40.8687 C22.2969,40.8687 23.4688,40.5718 24.2188,40.0562 C24.8281,39.6343 25.1563,39.2125 25.1563,38.8062 C25.1563,38.3375 24.7344,37.9312 24.2344,37.9312 C24,37.9312 23.7813,38.0093 23.5781,38.2125 C23.1406,38.65 23.1406,38.65 22.9688,38.7437 C22.5156,38.9781 21.875,39.1187 21.1094,39.1187 C19.1094,39.1187 17.8281,38.1031 17.8281,36.525 L17.8281,35.4781 C17.8281,33.775 19.0469,32.5718 20.75,32.5718 C21.3281,32.5718 21.9063,32.7125 22.375,32.9625 C22.8438,33.2281 23.0156,33.4156 23.0781,33.775 C23.2031,34.4468 23.4531,34.6968 23.9844,34.6968 C24.2656,34.6968 24.5469,34.5562 24.7344,34.3375 C24.8594,34.1656 24.9063,33.9937 24.9063,33.5562 L24.9063,32.1968 C24.9063,31.775 24.8906,31.6343 24.7656,31.4625 C24.5938,31.2125 24.3125,31.0562 23.9844,31.0562 C23.6719,31.0562 23.4688,31.1656 23.25,31.4312 C22.0781,30.9312 21.6406,30.8218 20.6875,30.8218 C18.0156,30.8218 16,32.8375 16,35.4625 L16,36.5562 Z "/><text fill="#000000" font-family="sans-serif" font-size="14" font-weight="bold" lengthAdjust="spacingAndGlyphs" textLength="42" x="64" y="34.0059">Model</text><text fill="#000000" font-family="sans-serif" font-size="10" lengthAdjust="spacingAndGlyphs" textLength="100" x="35" y="47.0899">it.matlice.ingsw.model</text></a><!--class it.matlice.ingsw.model.data.Settings--><a target="_parent" xlink:actuate="onRequest" xlink:href="../../../../../it/matlice/ingsw/model/data/Settings.html" xlink:show="new" xlink:title="it.matlice.ingsw.model.data.Settings" xlink:type="simple"><rect fill="#FEFECE" filter="url(#f4o50ar)" height="38.7999" style="stroke: #A80036; stroke-width: 1.5;" width="156" x="173" y="16"/><ellipse cx="188" cy="35.4" fill="#ADD1B2" rx="11" ry="11" style="stroke: #A80036; stroke-width: 1.0;"/><path d="M183,36.5562 C183,39.0562 185.1406,40.8687 188.0625,40.8687 C189.2969,40.8687 190.4688,40.5718 191.2188,40.0562 C191.8281,39.6343 192.1563,39.2125 192.1563,38.8062 C192.1563,38.3375 191.7344,37.9312 191.2344,37.9312 C191,37.9312 190.7813,38.0093 190.5781,38.2125 C190.1406,38.65 190.1406,38.65 189.9688,38.7437 C189.5156,38.9781 188.875,39.1187 188.1094,39.1187 C186.1094,39.1187 184.8281,38.1031 184.8281,36.525 L184.8281,35.4781 C184.8281,33.775 186.0469,32.5718 187.75,32.5718 C188.3281,32.5718 188.9063,32.7125 189.375,32.9625 C189.8438,33.2281 190.0156,33.4156 190.0781,33.775 C190.2031,34.4468 190.4531,34.6968 190.9844,34.6968 C191.2656,34.6968 191.5469,34.5562 191.7344,34.3375 C191.8594,34.1656 191.9063,33.9937 191.9063,33.5562 L191.9063,32.1968 C191.9063,31.775 191.8906,31.6343 191.7656,31.4625 C191.5938,31.2125 191.3125,31.0562 190.9844,31.0562 C190.6719,31.0562 190.4688,31.1656 190.25,31.4312 C189.0781,30.9312 188.6406,30.8218 187.6875,30.8218 C185.0156,30.8218 183,32.8375 183,35.4625 L183,36.5562 Z "/><text fill="#000000" font-family="sans-serif" font-size="14" font-weight="bold" lengthAdjust="spacingAndGlyphs" textLength="57" x="235.5" y="34.0059">Settings</text><text fill="#000000" font-family="sans-serif" font-size="10" lengthAdjust="spacingAndGlyphs" textLength="124" x="202" y="47.0899">it.matlice.ingsw.model.data</text></a><!--class it.matlice.ingsw.model.data.factories.SettingsFactory--><a target="_parent" xlink:actuate="onRequest" xlink:href="../../../../../it/matlice/ingsw/model/data/factories/SettingsFactory.html" xlink:show="new" xlink:title="it.matlice.ingsw.model.data.factories.SettingsFactory" xlink:type="simple"><rect fill="#FFFFFF" filter="url(#f4o50ar)" height="42.3999" style="stroke: #A80036; stroke-width: 1.5;" width="198" x="364" y="14.5"/><rect fill="#FFFFFF" height="42.3999" style="stroke: #A80036; stroke-width: 1.5;" width="198" x="364" y="14.5"/><ellipse cx="379" cy="35.7" fill="#B4A7E5" rx="11" ry="11" style="stroke: #A80036; stroke-width: 1.0;"/><path d="M380.0156,32.8562 L381.6719,32.8562 C382.0625,32.8562 382.2656,32.825 382.4219,32.7468 C382.6875,32.575 382.8594,32.2781 382.8594,31.9812 C382.8594,31.7 382.7188,31.45 382.4844,31.2781 C382.2969,31.1531 382.1406,31.1062 381.6719,31.1062 L376.5313,31.1062 C376.0938,31.1062 375.9531,31.1218 375.7813,31.2312 C375.5156,31.4031 375.3438,31.6843 375.3438,31.9812 C375.3438,32.2625 375.4844,32.5437 375.7188,32.7 C375.9063,32.825 376.0938,32.8562 376.5313,32.8562 L378.1875,32.8562 L378.1875,38.95 L376.5313,38.95 C376.0938,38.95 375.9531,38.9656 375.7813,39.075 C375.5156,39.2312 375.3438,39.5281 375.3438,39.8093 C375.3438,40.4187 375.75,40.7 376.5313,40.7 L381.6719,40.7 C382.4531,40.7 382.8594,40.4187 382.8594,39.8093 C382.8594,39.5437 382.7188,39.2937 382.4844,39.1218 C382.2969,38.9812 382.125,38.95 381.6719,38.95 L380.0156,38.95 L380.0156,32.8562 Z "/><text fill="#000000" font-family="sans-serif" font-size="14" font-style="italic" font-weight="bold" lengthAdjust="spacingAndGlyphs" textLength="109" x="421.5" y="34.8999">SettingsFactory</text><text fill="#000000" font-family="sans-serif" font-size="10" font-style="italic" lengthAdjust="spacingAndGlyphs" textLength="166" x="393" y="49.3999">it.matlice.ingsw.model.data.factories</text></a><!--class it.matlice.ingsw.model.data.impl.jdbc.XMLImport.SettingsXML--><a target="_parent" xlink:actuate="onRequest" xlink:href="../../../../../it/matlice/ingsw/model/data/impl/jdbc/XMLImport.SettingsXML.html" xlink:show="new" xlink:title="it.matlice.ingsw.model.data.impl.jdbc.XMLImport.SettingsXML" xlink:type="simple"><rect fill="#FFFFFF" filter="url(#f4o50ar)" height="38.7999" style="stroke: #A80036; stroke-width: 1.5;" width="199" x="597.5" y="16"/><rect fill="#FFFFFF" height="38.7999" style="stroke: #A80036; stroke-width: 1.5;" width="199" x="597.5" y="16"/><ellipse cx="612.5" cy="35.4" fill="#ADD1B2" rx="11" ry="11" style="stroke: #A80036; stroke-width: 1.0;"/><path d="M607.5,36.5562 C607.5,39.0562 609.6406,40.8687 612.5625,40.8687 C613.7969,40.8687 614.9688,40.5718 615.7188,40.0562 C616.3281,39.6343 616.6563,39.2125 616.6563,38.8062 C616.6563,38.3375 616.2344,37.9312 615.7344,37.9312 C615.5,37.9312 615.2813,38.0093 615.0781,38.2125 C614.6406,38.65 614.6406,38.65 614.4688,38.7437 C614.0156,38.9781 613.375,39.1187 612.6094,39.1187 C610.6094,39.1187 609.3281,38.1031 609.3281,36.525 L609.3281,35.4781 C609.3281,33.775 610.5469,32.5718 612.25,32.5718 C612.8281,32.5718 613.4063,32.7125 613.875,32.9625 C614.3438,33.2281 614.5156,33.4156 614.5781,33.775 C614.7031,34.4468 614.9531,34.6968 615.4844,34.6968 C615.7656,34.6968 616.0469,34.5562 616.2344,34.3375 C616.3594,34.1656 616.4063,33.9937 616.4063,33.5562 L616.4063,32.1968 C616.4063,31.775 616.3906,31.6343 616.2656,31.4625 C616.0938,31.2125 615.8125,31.0562 615.4844,31.0562 C615.1719,31.0562 614.9688,31.1656 614.75,31.4312 C613.5781,30.9312 613.1406,30.8218 612.1875,30.8218 C609.5156,30.8218 607.5,32.8375 607.5,35.4625 L607.5,36.5562 Z "/><text fill="#000000" font-family="sans-serif" font-size="14" font-weight="bold" lengthAdjust="spacingAndGlyphs" textLength="165" x="627.5" y="34.0059">XMLImport.SettingsXML</text><text fill="#000000" font-family="sans-serif" font-size="10" lengthAdjust="spacingAndGlyphs" textLength="167" x="626.5" y="47.0899">it.matlice.ingsw.model.data.impl.jdbc</text></a><!--class it.matlice.ingsw.model.data.impl.jdbc.SettingsFactoryImpl--><a target="_parent" xlink:actuate="onRequest" xlink:href="../../../../../it/matlice/ingsw/model/data/impl/jdbc/SettingsFactoryImpl.html" xlink:show="new" xlink:title="it.matlice.ingsw.model.data.impl.jdbc.SettingsFactoryImpl" xlink:type="simple"><rect fill="#FFFFFF" filter="url(#f4o50ar)" height="38.7999" style="stroke: #A80036; stroke-width: 1.5;" width="199" x="831.5" y="16"/><rect fill="#FFFFFF" height="38.7999" style="stroke: #A80036; stroke-width: 1.5;" width="199" x="831.5" y="16"/><ellipse cx="846.5" cy="35.4" fill="#ADD1B2" rx="11" ry="11" style="stroke: #A80036; stroke-width: 1.0;"/><path d="M841.5,36.5562 C841.5,39.0562 843.6406,40.8687 846.5625,40.8687 C847.7969,40.8687 848.9688,40.5718 849.7188,40.0562 C850.3281,39.6343 850.6563,39.2125 850.6563,38.8062 C850.6563,38.3375 850.2344,37.9312 849.7344,37.9312 C849.5,37.9312 849.2813,38.0093 849.0781,38.2125 C848.6406,38.65 848.6406,38.65 848.4688,38.7437 C848.0156,38.9781 847.375,39.1187 846.6094,39.1187 C844.6094,39.1187 843.3281,38.1031 843.3281,36.525 L843.3281,35.4781 C843.3281,33.775 844.5469,32.5718 846.25,32.5718 C846.8281,32.5718 847.4063,32.7125 847.875,32.9625 C848.3438,33.2281 848.5156,33.4156 848.5781,33.775 C848.7031,34.4468 848.9531,34.6968 849.4844,34.6968 C849.7656,34.6968 850.0469,34.5562 850.2344,34.3375 C850.3594,34.1656 850.4063,33.9937 850.4063,33.5562 L850.4063,32.1968 C850.4063,31.775 850.3906,31.6343 850.2656,31.4625 C850.0938,31.2125 849.8125,31.0562 849.4844,31.0562 C849.1719,31.0562 848.9688,31.1656 848.75,31.4312 C847.5781,30.9312 847.1406,30.8218 846.1875,30.8218 C843.5156,30.8218 841.5,32.8375 841.5,35.4625 L841.5,36.5562 Z "/><text fill="#000000" font-family="sans-serif" font-size="14" font-weight="bold" lengthAdjust="spacingAndGlyphs" textLength="138" x="875" y="34.0059">SettingsFactoryImpl</text><text fill="#000000" font-family="sans-serif" font-size="10" lengthAdjust="spacingAndGlyphs" textLength="167" x="860.5" y="47.0899">it.matlice.ingsw.model.data.impl.jdbc</text></a><!--class it.matlice.ingsw.model.data.impl.jdbc.db.DaysDB--><a target="_parent" xlink:actuate="onRequest" xlink:href="../../../../../it/matlice/ingsw/model/data/impl/jdbc/db/DaysDB.html" xlink:show="new" xlink:title="it.matlice.ingsw.model.data.impl.jdbc.db.DaysDB" xlink:type="simple"><rect fill="#FFFFFF" filter="url(#f4o50ar)" height="55" style="stroke: #A80036; stroke-width: 1.5;" width="214" x="1066" y="8"/><rect fill="#FFFFFF" height="55" style="stroke: #A80036; stroke-width: 1.5;" width="214" x="1066" y="8"/><ellipse cx="1081" cy="35.5" fill="#ADD1B2" rx="11" ry="11" style="stroke: #A80036; stroke-width: 1.0;"/><path d="M1076,36.6563 C1076,39.1563 1078.1406,40.9688 1081.0625,40.9688 C1082.2969,40.9688 1083.4688,40.6719 1084.2188,40.1563 C1084.8281,39.7344 1085.1563,39.3125 1085.1563,38.9063 C1085.1563,38.4375 1084.7344,38.0313 1084.2344,38.0313 C1084,38.0313 1083.7813,38.1094 1083.5781,38.3125 C1083.1406,38.75 1083.1406,38.75 1082.9688,38.8438 C1082.5156,39.0781 1081.875,39.2188 1081.1094,39.2188 C1079.1094,39.2188 1077.8281,38.2031 1077.8281,36.625 L1077.8281,35.5781 C1077.8281,33.875 1079.0469,32.6719 1080.75,32.6719 C1081.3281,32.6719 1081.9063,32.8125 1082.375,33.0625 C1082.8438,33.3281 1083.0156,33.5156 1083.0781,33.875 C1083.2031,34.5469 1083.4531,34.7969 1083.9844,34.7969 C1084.2656,34.7969 1084.5469,34.6563 1084.7344,34.4375 C1084.8594,34.2656 1084.9063,34.0938 1084.9063,33.6563 L1084.9063,32.2969 C1084.9063,31.875 1084.8906,31.7344 1084.7656,31.5625 C1084.5938,31.3125 1084.3125,31.1563 1083.9844,31.1563 C1083.6719,31.1563 1083.4688,31.2656 1083.25,31.5313 C1082.0781,31.0313 1081.6406,30.9219 1080.6875,30.9219 C1078.0156,30.9219 1076,32.9375 1076,35.5625 L1076,36.6563 Z "/><text fill="#000000" font-family="sans-serif" font-size="12" font-style="italic" lengthAdjust="spacingAndGlyphs" textLength="98" x="1137" y="26.2001">«DatabaseTable»</text><text fill="#000000" font-family="sans-serif" font-size="14" font-weight="bold" lengthAdjust="spacingAndGlyphs" textLength="54" x="1159" y="42.2061">DaysDB</text><text fill="#000000" font-family="sans-serif" font-size="10" lengthAdjust="spacingAndGlyphs" textLength="182" x="1095" y="55.29">it.matlice.ingsw.model.data.impl.jdbc.db</text></a><!--class it.matlice.ingsw.model.data.impl.jdbc.types.SettingsImpl--><a target="_parent" xlink:actuate="onRequest" xlink:href="../../../../../it/matlice/ingsw/model/data/impl/jdbc/types/SettingsImpl.html" xlink:show="new" xlink:title="it.matlice.ingsw.model.data.impl.jdbc.types.SettingsImpl" xlink:type="simple"><rect fill="#FFFFFF" filter="url(#f4o50ar)" height="38.7999" style="stroke: #A80036; stroke-width: 1.5;" width="227" x="1315.5" y="16"/><rect fill="#FFFFFF" height="38.7999" style="stroke: #A80036; stroke-width: 1.5;" width="227" x="1315.5" y="16"/><ellipse cx="1330.5" cy="35.4" fill="#ADD1B2" rx="11" ry="11" style="stroke: #A80036; stroke-width: 1.0;"/><path d="M1325.5,36.5562 C1325.5,39.0562 1327.6406,40.8687 1330.5625,40.8687 C1331.7969,40.8687 1332.9688,40.5718 1333.7188,40.0562 C1334.3281,39.6343 1334.6563,39.2125 1334.6563,38.8062 C1334.6563,38.3375 1334.2344,37.9312 1333.7344,37.9312 C1333.5,37.9312 1333.2813,38.0093 1333.0781,38.2125 C1332.6406,38.65 1332.6406,38.65 1332.4688,38.7437 C1332.0156,38.9781 1331.375,39.1187 1330.6094,39.1187 C1328.6094,39.1187 1327.3281,38.1031 1327.3281,36.525 L1327.3281,35.4781 C1327.3281,33.775 1328.5469,32.5718 1330.25,32.5718 C1330.8281,32.5718 1331.4063,32.7125 1331.875,32.9625 C1332.3438,33.2281 1332.5156,33.4156 1332.5781,33.775 C1332.7031,34.4468 1332.9531,34.6968 1333.4844,34.6968 C1333.7656,34.6968 1334.0469,34.5562 1334.2344,34.3375 C1334.3594,34.1656 1334.4063,33.9937 1334.4063,33.5562 L1334.4063,32.1968 C1334.4063,31.775 1334.3906,31.6343 1334.2656,31.4625 C1334.0938,31.2125 1333.8125,31.0562 1333.4844,31.0562 C1333.1719,31.0562 1332.9688,31.1656 1332.75,31.4312 C1331.5781,30.9312 1331.1406,30.8218 1330.1875,30.8218 C1327.5156,30.8218 1325.5,32.8375 1325.5,35.4625 L1325.5,36.5562 Z "/><text fill="#000000" font-family="sans-serif" font-size="14" font-weight="bold" lengthAdjust="spacingAndGlyphs" textLength="86" x="1399" y="34.0059">SettingsImpl</text><text fill="#000000" font-family="sans-serif" font-size="10" lengthAdjust="spacingAndGlyphs" textLength="195" x="1344.5" y="47.0899">it.matlice.ingsw.model.data.impl.jdbc.types</text></a><path d="M72,55.28 C72,109.06 72,254 72,254 C72,254 592.97,254 592.97,254 " fill="none" style="stroke: #A80036; stroke-width: 1.0; stroke-dasharray: 7.0,7.0;"/><polygon fill="#A80036" points="597.97,254,588.97,250,592.97,254,588.97,258,597.97,254" style="stroke: #A80036; stroke-width: 1.0;"/><path d="M251,55.18 C251,100.81 251,210 251,210 C251,210 592.74,210 592.74,210 " fill="none" style="stroke: #A80036; stroke-width: 1.0; stroke-dasharray: 7.0,7.0;"/><polygon fill="#A80036" points="597.74,210,588.74,206,592.74,210,588.74,214,597.74,210" style="stroke: #A80036; stroke-width: 1.0;"/><path d="M664,122.83 C664,105.75 664,93 664,93 C664,93 579.75,93 579.75,93 C579.75,93 579.75,315 579.75,315 C579.75,315 697,315 697,315 C697,315 697,302.19 697,302.19 " fill="none" style="stroke: #A80036; stroke-width: 1.0;"/><polygon fill="#A80036" points="697,297.19,693,306.19,697,302.19,701,306.19,697,297.19" style="stroke: #A80036; stroke-width: 1.0;"/><text fill="#000000" font-family="sans-serif" font-size="13" lengthAdjust="spacingAndGlyphs" textLength="55" x="639.8945" y="316.555">dayMap *</text><path d="M463,56.63 C463,93.8 463,167 463,167 C463,167 592.76,167 592.76,167 " fill="none" style="stroke: #A80036; stroke-width: 1.0; stroke-dasharray: 7.0,7.0;"/><polygon fill="#A80036" points="597.76,167,588.76,163,592.76,167,588.76,171,597.76,167" style="stroke: #A80036; stroke-width: 1.0;"/><path d="M730,55.18 C730,55.18 730,117.6 730,117.6 " fill="none" style="stroke: #A80036; stroke-width: 1.0;"/><polygon fill="#A80036" points="730,122.6,734,113.6,730,117.6,726,113.6,730,122.6" style="stroke: #A80036; stroke-width: 1.0;"/><text fill="#000000" font-family="sans-serif" font-size="13" lengthAdjust="spacingAndGlyphs" textLength="37" x="694.2461" y="111.5646">days *</text><path d="M931,55.19 C931,91.87 931,167 931,167 C931,167 801.24,167 801.24,167 " fill="none" style="stroke: #A80036; stroke-width: 1.0; stroke-dasharray: 7.0,7.0;"/><polygon fill="#A80036" points="796.24,167,805.24,171,801.24,167,805.24,163,796.24,167" style="stroke: #A80036; stroke-width: 1.0;"/><path d="M1173,63.15 C1173,112.35 1173,210 1173,210 C1173,210 801.21,210 801.21,210 " fill="none" style="stroke: #A80036; stroke-width: 1.0; stroke-dasharray: 7.0,7.0;"/><polygon fill="#A80036" points="796.21,210,805.21,214,801.21,210,805.21,206,796.21,210" style="stroke: #A80036; stroke-width: 1.0;"/><path d="M1429,55.28 C1429,109.06 1429,254 1429,254 C1429,254 801.1,254 801.1,254 " fill="none" style="stroke: #A80036; stroke-width: 1.0; stroke-dasharray: 7.0,7.0;"/><polygon fill="#A80036" points="796.1,254,805.1,258,801.1,254,805.1,250,796.1,254" style="stroke: #A80036; stroke-width: 1.0;"/></g></svg>