<?xml version="1.0" encoding="UTF-8" standalone="no"?><svg xmlns="http://www.w3.org/2000/svg" xmlns:xlink="http://www.w3.org/1999/xlink" contentScriptType="application/ecmascript" contentStyleType="text/css" height="289px" preserveAspectRatio="none" style="width:496px;height:289px;" version="1.1" viewBox="0 0 496 289" width="496px" zoomAndPan="magnify"><defs><filter height="300%" id="fxiw53x" width="300%" x="-1" y="-1"><feGaussianBlur result="blurOut" stdDeviation="2.0"/><feColorMatrix in="blurOut" result="blurOut2" type="matrix" values="0 0 0 0 0 0 0 0 0 0 0 0 0 0 0 0 0 0 .4 0"/><feOffset dx="4.0" dy="4.0" in="blurOut2" result="blurOut3"/><feBlend in="SourceGraphic" in2="blurOut3" mode="normal"/></filter></defs><g><!--class it.matlice.ingsw.model.data.TypeDefinition.TypeAssociation--><a target="_parent" xlink:actuate="onRequest" xlink:href="../../../../../it/matlice/ingsw/model/data/TypeDefinition.TypeAssociation.html" xlink:show="new" xlink:title="it.matlice.ingsw.model.data.TypeDefinition.TypeAssociation" xlink:type="simple"><rect fill="#FEFECE" filter="url(#fxiw53x)" height="173.599" style="stroke: #A80036; stroke-width: 1.5;" width="481" x="6" y="107"/><ellipse cx="131.75" cy="126.4" fill="#EB937F" rx="11" ry="11" style="stroke: #A80036; stroke-width: 1.0;"/><path d="M130.6094,127.4625 L131.9219,127.4625 L131.9219,127.5093 C131.9219,127.9156 131.9375,128.0718 132.0469,128.2281 C132.2188,128.4781 132.5156,128.65 132.8281,128.65 C133.1094,128.65 133.4063,128.5093 133.5781,128.2906 C133.7031,128.1031 133.75,127.9625 133.75,127.5093 L133.75,125.6656 C133.75,125.3375 133.7344,125.2281 133.6719,125.0562 C133.5625,124.7593 133.2031,124.5093 132.8281,124.5093 C132.5313,124.5093 132.2656,124.65 132.0938,124.8687 C131.9531,125.0562 131.9219,125.2281 131.9219,125.6656 L131.9219,125.7281 L130.6094,125.7281 L130.6094,123.5562 L134.4531,123.5562 L134.4531,124.3062 C134.4531,124.6968 134.4844,124.8843 134.5938,125.0406 C134.7656,125.2906 135.0625,125.4625 135.375,125.4625 C135.6719,125.4625 135.9375,125.3375 136.125,125.1031 C136.2656,124.9156 136.2969,124.775 136.2969,124.3062 L136.2969,121.8062 L128.5938,121.8062 C128.1406,121.8062 128.0156,121.8218 127.8438,121.9312 C127.5781,122.1031 127.4063,122.3687 127.4063,122.6812 C127.4063,122.9625 127.5313,123.2281 127.7813,123.4 C127.9688,123.525 128.1563,123.5562 128.5938,123.5562 L128.7813,123.5562 L128.7813,129.65 L128.5938,129.65 C128.1719,129.65 128.0156,129.6812 127.8438,129.775 C127.5781,129.9312 127.4063,130.2125 127.4063,130.5093 C127.4063,131.0875 127.8125,131.4 128.5938,131.4 L136.6719,131.4 L136.6719,128.8687 C136.6719,128.4625 136.6406,128.2906 136.5313,128.1343 C136.3594,127.8687 136.0781,127.7125 135.75,127.7125 C135.4688,127.7125 135.1875,127.8531 135,128.0718 C134.8594,128.2593 134.8281,128.4156 134.8281,128.8687 L134.8281,129.65 L130.6094,129.65 L130.6094,127.4625 Z "/><text fill="#000000" font-family="sans-serif" font-size="14" font-weight="bold" lengthAdjust="spacingAndGlyphs" textLength="221" x="152.25" y="125.0059">TypeDefinition.TypeAssociation</text><text fill="#000000" font-family="sans-serif" font-size="10" lengthAdjust="spacingAndGlyphs" textLength="124" x="200.75" y="138.0899">it.matlice.ingsw.model.data</text><line style="stroke: #A80036; stroke-width: 1.5;" x1="7" x2="486" y1="145.7999" y2="145.7999"/><rect fill="none" height="6" style="stroke: #C82930; stroke-width: 1.0;" width="6" x="14" y="154.8999"/><text fill="#000000" font-family="sans-serif" font-size="11" lengthAdjust="spacingAndGlyphs" textLength="70" x="26" y="160.0188">Class&lt;?&gt; type</text><rect fill="none" height="6" style="stroke: #C82930; stroke-width: 1.0;" width="6" x="14" y="168.0998"/><text fill="#000000" font-family="sans-serif" font-size="11" lengthAdjust="spacingAndGlyphs" textLength="139" x="26" y="173.2187">Function&lt;Object, String&gt; ser</text><rect fill="none" height="6" style="stroke: #C82930; stroke-width: 1.0;" width="6" x="14" y="181.2997"/><text fill="#000000" font-family="sans-serif" font-size="11" lengthAdjust="spacingAndGlyphs" textLength="151" x="26" y="186.4186">Function&lt;String, Object&gt; deser</text><line style="stroke: #A80036; stroke-width: 1.5;" x1="7" x2="486" y1="193.3996" y2="193.3996"/><rect fill="#F24D5C" height="6" style="stroke: #C82930; stroke-width: 1.0;" width="6" x="14" y="202.4996"/><text fill="#000000" font-family="sans-serif" font-size="11" lengthAdjust="spacingAndGlyphs" textLength="455" x="26" y="207.6185">TypeAssociation(Class&lt;?&gt; type,Function&lt;Object, String&gt; ser,Function&lt;String, Object&gt; deser)</text><ellipse cx="17" cy="218.6995" fill="#84BE84" rx="3" ry="3" style="stroke: #038048; stroke-width: 1.0;"/><text fill="#000000" font-family="sans-serif" font-size="11" lengthAdjust="spacingAndGlyphs" text-decoration="underline" textLength="196" x="26" y="220.8184">TypeDefinition.TypeAssociation values()</text><line style="stroke: #000000; stroke-width: 1.0;" x1="26" x2="222" y1="222.8184" y2="222.8184"/><ellipse cx="17" cy="231.8994" fill="#84BE84" rx="3" ry="3" style="stroke: #038048; stroke-width: 1.0;"/><text fill="#000000" font-family="sans-serif" font-size="11" lengthAdjust="spacingAndGlyphs" text-decoration="underline" textLength="260" x="26" y="234.0183">TypeDefinition.TypeAssociation valueOf(String name)</text><line style="stroke: #000000; stroke-width: 1.0;" x1="26" x2="286" y1="236.0183" y2="236.0183"/><ellipse cx="17" cy="245.0993" fill="#84BE84" rx="3" ry="3" style="stroke: #038048; stroke-width: 1.0;"/><text fill="#000000" font-family="sans-serif" font-size="11" lengthAdjust="spacingAndGlyphs" textLength="97" x="26" y="247.2182">Class&lt;?&gt; getType()</text><ellipse cx="17" cy="258.2992" fill="#84BE84" rx="3" ry="3" style="stroke: #038048; stroke-width: 1.0;"/><text fill="#000000" font-family="sans-serif" font-size="11" lengthAdjust="spacingAndGlyphs" textLength="120" x="26" y="260.4182">String serialize(Object o)</text><ellipse cx="17" cy="271.4991" fill="#84BE84" rx="3" ry="3" style="stroke: #038048; stroke-width: 1.0;"/><text fill="#000000" font-family="sans-serif" font-size="11" lengthAdjust="spacingAndGlyphs" textLength="132" x="26" y="273.6181">Object deserialize(String o)</text></a><!--class it.matlice.ingsw.model.data.TypeDefinition--><a target="_parent" xlink:actuate="onRequest" xlink:href="../../../../../it/matlice/ingsw/model/data/TypeDefinition.html" xlink:show="new" xlink:title="it.matlice.ingsw.model.data.TypeDefinition" xlink:type="simple"><rect fill="#FEFECE" filter="url(#fxiw53x)" height="38.7999" style="stroke: #A80036; stroke-width: 1.5;" width="156" x="62.5" y="8"/><ellipse cx="77.5" cy="27.4" fill="#ADD1B2" rx="11" ry="11" style="stroke: #A80036; stroke-width: 1.0;"/><path d="M72.5,28.5562 C72.5,31.0562 74.6406,32.8687 77.5625,32.8687 C78.7969,32.8687 79.9688,32.5718 80.7188,32.0562 C81.3281,31.6343 81.6563,31.2125 81.6563,30.8062 C81.6563,30.3375 81.2344,29.9312 80.7344,29.9312 C80.5,29.9312 80.2813,30.0093 80.0781,30.2125 C79.6406,30.65 79.6406,30.65 79.4688,30.7437 C79.0156,30.9781 78.375,31.1187 77.6094,31.1187 C75.6094,31.1187 74.3281,30.1031 74.3281,28.525 L74.3281,27.4781 C74.3281,25.775 75.5469,24.5718 77.25,24.5718 C77.8281,24.5718 78.4063,24.7125 78.875,24.9625 C79.3438,25.2281 79.5156,25.4156 79.5781,25.775 C79.7031,26.4468 79.9531,26.6968 80.4844,26.6968 C80.7656,26.6968 81.0469,26.5562 81.2344,26.3375 C81.3594,26.1656 81.4063,25.9937 81.4063,25.5562 L81.4063,24.1968 C81.4063,23.775 81.3906,23.6343 81.2656,23.4625 C81.0938,23.2125 80.8125,23.0562 80.4844,23.0562 C80.1719,23.0562 79.9688,23.1656 79.75,23.4312 C78.5781,22.9312 78.1406,22.8218 77.1875,22.8218 C74.5156,22.8218 72.5,24.8375 72.5,27.4625 L72.5,28.5562 Z "/><text fill="#000000" font-family="sans-serif" font-size="14" font-weight="bold" lengthAdjust="spacingAndGlyphs" textLength="101" x="103" y="26.0059">TypeDefinition</text><text fill="#000000" font-family="sans-serif" font-size="10" lengthAdjust="spacingAndGlyphs" textLength="124" x="91.5" y="39.0899">it.matlice.ingsw.model.data</text></a><!--class it.matlice.ingsw.model.data.impl.jdbc.XMLImport.FieldXML--><a target="_parent" xlink:actuate="onRequest" xlink:href="../../../../../it/matlice/ingsw/model/data/impl/jdbc/XMLImport.FieldXML.html" xlink:show="new" xlink:title="it.matlice.ingsw.model.data.impl.jdbc.XMLImport.FieldXML" xlink:type="simple"><rect fill="#FFFFFF" filter="url(#fxiw53x)" height="38.7999" style="stroke: #A80036; stroke-width: 1.5;" width="199" x="254" y="8"/><rect fill="#FFFFFF" height="38.7999" style="stroke: #A80036; stroke-width: 1.5;" width="199" x="254" y="8"/><ellipse cx="269" cy="27.4" fill="#ADD1B2" rx="11" ry="11" style="stroke: #A80036; stroke-width: 1.0;"/><path d="M264,28.5562 C264,31.0562 266.1406,32.8687 269.0625,32.8687 C270.2969,32.8687 271.4688,32.5718 272.2188,32.0562 C272.8281,31.6343 273.1563,31.2125 273.1563,30.8062 C273.1563,30.3375 272.7344,29.9312 272.2344,29.9312 C272,29.9312 271.7813,30.0093 271.5781,30.2125 C271.1406,30.65 271.1406,30.65 270.9688,30.7437 C270.5156,30.9781 269.875,31.1187 269.1094,31.1187 C267.1094,31.1187 265.8281,30.1031 265.8281,28.525 L265.8281,27.4781 C265.8281,25.775 267.0469,24.5718 268.75,24.5718 C269.3281,24.5718 269.9063,24.7125 270.375,24.9625 C270.8438,25.2281 271.0156,25.4156 271.0781,25.775 C271.2031,26.4468 271.4531,26.6968 271.9844,26.6968 C272.2656,26.6968 272.5469,26.5562 272.7344,26.3375 C272.8594,26.1656 272.9063,25.9937 272.9063,25.5562 L272.9063,24.1968 C272.9063,23.775 272.8906,23.6343 272.7656,23.4625 C272.5938,23.2125 272.3125,23.0562 271.9844,23.0562 C271.6719,23.0562 271.4688,23.1656 271.25,23.4312 C270.0781,22.9312 269.6406,22.8218 268.6875,22.8218 C266.0156,22.8218 264,24.8375 264,27.4625 L264,28.5562 Z "/><text fill="#000000" font-family="sans-serif" font-size="14" font-weight="bold" lengthAdjust="spacingAndGlyphs" textLength="142" x="295.5" y="26.0059">XMLImport.FieldXML</text><text fill="#000000" font-family="sans-serif" font-size="10" lengthAdjust="spacingAndGlyphs" textLength="167" x="283" y="39.0899">it.matlice.ingsw.model.data.impl.jdbc</text></a><path d="M140.5,47.25 C140.5,47.25 140.5,101.94 140.5,101.94 " fill="none" style="stroke: #A80036; stroke-width: 1.0;"/><polygon fill="#A80036" points="140.5,106.94,144.5,97.94,140.5,101.94,136.5,97.94,140.5,106.94" style="stroke: #A80036; stroke-width: 1.0;"/><text fill="#000000" font-family="sans-serif" font-size="13" lengthAdjust="spacingAndGlyphs" textLength="25" x="104.5758" y="95.3459">type</text><path d="M353.5,47.25 C353.5,47.25 353.5,101.94 353.5,101.94 " fill="none" style="stroke: #A80036; stroke-width: 1.0;"/><polygon fill="#A80036" points="353.5,106.94,357.5,97.94,353.5,101.94,349.5,97.94,353.5,106.94" style="stroke: #A80036; stroke-width: 1.0;"/><text fill="#000000" font-family="sans-serif" font-size="13" lengthAdjust="spacingAndGlyphs" textLength="25" x="337.2117" y="95.3459">type</text></g></svg>