<?xml version="1.0" encoding="UTF-8" standalone="no"?><svg xmlns="http://www.w3.org/2000/svg" xmlns:xlink="http://www.w3.org/1999/xlink" contentScriptType="application/ecmascript" contentStyleType="text/css" height="388px" preserveAspectRatio="none" style="width:379px;height:388px;" version="1.1" viewBox="0 0 379 388" width="379px" zoomAndPan="magnify"><defs><filter height="300%" id="ffx757o" width="300%" x="-1" y="-1"><feGaussianBlur result="blurOut" stdDeviation="2.0"/><feColorMatrix in="blurOut" result="blurOut2" type="matrix" values="0 0 0 0 0 0 0 0 0 0 0 0 0 0 0 0 0 0 .4 0"/><feOffset dx="4.0" dy="4.0" in="blurOut2" result="blurOut3"/><feBlend in="SourceGraphic" in2="blurOut3" mode="normal"/></filter></defs><g><!--class it.matlice.ingsw.model.data.TypeDefinition--><a target="_parent" xlink:actuate="onRequest" xlink:href="../../../../../it/matlice/ingsw/model/data/TypeDefinition.html" xlink:show="new" xlink:title="it.matlice.ingsw.model.data.TypeDefinition" xlink:type="simple"><rect fill="#FEFECE" filter="url(#ffx757o)" height="173.599" style="stroke: #A80036; stroke-width: 1.5;" width="364" x="6" y="107"/><ellipse cx="121.75" cy="126.4" fill="#ADD1B2" rx="11" ry="11" style="stroke: #A80036; stroke-width: 1.0;"/><path d="M116.75,127.5562 C116.75,130.0562 118.8906,131.8687 121.8125,131.8687 C123.0469,131.8687 124.2188,131.5718 124.9688,131.0562 C125.5781,130.6343 125.9063,130.2125 125.9063,129.8062 C125.9063,129.3375 125.4844,128.9312 124.9844,128.9312 C124.75,128.9312 124.5313,129.0093 124.3281,129.2125 C123.8906,129.65 123.8906,129.65 123.7188,129.7437 C123.2656,129.9781 122.625,130.1187 121.8594,130.1187 C119.8594,130.1187 118.5781,129.1031 118.5781,127.525 L118.5781,126.4781 C118.5781,124.775 119.7969,123.5718 121.5,123.5718 C122.0781,123.5718 122.6563,123.7125 123.125,123.9625 C123.5938,124.2281 123.7656,124.4156 123.8281,124.775 C123.9531,125.4468 124.2031,125.6968 124.7344,125.6968 C125.0156,125.6968 125.2969,125.5562 125.4844,125.3375 C125.6094,125.1656 125.6563,124.9937 125.6563,124.5562 L125.6563,123.1968 C125.6563,122.775 125.6406,122.6343 125.5156,122.4625 C125.3438,122.2125 125.0625,122.0562 124.7344,122.0562 C124.4219,122.0562 124.2188,122.1656 124,122.4312 C122.8281,121.9312 122.3906,121.8218 121.4375,121.8218 C118.7656,121.8218 116.75,123.8375 116.75,126.4625 L116.75,127.5562 Z "/><text fill="#000000" font-family="sans-serif" font-size="14" font-weight="bold" lengthAdjust="spacingAndGlyphs" textLength="101" x="153.75" y="125.0059">TypeDefinition</text><text fill="#000000" font-family="sans-serif" font-size="10" lengthAdjust="spacingAndGlyphs" textLength="124" x="142.25" y="138.0899">it.matlice.ingsw.model.data</text><line style="stroke: #A80036; stroke-width: 1.5;" x1="7" x2="369" y1="145.7999" y2="145.7999"/><rect fill="none" height="6" style="stroke: #C82930; stroke-width: 1.0;" width="6" x="14" y="154.8999"/><text fill="#000000" font-family="sans-serif" font-size="11" lengthAdjust="spacingAndGlyphs" textLength="177" x="26" y="160.0188">TypeDefinition.TypeAssociation type</text><rect fill="none" height="6" style="stroke: #C82930; stroke-width: 1.0;" width="6" x="14" y="168.0998"/><text fill="#000000" font-family="sans-serif" font-size="11" lengthAdjust="spacingAndGlyphs" textLength="81" x="26" y="173.2187">boolean required</text><line style="stroke: #A80036; stroke-width: 1.5;" x1="7" x2="369" y1="180.1997" y2="180.1997"/><ellipse cx="17" cy="192.2997" fill="#84BE84" rx="3" ry="3" style="stroke: #038048; stroke-width: 1.0;"/><text fill="#000000" font-family="sans-serif" font-size="11" lengthAdjust="spacingAndGlyphs" textLength="158" x="26" y="194.4186">TypeDefinition(boolean required)</text><ellipse cx="17" cy="205.4996" fill="#84BE84" rx="3" ry="3" style="stroke: #038048; stroke-width: 1.0;"/><text fill="#000000" font-family="sans-serif" font-size="11" lengthAdjust="spacingAndGlyphs" textLength="338" x="26" y="207.6185">TypeDefinition(TypeDefinition.TypeAssociation type,boolean required)</text><ellipse cx="17" cy="218.6995" fill="#84BE84" rx="3" ry="3" style="stroke: #038048; stroke-width: 1.0;"/><text fill="#000000" font-family="sans-serif" font-size="11" lengthAdjust="spacingAndGlyphs" textLength="185" x="26" y="220.8184">TypeDefinition.TypeAssociation type()</text><ellipse cx="17" cy="231.8994" fill="#84BE84" rx="3" ry="3" style="stroke: #038048; stroke-width: 1.0;"/><text fill="#000000" font-family="sans-serif" font-size="11" lengthAdjust="spacingAndGlyphs" textLength="89" x="26" y="234.0183">boolean required()</text><ellipse cx="17" cy="245.0993" fill="#84BE84" rx="3" ry="3" style="stroke: #038048; stroke-width: 1.0;"/><text fill="#000000" font-family="sans-serif" font-size="11" lengthAdjust="spacingAndGlyphs" textLength="130" x="26" y="247.2182">boolean equals(Object obj)</text><ellipse cx="17" cy="258.2992" fill="#84BE84" rx="3" ry="3" style="stroke: #038048; stroke-width: 1.0;"/><text fill="#000000" font-family="sans-serif" font-size="11" lengthAdjust="spacingAndGlyphs" textLength="72" x="26" y="260.4182">int hashCode()</text><ellipse cx="17" cy="271.4991" fill="#84BE84" rx="3" ry="3" style="stroke: #038048; stroke-width: 1.0;"/><text fill="#000000" font-family="sans-serif" font-size="11" lengthAdjust="spacingAndGlyphs" textLength="76" x="26" y="273.6181">String toString()</text></a><!--class it.matlice.ingsw.controller.Controller--><a target="_parent" xlink:actuate="onRequest" xlink:href="../../../../../it/matlice/ingsw/controller/Controller.html" xlink:show="new" xlink:title="it.matlice.ingsw.controller.Controller" xlink:type="simple"><rect fill="#FFFFFF" filter="url(#ffx757o)" height="38.7999" style="stroke: #A80036; stroke-width: 1.5;" width="146" x="22" y="8"/><rect fill="#FFFFFF" height="38.7999" style="stroke: #A80036; stroke-width: 1.5;" width="146" x="22" y="8"/><ellipse cx="37" cy="27.4" fill="#ADD1B2" rx="11" ry="11" style="stroke: #A80036; stroke-width: 1.0;"/><path d="M32,28.5562 C32,31.0562 34.1406,32.8687 37.0625,32.8687 C38.2969,32.8687 39.4688,32.5718 40.2188,32.0562 C40.8281,31.6343 41.1563,31.2125 41.1563,30.8062 C41.1563,30.3375 40.7344,29.9312 40.2344,29.9312 C40,29.9312 39.7813,30.0093 39.5781,30.2125 C39.1406,30.65 39.1406,30.65 38.9688,30.7437 C38.5156,30.9781 37.875,31.1187 37.1094,31.1187 C35.1094,31.1187 33.8281,30.1031 33.8281,28.525 L33.8281,27.4781 C33.8281,25.775 35.0469,24.5718 36.75,24.5718 C37.3281,24.5718 37.9063,24.7125 38.375,24.9625 C38.8438,25.2281 39.0156,25.4156 39.0781,25.775 C39.2031,26.4468 39.4531,26.6968 39.9844,26.6968 C40.2656,26.6968 40.5469,26.5562 40.7344,26.3375 C40.8594,26.1656 40.9063,25.9937 40.9063,25.5562 L40.9063,24.1968 C40.9063,23.775 40.8906,23.6343 40.7656,23.4625 C40.5938,23.2125 40.3125,23.0562 39.9844,23.0562 C39.6719,23.0562 39.4688,23.1656 39.25,23.4312 C38.0781,22.9312 37.6406,22.8218 36.6875,22.8218 C34.0156,22.8218 32,24.8375 32,27.4625 L32,28.5562 Z "/><text fill="#000000" font-family="sans-serif" font-size="14" font-weight="bold" lengthAdjust="spacingAndGlyphs" textLength="68" x="74" y="26.0059">Controller</text><text fill="#000000" font-family="sans-serif" font-size="10" lengthAdjust="spacingAndGlyphs" textLength="114" x="51" y="39.0899">it.matlice.ingsw.controller</text></a><!--class it.matlice.ingsw.model.data.TypeDefinition.TypeAssociation--><a target="_parent" xlink:actuate="onRequest" xlink:href="../../../../../it/matlice/ingsw/model/data/TypeDefinition.TypeAssociation.html" xlink:show="new" xlink:title="it.matlice.ingsw.model.data.TypeDefinition.TypeAssociation" xlink:type="simple"><rect fill="#FEFECE" filter="url(#ffx757o)" height="38.7999" style="stroke: #A80036; stroke-width: 1.5;" width="253" x="61.5" y="341"/><ellipse cx="76.5" cy="360.4" fill="#EB937F" rx="11" ry="11" style="stroke: #A80036; stroke-width: 1.0;"/><path d="M75.3594,361.4625 L76.6719,361.4625 L76.6719,361.5093 C76.6719,361.9156 76.6875,362.0718 76.7969,362.2281 C76.9688,362.4781 77.2656,362.65 77.5781,362.65 C77.8594,362.65 78.1563,362.5093 78.3281,362.2906 C78.4531,362.1031 78.5,361.9625 78.5,361.5093 L78.5,359.6656 C78.5,359.3375 78.4844,359.2281 78.4219,359.0562 C78.3125,358.7593 77.9531,358.5093 77.5781,358.5093 C77.2813,358.5093 77.0156,358.65 76.8438,358.8687 C76.7031,359.0562 76.6719,359.2281 76.6719,359.6656 L76.6719,359.7281 L75.3594,359.7281 L75.3594,357.5562 L79.2031,357.5562 L79.2031,358.3062 C79.2031,358.6968 79.2344,358.8843 79.3438,359.0406 C79.5156,359.2906 79.8125,359.4625 80.125,359.4625 C80.4219,359.4625 80.6875,359.3375 80.875,359.1031 C81.0156,358.9156 81.0469,358.775 81.0469,358.3062 L81.0469,355.8062 L73.3438,355.8062 C72.8906,355.8062 72.7656,355.8218 72.5938,355.9312 C72.3281,356.1031 72.1563,356.3687 72.1563,356.6812 C72.1563,356.9625 72.2813,357.2281 72.5313,357.4 C72.7188,357.525 72.9063,357.5562 73.3438,357.5562 L73.5313,357.5562 L73.5313,363.65 L73.3438,363.65 C72.9219,363.65 72.7656,363.6812 72.5938,363.775 C72.3281,363.9312 72.1563,364.2125 72.1563,364.5093 C72.1563,365.0875 72.5625,365.4 73.3438,365.4 L81.4219,365.4 L81.4219,362.8687 C81.4219,362.4625 81.3906,362.2906 81.2813,362.1343 C81.1094,361.8687 80.8281,361.7125 80.5,361.7125 C80.2188,361.7125 79.9375,361.8531 79.75,362.0718 C79.6094,362.2593 79.5781,362.4156 79.5781,362.8687 L79.5781,363.65 L75.3594,363.65 L75.3594,361.4625 Z "/><text fill="#000000" font-family="sans-serif" font-size="14" font-weight="bold" lengthAdjust="spacingAndGlyphs" textLength="221" x="90.5" y="359.0059">TypeDefinition.TypeAssociation</text><text fill="#000000" font-family="sans-serif" font-size="10" lengthAdjust="spacingAndGlyphs" textLength="124" x="139" y="372.0899">it.matlice.ingsw.model.data</text></a><!--class it.matlice.ingsw.model.data.Category--><a target="_parent" xlink:actuate="onRequest" xlink:href="../../../../../it/matlice/ingsw/model/data/Category.html" xlink:show="new" xlink:title="it.matlice.ingsw.model.data.Category" xlink:type="simple"><rect fill="#FEFECE" filter="url(#ffx757o)" height="38.7999" style="stroke: #A80036; stroke-width: 1.5;" width="156" x="203" y="8"/><ellipse cx="218" cy="27.4" fill="#ADD1B2" rx="11" ry="11" style="stroke: #A80036; stroke-width: 1.0;"/><path d="M213,28.5562 C213,31.0562 215.1406,32.8687 218.0625,32.8687 C219.2969,32.8687 220.4688,32.5718 221.2188,32.0562 C221.8281,31.6343 222.1563,31.2125 222.1563,30.8062 C222.1563,30.3375 221.7344,29.9312 221.2344,29.9312 C221,29.9312 220.7813,30.0093 220.5781,30.2125 C220.1406,30.65 220.1406,30.65 219.9688,30.7437 C219.5156,30.9781 218.875,31.1187 218.1094,31.1187 C216.1094,31.1187 214.8281,30.1031 214.8281,28.525 L214.8281,27.4781 C214.8281,25.775 216.0469,24.5718 217.75,24.5718 C218.3281,24.5718 218.9063,24.7125 219.375,24.9625 C219.8438,25.2281 220.0156,25.4156 220.0781,25.775 C220.2031,26.4468 220.4531,26.6968 220.9844,26.6968 C221.2656,26.6968 221.5469,26.5562 221.7344,26.3375 C221.8594,26.1656 221.9063,25.9937 221.9063,25.5562 L221.9063,24.1968 C221.9063,23.775 221.8906,23.6343 221.7656,23.4625 C221.5938,23.2125 221.3125,23.0562 220.9844,23.0562 C220.6719,23.0562 220.4688,23.1656 220.25,23.4312 C219.0781,22.9312 218.6406,22.8218 217.6875,22.8218 C215.0156,22.8218 213,24.8375 213,27.4625 L213,28.5562 Z "/><text fill="#000000" font-family="sans-serif" font-size="14" font-weight="bold" lengthAdjust="spacingAndGlyphs" textLength="62" x="263" y="26.0059">Category</text><text fill="#000000" font-family="sans-serif" font-size="10" lengthAdjust="spacingAndGlyphs" textLength="124" x="232" y="39.0899">it.matlice.ingsw.model.data</text></a><path d="M95,47.25 C95,47.25 95,101.94 95,101.94 " fill="none" style="stroke: #A80036; stroke-width: 1.0; stroke-dasharray: 7.0,7.0;"/><polygon fill="#A80036" points="95,106.94,99,97.94,95,101.94,91,97.94,95,106.94" style="stroke: #A80036; stroke-width: 1.0;"/><path d="M188,281.15 C188,281.15 188,335.92 188,335.92 " fill="none" style="stroke: #A80036; stroke-width: 1.0;"/><polygon fill="#A80036" points="188,340.92,192,331.92,188,335.92,184,331.92,188,340.92" style="stroke: #A80036; stroke-width: 1.0;"/><text fill="#000000" font-family="sans-serif" font-size="13" lengthAdjust="spacingAndGlyphs" textLength="25" x="159.0156" y="329.4928">type</text><path d="M281,47.25 C281,47.25 281,101.94 281,101.94 " fill="none" style="stroke: #A80036; stroke-width: 1.0; stroke-dasharray: 7.0,7.0;"/><polygon fill="#A80036" points="281,106.94,285,97.94,281,101.94,277,97.94,281,106.94" style="stroke: #A80036; stroke-width: 1.0;"/></g></svg>