<?xml version="1.0" encoding="UTF-8" standalone="no"?><svg xmlns="http://www.w3.org/2000/svg" xmlns:xlink="http://www.w3.org/1999/xlink" contentScriptType="application/ecmascript" contentStyleType="text/css" height="239px" preserveAspectRatio="none" style="width:447px;height:239px;" version="1.1" viewBox="0 0 447 239" width="447px" zoomAndPan="magnify"><defs><filter height="300%" id="f93n2zi" width="300%" x="-1" y="-1"><feGaussianBlur result="blurOut" stdDeviation="2.0"/><feColorMatrix in="blurOut" result="blurOut2" type="matrix" values="0 0 0 0 0 0 0 0 0 0 0 0 0 0 0 0 0 0 .4 0"/><feOffset dx="4.0" dy="4.0" in="blurOut2" result="blurOut3"/><feBlend in="SourceGraphic" in2="blurOut3" mode="normal"/></filter></defs><g><!--class it.matlice.ingsw.model.data.User.UserTypes--><a target="_parent" xlink:actuate="onRequest" xlink:href="../../../../../it/matlice/ingsw/model/data/User.UserTypes.html" xlink:show="new" xlink:title="it.matlice.ingsw.model.data.User.UserTypes" xlink:type="simple"><rect fill="#FEFECE" filter="url(#f93n2zi)" height="120.7994" style="stroke: #A80036; stroke-width: 1.5;" width="215" x="114.5" y="110"/><ellipse cx="156.05" cy="129.4" fill="#EB937F" rx="11" ry="11" style="stroke: #A80036; stroke-width: 1.0;"/><path d="M154.9094,130.4625 L156.2219,130.4625 L156.2219,130.5093 C156.2219,130.9156 156.2375,131.0718 156.3469,131.2281 C156.5188,131.4781 156.8156,131.65 157.1281,131.65 C157.4094,131.65 157.7063,131.5093 157.8781,131.2906 C158.0031,131.1031 158.05,130.9625 158.05,130.5093 L158.05,128.6656 C158.05,128.3375 158.0344,128.2281 157.9719,128.0562 C157.8625,127.7593 157.5031,127.5093 157.1281,127.5093 C156.8313,127.5093 156.5656,127.65 156.3938,127.8687 C156.2531,128.0562 156.2219,128.2281 156.2219,128.6656 L156.2219,128.7281 L154.9094,128.7281 L154.9094,126.5562 L158.7531,126.5562 L158.7531,127.3062 C158.7531,127.6968 158.7844,127.8843 158.8938,128.0406 C159.0656,128.2906 159.3625,128.4625 159.675,128.4625 C159.9719,128.4625 160.2375,128.3375 160.425,128.1031 C160.5656,127.9156 160.5969,127.775 160.5969,127.3062 L160.5969,124.8062 L152.8938,124.8062 C152.4406,124.8062 152.3156,124.8218 152.1438,124.9312 C151.8781,125.1031 151.7063,125.3687 151.7063,125.6812 C151.7063,125.9625 151.8313,126.2281 152.0813,126.4 C152.2688,126.525 152.4563,126.5562 152.8938,126.5562 L153.0813,126.5562 L153.0813,132.65 L152.8938,132.65 C152.4719,132.65 152.3156,132.6812 152.1438,132.775 C151.8781,132.9312 151.7063,133.2125 151.7063,133.5093 C151.7063,134.0875 152.1125,134.4 152.8938,134.4 L160.9719,134.4 L160.9719,131.8687 C160.9719,131.4625 160.9406,131.2906 160.8313,131.1343 C160.6594,130.8687 160.3781,130.7125 160.05,130.7125 C159.7688,130.7125 159.4875,130.8531 159.3,131.0718 C159.1594,131.2593 159.1281,131.4156 159.1281,131.8687 L159.1281,132.65 L154.9094,132.65 L154.9094,130.4625 Z "/><text fill="#000000" font-family="sans-serif" font-size="14" font-weight="bold" lengthAdjust="spacingAndGlyphs" textLength="108" x="183.95" y="128.0059">User.UserTypes</text><text fill="#000000" font-family="sans-serif" font-size="10" lengthAdjust="spacingAndGlyphs" textLength="124" x="175.95" y="141.0899">it.matlice.ingsw.model.data</text><line style="stroke: #A80036; stroke-width: 1.5;" x1="115.5" x2="328.5" y1="148.7999" y2="148.7999"/><rect fill="none" height="6" style="stroke: #C82930; stroke-width: 1.0;" width="6" x="122.5" y="157.8999"/><text fill="#000000" font-family="sans-serif" font-size="11" lengthAdjust="spacingAndGlyphs" textLength="126" x="134.5" y="163.0188">String typeRepresentation</text><line style="stroke: #A80036; stroke-width: 1.5;" x1="115.5" x2="328.5" y1="169.9998" y2="169.9998"/><rect fill="#F24D5C" height="6" style="stroke: #C82930; stroke-width: 1.0;" width="6" x="122.5" y="179.0998"/><text fill="#000000" font-family="sans-serif" font-size="11" lengthAdjust="spacingAndGlyphs" textLength="189" x="134.5" y="184.2187">UserTypes(String typeRepresentation)</text><ellipse cx="125.5" cy="195.2997" fill="#84BE84" rx="3" ry="3" style="stroke: #038048; stroke-width: 1.0;"/><text fill="#000000" font-family="sans-serif" font-size="11" lengthAdjust="spacingAndGlyphs" text-decoration="underline" textLength="125" x="134.5" y="197.4186">User.UserTypes values()</text><line style="stroke: #000000; stroke-width: 1.0;" x1="134.5" x2="259.5" y1="199.4186" y2="199.4186"/><ellipse cx="125.5" cy="208.4996" fill="#84BE84" rx="3" ry="3" style="stroke: #038048; stroke-width: 1.0;"/><text fill="#000000" font-family="sans-serif" font-size="11" lengthAdjust="spacingAndGlyphs" text-decoration="underline" textLength="189" x="134.5" y="210.6185">User.UserTypes valueOf(String name)</text><line style="stroke: #000000; stroke-width: 1.0;" x1="134.5" x2="323.5" y1="212.6185" y2="212.6185"/><ellipse cx="125.5" cy="221.6995" fill="#84BE84" rx="3" ry="3" style="stroke: #038048; stroke-width: 1.0;"/><text fill="#000000" font-family="sans-serif" font-size="11" lengthAdjust="spacingAndGlyphs" textLength="153" x="134.5" y="223.8184">String getTypeRepresentation()</text></a><!--class it.matlice.ingsw.model.data.factories.UserFactory--><a target="_parent" xlink:actuate="onRequest" xlink:href="../../../../../it/matlice/ingsw/model/data/factories/UserFactory.html" xlink:show="new" xlink:title="it.matlice.ingsw.model.data.factories.UserFactory" xlink:type="simple"><rect fill="#FFFFFF" filter="url(#f93n2zi)" height="42.3999" style="stroke: #A80036; stroke-width: 1.5;" width="198" x="6" y="8"/><rect fill="#FFFFFF" height="42.3999" style="stroke: #A80036; stroke-width: 1.5;" width="198" x="6" y="8"/><ellipse cx="21" cy="29.2" fill="#B4A7E5" rx="11" ry="11" style="stroke: #A80036; stroke-width: 1.0;"/><path d="M22.0156,26.3562 L23.6719,26.3562 C24.0625,26.3562 24.2656,26.325 24.4219,26.2468 C24.6875,26.075 24.8594,25.7781 24.8594,25.4812 C24.8594,25.2 24.7188,24.95 24.4844,24.7781 C24.2969,24.6531 24.1406,24.6062 23.6719,24.6062 L18.5313,24.6062 C18.0938,24.6062 17.9531,24.6218 17.7813,24.7312 C17.5156,24.9031 17.3438,25.1843 17.3438,25.4812 C17.3438,25.7625 17.4844,26.0437 17.7188,26.2 C17.9063,26.325 18.0938,26.3562 18.5313,26.3562 L20.1875,26.3562 L20.1875,32.45 L18.5313,32.45 C18.0938,32.45 17.9531,32.4656 17.7813,32.575 C17.5156,32.7312 17.3438,33.0281 17.3438,33.3093 C17.3438,33.9187 17.75,34.2 18.5313,34.2 L23.6719,34.2 C24.4531,34.2 24.8594,33.9187 24.8594,33.3093 C24.8594,33.0437 24.7188,32.7937 24.4844,32.6218 C24.2969,32.4812 24.125,32.45 23.6719,32.45 L22.0156,32.45 L22.0156,26.3562 Z "/><text fill="#000000" font-family="sans-serif" font-size="14" font-style="italic" font-weight="bold" lengthAdjust="spacingAndGlyphs" textLength="83" x="76.5" y="28.3999">UserFactory</text><text fill="#000000" font-family="sans-serif" font-size="10" font-style="italic" lengthAdjust="spacingAndGlyphs" textLength="166" x="35" y="42.8999">it.matlice.ingsw.model.data.factories</text></a><!--class it.matlice.ingsw.model.data.impl.jdbc.UserFactoryImpl--><a target="_parent" xlink:actuate="onRequest" xlink:href="../../../../../it/matlice/ingsw/model/data/impl/jdbc/UserFactoryImpl.html" xlink:show="new" xlink:title="it.matlice.ingsw.model.data.impl.jdbc.UserFactoryImpl" xlink:type="simple"><rect fill="#FFFFFF" filter="url(#f93n2zi)" height="38.7999" style="stroke: #A80036; stroke-width: 1.5;" width="199" x="239.5" y="9.5"/><rect fill="#FFFFFF" height="38.7999" style="stroke: #A80036; stroke-width: 1.5;" width="199" x="239.5" y="9.5"/><ellipse cx="254.5" cy="28.9" fill="#ADD1B2" rx="11" ry="11" style="stroke: #A80036; stroke-width: 1.0;"/><path d="M249.5,30.0562 C249.5,32.5562 251.6406,34.3687 254.5625,34.3687 C255.7969,34.3687 256.9688,34.0718 257.7188,33.5562 C258.3281,33.1343 258.6563,32.7125 258.6563,32.3062 C258.6563,31.8375 258.2344,31.4312 257.7344,31.4312 C257.5,31.4312 257.2813,31.5093 257.0781,31.7125 C256.6406,32.15 256.6406,32.15 256.4688,32.2437 C256.0156,32.4781 255.375,32.6187 254.6094,32.6187 C252.6094,32.6187 251.3281,31.6031 251.3281,30.025 L251.3281,28.9781 C251.3281,27.275 252.5469,26.0718 254.25,26.0718 C254.8281,26.0718 255.4063,26.2125 255.875,26.4625 C256.3438,26.7281 256.5156,26.9156 256.5781,27.275 C256.7031,27.9468 256.9531,28.1968 257.4844,28.1968 C257.7656,28.1968 258.0469,28.0562 258.2344,27.8375 C258.3594,27.6656 258.4063,27.4937 258.4063,27.0562 L258.4063,25.6968 C258.4063,25.275 258.3906,25.1343 258.2656,24.9625 C258.0938,24.7125 257.8125,24.5562 257.4844,24.5562 C257.1719,24.5562 256.9688,24.6656 256.75,24.9312 C255.5781,24.4312 255.1406,24.3218 254.1875,24.3218 C251.5156,24.3218 249.5,26.3375 249.5,28.9625 L249.5,30.0562 Z "/><text fill="#000000" font-family="sans-serif" font-size="14" font-weight="bold" lengthAdjust="spacingAndGlyphs" textLength="112" x="296" y="27.5059">UserFactoryImpl</text><text fill="#000000" font-family="sans-serif" font-size="10" lengthAdjust="spacingAndGlyphs" textLength="167" x="268.5" y="40.5899">it.matlice.ingsw.model.data.impl.jdbc</text></a><path d="M159.25,50.18 C159.25,50.18 159.25,104.96 159.25,104.96 " fill="none" style="stroke: #A80036; stroke-width: 1.0; stroke-dasharray: 7.0,7.0;"/><polygon fill="#A80036" points="159.25,109.96,163.25,100.96,159.25,104.96,155.25,100.96,159.25,109.96" style="stroke: #A80036; stroke-width: 1.0;"/><path d="M284.5,48.67 C284.5,48.67 284.5,104.99 284.5,104.99 " fill="none" style="stroke: #A80036; stroke-width: 1.0; stroke-dasharray: 7.0,7.0;"/><polygon fill="#A80036" points="284.5,109.99,288.5,100.99,284.5,104.99,280.5,100.99,284.5,109.99" style="stroke: #A80036; stroke-width: 1.0;"/></g></svg>