<?xml version="1.0" encoding="UTF-8" standalone="no"?><svg xmlns="http://www.w3.org/2000/svg" xmlns:xlink="http://www.w3.org/1999/xlink" contentScriptType="application/ecmascript" contentStyleType="text/css" height="348px" preserveAspectRatio="none" style="width:2733px;height:348px;" version="1.1" viewBox="0 0 2733 348" width="2733px" zoomAndPan="magnify"><defs><filter height="300%" id="finv6z4" width="300%" x="-1" y="-1"><feGaussianBlur result="blurOut" stdDeviation="2.0"/><feColorMatrix in="blurOut" result="blurOut2" type="matrix" values="0 0 0 0 0 0 0 0 0 0 0 0 0 0 0 0 0 0 .4 0"/><feOffset dx="4.0" dy="4.0" in="blurOut2" result="blurOut3"/><feBlend in="SourceGraphic" in2="blurOut3" mode="normal"/></filter></defs><g><!--class it.matlice.ingsw.model.data.User--><a target="_parent" xlink:actuate="onRequest" xlink:href="../../../../../it/matlice/ingsw/model/data/User.html" xlink:show="new" xlink:title="it.matlice.ingsw.model.data.User" xlink:type="simple"><rect fill="#FEFECE" filter="url(#finv6z4)" height="127.3994" style="stroke: #A80036; stroke-width: 1.5;" width="203" x="1093.5" y="110"/><ellipse cx="1129.65" cy="129.4" fill="#ADD1B2" rx="11" ry="11" style="stroke: #A80036; stroke-width: 1.0;"/><path d="M1124.65,130.5562 C1124.65,133.0562 1126.7906,134.8687 1129.7125,134.8687 C1130.9469,134.8687 1132.1188,134.5718 1132.8688,134.0562 C1133.4781,133.6343 1133.8063,133.2125 1133.8063,132.8062 C1133.8063,132.3375 1133.3844,131.9312 1132.8844,131.9312 C1132.65,131.9312 1132.4313,132.0093 1132.2281,132.2125 C1131.7906,132.65 1131.7906,132.65 1131.6188,132.7437 C1131.1656,132.9781 1130.525,133.1187 1129.7594,133.1187 C1127.7594,133.1187 1126.4781,132.1031 1126.4781,130.525 L1126.4781,129.4781 C1126.4781,127.775 1127.6969,126.5718 1129.4,126.5718 C1129.9781,126.5718 1130.5563,126.7125 1131.025,126.9625 C1131.4938,127.2281 1131.6656,127.4156 1131.7281,127.775 C1131.8531,128.4468 1132.1031,128.6968 1132.6344,128.6968 C1132.9156,128.6968 1133.1969,128.5562 1133.3844,128.3375 C1133.5094,128.1656 1133.5563,127.9937 1133.5563,127.5562 L1133.5563,126.1968 C1133.5563,125.775 1133.5406,125.6343 1133.4156,125.4625 C1133.2438,125.2125 1132.9625,125.0562 1132.6344,125.0562 C1132.3219,125.0562 1132.1188,125.1656 1131.9,125.4312 C1130.7281,124.9312 1130.2906,124.8218 1129.3375,124.8218 C1126.6656,124.8218 1124.65,126.8375 1124.65,129.4625 L1124.65,130.5562 Z "/><text fill="#000000" font-family="sans-serif" font-size="14" font-weight="bold" lengthAdjust="spacingAndGlyphs" textLength="31" x="1194.85" y="128.0059">User</text><text fill="#000000" font-family="sans-serif" font-size="10" lengthAdjust="spacingAndGlyphs" textLength="124" x="1148.35" y="141.0899">it.matlice.ingsw.model.data</text><line style="stroke: #A80036; stroke-width: 1.5;" x1="1094.5" x2="1295.5" y1="148.7999" y2="148.7999"/><line style="stroke: #A80036; stroke-width: 1.5;" x1="1094.5" x2="1295.5" y1="156.7999" y2="156.7999"/><ellipse cx="1104.5" cy="168.8999" fill="#84BE84" rx="3" ry="3" style="stroke: #038048; stroke-width: 1.0;"/><text fill="#000000" font-family="sans-serif" font-size="11" lengthAdjust="spacingAndGlyphs" textLength="32" x="1113.5" y="171.0188">User()</text><ellipse cx="1104.5" cy="182.9248" fill="#84BE84" rx="3" ry="3" style="stroke: #038048; stroke-width: 1.0;"/><text fill="#000000" font-family="sans-serif" font-size="11" font-style="italic" lengthAdjust="spacingAndGlyphs" textLength="105" x="1113.5" y="186.0997">String getUsername()</text><ellipse cx="1104.5" cy="197.7747" fill="#84BE84" rx="3" ry="3" style="stroke: #038048; stroke-width: 1.0;"/><text fill="#000000" font-family="sans-serif" font-size="11" font-style="italic" lengthAdjust="spacingAndGlyphs" textLength="121" x="1113.5" y="200.9496">Long getLastLoginTime()</text><ellipse cx="1104.5" cy="212.6245" fill="#84BE84" rx="3" ry="3" style="stroke: #038048; stroke-width: 1.0;"/><text fill="#000000" font-family="sans-serif" font-size="11" font-style="italic" lengthAdjust="spacingAndGlyphs" textLength="160" x="1113.5" y="215.7995">void setLastLoginTime(long time)</text><ellipse cx="1104.5" cy="227.4744" fill="#84BE84" rx="3" ry="3" style="stroke: #038048; stroke-width: 1.0;"/><text fill="#000000" font-family="sans-serif" font-size="11" font-style="italic" lengthAdjust="spacingAndGlyphs" textLength="177" x="1113.5" y="230.6494">List&lt;AuthMethod&gt; getAuthMethods()</text></a><!--class it.matlice.ingsw.controller.MenuAction--><a target="_parent" xlink:actuate="onRequest" xlink:href="../../../../../it/matlice/ingsw/controller/MenuAction.html" xlink:show="new" xlink:title="it.matlice.ingsw.controller.MenuAction" xlink:type="simple"><rect fill="#FFFFFF" filter="url(#finv6z4)" height="38.7999" style="stroke: #A80036; stroke-width: 1.5;" width="146" x="6" y="9.5"/><rect fill="#FFFFFF" height="38.7999" style="stroke: #A80036; stroke-width: 1.5;" width="146" x="6" y="9.5"/><ellipse cx="21" cy="28.9" fill="#ADD1B2" rx="11" ry="11" style="stroke: #A80036; stroke-width: 1.0;"/><path d="M16,30.0562 C16,32.5562 18.1406,34.3687 21.0625,34.3687 C22.2969,34.3687 23.4688,34.0718 24.2188,33.5562 C24.8281,33.1343 25.1563,32.7125 25.1563,32.3062 C25.1563,31.8375 24.7344,31.4312 24.2344,31.4312 C24,31.4312 23.7813,31.5093 23.5781,31.7125 C23.1406,32.15 23.1406,32.15 22.9688,32.2437 C22.5156,32.4781 21.875,32.6187 21.1094,32.6187 C19.1094,32.6187 17.8281,31.6031 17.8281,30.025 L17.8281,28.9781 C17.8281,27.275 19.0469,26.0718 20.75,26.0718 C21.3281,26.0718 21.9063,26.2125 22.375,26.4625 C22.8438,26.7281 23.0156,26.9156 23.0781,27.275 C23.2031,27.9468 23.4531,28.1968 23.9844,28.1968 C24.2656,28.1968 24.5469,28.0562 24.7344,27.8375 C24.8594,27.6656 24.9063,27.4937 24.9063,27.0562 L24.9063,25.6968 C24.9063,25.275 24.8906,25.1343 24.7656,24.9625 C24.5938,24.7125 24.3125,24.5562 23.9844,24.5562 C23.6719,24.5562 23.4688,24.6656 23.25,24.9312 C22.0781,24.4312 21.6406,24.3218 20.6875,24.3218 C18.0156,24.3218 16,26.3375 16,28.9625 L16,30.0562 Z "/><text fill="#000000" font-family="sans-serif" font-size="14" font-weight="bold" lengthAdjust="spacingAndGlyphs" textLength="83" x="50.5" y="27.5059">MenuAction</text><text fill="#000000" font-family="sans-serif" font-size="10" lengthAdjust="spacingAndGlyphs" textLength="114" x="35" y="40.5899">it.matlice.ingsw.controller</text></a><!--class it.matlice.ingsw.model.Model--><a target="_parent" xlink:actuate="onRequest" xlink:href="../../../../../it/matlice/ingsw/model/Model.html" xlink:show="new" xlink:title="it.matlice.ingsw.model.Model" xlink:type="simple"><rect fill="#FFFFFF" filter="url(#finv6z4)" height="38.7999" style="stroke: #A80036; stroke-width: 1.5;" width="132" x="187" y="9.5"/><rect fill="#FFFFFF" height="38.7999" style="stroke: #A80036; stroke-width: 1.5;" width="132" x="187" y="9.5"/><ellipse cx="202" cy="28.9" fill="#ADD1B2" rx="11" ry="11" style="stroke: #A80036; stroke-width: 1.0;"/><path d="M197,30.0562 C197,32.5562 199.1406,34.3687 202.0625,34.3687 C203.2969,34.3687 204.4688,34.0718 205.2188,33.5562 C205.8281,33.1343 206.1563,32.7125 206.1563,32.3062 C206.1563,31.8375 205.7344,31.4312 205.2344,31.4312 C205,31.4312 204.7813,31.5093 204.5781,31.7125 C204.1406,32.15 204.1406,32.15 203.9688,32.2437 C203.5156,32.4781 202.875,32.6187 202.1094,32.6187 C200.1094,32.6187 198.8281,31.6031 198.8281,30.025 L198.8281,28.9781 C198.8281,27.275 200.0469,26.0718 201.75,26.0718 C202.3281,26.0718 202.9063,26.2125 203.375,26.4625 C203.8438,26.7281 204.0156,26.9156 204.0781,27.275 C204.2031,27.9468 204.4531,28.1968 204.9844,28.1968 C205.2656,28.1968 205.5469,28.0562 205.7344,27.8375 C205.8594,27.6656 205.9063,27.4937 205.9063,27.0562 L205.9063,25.6968 C205.9063,25.275 205.8906,25.1343 205.7656,24.9625 C205.5938,24.7125 205.3125,24.5562 204.9844,24.5562 C204.6719,24.5562 204.4688,24.6656 204.25,24.9312 C203.0781,24.4312 202.6406,24.3218 201.6875,24.3218 C199.0156,24.3218 197,26.3375 197,28.9625 L197,30.0562 Z "/><text fill="#000000" font-family="sans-serif" font-size="14" font-weight="bold" lengthAdjust="spacingAndGlyphs" textLength="42" x="245" y="27.5059">Model</text><text fill="#000000" font-family="sans-serif" font-size="10" lengthAdjust="spacingAndGlyphs" textLength="100" x="216" y="40.5899">it.matlice.ingsw.model</text></a><!--class it.matlice.ingsw.model.Authentication--><a target="_parent" xlink:actuate="onRequest" xlink:href="../../../../../it/matlice/ingsw/model/Authentication.html" xlink:show="new" xlink:title="it.matlice.ingsw.model.Authentication" xlink:type="simple"><rect fill="#FFFFFF" filter="url(#finv6z4)" height="42.3999" style="stroke: #A80036; stroke-width: 1.5;" width="134" x="354" y="8"/><rect fill="#FFFFFF" height="42.3999" style="stroke: #A80036; stroke-width: 1.5;" width="134" x="354" y="8"/><ellipse cx="369" cy="29.2" fill="#B4A7E5" rx="11" ry="11" style="stroke: #A80036; stroke-width: 1.0;"/><path d="M370.0156,26.3562 L371.6719,26.3562 C372.0625,26.3562 372.2656,26.325 372.4219,26.2468 C372.6875,26.075 372.8594,25.7781 372.8594,25.4812 C372.8594,25.2 372.7188,24.95 372.4844,24.7781 C372.2969,24.6531 372.1406,24.6062 371.6719,24.6062 L366.5313,24.6062 C366.0938,24.6062 365.9531,24.6218 365.7813,24.7312 C365.5156,24.9031 365.3438,25.1843 365.3438,25.4812 C365.3438,25.7625 365.4844,26.0437 365.7188,26.2 C365.9063,26.325 366.0938,26.3562 366.5313,26.3562 L368.1875,26.3562 L368.1875,32.45 L366.5313,32.45 C366.0938,32.45 365.9531,32.4656 365.7813,32.575 C365.5156,32.7312 365.3438,33.0281 365.3438,33.3093 C365.3438,33.9187 365.75,34.2 366.5313,34.2 L371.6719,34.2 C372.4531,34.2 372.8594,33.9187 372.8594,33.3093 C372.8594,33.0437 372.7188,32.7937 372.4844,32.6218 C372.2969,32.4812 372.125,32.45 371.6719,32.45 L370.0156,32.45 L370.0156,26.3562 Z "/><text fill="#000000" font-family="sans-serif" font-size="14" font-style="italic" font-weight="bold" lengthAdjust="spacingAndGlyphs" textLength="102" x="383" y="28.3999">Authentication</text><text fill="#000000" font-family="sans-serif" font-size="10" font-style="italic" lengthAdjust="spacingAndGlyphs" textLength="100" x="384" y="42.8999">it.matlice.ingsw.model</text></a><!--class it.matlice.ingsw.model.auth.Authenticable--><a target="_parent" xlink:actuate="onRequest" xlink:href="../../../../../it/matlice/ingsw/model/auth/Authenticable.html" xlink:show="new" xlink:title="it.matlice.ingsw.model.auth.Authenticable" xlink:type="simple"><rect fill="#FFFFFF" filter="url(#finv6z4)" height="42.3999" style="stroke: #A80036; stroke-width: 1.5;" width="156" x="1022" y="297"/><rect fill="#FFFFFF" height="42.3999" style="stroke: #A80036; stroke-width: 1.5;" width="156" x="1022" y="297"/><ellipse cx="1037" cy="318.2" fill="#B4A7E5" rx="11" ry="11" style="stroke: #A80036; stroke-width: 1.0;"/><path d="M1038.0156,315.3562 L1039.6719,315.3562 C1040.0625,315.3562 1040.2656,315.325 1040.4219,315.2468 C1040.6875,315.075 1040.8594,314.7781 1040.8594,314.4812 C1040.8594,314.2 1040.7188,313.95 1040.4844,313.7781 C1040.2969,313.6531 1040.1406,313.6062 1039.6719,313.6062 L1034.5313,313.6062 C1034.0938,313.6062 1033.9531,313.6218 1033.7813,313.7312 C1033.5156,313.9031 1033.3438,314.1843 1033.3438,314.4812 C1033.3438,314.7625 1033.4844,315.0437 1033.7188,315.2 C1033.9063,315.325 1034.0938,315.3562 1034.5313,315.3562 L1036.1875,315.3562 L1036.1875,321.45 L1034.5313,321.45 C1034.0938,321.45 1033.9531,321.4656 1033.7813,321.575 C1033.5156,321.7312 1033.3438,322.0281 1033.3438,322.3093 C1033.3438,322.9187 1033.75,323.2 1034.5313,323.2 L1039.6719,323.2 C1040.4531,323.2 1040.8594,322.9187 1040.8594,322.3093 C1040.8594,322.0437 1040.7188,321.7937 1040.4844,321.6218 C1040.2969,321.4812 1040.125,321.45 1039.6719,321.45 L1038.0156,321.45 L1038.0156,315.3562 Z "/><text fill="#000000" font-family="sans-serif" font-size="14" font-style="italic" font-weight="bold" lengthAdjust="spacingAndGlyphs" textLength="96" x="1065" y="317.3999">Authenticable</text><text fill="#000000" font-family="sans-serif" font-size="10" font-style="italic" lengthAdjust="spacingAndGlyphs" textLength="124" x="1051" y="331.8999">it.matlice.ingsw.model.auth</text></a><!--class it.matlice.ingsw.model.auth.AuthMethod--><a target="_parent" xlink:actuate="onRequest" xlink:href="../../../../../it/matlice/ingsw/model/auth/AuthMethod.html" xlink:show="new" xlink:title="it.matlice.ingsw.model.auth.AuthMethod" xlink:type="simple"><rect fill="#FFFFFF" filter="url(#finv6z4)" height="42.3999" style="stroke: #A80036; stroke-width: 1.5;" width="156" x="1213" y="297"/><rect fill="#FFFFFF" height="42.3999" style="stroke: #A80036; stroke-width: 1.5;" width="156" x="1213" y="297"/><ellipse cx="1228" cy="318.2" fill="#B4A7E5" rx="11" ry="11" style="stroke: #A80036; stroke-width: 1.0;"/><path d="M1229.0156,315.3562 L1230.6719,315.3562 C1231.0625,315.3562 1231.2656,315.325 1231.4219,315.2468 C1231.6875,315.075 1231.8594,314.7781 1231.8594,314.4812 C1231.8594,314.2 1231.7188,313.95 1231.4844,313.7781 C1231.2969,313.6531 1231.1406,313.6062 1230.6719,313.6062 L1225.5313,313.6062 C1225.0938,313.6062 1224.9531,313.6218 1224.7813,313.7312 C1224.5156,313.9031 1224.3438,314.1843 1224.3438,314.4812 C1224.3438,314.7625 1224.4844,315.0437 1224.7188,315.2 C1224.9063,315.325 1225.0938,315.3562 1225.5313,315.3562 L1227.1875,315.3562 L1227.1875,321.45 L1225.5313,321.45 C1225.0938,321.45 1224.9531,321.4656 1224.7813,321.575 C1224.5156,321.7312 1224.3438,322.0281 1224.3438,322.3093 C1224.3438,322.9187 1224.75,323.2 1225.5313,323.2 L1230.6719,323.2 C1231.4531,323.2 1231.8594,322.9187 1231.8594,322.3093 C1231.8594,322.0437 1231.7188,321.7937 1231.4844,321.6218 C1231.2969,321.4812 1231.125,321.45 1230.6719,321.45 L1229.0156,321.45 L1229.0156,315.3562 Z "/><text fill="#000000" font-family="sans-serif" font-size="14" font-style="italic" font-weight="bold" lengthAdjust="spacingAndGlyphs" textLength="85" x="1261.5" y="317.3999">AuthMethod</text><text fill="#000000" font-family="sans-serif" font-size="10" font-style="italic" lengthAdjust="spacingAndGlyphs" textLength="124" x="1242" y="331.8999">it.matlice.ingsw.model.auth</text></a><!--class it.matlice.ingsw.model.data.Offer--><a target="_parent" xlink:actuate="onRequest" xlink:href="../../../../../it/matlice/ingsw/model/data/Offer.html" xlink:show="new" xlink:title="it.matlice.ingsw.model.data.Offer" xlink:type="simple"><rect fill="#FEFECE" filter="url(#finv6z4)" height="38.7999" style="stroke: #A80036; stroke-width: 1.5;" width="156" x="523" y="9.5"/><ellipse cx="538" cy="28.9" fill="#ADD1B2" rx="11" ry="11" style="stroke: #A80036; stroke-width: 1.0;"/><path d="M533,30.0562 C533,32.5562 535.1406,34.3687 538.0625,34.3687 C539.2969,34.3687 540.4688,34.0718 541.2188,33.5562 C541.8281,33.1343 542.1563,32.7125 542.1563,32.3062 C542.1563,31.8375 541.7344,31.4312 541.2344,31.4312 C541,31.4312 540.7813,31.5093 540.5781,31.7125 C540.1406,32.15 540.1406,32.15 539.9688,32.2437 C539.5156,32.4781 538.875,32.6187 538.1094,32.6187 C536.1094,32.6187 534.8281,31.6031 534.8281,30.025 L534.8281,28.9781 C534.8281,27.275 536.0469,26.0718 537.75,26.0718 C538.3281,26.0718 538.9063,26.2125 539.375,26.4625 C539.8438,26.7281 540.0156,26.9156 540.0781,27.275 C540.2031,27.9468 540.4531,28.1968 540.9844,28.1968 C541.2656,28.1968 541.5469,28.0562 541.7344,27.8375 C541.8594,27.6656 541.9063,27.4937 541.9063,27.0562 L541.9063,25.6968 C541.9063,25.275 541.8906,25.1343 541.7656,24.9625 C541.5938,24.7125 541.3125,24.5562 540.9844,24.5562 C540.6719,24.5562 540.4688,24.6656 540.25,24.9312 C539.0781,24.4312 538.6406,24.3218 537.6875,24.3218 C535.0156,24.3218 533,26.3375 533,28.9625 L533,30.0562 Z "/><text fill="#000000" font-family="sans-serif" font-size="14" font-weight="bold" lengthAdjust="spacingAndGlyphs" textLength="34" x="597" y="27.5059">Offer</text><text fill="#000000" font-family="sans-serif" font-size="10" lengthAdjust="spacingAndGlyphs" textLength="124" x="552" y="40.5899">it.matlice.ingsw.model.data</text></a><!--class it.matlice.ingsw.model.data.CustomerUser--><a target="_parent" xlink:actuate="onRequest" xlink:href="../../../../../it/matlice/ingsw/model/data/CustomerUser.html" xlink:show="new" xlink:title="it.matlice.ingsw.model.data.CustomerUser" xlink:type="simple"><rect fill="#FEFECE" filter="url(#finv6z4)" height="38.7999" style="stroke: #A80036; stroke-width: 1.5;" width="156" x="714" y="9.5"/><ellipse cx="729" cy="28.9" fill="#ADD1B2" rx="11" ry="11" style="stroke: #A80036; stroke-width: 1.0;"/><path d="M724,30.0562 C724,32.5562 726.1406,34.3687 729.0625,34.3687 C730.2969,34.3687 731.4688,34.0718 732.2188,33.5562 C732.8281,33.1343 733.1563,32.7125 733.1563,32.3062 C733.1563,31.8375 732.7344,31.4312 732.2344,31.4312 C732,31.4312 731.7813,31.5093 731.5781,31.7125 C731.1406,32.15 731.1406,32.15 730.9688,32.2437 C730.5156,32.4781 729.875,32.6187 729.1094,32.6187 C727.1094,32.6187 725.8281,31.6031 725.8281,30.025 L725.8281,28.9781 C725.8281,27.275 727.0469,26.0718 728.75,26.0718 C729.3281,26.0718 729.9063,26.2125 730.375,26.4625 C730.8438,26.7281 731.0156,26.9156 731.0781,27.275 C731.2031,27.9468 731.4531,28.1968 731.9844,28.1968 C732.2656,28.1968 732.5469,28.0562 732.7344,27.8375 C732.8594,27.6656 732.9063,27.4937 732.9063,27.0562 L732.9063,25.6968 C732.9063,25.275 732.8906,25.1343 732.7656,24.9625 C732.5938,24.7125 732.3125,24.5562 731.9844,24.5562 C731.6719,24.5562 731.4688,24.6656 731.25,24.9312 C730.0781,24.4312 729.6406,24.3218 728.6875,24.3218 C726.0156,24.3218 724,26.3375 724,28.9625 L724,30.0562 Z "/><text fill="#000000" font-family="sans-serif" font-size="14" font-weight="bold" lengthAdjust="spacingAndGlyphs" textLength="97" x="756.5" y="27.5059">CustomerUser</text><text fill="#000000" font-family="sans-serif" font-size="10" lengthAdjust="spacingAndGlyphs" textLength="124" x="743" y="40.5899">it.matlice.ingsw.model.data</text></a><!--class it.matlice.ingsw.model.data.ConfiguratorUser--><a target="_parent" xlink:actuate="onRequest" xlink:href="../../../../../it/matlice/ingsw/model/data/ConfiguratorUser.html" xlink:show="new" xlink:title="it.matlice.ingsw.model.data.ConfiguratorUser" xlink:type="simple"><rect fill="#FEFECE" filter="url(#finv6z4)" height="38.7999" style="stroke: #A80036; stroke-width: 1.5;" width="156" x="905" y="9.5"/><ellipse cx="920" cy="28.9" fill="#ADD1B2" rx="11" ry="11" style="stroke: #A80036; stroke-width: 1.0;"/><path d="M915,30.0562 C915,32.5562 917.1406,34.3687 920.0625,34.3687 C921.2969,34.3687 922.4688,34.0718 923.2188,33.5562 C923.8281,33.1343 924.1563,32.7125 924.1563,32.3062 C924.1563,31.8375 923.7344,31.4312 923.2344,31.4312 C923,31.4312 922.7813,31.5093 922.5781,31.7125 C922.1406,32.15 922.1406,32.15 921.9688,32.2437 C921.5156,32.4781 920.875,32.6187 920.1094,32.6187 C918.1094,32.6187 916.8281,31.6031 916.8281,30.025 L916.8281,28.9781 C916.8281,27.275 918.0469,26.0718 919.75,26.0718 C920.3281,26.0718 920.9063,26.2125 921.375,26.4625 C921.8438,26.7281 922.0156,26.9156 922.0781,27.275 C922.2031,27.9468 922.4531,28.1968 922.9844,28.1968 C923.2656,28.1968 923.5469,28.0562 923.7344,27.8375 C923.8594,27.6656 923.9063,27.4937 923.9063,27.0562 L923.9063,25.6968 C923.9063,25.275 923.8906,25.1343 923.7656,24.9625 C923.5938,24.7125 923.3125,24.5562 922.9844,24.5562 C922.6719,24.5562 922.4688,24.6656 922.25,24.9312 C921.0781,24.4312 920.6406,24.3218 919.6875,24.3218 C917.0156,24.3218 915,26.3375 915,28.9625 L915,30.0562 Z "/><text fill="#000000" font-family="sans-serif" font-size="14" font-weight="bold" lengthAdjust="spacingAndGlyphs" textLength="118" x="937" y="27.5059">ConfiguratorUser</text><text fill="#000000" font-family="sans-serif" font-size="10" lengthAdjust="spacingAndGlyphs" textLength="124" x="934" y="40.5899">it.matlice.ingsw.model.data</text></a><!--class it.matlice.ingsw.model.data.factories.UserFactory--><a target="_parent" xlink:actuate="onRequest" xlink:href="../../../../../it/matlice/ingsw/model/data/factories/UserFactory.html" xlink:show="new" xlink:title="it.matlice.ingsw.model.data.factories.UserFactory" xlink:type="simple"><rect fill="#FFFFFF" filter="url(#finv6z4)" height="42.3999" style="stroke: #A80036; stroke-width: 1.5;" width="198" x="1096" y="8"/><rect fill="#FFFFFF" height="42.3999" style="stroke: #A80036; stroke-width: 1.5;" width="198" x="1096" y="8"/><ellipse cx="1111" cy="29.2" fill="#B4A7E5" rx="11" ry="11" style="stroke: #A80036; stroke-width: 1.0;"/><path d="M1112.0156,26.3562 L1113.6719,26.3562 C1114.0625,26.3562 1114.2656,26.325 1114.4219,26.2468 C1114.6875,26.075 1114.8594,25.7781 1114.8594,25.4812 C1114.8594,25.2 1114.7188,24.95 1114.4844,24.7781 C1114.2969,24.6531 1114.1406,24.6062 1113.6719,24.6062 L1108.5313,24.6062 C1108.0938,24.6062 1107.9531,24.6218 1107.7813,24.7312 C1107.5156,24.9031 1107.3438,25.1843 1107.3438,25.4812 C1107.3438,25.7625 1107.4844,26.0437 1107.7188,26.2 C1107.9063,26.325 1108.0938,26.3562 1108.5313,26.3562 L1110.1875,26.3562 L1110.1875,32.45 L1108.5313,32.45 C1108.0938,32.45 1107.9531,32.4656 1107.7813,32.575 C1107.5156,32.7312 1107.3438,33.0281 1107.3438,33.3093 C1107.3438,33.9187 1107.75,34.2 1108.5313,34.2 L1113.6719,34.2 C1114.4531,34.2 1114.8594,33.9187 1114.8594,33.3093 C1114.8594,33.0437 1114.7188,32.7937 1114.4844,32.6218 C1114.2969,32.4812 1114.125,32.45 1113.6719,32.45 L1112.0156,32.45 L1112.0156,26.3562 Z "/><text fill="#000000" font-family="sans-serif" font-size="14" font-style="italic" font-weight="bold" lengthAdjust="spacingAndGlyphs" textLength="83" x="1166.5" y="28.3999">UserFactory</text><text fill="#000000" font-family="sans-serif" font-size="10" font-style="italic" lengthAdjust="spacingAndGlyphs" textLength="166" x="1125" y="42.8999">it.matlice.ingsw.model.data.factories</text></a><!--class it.matlice.ingsw.model.data.factories.OfferFactory--><a target="_parent" xlink:actuate="onRequest" xlink:href="../../../../../it/matlice/ingsw/model/data/factories/OfferFactory.html" xlink:show="new" xlink:title="it.matlice.ingsw.model.data.factories.OfferFactory" xlink:type="simple"><rect fill="#FFFFFF" filter="url(#finv6z4)" height="42.3999" style="stroke: #A80036; stroke-width: 1.5;" width="198" x="1329" y="8"/><rect fill="#FFFFFF" height="42.3999" style="stroke: #A80036; stroke-width: 1.5;" width="198" x="1329" y="8"/><ellipse cx="1344" cy="29.2" fill="#B4A7E5" rx="11" ry="11" style="stroke: #A80036; stroke-width: 1.0;"/><path d="M1345.0156,26.3562 L1346.6719,26.3562 C1347.0625,26.3562 1347.2656,26.325 1347.4219,26.2468 C1347.6875,26.075 1347.8594,25.7781 1347.8594,25.4812 C1347.8594,25.2 1347.7188,24.95 1347.4844,24.7781 C1347.2969,24.6531 1347.1406,24.6062 1346.6719,24.6062 L1341.5313,24.6062 C1341.0938,24.6062 1340.9531,24.6218 1340.7813,24.7312 C1340.5156,24.9031 1340.3438,25.1843 1340.3438,25.4812 C1340.3438,25.7625 1340.4844,26.0437 1340.7188,26.2 C1340.9063,26.325 1341.0938,26.3562 1341.5313,26.3562 L1343.1875,26.3562 L1343.1875,32.45 L1341.5313,32.45 C1341.0938,32.45 1340.9531,32.4656 1340.7813,32.575 C1340.5156,32.7312 1340.3438,33.0281 1340.3438,33.3093 C1340.3438,33.9187 1340.75,34.2 1341.5313,34.2 L1346.6719,34.2 C1347.4531,34.2 1347.8594,33.9187 1347.8594,33.3093 C1347.8594,33.0437 1347.7188,32.7937 1347.4844,32.6218 C1347.2969,32.4812 1347.125,32.45 1346.6719,32.45 L1345.0156,32.45 L1345.0156,26.3562 Z "/><text fill="#000000" font-family="sans-serif" font-size="14" font-style="italic" font-weight="bold" lengthAdjust="spacingAndGlyphs" textLength="86" x="1398" y="28.3999">OfferFactory</text><text fill="#000000" font-family="sans-serif" font-size="10" font-style="italic" lengthAdjust="spacingAndGlyphs" textLength="166" x="1358" y="42.8999">it.matlice.ingsw.model.data.factories</text></a><!--class it.matlice.ingsw.model.data.factories.MessageFactory--><a target="_parent" xlink:actuate="onRequest" xlink:href="../../../../../it/matlice/ingsw/model/data/factories/MessageFactory.html" xlink:show="new" xlink:title="it.matlice.ingsw.model.data.factories.MessageFactory" xlink:type="simple"><rect fill="#FFFFFF" filter="url(#finv6z4)" height="42.3999" style="stroke: #A80036; stroke-width: 1.5;" width="198" x="1562" y="8"/><rect fill="#FFFFFF" height="42.3999" style="stroke: #A80036; stroke-width: 1.5;" width="198" x="1562" y="8"/><ellipse cx="1577" cy="29.2" fill="#B4A7E5" rx="11" ry="11" style="stroke: #A80036; stroke-width: 1.0;"/><path d="M1578.0156,26.3562 L1579.6719,26.3562 C1580.0625,26.3562 1580.2656,26.325 1580.4219,26.2468 C1580.6875,26.075 1580.8594,25.7781 1580.8594,25.4812 C1580.8594,25.2 1580.7188,24.95 1580.4844,24.7781 C1580.2969,24.6531 1580.1406,24.6062 1579.6719,24.6062 L1574.5313,24.6062 C1574.0938,24.6062 1573.9531,24.6218 1573.7813,24.7312 C1573.5156,24.9031 1573.3438,25.1843 1573.3438,25.4812 C1573.3438,25.7625 1573.4844,26.0437 1573.7188,26.2 C1573.9063,26.325 1574.0938,26.3562 1574.5313,26.3562 L1576.1875,26.3562 L1576.1875,32.45 L1574.5313,32.45 C1574.0938,32.45 1573.9531,32.4656 1573.7813,32.575 C1573.5156,32.7312 1573.3438,33.0281 1573.3438,33.3093 C1573.3438,33.9187 1573.75,34.2 1574.5313,34.2 L1579.6719,34.2 C1580.4531,34.2 1580.8594,33.9187 1580.8594,33.3093 C1580.8594,33.0437 1580.7188,32.7937 1580.4844,32.6218 C1580.2969,32.4812 1580.125,32.45 1579.6719,32.45 L1578.0156,32.45 L1578.0156,26.3562 Z "/><text fill="#000000" font-family="sans-serif" font-size="14" font-style="italic" font-weight="bold" lengthAdjust="spacingAndGlyphs" textLength="113" x="1617.5" y="28.3999">MessageFactory</text><text fill="#000000" font-family="sans-serif" font-size="10" font-style="italic" lengthAdjust="spacingAndGlyphs" textLength="166" x="1591" y="42.8999">it.matlice.ingsw.model.data.factories</text></a><!--class it.matlice.ingsw.model.data.impl.jdbc.UserFactoryImpl--><a target="_parent" xlink:actuate="onRequest" xlink:href="../../../../../it/matlice/ingsw/model/data/impl/jdbc/UserFactoryImpl.html" xlink:show="new" xlink:title="it.matlice.ingsw.model.data.impl.jdbc.UserFactoryImpl" xlink:type="simple"><rect fill="#FFFFFF" filter="url(#finv6z4)" height="38.7999" style="stroke: #A80036; stroke-width: 1.5;" width="199" x="1795.5" y="9.5"/><rect fill="#FFFFFF" height="38.7999" style="stroke: #A80036; stroke-width: 1.5;" width="199" x="1795.5" y="9.5"/><ellipse cx="1810.5" cy="28.9" fill="#ADD1B2" rx="11" ry="11" style="stroke: #A80036; stroke-width: 1.0;"/><path d="M1805.5,30.0562 C1805.5,32.5562 1807.6406,34.3687 1810.5625,34.3687 C1811.7969,34.3687 1812.9688,34.0718 1813.7188,33.5562 C1814.3281,33.1343 1814.6563,32.7125 1814.6563,32.3062 C1814.6563,31.8375 1814.2344,31.4312 1813.7344,31.4312 C1813.5,31.4312 1813.2813,31.5093 1813.0781,31.7125 C1812.6406,32.15 1812.6406,32.15 1812.4688,32.2437 C1812.0156,32.4781 1811.375,32.6187 1810.6094,32.6187 C1808.6094,32.6187 1807.3281,31.6031 1807.3281,30.025 L1807.3281,28.9781 C1807.3281,27.275 1808.5469,26.0718 1810.25,26.0718 C1810.8281,26.0718 1811.4063,26.2125 1811.875,26.4625 C1812.3438,26.7281 1812.5156,26.9156 1812.5781,27.275 C1812.7031,27.9468 1812.9531,28.1968 1813.4844,28.1968 C1813.7656,28.1968 1814.0469,28.0562 1814.2344,27.8375 C1814.3594,27.6656 1814.4063,27.4937 1814.4063,27.0562 L1814.4063,25.6968 C1814.4063,25.275 1814.3906,25.1343 1814.2656,24.9625 C1814.0938,24.7125 1813.8125,24.5562 1813.4844,24.5562 C1813.1719,24.5562 1812.9688,24.6656 1812.75,24.9312 C1811.5781,24.4312 1811.1406,24.3218 1810.1875,24.3218 C1807.5156,24.3218 1805.5,26.3375 1805.5,28.9625 L1805.5,30.0562 Z "/><text fill="#000000" font-family="sans-serif" font-size="14" font-weight="bold" lengthAdjust="spacingAndGlyphs" textLength="112" x="1852" y="27.5059">UserFactoryImpl</text><text fill="#000000" font-family="sans-serif" font-size="10" lengthAdjust="spacingAndGlyphs" textLength="167" x="1824.5" y="40.5899">it.matlice.ingsw.model.data.impl.jdbc</text></a><!--class it.matlice.ingsw.model.data.impl.jdbc.OfferFactoryImpl--><a target="_parent" xlink:actuate="onRequest" xlink:href="../../../../../it/matlice/ingsw/model/data/impl/jdbc/OfferFactoryImpl.html" xlink:show="new" xlink:title="it.matlice.ingsw.model.data.impl.jdbc.OfferFactoryImpl" xlink:type="simple"><rect fill="#FFFFFF" filter="url(#finv6z4)" height="38.7999" style="stroke: #A80036; stroke-width: 1.5;" width="199" x="2029.5" y="9.5"/><rect fill="#FFFFFF" height="38.7999" style="stroke: #A80036; stroke-width: 1.5;" width="199" x="2029.5" y="9.5"/><ellipse cx="2044.5" cy="28.9" fill="#ADD1B2" rx="11" ry="11" style="stroke: #A80036; stroke-width: 1.0;"/><path d="M2039.5,30.0562 C2039.5,32.5562 2041.6406,34.3687 2044.5625,34.3687 C2045.7969,34.3687 2046.9688,34.0718 2047.7188,33.5562 C2048.3281,33.1343 2048.6563,32.7125 2048.6563,32.3062 C2048.6563,31.8375 2048.2344,31.4312 2047.7344,31.4312 C2047.5,31.4312 2047.2813,31.5093 2047.0781,31.7125 C2046.6406,32.15 2046.6406,32.15 2046.4688,32.2437 C2046.0156,32.4781 2045.375,32.6187 2044.6094,32.6187 C2042.6094,32.6187 2041.3281,31.6031 2041.3281,30.025 L2041.3281,28.9781 C2041.3281,27.275 2042.5469,26.0718 2044.25,26.0718 C2044.8281,26.0718 2045.4063,26.2125 2045.875,26.4625 C2046.3438,26.7281 2046.5156,26.9156 2046.5781,27.275 C2046.7031,27.9468 2046.9531,28.1968 2047.4844,28.1968 C2047.7656,28.1968 2048.0469,28.0562 2048.2344,27.8375 C2048.3594,27.6656 2048.4063,27.4937 2048.4063,27.0562 L2048.4063,25.6968 C2048.4063,25.275 2048.3906,25.1343 2048.2656,24.9625 C2048.0938,24.7125 2047.8125,24.5562 2047.4844,24.5562 C2047.1719,24.5562 2046.9688,24.6656 2046.75,24.9312 C2045.5781,24.4312 2045.1406,24.3218 2044.1875,24.3218 C2041.5156,24.3218 2039.5,26.3375 2039.5,28.9625 L2039.5,30.0562 Z "/><text fill="#000000" font-family="sans-serif" font-size="14" font-weight="bold" lengthAdjust="spacingAndGlyphs" textLength="115" x="2084.5" y="27.5059">OfferFactoryImpl</text><text fill="#000000" font-family="sans-serif" font-size="10" lengthAdjust="spacingAndGlyphs" textLength="167" x="2058.5" y="40.5899">it.matlice.ingsw.model.data.impl.jdbc</text></a><!--class it.matlice.ingsw.model.data.impl.jdbc.MessageFactoryImpl--><a target="_parent" xlink:actuate="onRequest" xlink:href="../../../../../it/matlice/ingsw/model/data/impl/jdbc/MessageFactoryImpl.html" xlink:show="new" xlink:title="it.matlice.ingsw.model.data.impl.jdbc.MessageFactoryImpl" xlink:type="simple"><rect fill="#FFFFFF" filter="url(#finv6z4)" height="38.7999" style="stroke: #A80036; stroke-width: 1.5;" width="199" x="2263.5" y="9.5"/><rect fill="#FFFFFF" height="38.7999" style="stroke: #A80036; stroke-width: 1.5;" width="199" x="2263.5" y="9.5"/><ellipse cx="2278.5" cy="28.9" fill="#ADD1B2" rx="11" ry="11" style="stroke: #A80036; stroke-width: 1.0;"/><path d="M2273.5,30.0562 C2273.5,32.5562 2275.6406,34.3687 2278.5625,34.3687 C2279.7969,34.3687 2280.9688,34.0718 2281.7188,33.5562 C2282.3281,33.1343 2282.6563,32.7125 2282.6563,32.3062 C2282.6563,31.8375 2282.2344,31.4312 2281.7344,31.4312 C2281.5,31.4312 2281.2813,31.5093 2281.0781,31.7125 C2280.6406,32.15 2280.6406,32.15 2280.4688,32.2437 C2280.0156,32.4781 2279.375,32.6187 2278.6094,32.6187 C2276.6094,32.6187 2275.3281,31.6031 2275.3281,30.025 L2275.3281,28.9781 C2275.3281,27.275 2276.5469,26.0718 2278.25,26.0718 C2278.8281,26.0718 2279.4063,26.2125 2279.875,26.4625 C2280.3438,26.7281 2280.5156,26.9156 2280.5781,27.275 C2280.7031,27.9468 2280.9531,28.1968 2281.4844,28.1968 C2281.7656,28.1968 2282.0469,28.0562 2282.2344,27.8375 C2282.3594,27.6656 2282.4063,27.4937 2282.4063,27.0562 L2282.4063,25.6968 C2282.4063,25.275 2282.3906,25.1343 2282.2656,24.9625 C2282.0938,24.7125 2281.8125,24.5562 2281.4844,24.5562 C2281.1719,24.5562 2280.9688,24.6656 2280.75,24.9312 C2279.5781,24.4312 2279.1406,24.3218 2278.1875,24.3218 C2275.5156,24.3218 2273.5,26.3375 2273.5,28.9625 L2273.5,30.0562 Z "/><text fill="#000000" font-family="sans-serif" font-size="14" font-weight="bold" lengthAdjust="spacingAndGlyphs" textLength="142" x="2305" y="27.5059">MessageFactoryImpl</text><text fill="#000000" font-family="sans-serif" font-size="10" lengthAdjust="spacingAndGlyphs" textLength="167" x="2292.5" y="40.5899">it.matlice.ingsw.model.data.impl.jdbc</text></a><!--class it.matlice.ingsw.model.data.impl.jdbc.types.OfferImpl--><a target="_parent" xlink:actuate="onRequest" xlink:href="../../../../../it/matlice/ingsw/model/data/impl/jdbc/types/OfferImpl.html" xlink:show="new" xlink:title="it.matlice.ingsw.model.data.impl.jdbc.types.OfferImpl" xlink:type="simple"><rect fill="#FFFFFF" filter="url(#finv6z4)" height="38.7999" style="stroke: #A80036; stroke-width: 1.5;" width="227" x="2497.5" y="9.5"/><rect fill="#FFFFFF" height="38.7999" style="stroke: #A80036; stroke-width: 1.5;" width="227" x="2497.5" y="9.5"/><ellipse cx="2512.5" cy="28.9" fill="#ADD1B2" rx="11" ry="11" style="stroke: #A80036; stroke-width: 1.0;"/><path d="M2507.5,30.0562 C2507.5,32.5562 2509.6406,34.3687 2512.5625,34.3687 C2513.7969,34.3687 2514.9688,34.0718 2515.7188,33.5562 C2516.3281,33.1343 2516.6563,32.7125 2516.6563,32.3062 C2516.6563,31.8375 2516.2344,31.4312 2515.7344,31.4312 C2515.5,31.4312 2515.2813,31.5093 2515.0781,31.7125 C2514.6406,32.15 2514.6406,32.15 2514.4688,32.2437 C2514.0156,32.4781 2513.375,32.6187 2512.6094,32.6187 C2510.6094,32.6187 2509.3281,31.6031 2509.3281,30.025 L2509.3281,28.9781 C2509.3281,27.275 2510.5469,26.0718 2512.25,26.0718 C2512.8281,26.0718 2513.4063,26.2125 2513.875,26.4625 C2514.3438,26.7281 2514.5156,26.9156 2514.5781,27.275 C2514.7031,27.9468 2514.9531,28.1968 2515.4844,28.1968 C2515.7656,28.1968 2516.0469,28.0562 2516.2344,27.8375 C2516.3594,27.6656 2516.4063,27.4937 2516.4063,27.0562 L2516.4063,25.6968 C2516.4063,25.275 2516.3906,25.1343 2516.2656,24.9625 C2516.0938,24.7125 2515.8125,24.5562 2515.4844,24.5562 C2515.1719,24.5562 2514.9688,24.6656 2514.75,24.9312 C2513.5781,24.4312 2513.1406,24.3218 2512.1875,24.3218 C2509.5156,24.3218 2507.5,26.3375 2507.5,28.9625 L2507.5,30.0562 Z "/><text fill="#000000" font-family="sans-serif" font-size="14" font-weight="bold" lengthAdjust="spacingAndGlyphs" textLength="63" x="2592.5" y="27.5059">OfferImpl</text><text fill="#000000" font-family="sans-serif" font-size="10" lengthAdjust="spacingAndGlyphs" textLength="195" x="2526.5" y="40.5899">it.matlice.ingsw.model.data.impl.jdbc.types</text></a><path d="M79,48.62 C79,97.16 79,219 79,219 C79,219 1088.5,219 1088.5,219 " fill="none" style="stroke: #A80036; stroke-width: 1.0; stroke-dasharray: 7.0,7.0;"/><polygon fill="#A80036" points="1093.5,219,1084.5,215,1088.5,219,1084.5,223,1093.5,219" style="stroke: #A80036; stroke-width: 1.0;"/><path d="M253,48.73 C253,93.91 253,201 253,201 C253,201 1088.29,201 1088.29,201 " fill="none" style="stroke: #A80036; stroke-width: 1.0; stroke-dasharray: 7.0,7.0;"/><polygon fill="#A80036" points="1093.29,201,1084.29,197,1088.29,201,1084.29,205,1093.29,201" style="stroke: #A80036; stroke-width: 1.0;"/><path d="M421,50.09 C421,92.27 421,183 421,183 C421,183 1088.42,183 1088.42,183 " fill="none" style="stroke: #A80036; stroke-width: 1.0; stroke-dasharray: 7.0,7.0;"/><polygon fill="#A80036" points="1093.42,183,1084.42,179,1088.42,183,1084.42,187,1093.42,183" style="stroke: #A80036; stroke-width: 1.0;"/><path d="M1135.75,237.3 C1135.75,237.3 1135.75,276.68 1135.75,276.68 " fill="none" style="stroke: #A80036; stroke-width: 1.0; stroke-dasharray: 7.0,7.0;"/><polygon fill="none" points="1142.75,276.68,1135.75,296.68,1128.75,276.68,1142.75,276.68" style="stroke: #A80036; stroke-width: 1.0;"/><path d="M1254.75,237.3 C1254.75,237.3 1254.75,291.68 1254.75,291.68 " fill="none" style="stroke: #A80036; stroke-width: 1.0; stroke-dasharray: 7.0,7.0;"/><polygon fill="#A80036" points="1254.75,296.68,1258.75,287.68,1254.75,291.68,1250.75,287.68,1254.75,296.68" style="stroke: #A80036; stroke-width: 1.0;"/><path d="M601,48.78 C601,86.49 601,165 601,165 C601,165 1088.23,165 1088.23,165 " fill="none" style="stroke: #A80036; stroke-width: 1.0; stroke-dasharray: 7.0,7.0;"/><polygon fill="#A80036" points="1093.23,165,1084.23,161,1088.23,165,1084.23,169,1093.23,165" style="stroke: #A80036; stroke-width: 1.0;"/><path d="M792,48.75 C792,82.34 792,147 792,147 C792,147 1073.31,147 1073.31,147 " fill="none" style="stroke: #A80036; stroke-width: 1.0;"/><polygon fill="none" points="1073.31,140,1093.31,147,1073.31,154,1073.31,140" style="stroke: #A80036; stroke-width: 1.0;"/><path d="M1041.5,48.76 C1041.5,77.9 1041.5,129 1041.5,129 C1041.5,129 1073.47,129 1073.47,129 " fill="none" style="stroke: #A80036; stroke-width: 1.0;"/><polygon fill="none" points="1073.47,122,1093.47,129,1073.47,136,1073.47,122" style="stroke: #A80036; stroke-width: 1.0;"/><path d="M1195,50.01 C1195,50.01 1195,104.9 1195,104.9 " fill="none" style="stroke: #A80036; stroke-width: 1.0; stroke-dasharray: 7.0,7.0;"/><polygon fill="#A80036" points="1195,109.9,1199,100.9,1195,104.9,1191,100.9,1195,109.9" style="stroke: #A80036; stroke-width: 1.0;"/><path d="M1349,50.21 C1349,79.56 1349,129 1349,129 C1349,129 1301.86,129 1301.86,129 " fill="none" style="stroke: #A80036; stroke-width: 1.0; stroke-dasharray: 7.0,7.0;"/><polygon fill="#A80036" points="1296.86,129,1305.86,133,1301.86,129,1305.86,125,1296.86,129" style="stroke: #A80036; stroke-width: 1.0;"/><path d="M1661,50.1 C1661,84.04 1661,147 1661,147 C1661,147 1301.69,147 1301.69,147 " fill="none" style="stroke: #A80036; stroke-width: 1.0; stroke-dasharray: 7.0,7.0;"/><polygon fill="#A80036" points="1296.69,147,1305.69,151,1301.69,147,1305.69,143,1296.69,147" style="stroke: #A80036; stroke-width: 1.0;"/><path d="M1895,48.78 C1895,86.49 1895,165 1895,165 C1895,165 1301.79,165 1301.79,165 " fill="none" style="stroke: #A80036; stroke-width: 1.0; stroke-dasharray: 7.0,7.0;"/><polygon fill="#A80036" points="1296.79,165,1305.79,169,1301.79,165,1305.79,161,1296.79,165" style="stroke: #A80036; stroke-width: 1.0;"/><path d="M2129,48.5 C2129,89.94 2129,183 2129,183 C2129,183 1301.73,183 1301.73,183 " fill="none" style="stroke: #A80036; stroke-width: 1.0; stroke-dasharray: 7.0,7.0;"/><polygon fill="#A80036" points="1296.73,183,1305.73,187,1301.73,183,1305.73,179,1296.73,183" style="stroke: #A80036; stroke-width: 1.0;"/><path d="M2363,48.73 C2363,93.91 2363,201 2363,201 C2363,201 1301.61,201 1301.61,201 " fill="none" style="stroke: #A80036; stroke-width: 1.0; stroke-dasharray: 7.0,7.0;"/><polygon fill="#A80036" points="1296.61,201,1305.61,205,1301.61,201,1305.61,197,1296.61,201" style="stroke: #A80036; stroke-width: 1.0;"/><path d="M2611,48.62 C2611,97.16 2611,219 2611,219 C2611,219 1301.55,219 1301.55,219 " fill="none" style="stroke: #A80036; stroke-width: 1.0;"/><polygon fill="#A80036" points="1296.55,219,1305.55,223,1301.55,219,1305.55,215,1296.55,219" style="stroke: #A80036; stroke-width: 1.0;"/><text fill="#000000" font-family="sans-serif" font-size="13" lengthAdjust="spacingAndGlyphs" textLength="34" x="1304.5151" y="218.6369">owner</text></g></svg>