<?xml version="1.0" encoding="UTF-8" standalone="no"?><svg xmlns="http://www.w3.org/2000/svg" xmlns:xlink="http://www.w3.org/1999/xlink" contentScriptType="application/ecmascript" contentStyleType="text/css" height="206px" preserveAspectRatio="none" style="width:732px;height:206px;" version="1.1" viewBox="0 0 732 206" width="732px" zoomAndPan="magnify"><defs><filter height="300%" id="fn785lr" width="300%" x="-1" y="-1"><feGaussianBlur result="blurOut" stdDeviation="2.0"/><feColorMatrix in="blurOut" result="blurOut2" type="matrix" values="0 0 0 0 0 0 0 0 0 0 0 0 0 0 0 0 0 0 .4 0"/><feOffset dx="4.0" dy="4.0" in="blurOut2" result="blurOut3"/><feBlend in="SourceGraphic" in2="blurOut3" mode="normal"/></filter></defs><g><!--cluster it.matlice.ingsw.view--><a target="_parent" xlink:actuate="onRequest" xlink:href="../../../../it/matlice/ingsw/view/package-summary.html" xlink:show="new" xlink:title="it.matlice.ingsw.view" xlink:type="simple"><polygon fill="#FFFFE0" filter="url(#fn785lr)" points="335,24,483,24,490,46.7999,493,46.7999,493,107,335,107,335,24" style="stroke: #000000; stroke-width: 2.0;"/><line style="stroke: #000000; stroke-width: 2.0;" x1="335" x2="490" y1="46.7999" y2="46.7999"/><text fill="#000000" font-family="sans-serif" font-size="14" font-weight="bold" lengthAdjust="spacingAndGlyphs" textLength="142" x="339" y="39.0059">it.matlice.ingsw.view</text></a><!--cluster it.matlice.ingsw.view.menu--><a target="_parent" xlink:actuate="onRequest" xlink:href="../../../../it/matlice/ingsw/view/menu/package-summary.html" xlink:show="new" xlink:title="it.matlice.ingsw.view.menu" xlink:type="simple"><polygon fill="#FFFFFF" filter="url(#fn785lr)" points="22,24,212,24,219,46.7999,311,46.7999,311,199,22,199,22,24" style="stroke: #000000; stroke-width: 2.0;"/><line style="stroke: #000000; stroke-width: 2.0;" x1="22" x2="219" y1="46.7999" y2="46.7999"/><text fill="#000000" font-family="sans-serif" font-size="14" font-weight="bold" lengthAdjust="spacingAndGlyphs" textLength="184" x="26" y="39.0059">it.matlice.ingsw.view.menu</text></a><!--cluster it.matlice.ingsw.view.stream--><a target="_parent" xlink:actuate="onRequest" xlink:href="../../../../it/matlice/ingsw/view/stream/package-summary.html" xlink:show="new" xlink:title="it.matlice.ingsw.view.stream" xlink:type="simple"><polygon fill="#FFFFFF" filter="url(#fn785lr)" points="517,24,715,24,722,46.7999,725,46.7999,725,107,517,107,517,24" style="stroke: #000000; stroke-width: 2.0;"/><line style="stroke: #000000; stroke-width: 2.0;" x1="517" x2="722" y1="46.7999" y2="46.7999"/><text fill="#000000" font-family="sans-serif" font-size="14" font-weight="bold" lengthAdjust="spacingAndGlyphs" textLength="192" x="521" y="39.0059">it.matlice.ingsw.view.stream</text></a><!--class it.matlice.ingsw.view.View--><a target="_parent" xlink:actuate="onRequest" xlink:href="../../../../it/matlice/ingsw/view/View.html" xlink:show="new" xlink:title="it.matlice.ingsw.view.View" xlink:type="simple"><rect fill="#FEFECE" filter="url(#fn785lr)" height="32" style="stroke: #A80036; stroke-width: 1.5;" width="64" x="382" y="59"/><ellipse cx="397" cy="75" fill="#B4A7E5" rx="11" ry="11" style="stroke: #A80036; stroke-width: 1.0;"/><path d="M398.0156,72.1563 L399.6719,72.1563 C400.0625,72.1563 400.2656,72.125 400.4219,72.0469 C400.6875,71.875 400.8594,71.5781 400.8594,71.2813 C400.8594,71 400.7188,70.75 400.4844,70.5781 C400.2969,70.4531 400.1406,70.4063 399.6719,70.4063 L394.5313,70.4063 C394.0938,70.4063 393.9531,70.4219 393.7813,70.5313 C393.5156,70.7031 393.3438,70.9844 393.3438,71.2813 C393.3438,71.5625 393.4844,71.8438 393.7188,72 C393.9063,72.125 394.0938,72.1563 394.5313,72.1563 L396.1875,72.1563 L396.1875,78.25 L394.5313,78.25 C394.0938,78.25 393.9531,78.2656 393.7813,78.375 C393.5156,78.5313 393.3438,78.8281 393.3438,79.1094 C393.3438,79.7188 393.75,80 394.5313,80 L399.6719,80 C400.4531,80 400.8594,79.7188 400.8594,79.1094 C400.8594,78.8438 400.7188,78.5938 400.4844,78.4219 C400.2969,78.2813 400.125,78.25 399.6719,78.25 L398.0156,78.25 L398.0156,72.1563 Z "/><text fill="#000000" font-family="sans-serif" font-size="14" font-style="italic" font-weight="bold" lengthAdjust="spacingAndGlyphs" textLength="32" x="411" y="80.95">View</text></a><!--class it.matlice.ingsw.view.menu.MenuEntry--><a target="_parent" xlink:actuate="onRequest" xlink:href="../../../../it/matlice/ingsw/view/menu/MenuEntry.html" xlink:show="new" xlink:title="it.matlice.ingsw.view.menu.MenuEntry" xlink:type="simple"><rect fill="#FEFECE" filter="url(#fn785lr)" height="32" style="stroke: #A80036; stroke-width: 1.5;" width="106" x="38" y="59"/><ellipse cx="53" cy="75" fill="#ADD1B2" rx="11" ry="11" style="stroke: #A80036; stroke-width: 1.0;"/><path d="M48,76.1563 C48,78.6563 50.1406,80.4688 53.0625,80.4688 C54.2969,80.4688 55.4688,80.1719 56.2188,79.6563 C56.8281,79.2344 57.1563,78.8125 57.1563,78.4063 C57.1563,77.9375 56.7344,77.5313 56.2344,77.5313 C56,77.5313 55.7813,77.6094 55.5781,77.8125 C55.1406,78.25 55.1406,78.25 54.9688,78.3438 C54.5156,78.5781 53.875,78.7188 53.1094,78.7188 C51.1094,78.7188 49.8281,77.7031 49.8281,76.125 L49.8281,75.0781 C49.8281,73.375 51.0469,72.1719 52.75,72.1719 C53.3281,72.1719 53.9063,72.3125 54.375,72.5625 C54.8438,72.8281 55.0156,73.0156 55.0781,73.375 C55.2031,74.0469 55.4531,74.2969 55.9844,74.2969 C56.2656,74.2969 56.5469,74.1563 56.7344,73.9375 C56.8594,73.7656 56.9063,73.5938 56.9063,73.1563 L56.9063,71.7969 C56.9063,71.375 56.8906,71.2344 56.7656,71.0625 C56.5938,70.8125 56.3125,70.6563 55.9844,70.6563 C55.6719,70.6563 55.4688,70.7656 55.25,71.0313 C54.0781,70.5313 53.6406,70.4219 52.6875,70.4219 C50.0156,70.4219 48,72.4375 48,75.0625 L48,76.1563 Z "/><text fill="#000000" font-family="sans-serif" font-size="14" font-weight="bold" lengthAdjust="spacingAndGlyphs" textLength="74" x="67" y="79.606">MenuEntry</text></a><!--class it.matlice.ingsw.view.menu.MenuAction--><a target="_parent" xlink:actuate="onRequest" xlink:href="../../../../it/matlice/ingsw/view/menu/MenuAction.html" xlink:show="new" xlink:title="it.matlice.ingsw.view.menu.MenuAction" xlink:type="simple"><rect fill="#FEFECE" filter="url(#fn785lr)" height="32" style="stroke: #A80036; stroke-width: 1.5;" width="115" x="179.5" y="59"/><ellipse cx="194.5" cy="75" fill="#B4A7E5" rx="11" ry="11" style="stroke: #A80036; stroke-width: 1.0;"/><path d="M195.5156,72.1563 L197.1719,72.1563 C197.5625,72.1563 197.7656,72.125 197.9219,72.0469 C198.1875,71.875 198.3594,71.5781 198.3594,71.2813 C198.3594,71 198.2188,70.75 197.9844,70.5781 C197.7969,70.4531 197.6406,70.4063 197.1719,70.4063 L192.0313,70.4063 C191.5938,70.4063 191.4531,70.4219 191.2813,70.5313 C191.0156,70.7031 190.8438,70.9844 190.8438,71.2813 C190.8438,71.5625 190.9844,71.8438 191.2188,72 C191.4063,72.125 191.5938,72.1563 192.0313,72.1563 L193.6875,72.1563 L193.6875,78.25 L192.0313,78.25 C191.5938,78.25 191.4531,78.2656 191.2813,78.375 C191.0156,78.5313 190.8438,78.8281 190.8438,79.1094 C190.8438,79.7188 191.25,80 192.0313,80 L197.1719,80 C197.9531,80 198.3594,79.7188 198.3594,79.1094 C198.3594,78.8438 198.2188,78.5938 197.9844,78.4219 C197.7969,78.2813 197.625,78.25 197.1719,78.25 L195.5156,78.25 L195.5156,72.1563 Z "/><text fill="#000000" font-family="sans-serif" font-size="14" font-style="italic" font-weight="bold" lengthAdjust="spacingAndGlyphs" textLength="83" x="208.5" y="80.95">MenuAction</text></a><!--class it.matlice.ingsw.view.menu.Menu--><a target="_parent" xlink:actuate="onRequest" xlink:href="../../../../it/matlice/ingsw/view/menu/Menu.html" xlink:show="new" xlink:title="it.matlice.ingsw.view.menu.Menu" xlink:type="simple"><rect fill="#FEFECE" filter="url(#fn785lr)" height="32" style="stroke: #A80036; stroke-width: 1.5;" width="70" x="56" y="151"/><ellipse cx="71" cy="167" fill="#ADD1B2" rx="11" ry="11" style="stroke: #A80036; stroke-width: 1.0;"/><path d="M66,168.1563 C66,170.6563 68.1406,172.4688 71.0625,172.4688 C72.2969,172.4688 73.4688,172.1719 74.2188,171.6563 C74.8281,171.2344 75.1563,170.8125 75.1563,170.4063 C75.1563,169.9375 74.7344,169.5313 74.2344,169.5313 C74,169.5313 73.7813,169.6094 73.5781,169.8125 C73.1406,170.25 73.1406,170.25 72.9688,170.3438 C72.5156,170.5781 71.875,170.7188 71.1094,170.7188 C69.1094,170.7188 67.8281,169.7031 67.8281,168.125 L67.8281,167.0781 C67.8281,165.375 69.0469,164.1719 70.75,164.1719 C71.3281,164.1719 71.9063,164.3125 72.375,164.5625 C72.8438,164.8281 73.0156,165.0156 73.0781,165.375 C73.2031,166.0469 73.4531,166.2969 73.9844,166.2969 C74.2656,166.2969 74.5469,166.1563 74.7344,165.9375 C74.8594,165.7656 74.9063,165.5938 74.9063,165.1563 L74.9063,163.7969 C74.9063,163.375 74.8906,163.2344 74.7656,163.0625 C74.5938,162.8125 74.3125,162.6563 73.9844,162.6563 C73.6719,162.6563 73.4688,162.7656 73.25,163.0313 C72.0781,162.5313 71.6406,162.4219 70.6875,162.4219 C68.0156,162.4219 66,164.4375 66,167.0625 L66,168.1563 Z "/><text fill="#000000" font-family="sans-serif" font-size="14" font-weight="bold" lengthAdjust="spacingAndGlyphs" textLength="38" x="85" y="171.606">Menu</text></a><!--class it.matlice.ingsw.view.stream.StreamView--><a target="_parent" xlink:actuate="onRequest" xlink:href="../../../../it/matlice/ingsw/view/stream/StreamView.html" xlink:show="new" xlink:title="it.matlice.ingsw.view.stream.StreamView" xlink:type="simple"><rect fill="#FEFECE" filter="url(#fn785lr)" height="32" style="stroke: #A80036; stroke-width: 1.5;" width="111" x="565.5" y="59"/><ellipse cx="580.5" cy="75" fill="#ADD1B2" rx="11" ry="11" style="stroke: #A80036; stroke-width: 1.0;"/><path d="M575.5,76.1563 C575.5,78.6563 577.6406,80.4688 580.5625,80.4688 C581.7969,80.4688 582.9688,80.1719 583.7188,79.6563 C584.3281,79.2344 584.6563,78.8125 584.6563,78.4063 C584.6563,77.9375 584.2344,77.5313 583.7344,77.5313 C583.5,77.5313 583.2813,77.6094 583.0781,77.8125 C582.6406,78.25 582.6406,78.25 582.4688,78.3438 C582.0156,78.5781 581.375,78.7188 580.6094,78.7188 C578.6094,78.7188 577.3281,77.7031 577.3281,76.125 L577.3281,75.0781 C577.3281,73.375 578.5469,72.1719 580.25,72.1719 C580.8281,72.1719 581.4063,72.3125 581.875,72.5625 C582.3438,72.8281 582.5156,73.0156 582.5781,73.375 C582.7031,74.0469 582.9531,74.2969 583.4844,74.2969 C583.7656,74.2969 584.0469,74.1563 584.2344,73.9375 C584.3594,73.7656 584.4063,73.5938 584.4063,73.1563 L584.4063,71.7969 C584.4063,71.375 584.3906,71.2344 584.2656,71.0625 C584.0938,70.8125 583.8125,70.6563 583.4844,70.6563 C583.1719,70.6563 582.9688,70.7656 582.75,71.0313 C581.5781,70.5313 581.1406,70.4219 580.1875,70.4219 C577.5156,70.4219 575.5,72.4375 575.5,75.0625 L575.5,76.1563 Z "/><text fill="#000000" font-family="sans-serif" font-size="14" font-weight="bold" lengthAdjust="spacingAndGlyphs" textLength="79" x="594.5" y="79.606">StreamView</text></a></g></svg>