<?xml version="1.0" encoding="UTF-8" standalone="no"?><svg xmlns="http://www.w3.org/2000/svg" xmlns:xlink="http://www.w3.org/1999/xlink" contentScriptType="application/ecmascript" contentStyleType="text/css" height="597px" preserveAspectRatio="none" style="width:768px;height:597px;" version="1.1" viewBox="0 0 768 597" width="768px" zoomAndPan="magnify"><defs><filter height="300%" id="f1tx9k9" width="300%" x="-1" y="-1"><feGaussianBlur result="blurOut" stdDeviation="2.0"/><feColorMatrix in="blurOut" result="blurOut2" type="matrix" values="0 0 0 0 0 0 0 0 0 0 0 0 0 0 0 0 0 0 .4 0"/><feOffset dx="4.0" dy="4.0" in="blurOut2" result="blurOut3"/><feBlend in="SourceGraphic" in2="blurOut3" mode="normal"/></filter></defs><g><!--class it.matlice.ingsw.view.View--><a target="_parent" xlink:actuate="onRequest" xlink:href="../../../../it/matlice/ingsw/view/View.html" xlink:show="new" xlink:title="it.matlice.ingsw.view.View" xlink:type="simple"><rect fill="#FEFECE" filter="url(#f1tx9k9)" height="383.4475" style="stroke: #A80036; stroke-width: 1.5;" width="753" x="6" y="107"/><ellipse cx="332.25" cy="128.2" fill="#B4A7E5" rx="11" ry="11" style="stroke: #A80036; stroke-width: 1.0;"/><path d="M333.2656,125.3562 L334.9219,125.3562 C335.3125,125.3562 335.5156,125.325 335.6719,125.2468 C335.9375,125.075 336.1094,124.7781 336.1094,124.4812 C336.1094,124.2 335.9688,123.95 335.7344,123.7781 C335.5469,123.6531 335.3906,123.6062 334.9219,123.6062 L329.7813,123.6062 C329.3438,123.6062 329.2031,123.6218 329.0313,123.7312 C328.7656,123.9031 328.5938,124.1843 328.5938,124.4812 C328.5938,124.7625 328.7344,125.0437 328.9688,125.2 C329.1563,125.325 329.3438,125.3562 329.7813,125.3562 L331.4375,125.3562 L331.4375,131.45 L329.7813,131.45 C329.3438,131.45 329.2031,131.4656 329.0313,131.575 C328.7656,131.7312 328.5938,132.0281 328.5938,132.3093 C328.5938,132.9187 329,133.2 329.7813,133.2 L334.9219,133.2 C335.7031,133.2 336.1094,132.9187 336.1094,132.3093 C336.1094,132.0437 335.9688,131.7937 335.7344,131.6218 C335.5469,131.4812 335.375,131.45 334.9219,131.45 L333.2656,131.45 L333.2656,125.3562 Z "/><text fill="#000000" font-family="sans-serif" font-size="14" font-style="italic" font-weight="bold" lengthAdjust="spacingAndGlyphs" textLength="32" x="382.75" y="127.3999">View</text><text fill="#000000" font-family="sans-serif" font-size="10" font-style="italic" lengthAdjust="spacingAndGlyphs" textLength="92" x="352.75" y="141.8999">it.matlice.ingsw.view</text><line style="stroke: #A80036; stroke-width: 1.5;" x1="7" x2="758" y1="149.3999" y2="149.3999"/><line style="stroke: #A80036; stroke-width: 1.5;" x1="7" x2="758" y1="157.3999" y2="157.3999"/><ellipse cx="17" cy="170.3248" fill="#84BE84" rx="3" ry="3" style="stroke: #038048; stroke-width: 1.0;"/><text fill="#000000" font-family="sans-serif" font-size="11" font-style="italic" lengthAdjust="spacingAndGlyphs" textLength="190" x="26" y="173.4998">void info(String text,boolean separated)</text><ellipse cx="17" cy="185.1747" fill="#84BE84" rx="3" ry="3" style="stroke: #038048; stroke-width: 1.0;"/><text fill="#000000" font-family="sans-serif" font-size="11" font-style="italic" lengthAdjust="spacingAndGlyphs" textLength="97" x="26" y="188.3497">void info(String text)</text><ellipse cx="17" cy="200.0246" fill="#84BE84" rx="3" ry="3" style="stroke: #038048; stroke-width: 1.0;"/><text fill="#000000" font-family="sans-serif" font-size="11" font-style="italic" lengthAdjust="spacingAndGlyphs" textLength="197" x="26" y="203.1996">void warn(String text,boolean separated)</text><ellipse cx="17" cy="214.8745" fill="#84BE84" rx="3" ry="3" style="stroke: #038048; stroke-width: 1.0;"/><text fill="#000000" font-family="sans-serif" font-size="11" font-style="italic" lengthAdjust="spacingAndGlyphs" textLength="104" x="26" y="218.0495">void warn(String text)</text><ellipse cx="17" cy="229.7244" fill="#84BE84" rx="3" ry="3" style="stroke: #038048; stroke-width: 1.0;"/><text fill="#000000" font-family="sans-serif" font-size="11" font-style="italic" lengthAdjust="spacingAndGlyphs" textLength="104" x="26" y="232.8994">void error(String text)</text><ellipse cx="17" cy="244.5743" fill="#84BE84" rx="3" ry="3" style="stroke: #038048; stroke-width: 1.0;"/><text fill="#000000" font-family="sans-serif" font-size="11" font-style="italic" lengthAdjust="spacingAndGlyphs" textLength="205" x="26" y="247.7493">void showList(String message,List&lt;T&gt; list)</text><ellipse cx="17" cy="259.4242" fill="#84BE84" rx="3" ry="3" style="stroke: #038048; stroke-width: 1.0;"/><text fill="#000000" font-family="sans-serif" font-size="11" font-style="italic" lengthAdjust="spacingAndGlyphs" textLength="103" x="26" y="262.5992">String getPassword()</text><ellipse cx="17" cy="274.2741" fill="#84BE84" rx="3" ry="3" style="stroke: #038048; stroke-width: 1.0;"/><text fill="#000000" font-family="sans-serif" font-size="11" font-style="italic" lengthAdjust="spacingAndGlyphs" textLength="168" x="26" y="277.449">String getPassword(String prompt)</text><ellipse cx="17" cy="289.124" fill="#84BE84" rx="3" ry="3" style="stroke: #038048; stroke-width: 1.0;"/><text fill="#000000" font-family="sans-serif" font-size="11" font-style="italic" lengthAdjust="spacingAndGlyphs" textLength="119" x="26" y="292.2989">String get(String prompt)</text><ellipse cx="17" cy="303.9739" fill="#84BE84" rx="3" ry="3" style="stroke: #038048; stroke-width: 1.0;"/><text fill="#000000" font-family="sans-serif" font-size="11" font-style="italic" lengthAdjust="spacingAndGlyphs" textLength="139" x="26" y="307.1488">String getLine(String prompt)</text><ellipse cx="17" cy="318.8237" fill="#84BE84" rx="3" ry="3" style="stroke: #038048; stroke-width: 1.0;"/><text fill="#000000" font-family="sans-serif" font-size="11" font-style="italic" lengthAdjust="spacingAndGlyphs" textLength="314" x="26" y="321.9987">String getLine(String prompt,Function&lt;String, Boolean&gt; available)</text><ellipse cx="17" cy="333.6736" fill="#84BE84" rx="3" ry="3" style="stroke: #038048; stroke-width: 1.0;"/><text fill="#000000" font-family="sans-serif" font-size="11" font-style="italic" lengthAdjust="spacingAndGlyphs" textLength="541" x="26" y="336.8486">Object getLineWithConversion(String prompt,Function&lt;String, V&gt; conversionMap,String nonValidErrorMessage)</text><ellipse cx="17" cy="348.5235" fill="#84BE84" rx="3" ry="3" style="stroke: #038048; stroke-width: 1.0;"/><text fill="#000000" font-family="sans-serif" font-size="11" font-style="italic" lengthAdjust="spacingAndGlyphs" textLength="288" x="26" y="351.6985">String getTrimmedLine(String prompt,boolean canBeEmpty)</text><ellipse cx="17" cy="363.3734" fill="#84BE84" rx="3" ry="3" style="stroke: #038048; stroke-width: 1.0;"/><text fill="#000000" font-family="sans-serif" font-size="11" font-style="italic" lengthAdjust="spacingAndGlyphs" textLength="440" x="26" y="366.5484">int getInt(String prompt,Function&lt;Integer, Boolean&gt; available,String nonValidErrorMessage)</text><ellipse cx="17" cy="378.2233" fill="#84BE84" rx="3" ry="3" style="stroke: #038048; stroke-width: 1.0;"/><text fill="#000000" font-family="sans-serif" font-size="11" font-style="italic" lengthAdjust="spacingAndGlyphs" textLength="295" x="26" y="381.3983">int getInt(String prompt,Function&lt;Integer, Boolean&gt; available)</text><ellipse cx="17" cy="393.0732" fill="#84BE84" rx="3" ry="3" style="stroke: #038048; stroke-width: 1.0;"/><text fill="#000000" font-family="sans-serif" font-size="11" font-style="italic" lengthAdjust="spacingAndGlyphs" textLength="114" x="26" y="396.2482">int getInt(String prompt)</text><ellipse cx="17" cy="407.9231" fill="#84BE84" rx="3" ry="3" style="stroke: #038048; stroke-width: 1.0;"/><text fill="#000000" font-family="sans-serif" font-size="11" font-style="italic" lengthAdjust="spacingAndGlyphs" textLength="727" x="26" y="411.0981">List&lt;V&gt; getGenericList(String prompt,boolean unique,Function&lt;String, V&gt; conversionMap,String duplicateErrorMessage,String nonValidErrorMessage)</text><ellipse cx="17" cy="422.773" fill="#84BE84" rx="3" ry="3" style="stroke: #038048; stroke-width: 1.0;"/><text fill="#000000" font-family="sans-serif" font-size="11" font-style="italic" lengthAdjust="spacingAndGlyphs" textLength="435" x="26" y="425.9479">List&lt;V&gt; getGenericList(String prompt,boolean unique,Function&lt;String, V&gt; conversionMap)</text><ellipse cx="17" cy="437.6229" fill="#84BE84" rx="3" ry="3" style="stroke: #038048; stroke-width: 1.0;"/><text fill="#000000" font-family="sans-serif" font-size="11" font-style="italic" lengthAdjust="spacingAndGlyphs" textLength="561" x="26" y="440.7978">List&lt;String&gt; getStringList(String prompt,boolean unique,String duplicateErrorMessage,String nonValidErrorMessage)</text><ellipse cx="17" cy="452.4728" fill="#84BE84" rx="3" ry="3" style="stroke: #038048; stroke-width: 1.0;"/><text fill="#000000" font-family="sans-serif" font-size="11" font-style="italic" lengthAdjust="spacingAndGlyphs" textLength="269" x="26" y="455.6477">List&lt;String&gt; getStringList(String prompt,boolean unique)</text><ellipse cx="17" cy="467.3226" fill="#84BE84" rx="3" ry="3" style="stroke: #038048; stroke-width: 1.0;"/><text fill="#000000" font-family="sans-serif" font-size="11" font-style="italic" lengthAdjust="spacingAndGlyphs" textLength="350" x="26" y="470.4976">MenuAction&lt;T&gt; chooseOption(List&lt;MenuAction&gt; choices,String prompt)</text><ellipse cx="17" cy="481.3475" fill="#84BE84" rx="3" ry="3" style="stroke: #038048; stroke-width: 1.0;"/><text fill="#000000" font-family="sans-serif" font-size="11" lengthAdjust="spacingAndGlyphs" textLength="282" x="26" y="483.4665">MenuAction&lt;T&gt; chooseOption(List&lt;MenuAction&gt; choices)</text></a><!--class it.matlice.ingsw.controller.Controller--><a target="_parent" xlink:actuate="onRequest" xlink:href="../../../../it/matlice/ingsw/controller/Controller.html" xlink:show="new" xlink:title="it.matlice.ingsw.controller.Controller" xlink:type="simple"><rect fill="#FFFFFF" filter="url(#f1tx9k9)" height="38.7999" style="stroke: #A80036; stroke-width: 1.5;" width="146" x="216.5" y="8"/><rect fill="#FFFFFF" height="38.7999" style="stroke: #A80036; stroke-width: 1.5;" width="146" x="216.5" y="8"/><ellipse cx="231.5" cy="27.4" fill="#ADD1B2" rx="11" ry="11" style="stroke: #A80036; stroke-width: 1.0;"/><path d="M226.5,28.5562 C226.5,31.0562 228.6406,32.8687 231.5625,32.8687 C232.7969,32.8687 233.9688,32.5718 234.7188,32.0562 C235.3281,31.6343 235.6563,31.2125 235.6563,30.8062 C235.6563,30.3375 235.2344,29.9312 234.7344,29.9312 C234.5,29.9312 234.2813,30.0093 234.0781,30.2125 C233.6406,30.65 233.6406,30.65 233.4688,30.7437 C233.0156,30.9781 232.375,31.1187 231.6094,31.1187 C229.6094,31.1187 228.3281,30.1031 228.3281,28.525 L228.3281,27.4781 C228.3281,25.775 229.5469,24.5718 231.25,24.5718 C231.8281,24.5718 232.4063,24.7125 232.875,24.9625 C233.3438,25.2281 233.5156,25.4156 233.5781,25.775 C233.7031,26.4468 233.9531,26.6968 234.4844,26.6968 C234.7656,26.6968 235.0469,26.5562 235.2344,26.3375 C235.3594,26.1656 235.4063,25.9937 235.4063,25.5562 L235.4063,24.1968 C235.4063,23.775 235.3906,23.6343 235.2656,23.4625 C235.0938,23.2125 234.8125,23.0562 234.4844,23.0562 C234.1719,23.0562 233.9688,23.1656 233.75,23.4312 C232.5781,22.9312 232.1406,22.8218 231.1875,22.8218 C228.5156,22.8218 226.5,24.8375 226.5,27.4625 L226.5,28.5562 Z "/><text fill="#000000" font-family="sans-serif" font-size="14" font-weight="bold" lengthAdjust="spacingAndGlyphs" textLength="68" x="268.5" y="26.0059">Controller</text><text fill="#000000" font-family="sans-serif" font-size="10" lengthAdjust="spacingAndGlyphs" textLength="114" x="245.5" y="39.0899">it.matlice.ingsw.controller</text></a><!--class java.lang.Object--><rect fill="#D3D3D3" filter="url(#f1tx9k9)" height="38.7999" style="stroke: #A80036; stroke-width: 1.5;" width="77" x="176" y="550"/><rect fill="#D3D3D3" height="38.7999" style="stroke: #A80036; stroke-width: 1.5;" width="77" x="176" y="550"/><ellipse cx="191" cy="569.4" fill="#ADD1B2" rx="11" ry="11" style="stroke: #A80036; stroke-width: 1.0;"/><path d="M186,570.5562 C186,573.0562 188.1406,574.8687 191.0625,574.8687 C192.2969,574.8687 193.4688,574.5718 194.2188,574.0562 C194.8281,573.6343 195.1563,573.2125 195.1563,572.8062 C195.1563,572.3375 194.7344,571.9312 194.2344,571.9312 C194,571.9312 193.7813,572.0093 193.5781,572.2125 C193.1406,572.65 193.1406,572.65 192.9688,572.7437 C192.5156,572.9781 191.875,573.1187 191.1094,573.1187 C189.1094,573.1187 187.8281,572.1031 187.8281,570.525 L187.8281,569.4781 C187.8281,567.775 189.0469,566.5718 190.75,566.5718 C191.3281,566.5718 191.9063,566.7125 192.375,566.9625 C192.8438,567.2281 193.0156,567.4156 193.0781,567.775 C193.2031,568.4468 193.4531,568.6968 193.9844,568.6968 C194.2656,568.6968 194.5469,568.5562 194.7344,568.3375 C194.8594,568.1656 194.9063,567.9937 194.9063,567.5562 L194.9063,566.1968 C194.9063,565.775 194.8906,565.6343 194.7656,565.4625 C194.5938,565.2125 194.3125,565.0562 193.9844,565.0562 C193.6719,565.0562 193.4688,565.1656 193.25,565.4312 C192.0781,564.9312 191.6406,564.8218 190.6875,564.8218 C188.0156,564.8218 186,566.8375 186,569.4625 L186,570.5562 Z "/><text fill="#000000" font-family="sans-serif" font-size="14" font-weight="bold" lengthAdjust="spacingAndGlyphs" textLength="45" x="205" y="568.0059">Object</text><text fill="#000000" font-family="sans-serif" font-size="10" lengthAdjust="spacingAndGlyphs" textLength="42" x="206.5" y="581.0899">java.lang</text><!--class it.matlice.ingsw.controller.MenuActionBoolean--><a target="_parent" xlink:actuate="onRequest" xlink:href="../../../../it/matlice/ingsw/controller/MenuAction.html" xlink:show="new" xlink:title="it.matlice.ingsw.controller.MenuAction" xlink:type="simple"><rect fill="#D3D3D3" filter="url(#f1tx9k9)" height="38.7999" style="stroke: #A80036; stroke-width: 1.5;" width="188" x="288.5" y="550"/><rect fill="#D3D3D3" height="38.7999" style="stroke: #A80036; stroke-width: 1.5;" width="188" x="288.5" y="550"/><ellipse cx="303.5" cy="569.4" fill="#ADD1B2" rx="11" ry="11" style="stroke: #A80036; stroke-width: 1.0;"/><path d="M298.5,570.5562 C298.5,573.0562 300.6406,574.8687 303.5625,574.8687 C304.7969,574.8687 305.9688,574.5718 306.7188,574.0562 C307.3281,573.6343 307.6563,573.2125 307.6563,572.8062 C307.6563,572.3375 307.2344,571.9312 306.7344,571.9312 C306.5,571.9312 306.2813,572.0093 306.0781,572.2125 C305.6406,572.65 305.6406,572.65 305.4688,572.7437 C305.0156,572.9781 304.375,573.1187 303.6094,573.1187 C301.6094,573.1187 300.3281,572.1031 300.3281,570.525 L300.3281,569.4781 C300.3281,567.775 301.5469,566.5718 303.25,566.5718 C303.8281,566.5718 304.4063,566.7125 304.875,566.9625 C305.3438,567.2281 305.5156,567.4156 305.5781,567.775 C305.7031,568.4468 305.9531,568.6968 306.4844,568.6968 C306.7656,568.6968 307.0469,568.5562 307.2344,568.3375 C307.3594,568.1656 307.4063,567.9937 307.4063,567.5562 L307.4063,566.1968 C307.4063,565.775 307.3906,565.6343 307.2656,565.4625 C307.0938,565.2125 306.8125,565.0562 306.4844,565.0562 C306.1719,565.0562 305.9688,565.1656 305.75,565.4312 C304.5781,564.9312 304.1406,564.8218 303.1875,564.8218 C300.5156,564.8218 298.5,566.8375 298.5,569.4625 L298.5,570.5562 Z "/><text fill="#000000" font-family="sans-serif" font-size="14" font-weight="bold" lengthAdjust="spacingAndGlyphs" textLength="156" x="317.5" y="568.0059">MenuAction&lt;Boolean&gt;</text><text fill="#000000" font-family="sans-serif" font-size="10" lengthAdjust="spacingAndGlyphs" textLength="114" x="338.5" y="581.0899">it.matlice.ingsw.controller</text></a><!--class it.matlice.ingsw.controller.MenuActionObject--><a target="_parent" xlink:actuate="onRequest" xlink:href="../../../../it/matlice/ingsw/controller/MenuAction.html" xlink:show="new" xlink:title="it.matlice.ingsw.controller.MenuAction" xlink:type="simple"><rect fill="#D3D3D3" filter="url(#f1tx9k9)" height="38.7999" style="stroke: #A80036; stroke-width: 1.5;" width="146" x="511.5" y="550"/><rect fill="#D3D3D3" height="38.7999" style="stroke: #A80036; stroke-width: 1.5;" width="146" x="511.5" y="550"/><ellipse cx="526.5" cy="569.4" fill="#ADD1B2" rx="11" ry="11" style="stroke: #A80036; stroke-width: 1.0;"/><path d="M521.5,570.5562 C521.5,573.0562 523.6406,574.8687 526.5625,574.8687 C527.7969,574.8687 528.9688,574.5718 529.7188,574.0562 C530.3281,573.6343 530.6563,573.2125 530.6563,572.8062 C530.6563,572.3375 530.2344,571.9312 529.7344,571.9312 C529.5,571.9312 529.2813,572.0093 529.0781,572.2125 C528.6406,572.65 528.6406,572.65 528.4688,572.7437 C528.0156,572.9781 527.375,573.1187 526.6094,573.1187 C524.6094,573.1187 523.3281,572.1031 523.3281,570.525 L523.3281,569.4781 C523.3281,567.775 524.5469,566.5718 526.25,566.5718 C526.8281,566.5718 527.4063,566.7125 527.875,566.9625 C528.3438,567.2281 528.5156,567.4156 528.5781,567.775 C528.7031,568.4468 528.9531,568.6968 529.4844,568.6968 C529.7656,568.6968 530.0469,568.5562 530.2344,568.3375 C530.3594,568.1656 530.4063,567.9937 530.4063,567.5562 L530.4063,566.1968 C530.4063,565.775 530.3906,565.6343 530.2656,565.4625 C530.0938,565.2125 529.8125,565.0562 529.4844,565.0562 C529.1719,565.0562 528.9688,565.1656 528.75,565.4312 C527.5781,564.9312 527.1406,564.8218 526.1875,564.8218 C523.5156,564.8218 521.5,566.8375 521.5,569.4625 L521.5,570.5562 Z "/><text fill="#000000" font-family="sans-serif" font-size="14" font-weight="bold" lengthAdjust="spacingAndGlyphs" textLength="108" x="543.5" y="568.0059">MenuAction&lt;T&gt;</text><text fill="#000000" font-family="sans-serif" font-size="10" lengthAdjust="spacingAndGlyphs" textLength="114" x="540.5" y="581.0899">it.matlice.ingsw.controller</text></a><!--class it.matlice.ingsw.view.stream.StreamView--><a target="_parent" xlink:actuate="onRequest" xlink:href="../../../../it/matlice/ingsw/view/stream/StreamView.html" xlink:show="new" xlink:title="it.matlice.ingsw.view.stream.StreamView" xlink:type="simple"><rect fill="#FFFFFF" filter="url(#f1tx9k9)" height="38.7999" style="stroke: #A80036; stroke-width: 1.5;" width="158" x="397.5" y="8"/><rect fill="#FFFFFF" height="38.7999" style="stroke: #A80036; stroke-width: 1.5;" width="158" x="397.5" y="8"/><ellipse cx="412.5" cy="27.4" fill="#ADD1B2" rx="11" ry="11" style="stroke: #A80036; stroke-width: 1.0;"/><path d="M407.5,28.5562 C407.5,31.0562 409.6406,32.8687 412.5625,32.8687 C413.7969,32.8687 414.9688,32.5718 415.7188,32.0562 C416.3281,31.6343 416.6563,31.2125 416.6563,30.8062 C416.6563,30.3375 416.2344,29.9312 415.7344,29.9312 C415.5,29.9312 415.2813,30.0093 415.0781,30.2125 C414.6406,30.65 414.6406,30.65 414.4688,30.7437 C414.0156,30.9781 413.375,31.1187 412.6094,31.1187 C410.6094,31.1187 409.3281,30.1031 409.3281,28.525 L409.3281,27.4781 C409.3281,25.775 410.5469,24.5718 412.25,24.5718 C412.8281,24.5718 413.4063,24.7125 413.875,24.9625 C414.3438,25.2281 414.5156,25.4156 414.5781,25.775 C414.7031,26.4468 414.9531,26.6968 415.4844,26.6968 C415.7656,26.6968 416.0469,26.5562 416.2344,26.3375 C416.3594,26.1656 416.4063,25.9937 416.4063,25.5562 L416.4063,24.1968 C416.4063,23.775 416.3906,23.6343 416.2656,23.4625 C416.0938,23.2125 415.8125,23.0562 415.4844,23.0562 C415.1719,23.0562 414.9688,23.1656 414.75,23.4312 C413.5781,22.9312 413.1406,22.8218 412.1875,22.8218 C409.5156,22.8218 407.5,24.8375 407.5,27.4625 L407.5,28.5562 Z "/><text fill="#000000" font-family="sans-serif" font-size="14" font-weight="bold" lengthAdjust="spacingAndGlyphs" textLength="79" x="450" y="26.0059">StreamView</text><text fill="#000000" font-family="sans-serif" font-size="10" lengthAdjust="spacingAndGlyphs" textLength="126" x="426.5" y="39.0899">it.matlice.ingsw.view.stream</text></a><path d="M289.5,47.43 C289.5,47.43 289.5,101.91 289.5,101.91 " fill="none" style="stroke: #A80036; stroke-width: 1.0;"/><polygon fill="#A80036" points="289.5,106.91,293.5,97.91,289.5,101.91,285.5,97.91,289.5,106.91" style="stroke: #A80036; stroke-width: 1.0;"/><text fill="#000000" font-family="sans-serif" font-size="13" lengthAdjust="spacingAndGlyphs" textLength="26" x="259.0281" y="95.5911">view</text><path d="M214.5,490.02 C214.5,490.02 214.5,544.76 214.5,544.76 " fill="none" style="stroke: #A80036; stroke-width: 1.0; stroke-dasharray: 7.0,7.0;"/><polygon fill="#A80036" points="214.5,549.76,218.5,540.76,214.5,544.76,210.5,540.76,214.5,549.76" style="stroke: #A80036; stroke-width: 1.0;"/><path d="M382.5,490.02 C382.5,490.02 382.5,544.76 382.5,544.76 " fill="none" style="stroke: #A80036; stroke-width: 1.0; stroke-dasharray: 7.0,7.0;"/><polygon fill="#A80036" points="382.5,549.76,386.5,540.76,382.5,544.76,378.5,540.76,382.5,549.76" style="stroke: #A80036; stroke-width: 1.0;"/><path d="M584.5,490.02 C584.5,490.02 584.5,544.76 584.5,544.76 " fill="none" style="stroke: #A80036; stroke-width: 1.0; stroke-dasharray: 7.0,7.0;"/><polygon fill="#A80036" points="584.5,549.76,588.5,540.76,584.5,544.76,580.5,540.76,584.5,549.76" style="stroke: #A80036; stroke-width: 1.0;"/><path d="M476.5,47.43 C476.5,47.43 476.5,86.91 476.5,86.91 " fill="none" style="stroke: #A80036; stroke-width: 1.0; stroke-dasharray: 7.0,7.0;"/><polygon fill="none" points="483.5,86.91,476.5,106.91,469.5,86.91,483.5,86.91" style="stroke: #A80036; stroke-width: 1.0;"/></g></svg>