<?xml version="1.0" encoding="UTF-8" standalone="no"?><svg xmlns="http://www.w3.org/2000/svg" xmlns:xlink="http://www.w3.org/1999/xlink" contentScriptType="application/ecmascript" contentStyleType="text/css" height="114px" preserveAspectRatio="none" style="width:313px;height:114px;" version="1.1" viewBox="0 0 313 114" width="313px" zoomAndPan="magnify"><defs><filter height="300%" id="flqh2hs" width="300%" x="-1" y="-1"><feGaussianBlur result="blurOut" stdDeviation="2.0"/><feColorMatrix in="blurOut" result="blurOut2" type="matrix" values="0 0 0 0 0 0 0 0 0 0 0 0 0 0 0 0 0 0 .4 0"/><feOffset dx="4.0" dy="4.0" in="blurOut2" result="blurOut3"/><feBlend in="SourceGraphic" in2="blurOut3" mode="normal"/></filter></defs><g><!--cluster it.matlice.ingsw.model.auth.exceptions--><a target="_parent" xlink:actuate="onRequest" xlink:href="../../../../../../it/matlice/ingsw/model/auth/exceptions/package-summary.html" xlink:show="new" xlink:title="it.matlice.ingsw.model.auth.exceptions" xlink:type="simple"><polygon fill="#FFFFE0" filter="url(#flqh2hs)" points="22,24,296,24,303,46.7999,306,46.7999,306,107,22,107,22,24" style="stroke: #000000; stroke-width: 2.0;"/><line style="stroke: #000000; stroke-width: 2.0;" x1="22" x2="303" y1="46.7999" y2="46.7999"/><text fill="#000000" font-family="sans-serif" font-size="14" font-weight="bold" lengthAdjust="spacingAndGlyphs" textLength="268" x="26" y="39.0059">it.matlice.ingsw.model.auth.exceptions</text></a><!--class it.matlice.ingsw.model.auth.exceptions.InvalidPasswordException--><a target="_parent" xlink:actuate="onRequest" xlink:href="../../../../../../it/matlice/ingsw/model/auth/exceptions/InvalidPasswordException.html" xlink:show="new" xlink:title="it.matlice.ingsw.model.auth.exceptions.InvalidPasswordException" xlink:type="simple"><rect fill="#FEFECE" filter="url(#flqh2hs)" height="32" style="stroke: #A80036; stroke-width: 1.5;" width="214" x="57" y="59"/><ellipse cx="72" cy="75" fill="#ADD1B2" rx="11" ry="11" style="stroke: #A80036; stroke-width: 1.0;"/><path d="M67,76.1563 C67,78.6563 69.1406,80.4688 72.0625,80.4688 C73.2969,80.4688 74.4688,80.1719 75.2188,79.6563 C75.8281,79.2344 76.1563,78.8125 76.1563,78.4063 C76.1563,77.9375 75.7344,77.5313 75.2344,77.5313 C75,77.5313 74.7813,77.6094 74.5781,77.8125 C74.1406,78.25 74.1406,78.25 73.9688,78.3438 C73.5156,78.5781 72.875,78.7188 72.1094,78.7188 C70.1094,78.7188 68.8281,77.7031 68.8281,76.125 L68.8281,75.0781 C68.8281,73.375 70.0469,72.1719 71.75,72.1719 C72.3281,72.1719 72.9063,72.3125 73.375,72.5625 C73.8438,72.8281 74.0156,73.0156 74.0781,73.375 C74.2031,74.0469 74.4531,74.2969 74.9844,74.2969 C75.2656,74.2969 75.5469,74.1563 75.7344,73.9375 C75.8594,73.7656 75.9063,73.5938 75.9063,73.1563 L75.9063,71.7969 C75.9063,71.375 75.8906,71.2344 75.7656,71.0625 C75.5938,70.8125 75.3125,70.6563 74.9844,70.6563 C74.6719,70.6563 74.4688,70.7656 74.25,71.0313 C73.0781,70.5313 72.6406,70.4219 71.6875,70.4219 C69.0156,70.4219 67,72.4375 67,75.0625 L67,76.1563 Z "/><text fill="#000000" font-family="sans-serif" font-size="14" font-weight="bold" lengthAdjust="spacingAndGlyphs" textLength="182" x="86" y="79.606">InvalidPasswordException</text></a></g></svg>