<?xml version="1.0" encoding="UTF-8" standalone="no"?><svg xmlns="http://www.w3.org/2000/svg" xmlns:xlink="http://www.w3.org/1999/xlink" contentScriptType="application/ecmascript" contentStyleType="text/css" height="183px" preserveAspectRatio="none" style="width:200px;height:183px;" version="1.1" viewBox="0 0 200 183" width="200px" zoomAndPan="magnify"><defs><filter height="300%" id="fe87ov5" width="300%" x="-1" y="-1"><feGaussianBlur result="blurOut" stdDeviation="2.0"/><feColorMatrix in="blurOut" result="blurOut2" type="matrix" values="0 0 0 0 0 0 0 0 0 0 0 0 0 0 0 0 0 0 .4 0"/><feOffset dx="4.0" dy="4.0" in="blurOut2" result="blurOut3"/><feBlend in="SourceGraphic" in2="blurOut3" mode="normal"/></filter></defs><g><!--class it.matlice.ingsw.model.exceptions.InvalidUserException--><a target="_parent" xlink:actuate="onRequest" xlink:href="../../../../../it/matlice/ingsw/model/exceptions/InvalidUserException.html" xlink:show="new" xlink:title="it.matlice.ingsw.model.exceptions.InvalidUserException" xlink:type="simple"><rect fill="#FEFECE" filter="url(#fe87ov5)" height="67.9998" style="stroke: #A80036; stroke-width: 1.5;" width="185" x="6" y="8"/><ellipse cx="21" cy="27.4" fill="#ADD1B2" rx="11" ry="11" style="stroke: #A80036; stroke-width: 1.0;"/><path d="M16,28.5562 C16,31.0562 18.1406,32.8687 21.0625,32.8687 C22.2969,32.8687 23.4688,32.5718 24.2188,32.0562 C24.8281,31.6343 25.1563,31.2125 25.1563,30.8062 C25.1563,30.3375 24.7344,29.9312 24.2344,29.9312 C24,29.9312 23.7813,30.0093 23.5781,30.2125 C23.1406,30.65 23.1406,30.65 22.9688,30.7437 C22.5156,30.9781 21.875,31.1187 21.1094,31.1187 C19.1094,31.1187 17.8281,30.1031 17.8281,28.525 L17.8281,27.4781 C17.8281,25.775 19.0469,24.5718 20.75,24.5718 C21.3281,24.5718 21.9063,24.7125 22.375,24.9625 C22.8438,25.2281 23.0156,25.4156 23.0781,25.775 C23.2031,26.4468 23.4531,26.6968 23.9844,26.6968 C24.2656,26.6968 24.5469,26.5562 24.7344,26.3375 C24.8594,26.1656 24.9063,25.9937 24.9063,25.5562 L24.9063,24.1968 C24.9063,23.775 24.8906,23.6343 24.7656,23.4625 C24.5938,23.2125 24.3125,23.0562 23.9844,23.0562 C23.6719,23.0562 23.4688,23.1656 23.25,23.4312 C22.0781,22.9312 21.6406,22.8218 20.6875,22.8218 C18.0156,22.8218 16,24.8375 16,27.4625 L16,28.5562 Z "/><text fill="#000000" font-family="sans-serif" font-size="14" font-weight="bold" lengthAdjust="spacingAndGlyphs" textLength="146" x="38.5" y="26.0059">InvalidUserException</text><text fill="#000000" font-family="sans-serif" font-size="10" lengthAdjust="spacingAndGlyphs" textLength="153" x="35" y="39.0899">it.matlice.ingsw.model.exceptions</text><line style="stroke: #A80036; stroke-width: 1.5;" x1="7" x2="190" y1="46.7999" y2="46.7999"/><line style="stroke: #A80036; stroke-width: 1.5;" x1="7" x2="190" y1="54.7999" y2="54.7999"/><ellipse cx="17" cy="66.8999" fill="#84BE84" rx="3" ry="3" style="stroke: #038048; stroke-width: 1.0;"/><text fill="#000000" font-family="sans-serif" font-size="11" lengthAdjust="spacingAndGlyphs" textLength="111" x="26" y="69.0188">InvalidUserException()</text></a><!--class java.lang.Exception--><rect fill="#D3D3D3" filter="url(#fe87ov5)" height="38.7999" style="stroke: #A80036; stroke-width: 1.5;" width="101" x="48" y="136"/><rect fill="#D3D3D3" height="38.7999" style="stroke: #A80036; stroke-width: 1.5;" width="101" x="48" y="136"/><ellipse cx="63" cy="155.4" fill="#ADD1B2" rx="11" ry="11" style="stroke: #A80036; stroke-width: 1.0;"/><path d="M58,156.5562 C58,159.0562 60.1406,160.8687 63.0625,160.8687 C64.2969,160.8687 65.4688,160.5718 66.2188,160.0562 C66.8281,159.6343 67.1563,159.2125 67.1563,158.8062 C67.1563,158.3375 66.7344,157.9312 66.2344,157.9312 C66,157.9312 65.7813,158.0093 65.5781,158.2125 C65.1406,158.65 65.1406,158.65 64.9688,158.7437 C64.5156,158.9781 63.875,159.1187 63.1094,159.1187 C61.1094,159.1187 59.8281,158.1031 59.8281,156.525 L59.8281,155.4781 C59.8281,153.775 61.0469,152.5718 62.75,152.5718 C63.3281,152.5718 63.9063,152.7125 64.375,152.9625 C64.8438,153.2281 65.0156,153.4156 65.0781,153.775 C65.2031,154.4468 65.4531,154.6968 65.9844,154.6968 C66.2656,154.6968 66.5469,154.5562 66.7344,154.3375 C66.8594,154.1656 66.9063,153.9937 66.9063,153.5562 L66.9063,152.1968 C66.9063,151.775 66.8906,151.6343 66.7656,151.4625 C66.5938,151.2125 66.3125,151.0562 65.9844,151.0562 C65.6719,151.0562 65.4688,151.1656 65.25,151.4312 C64.0781,150.9312 63.6406,150.8218 62.6875,150.8218 C60.0156,150.8218 58,152.8375 58,155.4625 L58,156.5562 Z "/><text fill="#000000" font-family="sans-serif" font-size="14" font-weight="bold" lengthAdjust="spacingAndGlyphs" textLength="69" x="77" y="154.0059">Exception</text><text fill="#000000" font-family="sans-serif" font-size="10" lengthAdjust="spacingAndGlyphs" textLength="42" x="90.5" y="167.0899">java.lang</text><path d="M98.5,76.05 C98.5,76.05 98.5,115.99 98.5,115.99 " fill="none" style="stroke: #A80036; stroke-width: 1.0;"/><polygon fill="none" points="105.5,115.99,98.5,135.99,91.5,115.99,105.5,115.99" style="stroke: #A80036; stroke-width: 1.0;"/></g></svg>