<?xml version="1.0" encoding="UTF-8" standalone="no"?><svg xmlns="http://www.w3.org/2000/svg" xmlns:xlink="http://www.w3.org/1999/xlink" contentScriptType="application/ecmascript" contentStyleType="text/css" height="390px" preserveAspectRatio="none" style="width:1008px;height:390px;" version="1.1" viewBox="0 0 1008 390" width="1008px" zoomAndPan="magnify"><defs><filter height="300%" id="fwx62rr" width="300%" x="-1" y="-1"><feGaussianBlur result="blurOut" stdDeviation="2.0"/><feColorMatrix in="blurOut" result="blurOut2" type="matrix" values="0 0 0 0 0 0 0 0 0 0 0 0 0 0 0 0 0 0 .4 0"/><feOffset dx="4.0" dy="4.0" in="blurOut2" result="blurOut3"/><feBlend in="SourceGraphic" in2="blurOut3" mode="normal"/></filter></defs><g><!--cluster it.matlice.ingsw.model.exceptions--><a target="_parent" xlink:actuate="onRequest" xlink:href="../../../../../it/matlice/ingsw/model/exceptions/package-summary.html" xlink:show="new" xlink:title="it.matlice.ingsw.model.exceptions" xlink:type="simple"><polygon fill="#FFFFE0" filter="url(#fwx62rr)" points="22,24,261,24,268,46.7999,1001,46.7999,1001,383,22,383,22,24" style="stroke: #000000; stroke-width: 2.0;"/><line style="stroke: #000000; stroke-width: 2.0;" x1="22" x2="268" y1="46.7999" y2="46.7999"/><text fill="#000000" font-family="sans-serif" font-size="14" font-weight="bold" lengthAdjust="spacingAndGlyphs" textLength="233" x="26" y="39.0059">it.matlice.ingsw.model.exceptions</text></a><!--class it.matlice.ingsw.model.exceptions.RequiredFieldConstrainException--><a target="_parent" xlink:actuate="onRequest" xlink:href="../../../../../it/matlice/ingsw/model/exceptions/RequiredFieldConstrainException.html" xlink:show="new" xlink:title="it.matlice.ingsw.model.exceptions.RequiredFieldConstrainException" xlink:type="simple"><rect fill="#FEFECE" filter="url(#fwx62rr)" height="32" style="stroke: #A80036; stroke-width: 1.5;" width="264" x="38" y="59"/><ellipse cx="53" cy="75" fill="#ADD1B2" rx="11" ry="11" style="stroke: #A80036; stroke-width: 1.0;"/><path d="M48,76.1563 C48,78.6563 50.1406,80.4688 53.0625,80.4688 C54.2969,80.4688 55.4688,80.1719 56.2188,79.6563 C56.8281,79.2344 57.1563,78.8125 57.1563,78.4063 C57.1563,77.9375 56.7344,77.5313 56.2344,77.5313 C56,77.5313 55.7813,77.6094 55.5781,77.8125 C55.1406,78.25 55.1406,78.25 54.9688,78.3438 C54.5156,78.5781 53.875,78.7188 53.1094,78.7188 C51.1094,78.7188 49.8281,77.7031 49.8281,76.125 L49.8281,75.0781 C49.8281,73.375 51.0469,72.1719 52.75,72.1719 C53.3281,72.1719 53.9063,72.3125 54.375,72.5625 C54.8438,72.8281 55.0156,73.0156 55.0781,73.375 C55.2031,74.0469 55.4531,74.2969 55.9844,74.2969 C56.2656,74.2969 56.5469,74.1563 56.7344,73.9375 C56.8594,73.7656 56.9063,73.5938 56.9063,73.1563 L56.9063,71.7969 C56.9063,71.375 56.8906,71.2344 56.7656,71.0625 C56.5938,70.8125 56.3125,70.6563 55.9844,70.6563 C55.6719,70.6563 55.4688,70.7656 55.25,71.0313 C54.0781,70.5313 53.6406,70.4219 52.6875,70.4219 C50.0156,70.4219 48,72.4375 48,75.0625 L48,76.1563 Z "/><text fill="#000000" font-family="sans-serif" font-size="14" font-weight="bold" lengthAdjust="spacingAndGlyphs" textLength="232" x="67" y="79.606">RequiredFieldConstrainException</text></a><!--class it.matlice.ingsw.model.exceptions.LoginInvalidException--><a target="_parent" xlink:actuate="onRequest" xlink:href="../../../../../it/matlice/ingsw/model/exceptions/LoginInvalidException.html" xlink:show="new" xlink:title="it.matlice.ingsw.model.exceptions.LoginInvalidException" xlink:type="simple"><rect fill="#FEFECE" filter="url(#fwx62rr)" height="32" style="stroke: #A80036; stroke-width: 1.5;" width="187" x="337.5" y="59"/><ellipse cx="352.5" cy="75" fill="#ADD1B2" rx="11" ry="11" style="stroke: #A80036; stroke-width: 1.0;"/><path d="M347.5,76.1563 C347.5,78.6563 349.6406,80.4688 352.5625,80.4688 C353.7969,80.4688 354.9688,80.1719 355.7188,79.6563 C356.3281,79.2344 356.6563,78.8125 356.6563,78.4063 C356.6563,77.9375 356.2344,77.5313 355.7344,77.5313 C355.5,77.5313 355.2813,77.6094 355.0781,77.8125 C354.6406,78.25 354.6406,78.25 354.4688,78.3438 C354.0156,78.5781 353.375,78.7188 352.6094,78.7188 C350.6094,78.7188 349.3281,77.7031 349.3281,76.125 L349.3281,75.0781 C349.3281,73.375 350.5469,72.1719 352.25,72.1719 C352.8281,72.1719 353.4063,72.3125 353.875,72.5625 C354.3438,72.8281 354.5156,73.0156 354.5781,73.375 C354.7031,74.0469 354.9531,74.2969 355.4844,74.2969 C355.7656,74.2969 356.0469,74.1563 356.2344,73.9375 C356.3594,73.7656 356.4063,73.5938 356.4063,73.1563 L356.4063,71.7969 C356.4063,71.375 356.3906,71.2344 356.2656,71.0625 C356.0938,70.8125 355.8125,70.6563 355.4844,70.6563 C355.1719,70.6563 354.9688,70.7656 354.75,71.0313 C353.5781,70.5313 353.1406,70.4219 352.1875,70.4219 C349.5156,70.4219 347.5,72.4375 347.5,75.0625 L347.5,76.1563 Z "/><text fill="#000000" font-family="sans-serif" font-size="14" font-weight="bold" lengthAdjust="spacingAndGlyphs" textLength="155" x="366.5" y="79.606">LoginInvalidException</text></a><!--class it.matlice.ingsw.model.exceptions.InvalidUserTypeException--><a target="_parent" xlink:actuate="onRequest" xlink:href="../../../../../it/matlice/ingsw/model/exceptions/InvalidUserTypeException.html" xlink:show="new" xlink:title="it.matlice.ingsw.model.exceptions.InvalidUserTypeException" xlink:type="simple"><rect fill="#FEFECE" filter="url(#fwx62rr)" height="32" style="stroke: #A80036; stroke-width: 1.5;" width="212" x="560" y="59"/><ellipse cx="575" cy="75" fill="#ADD1B2" rx="11" ry="11" style="stroke: #A80036; stroke-width: 1.0;"/><path d="M570,76.1563 C570,78.6563 572.1406,80.4688 575.0625,80.4688 C576.2969,80.4688 577.4688,80.1719 578.2188,79.6563 C578.8281,79.2344 579.1563,78.8125 579.1563,78.4063 C579.1563,77.9375 578.7344,77.5313 578.2344,77.5313 C578,77.5313 577.7813,77.6094 577.5781,77.8125 C577.1406,78.25 577.1406,78.25 576.9688,78.3438 C576.5156,78.5781 575.875,78.7188 575.1094,78.7188 C573.1094,78.7188 571.8281,77.7031 571.8281,76.125 L571.8281,75.0781 C571.8281,73.375 573.0469,72.1719 574.75,72.1719 C575.3281,72.1719 575.9063,72.3125 576.375,72.5625 C576.8438,72.8281 577.0156,73.0156 577.0781,73.375 C577.2031,74.0469 577.4531,74.2969 577.9844,74.2969 C578.2656,74.2969 578.5469,74.1563 578.7344,73.9375 C578.8594,73.7656 578.9063,73.5938 578.9063,73.1563 L578.9063,71.7969 C578.9063,71.375 578.8906,71.2344 578.7656,71.0625 C578.5938,70.8125 578.3125,70.6563 577.9844,70.6563 C577.6719,70.6563 577.4688,70.7656 577.25,71.0313 C576.0781,70.5313 575.6406,70.4219 574.6875,70.4219 C572.0156,70.4219 570,72.4375 570,75.0625 L570,76.1563 Z "/><text fill="#000000" font-family="sans-serif" font-size="14" font-weight="bold" lengthAdjust="spacingAndGlyphs" textLength="180" x="589" y="79.606">InvalidUserTypeException</text></a><!--class it.matlice.ingsw.model.exceptions.InvalidUserException--><a target="_parent" xlink:actuate="onRequest" xlink:href="../../../../../it/matlice/ingsw/model/exceptions/InvalidUserException.html" xlink:show="new" xlink:title="it.matlice.ingsw.model.exceptions.InvalidUserException" xlink:type="simple"><rect fill="#FEFECE" filter="url(#fwx62rr)" height="32" style="stroke: #A80036; stroke-width: 1.5;" width="178" x="807" y="59"/><ellipse cx="822" cy="75" fill="#ADD1B2" rx="11" ry="11" style="stroke: #A80036; stroke-width: 1.0;"/><path d="M817,76.1563 C817,78.6563 819.1406,80.4688 822.0625,80.4688 C823.2969,80.4688 824.4688,80.1719 825.2188,79.6563 C825.8281,79.2344 826.1563,78.8125 826.1563,78.4063 C826.1563,77.9375 825.7344,77.5313 825.2344,77.5313 C825,77.5313 824.7813,77.6094 824.5781,77.8125 C824.1406,78.25 824.1406,78.25 823.9688,78.3438 C823.5156,78.5781 822.875,78.7188 822.1094,78.7188 C820.1094,78.7188 818.8281,77.7031 818.8281,76.125 L818.8281,75.0781 C818.8281,73.375 820.0469,72.1719 821.75,72.1719 C822.3281,72.1719 822.9063,72.3125 823.375,72.5625 C823.8438,72.8281 824.0156,73.0156 824.0781,73.375 C824.2031,74.0469 824.4531,74.2969 824.9844,74.2969 C825.2656,74.2969 825.5469,74.1563 825.7344,73.9375 C825.8594,73.7656 825.9063,73.5938 825.9063,73.1563 L825.9063,71.7969 C825.9063,71.375 825.8906,71.2344 825.7656,71.0625 C825.5938,70.8125 825.3125,70.6563 824.9844,70.6563 C824.6719,70.6563 824.4688,70.7656 824.25,71.0313 C823.0781,70.5313 822.6406,70.4219 821.6875,70.4219 C819.0156,70.4219 817,72.4375 817,75.0625 L817,76.1563 Z "/><text fill="#000000" font-family="sans-serif" font-size="14" font-weight="bold" lengthAdjust="spacingAndGlyphs" textLength="146" x="836" y="79.606">InvalidUserException</text></a><!--class it.matlice.ingsw.model.exceptions.InvalidTradeOfferException--><a target="_parent" xlink:actuate="onRequest" xlink:href="../../../../../it/matlice/ingsw/model/exceptions/InvalidTradeOfferException.html" xlink:show="new" xlink:title="it.matlice.ingsw.model.exceptions.InvalidTradeOfferException" xlink:type="simple"><rect fill="#FEFECE" filter="url(#fwx62rr)" height="32" style="stroke: #A80036; stroke-width: 1.5;" width="220" x="50" y="151"/><ellipse cx="65" cy="167" fill="#ADD1B2" rx="11" ry="11" style="stroke: #A80036; stroke-width: 1.0;"/><path d="M60,168.1563 C60,170.6563 62.1406,172.4688 65.0625,172.4688 C66.2969,172.4688 67.4688,172.1719 68.2188,171.6563 C68.8281,171.2344 69.1563,170.8125 69.1563,170.4063 C69.1563,169.9375 68.7344,169.5313 68.2344,169.5313 C68,169.5313 67.7813,169.6094 67.5781,169.8125 C67.1406,170.25 67.1406,170.25 66.9688,170.3438 C66.5156,170.5781 65.875,170.7188 65.1094,170.7188 C63.1094,170.7188 61.8281,169.7031 61.8281,168.125 L61.8281,167.0781 C61.8281,165.375 63.0469,164.1719 64.75,164.1719 C65.3281,164.1719 65.9063,164.3125 66.375,164.5625 C66.8438,164.8281 67.0156,165.0156 67.0781,165.375 C67.2031,166.0469 67.4531,166.2969 67.9844,166.2969 C68.2656,166.2969 68.5469,166.1563 68.7344,165.9375 C68.8594,165.7656 68.9063,165.5938 68.9063,165.1563 L68.9063,163.7969 C68.9063,163.375 68.8906,163.2344 68.7656,163.0625 C68.5938,162.8125 68.3125,162.6563 67.9844,162.6563 C67.6719,162.6563 67.4688,162.7656 67.25,163.0313 C66.0781,162.5313 65.6406,162.4219 64.6875,162.4219 C62.0156,162.4219 60,164.4375 60,167.0625 L60,168.1563 Z "/><text fill="#000000" font-family="sans-serif" font-size="14" font-weight="bold" lengthAdjust="spacingAndGlyphs" textLength="188" x="79" y="171.606">InvalidTradeOfferException</text></a><!--class it.matlice.ingsw.model.exceptions.InvalidTimeException--><a target="_parent" xlink:actuate="onRequest" xlink:href="../../../../../it/matlice/ingsw/model/exceptions/InvalidTimeException.html" xlink:show="new" xlink:title="it.matlice.ingsw.model.exceptions.InvalidTimeException" xlink:type="simple"><rect fill="#FEFECE" filter="url(#fwx62rr)" height="32" style="stroke: #A80036; stroke-width: 1.5;" width="180" x="305" y="151"/><ellipse cx="320" cy="167" fill="#ADD1B2" rx="11" ry="11" style="stroke: #A80036; stroke-width: 1.0;"/><path d="M315,168.1563 C315,170.6563 317.1406,172.4688 320.0625,172.4688 C321.2969,172.4688 322.4688,172.1719 323.2188,171.6563 C323.8281,171.2344 324.1563,170.8125 324.1563,170.4063 C324.1563,169.9375 323.7344,169.5313 323.2344,169.5313 C323,169.5313 322.7813,169.6094 322.5781,169.8125 C322.1406,170.25 322.1406,170.25 321.9688,170.3438 C321.5156,170.5781 320.875,170.7188 320.1094,170.7188 C318.1094,170.7188 316.8281,169.7031 316.8281,168.125 L316.8281,167.0781 C316.8281,165.375 318.0469,164.1719 319.75,164.1719 C320.3281,164.1719 320.9063,164.3125 321.375,164.5625 C321.8438,164.8281 322.0156,165.0156 322.0781,165.375 C322.2031,166.0469 322.4531,166.2969 322.9844,166.2969 C323.2656,166.2969 323.5469,166.1563 323.7344,165.9375 C323.8594,165.7656 323.9063,165.5938 323.9063,165.1563 L323.9063,163.7969 C323.9063,163.375 323.8906,163.2344 323.7656,163.0625 C323.5938,162.8125 323.3125,162.6563 322.9844,162.6563 C322.6719,162.6563 322.4688,162.7656 322.25,163.0313 C321.0781,162.5313 320.6406,162.4219 319.6875,162.4219 C317.0156,162.4219 315,164.4375 315,167.0625 L315,168.1563 Z "/><text fill="#000000" font-family="sans-serif" font-size="14" font-weight="bold" lengthAdjust="spacingAndGlyphs" textLength="148" x="334" y="171.606">InvalidTimeException</text></a><!--class it.matlice.ingsw.model.exceptions.InvalidIntervalException--><a target="_parent" xlink:actuate="onRequest" xlink:href="../../../../../it/matlice/ingsw/model/exceptions/InvalidIntervalException.html" xlink:show="new" xlink:title="it.matlice.ingsw.model.exceptions.InvalidIntervalException" xlink:type="simple"><rect fill="#FEFECE" filter="url(#fwx62rr)" height="32" style="stroke: #A80036; stroke-width: 1.5;" width="198" x="520" y="151"/><ellipse cx="535" cy="167" fill="#ADD1B2" rx="11" ry="11" style="stroke: #A80036; stroke-width: 1.0;"/><path d="M530,168.1563 C530,170.6563 532.1406,172.4688 535.0625,172.4688 C536.2969,172.4688 537.4688,172.1719 538.2188,171.6563 C538.8281,171.2344 539.1563,170.8125 539.1563,170.4063 C539.1563,169.9375 538.7344,169.5313 538.2344,169.5313 C538,169.5313 537.7813,169.6094 537.5781,169.8125 C537.1406,170.25 537.1406,170.25 536.9688,170.3438 C536.5156,170.5781 535.875,170.7188 535.1094,170.7188 C533.1094,170.7188 531.8281,169.7031 531.8281,168.125 L531.8281,167.0781 C531.8281,165.375 533.0469,164.1719 534.75,164.1719 C535.3281,164.1719 535.9063,164.3125 536.375,164.5625 C536.8438,164.8281 537.0156,165.0156 537.0781,165.375 C537.2031,166.0469 537.4531,166.2969 537.9844,166.2969 C538.2656,166.2969 538.5469,166.1563 538.7344,165.9375 C538.8594,165.7656 538.9063,165.5938 538.9063,165.1563 L538.9063,163.7969 C538.9063,163.375 538.8906,163.2344 538.7656,163.0625 C538.5938,162.8125 538.3125,162.6563 537.9844,162.6563 C537.6719,162.6563 537.4688,162.7656 537.25,163.0313 C536.0781,162.5313 535.6406,162.4219 534.6875,162.4219 C532.0156,162.4219 530,164.4375 530,167.0625 L530,168.1563 Z "/><text fill="#000000" font-family="sans-serif" font-size="14" font-weight="bold" lengthAdjust="spacingAndGlyphs" textLength="166" x="549" y="171.606">InvalidIntervalException</text></a><!--class it.matlice.ingsw.model.exceptions.InvalidFieldException--><a target="_parent" xlink:actuate="onRequest" xlink:href="../../../../../it/matlice/ingsw/model/exceptions/InvalidFieldException.html" xlink:show="new" xlink:title="it.matlice.ingsw.model.exceptions.InvalidFieldException" xlink:type="simple"><rect fill="#FEFECE" filter="url(#fwx62rr)" height="32" style="stroke: #A80036; stroke-width: 1.5;" width="181" x="753.5" y="151"/><ellipse cx="768.5" cy="167" fill="#ADD1B2" rx="11" ry="11" style="stroke: #A80036; stroke-width: 1.0;"/><path d="M763.5,168.1563 C763.5,170.6563 765.6406,172.4688 768.5625,172.4688 C769.7969,172.4688 770.9688,172.1719 771.7188,171.6563 C772.3281,171.2344 772.6563,170.8125 772.6563,170.4063 C772.6563,169.9375 772.2344,169.5313 771.7344,169.5313 C771.5,169.5313 771.2813,169.6094 771.0781,169.8125 C770.6406,170.25 770.6406,170.25 770.4688,170.3438 C770.0156,170.5781 769.375,170.7188 768.6094,170.7188 C766.6094,170.7188 765.3281,169.7031 765.3281,168.125 L765.3281,167.0781 C765.3281,165.375 766.5469,164.1719 768.25,164.1719 C768.8281,164.1719 769.4063,164.3125 769.875,164.5625 C770.3438,164.8281 770.5156,165.0156 770.5781,165.375 C770.7031,166.0469 770.9531,166.2969 771.4844,166.2969 C771.7656,166.2969 772.0469,166.1563 772.2344,165.9375 C772.3594,165.7656 772.4063,165.5938 772.4063,165.1563 L772.4063,163.7969 C772.4063,163.375 772.3906,163.2344 772.2656,163.0625 C772.0938,162.8125 771.8125,162.6563 771.4844,162.6563 C771.1719,162.6563 770.9688,162.7656 770.75,163.0313 C769.5781,162.5313 769.1406,162.4219 768.1875,162.4219 C765.5156,162.4219 763.5,164.4375 763.5,167.0625 L763.5,168.1563 Z "/><text fill="#000000" font-family="sans-serif" font-size="14" font-weight="bold" lengthAdjust="spacingAndGlyphs" textLength="149" x="782.5" y="171.606">InvalidFieldException</text></a><!--class it.matlice.ingsw.model.exceptions.InvalidCategoryException--><a target="_parent" xlink:actuate="onRequest" xlink:href="../../../../../it/matlice/ingsw/model/exceptions/InvalidCategoryException.html" xlink:show="new" xlink:title="it.matlice.ingsw.model.exceptions.InvalidCategoryException" xlink:type="simple"><rect fill="#FEFECE" filter="url(#fwx62rr)" height="32" style="stroke: #A80036; stroke-width: 1.5;" width="209" x="45.5" y="243"/><ellipse cx="60.5" cy="259" fill="#ADD1B2" rx="11" ry="11" style="stroke: #A80036; stroke-width: 1.0;"/><path d="M55.5,260.1563 C55.5,262.6563 57.6406,264.4688 60.5625,264.4688 C61.7969,264.4688 62.9688,264.1719 63.7188,263.6563 C64.3281,263.2344 64.6563,262.8125 64.6563,262.4063 C64.6563,261.9375 64.2344,261.5313 63.7344,261.5313 C63.5,261.5313 63.2813,261.6094 63.0781,261.8125 C62.6406,262.25 62.6406,262.25 62.4688,262.3438 C62.0156,262.5781 61.375,262.7188 60.6094,262.7188 C58.6094,262.7188 57.3281,261.7031 57.3281,260.125 L57.3281,259.0781 C57.3281,257.375 58.5469,256.1719 60.25,256.1719 C60.8281,256.1719 61.4063,256.3125 61.875,256.5625 C62.3438,256.8281 62.5156,257.0156 62.5781,257.375 C62.7031,258.0469 62.9531,258.2969 63.4844,258.2969 C63.7656,258.2969 64.0469,258.1563 64.2344,257.9375 C64.3594,257.7656 64.4063,257.5938 64.4063,257.1563 L64.4063,255.7969 C64.4063,255.375 64.3906,255.2344 64.2656,255.0625 C64.0938,254.8125 63.8125,254.6563 63.4844,254.6563 C63.1719,254.6563 62.9688,254.7656 62.75,255.0313 C61.5781,254.5313 61.1406,254.4219 60.1875,254.4219 C57.5156,254.4219 55.5,256.4375 55.5,259.0625 L55.5,260.1563 Z "/><text fill="#000000" font-family="sans-serif" font-size="14" font-weight="bold" lengthAdjust="spacingAndGlyphs" textLength="177" x="74.5" y="263.606">InvalidCategoryException</text></a><!--class it.matlice.ingsw.model.exceptions.DuplicateUserException--><a target="_parent" xlink:actuate="onRequest" xlink:href="../../../../../it/matlice/ingsw/model/exceptions/DuplicateUserException.html" xlink:show="new" xlink:title="it.matlice.ingsw.model.exceptions.DuplicateUserException" xlink:type="simple"><rect fill="#FEFECE" filter="url(#fwx62rr)" height="32" style="stroke: #A80036; stroke-width: 1.5;" width="197" x="289.5" y="243"/><ellipse cx="304.5" cy="259" fill="#ADD1B2" rx="11" ry="11" style="stroke: #A80036; stroke-width: 1.0;"/><path d="M299.5,260.1563 C299.5,262.6563 301.6406,264.4688 304.5625,264.4688 C305.7969,264.4688 306.9688,264.1719 307.7188,263.6563 C308.3281,263.2344 308.6563,262.8125 308.6563,262.4063 C308.6563,261.9375 308.2344,261.5313 307.7344,261.5313 C307.5,261.5313 307.2813,261.6094 307.0781,261.8125 C306.6406,262.25 306.6406,262.25 306.4688,262.3438 C306.0156,262.5781 305.375,262.7188 304.6094,262.7188 C302.6094,262.7188 301.3281,261.7031 301.3281,260.125 L301.3281,259.0781 C301.3281,257.375 302.5469,256.1719 304.25,256.1719 C304.8281,256.1719 305.4063,256.3125 305.875,256.5625 C306.3438,256.8281 306.5156,257.0156 306.5781,257.375 C306.7031,258.0469 306.9531,258.2969 307.4844,258.2969 C307.7656,258.2969 308.0469,258.1563 308.2344,257.9375 C308.3594,257.7656 308.4063,257.5938 308.4063,257.1563 L308.4063,255.7969 C308.4063,255.375 308.3906,255.2344 308.2656,255.0625 C308.0938,254.8125 307.8125,254.6563 307.4844,254.6563 C307.1719,254.6563 306.9688,254.7656 306.75,255.0313 C305.5781,254.5313 305.1406,254.4219 304.1875,254.4219 C301.5156,254.4219 299.5,256.4375 299.5,259.0625 L299.5,260.1563 Z "/><text fill="#000000" font-family="sans-serif" font-size="14" font-weight="bold" lengthAdjust="spacingAndGlyphs" textLength="165" x="318.5" y="263.606">DuplicateUserException</text></a><!--class it.matlice.ingsw.model.exceptions.DuplicateFieldException--><a target="_parent" xlink:actuate="onRequest" xlink:href="../../../../../it/matlice/ingsw/model/exceptions/DuplicateFieldException.html" xlink:show="new" xlink:title="it.matlice.ingsw.model.exceptions.DuplicateFieldException" xlink:type="simple"><rect fill="#FEFECE" filter="url(#fwx62rr)" height="32" style="stroke: #A80036; stroke-width: 1.5;" width="200" x="522" y="243"/><ellipse cx="537" cy="259" fill="#ADD1B2" rx="11" ry="11" style="stroke: #A80036; stroke-width: 1.0;"/><path d="M532,260.1563 C532,262.6563 534.1406,264.4688 537.0625,264.4688 C538.2969,264.4688 539.4688,264.1719 540.2188,263.6563 C540.8281,263.2344 541.1563,262.8125 541.1563,262.4063 C541.1563,261.9375 540.7344,261.5313 540.2344,261.5313 C540,261.5313 539.7813,261.6094 539.5781,261.8125 C539.1406,262.25 539.1406,262.25 538.9688,262.3438 C538.5156,262.5781 537.875,262.7188 537.1094,262.7188 C535.1094,262.7188 533.8281,261.7031 533.8281,260.125 L533.8281,259.0781 C533.8281,257.375 535.0469,256.1719 536.75,256.1719 C537.3281,256.1719 537.9063,256.3125 538.375,256.5625 C538.8438,256.8281 539.0156,257.0156 539.0781,257.375 C539.2031,258.0469 539.4531,258.2969 539.9844,258.2969 C540.2656,258.2969 540.5469,258.1563 540.7344,257.9375 C540.8594,257.7656 540.9063,257.5938 540.9063,257.1563 L540.9063,255.7969 C540.9063,255.375 540.8906,255.2344 540.7656,255.0625 C540.5938,254.8125 540.3125,254.6563 539.9844,254.6563 C539.6719,254.6563 539.4688,254.7656 539.25,255.0313 C538.0781,254.5313 537.6406,254.4219 536.6875,254.4219 C534.0156,254.4219 532,256.4375 532,259.0625 L532,260.1563 Z "/><text fill="#000000" font-family="sans-serif" font-size="14" font-weight="bold" lengthAdjust="spacingAndGlyphs" textLength="168" x="551" y="263.606">DuplicateFieldException</text></a><!--class it.matlice.ingsw.model.exceptions.DuplicateCategoryException--><a target="_parent" xlink:actuate="onRequest" xlink:href="../../../../../it/matlice/ingsw/model/exceptions/DuplicateCategoryException.html" xlink:show="new" xlink:title="it.matlice.ingsw.model.exceptions.DuplicateCategoryException" xlink:type="simple"><rect fill="#FEFECE" filter="url(#fwx62rr)" height="32" style="stroke: #A80036; stroke-width: 1.5;" width="228" x="757" y="243"/><ellipse cx="772" cy="259" fill="#ADD1B2" rx="11" ry="11" style="stroke: #A80036; stroke-width: 1.0;"/><path d="M767,260.1563 C767,262.6563 769.1406,264.4688 772.0625,264.4688 C773.2969,264.4688 774.4688,264.1719 775.2188,263.6563 C775.8281,263.2344 776.1563,262.8125 776.1563,262.4063 C776.1563,261.9375 775.7344,261.5313 775.2344,261.5313 C775,261.5313 774.7813,261.6094 774.5781,261.8125 C774.1406,262.25 774.1406,262.25 773.9688,262.3438 C773.5156,262.5781 772.875,262.7188 772.1094,262.7188 C770.1094,262.7188 768.8281,261.7031 768.8281,260.125 L768.8281,259.0781 C768.8281,257.375 770.0469,256.1719 771.75,256.1719 C772.3281,256.1719 772.9063,256.3125 773.375,256.5625 C773.8438,256.8281 774.0156,257.0156 774.0781,257.375 C774.2031,258.0469 774.4531,258.2969 774.9844,258.2969 C775.2656,258.2969 775.5469,258.1563 775.7344,257.9375 C775.8594,257.7656 775.9063,257.5938 775.9063,257.1563 L775.9063,255.7969 C775.9063,255.375 775.8906,255.2344 775.7656,255.0625 C775.5938,254.8125 775.3125,254.6563 774.9844,254.6563 C774.6719,254.6563 774.4688,254.7656 774.25,255.0313 C773.0781,254.5313 772.6406,254.4219 771.6875,254.4219 C769.0156,254.4219 767,256.4375 767,259.0625 L767,260.1563 Z "/><text fill="#000000" font-family="sans-serif" font-size="14" font-weight="bold" lengthAdjust="spacingAndGlyphs" textLength="196" x="786" y="263.606">DuplicateCategoryException</text></a><!--class it.matlice.ingsw.model.exceptions.CannotParseTimeException--><a target="_parent" xlink:actuate="onRequest" xlink:href="../../../../../it/matlice/ingsw/model/exceptions/CannotParseTimeException.html" xlink:show="new" xlink:title="it.matlice.ingsw.model.exceptions.CannotParseTimeException" xlink:type="simple"><rect fill="#FEFECE" filter="url(#fwx62rr)" height="32" style="stroke: #A80036; stroke-width: 1.5;" width="222" x="39" y="335"/><ellipse cx="54" cy="351" fill="#ADD1B2" rx="11" ry="11" style="stroke: #A80036; stroke-width: 1.0;"/><path d="M49,352.1563 C49,354.6563 51.1406,356.4688 54.0625,356.4688 C55.2969,356.4688 56.4688,356.1719 57.2188,355.6563 C57.8281,355.2344 58.1563,354.8125 58.1563,354.4063 C58.1563,353.9375 57.7344,353.5313 57.2344,353.5313 C57,353.5313 56.7813,353.6094 56.5781,353.8125 C56.1406,354.25 56.1406,354.25 55.9688,354.3438 C55.5156,354.5781 54.875,354.7188 54.1094,354.7188 C52.1094,354.7188 50.8281,353.7031 50.8281,352.125 L50.8281,351.0781 C50.8281,349.375 52.0469,348.1719 53.75,348.1719 C54.3281,348.1719 54.9063,348.3125 55.375,348.5625 C55.8438,348.8281 56.0156,349.0156 56.0781,349.375 C56.2031,350.0469 56.4531,350.2969 56.9844,350.2969 C57.2656,350.2969 57.5469,350.1563 57.7344,349.9375 C57.8594,349.7656 57.9063,349.5938 57.9063,349.1563 L57.9063,347.7969 C57.9063,347.375 57.8906,347.2344 57.7656,347.0625 C57.5938,346.8125 57.3125,346.6563 56.9844,346.6563 C56.6719,346.6563 56.4688,346.7656 56.25,347.0313 C55.0781,346.5313 54.6406,346.4219 53.6875,346.4219 C51.0156,346.4219 49,348.4375 49,351.0625 L49,352.1563 Z "/><text fill="#000000" font-family="sans-serif" font-size="14" font-weight="bold" lengthAdjust="spacingAndGlyphs" textLength="190" x="68" y="355.606">CannotParseTimeException</text></a><!--class it.matlice.ingsw.model.exceptions.CannotParseIntervalException--><a target="_parent" xlink:actuate="onRequest" xlink:href="../../../../../it/matlice/ingsw/model/exceptions/CannotParseIntervalException.html" xlink:show="new" xlink:title="it.matlice.ingsw.model.exceptions.CannotParseIntervalException" xlink:type="simple"><rect fill="#FEFECE" filter="url(#fwx62rr)" height="32" style="stroke: #A80036; stroke-width: 1.5;" width="240" x="296" y="335"/><ellipse cx="311" cy="351" fill="#ADD1B2" rx="11" ry="11" style="stroke: #A80036; stroke-width: 1.0;"/><path d="M306,352.1563 C306,354.6563 308.1406,356.4688 311.0625,356.4688 C312.2969,356.4688 313.4688,356.1719 314.2188,355.6563 C314.8281,355.2344 315.1563,354.8125 315.1563,354.4063 C315.1563,353.9375 314.7344,353.5313 314.2344,353.5313 C314,353.5313 313.7813,353.6094 313.5781,353.8125 C313.1406,354.25 313.1406,354.25 312.9688,354.3438 C312.5156,354.5781 311.875,354.7188 311.1094,354.7188 C309.1094,354.7188 307.8281,353.7031 307.8281,352.125 L307.8281,351.0781 C307.8281,349.375 309.0469,348.1719 310.75,348.1719 C311.3281,348.1719 311.9063,348.3125 312.375,348.5625 C312.8438,348.8281 313.0156,349.0156 313.0781,349.375 C313.2031,350.0469 313.4531,350.2969 313.9844,350.2969 C314.2656,350.2969 314.5469,350.1563 314.7344,349.9375 C314.8594,349.7656 314.9063,349.5938 314.9063,349.1563 L314.9063,347.7969 C314.9063,347.375 314.8906,347.2344 314.7656,347.0625 C314.5938,346.8125 314.3125,346.6563 313.9844,346.6563 C313.6719,346.6563 313.4688,346.7656 313.25,347.0313 C312.0781,346.5313 311.6406,346.4219 310.6875,346.4219 C308.0156,346.4219 306,348.4375 306,351.0625 L306,352.1563 Z "/><text fill="#000000" font-family="sans-serif" font-size="14" font-weight="bold" lengthAdjust="spacingAndGlyphs" textLength="208" x="325" y="355.606">CannotParseIntervalException</text></a><!--class it.matlice.ingsw.model.exceptions.CannotParseDayException--><a target="_parent" xlink:actuate="onRequest" xlink:href="../../../../../it/matlice/ingsw/model/exceptions/CannotParseDayException.html" xlink:show="new" xlink:title="it.matlice.ingsw.model.exceptions.CannotParseDayException" xlink:type="simple"><rect fill="#FEFECE" filter="url(#fwx62rr)" height="32" style="stroke: #A80036; stroke-width: 1.5;" width="215" x="571.5" y="335"/><ellipse cx="586.5" cy="351" fill="#ADD1B2" rx="11" ry="11" style="stroke: #A80036; stroke-width: 1.0;"/><path d="M581.5,352.1563 C581.5,354.6563 583.6406,356.4688 586.5625,356.4688 C587.7969,356.4688 588.9688,356.1719 589.7188,355.6563 C590.3281,355.2344 590.6563,354.8125 590.6563,354.4063 C590.6563,353.9375 590.2344,353.5313 589.7344,353.5313 C589.5,353.5313 589.2813,353.6094 589.0781,353.8125 C588.6406,354.25 588.6406,354.25 588.4688,354.3438 C588.0156,354.5781 587.375,354.7188 586.6094,354.7188 C584.6094,354.7188 583.3281,353.7031 583.3281,352.125 L583.3281,351.0781 C583.3281,349.375 584.5469,348.1719 586.25,348.1719 C586.8281,348.1719 587.4063,348.3125 587.875,348.5625 C588.3438,348.8281 588.5156,349.0156 588.5781,349.375 C588.7031,350.0469 588.9531,350.2969 589.4844,350.2969 C589.7656,350.2969 590.0469,350.1563 590.2344,349.9375 C590.3594,349.7656 590.4063,349.5938 590.4063,349.1563 L590.4063,347.7969 C590.4063,347.375 590.3906,347.2344 590.2656,347.0625 C590.0938,346.8125 589.8125,346.6563 589.4844,346.6563 C589.1719,346.6563 588.9688,346.7656 588.75,347.0313 C587.5781,346.5313 587.1406,346.4219 586.1875,346.4219 C583.5156,346.4219 581.5,348.4375 581.5,351.0625 L581.5,352.1563 Z "/><text fill="#000000" font-family="sans-serif" font-size="14" font-weight="bold" lengthAdjust="spacingAndGlyphs" textLength="183" x="600.5" y="355.606">CannotParseDayException</text></a></g></svg>