<?xml version="1.0" encoding="UTF-8" standalone="no"?><svg xmlns="http://www.w3.org/2000/svg" xmlns:xlink="http://www.w3.org/1999/xlink" contentScriptType="application/ecmascript" contentStyleType="text/css" height="236px" preserveAspectRatio="none" style="width:376px;height:236px;" version="1.1" viewBox="0 0 376 236" width="376px" zoomAndPan="magnify"><defs><filter height="300%" id="fs2kfzz" width="300%" x="-1" y="-1"><feGaussianBlur result="blurOut" stdDeviation="2.0"/><feColorMatrix in="blurOut" result="blurOut2" type="matrix" values="0 0 0 0 0 0 0 0 0 0 0 0 0 0 0 0 0 0 .4 0"/><feOffset dx="4.0" dy="4.0" in="blurOut2" result="blurOut3"/><feBlend in="SourceGraphic" in2="blurOut3" mode="normal"/></filter></defs><g><!--class it.matlice.ingsw.model.exceptions.RequiredFieldConstrainException--><a target="_parent" xlink:actuate="onRequest" xlink:href="../../../../../it/matlice/ingsw/model/exceptions/RequiredFieldConstrainException.html" xlink:show="new" xlink:title="it.matlice.ingsw.model.exceptions.RequiredFieldConstrainException" xlink:type="simple"><rect fill="#FEFECE" filter="url(#fs2kfzz)" height="120.7994" style="stroke: #A80036; stroke-width: 1.5;" width="361" x="6" y="8"/><ellipse cx="66.25" cy="27.4" fill="#ADD1B2" rx="11" ry="11" style="stroke: #A80036; stroke-width: 1.0;"/><path d="M61.25,28.5562 C61.25,31.0562 63.3906,32.8687 66.3125,32.8687 C67.5469,32.8687 68.7188,32.5718 69.4688,32.0562 C70.0781,31.6343 70.4063,31.2125 70.4063,30.8062 C70.4063,30.3375 69.9844,29.9312 69.4844,29.9312 C69.25,29.9312 69.0313,30.0093 68.8281,30.2125 C68.3906,30.65 68.3906,30.65 68.2188,30.7437 C67.7656,30.9781 67.125,31.1187 66.3594,31.1187 C64.3594,31.1187 63.0781,30.1031 63.0781,28.525 L63.0781,27.4781 C63.0781,25.775 64.2969,24.5718 66,24.5718 C66.5781,24.5718 67.1563,24.7125 67.625,24.9625 C68.0938,25.2281 68.2656,25.4156 68.3281,25.775 C68.4531,26.4468 68.7031,26.6968 69.2344,26.6968 C69.5156,26.6968 69.7969,26.5562 69.9844,26.3375 C70.1094,26.1656 70.1563,25.9937 70.1563,25.5562 L70.1563,24.1968 C70.1563,23.775 70.1406,23.6343 70.0156,23.4625 C69.8438,23.2125 69.5625,23.0562 69.2344,23.0562 C68.9219,23.0562 68.7188,23.1656 68.5,23.4312 C67.3281,22.9312 66.8906,22.8218 65.9375,22.8218 C63.2656,22.8218 61.25,24.8375 61.25,27.4625 L61.25,28.5562 Z "/><text fill="#000000" font-family="sans-serif" font-size="14" font-weight="bold" lengthAdjust="spacingAndGlyphs" textLength="232" x="86.75" y="26.0059">RequiredFieldConstrainException</text><text fill="#000000" font-family="sans-serif" font-size="10" lengthAdjust="spacingAndGlyphs" textLength="153" x="126.25" y="39.0899">it.matlice.ingsw.model.exceptions</text><line style="stroke: #A80036; stroke-width: 1.5;" x1="7" x2="366" y1="46.7999" y2="46.7999"/><rect fill="none" height="6" style="stroke: #C82930; stroke-width: 1.0;" width="6" x="14" y="55.8999"/><text fill="#000000" font-family="sans-serif" font-size="11" lengthAdjust="spacingAndGlyphs" textLength="50" x="26" y="61.0188">String field</text><rect fill="none" height="6" style="stroke: #C82930; stroke-width: 1.0;" width="6" x="14" y="69.0998"/><text fill="#000000" font-family="sans-serif" font-size="11" lengthAdjust="spacingAndGlyphs" textLength="112" x="26" y="74.2187">LeafCategory category</text><line style="stroke: #A80036; stroke-width: 1.5;" x1="7" x2="366" y1="81.1997" y2="81.1997"/><ellipse cx="17" cy="93.2997" fill="#84BE84" rx="3" ry="3" style="stroke: #038048; stroke-width: 1.0;"/><text fill="#000000" font-family="sans-serif" font-size="11" lengthAdjust="spacingAndGlyphs" textLength="335" x="26" y="95.4186">RequiredFieldConstrainException(String field,LeafCategory category)</text><ellipse cx="17" cy="106.4996" fill="#84BE84" rx="3" ry="3" style="stroke: #038048; stroke-width: 1.0;"/><text fill="#000000" font-family="sans-serif" font-size="11" lengthAdjust="spacingAndGlyphs" textLength="77" x="26" y="108.6185">String getField()</text><ellipse cx="17" cy="119.6995" fill="#84BE84" rx="3" ry="3" style="stroke: #038048; stroke-width: 1.0;"/><text fill="#000000" font-family="sans-serif" font-size="11" lengthAdjust="spacingAndGlyphs" textLength="137" x="26" y="121.8184">LeafCategory getCategory()</text></a><!--class it.matlice.ingsw.model.data.LeafCategory--><a target="_parent" xlink:actuate="onRequest" xlink:href="../../../../../it/matlice/ingsw/model/data/LeafCategory.html" xlink:show="new" xlink:title="it.matlice.ingsw.model.data.LeafCategory" xlink:type="simple"><rect fill="#FFFFFF" filter="url(#fs2kfzz)" height="38.7999" style="stroke: #A80036; stroke-width: 1.5;" width="156" x="26.5" y="189"/><rect fill="#FFFFFF" height="38.7999" style="stroke: #A80036; stroke-width: 1.5;" width="156" x="26.5" y="189"/><ellipse cx="41.5" cy="208.4" fill="#ADD1B2" rx="11" ry="11" style="stroke: #A80036; stroke-width: 1.0;"/><path d="M36.5,209.5562 C36.5,212.0562 38.6406,213.8687 41.5625,213.8687 C42.7969,213.8687 43.9688,213.5718 44.7188,213.0562 C45.3281,212.6343 45.6563,212.2125 45.6563,211.8062 C45.6563,211.3375 45.2344,210.9312 44.7344,210.9312 C44.5,210.9312 44.2813,211.0093 44.0781,211.2125 C43.6406,211.65 43.6406,211.65 43.4688,211.7437 C43.0156,211.9781 42.375,212.1187 41.6094,212.1187 C39.6094,212.1187 38.3281,211.1031 38.3281,209.525 L38.3281,208.4781 C38.3281,206.775 39.5469,205.5718 41.25,205.5718 C41.8281,205.5718 42.4063,205.7125 42.875,205.9625 C43.3438,206.2281 43.5156,206.4156 43.5781,206.775 C43.7031,207.4468 43.9531,207.6968 44.4844,207.6968 C44.7656,207.6968 45.0469,207.5562 45.2344,207.3375 C45.3594,207.1656 45.4063,206.9937 45.4063,206.5562 L45.4063,205.1968 C45.4063,204.775 45.3906,204.6343 45.2656,204.4625 C45.0938,204.2125 44.8125,204.0562 44.4844,204.0562 C44.1719,204.0562 43.9688,204.1656 43.75,204.4312 C42.5781,203.9312 42.1406,203.8218 41.1875,203.8218 C38.5156,203.8218 36.5,205.8375 36.5,208.4625 L36.5,209.5562 Z "/><text fill="#000000" font-family="sans-serif" font-size="14" font-weight="bold" lengthAdjust="spacingAndGlyphs" textLength="92" x="71.5" y="207.0059">LeafCategory</text><text fill="#000000" font-family="sans-serif" font-size="10" lengthAdjust="spacingAndGlyphs" textLength="124" x="55.5" y="220.0899">it.matlice.ingsw.model.data</text></a><!--class java.lang.Exception--><rect fill="#D3D3D3" filter="url(#fs2kfzz)" height="38.7999" style="stroke: #A80036; stroke-width: 1.5;" width="101" x="218" y="189"/><rect fill="#D3D3D3" height="38.7999" style="stroke: #A80036; stroke-width: 1.5;" width="101" x="218" y="189"/><ellipse cx="233" cy="208.4" fill="#ADD1B2" rx="11" ry="11" style="stroke: #A80036; stroke-width: 1.0;"/><path d="M228,209.5562 C228,212.0562 230.1406,213.8687 233.0625,213.8687 C234.2969,213.8687 235.4688,213.5718 236.2188,213.0562 C236.8281,212.6343 237.1563,212.2125 237.1563,211.8062 C237.1563,211.3375 236.7344,210.9312 236.2344,210.9312 C236,210.9312 235.7813,211.0093 235.5781,211.2125 C235.1406,211.65 235.1406,211.65 234.9688,211.7437 C234.5156,211.9781 233.875,212.1187 233.1094,212.1187 C231.1094,212.1187 229.8281,211.1031 229.8281,209.525 L229.8281,208.4781 C229.8281,206.775 231.0469,205.5718 232.75,205.5718 C233.3281,205.5718 233.9063,205.7125 234.375,205.9625 C234.8438,206.2281 235.0156,206.4156 235.0781,206.775 C235.2031,207.4468 235.4531,207.6968 235.9844,207.6968 C236.2656,207.6968 236.5469,207.5562 236.7344,207.3375 C236.8594,207.1656 236.9063,206.9937 236.9063,206.5562 L236.9063,205.1968 C236.9063,204.775 236.8906,204.6343 236.7656,204.4625 C236.5938,204.2125 236.3125,204.0562 235.9844,204.0562 C235.6719,204.0562 235.4688,204.1656 235.25,204.4312 C234.0781,203.9312 233.6406,203.8218 232.6875,203.8218 C230.0156,203.8218 228,205.8375 228,208.4625 L228,209.5562 Z "/><text fill="#000000" font-family="sans-serif" font-size="14" font-weight="bold" lengthAdjust="spacingAndGlyphs" textLength="69" x="247" y="207.0059">Exception</text><text fill="#000000" font-family="sans-serif" font-size="10" lengthAdjust="spacingAndGlyphs" textLength="42" x="260.5" y="220.0899">java.lang</text><path d="M104.5,129.09 C104.5,129.09 104.5,183.75 104.5,183.75 " fill="none" style="stroke: #A80036; stroke-width: 1.0;"/><polygon fill="#A80036" points="104.5,188.75,108.5,179.75,104.5,183.75,100.5,179.75,104.5,188.75" style="stroke: #A80036; stroke-width: 1.0;"/><text fill="#000000" font-family="sans-serif" font-size="13" lengthAdjust="spacingAndGlyphs" textLength="50" x="46.8438" y="177.6042">category</text><path d="M268.5,129.09 C268.5,129.09 268.5,168.75 268.5,168.75 " fill="none" style="stroke: #A80036; stroke-width: 1.0;"/><polygon fill="none" points="275.5,168.75,268.5,188.75,261.5,168.75,275.5,168.75" style="stroke: #A80036; stroke-width: 1.0;"/></g></svg>