<?xml version="1.0" encoding="UTF-8" standalone="no"?><svg xmlns="http://www.w3.org/2000/svg" xmlns:xlink="http://www.w3.org/1999/xlink" contentScriptType="application/ecmascript" contentStyleType="text/css" height="306px" preserveAspectRatio="none" style="width:1101px;height:306px;" version="1.1" viewBox="0 0 1101 306" width="1101px" zoomAndPan="magnify"><defs><filter height="300%" id="f5utq6m" width="300%" x="-1" y="-1"><feGaussianBlur result="blurOut" stdDeviation="2.0"/><feColorMatrix in="blurOut" result="blurOut2" type="matrix" values="0 0 0 0 0 0 0 0 0 0 0 0 0 0 0 0 0 0 .4 0"/><feOffset dx="4.0" dy="4.0" in="blurOut2" result="blurOut3"/><feBlend in="SourceGraphic" in2="blurOut3" mode="normal"/></filter></defs><g><!--class it.matlice.ingsw.model.auth.AuthMethod--><a target="_parent" xlink:actuate="onRequest" xlink:href="../../../../../it/matlice/ingsw/model/auth/AuthMethod.html" xlink:show="new" xlink:title="it.matlice.ingsw.model.auth.AuthMethod" xlink:type="simple"><rect fill="#FEFECE" filter="url(#f5utq6m)" height="88.0997" style="stroke: #A80036; stroke-width: 1.5;" width="250" x="365" y="107"/><ellipse cx="423.75" cy="128.2" fill="#B4A7E5" rx="11" ry="11" style="stroke: #A80036; stroke-width: 1.0;"/><path d="M424.7656,125.3562 L426.4219,125.3562 C426.8125,125.3562 427.0156,125.325 427.1719,125.2468 C427.4375,125.075 427.6094,124.7781 427.6094,124.4812 C427.6094,124.2 427.4688,123.95 427.2344,123.7781 C427.0469,123.6531 426.8906,123.6062 426.4219,123.6062 L421.2813,123.6062 C420.8438,123.6062 420.7031,123.6218 420.5313,123.7312 C420.2656,123.9031 420.0938,124.1843 420.0938,124.4812 C420.0938,124.7625 420.2344,125.0437 420.4688,125.2 C420.6563,125.325 420.8438,125.3562 421.2813,125.3562 L422.9375,125.3562 L422.9375,131.45 L421.2813,131.45 C420.8438,131.45 420.7031,131.4656 420.5313,131.575 C420.2656,131.7312 420.0938,132.0281 420.0938,132.3093 C420.0938,132.9187 420.5,133.2 421.2813,133.2 L426.4219,133.2 C427.2031,133.2 427.6094,132.9187 427.6094,132.3093 C427.6094,132.0437 427.4688,131.7937 427.2344,131.6218 C427.0469,131.4812 426.875,131.45 426.4219,131.45 L424.7656,131.45 L424.7656,125.3562 Z "/><text fill="#000000" font-family="sans-serif" font-size="14" font-style="italic" font-weight="bold" lengthAdjust="spacingAndGlyphs" textLength="85" x="463.75" y="127.3999">AuthMethod</text><text fill="#000000" font-family="sans-serif" font-size="10" font-style="italic" lengthAdjust="spacingAndGlyphs" textLength="124" x="444.25" y="141.8999">it.matlice.ingsw.model.auth</text><line style="stroke: #A80036; stroke-width: 1.5;" x1="366" x2="614" y1="149.3999" y2="149.3999"/><line style="stroke: #A80036; stroke-width: 1.5;" x1="366" x2="614" y1="157.3999" y2="157.3999"/><ellipse cx="376" cy="170.3248" fill="#84BE84" rx="3" ry="3" style="stroke: #038048; stroke-width: 1.0;"/><text fill="#000000" font-family="sans-serif" font-size="11" font-style="italic" lengthAdjust="spacingAndGlyphs" textLength="224" x="385" y="173.4998">boolean performAuthentication(AuthData data)</text><ellipse cx="376" cy="185.1747" fill="#84BE84" rx="3" ry="3" style="stroke: #038048; stroke-width: 1.0;"/><text fill="#000000" font-family="sans-serif" font-size="11" font-style="italic" lengthAdjust="spacingAndGlyphs" textLength="115" x="385" y="188.3497">Authenticable getUser()</text></a><!--class it.matlice.ingsw.model.Model--><a target="_parent" xlink:actuate="onRequest" xlink:href="../../../../../it/matlice/ingsw/model/Model.html" xlink:show="new" xlink:title="it.matlice.ingsw.model.Model" xlink:type="simple"><rect fill="#FFFFFF" filter="url(#f5utq6m)" height="38.7999" style="stroke: #A80036; stroke-width: 1.5;" width="132" x="6" y="8"/><rect fill="#FFFFFF" height="38.7999" style="stroke: #A80036; stroke-width: 1.5;" width="132" x="6" y="8"/><ellipse cx="21" cy="27.4" fill="#ADD1B2" rx="11" ry="11" style="stroke: #A80036; stroke-width: 1.0;"/><path d="M16,28.5562 C16,31.0562 18.1406,32.8687 21.0625,32.8687 C22.2969,32.8687 23.4688,32.5718 24.2188,32.0562 C24.8281,31.6343 25.1563,31.2125 25.1563,30.8062 C25.1563,30.3375 24.7344,29.9312 24.2344,29.9312 C24,29.9312 23.7813,30.0093 23.5781,30.2125 C23.1406,30.65 23.1406,30.65 22.9688,30.7437 C22.5156,30.9781 21.875,31.1187 21.1094,31.1187 C19.1094,31.1187 17.8281,30.1031 17.8281,28.525 L17.8281,27.4781 C17.8281,25.775 19.0469,24.5718 20.75,24.5718 C21.3281,24.5718 21.9063,24.7125 22.375,24.9625 C22.8438,25.2281 23.0156,25.4156 23.0781,25.775 C23.2031,26.4468 23.4531,26.6968 23.9844,26.6968 C24.2656,26.6968 24.5469,26.5562 24.7344,26.3375 C24.8594,26.1656 24.9063,25.9937 24.9063,25.5562 L24.9063,24.1968 C24.9063,23.775 24.8906,23.6343 24.7656,23.4625 C24.5938,23.2125 24.3125,23.0562 23.9844,23.0562 C23.6719,23.0562 23.4688,23.1656 23.25,23.4312 C22.0781,22.9312 21.6406,22.8218 20.6875,22.8218 C18.0156,22.8218 16,24.8375 16,27.4625 L16,28.5562 Z "/><text fill="#000000" font-family="sans-serif" font-size="14" font-weight="bold" lengthAdjust="spacingAndGlyphs" textLength="42" x="64" y="26.0059">Model</text><text fill="#000000" font-family="sans-serif" font-size="10" lengthAdjust="spacingAndGlyphs" textLength="100" x="35" y="39.0899">it.matlice.ingsw.model</text></a><!--class it.matlice.ingsw.model.auth.Authenticable--><a target="_parent" xlink:actuate="onRequest" xlink:href="../../../../../it/matlice/ingsw/model/auth/Authenticable.html" xlink:show="new" xlink:title="it.matlice.ingsw.model.auth.Authenticable" xlink:type="simple"><rect fill="#FEFECE" filter="url(#f5utq6m)" height="42.3999" style="stroke: #A80036; stroke-width: 1.5;" width="156" x="412" y="255"/><ellipse cx="427" cy="276.2" fill="#B4A7E5" rx="11" ry="11" style="stroke: #A80036; stroke-width: 1.0;"/><path d="M428.0156,273.3562 L429.6719,273.3562 C430.0625,273.3562 430.2656,273.325 430.4219,273.2468 C430.6875,273.075 430.8594,272.7781 430.8594,272.4812 C430.8594,272.2 430.7188,271.95 430.4844,271.7781 C430.2969,271.6531 430.1406,271.6062 429.6719,271.6062 L424.5313,271.6062 C424.0938,271.6062 423.9531,271.6218 423.7813,271.7312 C423.5156,271.9031 423.3438,272.1843 423.3438,272.4812 C423.3438,272.7625 423.4844,273.0437 423.7188,273.2 C423.9063,273.325 424.0938,273.3562 424.5313,273.3562 L426.1875,273.3562 L426.1875,279.45 L424.5313,279.45 C424.0938,279.45 423.9531,279.4656 423.7813,279.575 C423.5156,279.7312 423.3438,280.0281 423.3438,280.3093 C423.3438,280.9187 423.75,281.2 424.5313,281.2 L429.6719,281.2 C430.4531,281.2 430.8594,280.9187 430.8594,280.3093 C430.8594,280.0437 430.7188,279.7937 430.4844,279.6218 C430.2969,279.4812 430.125,279.45 429.6719,279.45 L428.0156,279.45 L428.0156,273.3562 Z "/><text fill="#000000" font-family="sans-serif" font-size="14" font-style="italic" font-weight="bold" lengthAdjust="spacingAndGlyphs" textLength="96" x="455" y="275.3999">Authenticable</text><text fill="#000000" font-family="sans-serif" font-size="10" font-style="italic" lengthAdjust="spacingAndGlyphs" textLength="124" x="441" y="289.8999">it.matlice.ingsw.model.auth</text></a><!--class it.matlice.ingsw.model.auth.AuthData--><a target="_parent" xlink:actuate="onRequest" xlink:href="../../../../../it/matlice/ingsw/model/auth/AuthData.html" xlink:show="new" xlink:title="it.matlice.ingsw.model.auth.AuthData" xlink:type="simple"><rect fill="#FEFECE" filter="url(#f5utq6m)" height="42.3999" style="stroke: #A80036; stroke-width: 1.5;" width="156" x="603" y="255"/><ellipse cx="618" cy="276.2" fill="#B4A7E5" rx="11" ry="11" style="stroke: #A80036; stroke-width: 1.0;"/><path d="M619.0156,273.3562 L620.6719,273.3562 C621.0625,273.3562 621.2656,273.325 621.4219,273.2468 C621.6875,273.075 621.8594,272.7781 621.8594,272.4812 C621.8594,272.2 621.7188,271.95 621.4844,271.7781 C621.2969,271.6531 621.1406,271.6062 620.6719,271.6062 L615.5313,271.6062 C615.0938,271.6062 614.9531,271.6218 614.7813,271.7312 C614.5156,271.9031 614.3438,272.1843 614.3438,272.4812 C614.3438,272.7625 614.4844,273.0437 614.7188,273.2 C614.9063,273.325 615.0938,273.3562 615.5313,273.3562 L617.1875,273.3562 L617.1875,279.45 L615.5313,279.45 C615.0938,279.45 614.9531,279.4656 614.7813,279.575 C614.5156,279.7312 614.3438,280.0281 614.3438,280.3093 C614.3438,280.9187 614.75,281.2 615.5313,281.2 L620.6719,281.2 C621.4531,281.2 621.8594,280.9187 621.8594,280.3093 C621.8594,280.0437 621.7188,279.7937 621.4844,279.6218 C621.2969,279.4812 621.125,279.45 620.6719,279.45 L619.0156,279.45 L619.0156,273.3562 Z "/><text fill="#000000" font-family="sans-serif" font-size="14" font-style="italic" font-weight="bold" lengthAdjust="spacingAndGlyphs" textLength="64" x="662" y="275.3999">AuthData</text><text fill="#000000" font-family="sans-serif" font-size="10" font-style="italic" lengthAdjust="spacingAndGlyphs" textLength="124" x="632" y="289.8999">it.matlice.ingsw.model.auth</text></a><!--class it.matlice.ingsw.model.auth.password.PasswordAuthMethod--><a target="_parent" xlink:actuate="onRequest" xlink:href="../../../../../it/matlice/ingsw/model/auth/password/PasswordAuthMethod.html" xlink:show="new" xlink:title="it.matlice.ingsw.model.auth.password.PasswordAuthMethod" xlink:type="simple"><rect fill="#FFFFFF" filter="url(#f5utq6m)" height="38.7999" style="stroke: #A80036; stroke-width: 1.5;" width="203" x="173.5" y="8"/><rect fill="#FFFFFF" height="38.7999" style="stroke: #A80036; stroke-width: 1.5;" width="203" x="173.5" y="8"/><ellipse cx="188.5" cy="27.4" fill="#ADD1B2" rx="11" ry="11" style="stroke: #A80036; stroke-width: 1.0;"/><path d="M183.5,28.5562 C183.5,31.0562 185.6406,32.8687 188.5625,32.8687 C189.7969,32.8687 190.9688,32.5718 191.7188,32.0562 C192.3281,31.6343 192.6563,31.2125 192.6563,30.8062 C192.6563,30.3375 192.2344,29.9312 191.7344,29.9312 C191.5,29.9312 191.2813,30.0093 191.0781,30.2125 C190.6406,30.65 190.6406,30.65 190.4688,30.7437 C190.0156,30.9781 189.375,31.1187 188.6094,31.1187 C186.6094,31.1187 185.3281,30.1031 185.3281,28.525 L185.3281,27.4781 C185.3281,25.775 186.5469,24.5718 188.25,24.5718 C188.8281,24.5718 189.4063,24.7125 189.875,24.9625 C190.3438,25.2281 190.5156,25.4156 190.5781,25.775 C190.7031,26.4468 190.9531,26.6968 191.4844,26.6968 C191.7656,26.6968 192.0469,26.5562 192.2344,26.3375 C192.3594,26.1656 192.4063,25.9937 192.4063,25.5562 L192.4063,24.1968 C192.4063,23.775 192.3906,23.6343 192.2656,23.4625 C192.0938,23.2125 191.8125,23.0562 191.4844,23.0562 C191.1719,23.0562 190.9688,23.1656 190.75,23.4312 C189.5781,22.9312 189.1406,22.8218 188.1875,22.8218 C185.5156,22.8218 183.5,24.8375 183.5,27.4625 L183.5,28.5562 Z "/><text fill="#000000" font-family="sans-serif" font-size="14" font-weight="bold" lengthAdjust="spacingAndGlyphs" textLength="152" x="212" y="26.0059">PasswordAuthMethod</text><text fill="#000000" font-family="sans-serif" font-size="10" lengthAdjust="spacingAndGlyphs" textLength="171" x="202.5" y="39.0899">it.matlice.ingsw.model.auth.password</text></a><!--class it.matlice.ingsw.model.data.User--><a target="_parent" xlink:actuate="onRequest" xlink:href="../../../../../it/matlice/ingsw/model/data/User.html" xlink:show="new" xlink:title="it.matlice.ingsw.model.data.User" xlink:type="simple"><rect fill="#FFFFFF" filter="url(#f5utq6m)" height="38.7999" style="stroke: #A80036; stroke-width: 1.5;" width="156" x="412" y="8"/><rect fill="#FFFFFF" height="38.7999" style="stroke: #A80036; stroke-width: 1.5;" width="156" x="412" y="8"/><ellipse cx="427" cy="27.4" fill="#ADD1B2" rx="11" ry="11" style="stroke: #A80036; stroke-width: 1.0;"/><path d="M422,28.5562 C422,31.0562 424.1406,32.8687 427.0625,32.8687 C428.2969,32.8687 429.4688,32.5718 430.2188,32.0562 C430.8281,31.6343 431.1563,31.2125 431.1563,30.8062 C431.1563,30.3375 430.7344,29.9312 430.2344,29.9312 C430,29.9312 429.7813,30.0093 429.5781,30.2125 C429.1406,30.65 429.1406,30.65 428.9688,30.7437 C428.5156,30.9781 427.875,31.1187 427.1094,31.1187 C425.1094,31.1187 423.8281,30.1031 423.8281,28.525 L423.8281,27.4781 C423.8281,25.775 425.0469,24.5718 426.75,24.5718 C427.3281,24.5718 427.9063,24.7125 428.375,24.9625 C428.8438,25.2281 429.0156,25.4156 429.0781,25.775 C429.2031,26.4468 429.4531,26.6968 429.9844,26.6968 C430.2656,26.6968 430.5469,26.5562 430.7344,26.3375 C430.8594,26.1656 430.9063,25.9937 430.9063,25.5562 L430.9063,24.1968 C430.9063,23.775 430.8906,23.6343 430.7656,23.4625 C430.5938,23.2125 430.3125,23.0562 429.9844,23.0562 C429.6719,23.0562 429.4688,23.1656 429.25,23.4312 C428.0781,22.9312 427.6406,22.8218 426.6875,22.8218 C424.0156,22.8218 422,24.8375 422,27.4625 L422,28.5562 Z "/><text fill="#000000" font-family="sans-serif" font-size="14" font-weight="bold" lengthAdjust="spacingAndGlyphs" textLength="31" x="487.5" y="26.0059">User</text><text fill="#000000" font-family="sans-serif" font-size="10" lengthAdjust="spacingAndGlyphs" textLength="124" x="441" y="39.0899">it.matlice.ingsw.model.data</text></a><!--class it.matlice.ingsw.model.data.impl.jdbc.types.CustomerUserImpl--><a target="_parent" xlink:actuate="onRequest" xlink:href="../../../../../it/matlice/ingsw/model/data/impl/jdbc/types/CustomerUserImpl.html" xlink:show="new" xlink:title="it.matlice.ingsw.model.data.impl.jdbc.types.CustomerUserImpl" xlink:type="simple"><rect fill="#FFFFFF" filter="url(#f5utq6m)" height="38.7999" style="stroke: #A80036; stroke-width: 1.5;" width="227" x="603.5" y="8"/><rect fill="#FFFFFF" height="38.7999" style="stroke: #A80036; stroke-width: 1.5;" width="227" x="603.5" y="8"/><ellipse cx="618.5" cy="27.4" fill="#ADD1B2" rx="11" ry="11" style="stroke: #A80036; stroke-width: 1.0;"/><path d="M613.5,28.5562 C613.5,31.0562 615.6406,32.8687 618.5625,32.8687 C619.7969,32.8687 620.9688,32.5718 621.7188,32.0562 C622.3281,31.6343 622.6563,31.2125 622.6563,30.8062 C622.6563,30.3375 622.2344,29.9312 621.7344,29.9312 C621.5,29.9312 621.2813,30.0093 621.0781,30.2125 C620.6406,30.65 620.6406,30.65 620.4688,30.7437 C620.0156,30.9781 619.375,31.1187 618.6094,31.1187 C616.6094,31.1187 615.3281,30.1031 615.3281,28.525 L615.3281,27.4781 C615.3281,25.775 616.5469,24.5718 618.25,24.5718 C618.8281,24.5718 619.4063,24.7125 619.875,24.9625 C620.3438,25.2281 620.5156,25.4156 620.5781,25.775 C620.7031,26.4468 620.9531,26.6968 621.4844,26.6968 C621.7656,26.6968 622.0469,26.5562 622.2344,26.3375 C622.3594,26.1656 622.4063,25.9937 622.4063,25.5562 L622.4063,24.1968 C622.4063,23.775 622.3906,23.6343 622.2656,23.4625 C622.0938,23.2125 621.8125,23.0562 621.4844,23.0562 C621.1719,23.0562 620.9688,23.1656 620.75,23.4312 C619.5781,22.9312 619.1406,22.8218 618.1875,22.8218 C615.5156,22.8218 613.5,24.8375 613.5,27.4625 L613.5,28.5562 Z "/><text fill="#000000" font-family="sans-serif" font-size="14" font-weight="bold" lengthAdjust="spacingAndGlyphs" textLength="126" x="667" y="26.0059">CustomerUserImpl</text><text fill="#000000" font-family="sans-serif" font-size="10" lengthAdjust="spacingAndGlyphs" textLength="195" x="632.5" y="39.0899">it.matlice.ingsw.model.data.impl.jdbc.types</text></a><!--class it.matlice.ingsw.model.data.impl.jdbc.types.ConfiguratorUserImpl--><a target="_parent" xlink:actuate="onRequest" xlink:href="../../../../../it/matlice/ingsw/model/data/impl/jdbc/types/ConfiguratorUserImpl.html" xlink:show="new" xlink:title="it.matlice.ingsw.model.data.impl.jdbc.types.ConfiguratorUserImpl" xlink:type="simple"><rect fill="#FFFFFF" filter="url(#f5utq6m)" height="38.7999" style="stroke: #A80036; stroke-width: 1.5;" width="227" x="865.5" y="8"/><rect fill="#FFFFFF" height="38.7999" style="stroke: #A80036; stroke-width: 1.5;" width="227" x="865.5" y="8"/><ellipse cx="880.5" cy="27.4" fill="#ADD1B2" rx="11" ry="11" style="stroke: #A80036; stroke-width: 1.0;"/><path d="M875.5,28.5562 C875.5,31.0562 877.6406,32.8687 880.5625,32.8687 C881.7969,32.8687 882.9688,32.5718 883.7188,32.0562 C884.3281,31.6343 884.6563,31.2125 884.6563,30.8062 C884.6563,30.3375 884.2344,29.9312 883.7344,29.9312 C883.5,29.9312 883.2813,30.0093 883.0781,30.2125 C882.6406,30.65 882.6406,30.65 882.4688,30.7437 C882.0156,30.9781 881.375,31.1187 880.6094,31.1187 C878.6094,31.1187 877.3281,30.1031 877.3281,28.525 L877.3281,27.4781 C877.3281,25.775 878.5469,24.5718 880.25,24.5718 C880.8281,24.5718 881.4063,24.7125 881.875,24.9625 C882.3438,25.2281 882.5156,25.4156 882.5781,25.775 C882.7031,26.4468 882.9531,26.6968 883.4844,26.6968 C883.7656,26.6968 884.0469,26.5562 884.2344,26.3375 C884.3594,26.1656 884.4063,25.9937 884.4063,25.5562 L884.4063,24.1968 C884.4063,23.775 884.3906,23.6343 884.2656,23.4625 C884.0938,23.2125 883.8125,23.0562 883.4844,23.0562 C883.1719,23.0562 882.9688,23.1656 882.75,23.4312 C881.5781,22.9312 881.1406,22.8218 880.1875,22.8218 C877.5156,22.8218 875.5,24.8375 875.5,27.4625 L875.5,28.5562 Z "/><text fill="#000000" font-family="sans-serif" font-size="14" font-weight="bold" lengthAdjust="spacingAndGlyphs" textLength="147" x="918.5" y="26.0059">ConfiguratorUserImpl</text><text fill="#000000" font-family="sans-serif" font-size="10" lengthAdjust="spacingAndGlyphs" textLength="195" x="894.5" y="39.0899">it.matlice.ingsw.model.data.impl.jdbc.types</text></a><path d="M72,47.23 C72,82.33 72,152 72,152 C72,152 359.87,152 359.87,152 " fill="none" style="stroke: #A80036; stroke-width: 1.0; stroke-dasharray: 7.0,7.0;"/><polygon fill="#A80036" points="364.87,152,355.87,148,359.87,152,355.87,156,364.87,152" style="stroke: #A80036; stroke-width: 1.0;"/><path d="M516,254.8 C516,254.8 516,200.16 516,200.16 " fill="none" style="stroke: #A80036; stroke-width: 1.0; stroke-dasharray: 7.0,7.0;"/><polygon fill="#A80036" points="516,195.16,512,204.16,516,200.16,520,204.16,516,195.16" style="stroke: #A80036; stroke-width: 1.0;"/><path d="M464,195.07 C464,195.07 464,249.71 464,249.71 " fill="none" style="stroke: #A80036; stroke-width: 1.0; stroke-dasharray: 7.0,7.0;"/><polygon fill="#A80036" points="464,254.71,468,245.71,464,249.71,460,245.71,464,254.71" style="stroke: #A80036; stroke-width: 1.0;"/><path d="M609,195.07 C609,195.07 609,249.71 609,249.71 " fill="none" style="stroke: #A80036; stroke-width: 1.0; stroke-dasharray: 7.0,7.0;"/><polygon fill="#A80036" points="609,254.71,613,245.71,609,249.71,605,245.71,609,254.71" style="stroke: #A80036; stroke-width: 1.0;"/><path d="M370.75,47.07 C370.75,47.07 370.75,86.95 370.75,86.95 " fill="none" style="stroke: #A80036; stroke-width: 1.0; stroke-dasharray: 7.0,7.0;"/><polygon fill="none" points="377.75,86.95,370.75,106.95,363.75,86.95,377.75,86.95" style="stroke: #A80036; stroke-width: 1.0;"/><path d="M490,47.07 C490,47.07 490,101.95 490,101.95 " fill="none" style="stroke: #A80036; stroke-width: 1.0; stroke-dasharray: 7.0,7.0;"/><polygon fill="#A80036" points="490,106.95,494,97.95,490,101.95,486,97.95,490,106.95" style="stroke: #A80036; stroke-width: 1.0;"/><path d="M609.25,47.07 C609.25,47.07 609.25,101.95 609.25,101.95 " fill="none" style="stroke: #A80036; stroke-width: 1.0; stroke-dasharray: 7.0,7.0;"/><polygon fill="#A80036" points="609.25,106.95,613.25,97.95,609.25,101.95,605.25,97.95,609.25,106.95" style="stroke: #A80036; stroke-width: 1.0;"/><path d="M979,47.23 C979,82.33 979,152 979,152 C979,152 620.29,152 620.29,152 " fill="none" style="stroke: #A80036; stroke-width: 1.0; stroke-dasharray: 7.0,7.0;"/><polygon fill="#A80036" points="615.29,152,624.29,156,620.29,152,624.29,148,615.29,152" style="stroke: #A80036; stroke-width: 1.0;"/></g></svg>