<?xml version="1.0" encoding="UTF-8" standalone="no"?><svg xmlns="http://www.w3.org/2000/svg" xmlns:xlink="http://www.w3.org/1999/xlink" contentScriptType="application/ecmascript" contentStyleType="text/css" height="177px" preserveAspectRatio="none" style="width:814px;height:177px;" version="1.1" viewBox="0 0 814 177" width="814px" zoomAndPan="magnify"><defs><filter height="300%" id="fkidq42" width="300%" x="-1" y="-1"><feGaussianBlur result="blurOut" stdDeviation="2.0"/><feColorMatrix in="blurOut" result="blurOut2" type="matrix" values="0 0 0 0 0 0 0 0 0 0 0 0 0 0 0 0 0 0 .4 0"/><feOffset dx="4.0" dy="4.0" in="blurOut2" result="blurOut3"/><feBlend in="SourceGraphic" in2="blurOut3" mode="normal"/></filter></defs><g><!--class it.matlice.ingsw.model.auth.AuthData--><a target="_parent" xlink:actuate="onRequest" xlink:href="../../../../../it/matlice/ingsw/model/auth/AuthData.html" xlink:show="new" xlink:title="it.matlice.ingsw.model.auth.AuthData" xlink:type="simple"><rect fill="#FEFECE" filter="url(#fkidq42)" height="58.3999" style="stroke: #A80036; stroke-width: 1.5;" width="156" x="280" y="110"/><ellipse cx="295" cy="131.2" fill="#B4A7E5" rx="11" ry="11" style="stroke: #A80036; stroke-width: 1.0;"/><path d="M296.0156,128.3562 L297.6719,128.3562 C298.0625,128.3562 298.2656,128.325 298.4219,128.2468 C298.6875,128.075 298.8594,127.7781 298.8594,127.4812 C298.8594,127.2 298.7188,126.95 298.4844,126.7781 C298.2969,126.6531 298.1406,126.6062 297.6719,126.6062 L292.5313,126.6062 C292.0938,126.6062 291.9531,126.6218 291.7813,126.7312 C291.5156,126.9031 291.3438,127.1843 291.3438,127.4812 C291.3438,127.7625 291.4844,128.0437 291.7188,128.2 C291.9063,128.325 292.0938,128.3562 292.5313,128.3562 L294.1875,128.3562 L294.1875,134.45 L292.5313,134.45 C292.0938,134.45 291.9531,134.4656 291.7813,134.575 C291.5156,134.7312 291.3438,135.0281 291.3438,135.3093 C291.3438,135.9187 291.75,136.2 292.5313,136.2 L297.6719,136.2 C298.4531,136.2 298.8594,135.9187 298.8594,135.3093 C298.8594,135.0437 298.7188,134.7937 298.4844,134.6218 C298.2969,134.4812 298.125,134.45 297.6719,134.45 L296.0156,134.45 L296.0156,128.3562 Z "/><text fill="#000000" font-family="sans-serif" font-size="14" font-style="italic" font-weight="bold" lengthAdjust="spacingAndGlyphs" textLength="64" x="339" y="130.3999">AuthData</text><text fill="#000000" font-family="sans-serif" font-size="10" font-style="italic" lengthAdjust="spacingAndGlyphs" textLength="124" x="309" y="144.8999">it.matlice.ingsw.model.auth</text><line style="stroke: #A80036; stroke-width: 1.5;" x1="281" x2="435" y1="152.3999" y2="152.3999"/><line style="stroke: #A80036; stroke-width: 1.5;" x1="281" x2="435" y1="160.3999" y2="160.3999"/></a><!--class it.matlice.ingsw.model.Model--><a target="_parent" xlink:actuate="onRequest" xlink:href="../../../../../it/matlice/ingsw/model/Model.html" xlink:show="new" xlink:title="it.matlice.ingsw.model.Model" xlink:type="simple"><rect fill="#FFFFFF" filter="url(#fkidq42)" height="38.7999" style="stroke: #A80036; stroke-width: 1.5;" width="132" x="6" y="9.5"/><rect fill="#FFFFFF" height="38.7999" style="stroke: #A80036; stroke-width: 1.5;" width="132" x="6" y="9.5"/><ellipse cx="21" cy="28.9" fill="#ADD1B2" rx="11" ry="11" style="stroke: #A80036; stroke-width: 1.0;"/><path d="M16,30.0562 C16,32.5562 18.1406,34.3687 21.0625,34.3687 C22.2969,34.3687 23.4688,34.0718 24.2188,33.5562 C24.8281,33.1343 25.1563,32.7125 25.1563,32.3062 C25.1563,31.8375 24.7344,31.4312 24.2344,31.4312 C24,31.4312 23.7813,31.5093 23.5781,31.7125 C23.1406,32.15 23.1406,32.15 22.9688,32.2437 C22.5156,32.4781 21.875,32.6187 21.1094,32.6187 C19.1094,32.6187 17.8281,31.6031 17.8281,30.025 L17.8281,28.9781 C17.8281,27.275 19.0469,26.0718 20.75,26.0718 C21.3281,26.0718 21.9063,26.2125 22.375,26.4625 C22.8438,26.7281 23.0156,26.9156 23.0781,27.275 C23.2031,27.9468 23.4531,28.1968 23.9844,28.1968 C24.2656,28.1968 24.5469,28.0562 24.7344,27.8375 C24.8594,27.6656 24.9063,27.4937 24.9063,27.0562 L24.9063,25.6968 C24.9063,25.275 24.8906,25.1343 24.7656,24.9625 C24.5938,24.7125 24.3125,24.5562 23.9844,24.5562 C23.6719,24.5562 23.4688,24.6656 23.25,24.9312 C22.0781,24.4312 21.6406,24.3218 20.6875,24.3218 C18.0156,24.3218 16,26.3375 16,28.9625 L16,30.0562 Z "/><text fill="#000000" font-family="sans-serif" font-size="14" font-weight="bold" lengthAdjust="spacingAndGlyphs" textLength="42" x="64" y="27.5059">Model</text><text fill="#000000" font-family="sans-serif" font-size="10" lengthAdjust="spacingAndGlyphs" textLength="100" x="35" y="40.5899">it.matlice.ingsw.model</text></a><!--class it.matlice.ingsw.model.auth.AuthMethod--><a target="_parent" xlink:actuate="onRequest" xlink:href="../../../../../it/matlice/ingsw/model/auth/AuthMethod.html" xlink:show="new" xlink:title="it.matlice.ingsw.model.auth.AuthMethod" xlink:type="simple"><rect fill="#FEFECE" filter="url(#fkidq42)" height="42.3999" style="stroke: #A80036; stroke-width: 1.5;" width="156" x="173" y="8"/><ellipse cx="188" cy="29.2" fill="#B4A7E5" rx="11" ry="11" style="stroke: #A80036; stroke-width: 1.0;"/><path d="M189.0156,26.3562 L190.6719,26.3562 C191.0625,26.3562 191.2656,26.325 191.4219,26.2468 C191.6875,26.075 191.8594,25.7781 191.8594,25.4812 C191.8594,25.2 191.7188,24.95 191.4844,24.7781 C191.2969,24.6531 191.1406,24.6062 190.6719,24.6062 L185.5313,24.6062 C185.0938,24.6062 184.9531,24.6218 184.7813,24.7312 C184.5156,24.9031 184.3438,25.1843 184.3438,25.4812 C184.3438,25.7625 184.4844,26.0437 184.7188,26.2 C184.9063,26.325 185.0938,26.3562 185.5313,26.3562 L187.1875,26.3562 L187.1875,32.45 L185.5313,32.45 C185.0938,32.45 184.9531,32.4656 184.7813,32.575 C184.5156,32.7312 184.3438,33.0281 184.3438,33.3093 C184.3438,33.9187 184.75,34.2 185.5313,34.2 L190.6719,34.2 C191.4531,34.2 191.8594,33.9187 191.8594,33.3093 C191.8594,33.0437 191.7188,32.7937 191.4844,32.6218 C191.2969,32.4812 191.125,32.45 190.6719,32.45 L189.0156,32.45 L189.0156,26.3562 Z "/><text fill="#000000" font-family="sans-serif" font-size="14" font-style="italic" font-weight="bold" lengthAdjust="spacingAndGlyphs" textLength="85" x="221.5" y="28.3999">AuthMethod</text><text fill="#000000" font-family="sans-serif" font-size="10" font-style="italic" lengthAdjust="spacingAndGlyphs" textLength="124" x="202" y="42.8999">it.matlice.ingsw.model.auth</text></a><!--class it.matlice.ingsw.model.auth.password.PasswordAuthData--><a target="_parent" xlink:actuate="onRequest" xlink:href="../../../../../it/matlice/ingsw/model/auth/password/PasswordAuthData.html" xlink:show="new" xlink:title="it.matlice.ingsw.model.auth.password.PasswordAuthData" xlink:type="simple"><rect fill="#FFFFFF" filter="url(#fkidq42)" height="38.7999" style="stroke: #A80036; stroke-width: 1.5;" width="203" x="364.5" y="9.5"/><rect fill="#FFFFFF" height="38.7999" style="stroke: #A80036; stroke-width: 1.5;" width="203" x="364.5" y="9.5"/><ellipse cx="379.5" cy="28.9" fill="#ADD1B2" rx="11" ry="11" style="stroke: #A80036; stroke-width: 1.0;"/><path d="M374.5,30.0562 C374.5,32.5562 376.6406,34.3687 379.5625,34.3687 C380.7969,34.3687 381.9688,34.0718 382.7188,33.5562 C383.3281,33.1343 383.6563,32.7125 383.6563,32.3062 C383.6563,31.8375 383.2344,31.4312 382.7344,31.4312 C382.5,31.4312 382.2813,31.5093 382.0781,31.7125 C381.6406,32.15 381.6406,32.15 381.4688,32.2437 C381.0156,32.4781 380.375,32.6187 379.6094,32.6187 C377.6094,32.6187 376.3281,31.6031 376.3281,30.025 L376.3281,28.9781 C376.3281,27.275 377.5469,26.0718 379.25,26.0718 C379.8281,26.0718 380.4063,26.2125 380.875,26.4625 C381.3438,26.7281 381.5156,26.9156 381.5781,27.275 C381.7031,27.9468 381.9531,28.1968 382.4844,28.1968 C382.7656,28.1968 383.0469,28.0562 383.2344,27.8375 C383.3594,27.6656 383.4063,27.4937 383.4063,27.0562 L383.4063,25.6968 C383.4063,25.275 383.3906,25.1343 383.2656,24.9625 C383.0938,24.7125 382.8125,24.5562 382.4844,24.5562 C382.1719,24.5562 381.9688,24.6656 381.75,24.9312 C380.5781,24.4312 380.1406,24.3218 379.1875,24.3218 C376.5156,24.3218 374.5,26.3375 374.5,28.9625 L374.5,30.0562 Z "/><text fill="#000000" font-family="sans-serif" font-size="14" font-weight="bold" lengthAdjust="spacingAndGlyphs" textLength="131" x="413.5" y="27.5059">PasswordAuthData</text><text fill="#000000" font-family="sans-serif" font-size="10" lengthAdjust="spacingAndGlyphs" textLength="171" x="393.5" y="40.5899">it.matlice.ingsw.model.auth.password</text></a><!--class it.matlice.ingsw.model.auth.password.PasswordAuthMethod--><a target="_parent" xlink:actuate="onRequest" xlink:href="../../../../../it/matlice/ingsw/model/auth/password/PasswordAuthMethod.html" xlink:show="new" xlink:title="it.matlice.ingsw.model.auth.password.PasswordAuthMethod" xlink:type="simple"><rect fill="#FFFFFF" filter="url(#fkidq42)" height="38.7999" style="stroke: #A80036; stroke-width: 1.5;" width="203" x="602.5" y="9.5"/><rect fill="#FFFFFF" height="38.7999" style="stroke: #A80036; stroke-width: 1.5;" width="203" x="602.5" y="9.5"/><ellipse cx="617.5" cy="28.9" fill="#ADD1B2" rx="11" ry="11" style="stroke: #A80036; stroke-width: 1.0;"/><path d="M612.5,30.0562 C612.5,32.5562 614.6406,34.3687 617.5625,34.3687 C618.7969,34.3687 619.9688,34.0718 620.7188,33.5562 C621.3281,33.1343 621.6563,32.7125 621.6563,32.3062 C621.6563,31.8375 621.2344,31.4312 620.7344,31.4312 C620.5,31.4312 620.2813,31.5093 620.0781,31.7125 C619.6406,32.15 619.6406,32.15 619.4688,32.2437 C619.0156,32.4781 618.375,32.6187 617.6094,32.6187 C615.6094,32.6187 614.3281,31.6031 614.3281,30.025 L614.3281,28.9781 C614.3281,27.275 615.5469,26.0718 617.25,26.0718 C617.8281,26.0718 618.4063,26.2125 618.875,26.4625 C619.3438,26.7281 619.5156,26.9156 619.5781,27.275 C619.7031,27.9468 619.9531,28.1968 620.4844,28.1968 C620.7656,28.1968 621.0469,28.0562 621.2344,27.8375 C621.3594,27.6656 621.4063,27.4937 621.4063,27.0562 L621.4063,25.6968 C621.4063,25.275 621.3906,25.1343 621.2656,24.9625 C621.0938,24.7125 620.8125,24.5562 620.4844,24.5562 C620.1719,24.5562 619.9688,24.6656 619.75,24.9312 C618.5781,24.4312 618.1406,24.3218 617.1875,24.3218 C614.5156,24.3218 612.5,26.3375 612.5,28.9625 L612.5,30.0562 Z "/><text fill="#000000" font-family="sans-serif" font-size="14" font-weight="bold" lengthAdjust="spacingAndGlyphs" textLength="152" x="641" y="27.5059">PasswordAuthMethod</text><text fill="#000000" font-family="sans-serif" font-size="10" lengthAdjust="spacingAndGlyphs" textLength="171" x="631.5" y="40.5899">it.matlice.ingsw.model.auth.password</text></a><path d="M72,48.59 C72,80.45 72,140 72,140 C72,140 274.85,140 274.85,140 " fill="none" style="stroke: #A80036; stroke-width: 1.0; stroke-dasharray: 7.0,7.0;"/><polygon fill="#A80036" points="279.85,140,270.85,136,274.85,140,270.85,144,279.85,140" style="stroke: #A80036; stroke-width: 1.0;"/><path d="M304.5,50.21 C304.5,50.21 304.5,104.95 304.5,104.95 " fill="none" style="stroke: #A80036; stroke-width: 1.0; stroke-dasharray: 7.0,7.0;"/><polygon fill="#A80036" points="304.5,109.95,308.5,100.95,304.5,104.95,300.5,100.95,304.5,109.95" style="stroke: #A80036; stroke-width: 1.0;"/><path d="M400.25,48.67 C400.25,48.67 400.25,89.99 400.25,89.99 " fill="none" style="stroke: #A80036; stroke-width: 1.0; stroke-dasharray: 7.0,7.0;"/><polygon fill="none" points="407.25,89.99,400.25,109.99,393.25,89.99,407.25,89.99" style="stroke: #A80036; stroke-width: 1.0;"/><path d="M704,48.59 C704,80.45 704,140 704,140 C704,140 441.08,140 441.08,140 " fill="none" style="stroke: #A80036; stroke-width: 1.0; stroke-dasharray: 7.0,7.0;"/><polygon fill="#A80036" points="436.08,140,445.08,144,441.08,140,445.08,136,436.08,140" style="stroke: #A80036; stroke-width: 1.0;"/></g></svg>