<?xml version="1.0" encoding="UTF-8" standalone="no"?><svg xmlns="http://www.w3.org/2000/svg" xmlns:xlink="http://www.w3.org/1999/xlink" contentScriptType="application/ecmascript" contentStyleType="text/css" height="294px" preserveAspectRatio="none" style="width:647px;height:294px;" version="1.1" viewBox="0 0 647 294" width="647px" zoomAndPan="magnify"><defs><filter height="300%" id="fgrtbzs" width="300%" x="-1" y="-1"><feGaussianBlur result="blurOut" stdDeviation="2.0"/><feColorMatrix in="blurOut" result="blurOut2" type="matrix" values="0 0 0 0 0 0 0 0 0 0 0 0 0 0 0 0 0 0 .4 0"/><feOffset dx="4.0" dy="4.0" in="blurOut2" result="blurOut3"/><feBlend in="SourceGraphic" in2="blurOut3" mode="normal"/></filter></defs><g><!--class it.matlice.ingsw.model.auth.Authenticable--><a target="_parent" xlink:actuate="onRequest" xlink:href="../../../../../it/matlice/ingsw/model/auth/Authenticable.html" xlink:show="new" xlink:title="it.matlice.ingsw.model.auth.Authenticable" xlink:type="simple"><rect fill="#FEFECE" filter="url(#fgrtbzs)" height="73.2498" style="stroke: #A80036; stroke-width: 1.5;" width="203" x="244" y="110"/><ellipse cx="280.15" cy="131.2" fill="#B4A7E5" rx="11" ry="11" style="stroke: #A80036; stroke-width: 1.0;"/><path d="M281.1656,128.3562 L282.8219,128.3562 C283.2125,128.3562 283.4156,128.325 283.5719,128.2468 C283.8375,128.075 284.0094,127.7781 284.0094,127.4812 C284.0094,127.2 283.8688,126.95 283.6344,126.7781 C283.4469,126.6531 283.2906,126.6062 282.8219,126.6062 L277.6813,126.6062 C277.2438,126.6062 277.1031,126.6218 276.9313,126.7312 C276.6656,126.9031 276.4938,127.1843 276.4938,127.4812 C276.4938,127.7625 276.6344,128.0437 276.8688,128.2 C277.0563,128.325 277.2438,128.3562 277.6813,128.3562 L279.3375,128.3562 L279.3375,134.45 L277.6813,134.45 C277.2438,134.45 277.1031,134.4656 276.9313,134.575 C276.6656,134.7312 276.4938,135.0281 276.4938,135.3093 C276.4938,135.9187 276.9,136.2 277.6813,136.2 L282.8219,136.2 C283.6031,136.2 284.0094,135.9187 284.0094,135.3093 C284.0094,135.0437 283.8688,134.7937 283.6344,134.6218 C283.4469,134.4812 283.275,134.45 282.8219,134.45 L281.1656,134.45 L281.1656,128.3562 Z "/><text fill="#000000" font-family="sans-serif" font-size="14" font-style="italic" font-weight="bold" lengthAdjust="spacingAndGlyphs" textLength="96" x="312.85" y="130.3999">Authenticable</text><text fill="#000000" font-family="sans-serif" font-size="10" font-style="italic" lengthAdjust="spacingAndGlyphs" textLength="124" x="298.85" y="144.8999">it.matlice.ingsw.model.auth</text><line style="stroke: #A80036; stroke-width: 1.5;" x1="245" x2="446" y1="152.3999" y2="152.3999"/><line style="stroke: #A80036; stroke-width: 1.5;" x1="245" x2="446" y1="160.3999" y2="160.3999"/><ellipse cx="255" cy="173.3248" fill="#84BE84" rx="3" ry="3" style="stroke: #038048; stroke-width: 1.0;"/><text fill="#000000" font-family="sans-serif" font-size="11" font-style="italic" lengthAdjust="spacingAndGlyphs" textLength="177" x="264" y="176.4998">List&lt;AuthMethod&gt; getAuthMethods()</text></a><!--class it.matlice.ingsw.model.auth.AuthMethod--><a target="_parent" xlink:actuate="onRequest" xlink:href="../../../../../it/matlice/ingsw/model/auth/AuthMethod.html" xlink:show="new" xlink:title="it.matlice.ingsw.model.auth.AuthMethod" xlink:type="simple"><rect fill="#FEFECE" filter="url(#fgrtbzs)" height="42.3999" style="stroke: #A80036; stroke-width: 1.5;" width="156" x="267.5" y="243"/><ellipse cx="282.5" cy="264.2" fill="#B4A7E5" rx="11" ry="11" style="stroke: #A80036; stroke-width: 1.0;"/><path d="M283.5156,261.3562 L285.1719,261.3562 C285.5625,261.3562 285.7656,261.325 285.9219,261.2468 C286.1875,261.075 286.3594,260.7781 286.3594,260.4812 C286.3594,260.2 286.2188,259.95 285.9844,259.7781 C285.7969,259.6531 285.6406,259.6062 285.1719,259.6062 L280.0313,259.6062 C279.5938,259.6062 279.4531,259.6218 279.2813,259.7312 C279.0156,259.9031 278.8438,260.1843 278.8438,260.4812 C278.8438,260.7625 278.9844,261.0437 279.2188,261.2 C279.4063,261.325 279.5938,261.3562 280.0313,261.3562 L281.6875,261.3562 L281.6875,267.45 L280.0313,267.45 C279.5938,267.45 279.4531,267.4656 279.2813,267.575 C279.0156,267.7312 278.8438,268.0281 278.8438,268.3093 C278.8438,268.9187 279.25,269.2 280.0313,269.2 L285.1719,269.2 C285.9531,269.2 286.3594,268.9187 286.3594,268.3093 C286.3594,268.0437 286.2188,267.7937 285.9844,267.6218 C285.7969,267.4812 285.625,267.45 285.1719,267.45 L283.5156,267.45 L283.5156,261.3562 Z "/><text fill="#000000" font-family="sans-serif" font-size="14" font-style="italic" font-weight="bold" lengthAdjust="spacingAndGlyphs" textLength="85" x="316" y="263.3999">AuthMethod</text><text fill="#000000" font-family="sans-serif" font-size="10" font-style="italic" lengthAdjust="spacingAndGlyphs" textLength="124" x="296.5" y="277.8999">it.matlice.ingsw.model.auth</text></a><!--class it.matlice.ingsw.model.auth.password.PasswordAuthenticable--><a target="_parent" xlink:actuate="onRequest" xlink:href="../../../../../it/matlice/ingsw/model/auth/password/PasswordAuthenticable.html" xlink:show="new" xlink:title="it.matlice.ingsw.model.auth.password.PasswordAuthenticable" xlink:type="simple"><rect fill="#FFFFFF" filter="url(#fgrtbzs)" height="42.3999" style="stroke: #A80036; stroke-width: 1.5;" width="203" x="6" y="8"/><rect fill="#FFFFFF" height="42.3999" style="stroke: #A80036; stroke-width: 1.5;" width="203" x="6" y="8"/><ellipse cx="21" cy="29.2" fill="#B4A7E5" rx="11" ry="11" style="stroke: #A80036; stroke-width: 1.0;"/><path d="M22.0156,26.3562 L23.6719,26.3562 C24.0625,26.3562 24.2656,26.325 24.4219,26.2468 C24.6875,26.075 24.8594,25.7781 24.8594,25.4812 C24.8594,25.2 24.7188,24.95 24.4844,24.7781 C24.2969,24.6531 24.1406,24.6062 23.6719,24.6062 L18.5313,24.6062 C18.0938,24.6062 17.9531,24.6218 17.7813,24.7312 C17.5156,24.9031 17.3438,25.1843 17.3438,25.4812 C17.3438,25.7625 17.4844,26.0437 17.7188,26.2 C17.9063,26.325 18.0938,26.3562 18.5313,26.3562 L20.1875,26.3562 L20.1875,32.45 L18.5313,32.45 C18.0938,32.45 17.9531,32.4656 17.7813,32.575 C17.5156,32.7312 17.3438,33.0281 17.3438,33.3093 C17.3438,33.9187 17.75,34.2 18.5313,34.2 L23.6719,34.2 C24.4531,34.2 24.8594,33.9187 24.8594,33.3093 C24.8594,33.0437 24.7188,32.7937 24.4844,32.6218 C24.2969,32.4812 24.125,32.45 23.6719,32.45 L22.0156,32.45 L22.0156,26.3562 Z "/><text fill="#000000" font-family="sans-serif" font-size="14" font-style="italic" font-weight="bold" lengthAdjust="spacingAndGlyphs" textLength="163" x="39" y="28.3999">PasswordAuthenticable</text><text fill="#000000" font-family="sans-serif" font-size="10" font-style="italic" lengthAdjust="spacingAndGlyphs" textLength="171" x="35" y="42.8999">it.matlice.ingsw.model.auth.password</text></a><!--class it.matlice.ingsw.model.auth.password.PasswordAuthMethod--><a target="_parent" xlink:actuate="onRequest" xlink:href="../../../../../it/matlice/ingsw/model/auth/password/PasswordAuthMethod.html" xlink:show="new" xlink:title="it.matlice.ingsw.model.auth.password.PasswordAuthMethod" xlink:type="simple"><rect fill="#FFFFFF" filter="url(#fgrtbzs)" height="38.7999" style="stroke: #A80036; stroke-width: 1.5;" width="203" x="244" y="9.5"/><rect fill="#FFFFFF" height="38.7999" style="stroke: #A80036; stroke-width: 1.5;" width="203" x="244" y="9.5"/><ellipse cx="259" cy="28.9" fill="#ADD1B2" rx="11" ry="11" style="stroke: #A80036; stroke-width: 1.0;"/><path d="M254,30.0562 C254,32.5562 256.1406,34.3687 259.0625,34.3687 C260.2969,34.3687 261.4688,34.0718 262.2188,33.5562 C262.8281,33.1343 263.1563,32.7125 263.1563,32.3062 C263.1563,31.8375 262.7344,31.4312 262.2344,31.4312 C262,31.4312 261.7813,31.5093 261.5781,31.7125 C261.1406,32.15 261.1406,32.15 260.9688,32.2437 C260.5156,32.4781 259.875,32.6187 259.1094,32.6187 C257.1094,32.6187 255.8281,31.6031 255.8281,30.025 L255.8281,28.9781 C255.8281,27.275 257.0469,26.0718 258.75,26.0718 C259.3281,26.0718 259.9063,26.2125 260.375,26.4625 C260.8438,26.7281 261.0156,26.9156 261.0781,27.275 C261.2031,27.9468 261.4531,28.1968 261.9844,28.1968 C262.2656,28.1968 262.5469,28.0562 262.7344,27.8375 C262.8594,27.6656 262.9063,27.4937 262.9063,27.0562 L262.9063,25.6968 C262.9063,25.275 262.8906,25.1343 262.7656,24.9625 C262.5938,24.7125 262.3125,24.5562 261.9844,24.5562 C261.6719,24.5562 261.4688,24.6656 261.25,24.9312 C260.0781,24.4312 259.6406,24.3218 258.6875,24.3218 C256.0156,24.3218 254,26.3375 254,28.9625 L254,30.0562 Z "/><text fill="#000000" font-family="sans-serif" font-size="14" font-weight="bold" lengthAdjust="spacingAndGlyphs" textLength="152" x="282.5" y="27.5059">PasswordAuthMethod</text><text fill="#000000" font-family="sans-serif" font-size="10" lengthAdjust="spacingAndGlyphs" textLength="171" x="273" y="40.5899">it.matlice.ingsw.model.auth.password</text></a><!--class it.matlice.ingsw.model.data.User--><a target="_parent" xlink:actuate="onRequest" xlink:href="../../../../../it/matlice/ingsw/model/data/User.html" xlink:show="new" xlink:title="it.matlice.ingsw.model.data.User" xlink:type="simple"><rect fill="#FFFFFF" filter="url(#fgrtbzs)" height="38.7999" style="stroke: #A80036; stroke-width: 1.5;" width="156" x="482.5" y="9.5"/><rect fill="#FFFFFF" height="38.7999" style="stroke: #A80036; stroke-width: 1.5;" width="156" x="482.5" y="9.5"/><ellipse cx="497.5" cy="28.9" fill="#ADD1B2" rx="11" ry="11" style="stroke: #A80036; stroke-width: 1.0;"/><path d="M492.5,30.0562 C492.5,32.5562 494.6406,34.3687 497.5625,34.3687 C498.7969,34.3687 499.9688,34.0718 500.7188,33.5562 C501.3281,33.1343 501.6563,32.7125 501.6563,32.3062 C501.6563,31.8375 501.2344,31.4312 500.7344,31.4312 C500.5,31.4312 500.2813,31.5093 500.0781,31.7125 C499.6406,32.15 499.6406,32.15 499.4688,32.2437 C499.0156,32.4781 498.375,32.6187 497.6094,32.6187 C495.6094,32.6187 494.3281,31.6031 494.3281,30.025 L494.3281,28.9781 C494.3281,27.275 495.5469,26.0718 497.25,26.0718 C497.8281,26.0718 498.4063,26.2125 498.875,26.4625 C499.3438,26.7281 499.5156,26.9156 499.5781,27.275 C499.7031,27.9468 499.9531,28.1968 500.4844,28.1968 C500.7656,28.1968 501.0469,28.0562 501.2344,27.8375 C501.3594,27.6656 501.4063,27.4937 501.4063,27.0562 L501.4063,25.6968 C501.4063,25.275 501.3906,25.1343 501.2656,24.9625 C501.0938,24.7125 500.8125,24.5562 500.4844,24.5562 C500.1719,24.5562 499.9688,24.6656 499.75,24.9312 C498.5781,24.4312 498.1406,24.3218 497.1875,24.3218 C494.5156,24.3218 492.5,26.3375 492.5,28.9625 L492.5,30.0562 Z "/><text fill="#000000" font-family="sans-serif" font-size="14" font-weight="bold" lengthAdjust="spacingAndGlyphs" textLength="31" x="558" y="27.5059">User</text><text fill="#000000" font-family="sans-serif" font-size="10" lengthAdjust="spacingAndGlyphs" textLength="124" x="511.5" y="40.5899">it.matlice.ingsw.model.data</text></a><path d="M319.5,183.03 C319.5,183.03 319.5,237.9 319.5,237.9 " fill="none" style="stroke: #A80036; stroke-width: 1.0; stroke-dasharray: 7.0,7.0;"/><polygon fill="#A80036" points="319.5,242.9,323.5,233.9,319.5,237.9,315.5,233.9,319.5,242.9" style="stroke: #A80036; stroke-width: 1.0;"/><path d="M371.5,242.99 C371.5,242.99 371.5,188.01 371.5,188.01 " fill="none" style="stroke: #A80036; stroke-width: 1.0; stroke-dasharray: 7.0,7.0;"/><polygon fill="#A80036" points="371.5,183.01,367.5,192.01,371.5,188.01,375.5,192.01,371.5,183.01" style="stroke: #A80036; stroke-width: 1.0;"/><path d="M107.5,50.1 C107.5,84.04 107.5,147 107.5,147 C107.5,147 223.88,147 223.88,147 " fill="none" style="stroke: #A80036; stroke-width: 1.0;"/><polygon fill="none" points="223.88,140,243.88,147,223.88,154,223.88,140" style="stroke: #A80036; stroke-width: 1.0;"/><path d="M345.5,48.67 C345.5,48.67 345.5,104.65 345.5,104.65 " fill="none" style="stroke: #A80036; stroke-width: 1.0; stroke-dasharray: 7.0,7.0;"/><polygon fill="#A80036" points="345.5,109.65,349.5,100.65,345.5,104.65,341.5,100.65,345.5,109.65" style="stroke: #A80036; stroke-width: 1.0;"/><path d="M560.5,48.75 C560.5,82.34 560.5,147 560.5,147 C560.5,147 467.02,147 467.02,147 " fill="none" style="stroke: #A80036; stroke-width: 1.0; stroke-dasharray: 7.0,7.0;"/><polygon fill="none" points="467.02,154,447.02,147,467.02,140,467.02,154" style="stroke: #A80036; stroke-width: 1.0;"/></g></svg>