<?xml version="1.0" encoding="UTF-8" standalone="no"?><svg xmlns="http://www.w3.org/2000/svg" xmlns:xlink="http://www.w3.org/1999/xlink" contentScriptType="application/ecmascript" contentStyleType="text/css" height="298px" preserveAspectRatio="none" style="width:990px;height:298px;" version="1.1" viewBox="0 0 990 298" width="990px" zoomAndPan="magnify"><defs><filter height="300%" id="fo10ofd" width="300%" x="-1" y="-1"><feGaussianBlur result="blurOut" stdDeviation="2.0"/><feColorMatrix in="blurOut" result="blurOut2" type="matrix" values="0 0 0 0 0 0 0 0 0 0 0 0 0 0 0 0 0 0 .4 0"/><feOffset dx="4.0" dy="4.0" in="blurOut2" result="blurOut3"/><feBlend in="SourceGraphic" in2="blurOut3" mode="normal"/></filter></defs><g><!--cluster it.matlice.ingsw.model.auth--><a target="_parent" xlink:actuate="onRequest" xlink:href="../../../../../it/matlice/ingsw/model/auth/package-summary.html" xlink:show="new" xlink:title="it.matlice.ingsw.model.auth" xlink:type="simple"><polygon fill="#FFFFE0" filter="url(#fo10ofd)" points="471,24,665,24,672,46.7999,675,46.7999,675,291,471,291,471,24" style="stroke: #000000; stroke-width: 2.0;"/><line style="stroke: #000000; stroke-width: 2.0;" x1="471" x2="672" y1="46.7999" y2="46.7999"/><text fill="#000000" font-family="sans-serif" font-size="14" font-weight="bold" lengthAdjust="spacingAndGlyphs" textLength="188" x="475" y="39.0059">it.matlice.ingsw.model.auth</text></a><!--cluster it.matlice.ingsw.model.auth.exceptions--><a target="_parent" xlink:actuate="onRequest" xlink:href="../../../../../it/matlice/ingsw/model/auth/exceptions/package-summary.html" xlink:show="new" xlink:title="it.matlice.ingsw.model.auth.exceptions" xlink:type="simple"><polygon fill="#FFFFFF" filter="url(#fo10ofd)" points="699,24,973,24,980,46.7999,983,46.7999,983,107,699,107,699,24" style="stroke: #000000; stroke-width: 2.0;"/><line style="stroke: #000000; stroke-width: 2.0;" x1="699" x2="980" y1="46.7999" y2="46.7999"/><text fill="#000000" font-family="sans-serif" font-size="14" font-weight="bold" lengthAdjust="spacingAndGlyphs" textLength="268" x="703" y="39.0059">it.matlice.ingsw.model.auth.exceptions</text></a><!--cluster it.matlice.ingsw.model.auth.password--><a target="_parent" xlink:actuate="onRequest" xlink:href="../../../../../it/matlice/ingsw/model/auth/password/package-summary.html" xlink:show="new" xlink:title="it.matlice.ingsw.model.auth.password" xlink:type="simple"><polygon fill="#FFFFFF" filter="url(#fo10ofd)" points="22,24,287,24,294,46.7999,447,46.7999,447,199,22,199,22,24" style="stroke: #000000; stroke-width: 2.0;"/><line style="stroke: #000000; stroke-width: 2.0;" x1="22" x2="294" y1="46.7999" y2="46.7999"/><text fill="#000000" font-family="sans-serif" font-size="14" font-weight="bold" lengthAdjust="spacingAndGlyphs" textLength="259" x="26" y="39.0059">it.matlice.ingsw.model.auth.password</text></a><!--class it.matlice.ingsw.model.auth.Authenticable--><a target="_parent" xlink:actuate="onRequest" xlink:href="../../../../../it/matlice/ingsw/model/auth/Authenticable.html" xlink:show="new" xlink:title="it.matlice.ingsw.model.auth.Authenticable" xlink:type="simple"><rect fill="#FEFECE" filter="url(#fo10ofd)" height="32" style="stroke: #A80036; stroke-width: 1.5;" width="128" x="509" y="59"/><ellipse cx="524" cy="75" fill="#B4A7E5" rx="11" ry="11" style="stroke: #A80036; stroke-width: 1.0;"/><path d="M525.0156,72.1563 L526.6719,72.1563 C527.0625,72.1563 527.2656,72.125 527.4219,72.0469 C527.6875,71.875 527.8594,71.5781 527.8594,71.2813 C527.8594,71 527.7188,70.75 527.4844,70.5781 C527.2969,70.4531 527.1406,70.4063 526.6719,70.4063 L521.5313,70.4063 C521.0938,70.4063 520.9531,70.4219 520.7813,70.5313 C520.5156,70.7031 520.3438,70.9844 520.3438,71.2813 C520.3438,71.5625 520.4844,71.8438 520.7188,72 C520.9063,72.125 521.0938,72.1563 521.5313,72.1563 L523.1875,72.1563 L523.1875,78.25 L521.5313,78.25 C521.0938,78.25 520.9531,78.2656 520.7813,78.375 C520.5156,78.5313 520.3438,78.8281 520.3438,79.1094 C520.3438,79.7188 520.75,80 521.5313,80 L526.6719,80 C527.4531,80 527.8594,79.7188 527.8594,79.1094 C527.8594,78.8438 527.7188,78.5938 527.4844,78.4219 C527.2969,78.2813 527.125,78.25 526.6719,78.25 L525.0156,78.25 L525.0156,72.1563 Z "/><text fill="#000000" font-family="sans-serif" font-size="14" font-style="italic" font-weight="bold" lengthAdjust="spacingAndGlyphs" textLength="96" x="538" y="80.95">Authenticable</text></a><!--class it.matlice.ingsw.model.auth.AuthMethod--><a target="_parent" xlink:actuate="onRequest" xlink:href="../../../../../it/matlice/ingsw/model/auth/AuthMethod.html" xlink:show="new" xlink:title="it.matlice.ingsw.model.auth.AuthMethod" xlink:type="simple"><rect fill="#FEFECE" filter="url(#fo10ofd)" height="32" style="stroke: #A80036; stroke-width: 1.5;" width="117" x="514.5" y="151"/><ellipse cx="529.5" cy="167" fill="#B4A7E5" rx="11" ry="11" style="stroke: #A80036; stroke-width: 1.0;"/><path d="M530.5156,164.1563 L532.1719,164.1563 C532.5625,164.1563 532.7656,164.125 532.9219,164.0469 C533.1875,163.875 533.3594,163.5781 533.3594,163.2813 C533.3594,163 533.2188,162.75 532.9844,162.5781 C532.7969,162.4531 532.6406,162.4063 532.1719,162.4063 L527.0313,162.4063 C526.5938,162.4063 526.4531,162.4219 526.2813,162.5313 C526.0156,162.7031 525.8438,162.9844 525.8438,163.2813 C525.8438,163.5625 525.9844,163.8438 526.2188,164 C526.4063,164.125 526.5938,164.1563 527.0313,164.1563 L528.6875,164.1563 L528.6875,170.25 L527.0313,170.25 C526.5938,170.25 526.4531,170.2656 526.2813,170.375 C526.0156,170.5313 525.8438,170.8281 525.8438,171.1094 C525.8438,171.7188 526.25,172 527.0313,172 L532.1719,172 C532.9531,172 533.3594,171.7188 533.3594,171.1094 C533.3594,170.8438 533.2188,170.5938 532.9844,170.4219 C532.7969,170.2813 532.625,170.25 532.1719,170.25 L530.5156,170.25 L530.5156,164.1563 Z "/><text fill="#000000" font-family="sans-serif" font-size="14" font-style="italic" font-weight="bold" lengthAdjust="spacingAndGlyphs" textLength="85" x="543.5" y="172.95">AuthMethod</text></a><!--class it.matlice.ingsw.model.auth.AuthData--><a target="_parent" xlink:actuate="onRequest" xlink:href="../../../../../it/matlice/ingsw/model/auth/AuthData.html" xlink:show="new" xlink:title="it.matlice.ingsw.model.auth.AuthData" xlink:type="simple"><rect fill="#FEFECE" filter="url(#fo10ofd)" height="32" style="stroke: #A80036; stroke-width: 1.5;" width="96" x="525" y="243"/><ellipse cx="540" cy="259" fill="#B4A7E5" rx="11" ry="11" style="stroke: #A80036; stroke-width: 1.0;"/><path d="M541.0156,256.1563 L542.6719,256.1563 C543.0625,256.1563 543.2656,256.125 543.4219,256.0469 C543.6875,255.875 543.8594,255.5781 543.8594,255.2813 C543.8594,255 543.7188,254.75 543.4844,254.5781 C543.2969,254.4531 543.1406,254.4063 542.6719,254.4063 L537.5313,254.4063 C537.0938,254.4063 536.9531,254.4219 536.7813,254.5313 C536.5156,254.7031 536.3438,254.9844 536.3438,255.2813 C536.3438,255.5625 536.4844,255.8438 536.7188,256 C536.9063,256.125 537.0938,256.1563 537.5313,256.1563 L539.1875,256.1563 L539.1875,262.25 L537.5313,262.25 C537.0938,262.25 536.9531,262.2656 536.7813,262.375 C536.5156,262.5313 536.3438,262.8281 536.3438,263.1094 C536.3438,263.7188 536.75,264 537.5313,264 L542.6719,264 C543.4531,264 543.8594,263.7188 543.8594,263.1094 C543.8594,262.8438 543.7188,262.5938 543.4844,262.4219 C543.2969,262.2813 543.125,262.25 542.6719,262.25 L541.0156,262.25 L541.0156,256.1563 Z "/><text fill="#000000" font-family="sans-serif" font-size="14" font-style="italic" font-weight="bold" lengthAdjust="spacingAndGlyphs" textLength="64" x="554" y="264.95">AuthData</text></a><!--class it.matlice.ingsw.model.auth.exceptions.InvalidPasswordException--><a target="_parent" xlink:actuate="onRequest" xlink:href="../../../../../it/matlice/ingsw/model/auth/exceptions/InvalidPasswordException.html" xlink:show="new" xlink:title="it.matlice.ingsw.model.auth.exceptions.InvalidPasswordException" xlink:type="simple"><rect fill="#FEFECE" filter="url(#fo10ofd)" height="32" style="stroke: #A80036; stroke-width: 1.5;" width="214" x="734" y="59"/><ellipse cx="749" cy="75" fill="#ADD1B2" rx="11" ry="11" style="stroke: #A80036; stroke-width: 1.0;"/><path d="M744,76.1563 C744,78.6563 746.1406,80.4688 749.0625,80.4688 C750.2969,80.4688 751.4688,80.1719 752.2188,79.6563 C752.8281,79.2344 753.1563,78.8125 753.1563,78.4063 C753.1563,77.9375 752.7344,77.5313 752.2344,77.5313 C752,77.5313 751.7813,77.6094 751.5781,77.8125 C751.1406,78.25 751.1406,78.25 750.9688,78.3438 C750.5156,78.5781 749.875,78.7188 749.1094,78.7188 C747.1094,78.7188 745.8281,77.7031 745.8281,76.125 L745.8281,75.0781 C745.8281,73.375 747.0469,72.1719 748.75,72.1719 C749.3281,72.1719 749.9063,72.3125 750.375,72.5625 C750.8438,72.8281 751.0156,73.0156 751.0781,73.375 C751.2031,74.0469 751.4531,74.2969 751.9844,74.2969 C752.2656,74.2969 752.5469,74.1563 752.7344,73.9375 C752.8594,73.7656 752.9063,73.5938 752.9063,73.1563 L752.9063,71.7969 C752.9063,71.375 752.8906,71.2344 752.7656,71.0625 C752.5938,70.8125 752.3125,70.6563 751.9844,70.6563 C751.6719,70.6563 751.4688,70.7656 751.25,71.0313 C750.0781,70.5313 749.6406,70.4219 748.6875,70.4219 C746.0156,70.4219 744,72.4375 744,75.0625 L744,76.1563 Z "/><text fill="#000000" font-family="sans-serif" font-size="14" font-weight="bold" lengthAdjust="spacingAndGlyphs" textLength="182" x="763" y="79.606">InvalidPasswordException</text></a><!--class it.matlice.ingsw.model.auth.password.PasswordAuthData--><a target="_parent" xlink:actuate="onRequest" xlink:href="../../../../../it/matlice/ingsw/model/auth/password/PasswordAuthData.html" xlink:show="new" xlink:title="it.matlice.ingsw.model.auth.password.PasswordAuthData" xlink:type="simple"><rect fill="#FEFECE" filter="url(#fo10ofd)" height="32" style="stroke: #A80036; stroke-width: 1.5;" width="163" x="38.5" y="59"/><ellipse cx="53.5" cy="75" fill="#ADD1B2" rx="11" ry="11" style="stroke: #A80036; stroke-width: 1.0;"/><path d="M48.5,76.1563 C48.5,78.6563 50.6406,80.4688 53.5625,80.4688 C54.7969,80.4688 55.9688,80.1719 56.7188,79.6563 C57.3281,79.2344 57.6563,78.8125 57.6563,78.4063 C57.6563,77.9375 57.2344,77.5313 56.7344,77.5313 C56.5,77.5313 56.2813,77.6094 56.0781,77.8125 C55.6406,78.25 55.6406,78.25 55.4688,78.3438 C55.0156,78.5781 54.375,78.7188 53.6094,78.7188 C51.6094,78.7188 50.3281,77.7031 50.3281,76.125 L50.3281,75.0781 C50.3281,73.375 51.5469,72.1719 53.25,72.1719 C53.8281,72.1719 54.4063,72.3125 54.875,72.5625 C55.3438,72.8281 55.5156,73.0156 55.5781,73.375 C55.7031,74.0469 55.9531,74.2969 56.4844,74.2969 C56.7656,74.2969 57.0469,74.1563 57.2344,73.9375 C57.3594,73.7656 57.4063,73.5938 57.4063,73.1563 L57.4063,71.7969 C57.4063,71.375 57.3906,71.2344 57.2656,71.0625 C57.0938,70.8125 56.8125,70.6563 56.4844,70.6563 C56.1719,70.6563 55.9688,70.7656 55.75,71.0313 C54.5781,70.5313 54.1406,70.4219 53.1875,70.4219 C50.5156,70.4219 48.5,72.4375 48.5,75.0625 L48.5,76.1563 Z "/><text fill="#000000" font-family="sans-serif" font-size="14" font-weight="bold" lengthAdjust="spacingAndGlyphs" textLength="131" x="67.5" y="79.606">PasswordAuthData</text></a><!--class it.matlice.ingsw.model.auth.password.PasswordAuthenticable--><a target="_parent" xlink:actuate="onRequest" xlink:href="../../../../../it/matlice/ingsw/model/auth/password/PasswordAuthenticable.html" xlink:show="new" xlink:title="it.matlice.ingsw.model.auth.password.PasswordAuthenticable" xlink:type="simple"><rect fill="#FEFECE" filter="url(#fo10ofd)" height="32" style="stroke: #A80036; stroke-width: 1.5;" width="195" x="236.5" y="59"/><ellipse cx="251.5" cy="75" fill="#B4A7E5" rx="11" ry="11" style="stroke: #A80036; stroke-width: 1.0;"/><path d="M252.5156,72.1563 L254.1719,72.1563 C254.5625,72.1563 254.7656,72.125 254.9219,72.0469 C255.1875,71.875 255.3594,71.5781 255.3594,71.2813 C255.3594,71 255.2188,70.75 254.9844,70.5781 C254.7969,70.4531 254.6406,70.4063 254.1719,70.4063 L249.0313,70.4063 C248.5938,70.4063 248.4531,70.4219 248.2813,70.5313 C248.0156,70.7031 247.8438,70.9844 247.8438,71.2813 C247.8438,71.5625 247.9844,71.8438 248.2188,72 C248.4063,72.125 248.5938,72.1563 249.0313,72.1563 L250.6875,72.1563 L250.6875,78.25 L249.0313,78.25 C248.5938,78.25 248.4531,78.2656 248.2813,78.375 C248.0156,78.5313 247.8438,78.8281 247.8438,79.1094 C247.8438,79.7188 248.25,80 249.0313,80 L254.1719,80 C254.9531,80 255.3594,79.7188 255.3594,79.1094 C255.3594,78.8438 255.2188,78.5938 254.9844,78.4219 C254.7969,78.2813 254.625,78.25 254.1719,78.25 L252.5156,78.25 L252.5156,72.1563 Z "/><text fill="#000000" font-family="sans-serif" font-size="14" font-style="italic" font-weight="bold" lengthAdjust="spacingAndGlyphs" textLength="163" x="265.5" y="80.95">PasswordAuthenticable</text></a><!--class it.matlice.ingsw.model.auth.password.PasswordAuthMethod--><a target="_parent" xlink:actuate="onRequest" xlink:href="../../../../../it/matlice/ingsw/model/auth/password/PasswordAuthMethod.html" xlink:show="new" xlink:title="it.matlice.ingsw.model.auth.password.PasswordAuthMethod" xlink:type="simple"><rect fill="#FEFECE" filter="url(#fo10ofd)" height="32" style="stroke: #A80036; stroke-width: 1.5;" width="184" x="38" y="151"/><ellipse cx="53" cy="167" fill="#ADD1B2" rx="11" ry="11" style="stroke: #A80036; stroke-width: 1.0;"/><path d="M48,168.1563 C48,170.6563 50.1406,172.4688 53.0625,172.4688 C54.2969,172.4688 55.4688,172.1719 56.2188,171.6563 C56.8281,171.2344 57.1563,170.8125 57.1563,170.4063 C57.1563,169.9375 56.7344,169.5313 56.2344,169.5313 C56,169.5313 55.7813,169.6094 55.5781,169.8125 C55.1406,170.25 55.1406,170.25 54.9688,170.3438 C54.5156,170.5781 53.875,170.7188 53.1094,170.7188 C51.1094,170.7188 49.8281,169.7031 49.8281,168.125 L49.8281,167.0781 C49.8281,165.375 51.0469,164.1719 52.75,164.1719 C53.3281,164.1719 53.9063,164.3125 54.375,164.5625 C54.8438,164.8281 55.0156,165.0156 55.0781,165.375 C55.2031,166.0469 55.4531,166.2969 55.9844,166.2969 C56.2656,166.2969 56.5469,166.1563 56.7344,165.9375 C56.8594,165.7656 56.9063,165.5938 56.9063,165.1563 L56.9063,163.7969 C56.9063,163.375 56.8906,163.2344 56.7656,163.0625 C56.5938,162.8125 56.3125,162.6563 55.9844,162.6563 C55.6719,162.6563 55.4688,162.7656 55.25,163.0313 C54.0781,162.5313 53.6406,162.4219 52.6875,162.4219 C50.0156,162.4219 48,164.4375 48,167.0625 L48,168.1563 Z "/><text fill="#000000" font-family="sans-serif" font-size="14" font-weight="bold" lengthAdjust="spacingAndGlyphs" textLength="152" x="67" y="171.606">PasswordAuthMethod</text></a><path d="M553.5,91.03 C553.5,91.03 553.5,145.85 553.5,145.85 " fill="none" style="stroke: #A80036; stroke-width: 1.0; stroke-dasharray: 7.0,7.0;"/><polygon fill="#A80036" points="553.5,150.85,557.5,141.85,553.5,145.85,549.5,141.85,553.5,150.85" style="stroke: #A80036; stroke-width: 1.0;"/><path d="M592.5,150.97 C592.5,150.97 592.5,96.15 592.5,96.15 " fill="none" style="stroke: #A80036; stroke-width: 1.0; stroke-dasharray: 7.0,7.0;"/><polygon fill="#A80036" points="592.5,91.15,588.5,100.15,592.5,96.15,596.5,100.15,592.5,91.15" style="stroke: #A80036; stroke-width: 1.0;"/><path d="M573,183.03 C573,183.03 573,237.85 573,237.85 " fill="none" style="stroke: #A80036; stroke-width: 1.0; stroke-dasharray: 7.0,7.0;"/><polygon fill="#A80036" points="573,242.85,577,233.85,573,237.85,569,233.85,573,242.85" style="stroke: #A80036; stroke-width: 1.0;"/></g></svg>