<?xml version="1.0" encoding="UTF-8" standalone="no"?><svg xmlns="http://www.w3.org/2000/svg" xmlns:xlink="http://www.w3.org/1999/xlink" contentScriptType="application/ecmascript" contentStyleType="text/css" height="807px" preserveAspectRatio="none" style="width:1080px;height:807px;" version="1.1" viewBox="0 0 1080 807" width="1080px" zoomAndPan="magnify"><defs><filter height="300%" id="fbgrfje" width="300%" x="-1" y="-1"><feGaussianBlur result="blurOut" stdDeviation="2.0"/><feColorMatrix in="blurOut" result="blurOut2" type="matrix" values="0 0 0 0 0 0 0 0 0 0 0 0 0 0 0 0 0 0 .4 0"/><feOffset dx="4.0" dy="4.0" in="blurOut2" result="blurOut3"/><feBlend in="SourceGraphic" in2="blurOut3" mode="normal"/></filter></defs><g><!--class it.matlice.ingsw.controller.Controller--><a target="_parent" xlink:actuate="onRequest" xlink:href="../../../../it/matlice/ingsw/controller/Controller.html" xlink:show="new" xlink:title="it.matlice.ingsw.controller.Controller" xlink:type="simple"><rect fill="#FEFECE" filter="url(#fbgrfje)" height="688.3952" style="stroke: #A80036; stroke-width: 1.5;" width="492" x="349" y="8"/><ellipse cx="533.75" cy="27.4" fill="#ADD1B2" rx="11" ry="11" style="stroke: #A80036; stroke-width: 1.0;"/><path d="M528.75,28.5562 C528.75,31.0562 530.8906,32.8687 533.8125,32.8687 C535.0469,32.8687 536.2188,32.5718 536.9688,32.0562 C537.5781,31.6343 537.9063,31.2125 537.9063,30.8062 C537.9063,30.3375 537.4844,29.9312 536.9844,29.9312 C536.75,29.9312 536.5313,30.0093 536.3281,30.2125 C535.8906,30.65 535.8906,30.65 535.7188,30.7437 C535.2656,30.9781 534.625,31.1187 533.8594,31.1187 C531.8594,31.1187 530.5781,30.1031 530.5781,28.525 L530.5781,27.4781 C530.5781,25.775 531.7969,24.5718 533.5,24.5718 C534.0781,24.5718 534.6563,24.7125 535.125,24.9625 C535.5938,25.2281 535.7656,25.4156 535.8281,25.775 C535.9531,26.4468 536.2031,26.6968 536.7344,26.6968 C537.0156,26.6968 537.2969,26.5562 537.4844,26.3375 C537.6094,26.1656 537.6563,25.9937 537.6563,25.5562 L537.6563,24.1968 C537.6563,23.775 537.6406,23.6343 537.5156,23.4625 C537.3438,23.2125 537.0625,23.0562 536.7344,23.0562 C536.4219,23.0562 536.2188,23.1656 536,23.4312 C534.8281,22.9312 534.3906,22.8218 533.4375,22.8218 C530.7656,22.8218 528.75,24.8375 528.75,27.4625 L528.75,28.5562 Z "/><text fill="#000000" font-family="sans-serif" font-size="14" font-weight="bold" lengthAdjust="spacingAndGlyphs" textLength="68" x="577.25" y="26.0059">Controller</text><text fill="#000000" font-family="sans-serif" font-size="10" lengthAdjust="spacingAndGlyphs" textLength="114" x="554.25" y="39.0899">it.matlice.ingsw.controller</text><line style="stroke: #A80036; stroke-width: 1.5;" x1="350" x2="840" y1="46.7999" y2="46.7999"/><rect fill="none" height="6" style="stroke: #C82930; stroke-width: 1.0;" width="6" x="357" y="55.8999"/><text fill="#000000" font-family="sans-serif" font-size="11" lengthAdjust="spacingAndGlyphs" textLength="48" x="369" y="61.0188">View view</text><rect fill="none" height="6" style="stroke: #C82930; stroke-width: 1.0;" width="6" x="357" y="69.0998"/><text fill="#000000" font-family="sans-serif" font-size="11" lengthAdjust="spacingAndGlyphs" textLength="61" x="369" y="74.2187">Model model</text><rect fill="none" height="6" style="stroke: #C82930; stroke-width: 1.0;" width="6" x="357" y="82.2997"/><text fill="#000000" font-family="sans-serif" font-size="11" lengthAdjust="spacingAndGlyphs" textLength="130" x="369" y="87.4186">Authentication currentUser</text><rect fill="none" height="6" style="stroke: #C82930; stroke-width: 1.0;" width="6" x="357" y="95.4996"/><text fill="#000000" font-family="sans-serif" font-size="11" lengthAdjust="spacingAndGlyphs" textLength="152" x="369" y="100.6185">List&lt;MenuAction&gt; user_actions</text><rect fill="none" height="6" style="stroke: #C82930; stroke-width: 1.0;" width="6" x="357" y="108.6995"/><text fill="#000000" font-family="sans-serif" font-size="11" lengthAdjust="spacingAndGlyphs" textLength="158" x="369" y="113.8184">List&lt;MenuAction&gt; public_actions</text><line style="stroke: #A80036; stroke-width: 1.5;" x1="350" x2="840" y1="120.7994" y2="120.7994"/><ellipse cx="360" cy="132.8994" fill="#84BE84" rx="3" ry="3" style="stroke: #038048; stroke-width: 1.0;"/><text fill="#000000" font-family="sans-serif" font-size="11" lengthAdjust="spacingAndGlyphs" textLength="167" x="369" y="135.0183">Controller(View view,Model model)</text><ellipse cx="360" cy="146.0993" fill="#84BE84" rx="3" ry="3" style="stroke: #038048; stroke-width: 1.0;"/><text fill="#000000" font-family="sans-serif" font-size="11" lengthAdjust="spacingAndGlyphs" textLength="92" x="369" y="148.2182">boolean mainloop()</text><ellipse cx="360" cy="159.2992" fill="#84BE84" rx="3" ry="3" style="stroke: #038048; stroke-width: 1.0;"/><text fill="#000000" font-family="sans-serif" font-size="11" lengthAdjust="spacingAndGlyphs" textLength="110" x="369" y="161.4182">boolean registerUser()</text><ellipse cx="360" cy="172.4991" fill="#84BE84" rx="3" ry="3" style="stroke: #038048; stroke-width: 1.0;"/><text fill="#000000" font-family="sans-serif" font-size="11" lengthAdjust="spacingAndGlyphs" textLength="143" x="369" y="174.6181">void addDefaultConfigurator()</text><rect fill="#F24D5C" height="6" style="stroke: #C82930; stroke-width: 1.0;" width="6" x="357" y="182.699"/><text fill="#000000" font-family="sans-serif" font-size="11" lengthAdjust="spacingAndGlyphs" textLength="78" x="369" y="187.818">boolean logout()</text><rect fill="#F24D5C" height="6" style="stroke: #C82930; stroke-width: 1.0;" width="6" x="357" y="195.8989"/><text fill="#000000" font-family="sans-serif" font-size="11" lengthAdjust="spacingAndGlyphs" textLength="113" x="369" y="201.0179">boolean performLogin()</text><rect fill="#F24D5C" height="6" style="stroke: #C82930; stroke-width: 1.0;" width="6" x="357" y="209.0988"/><text fill="#000000" font-family="sans-serif" font-size="11" lengthAdjust="spacingAndGlyphs" textLength="90" x="369" y="214.2178">void finalizeLogin()</text><rect fill="#F24D5C" height="6" style="stroke: #C82930; stroke-width: 1.0;" width="6" x="357" y="222.2987"/><text fill="#000000" font-family="sans-serif" font-size="11" lengthAdjust="spacingAndGlyphs" textLength="134" x="369" y="227.4177">boolean changePassword()</text><rect fill="#F24D5C" height="6" style="stroke: #C82930; stroke-width: 1.0;" width="6" x="357" y="235.4986"/><text fill="#000000" font-family="sans-serif" font-size="11" lengthAdjust="spacingAndGlyphs" textLength="140" x="369" y="240.6176">boolean createConfigurator()</text><rect fill="#F24D5C" height="6" style="stroke: #C82930; stroke-width: 1.0;" width="6" x="357" y="248.6985"/><text fill="#000000" font-family="sans-serif" font-size="11" lengthAdjust="spacingAndGlyphs" textLength="100" x="369" y="253.8175">boolean offerTrade()</text><rect fill="#F24D5C" height="6" style="stroke: #C82930; stroke-width: 1.0;" width="6" x="357" y="261.8984"/><text fill="#000000" font-family="sans-serif" font-size="11" lengthAdjust="spacingAndGlyphs" textLength="111" x="369" y="267.0174">boolean acceptTrade()</text><rect fill="#F24D5C" height="6" style="stroke: #C82930; stroke-width: 1.0;" width="6" x="357" y="275.0983"/><text fill="#000000" font-family="sans-serif" font-size="11" lengthAdjust="spacingAndGlyphs" textLength="151" x="369" y="280.2173">String chooseExchangePlace()</text><rect fill="#F24D5C" height="6" style="stroke: #C82930; stroke-width: 1.0;" width="6" x="357" y="288.2982"/><text fill="#000000" font-family="sans-serif" font-size="11" lengthAdjust="spacingAndGlyphs" textLength="178" x="369" y="293.4172">Settings.Day chooseExchangeDay()</text><rect fill="#F24D5C" height="6" style="stroke: #C82930; stroke-width: 1.0;" width="6" x="357" y="301.4981"/><text fill="#000000" font-family="sans-serif" font-size="11" lengthAdjust="spacingAndGlyphs" textLength="183" x="369" y="306.6171">Interval.Time chooseExchangeTime()</text><rect fill="#F24D5C" height="6" style="stroke: #C82930; stroke-width: 1.0;" width="6" x="357" y="314.698"/><text fill="#000000" font-family="sans-serif" font-size="11" lengthAdjust="spacingAndGlyphs" textLength="130" x="369" y="319.817">boolean answerMessage()</text><rect fill="#F24D5C" height="6" style="stroke: #C82930; stroke-width: 1.0;" width="6" x="357" y="327.8979"/><text fill="#000000" font-family="sans-serif" font-size="11" lengthAdjust="spacingAndGlyphs" textLength="110" x="369" y="333.0169">boolean createArticle()</text><rect fill="#F24D5C" height="6" style="stroke: #C82930; stroke-width: 1.0;" width="6" x="357" y="341.0978"/><text fill="#000000" font-family="sans-serif" font-size="11" lengthAdjust="spacingAndGlyphs" textLength="106" x="369" y="346.2168">boolean retractOffer()</text><rect fill="#F24D5C" height="6" style="stroke: #C82930; stroke-width: 1.0;" width="6" x="357" y="354.2977"/><text fill="#000000" font-family="sans-serif" font-size="11" lengthAdjust="spacingAndGlyphs" textLength="143" x="369" y="359.4167">boolean showOffersByUser()</text><rect fill="#F24D5C" height="6" style="stroke: #C82930; stroke-width: 1.0;" width="6" x="357" y="367.4976"/><text fill="#000000" font-family="sans-serif" font-size="11" lengthAdjust="spacingAndGlyphs" textLength="191" x="369" y="372.6166">boolean showOpenOffersByCategory()</text><rect fill="#F24D5C" height="6" style="stroke: #C82930; stroke-width: 1.0;" width="6" x="357" y="380.6975"/><text fill="#000000" font-family="sans-serif" font-size="11" lengthAdjust="spacingAndGlyphs" textLength="128" x="369" y="385.8165">boolean createHierarchy()</text><rect fill="#F24D5C" height="6" style="stroke: #C82930; stroke-width: 1.0;" width="6" x="357" y="393.8974"/><text fill="#000000" font-family="sans-serif" font-size="11" lengthAdjust="spacingAndGlyphs" textLength="131" x="369" y="399.0164">boolean showHierarchies()</text><rect fill="#F24D5C" height="6" style="stroke: #C82930; stroke-width: 1.0;" width="6" x="357" y="407.0973"/><text fill="#000000" font-family="sans-serif" font-size="11" lengthAdjust="spacingAndGlyphs" textLength="155" x="369" y="412.2163">boolean showConfParameters()</text><rect fill="#F24D5C" height="6" style="stroke: #C82930; stroke-width: 1.0;" width="6" x="357" y="420.2972"/><text fill="#000000" font-family="sans-serif" font-size="11" lengthAdjust="spacingAndGlyphs" textLength="146" x="369" y="425.4162">boolean editConfParameters()</text><rect fill="#F24D5C" height="6" style="stroke: #C82930; stroke-width: 1.0;" width="6" x="357" y="433.4971"/><text fill="#000000" font-family="sans-serif" font-size="11" lengthAdjust="spacingAndGlyphs" textLength="266" x="369" y="438.6161">boolean importConfiguration(boolean firstConfiguration)</text><rect fill="#F24D5C" height="6" style="stroke: #C82930; stroke-width: 1.0;" width="6" x="357" y="446.697"/><text fill="#000000" font-family="sans-serif" font-size="11" lengthAdjust="spacingAndGlyphs" textLength="355" x="369" y="451.816">void createHierarchyFromXML(XMLImport.HierarchyXML hierarchyXML)</text><rect fill="#F24D5C" height="6" style="stroke: #C82930; stroke-width: 1.0;" width="6" x="357" y="459.8969"/><text fill="#000000" font-family="sans-serif" font-size="11" lengthAdjust="spacingAndGlyphs" textLength="441" x="369" y="465.0159">Category createCategoryFromXML(Category root,XMLImport.CategoryXML categoryXML)</text><rect fill="#F24D5C" height="6" style="stroke: #C82930; stroke-width: 1.0;" width="6" x="357" y="473.0968"/><text fill="#000000" font-family="sans-serif" font-size="11" lengthAdjust="spacingAndGlyphs" textLength="322" x="369" y="478.2158">void addFieldFromXML(Category c,XMLImport.FieldXML fieldXML)</text><rect fill="#F24D5C" height="6" style="stroke: #C82930; stroke-width: 1.0;" width="6" x="357" y="486.2967"/><text fill="#000000" font-family="sans-serif" font-size="11" lengthAdjust="spacingAndGlyphs" textLength="310" x="369" y="491.4157">Object chooseAndRun(List&lt;MenuAction&gt; actions,String prompt)</text><rect fill="#F24D5C" height="6" style="stroke: #C82930; stroke-width: 1.0;" width="6" x="357" y="499.4966"/><text fill="#000000" font-family="sans-serif" font-size="11" lengthAdjust="spacingAndGlyphs" textLength="71" x="369" y="504.6156">boolean login()</text><rect fill="#F24D5C" height="6" style="stroke: #C82930; stroke-width: 1.0;" width="6" x="357" y="512.6965"/><text fill="#000000" font-family="sans-serif" font-size="11" lengthAdjust="spacingAndGlyphs" textLength="125" x="369" y="517.8155">String getNewPassword()</text><rect fill="#F24D5C" height="6" style="stroke: #C82930; stroke-width: 1.0;" width="6" x="357" y="525.8964"/><text fill="#000000" font-family="sans-serif" font-size="11" lengthAdjust="spacingAndGlyphs" textLength="187" x="369" y="531.0154">AuthData getLoginData(String method)</text><rect fill="#F24D5C" height="6" style="stroke: #C82930; stroke-width: 1.0;" width="6" x="357" y="539.0963"/><text fill="#000000" font-family="sans-serif" font-size="11" lengthAdjust="spacingAndGlyphs" textLength="141" x="369" y="544.2153">void makeFields(Category c)</text><rect fill="#F24D5C" height="6" style="stroke: #C82930; stroke-width: 1.0;" width="6" x="357" y="552.2962"/><text fill="#000000" font-family="sans-serif" font-size="11" lengthAdjust="spacingAndGlyphs" textLength="144" x="369" y="557.4152">boolean addField(Category c)</text><rect fill="#F24D5C" height="6" style="stroke: #C82930; stroke-width: 1.0;" width="6" x="357" y="565.4961"/><text fill="#000000" font-family="sans-serif" font-size="11" lengthAdjust="spacingAndGlyphs" textLength="199" x="369" y="570.6151">Category createCategory(Category root)</text><rect fill="#F24D5C" height="6" style="stroke: #C82930; stroke-width: 1.0;" width="6" x="357" y="578.696"/><text fill="#000000" font-family="sans-serif" font-size="11" lengthAdjust="spacingAndGlyphs" textLength="312" x="369" y="583.815">NodeCategory appendCategory(Category father,Category child)</text><rect fill="#F24D5C" height="6" style="stroke: #C82930; stroke-width: 1.0;" width="6" x="357" y="591.8959"/><text fill="#000000" font-family="sans-serif" font-size="11" lengthAdjust="spacingAndGlyphs" textLength="295" x="369" y="597.0149">List&lt;MenuAction&gt; getCategorySelectionMenu(Category root)</text><rect fill="#F24D5C" height="6" style="stroke: #C82930; stroke-width: 1.0;" width="6" x="357" y="605.0958"/><text fill="#000000" font-family="sans-serif" font-size="11" lengthAdjust="spacingAndGlyphs" textLength="466" x="369" y="610.2148">List&lt;MenuAction&gt; getCategorySelectionMenu(Category root,List&lt;MenuAction&gt; acc,String prefix)</text><rect fill="#F24D5C" height="6" style="stroke: #C82930; stroke-width: 1.0;" width="6" x="357" y="618.2957"/><text fill="#000000" font-family="sans-serif" font-size="11" lengthAdjust="spacingAndGlyphs" textLength="238" x="369" y="623.4147">void configureSettings(boolean firstConfiguration)</text><rect fill="#F24D5C" height="6" style="stroke: #C82930; stroke-width: 1.0;" width="6" x="357" y="631.4956"/><text fill="#000000" font-family="sans-serif" font-size="11" lengthAdjust="spacingAndGlyphs" textLength="255" x="369" y="636.6146">LeafCategory chooseLeafCategory(String message)</text><rect fill="#F24D5C" height="6" style="stroke: #C82930; stroke-width: 1.0;" width="6" x="357" y="644.6955"/><text fill="#000000" font-family="sans-serif" font-size="11" lengthAdjust="spacingAndGlyphs" textLength="154" x="369" y="649.8145">void addArticle(LeafCategory e)</text><rect fill="#F24D5C" height="6" style="stroke: #C82930; stroke-width: 1.0;" width="6" x="357" y="657.8954"/><text fill="#000000" font-family="sans-serif" font-size="11" lengthAdjust="spacingAndGlyphs" textLength="282" x="369" y="663.0144">Object getFieldValue(Map.Entry&lt;String, TypeDefinition&gt; k)</text><rect fill="#F24D5C" height="6" style="stroke: #C82930; stroke-width: 1.0;" width="6" x="357" y="671.0953"/><text fill="#000000" font-family="sans-serif" font-size="11" lengthAdjust="spacingAndGlyphs" textLength="241" x="369" y="676.2143">void showOffers(String prompt,List&lt;Offer&gt; offers)</text><rect fill="#F24D5C" height="6" style="stroke: #C82930; stroke-width: 1.0;" width="6" x="357" y="684.2952"/><text fill="#000000" font-family="sans-serif" font-size="11" lengthAdjust="spacingAndGlyphs" textLength="292" x="369" y="689.4142">Object selectItem(String prompt,String cancel,List&lt;V&gt; items)</text></a><!--class it.matlice.ingsw.view.View--><a target="_parent" xlink:actuate="onRequest" xlink:href="../../../../it/matlice/ingsw/view/View.html" xlink:show="new" xlink:title="it.matlice.ingsw.view.View" xlink:type="simple"><rect fill="#FFFFFF" filter="url(#fbgrfje)" height="42.3999" style="stroke: #A80036; stroke-width: 1.5;" width="124" x="6" y="756"/><rect fill="#FFFFFF" height="42.3999" style="stroke: #A80036; stroke-width: 1.5;" width="124" x="6" y="756"/><ellipse cx="21" cy="777.2" fill="#B4A7E5" rx="11" ry="11" style="stroke: #A80036; stroke-width: 1.0;"/><path d="M22.0156,774.3562 L23.6719,774.3562 C24.0625,774.3562 24.2656,774.325 24.4219,774.2468 C24.6875,774.075 24.8594,773.7781 24.8594,773.4812 C24.8594,773.2 24.7188,772.95 24.4844,772.7781 C24.2969,772.6531 24.1406,772.6062 23.6719,772.6062 L18.5313,772.6062 C18.0938,772.6062 17.9531,772.6218 17.7813,772.7312 C17.5156,772.9031 17.3438,773.1843 17.3438,773.4812 C17.3438,773.7625 17.4844,774.0437 17.7188,774.2 C17.9063,774.325 18.0938,774.3562 18.5313,774.3562 L20.1875,774.3562 L20.1875,780.45 L18.5313,780.45 C18.0938,780.45 17.9531,780.4656 17.7813,780.575 C17.5156,780.7312 17.3438,781.0281 17.3438,781.3093 C17.3438,781.9187 17.75,782.2 18.5313,782.2 L23.6719,782.2 C24.4531,782.2 24.8594,781.9187 24.8594,781.3093 C24.8594,781.0437 24.7188,780.7937 24.4844,780.6218 C24.2969,780.4812 24.125,780.45 23.6719,780.45 L22.0156,780.45 L22.0156,774.3562 Z "/><text fill="#000000" font-family="sans-serif" font-size="14" font-style="italic" font-weight="bold" lengthAdjust="spacingAndGlyphs" textLength="32" x="65" y="776.3999">View</text><text fill="#000000" font-family="sans-serif" font-size="10" font-style="italic" lengthAdjust="spacingAndGlyphs" textLength="92" x="35" y="790.8999">it.matlice.ingsw.view</text></a><!--class it.matlice.ingsw.model.Model--><a target="_parent" xlink:actuate="onRequest" xlink:href="../../../../it/matlice/ingsw/model/Model.html" xlink:show="new" xlink:title="it.matlice.ingsw.model.Model" xlink:type="simple"><rect fill="#FFFFFF" filter="url(#fbgrfje)" height="38.7999" style="stroke: #A80036; stroke-width: 1.5;" width="132" x="165" y="757.5"/><rect fill="#FFFFFF" height="38.7999" style="stroke: #A80036; stroke-width: 1.5;" width="132" x="165" y="757.5"/><ellipse cx="180" cy="776.9" fill="#ADD1B2" rx="11" ry="11" style="stroke: #A80036; stroke-width: 1.0;"/><path d="M175,778.0562 C175,780.5562 177.1406,782.3687 180.0625,782.3687 C181.2969,782.3687 182.4688,782.0718 183.2188,781.5562 C183.8281,781.1343 184.1563,780.7125 184.1563,780.3062 C184.1563,779.8375 183.7344,779.4312 183.2344,779.4312 C183,779.4312 182.7813,779.5093 182.5781,779.7125 C182.1406,780.15 182.1406,780.15 181.9688,780.2437 C181.5156,780.4781 180.875,780.6187 180.1094,780.6187 C178.1094,780.6187 176.8281,779.6031 176.8281,778.025 L176.8281,776.9781 C176.8281,775.275 178.0469,774.0718 179.75,774.0718 C180.3281,774.0718 180.9063,774.2125 181.375,774.4625 C181.8438,774.7281 182.0156,774.9156 182.0781,775.275 C182.2031,775.9468 182.4531,776.1968 182.9844,776.1968 C183.2656,776.1968 183.5469,776.0562 183.7344,775.8375 C183.8594,775.6656 183.9063,775.4937 183.9063,775.0562 L183.9063,773.6968 C183.9063,773.275 183.8906,773.1343 183.7656,772.9625 C183.5938,772.7125 183.3125,772.5562 182.9844,772.5562 C182.6719,772.5562 182.4688,772.6656 182.25,772.9312 C181.0781,772.4312 180.6406,772.3218 179.6875,772.3218 C177.0156,772.3218 175,774.3375 175,776.9625 L175,778.0562 Z "/><text fill="#000000" font-family="sans-serif" font-size="14" font-weight="bold" lengthAdjust="spacingAndGlyphs" textLength="42" x="223" y="775.5059">Model</text><text fill="#000000" font-family="sans-serif" font-size="10" lengthAdjust="spacingAndGlyphs" textLength="100" x="194" y="788.5899">it.matlice.ingsw.model</text></a><!--class it.matlice.ingsw.model.Authentication--><a target="_parent" xlink:actuate="onRequest" xlink:href="../../../../it/matlice/ingsw/model/Authentication.html" xlink:show="new" xlink:title="it.matlice.ingsw.model.Authentication" xlink:type="simple"><rect fill="#FFFFFF" filter="url(#fbgrfje)" height="42.3999" style="stroke: #A80036; stroke-width: 1.5;" width="134" x="332" y="756"/><rect fill="#FFFFFF" height="42.3999" style="stroke: #A80036; stroke-width: 1.5;" width="134" x="332" y="756"/><ellipse cx="347" cy="777.2" fill="#B4A7E5" rx="11" ry="11" style="stroke: #A80036; stroke-width: 1.0;"/><path d="M348.0156,774.3562 L349.6719,774.3562 C350.0625,774.3562 350.2656,774.325 350.4219,774.2468 C350.6875,774.075 350.8594,773.7781 350.8594,773.4812 C350.8594,773.2 350.7188,772.95 350.4844,772.7781 C350.2969,772.6531 350.1406,772.6062 349.6719,772.6062 L344.5313,772.6062 C344.0938,772.6062 343.9531,772.6218 343.7813,772.7312 C343.5156,772.9031 343.3438,773.1843 343.3438,773.4812 C343.3438,773.7625 343.4844,774.0437 343.7188,774.2 C343.9063,774.325 344.0938,774.3562 344.5313,774.3562 L346.1875,774.3562 L346.1875,780.45 L344.5313,780.45 C344.0938,780.45 343.9531,780.4656 343.7813,780.575 C343.5156,780.7312 343.3438,781.0281 343.3438,781.3093 C343.3438,781.9187 343.75,782.2 344.5313,782.2 L349.6719,782.2 C350.4531,782.2 350.8594,781.9187 350.8594,781.3093 C350.8594,781.0437 350.7188,780.7937 350.4844,780.6218 C350.2969,780.4812 350.125,780.45 349.6719,780.45 L348.0156,780.45 L348.0156,774.3562 Z "/><text fill="#000000" font-family="sans-serif" font-size="14" font-style="italic" font-weight="bold" lengthAdjust="spacingAndGlyphs" textLength="102" x="361" y="776.3999">Authentication</text><text fill="#000000" font-family="sans-serif" font-size="10" font-style="italic" lengthAdjust="spacingAndGlyphs" textLength="100" x="362" y="790.8999">it.matlice.ingsw.model</text></a><!--class it.matlice.ingsw.controller.MenuActionBoolean--><a target="_parent" xlink:actuate="onRequest" xlink:href="../../../../it/matlice/ingsw/controller/MenuAction.html" xlink:show="new" xlink:title="it.matlice.ingsw.controller.MenuAction" xlink:type="simple"><rect fill="#FEFECE" filter="url(#fbgrfje)" height="38.7999" style="stroke: #A80036; stroke-width: 1.5;" width="188" x="501" y="757.5"/><ellipse cx="516" cy="776.9" fill="#ADD1B2" rx="11" ry="11" style="stroke: #A80036; stroke-width: 1.0;"/><path d="M511,778.0562 C511,780.5562 513.1406,782.3687 516.0625,782.3687 C517.2969,782.3687 518.4688,782.0718 519.2188,781.5562 C519.8281,781.1343 520.1563,780.7125 520.1563,780.3062 C520.1563,779.8375 519.7344,779.4312 519.2344,779.4312 C519,779.4312 518.7813,779.5093 518.5781,779.7125 C518.1406,780.15 518.1406,780.15 517.9688,780.2437 C517.5156,780.4781 516.875,780.6187 516.1094,780.6187 C514.1094,780.6187 512.8281,779.6031 512.8281,778.025 L512.8281,776.9781 C512.8281,775.275 514.0469,774.0718 515.75,774.0718 C516.3281,774.0718 516.9063,774.2125 517.375,774.4625 C517.8438,774.7281 518.0156,774.9156 518.0781,775.275 C518.2031,775.9468 518.4531,776.1968 518.9844,776.1968 C519.2656,776.1968 519.5469,776.0562 519.7344,775.8375 C519.8594,775.6656 519.9063,775.4937 519.9063,775.0562 L519.9063,773.6968 C519.9063,773.275 519.8906,773.1343 519.7656,772.9625 C519.5938,772.7125 519.3125,772.5562 518.9844,772.5562 C518.6719,772.5562 518.4688,772.6656 518.25,772.9312 C517.0781,772.4312 516.6406,772.3218 515.6875,772.3218 C513.0156,772.3218 511,774.3375 511,776.9625 L511,778.0562 Z "/><text fill="#000000" font-family="sans-serif" font-size="14" font-weight="bold" lengthAdjust="spacingAndGlyphs" textLength="156" x="530" y="775.5059">MenuAction&lt;Boolean&gt;</text><text fill="#000000" font-family="sans-serif" font-size="10" lengthAdjust="spacingAndGlyphs" textLength="114" x="551" y="788.5899">it.matlice.ingsw.controller</text></a><!--class it.matlice.ingsw.model.data.TypeDefinition--><a target="_parent" xlink:actuate="onRequest" xlink:href="../../../../it/matlice/ingsw/model/data/TypeDefinition.html" xlink:show="new" xlink:title="it.matlice.ingsw.model.data.TypeDefinition" xlink:type="simple"><rect fill="#FFFFFF" filter="url(#fbgrfje)" height="38.7999" style="stroke: #A80036; stroke-width: 1.5;" width="156" x="724" y="757.5"/><rect fill="#FFFFFF" height="38.7999" style="stroke: #A80036; stroke-width: 1.5;" width="156" x="724" y="757.5"/><ellipse cx="739" cy="776.9" fill="#ADD1B2" rx="11" ry="11" style="stroke: #A80036; stroke-width: 1.0;"/><path d="M734,778.0562 C734,780.5562 736.1406,782.3687 739.0625,782.3687 C740.2969,782.3687 741.4688,782.0718 742.2188,781.5562 C742.8281,781.1343 743.1563,780.7125 743.1563,780.3062 C743.1563,779.8375 742.7344,779.4312 742.2344,779.4312 C742,779.4312 741.7813,779.5093 741.5781,779.7125 C741.1406,780.15 741.1406,780.15 740.9688,780.2437 C740.5156,780.4781 739.875,780.6187 739.1094,780.6187 C737.1094,780.6187 735.8281,779.6031 735.8281,778.025 L735.8281,776.9781 C735.8281,775.275 737.0469,774.0718 738.75,774.0718 C739.3281,774.0718 739.9063,774.2125 740.375,774.4625 C740.8438,774.7281 741.0156,774.9156 741.0781,775.275 C741.2031,775.9468 741.4531,776.1968 741.9844,776.1968 C742.2656,776.1968 742.5469,776.0562 742.7344,775.8375 C742.8594,775.6656 742.9063,775.4937 742.9063,775.0562 L742.9063,773.6968 C742.9063,773.275 742.8906,773.1343 742.7656,772.9625 C742.5938,772.7125 742.3125,772.5562 741.9844,772.5562 C741.6719,772.5562 741.4688,772.6656 741.25,772.9312 C740.0781,772.4312 739.6406,772.3218 738.6875,772.3218 C736.0156,772.3218 734,774.3375 734,776.9625 L734,778.0562 Z "/><text fill="#000000" font-family="sans-serif" font-size="14" font-weight="bold" lengthAdjust="spacingAndGlyphs" textLength="101" x="764.5" y="775.5059">TypeDefinition</text><text fill="#000000" font-family="sans-serif" font-size="10" lengthAdjust="spacingAndGlyphs" textLength="124" x="753" y="788.5899">it.matlice.ingsw.model.data</text></a><!--class it.matlice.ingsw.model.data.Offer--><a target="_parent" xlink:actuate="onRequest" xlink:href="../../../../it/matlice/ingsw/model/data/Offer.html" xlink:show="new" xlink:title="it.matlice.ingsw.model.data.Offer" xlink:type="simple"><rect fill="#FFFFFF" filter="url(#fbgrfje)" height="38.7999" style="stroke: #A80036; stroke-width: 1.5;" width="156" x="915" y="757.5"/><rect fill="#FFFFFF" height="38.7999" style="stroke: #A80036; stroke-width: 1.5;" width="156" x="915" y="757.5"/><ellipse cx="930" cy="776.9" fill="#ADD1B2" rx="11" ry="11" style="stroke: #A80036; stroke-width: 1.0;"/><path d="M925,778.0562 C925,780.5562 927.1406,782.3687 930.0625,782.3687 C931.2969,782.3687 932.4688,782.0718 933.2188,781.5562 C933.8281,781.1343 934.1563,780.7125 934.1563,780.3062 C934.1563,779.8375 933.7344,779.4312 933.2344,779.4312 C933,779.4312 932.7813,779.5093 932.5781,779.7125 C932.1406,780.15 932.1406,780.15 931.9688,780.2437 C931.5156,780.4781 930.875,780.6187 930.1094,780.6187 C928.1094,780.6187 926.8281,779.6031 926.8281,778.025 L926.8281,776.9781 C926.8281,775.275 928.0469,774.0718 929.75,774.0718 C930.3281,774.0718 930.9063,774.2125 931.375,774.4625 C931.8438,774.7281 932.0156,774.9156 932.0781,775.275 C932.2031,775.9468 932.4531,776.1968 932.9844,776.1968 C933.2656,776.1968 933.5469,776.0562 933.7344,775.8375 C933.8594,775.6656 933.9063,775.4937 933.9063,775.0562 L933.9063,773.6968 C933.9063,773.275 933.8906,773.1343 933.7656,772.9625 C933.5938,772.7125 933.3125,772.5562 932.9844,772.5562 C932.6719,772.5562 932.4688,772.6656 932.25,772.9312 C931.0781,772.4312 930.6406,772.3218 929.6875,772.3218 C927.0156,772.3218 925,774.3375 925,776.9625 L925,778.0562 Z "/><text fill="#000000" font-family="sans-serif" font-size="14" font-weight="bold" lengthAdjust="spacingAndGlyphs" textLength="34" x="989" y="775.5059">Offer</text><text fill="#000000" font-family="sans-serif" font-size="10" lengthAdjust="spacingAndGlyphs" textLength="124" x="944" y="788.5899">it.matlice.ingsw.model.data</text></a><path d="M348.86,238 C211.58,238 68,238 68,238 C68,238 68,750.87 68,750.87 " fill="none" style="stroke: #A80036; stroke-width: 1.0;"/><polygon fill="#A80036" points="68,755.87,72,746.87,68,750.87,64,746.87,68,755.87" style="stroke: #A80036; stroke-width: 1.0;"/><text fill="#000000" font-family="sans-serif" font-size="13" lengthAdjust="spacingAndGlyphs" textLength="26" x="38.1813" y="744.5663">view</text><path d="M348.93,467 C283.66,467 231,467 231,467 C231,467 231,752.14 231,752.14 " fill="none" style="stroke: #A80036; stroke-width: 1.0;"/><polygon fill="#A80036" points="231,757.14,235,748.14,231,752.14,227,748.14,231,757.14" style="stroke: #A80036; stroke-width: 1.0;"/><text fill="#000000" font-family="sans-serif" font-size="13" lengthAdjust="spacingAndGlyphs" textLength="35" x="190.6406" y="745.9605">model</text><path d="M407.5,696.06 C407.5,696.06 407.5,750.77 407.5,750.77 " fill="none" style="stroke: #A80036; stroke-width: 1.0;"/><polygon fill="#A80036" points="407.5,755.77,411.5,746.77,407.5,750.77,403.5,746.77,407.5,755.77" style="stroke: #A80036; stroke-width: 1.0;"/><text fill="#000000" font-family="sans-serif" font-size="13" lengthAdjust="spacingAndGlyphs" textLength="67" x="333.1563" y="744.437">currentUser</text><path d="M563.67,696.06 C563.67,696.06 563.67,752.37 563.67,752.37 " fill="none" style="stroke: #A80036; stroke-width: 1.0;"/><polygon fill="#A80036" points="563.67,757.37,567.67,748.37,563.67,752.37,559.67,748.37,563.67,757.37" style="stroke: #A80036; stroke-width: 1.0;"/><text fill="#000000" font-family="sans-serif" font-size="13" lengthAdjust="spacingAndGlyphs" textLength="83" x="457.4554" y="745.9268">user_actions *</text><path d="M626.33,696.06 C626.33,696.06 626.33,752.37 626.33,752.37 " fill="none" style="stroke: #A80036; stroke-width: 1.0;"/><polygon fill="#A80036" points="626.33,757.37,630.33,748.37,626.33,752.37,622.33,748.37,626.33,757.37" style="stroke: #A80036; stroke-width: 1.0;"/><text fill="#000000" font-family="sans-serif" font-size="13" lengthAdjust="spacingAndGlyphs" textLength="92" x="650.9789" y="745.9268">public_actions *</text><path d="M782.5,696.06 C782.5,696.06 782.5,752.37 782.5,752.37 " fill="none" style="stroke: #A80036; stroke-width: 1.0; stroke-dasharray: 7.0,7.0;"/><polygon fill="#A80036" points="782.5,757.37,786.5,748.37,782.5,752.37,778.5,748.37,782.5,757.37" style="stroke: #A80036; stroke-width: 1.0;"/><path d="M841.11,352 C922.66,352 993,352 993,352 C993,352 993,752.35 993,752.35 " fill="none" style="stroke: #A80036; stroke-width: 1.0; stroke-dasharray: 7.0,7.0;"/><polygon fill="#A80036" points="993,757.35,997,748.35,993,752.35,989,748.35,993,757.35" style="stroke: #A80036; stroke-width: 1.0;"/></g></svg>