<?xml version="1.0" encoding="UTF-8" standalone="no"?><svg xmlns="http://www.w3.org/2000/svg" xmlns:xlink="http://www.w3.org/1999/xlink" contentScriptType="application/ecmascript" contentStyleType="text/css" height="385px" preserveAspectRatio="none" style="width:658px;height:385px;" version="1.1" viewBox="0 0 658 385" width="658px" zoomAndPan="magnify"><defs><filter height="300%" id="f5diazl" width="300%" x="-1" y="-1"><feGaussianBlur result="blurOut" stdDeviation="2.0"/><feColorMatrix in="blurOut" result="blurOut2" type="matrix" values="0 0 0 0 0 0 0 0 0 0 0 0 0 0 0 0 0 0 .4 0"/><feOffset dx="4.0" dy="4.0" in="blurOut2" result="blurOut3"/><feBlend in="SourceGraphic" in2="blurOut3" mode="normal"/></filter></defs><g><!--class it.matlice.ingsw.controller.MenuAction--><a target="_parent" xlink:actuate="onRequest" xlink:href="../../../../it/matlice/ingsw/controller/MenuAction.html" xlink:show="new" xlink:title="it.matlice.ingsw.controller.MenuAction" xlink:type="simple"><rect fill="#FEFECE" filter="url(#f5diazl)" height="265.9983" style="stroke: #A80036; stroke-width: 1.5;" width="643" x="6" y="8"/><ellipse cx="266.25" cy="27.4" fill="#ADD1B2" rx="11" ry="11" style="stroke: #A80036; stroke-width: 1.0;"/><path d="M261.25,28.5562 C261.25,31.0562 263.3906,32.8687 266.3125,32.8687 C267.5469,32.8687 268.7188,32.5718 269.4688,32.0562 C270.0781,31.6343 270.4063,31.2125 270.4063,30.8062 C270.4063,30.3375 269.9844,29.9312 269.4844,29.9312 C269.25,29.9312 269.0313,30.0093 268.8281,30.2125 C268.3906,30.65 268.3906,30.65 268.2188,30.7437 C267.7656,30.9781 267.125,31.1187 266.3594,31.1187 C264.3594,31.1187 263.0781,30.1031 263.0781,28.525 L263.0781,27.4781 C263.0781,25.775 264.2969,24.5718 266,24.5718 C266.5781,24.5718 267.1563,24.7125 267.625,24.9625 C268.0938,25.2281 268.2656,25.4156 268.3281,25.775 C268.4531,26.4468 268.7031,26.6968 269.2344,26.6968 C269.5156,26.6968 269.7969,26.5562 269.9844,26.3375 C270.1094,26.1656 270.1563,25.9937 270.1563,25.5562 L270.1563,24.1968 C270.1563,23.775 270.1406,23.6343 270.0156,23.4625 C269.8438,23.2125 269.5625,23.0562 269.2344,23.0562 C268.9219,23.0562 268.7188,23.1656 268.5,23.4312 C267.3281,22.9312 266.8906,22.8218 265.9375,22.8218 C263.2656,22.8218 261.25,24.8375 261.25,27.4625 L261.25,28.5562 Z "/><text fill="#000000" font-family="sans-serif" font-size="14" font-weight="bold" lengthAdjust="spacingAndGlyphs" textLength="83" x="302.25" y="26.0059">MenuAction</text><text fill="#000000" font-family="sans-serif" font-size="10" lengthAdjust="spacingAndGlyphs" textLength="114" x="286.75" y="39.0899">it.matlice.ingsw.controller</text><line style="stroke: #A80036; stroke-width: 1.5;" x1="7" x2="648" y1="46.7999" y2="46.7999"/><rect fill="none" height="6" style="stroke: #C82930; stroke-width: 1.0;" width="6" x="14" y="55.8999"/><text fill="#000000" font-family="sans-serif" font-size="11" lengthAdjust="spacingAndGlyphs" textLength="58" x="26" y="61.0188">String name</text><rect fill="none" height="6" style="stroke: #C82930; stroke-width: 1.0;" width="6" x="14" y="69.0998"/><text fill="#000000" font-family="sans-serif" font-size="11" lengthAdjust="spacingAndGlyphs" textLength="147" x="26" y="74.2187">Class&lt;?&gt; requestedUserType</text><rect fill="none" height="6" style="stroke: #C82930; stroke-width: 1.0;" width="6" x="14" y="82.2997"/><text fill="#000000" font-family="sans-serif" font-size="11" lengthAdjust="spacingAndGlyphs" textLength="114" x="26" y="87.4186">ReturnAction&lt;T&gt; action</text><rect fill="none" height="6" style="stroke: #C82930; stroke-width: 1.0;" width="6" x="14" y="95.4996"/><text fill="#000000" font-family="sans-serif" font-size="11" lengthAdjust="spacingAndGlyphs" textLength="81" x="26" y="100.6185">boolean disabled</text><rect fill="none" height="6" style="stroke: #C82930; stroke-width: 1.0;" width="6" x="14" y="108.6995"/><text fill="#000000" font-family="sans-serif" font-size="11" lengthAdjust="spacingAndGlyphs" textLength="63" x="26" y="113.8184">Integer index</text><rect fill="none" height="6" style="stroke: #C82930; stroke-width: 1.0;" width="6" x="14" y="121.8994"/><text fill="#000000" font-family="sans-serif" font-size="11" lengthAdjust="spacingAndGlyphs" textLength="74" x="26" y="127.0183">Integer position</text><line style="stroke: #A80036; stroke-width: 1.5;" x1="7" x2="648" y1="133.9993" y2="133.9993"/><ellipse cx="17" cy="146.0993" fill="#84BE84" rx="3" ry="3" style="stroke: #038048; stroke-width: 1.0;"/><text fill="#000000" font-family="sans-serif" font-size="11" lengthAdjust="spacingAndGlyphs" textLength="390" x="26" y="148.2182">MenuAction(String name,Class&lt;?&gt; requestedUserType,ReturnAction&lt;T&gt; action)</text><ellipse cx="17" cy="159.2992" fill="#84BE84" rx="3" ry="3" style="stroke: #038048; stroke-width: 1.0;"/><text fill="#000000" font-family="sans-serif" font-size="11" lengthAdjust="spacingAndGlyphs" textLength="474" x="26" y="161.4182">MenuAction(String name,Class&lt;?&gt; requestedUserType,ReturnAction&lt;T&gt; action,boolean disabled)</text><ellipse cx="17" cy="172.4991" fill="#84BE84" rx="3" ry="3" style="stroke: #038048; stroke-width: 1.0;"/><text fill="#000000" font-family="sans-serif" font-size="11" lengthAdjust="spacingAndGlyphs" textLength="617" x="26" y="174.6181">MenuAction(String name,Class&lt;?&gt; requestedUserType,ReturnAction&lt;T&gt; action,boolean disabled,Integer index,Integer position)</text><ellipse cx="17" cy="185.699" fill="#84BE84" rx="3" ry="3" style="stroke: #038048; stroke-width: 1.0;"/><text fill="#000000" font-family="sans-serif" font-size="11" lengthAdjust="spacingAndGlyphs" textLength="99" x="26" y="187.818">boolean isDisabled()</text><ellipse cx="17" cy="198.8989" fill="#84BE84" rx="3" ry="3" style="stroke: #038048; stroke-width: 1.0;"/><text fill="#000000" font-family="sans-serif" font-size="11" lengthAdjust="spacingAndGlyphs" textLength="87" x="26" y="201.0179">Integer getIndex()</text><ellipse cx="17" cy="212.0988" fill="#84BE84" rx="3" ry="3" style="stroke: #038048; stroke-width: 1.0;"/><text fill="#000000" font-family="sans-serif" font-size="11" lengthAdjust="spacingAndGlyphs" textLength="75" x="26" y="214.2178">int getPosition()</text><ellipse cx="17" cy="225.2987" fill="#84BE84" rx="3" ry="3" style="stroke: #038048; stroke-width: 1.0;"/><text fill="#000000" font-family="sans-serif" font-size="11" lengthAdjust="spacingAndGlyphs" textLength="83" x="26" y="227.4177">String getName()</text><ellipse cx="17" cy="238.4986" fill="#84BE84" rx="3" ry="3" style="stroke: #038048; stroke-width: 1.0;"/><text fill="#000000" font-family="sans-serif" font-size="11" lengthAdjust="spacingAndGlyphs" textLength="174" x="26" y="240.6176">Class&lt;?&gt; getRequestedUserType()</text><ellipse cx="17" cy="251.6985" fill="#84BE84" rx="3" ry="3" style="stroke: #038048; stroke-width: 1.0;"/><text fill="#000000" font-family="sans-serif" font-size="11" lengthAdjust="spacingAndGlyphs" textLength="138" x="26" y="253.8175">ReturnAction&lt;T&gt; getAction()</text><ellipse cx="17" cy="264.8984" fill="#84BE84" rx="3" ry="3" style="stroke: #038048; stroke-width: 1.0;"/><text fill="#000000" font-family="sans-serif" font-size="11" lengthAdjust="spacingAndGlyphs" textLength="136" x="26" y="267.0174">boolean isPermitted(User u)</text></a><!--class it.matlice.ingsw.controller.ReturnActionObject--><a target="_parent" xlink:actuate="onRequest" xlink:href="../../../../it/matlice/ingsw/controller/ReturnAction.html" xlink:show="new" xlink:title="it.matlice.ingsw.controller.ReturnAction" xlink:type="simple"><rect fill="#FEFECE" filter="url(#f5diazl)" height="42.3999" style="stroke: #A80036; stroke-width: 1.5;" width="148" x="105.5" y="334"/><ellipse cx="120.5" cy="355.2" fill="#B4A7E5" rx="11" ry="11" style="stroke: #A80036; stroke-width: 1.0;"/><path d="M121.5156,352.3562 L123.1719,352.3562 C123.5625,352.3562 123.7656,352.325 123.9219,352.2468 C124.1875,352.075 124.3594,351.7781 124.3594,351.4812 C124.3594,351.2 124.2188,350.95 123.9844,350.7781 C123.7969,350.6531 123.6406,350.6062 123.1719,350.6062 L118.0313,350.6062 C117.5938,350.6062 117.4531,350.6218 117.2813,350.7312 C117.0156,350.9031 116.8438,351.1843 116.8438,351.4812 C116.8438,351.7625 116.9844,352.0437 117.2188,352.2 C117.4063,352.325 117.5938,352.3562 118.0313,352.3562 L119.6875,352.3562 L119.6875,358.45 L118.0313,358.45 C117.5938,358.45 117.4531,358.4656 117.2813,358.575 C117.0156,358.7312 116.8438,359.0281 116.8438,359.3093 C116.8438,359.9187 117.25,360.2 118.0313,360.2 L123.1719,360.2 C123.9531,360.2 124.3594,359.9187 124.3594,359.3093 C124.3594,359.0437 124.2188,358.7937 123.9844,358.6218 C123.7969,358.4812 123.625,358.45 123.1719,358.45 L121.5156,358.45 L121.5156,352.3562 Z "/><text fill="#000000" font-family="sans-serif" font-size="14" font-style="italic" font-weight="bold" lengthAdjust="spacingAndGlyphs" textLength="116" x="134.5" y="354.3999">ReturnAction&lt;T&gt;</text><text fill="#000000" font-family="sans-serif" font-size="10" font-style="italic" lengthAdjust="spacingAndGlyphs" textLength="114" x="135.5" y="368.8999">it.matlice.ingsw.controller</text></a><!--class java.lang.Object--><rect fill="#D3D3D3" filter="url(#f5diazl)" height="38.7999" style="stroke: #A80036; stroke-width: 1.5;" width="77" x="289" y="335.5"/><rect fill="#D3D3D3" height="38.7999" style="stroke: #A80036; stroke-width: 1.5;" width="77" x="289" y="335.5"/><ellipse cx="304" cy="354.9" fill="#ADD1B2" rx="11" ry="11" style="stroke: #A80036; stroke-width: 1.0;"/><path d="M299,356.0562 C299,358.5562 301.1406,360.3687 304.0625,360.3687 C305.2969,360.3687 306.4688,360.0718 307.2188,359.5562 C307.8281,359.1343 308.1563,358.7125 308.1563,358.3062 C308.1563,357.8375 307.7344,357.4312 307.2344,357.4312 C307,357.4312 306.7813,357.5093 306.5781,357.7125 C306.1406,358.15 306.1406,358.15 305.9688,358.2437 C305.5156,358.4781 304.875,358.6187 304.1094,358.6187 C302.1094,358.6187 300.8281,357.6031 300.8281,356.025 L300.8281,354.9781 C300.8281,353.275 302.0469,352.0718 303.75,352.0718 C304.3281,352.0718 304.9063,352.2125 305.375,352.4625 C305.8438,352.7281 306.0156,352.9156 306.0781,353.275 C306.2031,353.9468 306.4531,354.1968 306.9844,354.1968 C307.2656,354.1968 307.5469,354.0562 307.7344,353.8375 C307.8594,353.6656 307.9063,353.4937 307.9063,353.0562 L307.9063,351.6968 C307.9063,351.275 307.8906,351.1343 307.7656,350.9625 C307.5938,350.7125 307.3125,350.5562 306.9844,350.5562 C306.6719,350.5562 306.4688,350.6656 306.25,350.9312 C305.0781,350.4312 304.6406,350.3218 303.6875,350.3218 C301.0156,350.3218 299,352.3375 299,354.9625 L299,356.0562 Z "/><text fill="#000000" font-family="sans-serif" font-size="14" font-weight="bold" lengthAdjust="spacingAndGlyphs" textLength="45" x="318" y="353.5059">Object</text><text fill="#000000" font-family="sans-serif" font-size="10" lengthAdjust="spacingAndGlyphs" textLength="42" x="319.5" y="366.5899">java.lang</text><!--class it.matlice.ingsw.model.data.User--><a target="_parent" xlink:actuate="onRequest" xlink:href="../../../../it/matlice/ingsw/model/data/User.html" xlink:show="new" xlink:title="it.matlice.ingsw.model.data.User" xlink:type="simple"><rect fill="#FFFFFF" filter="url(#f5diazl)" height="38.7999" style="stroke: #A80036; stroke-width: 1.5;" width="156" x="401.5" y="335.5"/><rect fill="#FFFFFF" height="38.7999" style="stroke: #A80036; stroke-width: 1.5;" width="156" x="401.5" y="335.5"/><ellipse cx="416.5" cy="354.9" fill="#ADD1B2" rx="11" ry="11" style="stroke: #A80036; stroke-width: 1.0;"/><path d="M411.5,356.0562 C411.5,358.5562 413.6406,360.3687 416.5625,360.3687 C417.7969,360.3687 418.9688,360.0718 419.7188,359.5562 C420.3281,359.1343 420.6563,358.7125 420.6563,358.3062 C420.6563,357.8375 420.2344,357.4312 419.7344,357.4312 C419.5,357.4312 419.2813,357.5093 419.0781,357.7125 C418.6406,358.15 418.6406,358.15 418.4688,358.2437 C418.0156,358.4781 417.375,358.6187 416.6094,358.6187 C414.6094,358.6187 413.3281,357.6031 413.3281,356.025 L413.3281,354.9781 C413.3281,353.275 414.5469,352.0718 416.25,352.0718 C416.8281,352.0718 417.4063,352.2125 417.875,352.4625 C418.3438,352.7281 418.5156,352.9156 418.5781,353.275 C418.7031,353.9468 418.9531,354.1968 419.4844,354.1968 C419.7656,354.1968 420.0469,354.0562 420.2344,353.8375 C420.3594,353.6656 420.4063,353.4937 420.4063,353.0562 L420.4063,351.6968 C420.4063,351.275 420.3906,351.1343 420.2656,350.9625 C420.0938,350.7125 419.8125,350.5562 419.4844,350.5562 C419.1719,350.5562 418.9688,350.6656 418.75,350.9312 C417.5781,350.4312 417.1406,350.3218 416.1875,350.3218 C413.5156,350.3218 411.5,352.3375 411.5,354.9625 L411.5,356.0562 Z "/><text fill="#000000" font-family="sans-serif" font-size="14" font-weight="bold" lengthAdjust="spacingAndGlyphs" textLength="31" x="477" y="353.5059">User</text><text fill="#000000" font-family="sans-serif" font-size="10" lengthAdjust="spacingAndGlyphs" textLength="124" x="430.5" y="366.5899">it.matlice.ingsw.model.data</text></a><path d="M179.5,274.1 C179.5,274.1 179.5,328.9 179.5,328.9 " fill="none" style="stroke: #A80036; stroke-width: 1.0;"/><polygon fill="#A80036" points="179.5,333.9,183.5,324.9,179.5,328.9,175.5,324.9,179.5,333.9" style="stroke: #A80036; stroke-width: 1.0;"/><text fill="#000000" font-family="sans-serif" font-size="13" lengthAdjust="spacingAndGlyphs" textLength="35" x="139.3594" y="322.6052">action</text><path d="M327.5,274.1 C327.5,274.1 327.5,330.2 327.5,330.2 " fill="none" style="stroke: #A80036; stroke-width: 1.0; stroke-dasharray: 7.0,7.0;"/><polygon fill="#A80036" points="327.5,335.2,331.5,326.2,327.5,330.2,323.5,326.2,327.5,335.2" style="stroke: #A80036; stroke-width: 1.0;"/><path d="M479.5,274.1 C479.5,274.1 479.5,330.2 479.5,330.2 " fill="none" style="stroke: #A80036; stroke-width: 1.0; stroke-dasharray: 7.0,7.0;"/><polygon fill="#A80036" points="479.5,335.2,483.5,326.2,479.5,330.2,475.5,326.2,479.5,335.2" style="stroke: #A80036; stroke-width: 1.0;"/></g></svg>