<?xml version="1.0" encoding="UTF-8" standalone="no"?><svg xmlns="http://www.w3.org/2000/svg" xmlns:xlink="http://www.w3.org/1999/xlink" contentScriptType="application/ecmascript" contentStyleType="text/css" height="222px" preserveAspectRatio="none" style="width:528px;height:222px;" version="1.1" viewBox="0 0 528 222" width="528px" zoomAndPan="magnify"><defs><filter height="300%" id="f8ea0eb" width="300%" x="-1" y="-1"><feGaussianBlur result="blurOut" stdDeviation="2.0"/><feColorMatrix in="blurOut" result="blurOut2" type="matrix" values="0 0 0 0 0 0 0 0 0 0 0 0 0 0 0 0 0 0 .4 0"/><feOffset dx="4.0" dy="4.0" in="blurOut2" result="blurOut3"/><feBlend in="SourceGraphic" in2="blurOut3" mode="normal"/></filter></defs><g><!--cluster it.matlice.ingsw.controller--><a target="_parent" xlink:actuate="onRequest" xlink:href="../../../../it/matlice/ingsw/controller/package-summary.html" xlink:show="new" xlink:title="it.matlice.ingsw.controller" xlink:type="simple"><polygon fill="#FFFFE0" filter="url(#f8ea0eb)" points="22,24,205,24,212,46.7999,463,46.7999,463,215,22,215,22,24" style="stroke: #000000; stroke-width: 2.0;"/><line style="stroke: #000000; stroke-width: 2.0;" x1="22" x2="212" y1="46.7999" y2="46.7999"/><text fill="#000000" font-family="sans-serif" font-size="14" font-weight="bold" lengthAdjust="spacingAndGlyphs" textLength="177" x="26" y="39.0059">it.matlice.ingsw.controller</text></a><!--class it.matlice.ingsw.controller.Controller--><a target="_parent" xlink:actuate="onRequest" xlink:href="../../../../it/matlice/ingsw/controller/Controller.html" xlink:show="new" xlink:title="it.matlice.ingsw.controller.Controller" xlink:type="simple"><rect fill="#FEFECE" filter="url(#f8ea0eb)" height="32" style="stroke: #A80036; stroke-width: 1.5;" width="100" x="347" y="59"/><ellipse cx="362" cy="75" fill="#ADD1B2" rx="11" ry="11" style="stroke: #A80036; stroke-width: 1.0;"/><path d="M357,76.1563 C357,78.6563 359.1406,80.4688 362.0625,80.4688 C363.2969,80.4688 364.4688,80.1719 365.2188,79.6563 C365.8281,79.2344 366.1563,78.8125 366.1563,78.4063 C366.1563,77.9375 365.7344,77.5313 365.2344,77.5313 C365,77.5313 364.7813,77.6094 364.5781,77.8125 C364.1406,78.25 364.1406,78.25 363.9688,78.3438 C363.5156,78.5781 362.875,78.7188 362.1094,78.7188 C360.1094,78.7188 358.8281,77.7031 358.8281,76.125 L358.8281,75.0781 C358.8281,73.375 360.0469,72.1719 361.75,72.1719 C362.3281,72.1719 362.9063,72.3125 363.375,72.5625 C363.8438,72.8281 364.0156,73.0156 364.0781,73.375 C364.2031,74.0469 364.4531,74.2969 364.9844,74.2969 C365.2656,74.2969 365.5469,74.1563 365.7344,73.9375 C365.8594,73.7656 365.9063,73.5938 365.9063,73.1563 L365.9063,71.7969 C365.9063,71.375 365.8906,71.2344 365.7656,71.0625 C365.5938,70.8125 365.3125,70.6563 364.9844,70.6563 C364.6719,70.6563 364.4688,70.7656 364.25,71.0313 C363.0781,70.5313 362.6406,70.4219 361.6875,70.4219 C359.0156,70.4219 357,72.4375 357,75.0625 L357,76.1563 Z "/><text fill="#000000" font-family="sans-serif" font-size="14" font-weight="bold" lengthAdjust="spacingAndGlyphs" textLength="68" x="376" y="79.606">Controller</text></a><!--class it.matlice.ingsw.controller.ReturnAction--><a target="_parent" xlink:actuate="onRequest" xlink:href="../../../../it/matlice/ingsw/controller/ReturnAction.html" xlink:show="new" xlink:title="it.matlice.ingsw.controller.ReturnAction" xlink:type="simple"><rect fill="#FEFECE" filter="url(#f8ea0eb)" height="32" style="stroke: #A80036; stroke-width: 1.5;" width="123" x="188.5" y="59"/><ellipse cx="203.5" cy="75" fill="#B4A7E5" rx="11" ry="11" style="stroke: #A80036; stroke-width: 1.0;"/><path d="M204.5156,72.1563 L206.1719,72.1563 C206.5625,72.1563 206.7656,72.125 206.9219,72.0469 C207.1875,71.875 207.3594,71.5781 207.3594,71.2813 C207.3594,71 207.2188,70.75 206.9844,70.5781 C206.7969,70.4531 206.6406,70.4063 206.1719,70.4063 L201.0313,70.4063 C200.5938,70.4063 200.4531,70.4219 200.2813,70.5313 C200.0156,70.7031 199.8438,70.9844 199.8438,71.2813 C199.8438,71.5625 199.9844,71.8438 200.2188,72 C200.4063,72.125 200.5938,72.1563 201.0313,72.1563 L202.6875,72.1563 L202.6875,78.25 L201.0313,78.25 C200.5938,78.25 200.4531,78.2656 200.2813,78.375 C200.0156,78.5313 199.8438,78.8281 199.8438,79.1094 C199.8438,79.7188 200.25,80 201.0313,80 L206.1719,80 C206.9531,80 207.3594,79.7188 207.3594,79.1094 C207.3594,78.8438 207.2188,78.5938 206.9844,78.4219 C206.7969,78.2813 206.625,78.25 206.1719,78.25 L204.5156,78.25 L204.5156,72.1563 Z "/><text fill="#000000" font-family="sans-serif" font-size="14" font-style="italic" font-weight="bold" lengthAdjust="spacingAndGlyphs" textLength="91" x="217.5" y="80.95">ReturnAction</text></a><!--class it.matlice.ingsw.controller.MenuAction--><a target="_parent" xlink:actuate="onRequest" xlink:href="../../../../it/matlice/ingsw/controller/MenuAction.html" xlink:show="new" xlink:title="it.matlice.ingsw.controller.MenuAction" xlink:type="simple"><rect fill="#FEFECE" filter="url(#f8ea0eb)" height="32" style="stroke: #A80036; stroke-width: 1.5;" width="115" x="38.5" y="59"/><ellipse cx="53.5" cy="75" fill="#ADD1B2" rx="11" ry="11" style="stroke: #A80036; stroke-width: 1.0;"/><path d="M48.5,76.1563 C48.5,78.6563 50.6406,80.4688 53.5625,80.4688 C54.7969,80.4688 55.9688,80.1719 56.7188,79.6563 C57.3281,79.2344 57.6563,78.8125 57.6563,78.4063 C57.6563,77.9375 57.2344,77.5313 56.7344,77.5313 C56.5,77.5313 56.2813,77.6094 56.0781,77.8125 C55.6406,78.25 55.6406,78.25 55.4688,78.3438 C55.0156,78.5781 54.375,78.7188 53.6094,78.7188 C51.6094,78.7188 50.3281,77.7031 50.3281,76.125 L50.3281,75.0781 C50.3281,73.375 51.5469,72.1719 53.25,72.1719 C53.8281,72.1719 54.4063,72.3125 54.875,72.5625 C55.3438,72.8281 55.5156,73.0156 55.5781,73.375 C55.7031,74.0469 55.9531,74.2969 56.4844,74.2969 C56.7656,74.2969 57.0469,74.1563 57.2344,73.9375 C57.3594,73.7656 57.4063,73.5938 57.4063,73.1563 L57.4063,71.7969 C57.4063,71.375 57.3906,71.2344 57.2656,71.0625 C57.0938,70.8125 56.8125,70.6563 56.4844,70.6563 C56.1719,70.6563 55.9688,70.7656 55.75,71.0313 C54.5781,70.5313 54.1406,70.4219 53.1875,70.4219 C50.5156,70.4219 48.5,72.4375 48.5,75.0625 L48.5,76.1563 Z "/><text fill="#000000" font-family="sans-serif" font-size="14" font-weight="bold" lengthAdjust="spacingAndGlyphs" textLength="83" x="67.5" y="79.606">MenuAction</text></a><!--class it.matlice.ingsw.controller.MenuActionBoolean--><rect fill="#FEFECE" filter="url(#f8ea0eb)" height="48" style="stroke: #A80036; stroke-width: 1.5;" width="143" x="303.5" y="151"/><ellipse cx="318.5" cy="167" fill="#ADD1B2" rx="11" ry="11" style="stroke: #A80036; stroke-width: 1.0;"/><path d="M313.5,168.1563 C313.5,170.6563 315.6406,172.4688 318.5625,172.4688 C319.7969,172.4688 320.9688,172.1719 321.7188,171.6563 C322.3281,171.2344 322.6563,170.8125 322.6563,170.4063 C322.6563,169.9375 322.2344,169.5313 321.7344,169.5313 C321.5,169.5313 321.2813,169.6094 321.0781,169.8125 C320.6406,170.25 320.6406,170.25 320.4688,170.3438 C320.0156,170.5781 319.375,170.7188 318.6094,170.7188 C316.6094,170.7188 315.3281,169.7031 315.3281,168.125 L315.3281,167.0781 C315.3281,165.375 316.5469,164.1719 318.25,164.1719 C318.8281,164.1719 319.4063,164.3125 319.875,164.5625 C320.3438,164.8281 320.5156,165.0156 320.5781,165.375 C320.7031,166.0469 320.9531,166.2969 321.4844,166.2969 C321.7656,166.2969 322.0469,166.1563 322.2344,165.9375 C322.3594,165.7656 322.4063,165.5938 322.4063,165.1563 L322.4063,163.7969 C322.4063,163.375 322.3906,163.2344 322.2656,163.0625 C322.0938,162.8125 321.8125,162.6563 321.4844,162.6563 C321.1719,162.6563 320.9688,162.7656 320.75,163.0313 C319.5781,162.5313 319.1406,162.4219 318.1875,162.4219 C315.5156,162.4219 313.5,164.4375 313.5,167.0625 L313.5,168.1563 Z "/><text fill="#000000" font-family="sans-serif" font-size="12" lengthAdjust="spacingAndGlyphs" textLength="111" x="332.5" y="170.948">MenuActionBoolean</text><line style="stroke: #A80036; stroke-width: 1.5;" x1="304.5" x2="445.5" y1="183" y2="183"/><line style="stroke: #A80036; stroke-width: 1.5;" x1="304.5" x2="445.5" y1="191" y2="191"/><!--class it.matlice.ingsw.controller.ReturnActionObject--><rect fill="#FEFECE" filter="url(#f8ea0eb)" height="48" style="stroke: #A80036; stroke-width: 1.5;" width="138" x="38" y="151"/><ellipse cx="53" cy="167" fill="#ADD1B2" rx="11" ry="11" style="stroke: #A80036; stroke-width: 1.0;"/><path d="M48,168.1563 C48,170.6563 50.1406,172.4688 53.0625,172.4688 C54.2969,172.4688 55.4688,172.1719 56.2188,171.6563 C56.8281,171.2344 57.1563,170.8125 57.1563,170.4063 C57.1563,169.9375 56.7344,169.5313 56.2344,169.5313 C56,169.5313 55.7813,169.6094 55.5781,169.8125 C55.1406,170.25 55.1406,170.25 54.9688,170.3438 C54.5156,170.5781 53.875,170.7188 53.1094,170.7188 C51.1094,170.7188 49.8281,169.7031 49.8281,168.125 L49.8281,167.0781 C49.8281,165.375 51.0469,164.1719 52.75,164.1719 C53.3281,164.1719 53.9063,164.3125 54.375,164.5625 C54.8438,164.8281 55.0156,165.0156 55.0781,165.375 C55.2031,166.0469 55.4531,166.2969 55.9844,166.2969 C56.2656,166.2969 56.5469,166.1563 56.7344,165.9375 C56.8594,165.7656 56.9063,165.5938 56.9063,165.1563 L56.9063,163.7969 C56.9063,163.375 56.8906,163.2344 56.7656,163.0625 C56.5938,162.8125 56.3125,162.6563 55.9844,162.6563 C55.6719,162.6563 55.4688,162.7656 55.25,163.0313 C54.0781,162.5313 53.6406,162.4219 52.6875,162.4219 C50.0156,162.4219 48,164.4375 48,167.0625 L48,168.1563 Z "/><text fill="#000000" font-family="sans-serif" font-size="12" lengthAdjust="spacingAndGlyphs" textLength="106" x="67" y="170.948">ReturnActionObject</text><line style="stroke: #A80036; stroke-width: 1.5;" x1="39" x2="175" y1="183" y2="183"/><line style="stroke: #A80036; stroke-width: 1.5;" x1="39" x2="175" y1="191" y2="191"/><path d="M380.17,91.07 C380.17,91.07 380.17,145.76 380.17,145.76 " fill="none" style="stroke: #A80036; stroke-width: 1.0;"/><polygon fill="#A80036" points="380.17,150.76,384.17,141.76,380.17,145.76,376.17,141.76,380.17,150.76" style="stroke: #A80036; stroke-width: 1.0;"/><text fill="#000000" font-family="sans-serif" font-size="13" lengthAdjust="spacingAndGlyphs" textLength="83" x="287.4063" y="139.3875">user_actions *</text><path d="M413.33,91.07 C413.33,91.07 413.33,145.76 413.33,145.76 " fill="none" style="stroke: #A80036; stroke-width: 1.0;"/><polygon fill="#A80036" points="413.33,150.76,417.33,141.76,413.33,145.76,409.33,141.76,413.33,150.76" style="stroke: #A80036; stroke-width: 1.0;"/><text fill="#000000" font-family="sans-serif" font-size="13" lengthAdjust="spacingAndGlyphs" textLength="92" x="435.9937" y="139.3875">public_actions *</text><path d="M96,91.07 C96,91.07 96,145.76 96,145.76 " fill="none" style="stroke: #A80036; stroke-width: 1.0;"/><polygon fill="#A80036" points="96,150.76,100,141.76,96,145.76,92,141.76,96,150.76" style="stroke: #A80036; stroke-width: 1.0;"/><text fill="#000000" font-family="sans-serif" font-size="13" lengthAdjust="spacingAndGlyphs" textLength="35" x="53.3406" y="139.3875">action</text></g></svg>