<?xml version="1.0" encoding="UTF-8" standalone="no"?><svg xmlns="http://www.w3.org/2000/svg" xmlns:xlink="http://www.w3.org/1999/xlink" contentScriptType="application/ecmascript" contentStyleType="text/css" height="188px" preserveAspectRatio="none" style="width:161px;height:188px;" version="1.1" viewBox="0 0 161 188" width="161px" zoomAndPan="magnify"><defs><filter height="300%" id="f1soq23" width="300%" x="-1" y="-1"><feGaussianBlur result="blurOut" stdDeviation="2.0"/><feColorMatrix in="blurOut" result="blurOut2" type="matrix" values="0 0 0 0 0 0 0 0 0 0 0 0 0 0 0 0 0 0 .4 0"/><feOffset dx="4.0" dy="4.0" in="blurOut2" result="blurOut3"/><feBlend in="SourceGraphic" in2="blurOut3" mode="normal"/></filter></defs><g><!--class it.matlice.ingsw.controller.ReturnAction--><a target="_parent" xlink:actuate="onRequest" xlink:href="../../../../it/matlice/ingsw/controller/ReturnAction.html" xlink:show="new" xlink:title="it.matlice.ingsw.controller.ReturnAction" xlink:type="simple"><rect fill="#FEFECE" filter="url(#f1soq23)" height="73.2498" style="stroke: #A80036; stroke-width: 1.5;" width="146" x="6" y="8"/><ellipse cx="21" cy="29.2" fill="#B4A7E5" rx="11" ry="11" style="stroke: #A80036; stroke-width: 1.0;"/><path d="M22.0156,26.3562 L23.6719,26.3562 C24.0625,26.3562 24.2656,26.325 24.4219,26.2468 C24.6875,26.075 24.8594,25.7781 24.8594,25.4812 C24.8594,25.2 24.7188,24.95 24.4844,24.7781 C24.2969,24.6531 24.1406,24.6062 23.6719,24.6062 L18.5313,24.6062 C18.0938,24.6062 17.9531,24.6218 17.7813,24.7312 C17.5156,24.9031 17.3438,25.1843 17.3438,25.4812 C17.3438,25.7625 17.4844,26.0437 17.7188,26.2 C17.9063,26.325 18.0938,26.3562 18.5313,26.3562 L20.1875,26.3562 L20.1875,32.45 L18.5313,32.45 C18.0938,32.45 17.9531,32.4656 17.7813,32.575 C17.5156,32.7312 17.3438,33.0281 17.3438,33.3093 C17.3438,33.9187 17.75,34.2 18.5313,34.2 L23.6719,34.2 C24.4531,34.2 24.8594,33.9187 24.8594,33.3093 C24.8594,33.0437 24.7188,32.7937 24.4844,32.6218 C24.2969,32.4812 24.125,32.45 23.6719,32.45 L22.0156,32.45 L22.0156,26.3562 Z "/><text fill="#000000" font-family="sans-serif" font-size="14" font-style="italic" font-weight="bold" lengthAdjust="spacingAndGlyphs" textLength="91" x="46.5" y="28.3999">ReturnAction</text><text fill="#000000" font-family="sans-serif" font-size="10" font-style="italic" lengthAdjust="spacingAndGlyphs" textLength="114" x="35" y="42.8999">it.matlice.ingsw.controller</text><line style="stroke: #A80036; stroke-width: 1.5;" x1="7" x2="151" y1="50.3999" y2="50.3999"/><line style="stroke: #A80036; stroke-width: 1.5;" x1="7" x2="151" y1="58.3999" y2="58.3999"/><ellipse cx="17" cy="71.3248" fill="#84BE84" rx="3" ry="3" style="stroke: #038048; stroke-width: 1.0;"/><text fill="#000000" font-family="sans-serif" font-size="11" font-style="italic" lengthAdjust="spacingAndGlyphs" textLength="59" x="26" y="74.4998">Object run()</text></a><!--class java.lang.Object--><rect fill="#D3D3D3" filter="url(#f1soq23)" height="38.7999" style="stroke: #A80036; stroke-width: 1.5;" width="77" x="40.5" y="141"/><rect fill="#D3D3D3" height="38.7999" style="stroke: #A80036; stroke-width: 1.5;" width="77" x="40.5" y="141"/><ellipse cx="55.5" cy="160.4" fill="#ADD1B2" rx="11" ry="11" style="stroke: #A80036; stroke-width: 1.0;"/><path d="M50.5,161.5562 C50.5,164.0562 52.6406,165.8687 55.5625,165.8687 C56.7969,165.8687 57.9688,165.5718 58.7188,165.0562 C59.3281,164.6343 59.6563,164.2125 59.6563,163.8062 C59.6563,163.3375 59.2344,162.9312 58.7344,162.9312 C58.5,162.9312 58.2813,163.0093 58.0781,163.2125 C57.6406,163.65 57.6406,163.65 57.4688,163.7437 C57.0156,163.9781 56.375,164.1187 55.6094,164.1187 C53.6094,164.1187 52.3281,163.1031 52.3281,161.525 L52.3281,160.4781 C52.3281,158.775 53.5469,157.5718 55.25,157.5718 C55.8281,157.5718 56.4063,157.7125 56.875,157.9625 C57.3438,158.2281 57.5156,158.4156 57.5781,158.775 C57.7031,159.4468 57.9531,159.6968 58.4844,159.6968 C58.7656,159.6968 59.0469,159.5562 59.2344,159.3375 C59.3594,159.1656 59.4063,158.9937 59.4063,158.5562 L59.4063,157.1968 C59.4063,156.775 59.3906,156.6343 59.2656,156.4625 C59.0938,156.2125 58.8125,156.0562 58.4844,156.0562 C58.1719,156.0562 57.9688,156.1656 57.75,156.4312 C56.5781,155.9312 56.1406,155.8218 55.1875,155.8218 C52.5156,155.8218 50.5,157.8375 50.5,160.4625 L50.5,161.5562 Z "/><text fill="#000000" font-family="sans-serif" font-size="14" font-weight="bold" lengthAdjust="spacingAndGlyphs" textLength="45" x="69.5" y="159.0059">Object</text><text fill="#000000" font-family="sans-serif" font-size="10" lengthAdjust="spacingAndGlyphs" textLength="42" x="71" y="172.0899">java.lang</text><path d="M79,81.2 C79,81.2 79,135.89 79,135.89 " fill="none" style="stroke: #A80036; stroke-width: 1.0; stroke-dasharray: 7.0,7.0;"/><polygon fill="#A80036" points="79,140.89,83,131.89,79,135.89,75,131.89,79,140.89" style="stroke: #A80036; stroke-width: 1.0;"/></g></svg>