<?xml version="1.0" encoding="UTF-8" standalone="no"?><svg xmlns="http://www.w3.org/2000/svg" xmlns:xlink="http://www.w3.org/1999/xlink" contentScriptType="application/ecmascript" contentStyleType="text/css" height="298px" preserveAspectRatio="none" style="width:489px;height:298px;" version="1.1" viewBox="0 0 489 298" width="489px" zoomAndPan="magnify"><defs><filter height="300%" id="f4tviyt" width="300%" x="-1" y="-1"><feGaussianBlur result="blurOut" stdDeviation="2.0"/><feColorMatrix in="blurOut" result="blurOut2" type="matrix" values="0 0 0 0 0 0 0 0 0 0 0 0 0 0 0 0 0 0 .4 0"/><feOffset dx="4.0" dy="4.0" in="blurOut2" result="blurOut3"/><feBlend in="SourceGraphic" in2="blurOut3" mode="normal"/></filter></defs><g><!--cluster it.matlice.ingsw.xml--><a target="_parent" xlink:actuate="onRequest" xlink:href="../../../../it/matlice/ingsw/xml/package-summary.html" xlink:show="new" xlink:title="it.matlice.ingsw.xml" xlink:type="simple"><polygon fill="#FFFFE0" filter="url(#f4tviyt)" points="22,24,163,24,170,46.7999,482,46.7999,482,291,22,291,22,24" style="stroke: #000000; stroke-width: 2.0;"/><line style="stroke: #000000; stroke-width: 2.0;" x1="22" x2="170" y1="46.7999" y2="46.7999"/><text fill="#000000" font-family="sans-serif" font-size="14" font-weight="bold" lengthAdjust="spacingAndGlyphs" textLength="135" x="26" y="39.0059">it.matlice.ingsw.xml</text></a><!--class it.matlice.ingsw.xml.XMLWritable--><a target="_parent" xlink:actuate="onRequest" xlink:href="../../../../it/matlice/ingsw/xml/XMLWritable.html" xlink:show="new" xlink:title="it.matlice.ingsw.xml.XMLWritable" xlink:type="simple"><rect fill="#FEFECE" filter="url(#f4tviyt)" height="32" style="stroke: #A80036; stroke-width: 1.5;" width="118" x="70" y="151"/><ellipse cx="85" cy="167" fill="#B4A7E5" rx="11" ry="11" style="stroke: #A80036; stroke-width: 1.0;"/><path d="M86.0156,164.1563 L87.6719,164.1563 C88.0625,164.1563 88.2656,164.125 88.4219,164.0469 C88.6875,163.875 88.8594,163.5781 88.8594,163.2813 C88.8594,163 88.7188,162.75 88.4844,162.5781 C88.2969,162.4531 88.1406,162.4063 87.6719,162.4063 L82.5313,162.4063 C82.0938,162.4063 81.9531,162.4219 81.7813,162.5313 C81.5156,162.7031 81.3438,162.9844 81.3438,163.2813 C81.3438,163.5625 81.4844,163.8438 81.7188,164 C81.9063,164.125 82.0938,164.1563 82.5313,164.1563 L84.1875,164.1563 L84.1875,170.25 L82.5313,170.25 C82.0938,170.25 81.9531,170.2656 81.7813,170.375 C81.5156,170.5313 81.3438,170.8281 81.3438,171.1094 C81.3438,171.7188 81.75,172 82.5313,172 L87.6719,172 C88.4531,172 88.8594,171.7188 88.8594,171.1094 C88.8594,170.8438 88.7188,170.5938 88.4844,170.4219 C88.2969,170.2813 88.125,170.25 87.6719,170.25 L86.0156,170.25 L86.0156,164.1563 Z "/><text fill="#000000" font-family="sans-serif" font-size="14" font-style="italic" font-weight="bold" lengthAdjust="spacingAndGlyphs" textLength="86" x="99" y="172.95">XMLWritable</text></a><!--class it.matlice.ingsw.xml.XMLParser--><a target="_parent" xlink:actuate="onRequest" xlink:href="../../../../it/matlice/ingsw/xml/XMLParser.html" xlink:show="new" xlink:title="it.matlice.ingsw.xml.XMLParser" xlink:type="simple"><rect fill="#FEFECE" filter="url(#f4tviyt)" height="32" style="stroke: #A80036; stroke-width: 1.5;" width="105" x="360.5" y="59"/><ellipse cx="375.5" cy="75" fill="#ADD1B2" rx="11" ry="11" style="stroke: #A80036; stroke-width: 1.0;"/><path d="M370.5,76.1563 C370.5,78.6563 372.6406,80.4688 375.5625,80.4688 C376.7969,80.4688 377.9688,80.1719 378.7188,79.6563 C379.3281,79.2344 379.6563,78.8125 379.6563,78.4063 C379.6563,77.9375 379.2344,77.5313 378.7344,77.5313 C378.5,77.5313 378.2813,77.6094 378.0781,77.8125 C377.6406,78.25 377.6406,78.25 377.4688,78.3438 C377.0156,78.5781 376.375,78.7188 375.6094,78.7188 C373.6094,78.7188 372.3281,77.7031 372.3281,76.125 L372.3281,75.0781 C372.3281,73.375 373.5469,72.1719 375.25,72.1719 C375.8281,72.1719 376.4063,72.3125 376.875,72.5625 C377.3438,72.8281 377.5156,73.0156 377.5781,73.375 C377.7031,74.0469 377.9531,74.2969 378.4844,74.2969 C378.7656,74.2969 379.0469,74.1563 379.2344,73.9375 C379.3594,73.7656 379.4063,73.5938 379.4063,73.1563 L379.4063,71.7969 C379.4063,71.375 379.3906,71.2344 379.2656,71.0625 C379.0938,70.8125 378.8125,70.6563 378.4844,70.6563 C378.1719,70.6563 377.9688,70.7656 377.75,71.0313 C376.5781,70.5313 376.1406,70.4219 375.1875,70.4219 C372.5156,70.4219 370.5,72.4375 370.5,75.0625 L370.5,76.1563 Z "/><text fill="#000000" font-family="sans-serif" font-size="14" font-weight="bold" lengthAdjust="spacingAndGlyphs" textLength="73" x="389.5" y="79.606">XMLParser</text></a><!--class it.matlice.ingsw.xml.XMLNode--><a target="_parent" xlink:actuate="onRequest" xlink:href="../../../../it/matlice/ingsw/xml/XMLNode.html" xlink:show="new" xlink:title="it.matlice.ingsw.xml.XMLNode" xlink:type="simple"><rect fill="#FEFECE" filter="url(#f4tviyt)" height="32" style="stroke: #A80036; stroke-width: 1.5;" width="98" x="245" y="243"/><ellipse cx="260" cy="259" fill="#ADD1B2" rx="11" ry="11" style="stroke: #A80036; stroke-width: 1.0;"/><path d="M255,260.1563 C255,262.6563 257.1406,264.4688 260.0625,264.4688 C261.2969,264.4688 262.4688,264.1719 263.2188,263.6563 C263.8281,263.2344 264.1563,262.8125 264.1563,262.4063 C264.1563,261.9375 263.7344,261.5313 263.2344,261.5313 C263,261.5313 262.7813,261.6094 262.5781,261.8125 C262.1406,262.25 262.1406,262.25 261.9688,262.3438 C261.5156,262.5781 260.875,262.7188 260.1094,262.7188 C258.1094,262.7188 256.8281,261.7031 256.8281,260.125 L256.8281,259.0781 C256.8281,257.375 258.0469,256.1719 259.75,256.1719 C260.3281,256.1719 260.9063,256.3125 261.375,256.5625 C261.8438,256.8281 262.0156,257.0156 262.0781,257.375 C262.2031,258.0469 262.4531,258.2969 262.9844,258.2969 C263.2656,258.2969 263.5469,258.1563 263.7344,257.9375 C263.8594,257.7656 263.9063,257.5938 263.9063,257.1563 L263.9063,255.7969 C263.9063,255.375 263.8906,255.2344 263.7656,255.0625 C263.5938,254.8125 263.3125,254.6563 262.9844,254.6563 C262.6719,254.6563 262.4688,254.7656 262.25,255.0313 C261.0781,254.5313 260.6406,254.4219 259.6875,254.4219 C257.0156,254.4219 255,256.4375 255,259.0625 L255,260.1563 Z "/><text fill="#000000" font-family="sans-serif" font-size="14" font-weight="bold" lengthAdjust="spacingAndGlyphs" textLength="66" x="274" y="263.606">XMLNode</text></a><!--class it.matlice.ingsw.xml.XMLConversion--><a target="_parent" xlink:actuate="onRequest" xlink:href="../../../../it/matlice/ingsw/xml/XMLConversion.html" xlink:show="new" xlink:title="it.matlice.ingsw.xml.XMLConversion" xlink:type="simple"><rect fill="#FEFECE" filter="url(#f4tviyt)" height="32" style="stroke: #A80036; stroke-width: 1.5;" width="141" x="223.5" y="151"/><ellipse cx="238.5" cy="167" fill="#B4A7E5" rx="11" ry="11" style="stroke: #A80036; stroke-width: 1.0;"/><path d="M239.5156,164.1563 L241.1719,164.1563 C241.5625,164.1563 241.7656,164.125 241.9219,164.0469 C242.1875,163.875 242.3594,163.5781 242.3594,163.2813 C242.3594,163 242.2188,162.75 241.9844,162.5781 C241.7969,162.4531 241.6406,162.4063 241.1719,162.4063 L236.0313,162.4063 C235.5938,162.4063 235.4531,162.4219 235.2813,162.5313 C235.0156,162.7031 234.8438,162.9844 234.8438,163.2813 C234.8438,163.5625 234.9844,163.8438 235.2188,164 C235.4063,164.125 235.5938,164.1563 236.0313,164.1563 L237.6875,164.1563 L237.6875,170.25 L236.0313,170.25 C235.5938,170.25 235.4531,170.2656 235.2813,170.375 C235.0156,170.5313 234.8438,170.8281 234.8438,171.1094 C234.8438,171.7188 235.25,172 236.0313,172 L241.1719,172 C241.9531,172 242.3594,171.7188 242.3594,171.1094 C242.3594,170.8438 242.2188,170.5938 241.9844,170.4219 C241.7969,170.2813 241.625,170.25 241.1719,170.25 L239.5156,170.25 L239.5156,164.1563 Z "/><text fill="#000000" font-family="sans-serif" font-size="14" font-style="italic" font-weight="bold" lengthAdjust="spacingAndGlyphs" textLength="109" x="252.5" y="172.95">XMLConversion</text></a><!--class it.matlice.ingsw.xml.Utils--><a target="_parent" xlink:actuate="onRequest" xlink:href="../../../../it/matlice/ingsw/xml/Utils.html" xlink:show="new" xlink:title="it.matlice.ingsw.xml.Utils" xlink:type="simple"><rect fill="#FEFECE" filter="url(#f4tviyt)" height="32" style="stroke: #A80036; stroke-width: 1.5;" width="63" x="262.5" y="59"/><ellipse cx="277.5" cy="75" fill="#ADD1B2" rx="11" ry="11" style="stroke: #A80036; stroke-width: 1.0;"/><path d="M272.5,76.1563 C272.5,78.6563 274.6406,80.4688 277.5625,80.4688 C278.7969,80.4688 279.9688,80.1719 280.7188,79.6563 C281.3281,79.2344 281.6563,78.8125 281.6563,78.4063 C281.6563,77.9375 281.2344,77.5313 280.7344,77.5313 C280.5,77.5313 280.2813,77.6094 280.0781,77.8125 C279.6406,78.25 279.6406,78.25 279.4688,78.3438 C279.0156,78.5781 278.375,78.7188 277.6094,78.7188 C275.6094,78.7188 274.3281,77.7031 274.3281,76.125 L274.3281,75.0781 C274.3281,73.375 275.5469,72.1719 277.25,72.1719 C277.8281,72.1719 278.4063,72.3125 278.875,72.5625 C279.3438,72.8281 279.5156,73.0156 279.5781,73.375 C279.7031,74.0469 279.9531,74.2969 280.4844,74.2969 C280.7656,74.2969 281.0469,74.1563 281.2344,73.9375 C281.3594,73.7656 281.4063,73.5938 281.4063,73.1563 L281.4063,71.7969 C281.4063,71.375 281.3906,71.2344 281.2656,71.0625 C281.0938,70.8125 280.8125,70.6563 280.4844,70.6563 C280.1719,70.6563 279.9688,70.7656 279.75,71.0313 C278.5781,70.5313 278.1406,70.4219 277.1875,70.4219 C274.5156,70.4219 272.5,72.4375 272.5,75.0625 L272.5,76.1563 Z "/><text fill="#000000" font-family="sans-serif" font-size="14" font-weight="bold" lengthAdjust="spacingAndGlyphs" textLength="31" x="291.5" y="79.606">Utils</text></a><!--class it.matlice.ingsw.xml.PrettyXMLStreamWriter--><a target="_parent" xlink:actuate="onRequest" xlink:href="../../../../it/matlice/ingsw/xml/PrettyXMLStreamWriter.html" xlink:show="new" xlink:title="it.matlice.ingsw.xml.PrettyXMLStreamWriter" xlink:type="simple"><rect fill="#FEFECE" filter="url(#f4tviyt)" height="32" style="stroke: #A80036; stroke-width: 1.5;" width="189" x="38.5" y="59"/><ellipse cx="53.5" cy="75" fill="#ADD1B2" rx="11" ry="11" style="stroke: #A80036; stroke-width: 1.0;"/><path d="M48.5,76.1563 C48.5,78.6563 50.6406,80.4688 53.5625,80.4688 C54.7969,80.4688 55.9688,80.1719 56.7188,79.6563 C57.3281,79.2344 57.6563,78.8125 57.6563,78.4063 C57.6563,77.9375 57.2344,77.5313 56.7344,77.5313 C56.5,77.5313 56.2813,77.6094 56.0781,77.8125 C55.6406,78.25 55.6406,78.25 55.4688,78.3438 C55.0156,78.5781 54.375,78.7188 53.6094,78.7188 C51.6094,78.7188 50.3281,77.7031 50.3281,76.125 L50.3281,75.0781 C50.3281,73.375 51.5469,72.1719 53.25,72.1719 C53.8281,72.1719 54.4063,72.3125 54.875,72.5625 C55.3438,72.8281 55.5156,73.0156 55.5781,73.375 C55.7031,74.0469 55.9531,74.2969 56.4844,74.2969 C56.7656,74.2969 57.0469,74.1563 57.2344,73.9375 C57.3594,73.7656 57.4063,73.5938 57.4063,73.1563 L57.4063,71.7969 C57.4063,71.375 57.3906,71.2344 57.2656,71.0625 C57.0938,70.8125 56.8125,70.6563 56.4844,70.6563 C56.1719,70.6563 55.9688,70.7656 55.75,71.0313 C54.5781,70.5313 54.1406,70.4219 53.1875,70.4219 C50.5156,70.4219 48.5,72.4375 48.5,75.0625 L48.5,76.1563 Z "/><text fill="#000000" font-family="sans-serif" font-size="14" font-weight="bold" lengthAdjust="spacingAndGlyphs" textLength="157" x="67.5" y="79.606">PrettyXMLStreamWriter</text></a><path d="M360.3,75 C350.36,75 343,75 343,75 C343,75 343,145.97 343,145.97 " fill="none" style="stroke: #A80036; stroke-width: 1.0; stroke-dasharray: 7.0,7.0;"/><polygon fill="#A80036" points="343,150.97,347,141.97,343,145.97,339,141.97,343,150.97" style="stroke: #A80036; stroke-width: 1.0;"/><path d="M294,183.03 C294,183.03 294,237.85 294,237.85 " fill="none" style="stroke: #A80036; stroke-width: 1.0; stroke-dasharray: 7.0,7.0;"/><polygon fill="#A80036" points="294,242.85,298,233.85,294,237.85,290,233.85,294,242.85" style="stroke: #A80036; stroke-width: 1.0;"/><path d="M273.95,91.03 C273.95,91.03 273.95,145.85 273.95,145.85 " fill="none" style="stroke: #A80036; stroke-width: 1.0;"/><polygon fill="#A80036" points="273.95,150.85,277.95,141.85,273.95,145.85,269.95,141.85,273.95,150.85" style="stroke: #A80036; stroke-width: 1.0;"/><text fill="#000000" font-family="sans-serif" font-size="13" lengthAdjust="spacingAndGlyphs" textLength="90" x="184.5664" y="139.3509">StringConverter</text><path d="M279.68,91.03 C279.68,91.03 279.68,145.85 279.68,145.85 " fill="none" style="stroke: #A80036; stroke-width: 1.0;"/><polygon fill="#A80036" points="279.68,150.85,283.68,141.85,279.68,145.85,275.68,141.85,279.68,150.85" style="stroke: #A80036; stroke-width: 1.0;"/><text fill="#000000" font-family="sans-serif" font-size="13" lengthAdjust="spacingAndGlyphs" textLength="108" x="293.816" y="139.6086">ArrayListConverter</text><path d="M285.41,91.03 C285.41,91.03 285.41,145.85 285.41,145.85 " fill="none" style="stroke: #A80036; stroke-width: 1.0;"/><polygon fill="#A80036" points="285.41,150.85,289.41,141.85,285.41,145.85,281.41,141.85,285.41,150.85" style="stroke: #A80036; stroke-width: 1.0;"/><text fill="#000000" font-family="sans-serif" font-size="13" lengthAdjust="spacingAndGlyphs" textLength="115" x="112.2298" y="139.2835">LinkedListConverter</text><path d="M291.14,91.03 C291.14,91.03 291.14,145.85 291.14,145.85 " fill="none" style="stroke: #A80036; stroke-width: 1.0;"/><polygon fill="#A80036" points="291.14,150.85,295.14,141.85,291.14,145.85,287.14,141.85,291.14,150.85" style="stroke: #A80036; stroke-width: 1.0;"/><text fill="#000000" font-family="sans-serif" font-size="13" lengthAdjust="spacingAndGlyphs" textLength="81" x="372.066" y="144.9745">MapConverter</text><path d="M296.86,91.03 C296.86,91.03 296.86,145.85 296.86,145.85 " fill="none" style="stroke: #A80036; stroke-width: 1.0;"/><polygon fill="#A80036" points="296.86,150.85,300.86,141.85,296.86,145.85,292.86,141.85,296.86,150.85" style="stroke: #A80036; stroke-width: 1.0;"/><text fill="#000000" font-family="sans-serif" font-size="13" lengthAdjust="spacingAndGlyphs" textLength="78" x="311.7726" y="139.6086">NullConverter</text><path d="M302.59,91.03 C302.59,91.03 302.59,145.85 302.59,145.85 " fill="none" style="stroke: #A80036; stroke-width: 1.0;"/><polygon fill="#A80036" points="302.59,150.85,306.59,141.85,302.59,145.85,298.59,141.85,302.59,150.85" style="stroke: #A80036; stroke-width: 1.0;"/><text fill="#000000" font-family="sans-serif" font-size="13" lengthAdjust="spacingAndGlyphs" textLength="96" x="371.9127" y="152.6983">IntegerConverter</text><path d="M308.32,91.03 C308.32,91.03 308.32,145.85 308.32,145.85 " fill="none" style="stroke: #A80036; stroke-width: 1.0;"/><polygon fill="#A80036" points="308.32,150.85,312.32,141.85,308.32,145.85,304.32,141.85,308.32,150.85" style="stroke: #A80036; stroke-width: 1.0;"/><text fill="#000000" font-family="sans-serif" font-size="13" lengthAdjust="spacingAndGlyphs" textLength="87" x="210.9246" y="139.6086">ShortConverter</text><path d="M314.05,91.03 C314.05,91.03 314.05,145.85 314.05,145.85 " fill="none" style="stroke: #A80036; stroke-width: 1.0;"/><polygon fill="#A80036" points="314.05,150.85,318.05,141.85,314.05,145.85,310.05,141.85,314.05,150.85" style="stroke: #A80036; stroke-width: 1.0;"/><text fill="#000000" font-family="sans-serif" font-size="13" lengthAdjust="spacingAndGlyphs" textLength="96" x="338.2928" y="139.6086">DoubleConverter</text><path d="M319.77,91.03 C319.77,91.03 319.77,145.85 319.77,145.85 " fill="none" style="stroke: #A80036; stroke-width: 1.0;"/><polygon fill="#A80036" points="319.77,150.85,323.77,141.85,319.77,145.85,315.77,141.85,319.77,150.85" style="stroke: #A80036; stroke-width: 1.0;"/><text fill="#000000" font-family="sans-serif" font-size="13" lengthAdjust="spacingAndGlyphs" textLength="103" x="372.8931" y="157.1864">BooleanConverter</text><path d="M268.23,91.09 C268.23,104.35 268.23,121 268.23,121 C268.23,121 129,121 129,121 C129,121 129,145.91 129,145.91 " fill="none" style="stroke: #A80036; stroke-width: 1.0; stroke-dasharray: 7.0,7.0;"/><polygon fill="#A80036" points="129,150.91,133,141.91,129,145.91,125,141.91,129,150.91" style="stroke: #A80036; stroke-width: 1.0;"/></g></svg>