<?xml version="1.0" encoding="UTF-8" standalone="no"?><svg xmlns="http://www.w3.org/2000/svg" xmlns:xlink="http://www.w3.org/1999/xlink" contentScriptType="application/ecmascript" contentStyleType="text/css" height="728px" preserveAspectRatio="none" style="width:597px;height:728px;" version="1.1" viewBox="0 0 597 728" width="597px" zoomAndPan="magnify"><defs><filter height="300%" id="fw9zatg" width="300%" x="-1" y="-1"><feGaussianBlur result="blurOut" stdDeviation="2.0"/><feColorMatrix in="blurOut" result="blurOut2" type="matrix" values="0 0 0 0 0 0 0 0 0 0 0 0 0 0 0 0 0 0 .4 0"/><feOffset dx="4.0" dy="4.0" in="blurOut2" result="blurOut3"/><feBlend in="SourceGraphic" in2="blurOut3" mode="normal"/></filter></defs><g><!--class it.matlice.ingsw.xml.PrettyXMLStreamWriter--><a target="_parent" xlink:actuate="onRequest" xlink:href="../../../../it/matlice/ingsw/xml/PrettyXMLStreamWriter.html" xlink:show="new" xlink:title="it.matlice.ingsw.xml.PrettyXMLStreamWriter" xlink:type="simple"><rect fill="#FEFECE" filter="url(#fw9zatg)" height="609.1958" style="stroke: #A80036; stroke-width: 1.5;" width="456" x="6" y="8"/><ellipse cx="151.25" cy="27.4" fill="#ADD1B2" rx="11" ry="11" style="stroke: #A80036; stroke-width: 1.0;"/><path d="M146.25,28.5562 C146.25,31.0562 148.3906,32.8687 151.3125,32.8687 C152.5469,32.8687 153.7188,32.5718 154.4688,32.0562 C155.0781,31.6343 155.4063,31.2125 155.4063,30.8062 C155.4063,30.3375 154.9844,29.9312 154.4844,29.9312 C154.25,29.9312 154.0313,30.0093 153.8281,30.2125 C153.3906,30.65 153.3906,30.65 153.2188,30.7437 C152.7656,30.9781 152.125,31.1187 151.3594,31.1187 C149.3594,31.1187 148.0781,30.1031 148.0781,28.525 L148.0781,27.4781 C148.0781,25.775 149.2969,24.5718 151,24.5718 C151.5781,24.5718 152.1563,24.7125 152.625,24.9625 C153.0938,25.2281 153.2656,25.4156 153.3281,25.775 C153.4531,26.4468 153.7031,26.6968 154.2344,26.6968 C154.5156,26.6968 154.7969,26.5562 154.9844,26.3375 C155.1094,26.1656 155.1563,25.9937 155.1563,25.5562 L155.1563,24.1968 C155.1563,23.775 155.1406,23.6343 155.0156,23.4625 C154.8438,23.2125 154.5625,23.0562 154.2344,23.0562 C153.9219,23.0562 153.7188,23.1656 153.5,23.4312 C152.3281,22.9312 151.8906,22.8218 150.9375,22.8218 C148.2656,22.8218 146.25,24.8375 146.25,27.4625 L146.25,28.5562 Z "/><text fill="#000000" font-family="sans-serif" font-size="14" font-weight="bold" lengthAdjust="spacingAndGlyphs" textLength="157" x="171.75" y="26.0059">PrettyXMLStreamWriter</text><text fill="#000000" font-family="sans-serif" font-size="10" lengthAdjust="spacingAndGlyphs" textLength="87" x="206.75" y="39.0899">it.matlice.ingsw.xml</text><line style="stroke: #A80036; stroke-width: 1.5;" x1="7" x2="461" y1="46.7999" y2="46.7999"/><ellipse cx="17" cy="58.8999" fill="none" rx="3" ry="3" style="stroke: #038048; stroke-width: 1.0;"/><text fill="#000000" font-family="sans-serif" font-size="11" lengthAdjust="spacingAndGlyphs" text-decoration="underline" textLength="131" x="26" y="61.0188">String ENCODING_UTF_8</text><line style="stroke: #000000; stroke-width: 1.0;" x1="26" x2="157" y1="63.0188" y2="63.0188"/><ellipse cx="17" cy="72.0998" fill="none" rx="3" ry="3" style="stroke: #038048; stroke-width: 1.0;"/><text fill="#000000" font-family="sans-serif" font-size="11" lengthAdjust="spacingAndGlyphs" text-decoration="underline" textLength="137" x="26" y="74.2187">String ENCODING_UTF_16</text><line style="stroke: #000000; stroke-width: 1.0;" x1="26" x2="163" y1="76.2187" y2="76.2187"/><ellipse cx="17" cy="85.2997" fill="none" rx="3" ry="3" style="stroke: #038048; stroke-width: 1.0;"/><text fill="#000000" font-family="sans-serif" font-size="11" lengthAdjust="spacingAndGlyphs" text-decoration="underline" textLength="132" x="26" y="87.4186">String XML_VERSION_1_0</text><line style="stroke: #000000; stroke-width: 1.0;" x1="26" x2="158" y1="89.4186" y2="89.4186"/><rect fill="none" height="6" style="stroke: #C82930; stroke-width: 1.0;" width="6" x="14" y="95.4996"/><text fill="#000000" font-family="sans-serif" font-size="11" lengthAdjust="spacingAndGlyphs" textLength="116" x="26" y="100.6185">XMLStreamWriter writer</text><rect fill="none" height="6" style="stroke: #C82930; stroke-width: 1.0;" width="6" x="14" y="108.6995"/><text fill="#000000" font-family="sans-serif" font-size="11" lengthAdjust="spacingAndGlyphs" textLength="114" x="26" y="113.8184">Stack&lt;String&gt; tagStack</text><rect fill="none" height="6" style="stroke: #C82930; stroke-width: 1.0;" width="6" x="14" y="121.8994"/><text fill="#000000" font-family="sans-serif" font-size="11" lengthAdjust="spacingAndGlyphs" textLength="114" x="26" y="127.0183">List&lt;String&gt; noNewLine</text><rect fill="none" height="6" style="stroke: #C82930; stroke-width: 1.0;" width="6" x="14" y="135.0993"/><text fill="#000000" font-family="sans-serif" font-size="11" lengthAdjust="spacingAndGlyphs" textLength="36" x="26" y="140.2182">int level</text><line style="stroke: #A80036; stroke-width: 1.5;" x1="7" x2="461" y1="147.1992" y2="147.1992"/><ellipse cx="17" cy="159.2992" fill="#84BE84" rx="3" ry="3" style="stroke: #038048; stroke-width: 1.0;"/><text fill="#000000" font-family="sans-serif" font-size="11" lengthAdjust="spacingAndGlyphs" textLength="430" x="26" y="161.4182">PrettyXMLStreamWriter(String filename,String noNewLine,String encoding,String version)</text><ellipse cx="17" cy="172.4991" fill="#84BE84" rx="3" ry="3" style="stroke: #038048; stroke-width: 1.0;"/><text fill="#000000" font-family="sans-serif" font-size="11" lengthAdjust="spacingAndGlyphs" textLength="282" x="26" y="174.6181">PrettyXMLStreamWriter(String filename,String noNewLine)</text><ellipse cx="17" cy="185.699" fill="#84BE84" rx="3" ry="3" style="stroke: #038048; stroke-width: 1.0;"/><text fill="#000000" font-family="sans-serif" font-size="11" lengthAdjust="spacingAndGlyphs" textLength="194" x="26" y="187.818">PrettyXMLStreamWriter(String filename)</text><ellipse cx="17" cy="198.8989" fill="#84BE84" rx="3" ry="3" style="stroke: #038048; stroke-width: 1.0;"/><text fill="#000000" font-family="sans-serif" font-size="11" lengthAdjust="spacingAndGlyphs" textLength="198" x="26" y="201.0179">void writeStartElement(String localName)</text><ellipse cx="17" cy="212.0988" fill="#84BE84" rx="3" ry="3" style="stroke: #038048; stroke-width: 1.0;"/><text fill="#000000" font-family="sans-serif" font-size="11" lengthAdjust="spacingAndGlyphs" textLength="308" x="26" y="214.2178">void writeStartElement(String namespaceURI,String localName)</text><ellipse cx="17" cy="225.2987" fill="#84BE84" rx="3" ry="3" style="stroke: #038048; stroke-width: 1.0;"/><text fill="#000000" font-family="sans-serif" font-size="11" lengthAdjust="spacingAndGlyphs" textLength="369" x="26" y="227.4177">void writeStartElement(String prefix,String localName,String namespaceURI)</text><ellipse cx="17" cy="238.4986" fill="#84BE84" rx="3" ry="3" style="stroke: #038048; stroke-width: 1.0;"/><text fill="#000000" font-family="sans-serif" font-size="11" lengthAdjust="spacingAndGlyphs" textLength="316" x="26" y="240.6176">void writeEmptyElement(String namespaceURI,String localName)</text><ellipse cx="17" cy="251.6985" fill="#84BE84" rx="3" ry="3" style="stroke: #038048; stroke-width: 1.0;"/><text fill="#000000" font-family="sans-serif" font-size="11" lengthAdjust="spacingAndGlyphs" textLength="377" x="26" y="253.8175">void writeEmptyElement(String prefix,String localName,String namespaceURI)</text><ellipse cx="17" cy="264.8984" fill="#84BE84" rx="3" ry="3" style="stroke: #038048; stroke-width: 1.0;"/><text fill="#000000" font-family="sans-serif" font-size="11" lengthAdjust="spacingAndGlyphs" textLength="206" x="26" y="267.0174">void writeEmptyElement(String localName)</text><ellipse cx="17" cy="278.0983" fill="#84BE84" rx="3" ry="3" style="stroke: #038048; stroke-width: 1.0;"/><text fill="#000000" font-family="sans-serif" font-size="11" lengthAdjust="spacingAndGlyphs" textLength="112" x="26" y="280.2173">void writeEndElement()</text><ellipse cx="17" cy="291.2982" fill="#84BE84" rx="3" ry="3" style="stroke: #038048; stroke-width: 1.0;"/><text fill="#000000" font-family="sans-serif" font-size="11" lengthAdjust="spacingAndGlyphs" textLength="123" x="26" y="293.4172">void writeEndDocument()</text><ellipse cx="17" cy="304.4981" fill="#84BE84" rx="3" ry="3" style="stroke: #038048; stroke-width: 1.0;"/><text fill="#000000" font-family="sans-serif" font-size="11" lengthAdjust="spacingAndGlyphs" textLength="57" x="26" y="306.6171">void close()</text><ellipse cx="17" cy="317.698" fill="#84BE84" rx="3" ry="3" style="stroke: #038048; stroke-width: 1.0;"/><text fill="#000000" font-family="sans-serif" font-size="11" lengthAdjust="spacingAndGlyphs" textLength="54" x="26" y="319.817">void flush()</text><ellipse cx="17" cy="330.8979" fill="#84BE84" rx="3" ry="3" style="stroke: #038048; stroke-width: 1.0;"/><text fill="#000000" font-family="sans-serif" font-size="11" lengthAdjust="spacingAndGlyphs" textLength="236" x="26" y="333.0169">void writeAttribute(String localName,String value)</text><ellipse cx="17" cy="344.0978" fill="#84BE84" rx="3" ry="3" style="stroke: #038048; stroke-width: 1.0;"/><text fill="#000000" font-family="sans-serif" font-size="11" lengthAdjust="spacingAndGlyphs" textLength="407" x="26" y="346.2168">void writeAttribute(String prefix,String namespaceURI,String localName,String value)</text><ellipse cx="17" cy="357.2977" fill="#84BE84" rx="3" ry="3" style="stroke: #038048; stroke-width: 1.0;"/><text fill="#000000" font-family="sans-serif" font-size="11" lengthAdjust="spacingAndGlyphs" textLength="346" x="26" y="359.4167">void writeAttribute(String namespaceURI,String localName,String value)</text><ellipse cx="17" cy="370.4976" fill="#84BE84" rx="3" ry="3" style="stroke: #038048; stroke-width: 1.0;"/><text fill="#000000" font-family="sans-serif" font-size="11" lengthAdjust="spacingAndGlyphs" textLength="281" x="26" y="372.6166">void writeNamespace(String prefix,String namespaceURI)</text><ellipse cx="17" cy="383.6975" fill="#84BE84" rx="3" ry="3" style="stroke: #038048; stroke-width: 1.0;"/><text fill="#000000" font-family="sans-serif" font-size="11" lengthAdjust="spacingAndGlyphs" textLength="254" x="26" y="385.8165">void writeDefaultNamespace(String namespaceURI)</text><ellipse cx="17" cy="396.8974" fill="#84BE84" rx="3" ry="3" style="stroke: #038048; stroke-width: 1.0;"/><text fill="#000000" font-family="sans-serif" font-size="11" lengthAdjust="spacingAndGlyphs" textLength="153" x="26" y="399.0164">void writeComment(String data)</text><ellipse cx="17" cy="410.0973" fill="#84BE84" rx="3" ry="3" style="stroke: #038048; stroke-width: 1.0;"/><text fill="#000000" font-family="sans-serif" font-size="11" lengthAdjust="spacingAndGlyphs" textLength="219" x="26" y="412.2163">void writeProcessingInstruction(String target)</text><ellipse cx="17" cy="423.2972" fill="#84BE84" rx="3" ry="3" style="stroke: #038048; stroke-width: 1.0;"/><text fill="#000000" font-family="sans-serif" font-size="11" lengthAdjust="spacingAndGlyphs" textLength="274" x="26" y="425.4162">void writeProcessingInstruction(String target,String data)</text><ellipse cx="17" cy="436.4971" fill="#84BE84" rx="3" ry="3" style="stroke: #038048; stroke-width: 1.0;"/><text fill="#000000" font-family="sans-serif" font-size="11" lengthAdjust="spacingAndGlyphs" textLength="137" x="26" y="438.6161">void writeCData(String data)</text><ellipse cx="17" cy="449.697" fill="#84BE84" rx="3" ry="3" style="stroke: #038048; stroke-width: 1.0;"/><text fill="#000000" font-family="sans-serif" font-size="11" lengthAdjust="spacingAndGlyphs" textLength="123" x="26" y="451.816">void writeDTD(String dtd)</text><ellipse cx="17" cy="462.8969" fill="#84BE84" rx="3" ry="3" style="stroke: #038048; stroke-width: 1.0;"/><text fill="#000000" font-family="sans-serif" font-size="11" lengthAdjust="spacingAndGlyphs" textLength="156" x="26" y="465.0159">void writeEntityRef(String name)</text><ellipse cx="17" cy="476.0968" fill="#84BE84" rx="3" ry="3" style="stroke: #038048; stroke-width: 1.0;"/><text fill="#000000" font-family="sans-serif" font-size="11" lengthAdjust="spacingAndGlyphs" textLength="127" x="26" y="478.2158">void writeStartDocument()</text><ellipse cx="17" cy="489.2967" fill="#84BE84" rx="3" ry="3" style="stroke: #038048; stroke-width: 1.0;"/><text fill="#000000" font-family="sans-serif" font-size="11" lengthAdjust="spacingAndGlyphs" textLength="194" x="26" y="491.4157">void writeStartDocument(String version)</text><ellipse cx="17" cy="502.4966" fill="#84BE84" rx="3" ry="3" style="stroke: #038048; stroke-width: 1.0;"/><text fill="#000000" font-family="sans-serif" font-size="11" lengthAdjust="spacingAndGlyphs" textLength="272" x="26" y="504.6156">void writeStartDocument(String encoding,String version)</text><ellipse cx="17" cy="515.6965" fill="#84BE84" rx="3" ry="3" style="stroke: #038048; stroke-width: 1.0;"/><text fill="#000000" font-family="sans-serif" font-size="11" lengthAdjust="spacingAndGlyphs" textLength="158" x="26" y="517.8155">void writeCharacters(String text)</text><ellipse cx="17" cy="528.8964" fill="#84BE84" rx="3" ry="3" style="stroke: #038048; stroke-width: 1.0;"/><text fill="#000000" font-family="sans-serif" font-size="11" lengthAdjust="spacingAndGlyphs" textLength="222" x="26" y="531.0154">void writeCharacters(char text,int start,int len)</text><ellipse cx="17" cy="542.0963" fill="#84BE84" rx="3" ry="3" style="stroke: #038048; stroke-width: 1.0;"/><text fill="#000000" font-family="sans-serif" font-size="11" lengthAdjust="spacingAndGlyphs" textLength="125" x="26" y="544.2153">String getPrefix(String uri)</text><ellipse cx="17" cy="555.2962" fill="#84BE84" rx="3" ry="3" style="stroke: #038048; stroke-width: 1.0;"/><text fill="#000000" font-family="sans-serif" font-size="11" lengthAdjust="spacingAndGlyphs" textLength="178" x="26" y="557.4152">void setPrefix(String prefix,String uri)</text><ellipse cx="17" cy="568.4961" fill="#84BE84" rx="3" ry="3" style="stroke: #038048; stroke-width: 1.0;"/><text fill="#000000" font-family="sans-serif" font-size="11" lengthAdjust="spacingAndGlyphs" textLength="182" x="26" y="570.6151">void setDefaultNamespace(String uri)</text><ellipse cx="17" cy="581.696" fill="#84BE84" rx="3" ry="3" style="stroke: #038048; stroke-width: 1.0;"/><text fill="#000000" font-family="sans-serif" font-size="11" lengthAdjust="spacingAndGlyphs" textLength="220" x="26" y="583.815">NamespaceContext getNamespaceContext()</text><ellipse cx="17" cy="594.8959" fill="#84BE84" rx="3" ry="3" style="stroke: #038048; stroke-width: 1.0;"/><text fill="#000000" font-family="sans-serif" font-size="11" lengthAdjust="spacingAndGlyphs" textLength="279" x="26" y="597.0149">void setNamespaceContext(NamespaceContext context)</text><ellipse cx="17" cy="608.0958" fill="#84BE84" rx="3" ry="3" style="stroke: #038048; stroke-width: 1.0;"/><text fill="#000000" font-family="sans-serif" font-size="11" lengthAdjust="spacingAndGlyphs" textLength="158" x="26" y="610.2148">Object getProperty(String name)</text></a><!--class javax.xml.stream.XMLStreamWriter--><rect fill="#D3D3D3" filter="url(#fw9zatg)" height="42.3999" style="stroke: #A80036; stroke-width: 1.5;" width="149" x="71.5" y="677"/><rect fill="#D3D3D3" height="42.3999" style="stroke: #A80036; stroke-width: 1.5;" width="149" x="71.5" y="677"/><ellipse cx="86.5" cy="698.2" fill="#B4A7E5" rx="11" ry="11" style="stroke: #A80036; stroke-width: 1.0;"/><path d="M87.5156,695.3562 L89.1719,695.3562 C89.5625,695.3562 89.7656,695.325 89.9219,695.2468 C90.1875,695.075 90.3594,694.7781 90.3594,694.4812 C90.3594,694.2 90.2188,693.95 89.9844,693.7781 C89.7969,693.6531 89.6406,693.6062 89.1719,693.6062 L84.0313,693.6062 C83.5938,693.6062 83.4531,693.6218 83.2813,693.7312 C83.0156,693.9031 82.8438,694.1843 82.8438,694.4812 C82.8438,694.7625 82.9844,695.0437 83.2188,695.2 C83.4063,695.325 83.5938,695.3562 84.0313,695.3562 L85.6875,695.3562 L85.6875,701.45 L84.0313,701.45 C83.5938,701.45 83.4531,701.4656 83.2813,701.575 C83.0156,701.7312 82.8438,702.0281 82.8438,702.3093 C82.8438,702.9187 83.25,703.2 84.0313,703.2 L89.1719,703.2 C89.9531,703.2 90.3594,702.9187 90.3594,702.3093 C90.3594,702.0437 90.2188,701.7937 89.9844,701.6218 C89.7969,701.4812 89.625,701.45 89.1719,701.45 L87.5156,701.45 L87.5156,695.3562 Z "/><text fill="#000000" font-family="sans-serif" font-size="14" font-style="italic" font-weight="bold" lengthAdjust="spacingAndGlyphs" textLength="117" x="100.5" y="697.3999">XMLStreamWriter</text><text fill="#000000" font-family="sans-serif" font-size="10" font-style="italic" lengthAdjust="spacingAndGlyphs" textLength="76" x="121" y="711.8999">javax.xml.stream</text><!--class java.lang.AutoCloseable--><rect fill="#D3D3D3" filter="url(#fw9zatg)" height="42.3999" style="stroke: #A80036; stroke-width: 1.5;" width="133" x="255.5" y="677"/><rect fill="#D3D3D3" height="42.3999" style="stroke: #A80036; stroke-width: 1.5;" width="133" x="255.5" y="677"/><ellipse cx="270.5" cy="698.2" fill="#B4A7E5" rx="11" ry="11" style="stroke: #A80036; stroke-width: 1.0;"/><path d="M271.5156,695.3562 L273.1719,695.3562 C273.5625,695.3562 273.7656,695.325 273.9219,695.2468 C274.1875,695.075 274.3594,694.7781 274.3594,694.4812 C274.3594,694.2 274.2188,693.95 273.9844,693.7781 C273.7969,693.6531 273.6406,693.6062 273.1719,693.6062 L268.0313,693.6062 C267.5938,693.6062 267.4531,693.6218 267.2813,693.7312 C267.0156,693.9031 266.8438,694.1843 266.8438,694.4812 C266.8438,694.7625 266.9844,695.0437 267.2188,695.2 C267.4063,695.325 267.5938,695.3562 268.0313,695.3562 L269.6875,695.3562 L269.6875,701.45 L268.0313,701.45 C267.5938,701.45 267.4531,701.4656 267.2813,701.575 C267.0156,701.7312 266.8438,702.0281 266.8438,702.3093 C266.8438,702.9187 267.25,703.2 268.0313,703.2 L273.1719,703.2 C273.9531,703.2 274.3594,702.9187 274.3594,702.3093 C274.3594,702.0437 274.2188,701.7937 273.9844,701.6218 C273.7969,701.4812 273.625,701.45 273.1719,701.45 L271.5156,701.45 L271.5156,695.3562 Z "/><text fill="#000000" font-family="sans-serif" font-size="14" font-style="italic" font-weight="bold" lengthAdjust="spacingAndGlyphs" textLength="101" x="284.5" y="697.3999">AutoCloseable</text><text fill="#000000" font-family="sans-serif" font-size="10" font-style="italic" lengthAdjust="spacingAndGlyphs" textLength="42" x="314" y="711.8999">java.lang</text><!--class javax.xml.namespace.NamespaceContext--><rect fill="#D3D3D3" filter="url(#fw9zatg)" height="42.3999" style="stroke: #A80036; stroke-width: 1.5;" width="165" x="423.5" y="677"/><rect fill="#D3D3D3" height="42.3999" style="stroke: #A80036; stroke-width: 1.5;" width="165" x="423.5" y="677"/><ellipse cx="438.5" cy="698.2" fill="#B4A7E5" rx="11" ry="11" style="stroke: #A80036; stroke-width: 1.0;"/><path d="M439.5156,695.3562 L441.1719,695.3562 C441.5625,695.3562 441.7656,695.325 441.9219,695.2468 C442.1875,695.075 442.3594,694.7781 442.3594,694.4812 C442.3594,694.2 442.2188,693.95 441.9844,693.7781 C441.7969,693.6531 441.6406,693.6062 441.1719,693.6062 L436.0313,693.6062 C435.5938,693.6062 435.4531,693.6218 435.2813,693.7312 C435.0156,693.9031 434.8438,694.1843 434.8438,694.4812 C434.8438,694.7625 434.9844,695.0437 435.2188,695.2 C435.4063,695.325 435.5938,695.3562 436.0313,695.3562 L437.6875,695.3562 L437.6875,701.45 L436.0313,701.45 C435.5938,701.45 435.4531,701.4656 435.2813,701.575 C435.0156,701.7312 434.8438,702.0281 434.8438,702.3093 C434.8438,702.9187 435.25,703.2 436.0313,703.2 L441.1719,703.2 C441.9531,703.2 442.3594,702.9187 442.3594,702.3093 C442.3594,702.0437 442.2188,701.7937 441.9844,701.6218 C441.7969,701.4812 441.625,701.45 441.1719,701.45 L439.5156,701.45 L439.5156,695.3562 Z "/><text fill="#000000" font-family="sans-serif" font-size="14" font-style="italic" font-weight="bold" lengthAdjust="spacingAndGlyphs" textLength="133" x="452.5" y="697.3999">NamespaceContext</text><text fill="#000000" font-family="sans-serif" font-size="10" font-style="italic" lengthAdjust="spacingAndGlyphs" textLength="99" x="469.5" y="711.8999">javax.xml.namespace</text><path d="M121.17,617.19 C121.17,617.19 121.17,671.97 121.17,671.97 " fill="none" style="stroke: #A80036; stroke-width: 1.0;"/><polygon fill="#A80036" points="121.17,676.97,125.17,667.97,121.17,671.97,117.17,667.97,121.17,676.97" style="stroke: #A80036; stroke-width: 1.0;"/><text fill="#000000" font-family="sans-serif" font-size="13" lengthAdjust="spacingAndGlyphs" textLength="31" x="77.8189" y="665.3403">writer</text><path d="M170.83,617.19 C170.83,617.19 170.83,656.97 170.83,656.97 " fill="none" style="stroke: #A80036; stroke-width: 1.0; stroke-dasharray: 7.0,7.0;"/><polygon fill="none" points="177.83,656.97,170.83,676.97,163.83,656.97,177.83,656.97" style="stroke: #A80036; stroke-width: 1.0;"/><path d="M322,617.19 C322,617.19 322,656.97 322,656.97 " fill="none" style="stroke: #A80036; stroke-width: 1.0; stroke-dasharray: 7.0,7.0;"/><polygon fill="none" points="329,656.97,322,676.97,315,656.97,329,656.97" style="stroke: #A80036; stroke-width: 1.0;"/><path d="M442.75,617.19 C442.75,617.19 442.75,671.97 442.75,671.97 " fill="none" style="stroke: #A80036; stroke-width: 1.0; stroke-dasharray: 7.0,7.0;"/><polygon fill="#A80036" points="442.75,676.97,446.75,667.97,442.75,671.97,438.75,667.97,442.75,676.97" style="stroke: #A80036; stroke-width: 1.0;"/></g></svg>