<?xml version="1.0" encoding="UTF-8" standalone="no"?><svg xmlns="http://www.w3.org/2000/svg" xmlns:xlink="http://www.w3.org/1999/xlink" contentScriptType="application/ecmascript" contentStyleType="text/css" height="345px" preserveAspectRatio="none" style="width:669px;height:345px;" version="1.1" viewBox="0 0 669 345" width="669px" zoomAndPan="magnify"><defs><filter height="300%" id="f73o4oo" width="300%" x="-1" y="-1"><feGaussianBlur result="blurOut" stdDeviation="2.0"/><feColorMatrix in="blurOut" result="blurOut2" type="matrix" values="0 0 0 0 0 0 0 0 0 0 0 0 0 0 0 0 0 0 .4 0"/><feOffset dx="4.0" dy="4.0" in="blurOut2" result="blurOut3"/><feBlend in="SourceGraphic" in2="blurOut3" mode="normal"/></filter></defs><g><!--class it.matlice.ingsw.xml.Utils--><a target="_parent" xlink:actuate="onRequest" xlink:href="../../../../it/matlice/ingsw/xml/Utils.html" xlink:show="new" xlink:title="it.matlice.ingsw.xml.Utils" xlink:type="simple"><rect fill="#FEFECE" filter="url(#f73o4oo)" height="226.3986" style="stroke: #A80036; stroke-width: 1.5;" width="492" x="6" y="8"/><ellipse cx="204.25" cy="27.4" fill="#ADD1B2" rx="11" ry="11" style="stroke: #A80036; stroke-width: 1.0;"/><path d="M199.25,28.5562 C199.25,31.0562 201.3906,32.8687 204.3125,32.8687 C205.5469,32.8687 206.7188,32.5718 207.4688,32.0562 C208.0781,31.6343 208.4063,31.2125 208.4063,30.8062 C208.4063,30.3375 207.9844,29.9312 207.4844,29.9312 C207.25,29.9312 207.0313,30.0093 206.8281,30.2125 C206.3906,30.65 206.3906,30.65 206.2188,30.7437 C205.7656,30.9781 205.125,31.1187 204.3594,31.1187 C202.3594,31.1187 201.0781,30.1031 201.0781,28.525 L201.0781,27.4781 C201.0781,25.775 202.2969,24.5718 204,24.5718 C204.5781,24.5718 205.1563,24.7125 205.625,24.9625 C206.0938,25.2281 206.2656,25.4156 206.3281,25.775 C206.4531,26.4468 206.7031,26.6968 207.2344,26.6968 C207.5156,26.6968 207.7969,26.5562 207.9844,26.3375 C208.1094,26.1656 208.1563,25.9937 208.1563,25.5562 L208.1563,24.1968 C208.1563,23.775 208.1406,23.6343 208.0156,23.4625 C207.8438,23.2125 207.5625,23.0562 207.2344,23.0562 C206.9219,23.0562 206.7188,23.1656 206.5,23.4312 C205.3281,22.9312 204.8906,22.8218 203.9375,22.8218 C201.2656,22.8218 199.25,24.8375 199.25,27.4625 L199.25,28.5562 Z "/><text fill="#000000" font-family="sans-serif" font-size="14" font-weight="bold" lengthAdjust="spacingAndGlyphs" textLength="31" x="252.75" y="26.0059">Utils</text><text fill="#000000" font-family="sans-serif" font-size="10" lengthAdjust="spacingAndGlyphs" textLength="87" x="224.75" y="39.0899">it.matlice.ingsw.xml</text><line style="stroke: #A80036; stroke-width: 1.5;" x1="7" x2="497" y1="46.7999" y2="46.7999"/><ellipse cx="17" cy="58.8999" fill="none" rx="3" ry="3" style="stroke: #038048; stroke-width: 1.0;"/><text fill="#000000" font-family="sans-serif" font-size="11" lengthAdjust="spacingAndGlyphs" text-decoration="underline" textLength="158" x="26" y="61.0188">XMLConversion StringConverter</text><line style="stroke: #000000; stroke-width: 1.0;" x1="26" x2="184" y1="63.0188" y2="63.0188"/><ellipse cx="17" cy="72.0998" fill="none" rx="3" ry="3" style="stroke: #038048; stroke-width: 1.0;"/><text fill="#000000" font-family="sans-serif" font-size="11" lengthAdjust="spacingAndGlyphs" text-decoration="underline" textLength="174" x="26" y="74.2187">XMLConversion ArrayListConverter</text><line style="stroke: #000000; stroke-width: 1.0;" x1="26" x2="200" y1="76.2187" y2="76.2187"/><ellipse cx="17" cy="85.2997" fill="none" rx="3" ry="3" style="stroke: #038048; stroke-width: 1.0;"/><text fill="#000000" font-family="sans-serif" font-size="11" lengthAdjust="spacingAndGlyphs" text-decoration="underline" textLength="179" x="26" y="87.4186">XMLConversion LinkedListConverter</text><line style="stroke: #000000; stroke-width: 1.0;" x1="26" x2="205" y1="89.4186" y2="89.4186"/><ellipse cx="17" cy="98.4996" fill="none" rx="3" ry="3" style="stroke: #038048; stroke-width: 1.0;"/><text fill="#000000" font-family="sans-serif" font-size="11" lengthAdjust="spacingAndGlyphs" text-decoration="underline" textLength="151" x="26" y="100.6185">XMLConversion MapConverter</text><line style="stroke: #000000; stroke-width: 1.0;" x1="26" x2="177" y1="102.6185" y2="102.6185"/><ellipse cx="17" cy="111.6995" fill="none" rx="3" ry="3" style="stroke: #038048; stroke-width: 1.0;"/><text fill="#000000" font-family="sans-serif" font-size="11" lengthAdjust="spacingAndGlyphs" text-decoration="underline" textLength="148" x="26" y="113.8184">XMLConversion NullConverter</text><line style="stroke: #000000; stroke-width: 1.0;" x1="26" x2="174" y1="115.8184" y2="115.8184"/><ellipse cx="17" cy="124.8994" fill="none" rx="3" ry="3" style="stroke: #038048; stroke-width: 1.0;"/><text fill="#000000" font-family="sans-serif" font-size="11" lengthAdjust="spacingAndGlyphs" text-decoration="underline" textLength="164" x="26" y="127.0183">XMLConversion IntegerConverter</text><line style="stroke: #000000; stroke-width: 1.0;" x1="26" x2="190" y1="129.0183" y2="129.0183"/><ellipse cx="17" cy="138.0993" fill="none" rx="3" ry="3" style="stroke: #038048; stroke-width: 1.0;"/><text fill="#000000" font-family="sans-serif" font-size="11" lengthAdjust="spacingAndGlyphs" text-decoration="underline" textLength="156" x="26" y="140.2182">XMLConversion ShortConverter</text><line style="stroke: #000000; stroke-width: 1.0;" x1="26" x2="182" y1="142.2182" y2="142.2182"/><ellipse cx="17" cy="151.2992" fill="none" rx="3" ry="3" style="stroke: #038048; stroke-width: 1.0;"/><text fill="#000000" font-family="sans-serif" font-size="11" lengthAdjust="spacingAndGlyphs" text-decoration="underline" textLength="164" x="26" y="153.4182">XMLConversion DoubleConverter</text><line style="stroke: #000000; stroke-width: 1.0;" x1="26" x2="190" y1="155.4182" y2="155.4182"/><ellipse cx="17" cy="164.4991" fill="none" rx="3" ry="3" style="stroke: #038048; stroke-width: 1.0;"/><text fill="#000000" font-family="sans-serif" font-size="11" lengthAdjust="spacingAndGlyphs" text-decoration="underline" textLength="169" x="26" y="166.6181">XMLConversion BooleanConverter</text><line style="stroke: #000000; stroke-width: 1.0;" x1="26" x2="195" y1="168.6181" y2="168.6181"/><line style="stroke: #A80036; stroke-width: 1.5;" x1="7" x2="497" y1="173.599" y2="173.599"/><ellipse cx="17" cy="185.699" fill="#84BE84" rx="3" ry="3" style="stroke: #038048; stroke-width: 1.0;"/><text fill="#000000" font-family="sans-serif" font-size="11" lengthAdjust="spacingAndGlyphs" textLength="29" x="26" y="187.818">Utils()</text><ellipse cx="17" cy="198.8989" fill="#84BE84" rx="3" ry="3" style="stroke: #038048; stroke-width: 1.0;"/><text fill="#000000" font-family="sans-serif" font-size="11" lengthAdjust="spacingAndGlyphs" text-decoration="underline" textLength="308" x="26" y="201.0179">XMLConversion AdvBooleanConverter(List&lt;String&gt; trueValues)</text><line style="stroke: #000000; stroke-width: 1.0;" x1="26" x2="334" y1="203.0179" y2="203.0179"/><ellipse cx="17" cy="212.0988" fill="#84BE84" rx="3" ry="3" style="stroke: #038048; stroke-width: 1.0;"/><text fill="#000000" font-family="sans-serif" font-size="11" lengthAdjust="spacingAndGlyphs" text-decoration="underline" textLength="462" x="26" y="214.2178">void XMLWriteString(XMLStreamWriter w,String text,String name,Map&lt;String, String&gt; attributes)</text><line style="stroke: #000000; stroke-width: 1.0;" x1="26" x2="488" y1="216.2178" y2="216.2178"/><ellipse cx="17" cy="225.2987" fill="#84BE84" rx="3" ry="3" style="stroke: #038048; stroke-width: 1.0;"/><text fill="#000000" font-family="sans-serif" font-size="11" lengthAdjust="spacingAndGlyphs" text-decoration="underline" textLength="466" x="26" y="227.4177">void XMLWriteList(XMLStreamWriter w,List&lt;?&gt; array,String name,Map&lt;String, String&gt; attributes)</text><line style="stroke: #000000; stroke-width: 1.0;" x1="26" x2="492" y1="229.4177" y2="229.4177"/></a><!--class it.matlice.ingsw.xml.XMLConversion--><a target="_parent" xlink:actuate="onRequest" xlink:href="../../../../it/matlice/ingsw/xml/XMLConversion.html" xlink:show="new" xlink:title="it.matlice.ingsw.xml.XMLConversion" xlink:type="simple"><rect fill="#FEFECE" filter="url(#f73o4oo)" height="42.3999" style="stroke: #A80036; stroke-width: 1.5;" width="141" x="181.5" y="294"/><ellipse cx="196.5" cy="315.2" fill="#B4A7E5" rx="11" ry="11" style="stroke: #A80036; stroke-width: 1.0;"/><path d="M197.5156,312.3562 L199.1719,312.3562 C199.5625,312.3562 199.7656,312.325 199.9219,312.2468 C200.1875,312.075 200.3594,311.7781 200.3594,311.4812 C200.3594,311.2 200.2188,310.95 199.9844,310.7781 C199.7969,310.6531 199.6406,310.6062 199.1719,310.6062 L194.0313,310.6062 C193.5938,310.6062 193.4531,310.6218 193.2813,310.7312 C193.0156,310.9031 192.8438,311.1843 192.8438,311.4812 C192.8438,311.7625 192.9844,312.0437 193.2188,312.2 C193.4063,312.325 193.5938,312.3562 194.0313,312.3562 L195.6875,312.3562 L195.6875,318.45 L194.0313,318.45 C193.5938,318.45 193.4531,318.4656 193.2813,318.575 C193.0156,318.7312 192.8438,319.0281 192.8438,319.3093 C192.8438,319.9187 193.25,320.2 194.0313,320.2 L199.1719,320.2 C199.9531,320.2 200.3594,319.9187 200.3594,319.3093 C200.3594,319.0437 200.2188,318.7937 199.9844,318.6218 C199.7969,318.4812 199.625,318.45 199.1719,318.45 L197.5156,318.45 L197.5156,312.3562 Z "/><text fill="#000000" font-family="sans-serif" font-size="14" font-style="italic" font-weight="bold" lengthAdjust="spacingAndGlyphs" textLength="109" x="210.5" y="314.3999">XMLConversion</text><text fill="#000000" font-family="sans-serif" font-size="10" font-style="italic" lengthAdjust="spacingAndGlyphs" textLength="87" x="221.5" y="328.8999">it.matlice.ingsw.xml</text></a><!--class javax.xml.stream.XMLStreamWriter--><rect fill="#D3D3D3" filter="url(#f73o4oo)" height="42.3999" style="stroke: #A80036; stroke-width: 1.5;" width="149" x="357.5" y="294"/><rect fill="#D3D3D3" height="42.3999" style="stroke: #A80036; stroke-width: 1.5;" width="149" x="357.5" y="294"/><ellipse cx="372.5" cy="315.2" fill="#B4A7E5" rx="11" ry="11" style="stroke: #A80036; stroke-width: 1.0;"/><path d="M373.5156,312.3562 L375.1719,312.3562 C375.5625,312.3562 375.7656,312.325 375.9219,312.2468 C376.1875,312.075 376.3594,311.7781 376.3594,311.4812 C376.3594,311.2 376.2188,310.95 375.9844,310.7781 C375.7969,310.6531 375.6406,310.6062 375.1719,310.6062 L370.0313,310.6062 C369.5938,310.6062 369.4531,310.6218 369.2813,310.7312 C369.0156,310.9031 368.8438,311.1843 368.8438,311.4812 C368.8438,311.7625 368.9844,312.0437 369.2188,312.2 C369.4063,312.325 369.5938,312.3562 370.0313,312.3562 L371.6875,312.3562 L371.6875,318.45 L370.0313,318.45 C369.5938,318.45 369.4531,318.4656 369.2813,318.575 C369.0156,318.7312 368.8438,319.0281 368.8438,319.3093 C368.8438,319.9187 369.25,320.2 370.0313,320.2 L375.1719,320.2 C375.9531,320.2 376.3594,319.9187 376.3594,319.3093 C376.3594,319.0437 376.2188,318.7937 375.9844,318.6218 C375.7969,318.4812 375.625,318.45 375.1719,318.45 L373.5156,318.45 L373.5156,312.3562 Z "/><text fill="#000000" font-family="sans-serif" font-size="14" font-style="italic" font-weight="bold" lengthAdjust="spacingAndGlyphs" textLength="117" x="386.5" y="314.3999">XMLStreamWriter</text><text fill="#000000" font-family="sans-serif" font-size="10" font-style="italic" lengthAdjust="spacingAndGlyphs" textLength="76" x="407" y="328.8999">javax.xml.stream</text><!--class it.matlice.ingsw.xml.XMLWritable--><a target="_parent" xlink:actuate="onRequest" xlink:href="../../../../it/matlice/ingsw/xml/XMLWritable.html" xlink:show="new" xlink:title="it.matlice.ingsw.xml.XMLWritable" xlink:type="simple"><rect fill="#FEFECE" filter="url(#f73o4oo)" height="42.3999" style="stroke: #A80036; stroke-width: 1.5;" width="119" x="541.5" y="294"/><ellipse cx="556.5" cy="315.2" fill="#B4A7E5" rx="11" ry="11" style="stroke: #A80036; stroke-width: 1.0;"/><path d="M557.5156,312.3562 L559.1719,312.3562 C559.5625,312.3562 559.7656,312.325 559.9219,312.2468 C560.1875,312.075 560.3594,311.7781 560.3594,311.4812 C560.3594,311.2 560.2188,310.95 559.9844,310.7781 C559.7969,310.6531 559.6406,310.6062 559.1719,310.6062 L554.0313,310.6062 C553.5938,310.6062 553.4531,310.6218 553.2813,310.7312 C553.0156,310.9031 552.8438,311.1843 552.8438,311.4812 C552.8438,311.7625 552.9844,312.0437 553.2188,312.2 C553.4063,312.325 553.5938,312.3562 554.0313,312.3562 L555.6875,312.3562 L555.6875,318.45 L554.0313,318.45 C553.5938,318.45 553.4531,318.4656 553.2813,318.575 C553.0156,318.7312 552.8438,319.0281 552.8438,319.3093 C552.8438,319.9187 553.25,320.2 554.0313,320.2 L559.1719,320.2 C559.9531,320.2 560.3594,319.9187 560.3594,319.3093 C560.3594,319.0437 560.2188,318.7937 559.9844,318.6218 C559.7969,318.4812 559.625,318.45 559.1719,318.45 L557.5156,318.45 L557.5156,312.3562 Z "/><text fill="#000000" font-family="sans-serif" font-size="14" font-style="italic" font-weight="bold" lengthAdjust="spacingAndGlyphs" textLength="86" x="571" y="314.3999">XMLWritable</text><text fill="#000000" font-family="sans-serif" font-size="10" font-style="italic" lengthAdjust="spacingAndGlyphs" textLength="87" x="570.5" y="328.8999">it.matlice.ingsw.xml</text></a><path d="M195.6,234.13 C195.6,234.13 195.6,288.92 195.6,288.92 " fill="none" style="stroke: #A80036; stroke-width: 1.0;"/><polygon fill="#A80036" points="195.6,293.92,199.6,284.92,195.6,288.92,191.6,284.92,195.6,293.92" style="stroke: #A80036; stroke-width: 1.0;"/><text fill="#000000" font-family="sans-serif" font-size="13" lengthAdjust="spacingAndGlyphs" textLength="90" x="83.4187" y="284.767">StringConverter</text><path d="M209.7,234.13 C209.7,234.13 209.7,288.92 209.7,288.92 " fill="none" style="stroke: #A80036; stroke-width: 1.0;"/><polygon fill="#A80036" points="209.7,293.92,213.7,284.92,209.7,288.92,205.7,284.92,209.7,293.92" style="stroke: #A80036; stroke-width: 1.0;"/><text fill="#000000" font-family="sans-serif" font-size="13" lengthAdjust="spacingAndGlyphs" textLength="108" x="213.1369" y="282.631">ArrayListConverter</text><path d="M223.8,234.13 C223.8,234.13 223.8,288.92 223.8,288.92 " fill="none" style="stroke: #A80036; stroke-width: 1.0;"/><polygon fill="#A80036" points="223.8,293.92,227.8,284.92,223.8,288.92,219.8,284.92,223.8,293.92" style="stroke: #A80036; stroke-width: 1.0;"/><text fill="#000000" font-family="sans-serif" font-size="13" lengthAdjust="spacingAndGlyphs" textLength="115" x="58.4512" y="298.0775">LinkedListConverter</text><path d="M237.9,234.13 C237.9,234.13 237.9,288.92 237.9,288.92 " fill="none" style="stroke: #A80036; stroke-width: 1.0;"/><polygon fill="#A80036" points="237.9,293.92,241.9,284.92,237.9,288.92,233.9,284.92,237.9,293.92" style="stroke: #A80036; stroke-width: 1.0;"/><text fill="#000000" font-family="sans-serif" font-size="13" lengthAdjust="spacingAndGlyphs" textLength="81" x="140.8613" y="282.631">MapConverter</text><path d="M252,234.13 C252,234.13 252,288.92 252,288.92 " fill="none" style="stroke: #A80036; stroke-width: 1.0;"/><polygon fill="#A80036" points="252,293.92,256,284.92,252,288.92,248,284.92,252,293.92" style="stroke: #A80036; stroke-width: 1.0;"/><text fill="#000000" font-family="sans-serif" font-size="13" lengthAdjust="spacingAndGlyphs" textLength="78" x="263.4563" y="282.631">NullConverter</text><path d="M266.1,234.13 C266.1,234.13 266.1,288.92 266.1,288.92 " fill="none" style="stroke: #A80036; stroke-width: 1.0;"/><polygon fill="#A80036" points="266.1,293.92,270.1,284.92,266.1,288.92,262.1,284.92,266.1,293.92" style="stroke: #A80036; stroke-width: 1.0;"/><text fill="#000000" font-family="sans-serif" font-size="13" lengthAdjust="spacingAndGlyphs" textLength="96" x="310.4268" y="282.4555">IntegerConverter</text><path d="M280.2,234.13 C280.2,234.13 280.2,288.92 280.2,288.92 " fill="none" style="stroke: #A80036; stroke-width: 1.0;"/><polygon fill="#A80036" points="280.2,293.92,284.2,284.92,280.2,288.92,276.2,284.92,280.2,293.92" style="stroke: #A80036; stroke-width: 1.0;"/><text fill="#000000" font-family="sans-serif" font-size="13" lengthAdjust="spacingAndGlyphs" textLength="87" x="300.8529" y="282.4583">ShortConverter</text><path d="M294.3,234.13 C294.3,234.13 294.3,288.92 294.3,288.92 " fill="none" style="stroke: #A80036; stroke-width: 1.0;"/><polygon fill="#A80036" points="294.3,293.92,298.3,284.92,294.3,288.92,290.3,284.92,294.3,293.92" style="stroke: #A80036; stroke-width: 1.0;"/><text fill="#000000" font-family="sans-serif" font-size="13" lengthAdjust="spacingAndGlyphs" textLength="96" x="320.5295" y="282.4583">DoubleConverter</text><path d="M308.4,234.13 C308.4,234.13 308.4,288.92 308.4,288.92 " fill="none" style="stroke: #A80036; stroke-width: 1.0;"/><polygon fill="#A80036" points="308.4,293.92,312.4,284.92,308.4,288.92,304.4,284.92,308.4,293.92" style="stroke: #A80036; stroke-width: 1.0;"/><text fill="#000000" font-family="sans-serif" font-size="13" lengthAdjust="spacingAndGlyphs" textLength="103" x="284.7875" y="282.4071">BooleanConverter</text><path d="M427.75,234.13 C427.75,234.13 427.75,288.92 427.75,288.92 " fill="none" style="stroke: #A80036; stroke-width: 1.0; stroke-dasharray: 7.0,7.0;"/><polygon fill="#A80036" points="427.75,293.92,431.75,284.92,427.75,288.92,423.75,284.92,427.75,293.92" style="stroke: #A80036; stroke-width: 1.0;"/><path d="M498.18,121 C555.93,121 601,121 601,121 C601,121 601,288.87 601,288.87 " fill="none" style="stroke: #A80036; stroke-width: 1.0; stroke-dasharray: 7.0,7.0;"/><polygon fill="#A80036" points="601,293.87,605,284.87,601,288.87,597,284.87,601,293.87" style="stroke: #A80036; stroke-width: 1.0;"/></g></svg>