<?xml version="1.0" encoding="UTF-8" standalone="no"?><svg xmlns="http://www.w3.org/2000/svg" xmlns:xlink="http://www.w3.org/1999/xlink" contentScriptType="application/ecmascript" contentStyleType="text/css" height="287px" preserveAspectRatio="none" style="width:682px;height:287px;" version="1.1" viewBox="0 0 682 287" width="682px" zoomAndPan="magnify"><defs><filter height="300%" id="fh5wl71" width="300%" x="-1" y="-1"><feGaussianBlur result="blurOut" stdDeviation="2.0"/><feColorMatrix in="blurOut" result="blurOut2" type="matrix" values="0 0 0 0 0 0 0 0 0 0 0 0 0 0 0 0 0 0 .4 0"/><feOffset dx="4.0" dy="4.0" in="blurOut2" result="blurOut3"/><feBlend in="SourceGraphic" in2="blurOut3" mode="normal"/></filter></defs><g><!--class it.matlice.ingsw.xml.XMLConversion--><a target="_parent" xlink:actuate="onRequest" xlink:href="../../../../it/matlice/ingsw/xml/XMLConversion.html" xlink:show="new" xlink:title="it.matlice.ingsw.xml.XMLConversion" xlink:type="simple"><rect fill="#FEFECE" filter="url(#fh5wl71)" height="73.2498" style="stroke: #A80036; stroke-width: 1.5;" width="520" x="6" y="107"/><ellipse cx="207.25" cy="128.2" fill="#B4A7E5" rx="11" ry="11" style="stroke: #A80036; stroke-width: 1.0;"/><path d="M208.2656,125.3562 L209.9219,125.3562 C210.3125,125.3562 210.5156,125.325 210.6719,125.2468 C210.9375,125.075 211.1094,124.7781 211.1094,124.4812 C211.1094,124.2 210.9688,123.95 210.7344,123.7781 C210.5469,123.6531 210.3906,123.6062 209.9219,123.6062 L204.7813,123.6062 C204.3438,123.6062 204.2031,123.6218 204.0313,123.7312 C203.7656,123.9031 203.5938,124.1843 203.5938,124.4812 C203.5938,124.7625 203.7344,125.0437 203.9688,125.2 C204.1563,125.325 204.3438,125.3562 204.7813,125.3562 L206.4375,125.3562 L206.4375,131.45 L204.7813,131.45 C204.3438,131.45 204.2031,131.4656 204.0313,131.575 C203.7656,131.7312 203.5938,132.0281 203.5938,132.3093 C203.5938,132.9187 204,133.2 204.7813,133.2 L209.9219,133.2 C210.7031,133.2 211.1094,132.9187 211.1094,132.3093 C211.1094,132.0437 210.9688,131.7937 210.7344,131.6218 C210.5469,131.4812 210.375,131.45 209.9219,131.45 L208.2656,131.45 L208.2656,125.3562 Z "/><text fill="#000000" font-family="sans-serif" font-size="14" font-style="italic" font-weight="bold" lengthAdjust="spacingAndGlyphs" textLength="109" x="227.75" y="127.3999">XMLConversion</text><text fill="#000000" font-family="sans-serif" font-size="10" font-style="italic" lengthAdjust="spacingAndGlyphs" textLength="87" x="238.75" y="141.8999">it.matlice.ingsw.xml</text><line style="stroke: #A80036; stroke-width: 1.5;" x1="7" x2="525" y1="149.3999" y2="149.3999"/><line style="stroke: #A80036; stroke-width: 1.5;" x1="7" x2="525" y1="157.3999" y2="157.3999"/><ellipse cx="17" cy="170.3248" fill="#84BE84" rx="3" ry="3" style="stroke: #038048; stroke-width: 1.0;"/><text fill="#000000" font-family="sans-serif" font-size="11" font-style="italic" lengthAdjust="spacingAndGlyphs" textLength="494" x="26" y="173.4998">Object convert(XMLNode node,TreeMap&lt;String, Object&gt; children,XMLNode parent,MapNode dinasty)</text></a><!--class it.matlice.ingsw.model.data.impl.jdbc.XMLImport--><a target="_parent" xlink:actuate="onRequest" xlink:href="../../../../it/matlice/ingsw/model/data/impl/jdbc/XMLImport.html" xlink:show="new" xlink:title="it.matlice.ingsw.model.data.impl.jdbc.XMLImport" xlink:type="simple"><rect fill="#FFFFFF" filter="url(#fh5wl71)" height="38.7999" style="stroke: #A80036; stroke-width: 1.5;" width="199" x="166.5" y="8"/><rect fill="#FFFFFF" height="38.7999" style="stroke: #A80036; stroke-width: 1.5;" width="199" x="166.5" y="8"/><ellipse cx="181.5" cy="27.4" fill="#ADD1B2" rx="11" ry="11" style="stroke: #A80036; stroke-width: 1.0;"/><path d="M176.5,28.5562 C176.5,31.0562 178.6406,32.8687 181.5625,32.8687 C182.7969,32.8687 183.9688,32.5718 184.7188,32.0562 C185.3281,31.6343 185.6563,31.2125 185.6563,30.8062 C185.6563,30.3375 185.2344,29.9312 184.7344,29.9312 C184.5,29.9312 184.2813,30.0093 184.0781,30.2125 C183.6406,30.65 183.6406,30.65 183.4688,30.7437 C183.0156,30.9781 182.375,31.1187 181.6094,31.1187 C179.6094,31.1187 178.3281,30.1031 178.3281,28.525 L178.3281,27.4781 C178.3281,25.775 179.5469,24.5718 181.25,24.5718 C181.8281,24.5718 182.4063,24.7125 182.875,24.9625 C183.3438,25.2281 183.5156,25.4156 183.5781,25.775 C183.7031,26.4468 183.9531,26.6968 184.4844,26.6968 C184.7656,26.6968 185.0469,26.5562 185.2344,26.3375 C185.3594,26.1656 185.4063,25.9937 185.4063,25.5562 L185.4063,24.1968 C185.4063,23.775 185.3906,23.6343 185.2656,23.4625 C185.0938,23.2125 184.8125,23.0562 184.4844,23.0562 C184.1719,23.0562 183.9688,23.1656 183.75,23.4312 C182.5781,22.9312 182.1406,22.8218 181.1875,22.8218 C178.5156,22.8218 176.5,24.8375 176.5,27.4625 L176.5,28.5562 Z "/><text fill="#000000" font-family="sans-serif" font-size="14" font-weight="bold" lengthAdjust="spacingAndGlyphs" textLength="74" x="242" y="26.0059">XMLImport</text><text fill="#000000" font-family="sans-serif" font-size="10" lengthAdjust="spacingAndGlyphs" textLength="167" x="195.5" y="39.0899">it.matlice.ingsw.model.data.impl.jdbc</text></a><!--class it.matlice.ingsw.xml.XMLParser--><a target="_parent" xlink:actuate="onRequest" xlink:href="../../../../it/matlice/ingsw/xml/XMLParser.html" xlink:show="new" xlink:title="it.matlice.ingsw.xml.XMLParser" xlink:type="simple"><rect fill="#FEFECE" filter="url(#fh5wl71)" height="38.7999" style="stroke: #A80036; stroke-width: 1.5;" width="119" x="400.5" y="8"/><ellipse cx="415.5" cy="27.4" fill="#ADD1B2" rx="11" ry="11" style="stroke: #A80036; stroke-width: 1.0;"/><path d="M410.5,28.5562 C410.5,31.0562 412.6406,32.8687 415.5625,32.8687 C416.7969,32.8687 417.9688,32.5718 418.7188,32.0562 C419.3281,31.6343 419.6563,31.2125 419.6563,30.8062 C419.6563,30.3375 419.2344,29.9312 418.7344,29.9312 C418.5,29.9312 418.2813,30.0093 418.0781,30.2125 C417.6406,30.65 417.6406,30.65 417.4688,30.7437 C417.0156,30.9781 416.375,31.1187 415.6094,31.1187 C413.6094,31.1187 412.3281,30.1031 412.3281,28.525 L412.3281,27.4781 C412.3281,25.775 413.5469,24.5718 415.25,24.5718 C415.8281,24.5718 416.4063,24.7125 416.875,24.9625 C417.3438,25.2281 417.5156,25.4156 417.5781,25.775 C417.7031,26.4468 417.9531,26.6968 418.4844,26.6968 C418.7656,26.6968 419.0469,26.5562 419.2344,26.3375 C419.3594,26.1656 419.4063,25.9937 419.4063,25.5562 L419.4063,24.1968 C419.4063,23.775 419.3906,23.6343 419.2656,23.4625 C419.0938,23.2125 418.8125,23.0562 418.4844,23.0562 C418.1719,23.0562 417.9688,23.1656 417.75,23.4312 C416.5781,22.9312 416.1406,22.8218 415.1875,22.8218 C412.5156,22.8218 410.5,24.8375 410.5,27.4625 L410.5,28.5562 Z "/><text fill="#000000" font-family="sans-serif" font-size="14" font-weight="bold" lengthAdjust="spacingAndGlyphs" textLength="73" x="436.5" y="26.0059">XMLParser</text><text fill="#000000" font-family="sans-serif" font-size="10" lengthAdjust="spacingAndGlyphs" textLength="87" x="429.5" y="39.0899">it.matlice.ingsw.xml</text></a><!--class it.matlice.ingsw.xml.XMLNode--><a target="_parent" xlink:actuate="onRequest" xlink:href="../../../../it/matlice/ingsw/xml/XMLNode.html" xlink:show="new" xlink:title="it.matlice.ingsw.xml.XMLNode" xlink:type="simple"><rect fill="#FEFECE" filter="url(#fh5wl71)" height="38.7999" style="stroke: #A80036; stroke-width: 1.5;" width="119" x="128.5" y="240"/><ellipse cx="143.5" cy="259.4" fill="#ADD1B2" rx="11" ry="11" style="stroke: #A80036; stroke-width: 1.0;"/><path d="M138.5,260.5562 C138.5,263.0562 140.6406,264.8687 143.5625,264.8687 C144.7969,264.8687 145.9688,264.5718 146.7188,264.0562 C147.3281,263.6343 147.6563,263.2125 147.6563,262.8062 C147.6563,262.3375 147.2344,261.9312 146.7344,261.9312 C146.5,261.9312 146.2813,262.0093 146.0781,262.2125 C145.6406,262.65 145.6406,262.65 145.4688,262.7437 C145.0156,262.9781 144.375,263.1187 143.6094,263.1187 C141.6094,263.1187 140.3281,262.1031 140.3281,260.525 L140.3281,259.4781 C140.3281,257.775 141.5469,256.5718 143.25,256.5718 C143.8281,256.5718 144.4063,256.7125 144.875,256.9625 C145.3438,257.2281 145.5156,257.4156 145.5781,257.775 C145.7031,258.4468 145.9531,258.6968 146.4844,258.6968 C146.7656,258.6968 147.0469,258.5562 147.2344,258.3375 C147.3594,258.1656 147.4063,257.9937 147.4063,257.5562 L147.4063,256.1968 C147.4063,255.775 147.3906,255.6343 147.2656,255.4625 C147.0938,255.2125 146.8125,255.0562 146.4844,255.0562 C146.1719,255.0562 145.9688,255.1656 145.75,255.4312 C144.5781,254.9312 144.1406,254.8218 143.1875,254.8218 C140.5156,254.8218 138.5,256.8375 138.5,259.4625 L138.5,260.5562 Z "/><text fill="#000000" font-family="sans-serif" font-size="14" font-weight="bold" lengthAdjust="spacingAndGlyphs" textLength="66" x="168" y="258.0059">XMLNode</text><text fill="#000000" font-family="sans-serif" font-size="10" lengthAdjust="spacingAndGlyphs" textLength="87" x="157.5" y="271.0899">it.matlice.ingsw.xml</text></a><!--class it.matlice.ingsw.tree.MapNode--><a target="_parent" xlink:actuate="onRequest" xlink:href="../../../../it/matlice/ingsw/tree/MapNode.html" xlink:show="new" xlink:title="it.matlice.ingsw.tree.MapNode" xlink:type="simple"><rect fill="#FFFFFF" filter="url(#fh5wl71)" height="38.7999" style="stroke: #A80036; stroke-width: 1.5;" width="122" x="283" y="240"/><rect fill="#FFFFFF" height="38.7999" style="stroke: #A80036; stroke-width: 1.5;" width="122" x="283" y="240"/><ellipse cx="298" cy="259.4" fill="#ADD1B2" rx="11" ry="11" style="stroke: #A80036; stroke-width: 1.0;"/><path d="M293,260.5562 C293,263.0562 295.1406,264.8687 298.0625,264.8687 C299.2969,264.8687 300.4688,264.5718 301.2188,264.0562 C301.8281,263.6343 302.1563,263.2125 302.1563,262.8062 C302.1563,262.3375 301.7344,261.9312 301.2344,261.9312 C301,261.9312 300.7813,262.0093 300.5781,262.2125 C300.1406,262.65 300.1406,262.65 299.9688,262.7437 C299.5156,262.9781 298.875,263.1187 298.1094,263.1187 C296.1094,263.1187 294.8281,262.1031 294.8281,260.525 L294.8281,259.4781 C294.8281,257.775 296.0469,256.5718 297.75,256.5718 C298.3281,256.5718 298.9063,256.7125 299.375,256.9625 C299.8438,257.2281 300.0156,257.4156 300.0781,257.775 C300.2031,258.4468 300.4531,258.6968 300.9844,258.6968 C301.2656,258.6968 301.5469,258.5562 301.7344,258.3375 C301.8594,258.1656 301.9063,257.9937 301.9063,257.5562 L301.9063,256.1968 C301.9063,255.775 301.8906,255.6343 301.7656,255.4625 C301.5938,255.2125 301.3125,255.0562 300.9844,255.0562 C300.6719,255.0562 300.4688,255.1656 300.25,255.4312 C299.0781,254.9312 298.6406,254.8218 297.6875,254.8218 C295.0156,254.8218 293,256.8375 293,259.4625 L293,260.5562 Z "/><text fill="#000000" font-family="sans-serif" font-size="14" font-weight="bold" lengthAdjust="spacingAndGlyphs" textLength="65" x="324.5" y="258.0059">MapNode</text><text fill="#000000" font-family="sans-serif" font-size="10" lengthAdjust="spacingAndGlyphs" textLength="90" x="312" y="271.0899">it.matlice.ingsw.tree</text></a><!--class it.matlice.ingsw.xml.Utils--><a target="_parent" xlink:actuate="onRequest" xlink:href="../../../../it/matlice/ingsw/xml/Utils.html" xlink:show="new" xlink:title="it.matlice.ingsw.xml.Utils" xlink:type="simple"><rect fill="#FEFECE" filter="url(#fh5wl71)" height="38.7999" style="stroke: #A80036; stroke-width: 1.5;" width="119" x="554.5" y="8"/><ellipse cx="569.5" cy="27.4" fill="#ADD1B2" rx="11" ry="11" style="stroke: #A80036; stroke-width: 1.0;"/><path d="M564.5,28.5562 C564.5,31.0562 566.6406,32.8687 569.5625,32.8687 C570.7969,32.8687 571.9688,32.5718 572.7188,32.0562 C573.3281,31.6343 573.6563,31.2125 573.6563,30.8062 C573.6563,30.3375 573.2344,29.9312 572.7344,29.9312 C572.5,29.9312 572.2813,30.0093 572.0781,30.2125 C571.6406,30.65 571.6406,30.65 571.4688,30.7437 C571.0156,30.9781 570.375,31.1187 569.6094,31.1187 C567.6094,31.1187 566.3281,30.1031 566.3281,28.525 L566.3281,27.4781 C566.3281,25.775 567.5469,24.5718 569.25,24.5718 C569.8281,24.5718 570.4063,24.7125 570.875,24.9625 C571.3438,25.2281 571.5156,25.4156 571.5781,25.775 C571.7031,26.4468 571.9531,26.6968 572.4844,26.6968 C572.7656,26.6968 573.0469,26.5562 573.2344,26.3375 C573.3594,26.1656 573.4063,25.9937 573.4063,25.5562 L573.4063,24.1968 C573.4063,23.775 573.3906,23.6343 573.2656,23.4625 C573.0938,23.2125 572.8125,23.0562 572.4844,23.0562 C572.1719,23.0562 571.9688,23.1656 571.75,23.4312 C570.5781,22.9312 570.1406,22.8218 569.1875,22.8218 C566.5156,22.8218 564.5,24.8375 564.5,27.4625 L564.5,28.5562 Z "/><text fill="#000000" font-family="sans-serif" font-size="14" font-weight="bold" lengthAdjust="spacingAndGlyphs" textLength="31" x="611.5" y="26.0059">Utils</text><text fill="#000000" font-family="sans-serif" font-size="10" lengthAdjust="spacingAndGlyphs" textLength="87" x="583.5" y="39.0899">it.matlice.ingsw.xml</text></a><path d="M180.71,47.18 C180.71,47.18 180.71,101.81 180.71,101.81 " fill="none" style="stroke: #A80036; stroke-width: 1.0;"/><polygon fill="#A80036" points="180.71,106.81,184.71,97.81,180.71,101.81,176.71,97.81,180.71,106.81" style="stroke: #A80036; stroke-width: 1.0;"/><text fill="#000000" font-family="sans-serif" font-size="13" lengthAdjust="spacingAndGlyphs" textLength="79" x="77.9219" y="95.4967">DayConverter</text><path d="M194.93,47.18 C194.93,47.18 194.93,101.81 194.93,101.81 " fill="none" style="stroke: #A80036; stroke-width: 1.0;"/><polygon fill="#A80036" points="194.93,106.81,198.93,97.81,194.93,101.81,190.93,97.81,194.93,106.81" style="stroke: #A80036; stroke-width: 1.0;"/><text fill="#000000" font-family="sans-serif" font-size="13" lengthAdjust="spacingAndGlyphs" textLength="86" x="189.5792" y="95.4967">DaysConverter</text><path d="M209.14,47.18 C209.14,47.18 209.14,101.81 209.14,101.81 " fill="none" style="stroke: #A80036; stroke-width: 1.0;"/><polygon fill="#A80036" points="209.14,106.81,213.14,97.81,209.14,101.81,205.14,97.81,209.14,106.81" style="stroke: #A80036; stroke-width: 1.0;"/><text fill="#000000" font-family="sans-serif" font-size="13" lengthAdjust="spacingAndGlyphs" textLength="99" x="207.737" y="95.4967">IntervalConverter</text><path d="M223.36,47.18 C223.36,47.18 223.36,101.81 223.36,101.81 " fill="none" style="stroke: #A80036; stroke-width: 1.0;"/><polygon fill="#A80036" points="223.36,106.81,227.36,97.81,223.36,101.81,219.36,97.81,223.36,106.81" style="stroke: #A80036; stroke-width: 1.0;"/><text fill="#000000" font-family="sans-serif" font-size="13" lengthAdjust="spacingAndGlyphs" textLength="106" x="231.907" y="94.9497">IntervalsConverter</text><path d="M237.57,47.18 C237.57,47.18 237.57,101.81 237.57,101.81 " fill="none" style="stroke: #A80036; stroke-width: 1.0;"/><polygon fill="#A80036" points="237.57,106.81,241.57,97.81,237.57,101.81,233.57,97.81,237.57,106.81" style="stroke: #A80036; stroke-width: 1.0;"/><text fill="#000000" font-family="sans-serif" font-size="13" lengthAdjust="spacingAndGlyphs" textLength="121" x="243.6833" y="95.4967">StringArrayConverter</text><path d="M251.79,47.18 C251.79,47.18 251.79,101.81 251.79,101.81 " fill="none" style="stroke: #A80036; stroke-width: 1.0;"/><polygon fill="#A80036" points="251.79,106.81,255.79,97.81,251.79,101.81,247.79,97.81,251.79,106.81" style="stroke: #A80036; stroke-width: 1.0;"/><text fill="#000000" font-family="sans-serif" font-size="13" lengthAdjust="spacingAndGlyphs" textLength="84" x="121.4167" y="94.9497">FieldConverter</text><path d="M266,47.18 C266,47.18 266,101.81 266,101.81 " fill="none" style="stroke: #A80036; stroke-width: 1.0;"/><polygon fill="#A80036" points="266,106.81,270,97.81,266,101.81,262,97.81,266,106.81" style="stroke: #A80036; stroke-width: 1.0;"/><text fill="#000000" font-family="sans-serif" font-size="13" lengthAdjust="spacingAndGlyphs" textLength="91" x="274.6734" y="95.4967">FieldsConverter</text><path d="M280.21,47.18 C280.21,47.18 280.21,101.81 280.21,101.81 " fill="none" style="stroke: #A80036; stroke-width: 1.0;"/><polygon fill="#A80036" points="280.21,106.81,284.21,97.81,280.21,101.81,276.21,97.81,280.21,106.81" style="stroke: #A80036; stroke-width: 1.0;"/><text fill="#000000" font-family="sans-serif" font-size="13" lengthAdjust="spacingAndGlyphs" textLength="108" x="336.4833" y="94.9497">CategoryConverter</text><path d="M294.43,47.18 C294.43,47.18 294.43,101.81 294.43,101.81 " fill="none" style="stroke: #A80036; stroke-width: 1.0;"/><polygon fill="#A80036" points="294.43,106.81,298.43,97.81,294.43,101.81,290.43,97.81,294.43,106.81" style="stroke: #A80036; stroke-width: 1.0;"/><text fill="#000000" font-family="sans-serif" font-size="13" lengthAdjust="spacingAndGlyphs" textLength="103" x="309.6667" y="95.4967">ChildrenConverter</text><path d="M308.64,47.18 C308.64,47.18 308.64,101.81 308.64,101.81 " fill="none" style="stroke: #A80036; stroke-width: 1.0;"/><polygon fill="#A80036" points="308.64,106.81,312.64,97.81,308.64,101.81,304.64,97.81,308.64,106.81" style="stroke: #A80036; stroke-width: 1.0;"/><text fill="#000000" font-family="sans-serif" font-size="13" lengthAdjust="spacingAndGlyphs" textLength="111" x="389.6055" y="94.9497">HierarchyConverter</text><path d="M322.86,47.18 C322.86,47.18 322.86,101.81 322.86,101.81 " fill="none" style="stroke: #A80036; stroke-width: 1.0;"/><polygon fill="#A80036" points="322.86,106.81,326.86,97.81,322.86,101.81,318.86,97.81,322.86,106.81" style="stroke: #A80036; stroke-width: 1.0;"/><text fill="#000000" font-family="sans-serif" font-size="13" lengthAdjust="spacingAndGlyphs" textLength="121" x="345.2318" y="95.4967">HierarchiesConverter</text><path d="M337.07,47.18 C337.07,47.18 337.07,101.81 337.07,101.81 " fill="none" style="stroke: #A80036; stroke-width: 1.0;"/><polygon fill="#A80036" points="337.07,106.81,341.07,97.81,337.07,101.81,333.07,97.81,337.07,106.81" style="stroke: #A80036; stroke-width: 1.0;"/><text fill="#000000" font-family="sans-serif" font-size="13" lengthAdjust="spacingAndGlyphs" textLength="104" x="360.5302" y="95.4967">SettingsConverter</text><path d="M351.29,47.18 C351.29,47.18 351.29,101.81 351.29,101.81 " fill="none" style="stroke: #A80036; stroke-width: 1.0;"/><polygon fill="#A80036" points="351.29,106.81,355.29,97.81,351.29,101.81,347.29,97.81,351.29,106.81" style="stroke: #A80036; stroke-width: 1.0;"/><text fill="#000000" font-family="sans-serif" font-size="13" lengthAdjust="spacingAndGlyphs" textLength="132" x="380.1297" y="95.4967">ConfigurationConverter</text><path d="M460,47.18 C460,47.18 460,101.81 460,101.81 " fill="none" style="stroke: #A80036; stroke-width: 1.0; stroke-dasharray: 7.0,7.0;"/><polygon fill="#A80036" points="460,106.81,464,97.81,460,101.81,456,97.81,460,106.81" style="stroke: #A80036; stroke-width: 1.0;"/><path d="M188,180.2 C188,180.2 188,234.89 188,234.89 " fill="none" style="stroke: #A80036; stroke-width: 1.0; stroke-dasharray: 7.0,7.0;"/><polygon fill="#A80036" points="188,239.89,192,230.89,188,234.89,184,230.89,188,239.89" style="stroke: #A80036; stroke-width: 1.0;"/><path d="M344,180.2 C344,180.2 344,234.89 344,234.89 " fill="none" style="stroke: #A80036; stroke-width: 1.0; stroke-dasharray: 7.0,7.0;"/><polygon fill="#A80036" points="344,239.89,348,230.89,344,234.89,340,230.89,344,239.89" style="stroke: #A80036; stroke-width: 1.0;"/><path d="M566.4,47.36 C566.4,73.17 566.4,115 566.4,115 C566.4,115 531.2,115 531.2,115 " fill="none" style="stroke: #A80036; stroke-width: 1.0;"/><polygon fill="#A80036" points="526.2,115,535.2,119,531.2,115,535.2,111,526.2,115" style="stroke: #A80036; stroke-width: 1.0;"/><text fill="#000000" font-family="sans-serif" font-size="13" lengthAdjust="spacingAndGlyphs" textLength="90" x="534.3069" y="111.1254">StringConverter</text><path d="M578.3,47.08 C578.3,74.76 578.3,122 578.3,122 C578.3,122 531.03,122 531.03,122 " fill="none" style="stroke: #A80036; stroke-width: 1.0;"/><polygon fill="#A80036" points="526.03,122,535.03,126,531.03,122,535.03,118,526.03,122" style="stroke: #A80036; stroke-width: 1.0;"/><text fill="#000000" font-family="sans-serif" font-size="13" lengthAdjust="spacingAndGlyphs" textLength="108" x="534.3714" y="133.7098">ArrayListConverter</text><path d="M590.2,47.07 C590.2,76.56 590.2,129 590.2,129 C590.2,129 531.15,129 531.15,129 " fill="none" style="stroke: #A80036; stroke-width: 1.0;"/><polygon fill="#A80036" points="526.15,129,535.15,133,531.15,129,535.15,125,526.15,129" style="stroke: #A80036; stroke-width: 1.0;"/><text fill="#000000" font-family="sans-serif" font-size="13" lengthAdjust="spacingAndGlyphs" textLength="115" x="533.5949" y="140.9171">LinkedListConverter</text><path d="M602.1,47.08 C602.1,78.57 602.1,137 602.1,137 C602.1,137 531.25,137 531.25,137 " fill="none" style="stroke: #A80036; stroke-width: 1.0;"/><polygon fill="#A80036" points="526.25,137,535.25,141,531.25,137,535.25,133,526.25,137" style="stroke: #A80036; stroke-width: 1.0;"/><text fill="#000000" font-family="sans-serif" font-size="13" lengthAdjust="spacingAndGlyphs" textLength="81" x="534.2387" y="149.1082">MapConverter</text><path d="M614,47.26 C614,80.5 614,144 614,144 C614,144 531.18,144 531.18,144 " fill="none" style="stroke: #A80036; stroke-width: 1.0;"/><polygon fill="#A80036" points="526.18,144,535.18,148,531.18,144,535.18,140,526.18,144" style="stroke: #A80036; stroke-width: 1.0;"/><text fill="#000000" font-family="sans-serif" font-size="13" lengthAdjust="spacingAndGlyphs" textLength="78" x="534.127" y="156.2942">NullConverter</text><path d="M625.9,47.07 C625.9,81.89 625.9,151 625.9,151 C625.9,151 531.13,151 531.13,151 " fill="none" style="stroke: #A80036; stroke-width: 1.0;"/><polygon fill="#A80036" points="526.13,151,535.13,155,531.13,151,535.13,147,526.13,151" style="stroke: #A80036; stroke-width: 1.0;"/><text fill="#000000" font-family="sans-serif" font-size="13" lengthAdjust="spacingAndGlyphs" textLength="96" x="534.3147" y="163.4801">IntegerConverter</text><path d="M637.8,47.19 C637.8,83.87 637.8,159 637.8,159 C637.8,159 531.25,159 531.25,159 " fill="none" style="stroke: #A80036; stroke-width: 1.0;"/><polygon fill="#A80036" points="526.25,159,535.25,163,531.25,159,535.25,155,526.25,159" style="stroke: #A80036; stroke-width: 1.0;"/><text fill="#000000" font-family="sans-serif" font-size="13" lengthAdjust="spacingAndGlyphs" textLength="87" x="534.3184" y="171.6926">ShortConverter</text><path d="M649.7,47.05 C649.7,85.23 649.7,166 649.7,166 C649.7,166 531.18,166 531.18,166 " fill="none" style="stroke: #A80036; stroke-width: 1.0;"/><polygon fill="#A80036" points="526.18,166,535.18,170,531.18,166,535.18,162,526.18,166" style="stroke: #A80036; stroke-width: 1.0;"/><text fill="#000000" font-family="sans-serif" font-size="13" lengthAdjust="spacingAndGlyphs" textLength="96" x="534.366" y="178.8785">DoubleConverter</text><path d="M661.6,47.12 C661.6,86.84 661.6,173 661.6,173 C661.6,173 531.01,173 531.01,173 " fill="none" style="stroke: #A80036; stroke-width: 1.0;"/><polygon fill="#A80036" points="526.01,173,535.01,177,531.01,173,535.01,169,526.01,173" style="stroke: #A80036; stroke-width: 1.0;"/><text fill="#000000" font-family="sans-serif" font-size="13" lengthAdjust="spacingAndGlyphs" textLength="103" x="509.0204" y="200.4117">BooleanConverter</text></g></svg>