<?xml version="1.0" encoding="UTF-8" standalone="no"?><svg xmlns="http://www.w3.org/2000/svg" xmlns:xlink="http://www.w3.org/1999/xlink" contentScriptType="application/ecmascript" contentStyleType="text/css" height="305px" preserveAspectRatio="none" style="width:253px;height:305px;" version="1.1" viewBox="0 0 253 305" width="253px" zoomAndPan="magnify"><defs><filter height="300%" id="ffqykil" width="300%" x="-1" y="-1"><feGaussianBlur result="blurOut" stdDeviation="2.0"/><feColorMatrix in="blurOut" result="blurOut2" type="matrix" values="0 0 0 0 0 0 0 0 0 0 0 0 0 0 0 0 0 0 .4 0"/><feOffset dx="4.0" dy="4.0" in="blurOut2" result="blurOut3"/><feBlend in="SourceGraphic" in2="blurOut3" mode="normal"/></filter></defs><g><!--class it.matlice.ingsw.xml.XMLNode--><a target="_parent" xlink:actuate="onRequest" xlink:href="../../../../it/matlice/ingsw/xml/XMLNode.html" xlink:show="new" xlink:title="it.matlice.ingsw.xml.XMLNode" xlink:type="simple"><rect fill="#FEFECE" filter="url(#ffqykil)" height="186.7989" style="stroke: #A80036; stroke-width: 1.5;" width="238" x="6" y="110"/><ellipse cx="77.25" cy="129.4" fill="#ADD1B2" rx="11" ry="11" style="stroke: #A80036; stroke-width: 1.0;"/><path d="M72.25,130.5562 C72.25,133.0562 74.3906,134.8687 77.3125,134.8687 C78.5469,134.8687 79.7188,134.5718 80.4688,134.0562 C81.0781,133.6343 81.4063,133.2125 81.4063,132.8062 C81.4063,132.3375 80.9844,131.9312 80.4844,131.9312 C80.25,131.9312 80.0313,132.0093 79.8281,132.2125 C79.3906,132.65 79.3906,132.65 79.2188,132.7437 C78.7656,132.9781 78.125,133.1187 77.3594,133.1187 C75.3594,133.1187 74.0781,132.1031 74.0781,130.525 L74.0781,129.4781 C74.0781,127.775 75.2969,126.5718 77,126.5718 C77.5781,126.5718 78.1563,126.7125 78.625,126.9625 C79.0938,127.2281 79.2656,127.4156 79.3281,127.775 C79.4531,128.4468 79.7031,128.6968 80.2344,128.6968 C80.5156,128.6968 80.7969,128.5562 80.9844,128.3375 C81.1094,128.1656 81.1563,127.9937 81.1563,127.5562 L81.1563,126.1968 C81.1563,125.775 81.1406,125.6343 81.0156,125.4625 C80.8438,125.2125 80.5625,125.0562 80.2344,125.0562 C79.9219,125.0562 79.7188,125.1656 79.5,125.4312 C78.3281,124.9312 77.8906,124.8218 76.9375,124.8218 C74.2656,124.8218 72.25,126.8375 72.25,129.4625 L72.25,130.5562 Z "/><text fill="#000000" font-family="sans-serif" font-size="14" font-weight="bold" lengthAdjust="spacingAndGlyphs" textLength="66" x="108.25" y="128.0059">XMLNode</text><text fill="#000000" font-family="sans-serif" font-size="10" lengthAdjust="spacingAndGlyphs" textLength="87" x="97.75" y="141.0899">it.matlice.ingsw.xml</text><line style="stroke: #A80036; stroke-width: 1.5;" x1="7" x2="243" y1="148.7999" y2="148.7999"/><rect fill="none" height="6" style="stroke: #C82930; stroke-width: 1.0;" width="6" x="14" y="157.8999"/><text fill="#000000" font-family="sans-serif" font-size="11" lengthAdjust="spacingAndGlyphs" textLength="58" x="26" y="163.0188">String name</text><rect fill="none" height="6" style="stroke: #C82930; stroke-width: 1.0;" width="6" x="14" y="171.0998"/><text fill="#000000" font-family="sans-serif" font-size="11" lengthAdjust="spacingAndGlyphs" textLength="169" x="26" y="176.2187">HashMap&lt;String, String&gt; attributes</text><rect fill="none" height="6" style="stroke: #C82930; stroke-width: 1.0;" width="6" x="14" y="184.2997"/><text fill="#000000" font-family="sans-serif" font-size="11" lengthAdjust="spacingAndGlyphs" textLength="57" x="26" y="189.4186">String value</text><line style="stroke: #A80036; stroke-width: 1.5;" x1="7" x2="243" y1="196.3996" y2="196.3996"/><ellipse cx="17" cy="208.4996" fill="#84BE84" rx="3" ry="3" style="stroke: #038048; stroke-width: 1.0;"/><text fill="#000000" font-family="sans-serif" font-size="11" lengthAdjust="spacingAndGlyphs" textLength="114" x="26" y="210.6185">XMLNode(String name)</text><ellipse cx="17" cy="221.6995" fill="#84BE84" rx="3" ry="3" style="stroke: #038048; stroke-width: 1.0;"/><text fill="#000000" font-family="sans-serif" font-size="11" lengthAdjust="spacingAndGlyphs" textLength="212" x="26" y="223.8184">void add_attribute(String name,String value)</text><ellipse cx="17" cy="234.8994" fill="#84BE84" rx="3" ry="3" style="stroke: #038048; stroke-width: 1.0;"/><text fill="#000000" font-family="sans-serif" font-size="11" lengthAdjust="spacingAndGlyphs" textLength="157" x="26" y="237.0183">String get_attribute(String name)</text><ellipse cx="17" cy="248.0993" fill="#84BE84" rx="3" ry="3" style="stroke: #038048; stroke-width: 1.0;"/><text fill="#000000" font-family="sans-serif" font-size="11" lengthAdjust="spacingAndGlyphs" textLength="83" x="26" y="250.2182">String getName()</text><ellipse cx="17" cy="261.2992" fill="#84BE84" rx="3" ry="3" style="stroke: #038048; stroke-width: 1.0;"/><text fill="#000000" font-family="sans-serif" font-size="11" lengthAdjust="spacingAndGlyphs" textLength="81" x="26" y="263.4182">String getValue()</text><ellipse cx="17" cy="274.4991" fill="#84BE84" rx="3" ry="3" style="stroke: #038048; stroke-width: 1.0;"/><text fill="#000000" font-family="sans-serif" font-size="11" lengthAdjust="spacingAndGlyphs" textLength="130" x="26" y="276.6181">void setValue(String value)</text><ellipse cx="17" cy="287.699" fill="#84BE84" rx="3" ry="3" style="stroke: #038048; stroke-width: 1.0;"/><text fill="#000000" font-family="sans-serif" font-size="11" lengthAdjust="spacingAndGlyphs" textLength="76" x="26" y="289.818">String toString()</text></a><!--class it.matlice.ingsw.xml.XMLConversion--><a target="_parent" xlink:actuate="onRequest" xlink:href="../../../../it/matlice/ingsw/xml/XMLConversion.html" xlink:show="new" xlink:title="it.matlice.ingsw.xml.XMLConversion" xlink:type="simple"><rect fill="#FEFECE" filter="url(#ffqykil)" height="42.3999" style="stroke: #A80036; stroke-width: 1.5;" width="141" x="54.5" y="8"/><ellipse cx="69.5" cy="29.2" fill="#B4A7E5" rx="11" ry="11" style="stroke: #A80036; stroke-width: 1.0;"/><path d="M70.5156,26.3562 L72.1719,26.3562 C72.5625,26.3562 72.7656,26.325 72.9219,26.2468 C73.1875,26.075 73.3594,25.7781 73.3594,25.4812 C73.3594,25.2 73.2188,24.95 72.9844,24.7781 C72.7969,24.6531 72.6406,24.6062 72.1719,24.6062 L67.0313,24.6062 C66.5938,24.6062 66.4531,24.6218 66.2813,24.7312 C66.0156,24.9031 65.8438,25.1843 65.8438,25.4812 C65.8438,25.7625 65.9844,26.0437 66.2188,26.2 C66.4063,26.325 66.5938,26.3562 67.0313,26.3562 L68.6875,26.3562 L68.6875,32.45 L67.0313,32.45 C66.5938,32.45 66.4531,32.4656 66.2813,32.575 C66.0156,32.7312 65.8438,33.0281 65.8438,33.3093 C65.8438,33.9187 66.25,34.2 67.0313,34.2 L72.1719,34.2 C72.9531,34.2 73.3594,33.9187 73.3594,33.3093 C73.3594,33.0437 73.2188,32.7937 72.9844,32.6218 C72.7969,32.4812 72.625,32.45 72.1719,32.45 L70.5156,32.45 L70.5156,26.3562 Z "/><text fill="#000000" font-family="sans-serif" font-size="14" font-style="italic" font-weight="bold" lengthAdjust="spacingAndGlyphs" textLength="109" x="83.5" y="28.3999">XMLConversion</text><text fill="#000000" font-family="sans-serif" font-size="10" font-style="italic" lengthAdjust="spacingAndGlyphs" textLength="87" x="94.5" y="42.8999">it.matlice.ingsw.xml</text></a><path d="M125,50.05 C125,50.05 125,104.79 125,104.79 " fill="none" style="stroke: #A80036; stroke-width: 1.0; stroke-dasharray: 7.0,7.0;"/><polygon fill="#A80036" points="125,109.79,129,100.79,125,104.79,121,100.79,125,109.79" style="stroke: #A80036; stroke-width: 1.0;"/></g></svg>