<?xml version="1.0" encoding="UTF-8" standalone="no"?><svg xmlns="http://www.w3.org/2000/svg" xmlns:xlink="http://www.w3.org/1999/xlink" contentScriptType="application/ecmascript" contentStyleType="text/css" height="293px" preserveAspectRatio="none" style="width:813px;height:293px;" version="1.1" viewBox="0 0 813 293" width="813px" zoomAndPan="magnify"><defs><filter height="300%" id="fcc6trq" width="300%" x="-1" y="-1"><feGaussianBlur result="blurOut" stdDeviation="2.0"/><feColorMatrix in="blurOut" result="blurOut2" type="matrix" values="0 0 0 0 0 0 0 0 0 0 0 0 0 0 0 0 0 0 .4 0"/><feOffset dx="4.0" dy="4.0" in="blurOut2" result="blurOut3"/><feBlend in="SourceGraphic" in2="blurOut3" mode="normal"/></filter></defs><g><!--class it.matlice.ingsw.xml.XMLParser--><a target="_parent" xlink:actuate="onRequest" xlink:href="../../../../it/matlice/ingsw/xml/XMLParser.html" xlink:show="new" xlink:title="it.matlice.ingsw.xml.XMLParser" xlink:type="simple"><rect fill="#FEFECE" filter="url(#fcc6trq)" height="173.599" style="stroke: #A80036; stroke-width: 1.5;" width="378" x="264.5" y="8"/><ellipse cx="405.75" cy="27.4" fill="#ADD1B2" rx="11" ry="11" style="stroke: #A80036; stroke-width: 1.0;"/><path d="M400.75,28.5562 C400.75,31.0562 402.8906,32.8687 405.8125,32.8687 C407.0469,32.8687 408.2188,32.5718 408.9688,32.0562 C409.5781,31.6343 409.9063,31.2125 409.9063,30.8062 C409.9063,30.3375 409.4844,29.9312 408.9844,29.9312 C408.75,29.9312 408.5313,30.0093 408.3281,30.2125 C407.8906,30.65 407.8906,30.65 407.7188,30.7437 C407.2656,30.9781 406.625,31.1187 405.8594,31.1187 C403.8594,31.1187 402.5781,30.1031 402.5781,28.525 L402.5781,27.4781 C402.5781,25.775 403.7969,24.5718 405.5,24.5718 C406.0781,24.5718 406.6563,24.7125 407.125,24.9625 C407.5938,25.2281 407.7656,25.4156 407.8281,25.775 C407.9531,26.4468 408.2031,26.6968 408.7344,26.6968 C409.0156,26.6968 409.2969,26.5562 409.4844,26.3375 C409.6094,26.1656 409.6563,25.9937 409.6563,25.5562 L409.6563,24.1968 C409.6563,23.775 409.6406,23.6343 409.5156,23.4625 C409.3438,23.2125 409.0625,23.0562 408.7344,23.0562 C408.4219,23.0562 408.2188,23.1656 408,23.4312 C406.8281,22.9312 406.3906,22.8218 405.4375,22.8218 C402.7656,22.8218 400.75,24.8375 400.75,27.4625 L400.75,28.5562 Z "/><text fill="#000000" font-family="sans-serif" font-size="14" font-weight="bold" lengthAdjust="spacingAndGlyphs" textLength="73" x="433.25" y="26.0059">XMLParser</text><text fill="#000000" font-family="sans-serif" font-size="10" lengthAdjust="spacingAndGlyphs" textLength="87" x="426.25" y="39.0899">it.matlice.ingsw.xml</text><line style="stroke: #A80036; stroke-width: 1.5;" x1="265.5" x2="641.5" y1="46.7999" y2="46.7999"/><rect fill="none" height="6" style="stroke: #C82930; stroke-width: 1.0;" width="6" x="272.5" y="55.8999"/><text fill="#000000" font-family="sans-serif" font-size="11" lengthAdjust="spacingAndGlyphs" textLength="128" x="284.5" y="61.0188">XMLStreamReader reader</text><rect fill="none" height="6" style="stroke: #C82930; stroke-width: 1.0;" width="6" x="272.5" y="69.0998"/><text fill="#000000" font-family="sans-serif" font-size="11" lengthAdjust="spacingAndGlyphs" textLength="252" x="284.5" y="74.2187">TreeMap&lt;String, XMLConversion&gt; conversion_map</text><rect fill="none" height="6" style="stroke: #C82930; stroke-width: 1.0;" width="6" x="272.5" y="82.2997"/><text fill="#000000" font-family="sans-serif" font-size="11" lengthAdjust="spacingAndGlyphs" textLength="113" x="284.5" y="87.4186">MapNode&lt;Object&gt; root</text><line style="stroke: #A80036; stroke-width: 1.5;" x1="265.5" x2="641.5" y1="94.3996" y2="94.3996"/><ellipse cx="275.5" cy="106.4996" fill="#84BE84" rx="3" ry="3" style="stroke: #038048; stroke-width: 1.0;"/><text fill="#000000" font-family="sans-serif" font-size="11" lengthAdjust="spacingAndGlyphs" textLength="107" x="284.5" y="108.6185">XMLParser(String file)</text><ellipse cx="275.5" cy="119.6995" fill="#84BE84" rx="3" ry="3" style="stroke: #038048; stroke-width: 1.0;"/><text fill="#000000" font-family="sans-serif" font-size="11" lengthAdjust="spacingAndGlyphs" textLength="96" x="284.5" y="121.8184">XMLParser(File file)</text><ellipse cx="275.5" cy="132.8994" fill="#84BE84" rx="3" ry="3" style="stroke: #038048; stroke-width: 1.0;"/><text fill="#000000" font-family="sans-serif" font-size="11" lengthAdjust="spacingAndGlyphs" textLength="155" x="284.5" y="135.0183">XMLParser(FileInputStream file)</text><ellipse cx="275.5" cy="146.0993" fill="#84BE84" rx="3" ry="3" style="stroke: #038048; stroke-width: 1.0;"/><text fill="#000000" font-family="sans-serif" font-size="11" lengthAdjust="spacingAndGlyphs" textLength="352" x="284.5" y="148.2182">XMLParser add_conversion(String tag_name,XMLConversion conv_fnc)</text><ellipse cx="275.5" cy="159.2992" fill="#84BE84" rx="3" ry="3" style="stroke: #038048; stroke-width: 1.0;"/><text fill="#000000" font-family="sans-serif" font-size="11" lengthAdjust="spacingAndGlyphs" textLength="71" x="284.5" y="161.4182">Object parse()</text><rect fill="#F24D5C" height="6" style="stroke: #C82930; stroke-width: 1.0;" width="6" x="272.5" y="169.4991"/><text fill="#000000" font-family="sans-serif" font-size="11" lengthAdjust="spacingAndGlyphs" textLength="100" x="284.5" y="174.6181">XMLNode getNode()</text></a><!--class javax.xml.stream.XMLStreamReader--><rect fill="#D3D3D3" filter="url(#fcc6trq)" height="42.3999" style="stroke: #A80036; stroke-width: 1.5;" width="157" x="6" y="242"/><rect fill="#D3D3D3" height="42.3999" style="stroke: #A80036; stroke-width: 1.5;" width="157" x="6" y="242"/><ellipse cx="21" cy="263.2" fill="#B4A7E5" rx="11" ry="11" style="stroke: #A80036; stroke-width: 1.0;"/><path d="M22.0156,260.3562 L23.6719,260.3562 C24.0625,260.3562 24.2656,260.325 24.4219,260.2468 C24.6875,260.075 24.8594,259.7781 24.8594,259.4812 C24.8594,259.2 24.7188,258.95 24.4844,258.7781 C24.2969,258.6531 24.1406,258.6062 23.6719,258.6062 L18.5313,258.6062 C18.0938,258.6062 17.9531,258.6218 17.7813,258.7312 C17.5156,258.9031 17.3438,259.1843 17.3438,259.4812 C17.3438,259.7625 17.4844,260.0437 17.7188,260.2 C17.9063,260.325 18.0938,260.3562 18.5313,260.3562 L20.1875,260.3562 L20.1875,266.45 L18.5313,266.45 C18.0938,266.45 17.9531,266.4656 17.7813,266.575 C17.5156,266.7312 17.3438,267.0281 17.3438,267.3093 C17.3438,267.9187 17.75,268.2 18.5313,268.2 L23.6719,268.2 C24.4531,268.2 24.8594,267.9187 24.8594,267.3093 C24.8594,267.0437 24.7188,266.7937 24.4844,266.6218 C24.2969,266.4812 24.125,266.45 23.6719,266.45 L22.0156,266.45 L22.0156,260.3562 Z "/><text fill="#000000" font-family="sans-serif" font-size="14" font-style="italic" font-weight="bold" lengthAdjust="spacingAndGlyphs" textLength="125" x="35" y="262.3999">XMLStreamReader</text><text fill="#000000" font-family="sans-serif" font-size="10" font-style="italic" lengthAdjust="spacingAndGlyphs" textLength="76" x="59.5" y="276.8999">javax.xml.stream</text><!--class it.matlice.ingsw.xml.XMLConversion--><a target="_parent" xlink:actuate="onRequest" xlink:href="../../../../it/matlice/ingsw/xml/XMLConversion.html" xlink:show="new" xlink:title="it.matlice.ingsw.xml.XMLConversion" xlink:type="simple"><rect fill="#FEFECE" filter="url(#fcc6trq)" height="42.3999" style="stroke: #A80036; stroke-width: 1.5;" width="141" x="198" y="242"/><ellipse cx="213" cy="263.2" fill="#B4A7E5" rx="11" ry="11" style="stroke: #A80036; stroke-width: 1.0;"/><path d="M214.0156,260.3562 L215.6719,260.3562 C216.0625,260.3562 216.2656,260.325 216.4219,260.2468 C216.6875,260.075 216.8594,259.7781 216.8594,259.4812 C216.8594,259.2 216.7188,258.95 216.4844,258.7781 C216.2969,258.6531 216.1406,258.6062 215.6719,258.6062 L210.5313,258.6062 C210.0938,258.6062 209.9531,258.6218 209.7813,258.7312 C209.5156,258.9031 209.3438,259.1843 209.3438,259.4812 C209.3438,259.7625 209.4844,260.0437 209.7188,260.2 C209.9063,260.325 210.0938,260.3562 210.5313,260.3562 L212.1875,260.3562 L212.1875,266.45 L210.5313,266.45 C210.0938,266.45 209.9531,266.4656 209.7813,266.575 C209.5156,266.7312 209.3438,267.0281 209.3438,267.3093 C209.3438,267.9187 209.75,268.2 210.5313,268.2 L215.6719,268.2 C216.4531,268.2 216.8594,267.9187 216.8594,267.3093 C216.8594,267.0437 216.7188,266.7937 216.4844,266.6218 C216.2969,266.4812 216.125,266.45 215.6719,266.45 L214.0156,266.45 L214.0156,260.3562 Z "/><text fill="#000000" font-family="sans-serif" font-size="14" font-style="italic" font-weight="bold" lengthAdjust="spacingAndGlyphs" textLength="109" x="227" y="262.3999">XMLConversion</text><text fill="#000000" font-family="sans-serif" font-size="10" font-style="italic" lengthAdjust="spacingAndGlyphs" textLength="87" x="238" y="276.8999">it.matlice.ingsw.xml</text></a><!--class it.matlice.ingsw.tree.MapNodeObject--><a target="_parent" xlink:actuate="onRequest" xlink:href="../../../../it/matlice/ingsw/tree/MapNode.html" xlink:show="new" xlink:title="it.matlice.ingsw.tree.MapNode" xlink:type="simple"><rect fill="#D3D3D3" filter="url(#fcc6trq)" height="38.7999" style="stroke: #A80036; stroke-width: 1.5;" width="158" x="374.5" y="243.5"/><rect fill="#D3D3D3" height="38.7999" style="stroke: #A80036; stroke-width: 1.5;" width="158" x="374.5" y="243.5"/><ellipse cx="389.5" cy="262.9" fill="#ADD1B2" rx="11" ry="11" style="stroke: #A80036; stroke-width: 1.0;"/><path d="M384.5,264.0562 C384.5,266.5562 386.6406,268.3687 389.5625,268.3687 C390.7969,268.3687 391.9688,268.0718 392.7188,267.5562 C393.3281,267.1343 393.6563,266.7125 393.6563,266.3062 C393.6563,265.8375 393.2344,265.4312 392.7344,265.4312 C392.5,265.4312 392.2813,265.5093 392.0781,265.7125 C391.6406,266.15 391.6406,266.15 391.4688,266.2437 C391.0156,266.4781 390.375,266.6187 389.6094,266.6187 C387.6094,266.6187 386.3281,265.6031 386.3281,264.025 L386.3281,262.9781 C386.3281,261.275 387.5469,260.0718 389.25,260.0718 C389.8281,260.0718 390.4063,260.2125 390.875,260.4625 C391.3438,260.7281 391.5156,260.9156 391.5781,261.275 C391.7031,261.9468 391.9531,262.1968 392.4844,262.1968 C392.7656,262.1968 393.0469,262.0562 393.2344,261.8375 C393.3594,261.6656 393.4063,261.4937 393.4063,261.0562 L393.4063,259.6968 C393.4063,259.275 393.3906,259.1343 393.2656,258.9625 C393.0938,258.7125 392.8125,258.5562 392.4844,258.5562 C392.1719,258.5562 391.9688,258.6656 391.75,258.9312 C390.5781,258.4312 390.1406,258.3218 389.1875,258.3218 C386.5156,258.3218 384.5,260.3375 384.5,262.9625 L384.5,264.0562 Z "/><text fill="#000000" font-family="sans-serif" font-size="14" font-weight="bold" lengthAdjust="spacingAndGlyphs" textLength="126" x="403.5" y="261.5059">MapNode&lt;Object&gt;</text><text fill="#000000" font-family="sans-serif" font-size="10" lengthAdjust="spacingAndGlyphs" textLength="90" x="421.5" y="274.5899">it.matlice.ingsw.tree</text></a><!--class java.io.File--><rect fill="#D3D3D3" filter="url(#fcc6trq)" height="38.7999" style="stroke: #A80036; stroke-width: 1.5;" width="62" x="567.5" y="243.5"/><rect fill="#D3D3D3" height="38.7999" style="stroke: #A80036; stroke-width: 1.5;" width="62" x="567.5" y="243.5"/><ellipse cx="582.5" cy="262.9" fill="#ADD1B2" rx="11" ry="11" style="stroke: #A80036; stroke-width: 1.0;"/><path d="M577.5,264.0562 C577.5,266.5562 579.6406,268.3687 582.5625,268.3687 C583.7969,268.3687 584.9688,268.0718 585.7188,267.5562 C586.3281,267.1343 586.6563,266.7125 586.6563,266.3062 C586.6563,265.8375 586.2344,265.4312 585.7344,265.4312 C585.5,265.4312 585.2813,265.5093 585.0781,265.7125 C584.6406,266.15 584.6406,266.15 584.4688,266.2437 C584.0156,266.4781 583.375,266.6187 582.6094,266.6187 C580.6094,266.6187 579.3281,265.6031 579.3281,264.025 L579.3281,262.9781 C579.3281,261.275 580.5469,260.0718 582.25,260.0718 C582.8281,260.0718 583.4063,260.2125 583.875,260.4625 C584.3438,260.7281 584.5156,260.9156 584.5781,261.275 C584.7031,261.9468 584.9531,262.1968 585.4844,262.1968 C585.7656,262.1968 586.0469,262.0562 586.2344,261.8375 C586.3594,261.6656 586.4063,261.4937 586.4063,261.0562 L586.4063,259.6968 C586.4063,259.275 586.3906,259.1343 586.2656,258.9625 C586.0938,258.7125 585.8125,258.5562 585.4844,258.5562 C585.1719,258.5562 584.9688,258.6656 584.75,258.9312 C583.5781,258.4312 583.1406,258.3218 582.1875,258.3218 C579.5156,258.3218 577.5,260.3375 577.5,262.9625 L577.5,264.0562 Z "/><text fill="#000000" font-family="sans-serif" font-size="14" font-weight="bold" lengthAdjust="spacingAndGlyphs" textLength="25" x="599" y="261.5059">File</text><text fill="#000000" font-family="sans-serif" font-size="10" lengthAdjust="spacingAndGlyphs" textLength="30" x="596.5" y="274.5899">java.io</text><!--class java.io.FileInputStream--><rect fill="#D3D3D3" filter="url(#fcc6trq)" height="38.7999" style="stroke: #A80036; stroke-width: 1.5;" width="140" x="664.5" y="243.5"/><rect fill="#D3D3D3" height="38.7999" style="stroke: #A80036; stroke-width: 1.5;" width="140" x="664.5" y="243.5"/><ellipse cx="679.5" cy="262.9" fill="#ADD1B2" rx="11" ry="11" style="stroke: #A80036; stroke-width: 1.0;"/><path d="M674.5,264.0562 C674.5,266.5562 676.6406,268.3687 679.5625,268.3687 C680.7969,268.3687 681.9688,268.0718 682.7188,267.5562 C683.3281,267.1343 683.6563,266.7125 683.6563,266.3062 C683.6563,265.8375 683.2344,265.4312 682.7344,265.4312 C682.5,265.4312 682.2813,265.5093 682.0781,265.7125 C681.6406,266.15 681.6406,266.15 681.4688,266.2437 C681.0156,266.4781 680.375,266.6187 679.6094,266.6187 C677.6094,266.6187 676.3281,265.6031 676.3281,264.025 L676.3281,262.9781 C676.3281,261.275 677.5469,260.0718 679.25,260.0718 C679.8281,260.0718 680.4063,260.2125 680.875,260.4625 C681.3438,260.7281 681.5156,260.9156 681.5781,261.275 C681.7031,261.9468 681.9531,262.1968 682.4844,262.1968 C682.7656,262.1968 683.0469,262.0562 683.2344,261.8375 C683.3594,261.6656 683.4063,261.4937 683.4063,261.0562 L683.4063,259.6968 C683.4063,259.275 683.3906,259.1343 683.2656,258.9625 C683.0938,258.7125 682.8125,258.5562 682.4844,258.5562 C682.1719,258.5562 681.9688,258.6656 681.75,258.9312 C680.5781,258.4312 680.1406,258.3218 679.1875,258.3218 C676.5156,258.3218 674.5,260.3375 674.5,262.9625 L674.5,264.0562 Z "/><text fill="#000000" font-family="sans-serif" font-size="14" font-weight="bold" lengthAdjust="spacingAndGlyphs" textLength="108" x="693.5" y="261.5059">FileInputStream</text><text fill="#000000" font-family="sans-serif" font-size="10" lengthAdjust="spacingAndGlyphs" textLength="30" x="732.5" y="274.5899">java.io</text><path d="M264.41,95 C173.71,95 84.5,95 84.5,95 C84.5,95 84.5,236.72 84.5,236.72 " fill="none" style="stroke: #A80036; stroke-width: 1.0;"/><polygon fill="#A80036" points="84.5,241.72,88.5,232.72,84.5,236.72,80.5,232.72,84.5,241.72" style="stroke: #A80036; stroke-width: 1.0;"/><text fill="#000000" font-family="sans-serif" font-size="13" lengthAdjust="spacingAndGlyphs" textLength="36" x="43.2125" y="230.3723">reader</text><path d="M301.75,182.44 C301.75,182.44 301.75,236.79 301.75,236.79 " fill="none" style="stroke: #A80036; stroke-width: 1.0; stroke-dasharray: 7.0,7.0;"/><polygon fill="#A80036" points="301.75,241.79,305.75,232.79,301.75,236.79,297.75,232.79,301.75,241.79" style="stroke: #A80036; stroke-width: 1.0;"/><path d="M453.5,182.44 C453.5,182.44 453.5,238.42 453.5,238.42 " fill="none" style="stroke: #A80036; stroke-width: 1.0;"/><polygon fill="#A80036" points="453.5,243.42,457.5,234.42,453.5,238.42,449.5,234.42,453.5,243.42" style="stroke: #A80036; stroke-width: 1.0;"/><text fill="#000000" font-family="sans-serif" font-size="13" lengthAdjust="spacingAndGlyphs" textLength="22" x="427.9938" y="231.9928">root</text><path d="M598.5,182.44 C598.5,182.44 598.5,238.42 598.5,238.42 " fill="none" style="stroke: #A80036; stroke-width: 1.0; stroke-dasharray: 7.0,7.0;"/><polygon fill="#A80036" points="598.5,243.42,602.5,234.42,598.5,238.42,594.5,234.42,598.5,243.42" style="stroke: #A80036; stroke-width: 1.0;"/><path d="M636,182.47 C636,223.71 636,264 636,264 C636,264 659.49,264 659.49,264 " fill="none" style="stroke: #A80036; stroke-width: 1.0; stroke-dasharray: 7.0,7.0;"/><polygon fill="#A80036" points="664.49,264,655.49,260,659.49,264,655.49,268,664.49,264" style="stroke: #A80036; stroke-width: 1.0;"/></g></svg>