<?xml version="1.0" encoding="UTF-8" standalone="no"?><svg xmlns="http://www.w3.org/2000/svg" xmlns:xlink="http://www.w3.org/1999/xlink" contentScriptType="application/ecmascript" contentStyleType="text/css" height="304px" preserveAspectRatio="none" style="width:276px;height:304px;" version="1.1" viewBox="0 0 276 304" width="276px" zoomAndPan="magnify"><defs><filter height="300%" id="f0f70rg" width="300%" x="-1" y="-1"><feGaussianBlur result="blurOut" stdDeviation="2.0"/><feColorMatrix in="blurOut" result="blurOut2" type="matrix" values="0 0 0 0 0 0 0 0 0 0 0 0 0 0 0 0 0 0 .4 0"/><feOffset dx="4.0" dy="4.0" in="blurOut2" result="blurOut3"/><feBlend in="SourceGraphic" in2="blurOut3" mode="normal"/></filter></defs><g><!--class it.matlice.ingsw.xml.XMLWritable--><a target="_parent" xlink:actuate="onRequest" xlink:href="../../../../it/matlice/ingsw/xml/XMLWritable.html" xlink:show="new" xlink:title="it.matlice.ingsw.xml.XMLWritable" xlink:type="simple"><rect fill="#FEFECE" filter="url(#f0f70rg)" height="86.4497" style="stroke: #A80036; stroke-width: 1.5;" width="261" x="6" y="107"/><ellipse cx="88.75" cy="128.2" fill="#B4A7E5" rx="11" ry="11" style="stroke: #A80036; stroke-width: 1.0;"/><path d="M89.7656,125.3562 L91.4219,125.3562 C91.8125,125.3562 92.0156,125.325 92.1719,125.2468 C92.4375,125.075 92.6094,124.7781 92.6094,124.4812 C92.6094,124.2 92.4688,123.95 92.2344,123.7781 C92.0469,123.6531 91.8906,123.6062 91.4219,123.6062 L86.2813,123.6062 C85.8438,123.6062 85.7031,123.6218 85.5313,123.7312 C85.2656,123.9031 85.0938,124.1843 85.0938,124.4812 C85.0938,124.7625 85.2344,125.0437 85.4688,125.2 C85.6563,125.325 85.8438,125.3562 86.2813,125.3562 L87.9375,125.3562 L87.9375,131.45 L86.2813,131.45 C85.8438,131.45 85.7031,131.4656 85.5313,131.575 C85.2656,131.7312 85.0938,132.0281 85.0938,132.3093 C85.0938,132.9187 85.5,133.2 86.2813,133.2 L91.4219,133.2 C92.2031,133.2 92.6094,132.9187 92.6094,132.3093 C92.6094,132.0437 92.4688,131.7937 92.2344,131.6218 C92.0469,131.4812 91.875,131.45 91.4219,131.45 L89.7656,131.45 L89.7656,125.3562 Z "/><text fill="#000000" font-family="sans-serif" font-size="14" font-style="italic" font-weight="bold" lengthAdjust="spacingAndGlyphs" textLength="86" x="109.75" y="127.3999">XMLWritable</text><text fill="#000000" font-family="sans-serif" font-size="10" font-style="italic" lengthAdjust="spacingAndGlyphs" textLength="87" x="109.25" y="141.8999">it.matlice.ingsw.xml</text><line style="stroke: #A80036; stroke-width: 1.5;" x1="7" x2="266" y1="149.3999" y2="149.3999"/><line style="stroke: #A80036; stroke-width: 1.5;" x1="7" x2="266" y1="157.3999" y2="157.3999"/><ellipse cx="17" cy="169.4999" fill="#84BE84" rx="3" ry="3" style="stroke: #038048; stroke-width: 1.0;"/><text fill="#000000" font-family="sans-serif" font-size="11" lengthAdjust="spacingAndGlyphs" textLength="176" x="26" y="171.6188">void toXML(XMLStreamWriter xmlw)</text><ellipse cx="17" cy="183.5248" fill="#84BE84" rx="3" ry="3" style="stroke: #038048; stroke-width: 1.0;"/><text fill="#000000" font-family="sans-serif" font-size="11" font-style="italic" lengthAdjust="spacingAndGlyphs" textLength="235" x="26" y="186.6997">void toXML(XMLStreamWriter xmlw,Object data)</text></a><!--class javax.xml.stream.XMLStreamWriter--><rect fill="#D3D3D3" filter="url(#f0f70rg)" height="42.3999" style="stroke: #A80036; stroke-width: 1.5;" width="149" x="62" y="253"/><rect fill="#D3D3D3" height="42.3999" style="stroke: #A80036; stroke-width: 1.5;" width="149" x="62" y="253"/><ellipse cx="77" cy="274.2" fill="#B4A7E5" rx="11" ry="11" style="stroke: #A80036; stroke-width: 1.0;"/><path d="M78.0156,271.3562 L79.6719,271.3562 C80.0625,271.3562 80.2656,271.325 80.4219,271.2468 C80.6875,271.075 80.8594,270.7781 80.8594,270.4812 C80.8594,270.2 80.7188,269.95 80.4844,269.7781 C80.2969,269.6531 80.1406,269.6062 79.6719,269.6062 L74.5313,269.6062 C74.0938,269.6062 73.9531,269.6218 73.7813,269.7312 C73.5156,269.9031 73.3438,270.1843 73.3438,270.4812 C73.3438,270.7625 73.4844,271.0437 73.7188,271.2 C73.9063,271.325 74.0938,271.3562 74.5313,271.3562 L76.1875,271.3562 L76.1875,277.45 L74.5313,277.45 C74.0938,277.45 73.9531,277.4656 73.7813,277.575 C73.5156,277.7312 73.3438,278.0281 73.3438,278.3093 C73.3438,278.9187 73.75,279.2 74.5313,279.2 L79.6719,279.2 C80.4531,279.2 80.8594,278.9187 80.8594,278.3093 C80.8594,278.0437 80.7188,277.7937 80.4844,277.6218 C80.2969,277.4812 80.125,277.45 79.6719,277.45 L78.0156,277.45 L78.0156,271.3562 Z "/><text fill="#000000" font-family="sans-serif" font-size="14" font-style="italic" font-weight="bold" lengthAdjust="spacingAndGlyphs" textLength="117" x="91" y="273.3999">XMLStreamWriter</text><text fill="#000000" font-family="sans-serif" font-size="10" font-style="italic" lengthAdjust="spacingAndGlyphs" textLength="76" x="111.5" y="287.8999">javax.xml.stream</text><!--class it.matlice.ingsw.xml.Utils--><a target="_parent" xlink:actuate="onRequest" xlink:href="../../../../it/matlice/ingsw/xml/Utils.html" xlink:show="new" xlink:title="it.matlice.ingsw.xml.Utils" xlink:type="simple"><rect fill="#FEFECE" filter="url(#f0f70rg)" height="38.7999" style="stroke: #A80036; stroke-width: 1.5;" width="119" x="77" y="8"/><ellipse cx="92" cy="27.4" fill="#ADD1B2" rx="11" ry="11" style="stroke: #A80036; stroke-width: 1.0;"/><path d="M87,28.5562 C87,31.0562 89.1406,32.8687 92.0625,32.8687 C93.2969,32.8687 94.4688,32.5718 95.2188,32.0562 C95.8281,31.6343 96.1563,31.2125 96.1563,30.8062 C96.1563,30.3375 95.7344,29.9312 95.2344,29.9312 C95,29.9312 94.7813,30.0093 94.5781,30.2125 C94.1406,30.65 94.1406,30.65 93.9688,30.7437 C93.5156,30.9781 92.875,31.1187 92.1094,31.1187 C90.1094,31.1187 88.8281,30.1031 88.8281,28.525 L88.8281,27.4781 C88.8281,25.775 90.0469,24.5718 91.75,24.5718 C92.3281,24.5718 92.9063,24.7125 93.375,24.9625 C93.8438,25.2281 94.0156,25.4156 94.0781,25.775 C94.2031,26.4468 94.4531,26.6968 94.9844,26.6968 C95.2656,26.6968 95.5469,26.5562 95.7344,26.3375 C95.8594,26.1656 95.9063,25.9937 95.9063,25.5562 L95.9063,24.1968 C95.9063,23.775 95.8906,23.6343 95.7656,23.4625 C95.5938,23.2125 95.3125,23.0562 94.9844,23.0562 C94.6719,23.0562 94.4688,23.1656 94.25,23.4312 C93.0781,22.9312 92.6406,22.8218 91.6875,22.8218 C89.0156,22.8218 87,24.8375 87,27.4625 L87,28.5562 Z "/><text fill="#000000" font-family="sans-serif" font-size="14" font-weight="bold" lengthAdjust="spacingAndGlyphs" textLength="31" x="134" y="26.0059">Utils</text><text fill="#000000" font-family="sans-serif" font-size="10" lengthAdjust="spacingAndGlyphs" textLength="87" x="106" y="39.0899">it.matlice.ingsw.xml</text></a><path d="M136.5,193.02 C136.5,193.02 136.5,247.97 136.5,247.97 " fill="none" style="stroke: #A80036; stroke-width: 1.0; stroke-dasharray: 7.0,7.0;"/><polygon fill="#A80036" points="136.5,252.97,140.5,243.97,136.5,247.97,132.5,243.97,136.5,252.97" style="stroke: #A80036; stroke-width: 1.0;"/><path d="M136.5,47.18 C136.5,47.18 136.5,101.75 136.5,101.75 " fill="none" style="stroke: #A80036; stroke-width: 1.0; stroke-dasharray: 7.0,7.0;"/><polygon fill="#A80036" points="136.5,106.75,140.5,97.75,136.5,101.75,132.5,97.75,136.5,106.75" style="stroke: #A80036; stroke-width: 1.0;"/></g></svg>