<?xml version="1.0" encoding="UTF-8" standalone="no"?><svg xmlns="http://www.w3.org/2000/svg" xmlns:xlink="http://www.w3.org/1999/xlink" contentScriptType="application/ecmascript" contentStyleType="text/css" height="114px" preserveAspectRatio="none" style="width:165px;height:114px;" version="1.1" viewBox="0 0 165 114" width="165px" zoomAndPan="magnify"><defs><filter height="300%" id="f72sge8" width="300%" x="-1" y="-1"><feGaussianBlur result="blurOut" stdDeviation="2.0"/><feColorMatrix in="blurOut" result="blurOut2" type="matrix" values="0 0 0 0 0 0 0 0 0 0 0 0 0 0 0 0 0 0 .4 0"/><feOffset dx="4.0" dy="4.0" in="blurOut2" result="blurOut3"/><feBlend in="SourceGraphic" in2="blurOut3" mode="normal"/></filter></defs><g><!--cluster it.matlice.ingsw--><a target="_parent" xlink:actuate="onRequest" xlink:href="it/matlice/ingsw/package-summary.html" xlink:show="new" xlink:title="it.matlice.ingsw" xlink:type="simple"><polygon fill="#FFFFFF" filter="url(#f72sge8)" points="22,24,135,24,142,46.7999,158,46.7999,158,107,22,107,22,24" style="stroke: #000000; stroke-width: 2.0;"/><line style="stroke: #000000; stroke-width: 2.0;" x1="22" x2="142" y1="46.7999" y2="46.7999"/><text fill="#000000" font-family="sans-serif" font-size="14" font-weight="bold" lengthAdjust="spacingAndGlyphs" textLength="107" x="26" y="39.0059">it.matlice.ingsw</text></a><!--class it.matlice.ingsw.EntryPoint--><a target="_parent" xlink:actuate="onRequest" xlink:href="it/matlice/ingsw/EntryPoint.html" xlink:show="new" xlink:title="it.matlice.ingsw.EntryPoint" xlink:type="simple"><rect fill="#FEFECE" filter="url(#f72sge8)" height="32" style="stroke: #A80036; stroke-width: 1.5;" width="104" x="38" y="59"/><ellipse cx="53" cy="75" fill="#ADD1B2" rx="11" ry="11" style="stroke: #A80036; stroke-width: 1.0;"/><path d="M48,76.1563 C48,78.6563 50.1406,80.4688 53.0625,80.4688 C54.2969,80.4688 55.4688,80.1719 56.2188,79.6563 C56.8281,79.2344 57.1563,78.8125 57.1563,78.4063 C57.1563,77.9375 56.7344,77.5313 56.2344,77.5313 C56,77.5313 55.7813,77.6094 55.5781,77.8125 C55.1406,78.25 55.1406,78.25 54.9688,78.3438 C54.5156,78.5781 53.875,78.7188 53.1094,78.7188 C51.1094,78.7188 49.8281,77.7031 49.8281,76.125 L49.8281,75.0781 C49.8281,73.375 51.0469,72.1719 52.75,72.1719 C53.3281,72.1719 53.9063,72.3125 54.375,72.5625 C54.8438,72.8281 55.0156,73.0156 55.0781,73.375 C55.2031,74.0469 55.4531,74.2969 55.9844,74.2969 C56.2656,74.2969 56.5469,74.1563 56.7344,73.9375 C56.8594,73.7656 56.9063,73.5938 56.9063,73.1563 L56.9063,71.7969 C56.9063,71.375 56.8906,71.2344 56.7656,71.0625 C56.5938,70.8125 56.3125,70.6563 55.9844,70.6563 C55.6719,70.6563 55.4688,70.7656 55.25,71.0313 C54.0781,70.5313 53.6406,70.4219 52.6875,70.4219 C50.0156,70.4219 48,72.4375 48,75.0625 L48,76.1563 Z "/><text fill="#000000" font-family="sans-serif" font-size="14" font-weight="bold" lengthAdjust="spacingAndGlyphs" textLength="72" x="67" y="79.606">EntryPoint</text></a></g></svg>