<?xml version="1.0" encoding="UTF-8" standalone="no"?><svg xmlns="http://www.w3.org/2000/svg" xmlns:xlink="http://www.w3.org/1999/xlink" contentScriptType="application/ecmascript" contentStyleType="text/css" height="497px" preserveAspectRatio="none" style="width:595px;height:497px;" version="1.1" viewBox="0 0 595 497" width="595px" zoomAndPan="magnify"><defs><filter height="300%" id="fnflmz9" width="300%" x="-1" y="-1"><feGaussianBlur result="blurOut" stdDeviation="2.0"/><feColorMatrix in="blurOut" result="blurOut2" type="matrix" values="0 0 0 0 0 0 0 0 0 0 0 0 0 0 0 0 0 0 .4 0"/><feOffset dx="4.0" dy="4.0" in="blurOut2" result="blurOut3"/><feBlend in="SourceGraphic" in2="blurOut3" mode="normal"/></filter></defs><g><!--class it.matlice.ingsw.view.menu.MenuEntry--><a target="_parent" xlink:actuate="onRequest" xlink:href="../../../../../it/matlice/ingsw/view/menu/MenuEntry.html" xlink:show="new" xlink:title="it.matlice.ingsw.view.menu.MenuEntry" xlink:type="simple"><rect fill="#FEFECE" filter="url(#fnflmz9)" height="279.1982" style="stroke: #A80036; stroke-width: 1.5;" width="529" x="6" y="107"/><ellipse cx="205.75" cy="126.4" fill="#ADD1B2" rx="11" ry="11" style="stroke: #A80036; stroke-width: 1.0;"/><path d="M200.75,127.5562 C200.75,130.0562 202.8906,131.8687 205.8125,131.8687 C207.0469,131.8687 208.2188,131.5718 208.9688,131.0562 C209.5781,130.6343 209.9063,130.2125 209.9063,129.8062 C209.9063,129.3375 209.4844,128.9312 208.9844,128.9312 C208.75,128.9312 208.5313,129.0093 208.3281,129.2125 C207.8906,129.65 207.8906,129.65 207.7188,129.7437 C207.2656,129.9781 206.625,130.1187 205.8594,130.1187 C203.8594,130.1187 202.5781,129.1031 202.5781,127.525 L202.5781,126.4781 C202.5781,124.775 203.7969,123.5718 205.5,123.5718 C206.0781,123.5718 206.6563,123.7125 207.125,123.9625 C207.5938,124.2281 207.7656,124.4156 207.8281,124.775 C207.9531,125.4468 208.2031,125.6968 208.7344,125.6968 C209.0156,125.6968 209.2969,125.5562 209.4844,125.3375 C209.6094,125.1656 209.6563,124.9937 209.6563,124.5562 L209.6563,123.1968 C209.6563,122.775 209.6406,122.6343 209.5156,122.4625 C209.3438,122.2125 209.0625,122.0562 208.7344,122.0562 C208.4219,122.0562 208.2188,122.1656 208,122.4312 C206.8281,121.9312 206.3906,121.8218 205.4375,121.8218 C202.7656,121.8218 200.75,123.8375 200.75,126.4625 L200.75,127.5562 Z "/><text fill="#000000" font-family="sans-serif" font-size="14" font-weight="bold" lengthAdjust="spacingAndGlyphs" textLength="74" x="249.75" y="125.0059">MenuEntry</text><text fill="#000000" font-family="sans-serif" font-size="10" lengthAdjust="spacingAndGlyphs" textLength="121" x="226.25" y="138.0899">it.matlice.ingsw.view.menu</text><line style="stroke: #A80036; stroke-width: 1.5;" x1="7" x2="534" y1="145.7999" y2="145.7999"/><rect fill="none" height="6" style="stroke: #C82930; stroke-width: 1.0;" width="6" x="14" y="154.8999"/><text fill="#000000" font-family="sans-serif" font-size="11" lengthAdjust="spacingAndGlyphs" textLength="58" x="26" y="160.0188">String name</text><rect fill="none" height="6" style="stroke: #C82930; stroke-width: 1.0;" width="6" x="14" y="168.0998"/><text fill="#000000" font-family="sans-serif" font-size="11" lengthAdjust="spacingAndGlyphs" textLength="64" x="26" y="173.2187">int pos_index</text><rect fill="none" height="6" style="stroke: #C82930; stroke-width: 1.0;" width="6" x="14" y="181.2997"/><text fill="#000000" font-family="sans-serif" font-size="11" lengthAdjust="spacingAndGlyphs" textLength="62" x="26" y="186.4186">int call_index</text><rect fill="none" height="6" style="stroke: #C82930; stroke-width: 1.0;" width="6" x="14" y="194.4996"/><text fill="#000000" font-family="sans-serif" font-size="11" lengthAdjust="spacingAndGlyphs" textLength="89" x="26" y="199.6185">MenuAction action</text><rect fill="none" height="6" style="stroke: #C82930; stroke-width: 1.0;" width="6" x="14" y="207.6995"/><text fill="#000000" font-family="sans-serif" font-size="11" lengthAdjust="spacingAndGlyphs" textLength="81" x="26" y="212.8184">boolean disabled</text><rect fill="none" height="6" style="stroke: #C82930; stroke-width: 1.0;" width="6" x="14" y="220.8994"/><text fill="#000000" font-family="sans-serif" font-size="11" lengthAdjust="spacingAndGlyphs" textLength="73" x="26" y="226.0183">Object payload</text><line style="stroke: #A80036; stroke-width: 1.5;" x1="7" x2="534" y1="232.9993" y2="232.9993"/><ellipse cx="17" cy="245.0993" fill="#84BE84" rx="3" ry="3" style="stroke: #038048; stroke-width: 1.0;"/><text fill="#000000" font-family="sans-serif" font-size="11" lengthAdjust="spacingAndGlyphs" textLength="503" x="26" y="247.2182">MenuEntry(String name,int pos_index,int call_index,MenuAction action,Object payload,boolean disabled)</text><ellipse cx="17" cy="258.2992" fill="#84BE84" rx="3" ry="3" style="stroke: #038048; stroke-width: 1.0;"/><text fill="#000000" font-family="sans-serif" font-size="11" lengthAdjust="spacingAndGlyphs" textLength="99" x="26" y="260.4182">boolean isDisabled()</text><ellipse cx="17" cy="271.4991" fill="#84BE84" rx="3" ry="3" style="stroke: #038048; stroke-width: 1.0;"/><text fill="#000000" font-family="sans-serif" font-size="11" lengthAdjust="spacingAndGlyphs" textLength="169" x="26" y="273.6181">void setDisabled(boolean disabled)</text><ellipse cx="17" cy="284.699" fill="#84BE84" rx="3" ry="3" style="stroke: #038048; stroke-width: 1.0;"/><text fill="#000000" font-family="sans-serif" font-size="11" lengthAdjust="spacingAndGlyphs" textLength="97" x="26" y="286.818">Object getPayload()</text><ellipse cx="17" cy="297.8989" fill="#84BE84" rx="3" ry="3" style="stroke: #038048; stroke-width: 1.0;"/><text fill="#000000" font-family="sans-serif" font-size="11" lengthAdjust="spacingAndGlyphs" textLength="158" x="26" y="300.0179">void setPayload(Object payload)</text><ellipse cx="17" cy="311.0988" fill="#84BE84" rx="3" ry="3" style="stroke: #038048; stroke-width: 1.0;"/><text fill="#000000" font-family="sans-serif" font-size="11" lengthAdjust="spacingAndGlyphs" textLength="140" x="26" y="313.2178">int compareTo(MenuEntry o)</text><ellipse cx="17" cy="324.2987" fill="#84BE84" rx="3" ry="3" style="stroke: #038048; stroke-width: 1.0;"/><text fill="#000000" font-family="sans-serif" font-size="11" lengthAdjust="spacingAndGlyphs" textLength="83" x="26" y="326.4177">String getName()</text><ellipse cx="17" cy="337.4986" fill="#84BE84" rx="3" ry="3" style="stroke: #038048; stroke-width: 1.0;"/><text fill="#000000" font-family="sans-serif" font-size="11" lengthAdjust="spacingAndGlyphs" textLength="88" x="26" y="339.6176">int getPos_index()</text><ellipse cx="17" cy="350.6985" fill="#84BE84" rx="3" ry="3" style="stroke: #038048; stroke-width: 1.0;"/><text fill="#000000" font-family="sans-serif" font-size="11" lengthAdjust="spacingAndGlyphs" textLength="87" x="26" y="352.8175">int getCall_index()</text><ellipse cx="17" cy="363.8984" fill="#84BE84" rx="3" ry="3" style="stroke: #038048; stroke-width: 1.0;"/><text fill="#000000" font-family="sans-serif" font-size="11" lengthAdjust="spacingAndGlyphs" textLength="113" x="26" y="366.0174">MenuAction getAction()</text><ellipse cx="17" cy="377.0983" fill="#84BE84" rx="3" ry="3" style="stroke: #038048; stroke-width: 1.0;"/><text fill="#000000" font-family="sans-serif" font-size="11" lengthAdjust="spacingAndGlyphs" textLength="76" x="26" y="379.2173">String toString()</text></a><!--class it.matlice.ingsw.view.menu.MenuAction--><a target="_parent" xlink:actuate="onRequest" xlink:href="../../../../../it/matlice/ingsw/view/menu/MenuAction.html" xlink:show="new" xlink:title="it.matlice.ingsw.view.menu.MenuAction" xlink:type="simple"><rect fill="#FEFECE" filter="url(#fnflmz9)" height="42.3999" style="stroke: #A80036; stroke-width: 1.5;" width="153" x="194" y="446"/><ellipse cx="209" cy="467.2" fill="#B4A7E5" rx="11" ry="11" style="stroke: #A80036; stroke-width: 1.0;"/><path d="M210.0156,464.3562 L211.6719,464.3562 C212.0625,464.3562 212.2656,464.325 212.4219,464.2468 C212.6875,464.075 212.8594,463.7781 212.8594,463.4812 C212.8594,463.2 212.7188,462.95 212.4844,462.7781 C212.2969,462.6531 212.1406,462.6062 211.6719,462.6062 L206.5313,462.6062 C206.0938,462.6062 205.9531,462.6218 205.7813,462.7312 C205.5156,462.9031 205.3438,463.1843 205.3438,463.4812 C205.3438,463.7625 205.4844,464.0437 205.7188,464.2 C205.9063,464.325 206.0938,464.3562 206.5313,464.3562 L208.1875,464.3562 L208.1875,470.45 L206.5313,470.45 C206.0938,470.45 205.9531,470.4656 205.7813,470.575 C205.5156,470.7312 205.3438,471.0281 205.3438,471.3093 C205.3438,471.9187 205.75,472.2 206.5313,472.2 L211.6719,472.2 C212.4531,472.2 212.8594,471.9187 212.8594,471.3093 C212.8594,471.0437 212.7188,470.7937 212.4844,470.6218 C212.2969,470.4812 212.125,470.45 211.6719,470.45 L210.0156,470.45 L210.0156,464.3562 Z "/><text fill="#000000" font-family="sans-serif" font-size="14" font-style="italic" font-weight="bold" lengthAdjust="spacingAndGlyphs" textLength="83" x="242" y="466.3999">MenuAction</text><text fill="#000000" font-family="sans-serif" font-size="10" font-style="italic" lengthAdjust="spacingAndGlyphs" textLength="121" x="223" y="480.8999">it.matlice.ingsw.view.menu</text></a><!--class java.lang.ComparableMenuEntry--><rect fill="#D3D3D3" filter="url(#fnflmz9)" height="42.3999" style="stroke: #A80036; stroke-width: 1.5;" width="204" x="382.5" y="446"/><rect fill="#D3D3D3" height="42.3999" style="stroke: #A80036; stroke-width: 1.5;" width="204" x="382.5" y="446"/><ellipse cx="397.5" cy="467.2" fill="#B4A7E5" rx="11" ry="11" style="stroke: #A80036; stroke-width: 1.0;"/><path d="M398.5156,464.3562 L400.1719,464.3562 C400.5625,464.3562 400.7656,464.325 400.9219,464.2468 C401.1875,464.075 401.3594,463.7781 401.3594,463.4812 C401.3594,463.2 401.2188,462.95 400.9844,462.7781 C400.7969,462.6531 400.6406,462.6062 400.1719,462.6062 L395.0313,462.6062 C394.5938,462.6062 394.4531,462.6218 394.2813,462.7312 C394.0156,462.9031 393.8438,463.1843 393.8438,463.4812 C393.8438,463.7625 393.9844,464.0437 394.2188,464.2 C394.4063,464.325 394.5938,464.3562 395.0313,464.3562 L396.6875,464.3562 L396.6875,470.45 L395.0313,470.45 C394.5938,470.45 394.4531,470.4656 394.2813,470.575 C394.0156,470.7312 393.8438,471.0281 393.8438,471.3093 C393.8438,471.9187 394.25,472.2 395.0313,472.2 L400.1719,472.2 C400.9531,472.2 401.3594,471.9187 401.3594,471.3093 C401.3594,471.0437 401.2188,470.7937 400.9844,470.6218 C400.7969,470.4812 400.625,470.45 400.1719,470.45 L398.5156,470.45 L398.5156,464.3562 Z "/><text fill="#000000" font-family="sans-serif" font-size="14" font-style="italic" font-weight="bold" lengthAdjust="spacingAndGlyphs" textLength="172" x="411.5" y="466.3999">Comparable&lt;MenuEntry&gt;</text><text fill="#000000" font-family="sans-serif" font-size="10" font-style="italic" lengthAdjust="spacingAndGlyphs" textLength="42" x="476.5" y="480.8999">java.lang</text><!--class it.matlice.ingsw.view.menu.Menu--><a target="_parent" xlink:actuate="onRequest" xlink:href="../../../../../it/matlice/ingsw/view/menu/Menu.html" xlink:show="new" xlink:title="it.matlice.ingsw.view.menu.Menu" xlink:type="simple"><rect fill="#FEFECE" filter="url(#fnflmz9)" height="38.7999" style="stroke: #A80036; stroke-width: 1.5;" width="153" x="194" y="8"/><ellipse cx="209" cy="27.4" fill="#ADD1B2" rx="11" ry="11" style="stroke: #A80036; stroke-width: 1.0;"/><path d="M204,28.5562 C204,31.0562 206.1406,32.8687 209.0625,32.8687 C210.2969,32.8687 211.4688,32.5718 212.2188,32.0562 C212.8281,31.6343 213.1563,31.2125 213.1563,30.8062 C213.1563,30.3375 212.7344,29.9312 212.2344,29.9312 C212,29.9312 211.7813,30.0093 211.5781,30.2125 C211.1406,30.65 211.1406,30.65 210.9688,30.7437 C210.5156,30.9781 209.875,31.1187 209.1094,31.1187 C207.1094,31.1187 205.8281,30.1031 205.8281,28.525 L205.8281,27.4781 C205.8281,25.775 207.0469,24.5718 208.75,24.5718 C209.3281,24.5718 209.9063,24.7125 210.375,24.9625 C210.8438,25.2281 211.0156,25.4156 211.0781,25.775 C211.2031,26.4468 211.4531,26.6968 211.9844,26.6968 C212.2656,26.6968 212.5469,26.5562 212.7344,26.3375 C212.8594,26.1656 212.9063,25.9937 212.9063,25.5562 L212.9063,24.1968 C212.9063,23.775 212.8906,23.6343 212.7656,23.4625 C212.5938,23.2125 212.3125,23.0562 211.9844,23.0562 C211.6719,23.0562 211.4688,23.1656 211.25,23.4312 C210.0781,22.9312 209.6406,22.8218 208.6875,22.8218 C206.0156,22.8218 204,24.8375 204,27.4625 L204,28.5562 Z "/><text fill="#000000" font-family="sans-serif" font-size="14" font-weight="bold" lengthAdjust="spacingAndGlyphs" textLength="38" x="264.5" y="26.0059">Menu</text><text fill="#000000" font-family="sans-serif" font-size="10" lengthAdjust="spacingAndGlyphs" textLength="121" x="223" y="39.0899">it.matlice.ingsw.view.menu</text></a><path d="M245,386.15 C245,386.15 245,440.68 245,440.68 " fill="none" style="stroke: #A80036; stroke-width: 1.0;"/><polygon fill="#A80036" points="245,445.68,249,436.68,245,440.68,241,436.68,245,445.68" style="stroke: #A80036; stroke-width: 1.0;"/><text fill="#000000" font-family="sans-serif" font-size="13" lengthAdjust="spacingAndGlyphs" textLength="35" x="197.3688" y="434.3205">action</text><path d="M296,445.86 C296,445.86 296,391.15 296,391.15 " fill="none" style="stroke: #A80036; stroke-width: 1.0; stroke-dasharray: 7.0,7.0;"/><polygon fill="#A80036" points="296,386.15,292,395.15,296,391.15,300,395.15,296,386.15" style="stroke: #A80036; stroke-width: 1.0;"/><path d="M433.33,386.15 C433.33,386.15 433.33,425.68 433.33,425.68 " fill="none" style="stroke: #A80036; stroke-width: 1.0; stroke-dasharray: 7.0,7.0;"/><polygon fill="none" points="440.33,425.68,433.33,445.68,426.33,425.68,440.33,425.68" style="stroke: #A80036; stroke-width: 1.0;"/><path d="M441,106.91 C441,89.14 441,77 441,77 C441,77 560.75,77 560.75,77 C560.75,77 560.75,416 560.75,416 C560.75,416 484.17,416 484.17,416 C484.17,416 484.17,391.09 484.17,391.09 " fill="none" style="stroke: #A80036; stroke-width: 1.0; stroke-dasharray: 7.0,7.0;"/><polygon fill="#A80036" points="484.17,386.09,480.17,395.09,484.17,391.09,488.17,395.09,484.17,386.09" style="stroke: #A80036; stroke-width: 1.0;"/><path d="M245,47.32 C245,47.32 245,101.95 245,101.95 " fill="none" style="stroke: #A80036; stroke-width: 1.0; stroke-dasharray: 7.0,7.0;"/><polygon fill="#A80036" points="245,106.95,249,97.95,245,101.95,241,97.95,245,106.95" style="stroke: #A80036; stroke-width: 1.0;"/><path d="M296,47.32 C296,47.32 296,101.95 296,101.95 " fill="none" style="stroke: #A80036; stroke-width: 1.0;"/><polygon fill="#A80036" points="296,106.95,300,97.95,296,101.95,292,97.95,296,106.95" style="stroke: #A80036; stroke-width: 1.0;"/><text fill="#000000" font-family="sans-serif" font-size="13" lengthAdjust="spacingAndGlyphs" textLength="57" x="238.8266" y="95.5373">last_entry</text></g></svg>