<?xml version="1.0" encoding="UTF-8" standalone="no"?><svg xmlns="http://www.w3.org/2000/svg" xmlns:xlink="http://www.w3.org/1999/xlink" contentScriptType="application/ecmascript" contentStyleType="text/css" height="287px" preserveAspectRatio="none" style="width:406px;height:287px;" version="1.1" viewBox="0 0 406 287" width="406px" zoomAndPan="magnify"><defs><filter height="300%" id="fx64a72" width="300%" x="-1" y="-1"><feGaussianBlur result="blurOut" stdDeviation="2.0"/><feColorMatrix in="blurOut" result="blurOut2" type="matrix" values="0 0 0 0 0 0 0 0 0 0 0 0 0 0 0 0 0 0 .4 0"/><feOffset dx="4.0" dy="4.0" in="blurOut2" result="blurOut3"/><feBlend in="SourceGraphic" in2="blurOut3" mode="normal"/></filter></defs><g><!--class it.matlice.ingsw.view.menu.MenuAction--><a target="_parent" xlink:actuate="onRequest" xlink:href="../../../../../it/matlice/ingsw/view/menu/MenuAction.html" xlink:show="new" xlink:title="it.matlice.ingsw.view.menu.MenuAction" xlink:type="simple"><rect fill="#FEFECE" filter="url(#fx64a72)" height="73.2498" style="stroke: #A80036; stroke-width: 1.5;" width="337" x="6" y="107"/><ellipse cx="109.75" cy="128.2" fill="#B4A7E5" rx="11" ry="11" style="stroke: #A80036; stroke-width: 1.0;"/><path d="M110.7656,125.3562 L112.4219,125.3562 C112.8125,125.3562 113.0156,125.325 113.1719,125.2468 C113.4375,125.075 113.6094,124.7781 113.6094,124.4812 C113.6094,124.2 113.4688,123.95 113.2344,123.7781 C113.0469,123.6531 112.8906,123.6062 112.4219,123.6062 L107.2813,123.6062 C106.8438,123.6062 106.7031,123.6218 106.5313,123.7312 C106.2656,123.9031 106.0938,124.1843 106.0938,124.4812 C106.0938,124.7625 106.2344,125.0437 106.4688,125.2 C106.6563,125.325 106.8438,125.3562 107.2813,125.3562 L108.9375,125.3562 L108.9375,131.45 L107.2813,131.45 C106.8438,131.45 106.7031,131.4656 106.5313,131.575 C106.2656,131.7312 106.0938,132.0281 106.0938,132.3093 C106.0938,132.9187 106.5,133.2 107.2813,133.2 L112.4219,133.2 C113.2031,133.2 113.6094,132.9187 113.6094,132.3093 C113.6094,132.0437 113.4688,131.7937 113.2344,131.6218 C113.0469,131.4812 112.875,131.45 112.4219,131.45 L110.7656,131.45 L110.7656,125.3562 Z "/><text fill="#000000" font-family="sans-serif" font-size="14" font-style="italic" font-weight="bold" lengthAdjust="spacingAndGlyphs" textLength="83" x="149.25" y="127.3999">MenuAction</text><text fill="#000000" font-family="sans-serif" font-size="10" font-style="italic" lengthAdjust="spacingAndGlyphs" textLength="121" x="130.25" y="141.8999">it.matlice.ingsw.view.menu</text><line style="stroke: #A80036; stroke-width: 1.5;" x1="7" x2="342" y1="149.3999" y2="149.3999"/><line style="stroke: #A80036; stroke-width: 1.5;" x1="7" x2="342" y1="157.3999" y2="157.3999"/><ellipse cx="17" cy="170.3248" fill="#84BE84" rx="3" ry="3" style="stroke: #038048; stroke-width: 1.0;"/><text fill="#000000" font-family="sans-serif" font-size="11" font-style="italic" lengthAdjust="spacingAndGlyphs" textLength="311" x="26" y="173.4998">Object onUserSelect(Scanner in,PrintStream out,MenuEntry ref)</text></a><!--class it.matlice.ingsw.view.menu.MenuEntry--><a target="_parent" xlink:actuate="onRequest" xlink:href="../../../../../it/matlice/ingsw/view/menu/MenuEntry.html" xlink:show="new" xlink:title="it.matlice.ingsw.view.menu.MenuEntry" xlink:type="simple"><rect fill="#FEFECE" filter="url(#fx64a72)" height="38.7999" style="stroke: #A80036; stroke-width: 1.5;" width="153" x="98" y="240"/><ellipse cx="113" cy="259.4" fill="#ADD1B2" rx="11" ry="11" style="stroke: #A80036; stroke-width: 1.0;"/><path d="M108,260.5562 C108,263.0562 110.1406,264.8687 113.0625,264.8687 C114.2969,264.8687 115.4688,264.5718 116.2188,264.0562 C116.8281,263.6343 117.1563,263.2125 117.1563,262.8062 C117.1563,262.3375 116.7344,261.9312 116.2344,261.9312 C116,261.9312 115.7813,262.0093 115.5781,262.2125 C115.1406,262.65 115.1406,262.65 114.9688,262.7437 C114.5156,262.9781 113.875,263.1187 113.1094,263.1187 C111.1094,263.1187 109.8281,262.1031 109.8281,260.525 L109.8281,259.4781 C109.8281,257.775 111.0469,256.5718 112.75,256.5718 C113.3281,256.5718 113.9063,256.7125 114.375,256.9625 C114.8438,257.2281 115.0156,257.4156 115.0781,257.775 C115.2031,258.4468 115.4531,258.6968 115.9844,258.6968 C116.2656,258.6968 116.5469,258.5562 116.7344,258.3375 C116.8594,258.1656 116.9063,257.9937 116.9063,257.5562 L116.9063,256.1968 C116.9063,255.775 116.8906,255.6343 116.7656,255.4625 C116.5938,255.2125 116.3125,255.0562 115.9844,255.0562 C115.6719,255.0562 115.4688,255.1656 115.25,255.4312 C114.0781,254.9312 113.6406,254.8218 112.6875,254.8218 C110.0156,254.8218 108,256.8375 108,259.4625 L108,260.5562 Z "/><text fill="#000000" font-family="sans-serif" font-size="14" font-weight="bold" lengthAdjust="spacingAndGlyphs" textLength="74" x="150.5" y="258.0059">MenuEntry</text><text fill="#000000" font-family="sans-serif" font-size="10" lengthAdjust="spacingAndGlyphs" textLength="121" x="127" y="271.0899">it.matlice.ingsw.view.menu</text></a><!--class java.io.PrintStream--><rect fill="#D3D3D3" filter="url(#fx64a72)" height="38.7999" style="stroke: #A80036; stroke-width: 1.5;" width="111" x="286" y="240"/><rect fill="#D3D3D3" height="38.7999" style="stroke: #A80036; stroke-width: 1.5;" width="111" x="286" y="240"/><ellipse cx="301" cy="259.4" fill="#ADD1B2" rx="11" ry="11" style="stroke: #A80036; stroke-width: 1.0;"/><path d="M296,260.5562 C296,263.0562 298.1406,264.8687 301.0625,264.8687 C302.2969,264.8687 303.4688,264.5718 304.2188,264.0562 C304.8281,263.6343 305.1563,263.2125 305.1563,262.8062 C305.1563,262.3375 304.7344,261.9312 304.2344,261.9312 C304,261.9312 303.7813,262.0093 303.5781,262.2125 C303.1406,262.65 303.1406,262.65 302.9688,262.7437 C302.5156,262.9781 301.875,263.1187 301.1094,263.1187 C299.1094,263.1187 297.8281,262.1031 297.8281,260.525 L297.8281,259.4781 C297.8281,257.775 299.0469,256.5718 300.75,256.5718 C301.3281,256.5718 301.9063,256.7125 302.375,256.9625 C302.8438,257.2281 303.0156,257.4156 303.0781,257.775 C303.2031,258.4468 303.4531,258.6968 303.9844,258.6968 C304.2656,258.6968 304.5469,258.5562 304.7344,258.3375 C304.8594,258.1656 304.9063,257.9937 304.9063,257.5562 L304.9063,256.1968 C304.9063,255.775 304.8906,255.6343 304.7656,255.4625 C304.5938,255.2125 304.3125,255.0562 303.9844,255.0562 C303.6719,255.0562 303.4688,255.1656 303.25,255.4312 C302.0781,254.9312 301.6406,254.8218 300.6875,254.8218 C298.0156,254.8218 296,256.8375 296,259.4625 L296,260.5562 Z "/><text fill="#000000" font-family="sans-serif" font-size="14" font-weight="bold" lengthAdjust="spacingAndGlyphs" textLength="79" x="315" y="258.0059">PrintStream</text><text fill="#000000" font-family="sans-serif" font-size="10" lengthAdjust="spacingAndGlyphs" textLength="30" x="339.5" y="271.0899">java.io</text><!--class it.matlice.ingsw.view.menu.Menu--><a target="_parent" xlink:actuate="onRequest" xlink:href="../../../../../it/matlice/ingsw/view/menu/Menu.html" xlink:show="new" xlink:title="it.matlice.ingsw.view.menu.Menu" xlink:type="simple"><rect fill="#FEFECE" filter="url(#fx64a72)" height="38.7999" style="stroke: #A80036; stroke-width: 1.5;" width="153" x="98" y="8"/><ellipse cx="113" cy="27.4" fill="#ADD1B2" rx="11" ry="11" style="stroke: #A80036; stroke-width: 1.0;"/><path d="M108,28.5562 C108,31.0562 110.1406,32.8687 113.0625,32.8687 C114.2969,32.8687 115.4688,32.5718 116.2188,32.0562 C116.8281,31.6343 117.1563,31.2125 117.1563,30.8062 C117.1563,30.3375 116.7344,29.9312 116.2344,29.9312 C116,29.9312 115.7813,30.0093 115.5781,30.2125 C115.1406,30.65 115.1406,30.65 114.9688,30.7437 C114.5156,30.9781 113.875,31.1187 113.1094,31.1187 C111.1094,31.1187 109.8281,30.1031 109.8281,28.525 L109.8281,27.4781 C109.8281,25.775 111.0469,24.5718 112.75,24.5718 C113.3281,24.5718 113.9063,24.7125 114.375,24.9625 C114.8438,25.2281 115.0156,25.4156 115.0781,25.775 C115.2031,26.4468 115.4531,26.6968 115.9844,26.6968 C116.2656,26.6968 116.5469,26.5562 116.7344,26.3375 C116.8594,26.1656 116.9063,25.9937 116.9063,25.5562 L116.9063,24.1968 C116.9063,23.775 116.8906,23.6343 116.7656,23.4625 C116.5938,23.2125 116.3125,23.0562 115.9844,23.0562 C115.6719,23.0562 115.4688,23.1656 115.25,23.4312 C114.0781,22.9312 113.6406,22.8218 112.6875,22.8218 C110.0156,22.8218 108,24.8375 108,27.4625 L108,28.5562 Z "/><text fill="#000000" font-family="sans-serif" font-size="14" font-weight="bold" lengthAdjust="spacingAndGlyphs" textLength="38" x="168.5" y="26.0059">Menu</text><text fill="#000000" font-family="sans-serif" font-size="10" lengthAdjust="spacingAndGlyphs" textLength="121" x="127" y="39.0899">it.matlice.ingsw.view.menu</text></a><path d="M200,239.82 C200,239.82 200,185.19 200,185.19 " fill="none" style="stroke: #A80036; stroke-width: 1.0;"/><polygon fill="#A80036" points="200,180.19,196,189.19,200,185.19,204,189.19,200,180.19" style="stroke: #A80036; stroke-width: 1.0;"/><text fill="#000000" font-family="sans-serif" font-size="13" lengthAdjust="spacingAndGlyphs" textLength="35" x="166.475" y="200.4468">action</text><path d="M149,180.2 C149,180.2 149,234.89 149,234.89 " fill="none" style="stroke: #A80036; stroke-width: 1.0; stroke-dasharray: 7.0,7.0;"/><polygon fill="#A80036" points="149,239.89,153,230.89,149,234.89,145,230.89,149,239.89" style="stroke: #A80036; stroke-width: 1.0;"/><path d="M314.5,180.2 C314.5,180.2 314.5,234.89 314.5,234.89 " fill="none" style="stroke: #A80036; stroke-width: 1.0; stroke-dasharray: 7.0,7.0;"/><polygon fill="#A80036" points="314.5,239.89,318.5,230.89,314.5,234.89,310.5,230.89,314.5,239.89" style="stroke: #A80036; stroke-width: 1.0;"/><path d="M174.5,47.18 C174.5,47.18 174.5,101.81 174.5,101.81 " fill="none" style="stroke: #A80036; stroke-width: 1.0; stroke-dasharray: 7.0,7.0;"/><polygon fill="#A80036" points="174.5,106.81,178.5,97.81,174.5,101.81,170.5,97.81,174.5,106.81" style="stroke: #A80036; stroke-width: 1.0;"/></g></svg>