<?xml version="1.0" encoding="UTF-8" standalone="no"?><svg xmlns="http://www.w3.org/2000/svg" xmlns:xlink="http://www.w3.org/1999/xlink" contentScriptType="application/ecmascript" contentStyleType="text/css" height="425px" preserveAspectRatio="none" style="width:530px;height:425px;" version="1.1" viewBox="0 0 530 425" width="530px" zoomAndPan="magnify"><defs><filter height="300%" id="f01hem7" width="300%" x="-1" y="-1"><feGaussianBlur result="blurOut" stdDeviation="2.0"/><feColorMatrix in="blurOut" result="blurOut2" type="matrix" values="0 0 0 0 0 0 0 0 0 0 0 0 0 0 0 0 0 0 .4 0"/><feOffset dx="4.0" dy="4.0" in="blurOut2" result="blurOut3"/><feBlend in="SourceGraphic" in2="blurOut3" mode="normal"/></filter></defs><g><!--class it.matlice.ingsw.view.menu.Menu--><a target="_parent" xlink:actuate="onRequest" xlink:href="../../../../../it/matlice/ingsw/view/menu/Menu.html" xlink:show="new" xlink:title="it.matlice.ingsw.view.menu.Menu" xlink:type="simple"><rect fill="#FEFECE" filter="url(#f01hem7)" height="305.598" style="stroke: #A80036; stroke-width: 1.5;" width="398" x="6" y="8"/><ellipse cx="140.25" cy="27.4" fill="#ADD1B2" rx="11" ry="11" style="stroke: #A80036; stroke-width: 1.0;"/><path d="M135.25,28.5562 C135.25,31.0562 137.3906,32.8687 140.3125,32.8687 C141.5469,32.8687 142.7188,32.5718 143.4688,32.0562 C144.0781,31.6343 144.4063,31.2125 144.4063,30.8062 C144.4063,30.3375 143.9844,29.9312 143.4844,29.9312 C143.25,29.9312 143.0313,30.0093 142.8281,30.2125 C142.3906,30.65 142.3906,30.65 142.2188,30.7437 C141.7656,30.9781 141.125,31.1187 140.3594,31.1187 C138.3594,31.1187 137.0781,30.1031 137.0781,28.525 L137.0781,27.4781 C137.0781,25.775 138.2969,24.5718 140,24.5718 C140.5781,24.5718 141.1563,24.7125 141.625,24.9625 C142.0938,25.2281 142.2656,25.4156 142.3281,25.775 C142.4531,26.4468 142.7031,26.6968 143.2344,26.6968 C143.5156,26.6968 143.7969,26.5562 143.9844,26.3375 C144.1094,26.1656 144.1563,25.9937 144.1563,25.5562 L144.1563,24.1968 C144.1563,23.775 144.1406,23.6343 144.0156,23.4625 C143.8438,23.2125 143.5625,23.0562 143.2344,23.0562 C142.9219,23.0562 142.7188,23.1656 142.5,23.4312 C141.3281,22.9312 140.8906,22.8218 139.9375,22.8218 C137.2656,22.8218 135.25,24.8375 135.25,27.4625 L135.25,28.5562 Z "/><text fill="#000000" font-family="sans-serif" font-size="14" font-weight="bold" lengthAdjust="spacingAndGlyphs" textLength="38" x="202.25" y="26.0059">Menu</text><text fill="#000000" font-family="sans-serif" font-size="10" lengthAdjust="spacingAndGlyphs" textLength="121" x="160.75" y="39.0899">it.matlice.ingsw.view.menu</text><line style="stroke: #A80036; stroke-width: 1.5;" x1="7" x2="403" y1="46.7999" y2="46.7999"/><rect fill="none" height="6" style="stroke: #C82930; stroke-width: 1.0;" width="6" x="14" y="55.8999"/><text fill="#000000" font-family="sans-serif" font-size="11" lengthAdjust="spacingAndGlyphs" textLength="149" x="26" y="61.0188">SortedSet&lt;MenuEntry&gt; entries</text><rect fill="none" height="6" style="stroke: #C82930; stroke-width: 1.0;" width="6" x="14" y="69.0998"/><text fill="#000000" font-family="sans-serif" font-size="11" lengthAdjust="spacingAndGlyphs" textLength="190" x="26" y="74.2187">HashMap&lt;Integer, MenuEntry&gt; call_ref</text><rect fill="none" height="6" style="stroke: #C82930; stroke-width: 1.0;" width="6" x="14" y="82.2997"/><text fill="#000000" font-family="sans-serif" font-size="11" lengthAdjust="spacingAndGlyphs" textLength="65" x="26" y="87.4186">String prompt</text><rect fill="none" height="6" style="stroke: #C82930; stroke-width: 1.0;" width="6" x="14" y="95.4996"/><text fill="#000000" font-family="sans-serif" font-size="11" lengthAdjust="spacingAndGlyphs" textLength="104" x="26" y="100.6185">MenuEntry last_entry</text><line style="stroke: #A80036; stroke-width: 1.5;" x1="7" x2="403" y1="107.5995" y2="107.5995"/><ellipse cx="17" cy="119.6995" fill="#84BE84" rx="3" ry="3" style="stroke: #038048; stroke-width: 1.0;"/><text fill="#000000" font-family="sans-serif" font-size="11" lengthAdjust="spacingAndGlyphs" textLength="35" x="26" y="121.8184">Menu()</text><ellipse cx="17" cy="132.8994" fill="#84BE84" rx="3" ry="3" style="stroke: #038048; stroke-width: 1.0;"/><text fill="#000000" font-family="sans-serif" font-size="11" lengthAdjust="spacingAndGlyphs" textLength="153" x="26" y="135.0183">Menu setPrompt(String prompt)</text><ellipse cx="17" cy="146.0993" fill="#84BE84" rx="3" ry="3" style="stroke: #038048; stroke-width: 1.0;"/><text fill="#000000" font-family="sans-serif" font-size="11" lengthAdjust="spacingAndGlyphs" textLength="253" x="26" y="148.2182">Menu addEntry(String action_str,MenuAction action)</text><ellipse cx="17" cy="159.2992" fill="#84BE84" rx="3" ry="3" style="stroke: #038048; stroke-width: 1.0;"/><text fill="#000000" font-family="sans-serif" font-size="11" lengthAdjust="spacingAndGlyphs" textLength="307" x="26" y="161.4182">Menu addEntry(String action_str,MenuAction action,int position)</text><ellipse cx="17" cy="172.4991" fill="#84BE84" rx="3" ry="3" style="stroke: #038048; stroke-width: 1.0;"/><text fill="#000000" font-family="sans-serif" font-size="11" lengthAdjust="spacingAndGlyphs" textLength="318" x="26" y="174.6181">Menu addEntry(int call_index,String action_str,MenuAction action)</text><ellipse cx="17" cy="185.699" fill="#84BE84" rx="3" ry="3" style="stroke: #038048; stroke-width: 1.0;"/><text fill="#000000" font-family="sans-serif" font-size="11" lengthAdjust="spacingAndGlyphs" textLength="372" x="26" y="187.818">Menu addEntry(int call_index,String action_str,MenuAction action,int position)</text><ellipse cx="17" cy="198.8989" fill="#84BE84" rx="3" ry="3" style="stroke: #038048; stroke-width: 1.0;"/><text fill="#000000" font-family="sans-serif" font-size="11" lengthAdjust="spacingAndGlyphs" textLength="163" x="26" y="201.0179">Menu addEntry(MenuEntry entry)</text><ellipse cx="17" cy="212.0988" fill="#84BE84" rx="3" ry="3" style="stroke: #038048; stroke-width: 1.0;"/><text fill="#000000" font-family="sans-serif" font-size="11" lengthAdjust="spacingAndGlyphs" textLength="149" x="26" y="214.2178">Menu payload(Object payload)</text><ellipse cx="17" cy="225.2987" fill="#84BE84" rx="3" ry="3" style="stroke: #038048; stroke-width: 1.0;"/><text fill="#000000" font-family="sans-serif" font-size="11" lengthAdjust="spacingAndGlyphs" textLength="147" x="26" y="227.4177">Menu disable(boolean disable)</text><ellipse cx="17" cy="238.4986" fill="#84BE84" rx="3" ry="3" style="stroke: #038048; stroke-width: 1.0;"/><text fill="#000000" font-family="sans-serif" font-size="11" lengthAdjust="spacingAndGlyphs" textLength="188" x="26" y="240.6176">MenuEntry getEntry(int call_reference)</text><ellipse cx="17" cy="251.6985" fill="#84BE84" rx="3" ry="3" style="stroke: #038048; stroke-width: 1.0;"/><text fill="#000000" font-family="sans-serif" font-size="11" lengthAdjust="spacingAndGlyphs" textLength="260" x="26" y="253.8175">MenuEntry getEntryByPosition(int position_reference)</text><ellipse cx="17" cy="264.8984" fill="#84BE84" rx="3" ry="3" style="stroke: #038048; stroke-width: 1.0;"/><text fill="#000000" font-family="sans-serif" font-size="11" lengthAdjust="spacingAndGlyphs" textLength="234" x="26" y="267.0174">Object displayOnce(Scanner in,PrintStream out)</text><ellipse cx="17" cy="278.0983" fill="#84BE84" rx="3" ry="3" style="stroke: #038048; stroke-width: 1.0;"/><text fill="#000000" font-family="sans-serif" font-size="11" lengthAdjust="spacingAndGlyphs" textLength="207" x="26" y="280.2173">Object display(Scanner in,PrintStream out)</text><ellipse cx="17" cy="291.2982" fill="#84BE84" rx="3" ry="3" style="stroke: #038048; stroke-width: 1.0;"/><text fill="#000000" font-family="sans-serif" font-size="11" lengthAdjust="spacingAndGlyphs" textLength="162" x="26" y="293.4172">void onlyDisplay(PrintStream out)</text><ellipse cx="17" cy="304.4981" fill="#84BE84" rx="3" ry="3" style="stroke: #038048; stroke-width: 1.0;"/><text fill="#000000" font-family="sans-serif" font-size="11" lengthAdjust="spacingAndGlyphs" textLength="261" x="26" y="306.6171">Object selectAfterDisplay(Scanner in,PrintStream out)</text></a><!--class it.matlice.ingsw.view.menu.MenuEntry--><a target="_parent" xlink:actuate="onRequest" xlink:href="../../../../../it/matlice/ingsw/view/menu/MenuEntry.html" xlink:show="new" xlink:title="it.matlice.ingsw.view.menu.MenuEntry" xlink:type="simple"><rect fill="#FEFECE" filter="url(#f01hem7)" height="38.7999" style="stroke: #A80036; stroke-width: 1.5;" width="153" x="34.5" y="375.5"/><ellipse cx="49.5" cy="394.9" fill="#ADD1B2" rx="11" ry="11" style="stroke: #A80036; stroke-width: 1.0;"/><path d="M44.5,396.0562 C44.5,398.5562 46.6406,400.3687 49.5625,400.3687 C50.7969,400.3687 51.9688,400.0718 52.7188,399.5562 C53.3281,399.1343 53.6563,398.7125 53.6563,398.3062 C53.6563,397.8375 53.2344,397.4312 52.7344,397.4312 C52.5,397.4312 52.2813,397.5093 52.0781,397.7125 C51.6406,398.15 51.6406,398.15 51.4688,398.2437 C51.0156,398.4781 50.375,398.6187 49.6094,398.6187 C47.6094,398.6187 46.3281,397.6031 46.3281,396.025 L46.3281,394.9781 C46.3281,393.275 47.5469,392.0718 49.25,392.0718 C49.8281,392.0718 50.4063,392.2125 50.875,392.4625 C51.3438,392.7281 51.5156,392.9156 51.5781,393.275 C51.7031,393.9468 51.9531,394.1968 52.4844,394.1968 C52.7656,394.1968 53.0469,394.0562 53.2344,393.8375 C53.3594,393.6656 53.4063,393.4937 53.4063,393.0562 L53.4063,391.6968 C53.4063,391.275 53.3906,391.1343 53.2656,390.9625 C53.0938,390.7125 52.8125,390.5562 52.4844,390.5562 C52.1719,390.5562 51.9688,390.6656 51.75,390.9312 C50.5781,390.4312 50.1406,390.3218 49.1875,390.3218 C46.5156,390.3218 44.5,392.3375 44.5,394.9625 L44.5,396.0562 Z "/><text fill="#000000" font-family="sans-serif" font-size="14" font-weight="bold" lengthAdjust="spacingAndGlyphs" textLength="74" x="87" y="393.5059">MenuEntry</text><text fill="#000000" font-family="sans-serif" font-size="10" lengthAdjust="spacingAndGlyphs" textLength="121" x="63.5" y="406.5899">it.matlice.ingsw.view.menu</text></a><!--class it.matlice.ingsw.view.menu.MenuAction--><a target="_parent" xlink:actuate="onRequest" xlink:href="../../../../../it/matlice/ingsw/view/menu/MenuAction.html" xlink:show="new" xlink:title="it.matlice.ingsw.view.menu.MenuAction" xlink:type="simple"><rect fill="#FEFECE" filter="url(#f01hem7)" height="42.3999" style="stroke: #A80036; stroke-width: 1.5;" width="153" x="222.5" y="374"/><ellipse cx="237.5" cy="395.2" fill="#B4A7E5" rx="11" ry="11" style="stroke: #A80036; stroke-width: 1.0;"/><path d="M238.5156,392.3562 L240.1719,392.3562 C240.5625,392.3562 240.7656,392.325 240.9219,392.2468 C241.1875,392.075 241.3594,391.7781 241.3594,391.4812 C241.3594,391.2 241.2188,390.95 240.9844,390.7781 C240.7969,390.6531 240.6406,390.6062 240.1719,390.6062 L235.0313,390.6062 C234.5938,390.6062 234.4531,390.6218 234.2813,390.7312 C234.0156,390.9031 233.8438,391.1843 233.8438,391.4812 C233.8438,391.7625 233.9844,392.0437 234.2188,392.2 C234.4063,392.325 234.5938,392.3562 235.0313,392.3562 L236.6875,392.3562 L236.6875,398.45 L235.0313,398.45 C234.5938,398.45 234.4531,398.4656 234.2813,398.575 C234.0156,398.7312 233.8438,399.0281 233.8438,399.3093 C233.8438,399.9187 234.25,400.2 235.0313,400.2 L240.1719,400.2 C240.9531,400.2 241.3594,399.9187 241.3594,399.3093 C241.3594,399.0437 241.2188,398.7937 240.9844,398.6218 C240.7969,398.4812 240.625,398.45 240.1719,398.45 L238.5156,398.45 L238.5156,392.3562 Z "/><text fill="#000000" font-family="sans-serif" font-size="14" font-style="italic" font-weight="bold" lengthAdjust="spacingAndGlyphs" textLength="83" x="270.5" y="394.3999">MenuAction</text><text fill="#000000" font-family="sans-serif" font-size="10" font-style="italic" lengthAdjust="spacingAndGlyphs" textLength="121" x="251.5" y="408.8999">it.matlice.ingsw.view.menu</text></a><!--class java.io.PrintStream--><rect fill="#D3D3D3" filter="url(#f01hem7)" height="38.7999" style="stroke: #A80036; stroke-width: 1.5;" width="111" x="410.5" y="375.5"/><rect fill="#D3D3D3" height="38.7999" style="stroke: #A80036; stroke-width: 1.5;" width="111" x="410.5" y="375.5"/><ellipse cx="425.5" cy="394.9" fill="#ADD1B2" rx="11" ry="11" style="stroke: #A80036; stroke-width: 1.0;"/><path d="M420.5,396.0562 C420.5,398.5562 422.6406,400.3687 425.5625,400.3687 C426.7969,400.3687 427.9688,400.0718 428.7188,399.5562 C429.3281,399.1343 429.6563,398.7125 429.6563,398.3062 C429.6563,397.8375 429.2344,397.4312 428.7344,397.4312 C428.5,397.4312 428.2813,397.5093 428.0781,397.7125 C427.6406,398.15 427.6406,398.15 427.4688,398.2437 C427.0156,398.4781 426.375,398.6187 425.6094,398.6187 C423.6094,398.6187 422.3281,397.6031 422.3281,396.025 L422.3281,394.9781 C422.3281,393.275 423.5469,392.0718 425.25,392.0718 C425.8281,392.0718 426.4063,392.2125 426.875,392.4625 C427.3438,392.7281 427.5156,392.9156 427.5781,393.275 C427.7031,393.9468 427.9531,394.1968 428.4844,394.1968 C428.7656,394.1968 429.0469,394.0562 429.2344,393.8375 C429.3594,393.6656 429.4063,393.4937 429.4063,393.0562 L429.4063,391.6968 C429.4063,391.275 429.3906,391.1343 429.2656,390.9625 C429.0938,390.7125 428.8125,390.5562 428.4844,390.5562 C428.1719,390.5562 427.9688,390.6656 427.75,390.9312 C426.5781,390.4312 426.1406,390.3218 425.1875,390.3218 C422.5156,390.3218 420.5,392.3375 420.5,394.9625 L420.5,396.0562 Z "/><text fill="#000000" font-family="sans-serif" font-size="14" font-weight="bold" lengthAdjust="spacingAndGlyphs" textLength="79" x="439.5" y="393.5059">PrintStream</text><text fill="#000000" font-family="sans-serif" font-size="10" lengthAdjust="spacingAndGlyphs" textLength="30" x="464" y="406.5899">java.io</text><path d="M85.5,314.14 C85.5,314.14 85.5,370.47 85.5,370.47 " fill="none" style="stroke: #A80036; stroke-width: 1.0; stroke-dasharray: 7.0,7.0;"/><polygon fill="#A80036" points="85.5,375.47,89.5,366.47,85.5,370.47,81.5,366.47,85.5,375.47" style="stroke: #A80036; stroke-width: 1.0;"/><path d="M136.5,314.14 C136.5,314.14 136.5,370.47 136.5,370.47 " fill="none" style="stroke: #A80036; stroke-width: 1.0;"/><polygon fill="#A80036" points="136.5,375.47,140.5,366.47,136.5,370.47,132.5,366.47,136.5,375.47" style="stroke: #A80036; stroke-width: 1.0;"/><text fill="#000000" font-family="sans-serif" font-size="13" lengthAdjust="spacingAndGlyphs" textLength="57" x="78.5438" y="364.0587">last_entry</text><path d="M299,314.14 C299,314.14 299,368.85 299,368.85 " fill="none" style="stroke: #A80036; stroke-width: 1.0; stroke-dasharray: 7.0,7.0;"/><polygon fill="#A80036" points="299,373.85,303,364.85,299,368.85,295,364.85,299,373.85" style="stroke: #A80036; stroke-width: 1.0;"/><path d="M389.75,314.14 C389.75,358.88 389.75,396 389.75,396 C389.75,396 405.18,396 405.18,396 " fill="none" style="stroke: #A80036; stroke-width: 1.0; stroke-dasharray: 7.0,7.0;"/><polygon fill="#A80036" points="410.18,396,401.18,392,405.18,396,401.18,400,410.18,396" style="stroke: #A80036; stroke-width: 1.0;"/></g></svg>