<?xml version="1.0" encoding="UTF-8" standalone="no"?><svg xmlns="http://www.w3.org/2000/svg" xmlns:xlink="http://www.w3.org/1999/xlink" contentScriptType="application/ecmascript" contentStyleType="text/css" height="298px" preserveAspectRatio="none" style="width:229px;height:298px;" version="1.1" viewBox="0 0 229 298" width="229px" zoomAndPan="magnify"><defs><filter height="300%" id="fklu8f1" width="300%" x="-1" y="-1"><feGaussianBlur result="blurOut" stdDeviation="2.0"/><feColorMatrix in="blurOut" result="blurOut2" type="matrix" values="0 0 0 0 0 0 0 0 0 0 0 0 0 0 0 0 0 0 .4 0"/><feOffset dx="4.0" dy="4.0" in="blurOut2" result="blurOut3"/><feBlend in="SourceGraphic" in2="blurOut3" mode="normal"/></filter></defs><g><!--cluster it.matlice.ingsw.view.menu--><a target="_parent" xlink:actuate="onRequest" xlink:href="../../../../../it/matlice/ingsw/view/menu/package-summary.html" xlink:show="new" xlink:title="it.matlice.ingsw.view.menu" xlink:type="simple"><polygon fill="#FFFFE0" filter="url(#fklu8f1)" points="22,24,212,24,219,46.7999,222,46.7999,222,291,22,291,22,24" style="stroke: #000000; stroke-width: 2.0;"/><line style="stroke: #000000; stroke-width: 2.0;" x1="22" x2="219" y1="46.7999" y2="46.7999"/><text fill="#000000" font-family="sans-serif" font-size="14" font-weight="bold" lengthAdjust="spacingAndGlyphs" textLength="184" x="26" y="39.0059">it.matlice.ingsw.view.menu</text></a><!--class it.matlice.ingsw.view.menu.MenuEntry--><a target="_parent" xlink:actuate="onRequest" xlink:href="../../../../../it/matlice/ingsw/view/menu/MenuEntry.html" xlink:show="new" xlink:title="it.matlice.ingsw.view.menu.MenuEntry" xlink:type="simple"><rect fill="#FEFECE" filter="url(#fklu8f1)" height="32" style="stroke: #A80036; stroke-width: 1.5;" width="106" x="41" y="151"/><ellipse cx="56" cy="167" fill="#ADD1B2" rx="11" ry="11" style="stroke: #A80036; stroke-width: 1.0;"/><path d="M51,168.1563 C51,170.6563 53.1406,172.4688 56.0625,172.4688 C57.2969,172.4688 58.4688,172.1719 59.2188,171.6563 C59.8281,171.2344 60.1563,170.8125 60.1563,170.4063 C60.1563,169.9375 59.7344,169.5313 59.2344,169.5313 C59,169.5313 58.7813,169.6094 58.5781,169.8125 C58.1406,170.25 58.1406,170.25 57.9688,170.3438 C57.5156,170.5781 56.875,170.7188 56.1094,170.7188 C54.1094,170.7188 52.8281,169.7031 52.8281,168.125 L52.8281,167.0781 C52.8281,165.375 54.0469,164.1719 55.75,164.1719 C56.3281,164.1719 56.9063,164.3125 57.375,164.5625 C57.8438,164.8281 58.0156,165.0156 58.0781,165.375 C58.2031,166.0469 58.4531,166.2969 58.9844,166.2969 C59.2656,166.2969 59.5469,166.1563 59.7344,165.9375 C59.8594,165.7656 59.9063,165.5938 59.9063,165.1563 L59.9063,163.7969 C59.9063,163.375 59.8906,163.2344 59.7656,163.0625 C59.5938,162.8125 59.3125,162.6563 58.9844,162.6563 C58.6719,162.6563 58.4688,162.7656 58.25,163.0313 C57.0781,162.5313 56.6406,162.4219 55.6875,162.4219 C53.0156,162.4219 51,164.4375 51,167.0625 L51,168.1563 Z "/><text fill="#000000" font-family="sans-serif" font-size="14" font-weight="bold" lengthAdjust="spacingAndGlyphs" textLength="74" x="70" y="171.606">MenuEntry</text></a><!--class it.matlice.ingsw.view.menu.MenuAction--><a target="_parent" xlink:actuate="onRequest" xlink:href="../../../../../it/matlice/ingsw/view/menu/MenuAction.html" xlink:show="new" xlink:title="it.matlice.ingsw.view.menu.MenuAction" xlink:type="simple"><rect fill="#FEFECE" filter="url(#fklu8f1)" height="32" style="stroke: #A80036; stroke-width: 1.5;" width="115" x="41.5" y="243"/><ellipse cx="56.5" cy="259" fill="#B4A7E5" rx="11" ry="11" style="stroke: #A80036; stroke-width: 1.0;"/><path d="M57.5156,256.1563 L59.1719,256.1563 C59.5625,256.1563 59.7656,256.125 59.9219,256.0469 C60.1875,255.875 60.3594,255.5781 60.3594,255.2813 C60.3594,255 60.2188,254.75 59.9844,254.5781 C59.7969,254.4531 59.6406,254.4063 59.1719,254.4063 L54.0313,254.4063 C53.5938,254.4063 53.4531,254.4219 53.2813,254.5313 C53.0156,254.7031 52.8438,254.9844 52.8438,255.2813 C52.8438,255.5625 52.9844,255.8438 53.2188,256 C53.4063,256.125 53.5938,256.1563 54.0313,256.1563 L55.6875,256.1563 L55.6875,262.25 L54.0313,262.25 C53.5938,262.25 53.4531,262.2656 53.2813,262.375 C53.0156,262.5313 52.8438,262.8281 52.8438,263.1094 C52.8438,263.7188 53.25,264 54.0313,264 L59.1719,264 C59.9531,264 60.3594,263.7188 60.3594,263.1094 C60.3594,262.8438 60.2188,262.5938 59.9844,262.4219 C59.7969,262.2813 59.625,262.25 59.1719,262.25 L57.5156,262.25 L57.5156,256.1563 Z "/><text fill="#000000" font-family="sans-serif" font-size="14" font-style="italic" font-weight="bold" lengthAdjust="spacingAndGlyphs" textLength="83" x="70.5" y="264.95">MenuAction</text></a><!--class it.matlice.ingsw.view.menu.Menu--><a target="_parent" xlink:actuate="onRequest" xlink:href="../../../../../it/matlice/ingsw/view/menu/Menu.html" xlink:show="new" xlink:title="it.matlice.ingsw.view.menu.Menu" xlink:type="simple"><rect fill="#FEFECE" filter="url(#fklu8f1)" height="32" style="stroke: #A80036; stroke-width: 1.5;" width="70" x="59" y="59"/><ellipse cx="74" cy="75" fill="#ADD1B2" rx="11" ry="11" style="stroke: #A80036; stroke-width: 1.0;"/><path d="M69,76.1563 C69,78.6563 71.1406,80.4688 74.0625,80.4688 C75.2969,80.4688 76.4688,80.1719 77.2188,79.6563 C77.8281,79.2344 78.1563,78.8125 78.1563,78.4063 C78.1563,77.9375 77.7344,77.5313 77.2344,77.5313 C77,77.5313 76.7813,77.6094 76.5781,77.8125 C76.1406,78.25 76.1406,78.25 75.9688,78.3438 C75.5156,78.5781 74.875,78.7188 74.1094,78.7188 C72.1094,78.7188 70.8281,77.7031 70.8281,76.125 L70.8281,75.0781 C70.8281,73.375 72.0469,72.1719 73.75,72.1719 C74.3281,72.1719 74.9063,72.3125 75.375,72.5625 C75.8438,72.8281 76.0156,73.0156 76.0781,73.375 C76.2031,74.0469 76.4531,74.2969 76.9844,74.2969 C77.2656,74.2969 77.5469,74.1563 77.7344,73.9375 C77.8594,73.7656 77.9063,73.5938 77.9063,73.1563 L77.9063,71.7969 C77.9063,71.375 77.8906,71.2344 77.7656,71.0625 C77.5938,70.8125 77.3125,70.6563 76.9844,70.6563 C76.6719,70.6563 76.4688,70.7656 76.25,71.0313 C75.0781,70.5313 74.6406,70.4219 73.6875,70.4219 C71.0156,70.4219 69,72.4375 69,75.0625 L69,76.1563 Z "/><text fill="#000000" font-family="sans-serif" font-size="14" font-weight="bold" lengthAdjust="spacingAndGlyphs" textLength="38" x="88" y="79.606">Menu</text></a><path d="M67.88,183.03 C67.88,183.03 67.88,237.85 67.88,237.85 " fill="none" style="stroke: #A80036; stroke-width: 1.0;"/><polygon fill="#A80036" points="67.88,242.85,71.88,233.85,67.88,237.85,63.88,233.85,67.88,242.85" style="stroke: #A80036; stroke-width: 1.0;"/><text fill="#000000" font-family="sans-serif" font-size="13" lengthAdjust="spacingAndGlyphs" textLength="35" x="15.5591" y="231.6086">action</text><path d="M94.25,242.97 C94.25,242.97 94.25,188.15 94.25,188.15 " fill="none" style="stroke: #A80036; stroke-width: 1.0; stroke-dasharray: 7.0,7.0;"/><polygon fill="#A80036" points="94.25,183.15,90.25,192.15,94.25,188.15,98.25,192.15,94.25,183.15" style="stroke: #A80036; stroke-width: 1.0;"/><path d="M138,150.91 C138,137.65 138,121 138,121 C138,121 150.17,121 150.17,121 C150.17,121 150.17,213 150.17,213 C150.17,213 120.62,213 120.62,213 C120.62,213 120.62,188.09 120.62,188.09 " fill="none" style="stroke: #A80036; stroke-width: 1.0; stroke-dasharray: 7.0,7.0;"/><polygon fill="#A80036" points="120.62,183.09,116.62,192.09,120.62,188.09,124.62,192.09,120.62,183.09" style="stroke: #A80036; stroke-width: 1.0;"/><path d="M82.33,91.03 C82.33,91.03 82.33,145.85 82.33,145.85 " fill="none" style="stroke: #A80036; stroke-width: 1.0; stroke-dasharray: 7.0,7.0;"/><polygon fill="#A80036" points="82.33,150.85,86.33,141.85,82.33,145.85,78.33,141.85,82.33,150.85" style="stroke: #A80036; stroke-width: 1.0;"/><path d="M105.67,91.03 C105.67,91.03 105.67,145.85 105.67,145.85 " fill="none" style="stroke: #A80036; stroke-width: 1.0;"/><polygon fill="#A80036" points="105.67,150.85,109.67,141.85,105.67,145.85,101.67,141.85,105.67,150.85" style="stroke: #A80036; stroke-width: 1.0;"/><text fill="#000000" font-family="sans-serif" font-size="13" lengthAdjust="spacingAndGlyphs" textLength="57" x="42.6743" y="139.6086">last_entry</text><path d="M129.2,75 C141.98,75 153.33,75 153.33,75 C153.33,75 153.33,237.99 153.33,237.99 " fill="none" style="stroke: #A80036; stroke-width: 1.0; stroke-dasharray: 7.0,7.0;"/><polygon fill="#A80036" points="153.33,242.99,157.33,233.99,153.33,237.99,149.33,233.99,153.33,242.99" style="stroke: #A80036; stroke-width: 1.0;"/></g></svg>