<?xml version="1.0" encoding="UTF-8" standalone="no"?><svg xmlns="http://www.w3.org/2000/svg" xmlns:xlink="http://www.w3.org/1999/xlink" contentScriptType="application/ecmascript" contentStyleType="text/css" height="98px" preserveAspectRatio="none" style="width:148px;height:98px;" version="1.1" viewBox="0 0 148 98" width="148px" zoomAndPan="magnify"><defs><filter height="300%" id="f6feicl" width="300%" x="-1" y="-1"><feGaussianBlur result="blurOut" stdDeviation="2.0"/><feColorMatrix in="blurOut" result="blurOut2" type="matrix" values="0 0 0 0 0 0 0 0 0 0 0 0 0 0 0 0 0 0 .4 0"/><feOffset dx="4.0" dy="4.0" in="blurOut2" result="blurOut3"/><feBlend in="SourceGraphic" in2="blurOut3" mode="normal"/></filter></defs><g><!--class it.matlice.ingsw.EntryPoint--><a target="_parent" xlink:actuate="onRequest" xlink:href="../../../it/matlice/ingsw/EntryPoint.html" xlink:show="new" xlink:title="it.matlice.ingsw.EntryPoint" xlink:type="simple"><rect fill="#FEFECE" filter="url(#f6feicl)" height="81.1997" style="stroke: #A80036; stroke-width: 1.5;" width="133" x="6" y="8"/><ellipse cx="34.05" cy="27.4" fill="#ADD1B2" rx="11" ry="11" style="stroke: #A80036; stroke-width: 1.0;"/><path d="M29.05,28.5562 C29.05,31.0562 31.1906,32.8687 34.1125,32.8687 C35.3469,32.8687 36.5188,32.5718 37.2688,32.0562 C37.8781,31.6343 38.2063,31.2125 38.2063,30.8062 C38.2063,30.3375 37.7844,29.9312 37.2844,29.9312 C37.05,29.9312 36.8313,30.0093 36.6281,30.2125 C36.1906,30.65 36.1906,30.65 36.0188,30.7437 C35.5656,30.9781 34.925,31.1187 34.1594,31.1187 C32.1594,31.1187 30.8781,30.1031 30.8781,28.525 L30.8781,27.4781 C30.8781,25.775 32.0969,24.5718 33.8,24.5718 C34.3781,24.5718 34.9563,24.7125 35.425,24.9625 C35.8938,25.2281 36.0656,25.4156 36.1281,25.775 C36.2531,26.4468 36.5031,26.6968 37.0344,26.6968 C37.3156,26.6968 37.5969,26.5562 37.7844,26.3375 C37.9094,26.1656 37.9563,25.9937 37.9563,25.5562 L37.9563,24.1968 C37.9563,23.775 37.9406,23.6343 37.8156,23.4625 C37.6438,23.2125 37.3625,23.0562 37.0344,23.0562 C36.7219,23.0562 36.5188,23.1656 36.3,23.4312 C35.1281,22.9312 34.6906,22.8218 33.7375,22.8218 C31.0656,22.8218 29.05,24.8375 29.05,27.4625 L29.05,28.5562 Z "/><text fill="#000000" font-family="sans-serif" font-size="14" font-weight="bold" lengthAdjust="spacingAndGlyphs" textLength="72" x="50.95" y="26.0059">EntryPoint</text><text fill="#000000" font-family="sans-serif" font-size="10" lengthAdjust="spacingAndGlyphs" textLength="69" x="52.45" y="39.0899">it.matlice.ingsw</text><line style="stroke: #A80036; stroke-width: 1.5;" x1="7" x2="138" y1="46.7999" y2="46.7999"/><line style="stroke: #A80036; stroke-width: 1.5;" x1="7" x2="138" y1="54.7999" y2="54.7999"/><ellipse cx="17" cy="66.8999" fill="#84BE84" rx="3" ry="3" style="stroke: #038048; stroke-width: 1.0;"/><text fill="#000000" font-family="sans-serif" font-size="11" lengthAdjust="spacingAndGlyphs" textLength="58" x="26" y="69.0188">EntryPoint()</text><ellipse cx="17" cy="80.0998" fill="#84BE84" rx="3" ry="3" style="stroke: #038048; stroke-width: 1.0;"/><text fill="#000000" font-family="sans-serif" font-size="11" lengthAdjust="spacingAndGlyphs" text-decoration="underline" textLength="107" x="26" y="82.2187">void main(String args)</text><line style="stroke: #000000; stroke-width: 1.0;" x1="26" x2="133" y1="84.2187" y2="84.2187"/></a></g></svg>