<?xml version="1.0" encoding="UTF-8" standalone="no"?><svg xmlns="http://www.w3.org/2000/svg" xmlns:xlink="http://www.w3.org/1999/xlink" contentScriptType="application/ecmascript" contentStyleType="text/css" height="405px" preserveAspectRatio="none" style="width:916px;height:405px;" version="1.1" viewBox="0 0 916 405" width="916px" zoomAndPan="magnify"><defs><filter height="300%" id="fj83yg7" width="300%" x="-1" y="-1"><feGaussianBlur result="blurOut" stdDeviation="2.0"/><feColorMatrix in="blurOut" result="blurOut2" type="matrix" values="0 0 0 0 0 0 0 0 0 0 0 0 0 0 0 0 0 0 .4 0"/><feOffset dx="4.0" dy="4.0" in="blurOut2" result="blurOut3"/><feBlend in="SourceGraphic" in2="blurOut3" mode="normal"/></filter></defs><g><!--cluster it.matlice.ingsw--><a target="_parent" xlink:actuate="onRequest" xlink:href="../../../it/matlice/ingsw/package-summary.html" xlink:show="new" xlink:title="it.matlice.ingsw" xlink:type="simple"><polygon fill="#FFFFE0" filter="url(#fj83yg7)" points="591,24,704,24,711,46.7999,727,46.7999,727,107,591,107,591,24" style="stroke: #000000; stroke-width: 2.0;"/><line style="stroke: #000000; stroke-width: 2.0;" x1="591" x2="711" y1="46.7999" y2="46.7999"/><text fill="#000000" font-family="sans-serif" font-size="14" font-weight="bold" lengthAdjust="spacingAndGlyphs" textLength="107" x="595" y="39.0059">it.matlice.ingsw</text></a><!--cluster it.matlice.ingsw.controller--><a target="_parent" xlink:actuate="onRequest" xlink:href="../../../it/matlice/ingsw/controller/package-summary.html" xlink:show="new" xlink:title="it.matlice.ingsw.controller" xlink:type="simple"><polygon fill="#FFFFFF" filter="url(#fj83yg7)" points="22,24,205,24,212,46.7999,313,46.7999,313,199,22,199,22,24" style="stroke: #000000; stroke-width: 2.0;"/><line style="stroke: #000000; stroke-width: 2.0;" x1="22" x2="212" y1="46.7999" y2="46.7999"/><text fill="#000000" font-family="sans-serif" font-size="14" font-weight="bold" lengthAdjust="spacingAndGlyphs" textLength="177" x="26" y="39.0059">it.matlice.ingsw.controller</text></a><!--cluster it.matlice.ingsw.model--><a target="_parent" xlink:actuate="onRequest" xlink:href="../../../it/matlice/ingsw/model/package-summary.html" xlink:show="new" xlink:title="it.matlice.ingsw.model" xlink:type="simple"><polygon fill="#FFFFFF" filter="url(#fj83yg7)" points="337,24,496,24,503,46.7999,567,46.7999,567,199,337,199,337,24" style="stroke: #000000; stroke-width: 2.0;"/><line style="stroke: #000000; stroke-width: 2.0;" x1="337" x2="503" y1="46.7999" y2="46.7999"/><text fill="#000000" font-family="sans-serif" font-size="14" font-weight="bold" lengthAdjust="spacingAndGlyphs" textLength="153" x="341" y="39.0059">it.matlice.ingsw.model</text></a><!--cluster it.matlice.ingsw.tree--><a target="_parent" xlink:actuate="onRequest" xlink:href="../../../it/matlice/ingsw/tree/package-summary.html" xlink:show="new" xlink:title="it.matlice.ingsw.tree" xlink:type="simple"><polygon fill="#FFFFFF" filter="url(#fj83yg7)" points="31,223,174,223,181,245.7999,303,245.7999,303,398,31,398,31,223" style="stroke: #000000; stroke-width: 2.0;"/><line style="stroke: #000000; stroke-width: 2.0;" x1="31" x2="181" y1="245.7999" y2="245.7999"/><text fill="#000000" font-family="sans-serif" font-size="14" font-weight="bold" lengthAdjust="spacingAndGlyphs" textLength="137" x="35" y="238.0059">it.matlice.ingsw.tree</text></a><!--cluster it.matlice.ingsw.view--><a target="_parent" xlink:actuate="onRequest" xlink:href="../../../it/matlice/ingsw/view/package-summary.html" xlink:show="new" xlink:title="it.matlice.ingsw.view" xlink:type="simple"><polygon fill="#FFFFFF" filter="url(#fj83yg7)" points="751,24,899,24,906,46.7999,909,46.7999,909,107,751,107,751,24" style="stroke: #000000; stroke-width: 2.0;"/><line style="stroke: #000000; stroke-width: 2.0;" x1="751" x2="906" y1="46.7999" y2="46.7999"/><text fill="#000000" font-family="sans-serif" font-size="14" font-weight="bold" lengthAdjust="spacingAndGlyphs" textLength="142" x="755" y="39.0059">it.matlice.ingsw.view</text></a><!--cluster it.matlice.ingsw.xml--><a target="_parent" xlink:actuate="onRequest" xlink:href="../../../it/matlice/ingsw/xml/package-summary.html" xlink:show="new" xlink:title="it.matlice.ingsw.xml" xlink:type="simple"><polygon fill="#FFFFFF" filter="url(#fj83yg7)" points="327,223,468,223,475,245.7999,823,245.7999,823,398,327,398,327,223" style="stroke: #000000; stroke-width: 2.0;"/><line style="stroke: #000000; stroke-width: 2.0;" x1="327" x2="475" y1="245.7999" y2="245.7999"/><text fill="#000000" font-family="sans-serif" font-size="14" font-weight="bold" lengthAdjust="spacingAndGlyphs" textLength="135" x="331" y="238.0059">it.matlice.ingsw.xml</text></a><!--class it.matlice.ingsw.EntryPoint--><a target="_parent" xlink:actuate="onRequest" xlink:href="../../../it/matlice/ingsw/EntryPoint.html" xlink:show="new" xlink:title="it.matlice.ingsw.EntryPoint" xlink:type="simple"><rect fill="#FEFECE" filter="url(#fj83yg7)" height="32" style="stroke: #A80036; stroke-width: 1.5;" width="104" x="607" y="59"/><ellipse cx="622" cy="75" fill="#ADD1B2" rx="11" ry="11" style="stroke: #A80036; stroke-width: 1.0;"/><path d="M617,76.1563 C617,78.6563 619.1406,80.4688 622.0625,80.4688 C623.2969,80.4688 624.4688,80.1719 625.2188,79.6563 C625.8281,79.2344 626.1563,78.8125 626.1563,78.4063 C626.1563,77.9375 625.7344,77.5313 625.2344,77.5313 C625,77.5313 624.7813,77.6094 624.5781,77.8125 C624.1406,78.25 624.1406,78.25 623.9688,78.3438 C623.5156,78.5781 622.875,78.7188 622.1094,78.7188 C620.1094,78.7188 618.8281,77.7031 618.8281,76.125 L618.8281,75.0781 C618.8281,73.375 620.0469,72.1719 621.75,72.1719 C622.3281,72.1719 622.9063,72.3125 623.375,72.5625 C623.8438,72.8281 624.0156,73.0156 624.0781,73.375 C624.2031,74.0469 624.4531,74.2969 624.9844,74.2969 C625.2656,74.2969 625.5469,74.1563 625.7344,73.9375 C625.8594,73.7656 625.9063,73.5938 625.9063,73.1563 L625.9063,71.7969 C625.9063,71.375 625.8906,71.2344 625.7656,71.0625 C625.5938,70.8125 625.3125,70.6563 624.9844,70.6563 C624.6719,70.6563 624.4688,70.7656 624.25,71.0313 C623.0781,70.5313 622.6406,70.4219 621.6875,70.4219 C619.0156,70.4219 617,72.4375 617,75.0625 L617,76.1563 Z "/><text fill="#000000" font-family="sans-serif" font-size="14" font-weight="bold" lengthAdjust="spacingAndGlyphs" textLength="72" x="636" y="79.606">EntryPoint</text></a><!--class it.matlice.ingsw.controller.Controller--><a target="_parent" xlink:actuate="onRequest" xlink:href="../../../it/matlice/ingsw/controller/Controller.html" xlink:show="new" xlink:title="it.matlice.ingsw.controller.Controller" xlink:type="simple"><rect fill="#FEFECE" filter="url(#fj83yg7)" height="32" style="stroke: #A80036; stroke-width: 1.5;" width="100" x="38" y="59"/><ellipse cx="53" cy="75" fill="#ADD1B2" rx="11" ry="11" style="stroke: #A80036; stroke-width: 1.0;"/><path d="M48,76.1563 C48,78.6563 50.1406,80.4688 53.0625,80.4688 C54.2969,80.4688 55.4688,80.1719 56.2188,79.6563 C56.8281,79.2344 57.1563,78.8125 57.1563,78.4063 C57.1563,77.9375 56.7344,77.5313 56.2344,77.5313 C56,77.5313 55.7813,77.6094 55.5781,77.8125 C55.1406,78.25 55.1406,78.25 54.9688,78.3438 C54.5156,78.5781 53.875,78.7188 53.1094,78.7188 C51.1094,78.7188 49.8281,77.7031 49.8281,76.125 L49.8281,75.0781 C49.8281,73.375 51.0469,72.1719 52.75,72.1719 C53.3281,72.1719 53.9063,72.3125 54.375,72.5625 C54.8438,72.8281 55.0156,73.0156 55.0781,73.375 C55.2031,74.0469 55.4531,74.2969 55.9844,74.2969 C56.2656,74.2969 56.5469,74.1563 56.7344,73.9375 C56.8594,73.7656 56.9063,73.5938 56.9063,73.1563 L56.9063,71.7969 C56.9063,71.375 56.8906,71.2344 56.7656,71.0625 C56.5938,70.8125 56.3125,70.6563 55.9844,70.6563 C55.6719,70.6563 55.4688,70.7656 55.25,71.0313 C54.0781,70.5313 53.6406,70.4219 52.6875,70.4219 C50.0156,70.4219 48,72.4375 48,75.0625 L48,76.1563 Z "/><text fill="#000000" font-family="sans-serif" font-size="14" font-weight="bold" lengthAdjust="spacingAndGlyphs" textLength="68" x="67" y="79.606">Controller</text></a><!--class it.matlice.ingsw.controller.ReturnAction--><a target="_parent" xlink:actuate="onRequest" xlink:href="../../../it/matlice/ingsw/controller/ReturnAction.html" xlink:show="new" xlink:title="it.matlice.ingsw.controller.ReturnAction" xlink:type="simple"><rect fill="#FEFECE" filter="url(#fj83yg7)" height="32" style="stroke: #A80036; stroke-width: 1.5;" width="123" x="173.5" y="59"/><ellipse cx="188.5" cy="75" fill="#B4A7E5" rx="11" ry="11" style="stroke: #A80036; stroke-width: 1.0;"/><path d="M189.5156,72.1563 L191.1719,72.1563 C191.5625,72.1563 191.7656,72.125 191.9219,72.0469 C192.1875,71.875 192.3594,71.5781 192.3594,71.2813 C192.3594,71 192.2188,70.75 191.9844,70.5781 C191.7969,70.4531 191.6406,70.4063 191.1719,70.4063 L186.0313,70.4063 C185.5938,70.4063 185.4531,70.4219 185.2813,70.5313 C185.0156,70.7031 184.8438,70.9844 184.8438,71.2813 C184.8438,71.5625 184.9844,71.8438 185.2188,72 C185.4063,72.125 185.5938,72.1563 186.0313,72.1563 L187.6875,72.1563 L187.6875,78.25 L186.0313,78.25 C185.5938,78.25 185.4531,78.2656 185.2813,78.375 C185.0156,78.5313 184.8438,78.8281 184.8438,79.1094 C184.8438,79.7188 185.25,80 186.0313,80 L191.1719,80 C191.9531,80 192.3594,79.7188 192.3594,79.1094 C192.3594,78.8438 192.2188,78.5938 191.9844,78.4219 C191.7969,78.2813 191.625,78.25 191.1719,78.25 L189.5156,78.25 L189.5156,72.1563 Z "/><text fill="#000000" font-family="sans-serif" font-size="14" font-style="italic" font-weight="bold" lengthAdjust="spacingAndGlyphs" textLength="91" x="202.5" y="80.95">ReturnAction</text></a><!--class it.matlice.ingsw.controller.MenuAction--><a target="_parent" xlink:actuate="onRequest" xlink:href="../../../it/matlice/ingsw/controller/MenuAction.html" xlink:show="new" xlink:title="it.matlice.ingsw.controller.MenuAction" xlink:type="simple"><rect fill="#FEFECE" filter="url(#fj83yg7)" height="32" style="stroke: #A80036; stroke-width: 1.5;" width="115" x="38.5" y="151"/><ellipse cx="53.5" cy="167" fill="#ADD1B2" rx="11" ry="11" style="stroke: #A80036; stroke-width: 1.0;"/><path d="M48.5,168.1563 C48.5,170.6563 50.6406,172.4688 53.5625,172.4688 C54.7969,172.4688 55.9688,172.1719 56.7188,171.6563 C57.3281,171.2344 57.6563,170.8125 57.6563,170.4063 C57.6563,169.9375 57.2344,169.5313 56.7344,169.5313 C56.5,169.5313 56.2813,169.6094 56.0781,169.8125 C55.6406,170.25 55.6406,170.25 55.4688,170.3438 C55.0156,170.5781 54.375,170.7188 53.6094,170.7188 C51.6094,170.7188 50.3281,169.7031 50.3281,168.125 L50.3281,167.0781 C50.3281,165.375 51.5469,164.1719 53.25,164.1719 C53.8281,164.1719 54.4063,164.3125 54.875,164.5625 C55.3438,164.8281 55.5156,165.0156 55.5781,165.375 C55.7031,166.0469 55.9531,166.2969 56.4844,166.2969 C56.7656,166.2969 57.0469,166.1563 57.2344,165.9375 C57.3594,165.7656 57.4063,165.5938 57.4063,165.1563 L57.4063,163.7969 C57.4063,163.375 57.3906,163.2344 57.2656,163.0625 C57.0938,162.8125 56.8125,162.6563 56.4844,162.6563 C56.1719,162.6563 55.9688,162.7656 55.75,163.0313 C54.5781,162.5313 54.1406,162.4219 53.1875,162.4219 C50.5156,162.4219 48.5,164.4375 48.5,167.0625 L48.5,168.1563 Z "/><text fill="#000000" font-family="sans-serif" font-size="14" font-weight="bold" lengthAdjust="spacingAndGlyphs" textLength="83" x="67.5" y="171.606">MenuAction</text></a><!--class it.matlice.ingsw.model.Settings--><a target="_parent" xlink:actuate="onRequest" xlink:href="../../../it/matlice/ingsw/model/Settings.html" xlink:show="new" xlink:title="it.matlice.ingsw.model.Settings" xlink:type="simple"><rect fill="#FEFECE" filter="url(#fj83yg7)" height="32" style="stroke: #A80036; stroke-width: 1.5;" width="89" x="352.5" y="59"/><ellipse cx="367.5" cy="75" fill="#ADD1B2" rx="11" ry="11" style="stroke: #A80036; stroke-width: 1.0;"/><path d="M362.5,76.1563 C362.5,78.6563 364.6406,80.4688 367.5625,80.4688 C368.7969,80.4688 369.9688,80.1719 370.7188,79.6563 C371.3281,79.2344 371.6563,78.8125 371.6563,78.4063 C371.6563,77.9375 371.2344,77.5313 370.7344,77.5313 C370.5,77.5313 370.2813,77.6094 370.0781,77.8125 C369.6406,78.25 369.6406,78.25 369.4688,78.3438 C369.0156,78.5781 368.375,78.7188 367.6094,78.7188 C365.6094,78.7188 364.3281,77.7031 364.3281,76.125 L364.3281,75.0781 C364.3281,73.375 365.5469,72.1719 367.25,72.1719 C367.8281,72.1719 368.4063,72.3125 368.875,72.5625 C369.3438,72.8281 369.5156,73.0156 369.5781,73.375 C369.7031,74.0469 369.9531,74.2969 370.4844,74.2969 C370.7656,74.2969 371.0469,74.1563 371.2344,73.9375 C371.3594,73.7656 371.4063,73.5938 371.4063,73.1563 L371.4063,71.7969 C371.4063,71.375 371.3906,71.2344 371.2656,71.0625 C371.0938,70.8125 370.8125,70.6563 370.4844,70.6563 C370.1719,70.6563 369.9688,70.7656 369.75,71.0313 C368.5781,70.5313 368.1406,70.4219 367.1875,70.4219 C364.5156,70.4219 362.5,72.4375 362.5,75.0625 L362.5,76.1563 Z "/><text fill="#000000" font-family="sans-serif" font-size="14" font-weight="bold" lengthAdjust="spacingAndGlyphs" textLength="57" x="381.5" y="79.606">Settings</text></a><!--class it.matlice.ingsw.model.Model--><a target="_parent" xlink:actuate="onRequest" xlink:href="../../../it/matlice/ingsw/model/Model.html" xlink:show="new" xlink:title="it.matlice.ingsw.model.Model" xlink:type="simple"><rect fill="#FEFECE" filter="url(#fj83yg7)" height="32" style="stroke: #A80036; stroke-width: 1.5;" width="74" x="477" y="59"/><ellipse cx="492" cy="75" fill="#ADD1B2" rx="11" ry="11" style="stroke: #A80036; stroke-width: 1.0;"/><path d="M487,76.1563 C487,78.6563 489.1406,80.4688 492.0625,80.4688 C493.2969,80.4688 494.4688,80.1719 495.2188,79.6563 C495.8281,79.2344 496.1563,78.8125 496.1563,78.4063 C496.1563,77.9375 495.7344,77.5313 495.2344,77.5313 C495,77.5313 494.7813,77.6094 494.5781,77.8125 C494.1406,78.25 494.1406,78.25 493.9688,78.3438 C493.5156,78.5781 492.875,78.7188 492.1094,78.7188 C490.1094,78.7188 488.8281,77.7031 488.8281,76.125 L488.8281,75.0781 C488.8281,73.375 490.0469,72.1719 491.75,72.1719 C492.3281,72.1719 492.9063,72.3125 493.375,72.5625 C493.8438,72.8281 494.0156,73.0156 494.0781,73.375 C494.2031,74.0469 494.4531,74.2969 494.9844,74.2969 C495.2656,74.2969 495.5469,74.1563 495.7344,73.9375 C495.8594,73.7656 495.9063,73.5938 495.9063,73.1563 L495.9063,71.7969 C495.9063,71.375 495.8906,71.2344 495.7656,71.0625 C495.5938,70.8125 495.3125,70.6563 494.9844,70.6563 C494.6719,70.6563 494.4688,70.7656 494.25,71.0313 C493.0781,70.5313 492.6406,70.4219 491.6875,70.4219 C489.0156,70.4219 487,72.4375 487,75.0625 L487,76.1563 Z "/><text fill="#000000" font-family="sans-serif" font-size="14" font-weight="bold" lengthAdjust="spacingAndGlyphs" textLength="42" x="506" y="79.606">Model</text></a><!--class it.matlice.ingsw.model.Authentication--><a target="_parent" xlink:actuate="onRequest" xlink:href="../../../it/matlice/ingsw/model/Authentication.html" xlink:show="new" xlink:title="it.matlice.ingsw.model.Authentication" xlink:type="simple"><rect fill="#FEFECE" filter="url(#fj83yg7)" height="32" style="stroke: #A80036; stroke-width: 1.5;" width="134" x="353" y="151"/><ellipse cx="368" cy="167" fill="#B4A7E5" rx="11" ry="11" style="stroke: #A80036; stroke-width: 1.0;"/><path d="M369.0156,164.1563 L370.6719,164.1563 C371.0625,164.1563 371.2656,164.125 371.4219,164.0469 C371.6875,163.875 371.8594,163.5781 371.8594,163.2813 C371.8594,163 371.7188,162.75 371.4844,162.5781 C371.2969,162.4531 371.1406,162.4063 370.6719,162.4063 L365.5313,162.4063 C365.0938,162.4063 364.9531,162.4219 364.7813,162.5313 C364.5156,162.7031 364.3438,162.9844 364.3438,163.2813 C364.3438,163.5625 364.4844,163.8438 364.7188,164 C364.9063,164.125 365.0938,164.1563 365.5313,164.1563 L367.1875,164.1563 L367.1875,170.25 L365.5313,170.25 C365.0938,170.25 364.9531,170.2656 364.7813,170.375 C364.5156,170.5313 364.3438,170.8281 364.3438,171.1094 C364.3438,171.7188 364.75,172 365.5313,172 L370.6719,172 C371.4531,172 371.8594,171.7188 371.8594,171.1094 C371.8594,170.8438 371.7188,170.5938 371.4844,170.4219 C371.2969,170.2813 371.125,170.25 370.6719,170.25 L369.0156,170.25 L369.0156,164.1563 Z "/><text fill="#000000" font-family="sans-serif" font-size="14" font-style="italic" font-weight="bold" lengthAdjust="spacingAndGlyphs" textLength="102" x="382" y="172.95">Authentication</text></a><!--class it.matlice.ingsw.tree.TreeNode--><a target="_parent" xlink:actuate="onRequest" xlink:href="../../../it/matlice/ingsw/tree/TreeNode.html" xlink:show="new" xlink:title="it.matlice.ingsw.tree.TreeNode" xlink:type="simple"><rect fill="#FEFECE" filter="url(#fj83yg7)" height="32" style="stroke: #A80036; stroke-width: 1.5;" width="98" x="47" y="258"/><ellipse cx="62" cy="274" fill="#ADD1B2" rx="11" ry="11" style="stroke: #A80036; stroke-width: 1.0;"/><path d="M57,275.1563 C57,277.6563 59.1406,279.4688 62.0625,279.4688 C63.2969,279.4688 64.4688,279.1719 65.2188,278.6563 C65.8281,278.2344 66.1563,277.8125 66.1563,277.4063 C66.1563,276.9375 65.7344,276.5313 65.2344,276.5313 C65,276.5313 64.7813,276.6094 64.5781,276.8125 C64.1406,277.25 64.1406,277.25 63.9688,277.3438 C63.5156,277.5781 62.875,277.7188 62.1094,277.7188 C60.1094,277.7188 58.8281,276.7031 58.8281,275.125 L58.8281,274.0781 C58.8281,272.375 60.0469,271.1719 61.75,271.1719 C62.3281,271.1719 62.9063,271.3125 63.375,271.5625 C63.8438,271.8281 64.0156,272.0156 64.0781,272.375 C64.2031,273.0469 64.4531,273.2969 64.9844,273.2969 C65.2656,273.2969 65.5469,273.1563 65.7344,272.9375 C65.8594,272.7656 65.9063,272.5938 65.9063,272.1563 L65.9063,270.7969 C65.9063,270.375 65.8906,270.2344 65.7656,270.0625 C65.5938,269.8125 65.3125,269.6563 64.9844,269.6563 C64.6719,269.6563 64.4688,269.7656 64.25,270.0313 C63.0781,269.5313 62.6406,269.4219 61.6875,269.4219 C59.0156,269.4219 57,271.4375 57,274.0625 L57,275.1563 Z "/><text fill="#000000" font-family="sans-serif" font-size="14" font-weight="bold" lengthAdjust="spacingAndGlyphs" textLength="66" x="76" y="278.606">TreeNode</text></a><!--class it.matlice.ingsw.tree.TreeAction--><a target="_parent" xlink:actuate="onRequest" xlink:href="../../../it/matlice/ingsw/tree/TreeAction.html" xlink:show="new" xlink:title="it.matlice.ingsw.tree.TreeAction" xlink:type="simple"><rect fill="#FEFECE" filter="url(#fj83yg7)" height="32" style="stroke: #A80036; stroke-width: 1.5;" width="107" x="180.5" y="258"/><ellipse cx="195.5" cy="274" fill="#B4A7E5" rx="11" ry="11" style="stroke: #A80036; stroke-width: 1.0;"/><path d="M196.5156,271.1563 L198.1719,271.1563 C198.5625,271.1563 198.7656,271.125 198.9219,271.0469 C199.1875,270.875 199.3594,270.5781 199.3594,270.2813 C199.3594,270 199.2188,269.75 198.9844,269.5781 C198.7969,269.4531 198.6406,269.4063 198.1719,269.4063 L193.0313,269.4063 C192.5938,269.4063 192.4531,269.4219 192.2813,269.5313 C192.0156,269.7031 191.8438,269.9844 191.8438,270.2813 C191.8438,270.5625 191.9844,270.8438 192.2188,271 C192.4063,271.125 192.5938,271.1563 193.0313,271.1563 L194.6875,271.1563 L194.6875,277.25 L193.0313,277.25 C192.5938,277.25 192.4531,277.2656 192.2813,277.375 C192.0156,277.5313 191.8438,277.8281 191.8438,278.1094 C191.8438,278.7188 192.25,279 193.0313,279 L198.1719,279 C198.9531,279 199.3594,278.7188 199.3594,278.1094 C199.3594,277.8438 199.2188,277.5938 198.9844,277.4219 C198.7969,277.2813 198.625,277.25 198.1719,277.25 L196.5156,277.25 L196.5156,271.1563 Z "/><text fill="#000000" font-family="sans-serif" font-size="14" font-style="italic" font-weight="bold" lengthAdjust="spacingAndGlyphs" textLength="75" x="209.5" y="279.95">TreeAction</text></a><!--class it.matlice.ingsw.tree.Node--><a target="_parent" xlink:actuate="onRequest" xlink:href="../../../it/matlice/ingsw/tree/Node.html" xlink:show="new" xlink:title="it.matlice.ingsw.tree.Node" xlink:type="simple"><rect fill="#FEFECE" filter="url(#fj83yg7)" height="32" style="stroke: #A80036; stroke-width: 1.5;" width="68" x="62" y="350"/><ellipse cx="77" cy="366" fill="#B4A7E5" rx="11" ry="11" style="stroke: #A80036; stroke-width: 1.0;"/><path d="M78.0156,363.1563 L79.6719,363.1563 C80.0625,363.1563 80.2656,363.125 80.4219,363.0469 C80.6875,362.875 80.8594,362.5781 80.8594,362.2813 C80.8594,362 80.7188,361.75 80.4844,361.5781 C80.2969,361.4531 80.1406,361.4063 79.6719,361.4063 L74.5313,361.4063 C74.0938,361.4063 73.9531,361.4219 73.7813,361.5313 C73.5156,361.7031 73.3438,361.9844 73.3438,362.2813 C73.3438,362.5625 73.4844,362.8438 73.7188,363 C73.9063,363.125 74.0938,363.1563 74.5313,363.1563 L76.1875,363.1563 L76.1875,369.25 L74.5313,369.25 C74.0938,369.25 73.9531,369.2656 73.7813,369.375 C73.5156,369.5313 73.3438,369.8281 73.3438,370.1094 C73.3438,370.7188 73.75,371 74.5313,371 L79.6719,371 C80.4531,371 80.8594,370.7188 80.8594,370.1094 C80.8594,369.8438 80.7188,369.5938 80.4844,369.4219 C80.2969,369.2813 80.125,369.25 79.6719,369.25 L78.0156,369.25 L78.0156,363.1563 Z "/><text fill="#000000" font-family="sans-serif" font-size="14" font-style="italic" font-weight="bold" lengthAdjust="spacingAndGlyphs" textLength="36" x="91" y="371.95">Node</text></a><!--class it.matlice.ingsw.tree.MapNode--><a target="_parent" xlink:actuate="onRequest" xlink:href="../../../it/matlice/ingsw/tree/MapNode.html" xlink:show="new" xlink:title="it.matlice.ingsw.tree.MapNode" xlink:type="simple"><rect fill="#FEFECE" filter="url(#fj83yg7)" height="32" style="stroke: #A80036; stroke-width: 1.5;" width="97" x="165.5" y="350"/><ellipse cx="180.5" cy="366" fill="#ADD1B2" rx="11" ry="11" style="stroke: #A80036; stroke-width: 1.0;"/><path d="M175.5,367.1563 C175.5,369.6563 177.6406,371.4688 180.5625,371.4688 C181.7969,371.4688 182.9688,371.1719 183.7188,370.6563 C184.3281,370.2344 184.6563,369.8125 184.6563,369.4063 C184.6563,368.9375 184.2344,368.5313 183.7344,368.5313 C183.5,368.5313 183.2813,368.6094 183.0781,368.8125 C182.6406,369.25 182.6406,369.25 182.4688,369.3438 C182.0156,369.5781 181.375,369.7188 180.6094,369.7188 C178.6094,369.7188 177.3281,368.7031 177.3281,367.125 L177.3281,366.0781 C177.3281,364.375 178.5469,363.1719 180.25,363.1719 C180.8281,363.1719 181.4063,363.3125 181.875,363.5625 C182.3438,363.8281 182.5156,364.0156 182.5781,364.375 C182.7031,365.0469 182.9531,365.2969 183.4844,365.2969 C183.7656,365.2969 184.0469,365.1563 184.2344,364.9375 C184.3594,364.7656 184.4063,364.5938 184.4063,364.1563 L184.4063,362.7969 C184.4063,362.375 184.3906,362.2344 184.2656,362.0625 C184.0938,361.8125 183.8125,361.6563 183.4844,361.6563 C183.1719,361.6563 182.9688,361.7656 182.75,362.0313 C181.5781,361.5313 181.1406,361.4219 180.1875,361.4219 C177.5156,361.4219 175.5,363.4375 175.5,366.0625 L175.5,367.1563 Z "/><text fill="#000000" font-family="sans-serif" font-size="14" font-weight="bold" lengthAdjust="spacingAndGlyphs" textLength="65" x="194.5" y="370.606">MapNode</text></a><!--class it.matlice.ingsw.view.View--><a target="_parent" xlink:actuate="onRequest" xlink:href="../../../it/matlice/ingsw/view/View.html" xlink:show="new" xlink:title="it.matlice.ingsw.view.View" xlink:type="simple"><rect fill="#FEFECE" filter="url(#fj83yg7)" height="32" style="stroke: #A80036; stroke-width: 1.5;" width="64" x="798" y="59"/><ellipse cx="813" cy="75" fill="#B4A7E5" rx="11" ry="11" style="stroke: #A80036; stroke-width: 1.0;"/><path d="M814.0156,72.1563 L815.6719,72.1563 C816.0625,72.1563 816.2656,72.125 816.4219,72.0469 C816.6875,71.875 816.8594,71.5781 816.8594,71.2813 C816.8594,71 816.7188,70.75 816.4844,70.5781 C816.2969,70.4531 816.1406,70.4063 815.6719,70.4063 L810.5313,70.4063 C810.0938,70.4063 809.9531,70.4219 809.7813,70.5313 C809.5156,70.7031 809.3438,70.9844 809.3438,71.2813 C809.3438,71.5625 809.4844,71.8438 809.7188,72 C809.9063,72.125 810.0938,72.1563 810.5313,72.1563 L812.1875,72.1563 L812.1875,78.25 L810.5313,78.25 C810.0938,78.25 809.9531,78.2656 809.7813,78.375 C809.5156,78.5313 809.3438,78.8281 809.3438,79.1094 C809.3438,79.7188 809.75,80 810.5313,80 L815.6719,80 C816.4531,80 816.8594,79.7188 816.8594,79.1094 C816.8594,78.8438 816.7188,78.5938 816.4844,78.4219 C816.2969,78.2813 816.125,78.25 815.6719,78.25 L814.0156,78.25 L814.0156,72.1563 Z "/><text fill="#000000" font-family="sans-serif" font-size="14" font-style="italic" font-weight="bold" lengthAdjust="spacingAndGlyphs" textLength="32" x="827" y="80.95">View</text></a><!--class it.matlice.ingsw.xml.XMLWritable--><a target="_parent" xlink:actuate="onRequest" xlink:href="../../../it/matlice/ingsw/xml/XMLWritable.html" xlink:show="new" xlink:title="it.matlice.ingsw.xml.XMLWritable" xlink:type="simple"><rect fill="#FEFECE" filter="url(#fj83yg7)" height="32" style="stroke: #A80036; stroke-width: 1.5;" width="118" x="343" y="258"/><ellipse cx="358" cy="274" fill="#B4A7E5" rx="11" ry="11" style="stroke: #A80036; stroke-width: 1.0;"/><path d="M359.0156,271.1563 L360.6719,271.1563 C361.0625,271.1563 361.2656,271.125 361.4219,271.0469 C361.6875,270.875 361.8594,270.5781 361.8594,270.2813 C361.8594,270 361.7188,269.75 361.4844,269.5781 C361.2969,269.4531 361.1406,269.4063 360.6719,269.4063 L355.5313,269.4063 C355.0938,269.4063 354.9531,269.4219 354.7813,269.5313 C354.5156,269.7031 354.3438,269.9844 354.3438,270.2813 C354.3438,270.5625 354.4844,270.8438 354.7188,271 C354.9063,271.125 355.0938,271.1563 355.5313,271.1563 L357.1875,271.1563 L357.1875,277.25 L355.5313,277.25 C355.0938,277.25 354.9531,277.2656 354.7813,277.375 C354.5156,277.5313 354.3438,277.8281 354.3438,278.1094 C354.3438,278.7188 354.75,279 355.5313,279 L360.6719,279 C361.4531,279 361.8594,278.7188 361.8594,278.1094 C361.8594,277.8438 361.7188,277.5938 361.4844,277.4219 C361.2969,277.2813 361.125,277.25 360.6719,277.25 L359.0156,277.25 L359.0156,271.1563 Z "/><text fill="#000000" font-family="sans-serif" font-size="14" font-style="italic" font-weight="bold" lengthAdjust="spacingAndGlyphs" textLength="86" x="372" y="279.95">XMLWritable</text></a><!--class it.matlice.ingsw.xml.XMLParser--><a target="_parent" xlink:actuate="onRequest" xlink:href="../../../it/matlice/ingsw/xml/XMLParser.html" xlink:show="new" xlink:title="it.matlice.ingsw.xml.XMLParser" xlink:type="simple"><rect fill="#FEFECE" filter="url(#fj83yg7)" height="32" style="stroke: #A80036; stroke-width: 1.5;" width="105" x="496.5" y="258"/><ellipse cx="511.5" cy="274" fill="#ADD1B2" rx="11" ry="11" style="stroke: #A80036; stroke-width: 1.0;"/><path d="M506.5,275.1563 C506.5,277.6563 508.6406,279.4688 511.5625,279.4688 C512.7969,279.4688 513.9688,279.1719 514.7188,278.6563 C515.3281,278.2344 515.6563,277.8125 515.6563,277.4063 C515.6563,276.9375 515.2344,276.5313 514.7344,276.5313 C514.5,276.5313 514.2813,276.6094 514.0781,276.8125 C513.6406,277.25 513.6406,277.25 513.4688,277.3438 C513.0156,277.5781 512.375,277.7188 511.6094,277.7188 C509.6094,277.7188 508.3281,276.7031 508.3281,275.125 L508.3281,274.0781 C508.3281,272.375 509.5469,271.1719 511.25,271.1719 C511.8281,271.1719 512.4063,271.3125 512.875,271.5625 C513.3438,271.8281 513.5156,272.0156 513.5781,272.375 C513.7031,273.0469 513.9531,273.2969 514.4844,273.2969 C514.7656,273.2969 515.0469,273.1563 515.2344,272.9375 C515.3594,272.7656 515.4063,272.5938 515.4063,272.1563 L515.4063,270.7969 C515.4063,270.375 515.3906,270.2344 515.2656,270.0625 C515.0938,269.8125 514.8125,269.6563 514.4844,269.6563 C514.1719,269.6563 513.9688,269.7656 513.75,270.0313 C512.5781,269.5313 512.1406,269.4219 511.1875,269.4219 C508.5156,269.4219 506.5,271.4375 506.5,274.0625 L506.5,275.1563 Z "/><text fill="#000000" font-family="sans-serif" font-size="14" font-weight="bold" lengthAdjust="spacingAndGlyphs" textLength="73" x="525.5" y="278.606">XMLParser</text></a><!--class it.matlice.ingsw.xml.XMLNode--><a target="_parent" xlink:actuate="onRequest" xlink:href="../../../it/matlice/ingsw/xml/XMLNode.html" xlink:show="new" xlink:title="it.matlice.ingsw.xml.XMLNode" xlink:type="simple"><rect fill="#FEFECE" filter="url(#fj83yg7)" height="32" style="stroke: #A80036; stroke-width: 1.5;" width="98" x="637" y="258"/><ellipse cx="652" cy="274" fill="#ADD1B2" rx="11" ry="11" style="stroke: #A80036; stroke-width: 1.0;"/><path d="M647,275.1563 C647,277.6563 649.1406,279.4688 652.0625,279.4688 C653.2969,279.4688 654.4688,279.1719 655.2188,278.6563 C655.8281,278.2344 656.1563,277.8125 656.1563,277.4063 C656.1563,276.9375 655.7344,276.5313 655.2344,276.5313 C655,276.5313 654.7813,276.6094 654.5781,276.8125 C654.1406,277.25 654.1406,277.25 653.9688,277.3438 C653.5156,277.5781 652.875,277.7188 652.1094,277.7188 C650.1094,277.7188 648.8281,276.7031 648.8281,275.125 L648.8281,274.0781 C648.8281,272.375 650.0469,271.1719 651.75,271.1719 C652.3281,271.1719 652.9063,271.3125 653.375,271.5625 C653.8438,271.8281 654.0156,272.0156 654.0781,272.375 C654.2031,273.0469 654.4531,273.2969 654.9844,273.2969 C655.2656,273.2969 655.5469,273.1563 655.7344,272.9375 C655.8594,272.7656 655.9063,272.5938 655.9063,272.1563 L655.9063,270.7969 C655.9063,270.375 655.8906,270.2344 655.7656,270.0625 C655.5938,269.8125 655.3125,269.6563 654.9844,269.6563 C654.6719,269.6563 654.4688,269.7656 654.25,270.0313 C653.0781,269.5313 652.6406,269.4219 651.6875,269.4219 C649.0156,269.4219 647,271.4375 647,274.0625 L647,275.1563 Z "/><text fill="#000000" font-family="sans-serif" font-size="14" font-weight="bold" lengthAdjust="spacingAndGlyphs" textLength="66" x="666" y="278.606">XMLNode</text></a><!--class it.matlice.ingsw.xml.XMLConversion--><a target="_parent" xlink:actuate="onRequest" xlink:href="../../../it/matlice/ingsw/xml/XMLConversion.html" xlink:show="new" xlink:title="it.matlice.ingsw.xml.XMLConversion" xlink:type="simple"><rect fill="#FEFECE" filter="url(#fj83yg7)" height="32" style="stroke: #A80036; stroke-width: 1.5;" width="141" x="343.5" y="350"/><ellipse cx="358.5" cy="366" fill="#B4A7E5" rx="11" ry="11" style="stroke: #A80036; stroke-width: 1.0;"/><path d="M359.5156,363.1563 L361.1719,363.1563 C361.5625,363.1563 361.7656,363.125 361.9219,363.0469 C362.1875,362.875 362.3594,362.5781 362.3594,362.2813 C362.3594,362 362.2188,361.75 361.9844,361.5781 C361.7969,361.4531 361.6406,361.4063 361.1719,361.4063 L356.0313,361.4063 C355.5938,361.4063 355.4531,361.4219 355.2813,361.5313 C355.0156,361.7031 354.8438,361.9844 354.8438,362.2813 C354.8438,362.5625 354.9844,362.8438 355.2188,363 C355.4063,363.125 355.5938,363.1563 356.0313,363.1563 L357.6875,363.1563 L357.6875,369.25 L356.0313,369.25 C355.5938,369.25 355.4531,369.2656 355.2813,369.375 C355.0156,369.5313 354.8438,369.8281 354.8438,370.1094 C354.8438,370.7188 355.25,371 356.0313,371 L361.1719,371 C361.9531,371 362.3594,370.7188 362.3594,370.1094 C362.3594,369.8438 362.2188,369.5938 361.9844,369.4219 C361.7969,369.2813 361.625,369.25 361.1719,369.25 L359.5156,369.25 L359.5156,363.1563 Z "/><text fill="#000000" font-family="sans-serif" font-size="14" font-style="italic" font-weight="bold" lengthAdjust="spacingAndGlyphs" textLength="109" x="372.5" y="371.95">XMLConversion</text></a><!--class it.matlice.ingsw.xml.Utils--><a target="_parent" xlink:actuate="onRequest" xlink:href="../../../it/matlice/ingsw/xml/Utils.html" xlink:show="new" xlink:title="it.matlice.ingsw.xml.Utils" xlink:type="simple"><rect fill="#FEFECE" filter="url(#fj83yg7)" height="32" style="stroke: #A80036; stroke-width: 1.5;" width="63" x="519.5" y="350"/><ellipse cx="534.5" cy="366" fill="#ADD1B2" rx="11" ry="11" style="stroke: #A80036; stroke-width: 1.0;"/><path d="M529.5,367.1563 C529.5,369.6563 531.6406,371.4688 534.5625,371.4688 C535.7969,371.4688 536.9688,371.1719 537.7188,370.6563 C538.3281,370.2344 538.6563,369.8125 538.6563,369.4063 C538.6563,368.9375 538.2344,368.5313 537.7344,368.5313 C537.5,368.5313 537.2813,368.6094 537.0781,368.8125 C536.6406,369.25 536.6406,369.25 536.4688,369.3438 C536.0156,369.5781 535.375,369.7188 534.6094,369.7188 C532.6094,369.7188 531.3281,368.7031 531.3281,367.125 L531.3281,366.0781 C531.3281,364.375 532.5469,363.1719 534.25,363.1719 C534.8281,363.1719 535.4063,363.3125 535.875,363.5625 C536.3438,363.8281 536.5156,364.0156 536.5781,364.375 C536.7031,365.0469 536.9531,365.2969 537.4844,365.2969 C537.7656,365.2969 538.0469,365.1563 538.2344,364.9375 C538.3594,364.7656 538.4063,364.5938 538.4063,364.1563 L538.4063,362.7969 C538.4063,362.375 538.3906,362.2344 538.2656,362.0625 C538.0938,361.8125 537.8125,361.6563 537.4844,361.6563 C537.1719,361.6563 536.9688,361.7656 536.75,362.0313 C535.5781,361.5313 535.1406,361.4219 534.1875,361.4219 C531.5156,361.4219 529.5,363.4375 529.5,366.0625 L529.5,367.1563 Z "/><text fill="#000000" font-family="sans-serif" font-size="14" font-weight="bold" lengthAdjust="spacingAndGlyphs" textLength="31" x="548.5" y="370.606">Utils</text></a><!--class it.matlice.ingsw.xml.PrettyXMLStreamWriter--><a target="_parent" xlink:actuate="onRequest" xlink:href="../../../it/matlice/ingsw/xml/PrettyXMLStreamWriter.html" xlink:show="new" xlink:title="it.matlice.ingsw.xml.PrettyXMLStreamWriter" xlink:type="simple"><rect fill="#FEFECE" filter="url(#fj83yg7)" height="32" style="stroke: #A80036; stroke-width: 1.5;" width="189" x="617.5" y="350"/><ellipse cx="632.5" cy="366" fill="#ADD1B2" rx="11" ry="11" style="stroke: #A80036; stroke-width: 1.0;"/><path d="M627.5,367.1563 C627.5,369.6563 629.6406,371.4688 632.5625,371.4688 C633.7969,371.4688 634.9688,371.1719 635.7188,370.6563 C636.3281,370.2344 636.6563,369.8125 636.6563,369.4063 C636.6563,368.9375 636.2344,368.5313 635.7344,368.5313 C635.5,368.5313 635.2813,368.6094 635.0781,368.8125 C634.6406,369.25 634.6406,369.25 634.4688,369.3438 C634.0156,369.5781 633.375,369.7188 632.6094,369.7188 C630.6094,369.7188 629.3281,368.7031 629.3281,367.125 L629.3281,366.0781 C629.3281,364.375 630.5469,363.1719 632.25,363.1719 C632.8281,363.1719 633.4063,363.3125 633.875,363.5625 C634.3438,363.8281 634.5156,364.0156 634.5781,364.375 C634.7031,365.0469 634.9531,365.2969 635.4844,365.2969 C635.7656,365.2969 636.0469,365.1563 636.2344,364.9375 C636.3594,364.7656 636.4063,364.5938 636.4063,364.1563 L636.4063,362.7969 C636.4063,362.375 636.3906,362.2344 636.2656,362.0625 C636.0938,361.8125 635.8125,361.6563 635.4844,361.6563 C635.1719,361.6563 634.9688,361.7656 634.75,362.0313 C633.5781,361.5313 633.1406,361.4219 632.1875,361.4219 C629.5156,361.4219 627.5,363.4375 627.5,366.0625 L627.5,367.1563 Z "/><text fill="#000000" font-family="sans-serif" font-size="14" font-weight="bold" lengthAdjust="spacingAndGlyphs" textLength="157" x="646.5" y="370.606">PrettyXMLStreamWriter</text></a></g></svg>